<?xml version="1.0" encoding="UTF-8"?>
<svg width="48px" height="48px" viewBox="0 0 48 48" version="1.1" xmlns="http://www.w3.org/2000/svg" xmlns:xlink="http://www.w3.org/1999/xlink">
    <!-- Generator: Sketch 46.2 (44496) - http://www.bohemiancoding.com/sketch -->
    <title>icon/Nav/arrow-right</title>
    <desc>Created with Sketch.</desc>
    <defs>
        <path d="M26.5857864,12.9230769 L16.2928932,22.4242091 C15.9023689,22.7846931 15.9023689,23.3691531 16.2928932,23.729637 C16.6834175,24.090121 17.3165825,24.090121 17.7071068,23.729637 L29.7071068,12.652714 C30.0976311,12.29223 30.0976311,11.70777 29.7071068,11.347286 L17.7071068,0.270362971 C17.3165825,-0.0901209904 16.6834175,-0.0901209904 16.2928932,0.270362971 C15.9023689,0.630846933 15.9023689,1.21530691 16.2928932,1.57579087 L26.5857864,11.0769231 L1,11.0769231 C0.44771525,11.0769231 0,11.4901987 0,12 C0,12.5098013 0.44771525,12.9230769 1,12.9230769 L26.5857864,12.9230769 Z" id="path-1"></path>
    </defs>
    <g id="Symbols" stroke="none" stroke-width="1" fill="none" fill-rule="evenodd">
        <g id="icon/Nav/arrow-right">
            <g id="Icon" transform="translate(9.000000, 12.000000)">
                <mask id="mask-2" fill="white">
                    <use xlink:href="#path-1"></use>
                </mask>
                <use id="Path" fill="#384048" fill-rule="nonzero" xlink:href="#path-1"></use>
                <g id="Color/Grayscale/Night-Sky" mask="url(#mask-2)" fill="#111111">
                    <g transform="translate(-9.000000, -12.000000)" id="Swatch">
                        <rect x="0" y="0" width="48" height="48"></rect>
                    </g>
                </g>
            </g>
        </g>
    </g>
</svg>