<svg xmlns="http://www.w3.org/2000/svg" xmlns:xlink="http://www.w3.org/1999/xlink" width="32" height="32" viewBox="0 0 32 32">
  <defs>
    <path id="return-a" d="M18.4372286,14.6998691 C18.6141121,14.8843229 18.6677678,15.0599394 18.6815821,15.1747221 L18.6894903,15.241105 L18.683384,15.3076933 C18.6725728,15.4274085 18.6208191,15.6104237 18.436628,15.8025845 C18.013489,16.2453765 16.5319519,17.7566648 16.4689866,17.8207869 C16.3520653,17.9402966 16.1989064,18 16.0458476,18 C15.8914874,18 15.7371273,17.939269 15.6198055,17.8180124 C15.3859629,17.5764241 15.3871642,17.1861424 15.6225084,16.9461983 C15.6311173,16.9373609 16.1254301,16.4330158 16.6279515,15.9184975 L6.06619368,15.9184975 C2.72132337,15.9184975 0,12.8186455 0,9.0085177 C0,6.35053278 1.30104984,3.9720545 3.39552285,2.80141488 C3.68672498,2.63843784 4.05160354,2.74900739 4.21026815,3.0480384 C4.36883266,3.34706941 4.26132112,3.72152611 3.96991879,3.88440039 C2.28797377,4.82454978 1.20124629,6.8358673 1.20124629,9.0085177 C1.20124629,12.1387867 3.3836105,14.68538 6.06619368,14.68538 L16.7279553,14.68538 C16.1932004,14.1368482 15.6315177,13.5631402 15.622208,13.5536863 C15.386964,13.3134339 15.386063,12.9230494 15.6200058,12.6817694 C15.8540486,12.4402839 16.234243,12.4394618 16.469387,12.6795087 C16.5323523,12.7438363 18.0160917,14.2592351 18.4372286,14.6998691 Z M22.2468811,4.14777375 C23.377354,5.44974039 24,7.17589947 24,9.0085177 C24,11.6666054 22.6985497,14.0450837 20.6035762,15.2155178 C20.5123816,15.2664866 20.4140796,15.2907379 20.3169789,15.2907379 C20.1041581,15.2907379 19.8979441,15.1743111 19.7890311,14.9687915 C19.6303665,14.6697605 19.7379782,14.2953038 20.0293805,14.1325323 C21.7117259,13.1924856 22.7987537,11.1812709 22.7987537,9.0085177 C22.7987537,7.47893811 22.28432,6.0440003 21.3501508,4.96831074 C20.4333997,3.91255658 19.220241,3.3312444 17.9341066,3.3312444 L7.28786116,3.33103888 C7.81781098,3.87453545 8.3684823,4.43693982 8.37769186,4.44639372 C8.61283582,4.68654337 8.61383686,5.07692784 8.37979404,5.31831061 C8.26247232,5.43946441 8.10831237,5.49998993 7.95405233,5.49998993 C7.80079332,5.49998993 7.64763442,5.44018373 7.53051291,5.32046856 C7.46754758,5.25624369 5.9837081,3.74084495 5.56257117,3.30021094 C5.38578775,3.1157571 5.33203198,2.94014061 5.31831775,2.82535792 L5.31030945,2.75897509 L5.31641578,2.69238674 C5.3273271,2.57256881 5.37898069,2.38955361 5.56317179,2.19749555 C5.98621069,1.75470358 7.467948,0.24331248 7.53081322,0.179190366 C7.76605728,-0.0607537617 8.14625174,-0.059623404 8.38019445,0.18196488 C8.61393696,0.423553165 8.61273571,0.813937636 8.37749165,1.05388176 C8.36868251,1.06282187 7.86395886,1.57775121 7.35593178,2.09792131 L17.9341066,2.09812683 C19.5675013,2.09812683 21.0989902,2.82597447 22.2468811,4.14777375 Z"/>
  </defs>
  <g fill="none" fill-rule="evenodd" transform="translate(4 7)">
    <use fill="#333" xlink:href="#return-a"/>
  </g>
</svg>
