<svg xmlns="http://www.w3.org/2000/svg" xmlns:xlink="http://www.w3.org/1999/xlink" width="32" height="32" viewBox="0 0 32 32">
  <defs>
    <path id="cart-a" d="M4.49576638,4.46736465 C4.4935007,4.4563874 4.49143053,4.44533172 4.48955997,4.434202 L3.98283376,1.72661871 L0.807844898,1.72661871 C0.361684481,1.72661871 0,1.34010194 0,0.863309353 C0,0.386516763 0.361684481,0 0.807844898,0 L4.64510816,0 C5.03019249,0 5.36174401,0.290468778 5.43726526,0.694000459 L5.94692644,3.41726619 L23.1918806,3.41726619 C23.7016682,3.41726619 24.0840153,3.91567557 23.9840377,4.44988443 L22.70495,11.2844168 C22.6294287,11.6879485 22.2978772,11.9784173 21.9127929,11.9784173 L7.54915216,11.9784173 L7.86555807,13.6690647 L21.9127929,13.6690647 C22.3589533,13.6690647 22.7206378,14.0555815 22.7206378,14.5323741 C22.7206378,15.0091667 22.3589533,15.3956835 21.9127929,15.3956835 L7.20328367,15.3956835 C6.81819934,15.3956835 6.48664783,15.1052147 6.41112658,14.701683 L5.77485418,11.3018973 C5.77258846,11.2909198 5.77051828,11.2798641 5.76864772,11.2687344 L4.49576643,4.46736491 Z M10.4010031,20 C9.34137207,20 8.48237143,19.0820227 8.48237143,17.9496403 C8.48237143,16.8172579 9.34137207,15.8992806 10.4010031,15.8992806 C11.4606341,15.8992806 12.3196347,16.8172579 12.3196347,17.9496403 C12.3196347,19.0820227 11.4606341,20 10.4010031,20 Z M18.7150735,20 C17.6554425,20 16.7964418,19.0820227 16.7964418,17.9496403 C16.7964418,16.8172579 17.6554425,15.8992806 18.7150735,15.8992806 C19.7747045,15.8992806 20.6337051,16.8172579 20.6337051,17.9496403 C20.6337051,19.0820227 19.7747045,20 18.7150735,20 Z"/>
  </defs>
  <g fill="none" fill-rule="evenodd" transform="translate(4 6)">
    <use fill="#384048" xlink:href="#cart-a"/>
  </g>
</svg>
