<svg id="icon_x2F_Utility_x2F_Cart_x2F_cart-Layer_1" xmlns="http://www.w3.org/2000/svg" viewBox="0 0 48 48" enable-background="new 0 0 48 48"><title>icon/Utility/Cart/cart</title><g id="icon_x2F_Utility_x2F_Cart_x2F_cart-Symbols"><g id="icon_x2F_Utility_x2F_Cart_x2F_cart"><g id="icon_x2F_Utility_x2F_Cart_x2F_cart-Icon" transform="translate(9 12)"><g id="icon_x2F_Utility_x2F_Cart_x2F_cart-Mask"><path id="icon_x2F_Utility_x2F_Cart_x2F_cart-path-1_1_" d="M5.6 5.4c0-.1 0-.1 0 0L5 2.1H1c-.6 0-1-.5-1-1s.5-1 1-1h4.8c.5 0 .9.3 1 .8l.6 3.3H29c.6 0 1.1.6 1 1.2l-1.6 8.2c-.1.5-.5.8-1 .8h-18l.4 2h17.6c.6 0 1 .5 1 1s-.5 1-1 1H9c-.5 0-.9-.3-1-.8l-.8-4.1-1.6-8.1zM13 24c-1.3 0-2.4-1.1-2.4-2.5S11.7 19 13 19s2.4 1.1 2.4 2.5S14.3 24 13 24zm10.4 0c-1.3 0-2.4-1.1-2.4-2.5s1.1-2.5 2.4-2.5c1.3 0 2.4 1.1 2.4 2.5S24.7 24 23.4 24z" fill="#384048"/></g><defs><filter id="icon_x2F_Utility_x2F_Cart_x2F_cart-Adobe_OpacityMaskFilter" filterUnits="userSpaceOnUse" x="-9" y="-12" width="48" height="48"><feColorMatrix values="1 0 0 0 0 0 1 0 0 0 0 0 1 0 0 0 0 0 1 0"/></filter></defs><mask maskUnits="userSpaceOnUse" x="-9" y="-12" width="48" height="48" id="icon_x2F_Utility_x2F_Cart_x2F_cart-mask-2"><g filter="url(#icon_x2F_Utility_x2F_Cart_x2F_cart-Adobe_OpacityMaskFilter)"><path id="icon_x2F_Utility_x2F_Cart_x2F_cart-path-1" d="M5.6 5.4c0-.1 0-.1 0 0L5 2.1H1c-.6 0-1-.5-1-1s.5-1 1-1h4.8c.5 0 .9.3 1 .8l.6 3.3H29c.6 0 1.1.6 1 1.2l-1.6 8.2c-.1.5-.5.8-1 .8h-18l.4 2h17.6c.6 0 1 .5 1 1s-.5 1-1 1H9c-.5 0-.9-.3-1-.8l-.8-4.1-1.6-8.1zM13 24c-1.3 0-2.4-1.1-2.4-2.5S11.7 19 13 19s2.4 1.1 2.4 2.5S14.3 24 13 24zm10.4 0c-1.3 0-2.4-1.1-2.4-2.5s1.1-2.5 2.4-2.5c1.3 0 2.4 1.1 2.4 2.5S24.7 24 23.4 24z" fill="#fff"/></g></mask><g id="icon_x2F_Utility_x2F_Cart_x2F_cart-Color_x2F_Grayscale_x2F_Night-Sky" mask="url(#icon_x2F_Utility_x2F_Cart_x2F_cart-mask-2)"><path fill="#111" d="M0 0h48v48H0z" transform="translate(-9 -12)" id="icon_x2F_Utility_x2F_Cart_x2F_cart-Swatch"/></g></g></g></g></svg>