<?xml version="1.0" encoding="utf-8"?>
<svg version="1.1" id="icon_x2F_Utility_x2F_Cart_x2F_cart-Layer_1"
	 xmlns="http://www.w3.org/2000/svg" xmlns:xlink="http://www.w3.org/1999/xlink" x="0px" y="0px" viewBox="0 0 48 48"
	 style="enable-background:new 0 0 48 48;" xml:space="preserve">
<path id="icon_x2F_Utility_x2F_Cart_x2F_cart-path-1_1_" style="fill:#111111;" d="M14.6,17.4C14.6,17.3,14.6,17.3,14.6,17.4
	L14,14.1h-4c-0.6,0-1-0.5-1-1s0.5-1,1-1h4.8c0.5,0,0.9,0.3,1,0.8l0.6,3.3H38c0.6,0,1.1,0.6,1,1.2l-1.6,8.2c-0.1,0.5-0.5,0.8-1,0.8
	h-18l0.4,2h17.6c0.6,0,1,0.5,1,1s-0.5,1-1,1H18c-0.5,0-0.9-0.3-1-0.8l-0.8-4.1C16.2,25.5,14.6,17.4,14.6,17.4z M22,36
	c-1.3,0-2.4-1.1-2.4-2.5S20.7,31,22,31s2.4,1.1,2.4,2.5S23.3,36,22,36z M32.4,36c-1.3,0-2.4-1.1-2.4-2.5s1.1-2.5,2.4-2.5
	c1.3,0,2.4,1.1,2.4,2.5S33.7,36,32.4,36z"/>
</svg>
