<?xml version="1.0" encoding="utf-8"?>
<!-- Generator: Adobe Illustrator 21.0.2, SVG Export Plug-In . SVG Version: 6.00 Build 0)  -->
<svg version="1.1" id="icon_x2F_Utility_x2F_Cart_x2F_cart-Layer_1" xmlns="http://www.w3.org/2000/svg" xmlns:xlink="http://www.w3.org/1999/xlink" x="0px" y="0px"
	 viewBox="0 0 48 48" style="enable-background:new 0 0 48 48;" xml:space="preserve">
<title>icon/Utility/Cart/cart</title>
<desc>Created with Sketch.</desc>
<g id="icon_x2F_Utility_x2F_Cart_x2F_cart-Symbols">
	<g id="icon_x2F_Utility_x2F_Cart_x2F_cart">
		<g id="icon_x2F_Utility_x2F_Cart_x2F_cart-Icon" transform="translate(9.000000, 12.000000)">
			<g id="icon_x2F_Utility_x2F_Cart_x2F_cart-Mask">
				<path id="icon_x2F_Utility_x2F_Cart_x2F_cart-path-1_1_" style="fill:#384048;" d="M5.6,5.4C5.6,5.3,5.6,5.3,5.6,5.4L5,2.1H1c-0.6,0-1-0.5-1-1s0.5-1,1-1h4.8
					c0.5,0,0.9,0.3,1,0.8l0.6,3.3H29c0.6,0,1.1,0.6,1,1.2l-1.6,8.2c-0.1,0.5-0.5,0.8-1,0.8h-18l0.4,2h17.6c0.6,0,1,0.5,1,1
					s-0.5,1-1,1H9c-0.5,0-0.9-0.3-1-0.8l-0.8-4.1c0,0,0,0,0,0C7.2,13.5,5.6,5.4,5.6,5.4z M13,24c-1.3,0-2.4-1.1-2.4-2.5
					c0-1.4,1.1-2.5,2.4-2.5s2.4,1.1,2.4,2.5C15.4,22.9,14.3,24,13,24z M23.4,24c-1.3,0-2.4-1.1-2.4-2.5c0-1.4,1.1-2.5,2.4-2.5
					c1.3,0,2.4,1.1,2.4,2.5C25.8,22.9,24.7,24,23.4,24z"/>
			</g>
			<defs>
				<filter id="icon_x2F_Utility_x2F_Cart_x2F_cart-Adobe_OpacityMaskFilter" filterUnits="userSpaceOnUse" x="-9" y="-12" width="48" height="48">
					<feColorMatrix  type="matrix" values="1 0 0 0 0  0 1 0 0 0  0 0 1 0 0  0 0 0 1 0"/>
				</filter>
			</defs>
			<mask maskUnits="userSpaceOnUse" x="-9" y="-12" width="48" height="48" id="icon_x2F_Utility_x2F_Cart_x2F_cart-mask-2">
				<g style="filter:url(#icon_x2F_Utility_x2F_Cart_x2F_cart-Adobe_OpacityMaskFilter);">
					<path id="icon_x2F_Utility_x2F_Cart_x2F_cart-path-1" style="fill:#FFFFFF;" d="M5.6,5.4C5.6,5.3,5.6,5.3,5.6,5.4L5,2.1H1c-0.6,0-1-0.5-1-1s0.5-1,1-1h4.8
						c0.5,0,0.9,0.3,1,0.8l0.6,3.3H29c0.6,0,1.1,0.6,1,1.2l-1.6,8.2c-0.1,0.5-0.5,0.8-1,0.8h-18l0.4,2h17.6c0.6,0,1,0.5,1,1
						s-0.5,1-1,1H9c-0.5,0-0.9-0.3-1-0.8l-0.8-4.1c0,0,0,0,0,0C7.2,13.5,5.6,5.4,5.6,5.4z M13,24c-1.3,0-2.4-1.1-2.4-2.5
						c0-1.4,1.1-2.5,2.4-2.5s2.4,1.1,2.4,2.5C15.4,22.9,14.3,24,13,24z M23.4,24c-1.3,0-2.4-1.1-2.4-2.5c0-1.4,1.1-2.5,2.4-2.5
						c1.3,0,2.4,1.1,2.4,2.5C25.8,22.9,24.7,24,23.4,24z"/>
				</g>
			</mask>
			<g id="icon_x2F_Utility_x2F_Cart_x2F_cart-Color_x2F_Grayscale_x2F_Night-Sky" style="mask:url(#icon_x2F_Utility_x2F_Cart_x2F_cart-mask-2);">
				<g id="icon_x2F_Utility_x2F_Cart_x2F_cart-Swatch" transform="translate(-9.000000, -12.000000)">
					<rect style="fill:#111111;" width="48" height="48"/>
				</g>
			</g>
		</g>
	</g>
</g>
</svg>
