<?xml version="1.0" encoding="utf-8"?>
<svg version="1.1" id="icon_x2F_Utility_x2F_Cart_Full_x2F_cart-Layer_1" xmlns="http://www.w3.org/2000/svg" xmlns:xlink="http://www.w3.org/1999/xlink" x="0px" y="0px"
	 viewBox="0 0 32 32" style="enable-background:new 0 0 32 32;" xml:space="preserve">
<path id="icon_x2F_Utility_x2F_Cart_Full_x2F_cart-Path-1" style="fill:#FFFFFF;" d="M24.3,19.4l1.7-9.7c0.1-0.5,0.6-0.9,1.1-0.8C27.7,9,28,9.4,28,10c0,0,0,0,0,0.1l-1.9,10.6
	c0,0,0,0,0,0.1c-0.1,0.5-0.5,0.8-1,0.8H10c-0.5,0-0.9-0.3-1-0.8c0,0,0,0,0-0.1L6.8,7.9h-3c-0.5,0-1-0.4-1-1c0-0.5,0.4-1,1-1h3.8
	c0.5,0,0.9,0.4,1,0.9l2.2,12.5H24.3L24.3,19.4z M12.3,27.5c-1.2,0-2.3-1-2.3-2.3s1-2.3,2.3-2.3s2.3,1,2.3,2.3S13.5,27.5,12.3,27.5z
	 M22.3,27.5c-1.2,0-2.3-1-2.3-2.3s1-2.3,2.3-2.3s2.3,1,2.3,2.3S23.5,27.5,22.3,27.5z"/>
</svg>
