<?xml version="1.0" encoding="UTF-8"?>
<svg width="48px" height="48px" viewBox="0 0 48 48" version="1.1" xmlns="http://www.w3.org/2000/svg" xmlns:xlink="http://www.w3.org/1999/xlink">
    <!-- Generator: Sketch 46.2 (44496) - http://www.bohemiancoding.com/sketch -->
    <title>icon/Utility/Cart/express-checkout</title>
    <desc>Created with Sketch.</desc>
    <defs>
        <path d="M23.7978813,0.279745706 C23.7978813,0.279745706 23.6803084,0 23.2862151,0 L12.559347,0 C12.1984406,0 11.996809,0.253725492 11.996809,0.253725492 L8.94122192,3.36819739 L6.9671533,18.8405665 C6.88080213,19.4809592 7.30971965,20 7.92487624,20 L23.5465787,20 C24.1618444,20 24.730605,19.4809592 24.8166287,18.8405665 L26,3.36365237 L23.7978813,0.279745706 L23.7978813,0.279745706 Z M21.9536124,8.16705205 C21.5098481,9.80155326 19.7883922,12.89455 16.4502807,12.901822 L16.4384906,12.901822 C15.2125441,12.901822 14.2054777,12.5011789 13.4446922,11.7108007 C12.0626367,10.274803 12.0473533,8.07444735 12.0474625,7.98150179 C12.0475717,7.60506087 12.3407945,7.29997671 12.7024651,7.29997671 L12.7026834,7.29997671 C13.0638082,7.30009033 13.3565943,7.60437912 13.3574677,7.98002466 C13.3575768,7.99422783 13.3684935,8.9428862 13.781036,9.85393456 C14.2943397,10.9873478 15.1636373,11.5384309 16.4383815,11.5384309 L16.4477698,11.5384309 C17.7621417,11.5355903 18.867786,10.9253084 19.7339178,9.72451525 C20.4169763,8.77756126 20.6909857,7.80458706 20.6937149,7.79481527 C20.7934936,7.43360016 21.1558192,7.22396132 21.5029706,7.32701955 C21.8500128,7.42996415 22.0518628,7.80538243 21.9536124,8.16705205 Z M5.78585614,10.7195328 L1.52833936,10.7195328 C1.16666877,10.7195328 0.873336776,10.4142214 0.873336776,10.0377804 C0.873336776,9.66133953 1.16666877,9.35602811 1.52833936,9.35602811 L5.78585614,9.35602811 C6.14752674,9.35602811 6.44085873,9.66133953 6.44085873,10.0377804 C6.44085873,10.4142214 6.14752674,10.7195328 5.78585614,10.7195328 Z M5.34918775,14.7532341 L3.05667872,14.7532341 C2.69500812,14.7532341 2.40167613,14.4479226 2.40167613,14.0714817 C2.40167613,13.6949272 2.69500812,13.3897294 3.05667872,13.3897294 L5.34918775,13.3897294 C5.71085835,13.3897294 6.00419034,13.6949272 6.00419034,14.0714817 C6.00419034,14.4479226 5.71085835,14.7532341 5.34918775,14.7532341 Z M6.55002582,6.68583148 L0.655002582,6.68583148 C0.29333199,6.68583148 0,6.38063369 0,6.00407915 C0,5.62752461 0.29333199,5.32232682 0.655002582,5.32232682 L6.55002582,5.32232682 C6.91169641,5.32232682 7.2050284,5.62752461 7.2050284,6.00407915 C7.2050284,6.38063369 6.91169641,6.68583148 6.55002582,6.68583148 Z" id="path-1"></path>
    </defs>
    <g id="Symbols" stroke="none" stroke-width="1" fill="none" fill-rule="evenodd">
        <g id="icon/Utility/Cart/express-checkout">
            <g id="Icon" transform="translate(11.000000, 14.000000)">
                <mask id="mask-2" fill="white">
                    <use xlink:href="#path-1"></use>
                </mask>
                <use id="Mask" fill="#384048" xlink:href="#path-1"></use>
                <g id="Color/Grayscale/Night-Sky" mask="url(#mask-2)" fill="#111111">
                    <g transform="translate(-11.000000, -14.000000)" id="Swatch">
                        <rect x="0" y="0" width="48" height="48"></rect>
                    </g>
                </g>
            </g>
        </g>
    </g>
</svg>