<?xml version="1.0" encoding="utf-8"?>
<!-- Generator: Adobe Illustrator 21.0.2, SVG Export Plug-In . SVG Version: 6.00 Build 0)  -->
<svg version="1.1" id="icon_x2F_Utility_x2F_Cart_x2F_express-checkout-Layer_1" xmlns="http://www.w3.org/2000/svg" xmlns:xlink="http://www.w3.org/1999/xlink" x="0px" y="0px"
	 viewBox="0 0 48 48" style="enable-background:new 0 0 48 48;" xml:space="preserve">
<title>icon/Utility/Cart/express-checkout</title>
<desc>Created with Sketch.</desc>
<g id="icon_x2F_Utility_x2F_Cart_x2F_express-checkout-Symbols">
	<g id="icon_x2F_Utility_x2F_Cart_x2F_express-checkout">
		<g id="icon_x2F_Utility_x2F_Cart_x2F_express-checkout-Icon" transform="translate(11.000000, 14.000000)">
			<g id="icon_x2F_Utility_x2F_Cart_x2F_express-checkout-Mask">
				<path id="icon_x2F_Utility_x2F_Cart_x2F_express-checkout-path-1_1_" style="fill:#384048;" d="M23.8,0.3c0,0-0.1-0.3-0.5-0.3H12.6C12.2,0,12,0.3,12,0.3L8.9,3.4L7,18.8
					c-0.1,0.6,0.3,1.2,1,1.2h15.6c0.6,0,1.2-0.5,1.3-1.2L26,3.4L23.8,0.3L23.8,0.3z M22,8.2c-0.4,1.6-2.2,4.7-5.5,4.7h0
					c-1.2,0-2.2-0.4-3-1.2C12.1,10.3,12,8.1,12,8c0-0.4,0.3-0.7,0.7-0.7h0c0.4,0,0.7,0.3,0.7,0.7c0,0,0,1,0.4,1.9
					c0.5,1.1,1.4,1.7,2.7,1.7h0c1.3,0,2.4-0.6,3.3-1.8c0.7-0.9,1-1.9,1-1.9c0.1-0.4,0.5-0.6,0.8-0.5C21.9,7.4,22.1,7.8,22,8.2z
					 M5.8,10.7H1.5c-0.4,0-0.7-0.3-0.7-0.7s0.3-0.7,0.7-0.7h4.3c0.4,0,0.7,0.3,0.7,0.7S6.1,10.7,5.8,10.7z M5.3,14.8H3.1
					c-0.4,0-0.7-0.3-0.7-0.7c0-0.4,0.3-0.7,0.7-0.7h2.3c0.4,0,0.7,0.3,0.7,0.7C6,14.4,5.7,14.8,5.3,14.8z M6.6,6.7H0.7
					C0.3,6.7,0,6.4,0,6c0-0.4,0.3-0.7,0.7-0.7h5.9c0.4,0,0.7,0.3,0.7,0.7C7.2,6.4,6.9,6.7,6.6,6.7z"/>
			</g>
			<defs>
				<filter id="icon_x2F_Utility_x2F_Cart_x2F_express-checkout-Adobe_OpacityMaskFilter" filterUnits="userSpaceOnUse" x="-11" y="-14" width="48" height="48">
					<feColorMatrix  type="matrix" values="1 0 0 0 0  0 1 0 0 0  0 0 1 0 0  0 0 0 1 0"/>
				</filter>
			</defs>
			<mask maskUnits="userSpaceOnUse" x="-11" y="-14" width="48" height="48" id="icon_x2F_Utility_x2F_Cart_x2F_express-checkout-mask-2">
				<g style="filter:url(#icon_x2F_Utility_x2F_Cart_x2F_express-checkout-Adobe_OpacityMaskFilter);">
					<path id="icon_x2F_Utility_x2F_Cart_x2F_express-checkout-path-1" style="fill:#FFFFFF;" d="M23.8,0.3c0,0-0.1-0.3-0.5-0.3H12.6C12.2,0,12,0.3,12,0.3L8.9,3.4L7,18.8
						c-0.1,0.6,0.3,1.2,1,1.2h15.6c0.6,0,1.2-0.5,1.3-1.2L26,3.4L23.8,0.3L23.8,0.3z M22,8.2c-0.4,1.6-2.2,4.7-5.5,4.7h0
						c-1.2,0-2.2-0.4-3-1.2C12.1,10.3,12,8.1,12,8c0-0.4,0.3-0.7,0.7-0.7h0c0.4,0,0.7,0.3,0.7,0.7c0,0,0,1,0.4,1.9
						c0.5,1.1,1.4,1.7,2.7,1.7h0c1.3,0,2.4-0.6,3.3-1.8c0.7-0.9,1-1.9,1-1.9c0.1-0.4,0.5-0.6,0.8-0.5C21.9,7.4,22.1,7.8,22,8.2z
						 M5.8,10.7H1.5c-0.4,0-0.7-0.3-0.7-0.7s0.3-0.7,0.7-0.7h4.3c0.4,0,0.7,0.3,0.7,0.7S6.1,10.7,5.8,10.7z M5.3,14.8H3.1
						c-0.4,0-0.7-0.3-0.7-0.7c0-0.4,0.3-0.7,0.7-0.7h2.3c0.4,0,0.7,0.3,0.7,0.7C6,14.4,5.7,14.8,5.3,14.8z M6.6,6.7H0.7
						C0.3,6.7,0,6.4,0,6c0-0.4,0.3-0.7,0.7-0.7h5.9c0.4,0,0.7,0.3,0.7,0.7C7.2,6.4,6.9,6.7,6.6,6.7z"/>
				</g>
			</mask>
			<g id="icon_x2F_Utility_x2F_Cart_x2F_express-checkout-Color_x2F_Grayscale_x2F_Night-Sky" style="mask:url(#icon_x2F_Utility_x2F_Cart_x2F_express-checkout-mask-2);">
				<g id="icon_x2F_Utility_x2F_Cart_x2F_express-checkout-Swatch" transform="translate(-11.000000, -14.000000)">
					<rect style="fill:#111111;" width="48" height="48"/>
				</g>
			</g>
		</g>
	</g>
</g>
</svg>
