<?xml version="1.0" encoding="UTF-8"?>
<svg width="48px" height="48px" viewBox="0 0 48 48" version="1.1" xmlns="http://www.w3.org/2000/svg" xmlns:xlink="http://www.w3.org/1999/xlink">
    <!-- Generator: Sketch 46.2 (44496) - http://www.bohemiancoding.com/sketch -->
    <title>icon/Utility/Calendar/schedule-appt</title>
    <desc>Created with Sketch.</desc>
    <defs>
        <path d="M7.77030812,2.78293135 L16.9777031,2.78293135 L16.9777031,0 L18.0676751,0 L18.0676751,2.78293135 L24.9546218,2.78293135 L24.9546218,14.7527717 L23.8072829,14.471243 L23.8072829,3.8961039 L18.0676751,3.8961039 L18.0676751,6.76252319 L16.9777031,6.76252319 L16.9777031,3.8961039 L7.77030812,3.8961039 L7.77030812,6.76252319 L6.68033613,6.76252319 L6.68033613,3.8961039 L1.14733894,3.8961039 L1.14733894,25.8812616 L14.6285714,25.8812616 L15.2022409,26.9944341 L0,26.9944341 L0,2.78293135 L6.68033613,2.78293135 L6.68033613,0 L7.77030812,0 L7.77030812,2.78293135 Z M22.6283473,30 C18.5552941,30 15.2566947,26.7996289 15.2566947,22.8478664 C15.2566947,18.8961039 18.5552941,15.6957328 22.6283473,15.6957328 C26.7014006,15.6957328 30,18.8961039 30,22.8478664 C30,26.7996289 26.7014006,30 22.6283473,30 Z M22.6283473,16.7532468 C19.1576471,16.7532468 16.3466667,19.4805195 16.3466667,22.8478664 C16.3466667,26.2152134 19.1576471,28.9424861 22.6283473,28.9424861 C26.0990476,28.9424861 28.910028,26.2152134 28.910028,22.8478664 C28.910028,19.4805195 26.0990476,16.7532468 22.6283473,16.7532468 Z M25.5253782,23.4601113 L22.4562465,23.4601113 L19.3297479,19.8423006 L20.1615686,19.1465677 L22.972549,22.3747681 L25.5253782,22.3747681 L25.5253782,23.4601113 Z M9.17579832,9.10018553 L10.4091877,9.10018553 L10.4091877,10.1576994 L9.17579832,10.1576994 L9.17579832,9.10018553 Z M11.7573109,9.10018553 L12.9907003,9.10018553 L12.9907003,10.1576994 L11.7573109,10.1576994 L11.7573109,9.10018553 Z M14.3388235,9.10018553 L15.5722129,9.10018553 L15.5722129,10.1576994 L14.3388235,10.1576994 L14.3388235,9.10018553 Z M16.9777031,9.10018553 L18.2110924,9.10018553 L18.2110924,10.1576994 L16.9777031,10.1576994 L16.9777031,9.10018553 Z M19.4731653,9.10018553 L20.7065546,9.10018553 L20.7065546,10.1576994 L19.4731653,10.1576994 L19.4731653,9.10018553 Z M4.04145658,11.8552876 L5.27484594,11.8552876 L5.27484594,12.9128015 L4.04145658,12.9128015 L4.04145658,11.8552876 Z M6.62296919,11.8552876 L7.85635854,11.8552876 L7.85635854,12.9128015 L6.62296919,12.9128015 L6.62296919,11.8552876 Z M9.17579832,11.8552876 L10.4091877,11.8552876 L10.4091877,12.9128015 L9.17579832,12.9128015 L9.17579832,11.8552876 Z M11.7573109,11.8552876 L12.9907003,11.8552876 L12.9907003,12.9128015 L11.7573109,12.9128015 L11.7573109,11.8552876 Z M14.3388235,11.8552876 L15.5722129,11.8552876 L15.5722129,12.9128015 L14.3388235,12.9128015 L14.3388235,11.8552876 Z M16.9777031,11.8552876 L18.2110924,11.8552876 L18.2110924,12.9128015 L16.9777031,12.9128015 L16.9777031,11.8552876 Z M19.4731653,11.8552876 L20.7065546,11.8552876 L20.7065546,12.9128015 L19.4731653,12.9128015 L19.4731653,11.8552876 Z M4.04145658,14.6382189 L5.27484594,14.6382189 L5.27484594,15.6957328 L4.04145658,15.6957328 L4.04145658,14.6382189 Z M6.62296919,14.6382189 L7.85635854,14.6382189 L7.85635854,15.6957328 L6.62296919,15.6957328 L6.62296919,14.6382189 Z M9.17579832,14.6382189 L10.4091877,14.6382189 L10.4091877,15.6957328 L9.17579832,15.6957328 L9.17579832,14.6382189 Z M11.7573109,14.6382189 L12.9907003,14.6382189 L12.9907003,15.6957328 L11.7573109,15.6957328 L11.7573109,14.6382189 Z M4.04145658,17.393321 L5.27484594,17.393321 L5.27484594,18.4508349 L4.04145658,18.4508349 L4.04145658,17.393321 Z M6.62296919,17.393321 L7.85635854,17.393321 L7.85635854,18.4508349 L6.62296919,18.4508349 L6.62296919,17.393321 Z M9.17579832,17.393321 L10.4091877,17.393321 L10.4091877,18.4508349 L9.17579832,18.4508349 L9.17579832,17.393321 Z M4.04145658,20.148423 L5.27484594,20.148423 L5.27484594,21.2059369 L4.04145658,21.2059369 L4.04145658,20.148423 Z M6.62296919,20.148423 L7.85635854,20.148423 L7.85635854,21.2059369 L6.62296919,21.2059369 L6.62296919,20.148423 Z M9.17579832,20.148423 L10.4091877,20.148423 L10.4091877,21.2059369 L9.17579832,21.2059369 L9.17579832,20.148423 Z M11.7573109,17.393321 L12.9907003,17.393321 L12.9907003,18.4508349 L11.7573109,18.4508349 L11.7573109,17.393321 Z M14.367507,17.393321 L15.6008964,17.393321 L15.6008964,18.4508349 L14.367507,18.4508349 L14.367507,17.393321 Z M14.3388235,14.6382189 L15.5722129,14.6382189 L15.5722129,15.6957328 L14.3388235,15.6957328 L14.3388235,14.6382189 Z M16.9777031,14.6382189 L18.2110924,14.6382189 L18.2110924,15.6957328 L16.9777031,15.6957328 L16.9777031,14.6382189 Z M11.699944,20.148423 L12.9333333,20.148423 L12.9333333,21.2059369 L11.699944,21.2059369 L11.699944,20.148423 Z" id="path-1"></path>
    </defs>
    <g id="Symbols" stroke="none" stroke-width="1" fill="none" fill-rule="evenodd">
        <g id="icon/Utility/Calendar/schedule-appt">
            <g id="Icon" transform="translate(9.000000, 9.000000)">
                <mask id="mask-2" fill="white">
                    <use xlink:href="#path-1"></use>
                </mask>
                <use id="Mask" fill="#384048" xlink:href="#path-1"></use>
                <g id="Color/Grayscale/Night-Sky" mask="url(#mask-2)" fill="#111111">
                    <g transform="translate(-9.000000, -9.000000)" id="Swatch">
                        <rect x="0" y="0" width="48" height="48"></rect>
                    </g>
                </g>
            </g>
        </g>
    </g>
</svg>