<?xml version="1.0" encoding="utf-8"?>
<!-- Generator: Adobe Illustrator 21.0.2, SVG Export Plug-In . SVG Version: 6.00 Build 0)  -->
<svg version="1.1" id="icon_x2F_Utility_x2F_Calendar_x2F_schedule-appt-Layer_1" xmlns="http://www.w3.org/2000/svg" xmlns:xlink="http://www.w3.org/1999/xlink" x="0px" y="0px"
	 viewBox="0 0 48 48" style="enable-background:new 0 0 48 48;" xml:space="preserve">
<title>icon/Utility/Calendar/schedule-appt</title>
<desc>Created with Sketch.</desc>
<g id="icon_x2F_Utility_x2F_Calendar_x2F_schedule-appt-Symbols">
	<g id="icon_x2F_Utility_x2F_Calendar_x2F_schedule-appt">
		<g id="icon_x2F_Utility_x2F_Calendar_x2F_schedule-appt-Icon" transform="translate(9.000000, 9.000000)">
			<g id="icon_x2F_Utility_x2F_Calendar_x2F_schedule-appt-Mask">
				<path id="icon_x2F_Utility_x2F_Calendar_x2F_schedule-appt-path-1_1_" style="fill:#384048;" d="M7.8,2.8H17V0h1.1v2.8H25v12l-1.1-0.3V3.9h-5.7v2.9H17V3.9H7.8v2.9H6.7V3.9H1.1
					v22h13.5l0.6,1.1H0V2.8h6.7V0h1.1V2.8z M22.6,30c-4.1,0-7.4-3.2-7.4-7.2s3.3-7.2,7.4-7.2s7.4,3.2,7.4,7.2S26.7,30,22.6,30z
					 M22.6,16.8c-3.5,0-6.3,2.7-6.3,6.1s2.8,6.1,6.3,6.1s6.3-2.7,6.3-6.1S26.1,16.8,22.6,16.8z M25.5,23.5h-3.1l-3.1-3.6l0.8-0.7
					l2.8,3.2h2.6V23.5z M9.2,9.1h1.2v1.1H9.2V9.1z M11.8,9.1H13v1.1h-1.2V9.1z M14.3,9.1h1.2v1.1h-1.2V9.1z M17,9.1h1.2v1.1H17V9.1z
					 M19.5,9.1h1.2v1.1h-1.2V9.1z M4,11.9h1.2v1.1H4V11.9z M6.6,11.9h1.2v1.1H6.6V11.9z M9.2,11.9h1.2v1.1H9.2V11.9z M11.8,11.9H13
					v1.1h-1.2V11.9z M14.3,11.9h1.2v1.1h-1.2V11.9z M17,11.9h1.2v1.1H17V11.9z M19.5,11.9h1.2v1.1h-1.2V11.9z M4,14.6h1.2v1.1H4
					V14.6z M6.6,14.6h1.2v1.1H6.6V14.6z M9.2,14.6h1.2v1.1H9.2V14.6z M11.8,14.6H13v1.1h-1.2V14.6z M4,17.4h1.2v1.1H4V17.4z
					 M6.6,17.4h1.2v1.1H6.6V17.4z M9.2,17.4h1.2v1.1H9.2V17.4z M4,20.1h1.2v1.1H4V20.1z M6.6,20.1h1.2v1.1H6.6V20.1z M9.2,20.1h1.2
					v1.1H9.2V20.1z M11.8,17.4H13v1.1h-1.2V17.4z M14.4,17.4h1.2v1.1h-1.2V17.4z M14.3,14.6h1.2v1.1h-1.2V14.6z M17,14.6h1.2v1.1H17
					V14.6z M11.7,20.1h1.2v1.1h-1.2V20.1z"/>
			</g>
			<defs>
				<filter id="icon_x2F_Utility_x2F_Calendar_x2F_schedule-appt-Adobe_OpacityMaskFilter" filterUnits="userSpaceOnUse" x="-9" y="-9" width="48" height="48">
					<feColorMatrix  type="matrix" values="1 0 0 0 0  0 1 0 0 0  0 0 1 0 0  0 0 0 1 0"/>
				</filter>
			</defs>
			<mask maskUnits="userSpaceOnUse" x="-9" y="-9" width="48" height="48" id="icon_x2F_Utility_x2F_Calendar_x2F_schedule-appt-mask-2">
				<g style="filter:url(#icon_x2F_Utility_x2F_Calendar_x2F_schedule-appt-Adobe_OpacityMaskFilter);">
					<path id="icon_x2F_Utility_x2F_Calendar_x2F_schedule-appt-path-1" style="fill:#FFFFFF;" d="M7.8,2.8H17V0h1.1v2.8H25v12l-1.1-0.3V3.9h-5.7v2.9H17V3.9H7.8v2.9H6.7V3.9H1.1v22
						h13.5l0.6,1.1H0V2.8h6.7V0h1.1V2.8z M22.6,30c-4.1,0-7.4-3.2-7.4-7.2s3.3-7.2,7.4-7.2s7.4,3.2,7.4,7.2S26.7,30,22.6,30z
						 M22.6,16.8c-3.5,0-6.3,2.7-6.3,6.1s2.8,6.1,6.3,6.1s6.3-2.7,6.3-6.1S26.1,16.8,22.6,16.8z M25.5,23.5h-3.1l-3.1-3.6l0.8-0.7
						l2.8,3.2h2.6V23.5z M9.2,9.1h1.2v1.1H9.2V9.1z M11.8,9.1H13v1.1h-1.2V9.1z M14.3,9.1h1.2v1.1h-1.2V9.1z M17,9.1h1.2v1.1H17V9.1
						z M19.5,9.1h1.2v1.1h-1.2V9.1z M4,11.9h1.2v1.1H4V11.9z M6.6,11.9h1.2v1.1H6.6V11.9z M9.2,11.9h1.2v1.1H9.2V11.9z M11.8,11.9
						H13v1.1h-1.2V11.9z M14.3,11.9h1.2v1.1h-1.2V11.9z M17,11.9h1.2v1.1H17V11.9z M19.5,11.9h1.2v1.1h-1.2V11.9z M4,14.6h1.2v1.1H4
						V14.6z M6.6,14.6h1.2v1.1H6.6V14.6z M9.2,14.6h1.2v1.1H9.2V14.6z M11.8,14.6H13v1.1h-1.2V14.6z M4,17.4h1.2v1.1H4V17.4z
						 M6.6,17.4h1.2v1.1H6.6V17.4z M9.2,17.4h1.2v1.1H9.2V17.4z M4,20.1h1.2v1.1H4V20.1z M6.6,20.1h1.2v1.1H6.6V20.1z M9.2,20.1h1.2
						v1.1H9.2V20.1z M11.8,17.4H13v1.1h-1.2V17.4z M14.4,17.4h1.2v1.1h-1.2V17.4z M14.3,14.6h1.2v1.1h-1.2V14.6z M17,14.6h1.2v1.1
						H17V14.6z M11.7,20.1h1.2v1.1h-1.2V20.1z"/>
				</g>
			</mask>
			<g id="icon_x2F_Utility_x2F_Calendar_x2F_schedule-appt-Color_x2F_Grayscale_x2F_Night-Sky" style="mask:url(#icon_x2F_Utility_x2F_Calendar_x2F_schedule-appt-mask-2);">
				<g id="icon_x2F_Utility_x2F_Calendar_x2F_schedule-appt-Swatch" transform="translate(-9.000000, -9.000000)">
					<rect style="fill:#111111;" width="48" height="48"/>
				</g>
			</g>
		</g>
	</g>
</g>
</svg>
