<?xml version="1.0" encoding="utf-8"?>
<svg version="1.1" id="icon_x2F_Utility_x2F_Calendar_x2F_schedule-appt-Layer_1"
	 xmlns="http://www.w3.org/2000/svg" xmlns:xlink="http://www.w3.org/1999/xlink" x="0px" y="0px" viewBox="0 0 48 48"
	 style="enable-background:new 0 0 48 48;" xml:space="preserve">
<path id="icon_x2F_Utility_x2F_Calendar_x2F_schedule-appt-path-1_1_" style="fill:#111111;" d="M16.8,11.8H26V9h1.1v2.8H34v12
	l-1.1-0.3V12.9h-5.7v2.9H26v-2.9h-9.2v2.9h-1.1v-2.9h-5.6v22h13.5l0.6,1.1H9V11.8h6.7V9h1.1C16.8,9,16.8,11.8,16.8,11.8z M31.6,39
	c-4.1,0-7.4-3.2-7.4-7.2s3.3-7.2,7.4-7.2s7.4,3.2,7.4,7.2S35.7,39,31.6,39z M31.6,25.8c-3.5,0-6.3,2.7-6.3,6.1s2.8,6.1,6.3,6.1
	s6.3-2.7,6.3-6.1S35.1,25.8,31.6,25.8z M34.5,32.5h-3.1l-3.1-3.6l0.8-0.7l2.8,3.2h2.6C34.5,31.4,34.5,32.5,34.5,32.5z M18.2,18.1
	h1.2v1.1h-1.2V18.1z M20.8,18.1H22v1.1h-1.2C20.8,19.2,20.8,18.1,20.8,18.1z M23.3,18.1h1.2v1.1h-1.2V18.1z M26,18.1h1.2v1.1H26
	V18.1z M28.5,18.1h1.2v1.1h-1.2V18.1z M13,20.9h1.2V22H13V20.9z M15.6,20.9h1.2V22h-1.2V20.9z M18.2,20.9h1.2V22h-1.2V20.9z
	 M20.8,20.9H22V22h-1.2C20.8,22,20.8,20.9,20.8,20.9z M23.3,20.9h1.2V22h-1.2V20.9z M26,20.9h1.2V22H26V20.9z M28.5,20.9h1.2V22
	h-1.2V20.9z M13,23.6h1.2v1.1H13V23.6z M15.6,23.6h1.2v1.1h-1.2V23.6z M18.2,23.6h1.2v1.1h-1.2V23.6z M20.8,23.6H22v1.1h-1.2
	C20.8,24.7,20.8,23.6,20.8,23.6z M13,26.4h1.2v1.1H13V26.4z M15.6,26.4h1.2v1.1h-1.2V26.4z M18.2,26.4h1.2v1.1h-1.2V26.4z M13,29.1
	h1.2v1.1H13V29.1z M15.6,29.1h1.2v1.1h-1.2V29.1z M18.2,29.1h1.2v1.1h-1.2V29.1z M20.8,26.4H22v1.1h-1.2
	C20.8,27.5,20.8,26.4,20.8,26.4z M23.4,26.4h1.2v1.1h-1.2V26.4z M23.3,23.6h1.2v1.1h-1.2V23.6z M26,23.6h1.2v1.1H26V23.6z
	 M20.7,29.1h1.2v1.1h-1.2V29.1z"/>
</svg>
