<svg xmlns="http://www.w3.org/2000/svg" xmlns:xlink="http://www.w3.org/1999/xlink" width="32" height="32" viewBox="0 0 32 32">
  <defs>
    <path id="wedding-date-a" d="M21.4,1.73076923 C22.9309,1.73076923 24,2.75875 24,4.23076923 L24,17.5 C24,18.9720192 22.9309,20 21.4,20 L2.6,20 C1.0691,20 0,18.9720192 0,17.5 L0,4.23076923 C0,2.75875 1.0691,1.73076923 2.6,1.73076923 L5.4,1.73076923 L5.4,4.03846154 C5.4,4.67471154 5.9383,5.19230769 6.6,5.19230769 C7.2617,5.19230769 7.8,4.67471154 7.8,4.03846154 L7.8,1.73076923 L16.2,1.73076923 L16.2,4.03846154 C16.2,4.67471154 16.7383,5.19230769 17.4,5.19230769 C18.0617,5.19230769 18.6,4.67471154 18.6,4.03846154 L18.6,1.73076923 L21.4,1.73076923 Z M3.6,14.6133654 L3.6,15.7692308 L4.8,15.7692308 L4.8,14.6133654 L3.6,14.6133654 Z M3.6,10.3836538 L3.6,11.5395192 L4.8,11.5395192 L4.8,10.3836538 L3.6,10.3836538 Z M3.6,6.53846154 L3.6,7.69432692 L4.8,7.69432692 L4.8,6.53846154 L3.6,6.53846154 Z M13,6.53846154 L13,7.69432692 L14.2,7.69432692 L14.2,6.53846154 L13,6.53846154 Z M9.8,6.53846154 L9.8,7.69432692 L11,7.69432692 L11,6.53846154 L9.8,6.53846154 Z M6.7,6.53846154 L6.7,7.69432692 L7.9,7.69432692 L7.9,6.53846154 L6.7,6.53846154 Z M6.7,14.6133654 L6.7,15.7692308 L7.9,15.7692308 L7.9,14.6133654 L6.7,14.6133654 Z M13,14.6133654 L13,15.7692308 L14.2,15.7692308 L14.2,14.6133654 L13,14.6133654 Z M14.1391,12.445 C14.6211,12.0010577 14.8896,11.41 14.8963,10.7814423 C14.9023,10.1531731 14.646,9.55846154 14.1738,9.10711538 C13.7454,8.69653846 13.1605,8.47076923 12.5282,8.47076923 C11.897,8.47076923 11.2804,8.70509615 10.8369,9.11375 L10.4163,9.50105769 L9.9953,9.11346154 C9.5521,8.70509615 8.9358,8.47076923 8.3046,8.47076923 C7.6715,8.47076923 7.0871,8.69692308 6.6585,9.10711538 C6.1864,9.55875 5.9304,10.1532692 5.9363,10.7816346 C5.9427,11.41 6.2114,12.0010577 6.6935,12.445 L10.0866,15.5703846 C10.1757,15.6523077 10.2928,15.6976923 10.4163,15.6976923 C10.5396,15.6976923 10.6567,15.6525 10.7462,15.5703846 L14.1391,12.445 Z M16.1,14.6133654 L16.1,15.7692308 L17.3,15.7692308 L17.3,14.6133654 L16.1,14.6133654 Z M16.1,10.3836538 L16.1,11.5395192 L17.3,11.5395192 L17.3,10.3836538 L16.1,10.3836538 Z M16.1,6.53846154 L16.1,7.69432692 L17.3,7.69432692 L17.3,6.53846154 L16.1,6.53846154 Z M19.2,14.6133654 L19.2,15.7692308 L20.4,15.7692308 L20.4,14.6133654 L19.2,14.6133654 Z M19.2,10.3836538 L19.2,11.5395192 L20.4,11.5395192 L20.4,10.3836538 L19.2,10.3836538 Z M19.2,6.53846154 L19.2,7.69432692 L20.4,7.69432692 L20.4,6.53846154 L19.2,6.53846154 Z M6.6,4.61538462 C6.2687,4.61538462 6,4.35701923 6,4.03846154 L6,0.576923077 C6,0.258365385 6.2687,0 6.6,0 C6.9313,0 7.2,0.258365385 7.2,0.576923077 L7.2,4.03846154 C7.2,4.35701923 6.9313,4.61538462 6.6,4.61538462 Z M17.4,4.61538462 C17.0688,4.61538462 16.8,4.35701923 16.8,4.03846154 L16.8,0.576923077 C16.8,0.258365385 17.0688,0 17.4,0 C17.7312,0 18,0.258365385 18,0.576923077 L18,4.03846154 C18,4.35701923 17.7312,4.61538462 17.4,4.61538462 Z"/>
  </defs>
  <g fill="none" fill-rule="evenodd" transform="translate(4 6)">
    <use fill="#384048" xlink:href="#wedding-date-a"/>
  </g>
</svg>
