<?xml version="1.0" encoding="utf-8"?>
<svg version="1.1" id="icon_x2F_Utility_x2F_Calendar_x2F_wedding-date-Layer_1"
	 xmlns="http://www.w3.org/2000/svg" xmlns:xlink="http://www.w3.org/1999/xlink" x="0px" y="0px" viewBox="0 0 48 48"
	 style="enable-background:new 0 0 48 48;" xml:space="preserve">
<path id="icon_x2F_Utility_x2F_Calendar_x2F_wedding-date-path-1_1_" style="fill:#111111;" d="M34.2,13.9c1.6,0,2.8,1.1,2.8,2.8
	v14.6c0,1.6-1.2,2.8-2.8,2.8H13.8C12.2,34,11,32.9,11,31.3V16.7c0-1.7,1.2-2.8,2.8-2.8h3v2.5c0,0.7,0.6,1.3,1.3,1.3s1.3-0.6,1.3-1.3
	v-2.5h9.1v2.5c0,0.7,0.6,1.3,1.3,1.3c0.7,0,1.3-0.6,1.3-1.3v-2.5C31.1,13.9,34.2,13.9,34.2,13.9z M14.9,28.1v1.3h1.3v-1.3H14.9z
	 M14.9,23.4v1.3h1.3v-1.3H14.9z M14.9,19.2v1.3h1.3v-1.3C16.2,19.2,14.9,19.2,14.9,19.2z M25.1,19.2v1.3h1.3v-1.3
	C26.4,19.2,25.1,19.2,25.1,19.2z M21.6,19.2v1.3h1.3v-1.3C22.9,19.2,21.6,19.2,21.6,19.2z M18.3,19.2v1.3h1.3v-1.3
	C19.6,19.2,18.3,19.2,18.3,19.2z M18.3,28.1v1.3h1.3v-1.3H18.3z M25.1,28.1v1.3h1.3v-1.3H25.1z M26.3,25.7c0.5-0.5,0.8-1.1,0.8-1.8
	c0-0.7-0.3-1.3-0.8-1.8s-1.1-0.7-1.8-0.7s-1.4,0.3-1.8,0.7l-0.5,0.4L21.8,22c-0.5-0.4-1.1-0.7-1.8-0.7s-1.3,0.2-1.8,0.7
	s-0.8,1.2-0.8,1.8c0,0.7,0.3,1.3,0.8,1.8l3.7,3.4c0.1,0.1,0.2,0.1,0.4,0.1c0.1,0,0.3,0,0.4-0.1C22.7,29,26.3,25.7,26.3,25.7z
	 M28.4,28.1v1.3h1.3v-1.3H28.4z M28.4,23.4v1.3h1.3v-1.3H28.4z M28.4,19.2v1.3h1.3v-1.3C29.7,19.2,28.4,19.2,28.4,19.2z M31.8,28.1
	v1.3h1.3v-1.3H31.8z M31.8,23.4v1.3h1.3v-1.3H31.8z M31.8,19.2v1.3h1.3v-1.3C33.1,19.2,31.8,19.2,31.8,19.2z M18.2,17.1
	c-0.4,0-0.7-0.3-0.7-0.6v-3.9c0-0.3,0.3-0.6,0.7-0.6c0.4,0,0.7,0.3,0.7,0.6v3.8C18.8,16.8,18.5,17.1,18.2,17.1z M29.9,17.1
	c-0.4,0-0.6-0.3-0.6-0.6v-3.9c0-0.4,0.3-0.6,0.6-0.6c0.4,0,0.6,0.3,0.6,0.6v3.8C30.5,16.8,30.2,17.1,29.9,17.1z"/>
</svg>
