<svg xmlns="http://www.w3.org/2000/svg" xmlns:xlink="http://www.w3.org/1999/xlink" width="32" height="32" viewBox="0 0 32 32">
  <defs>
    <path id="chat-line-a" d="M19.9001,18 C19.7479,18 19.598,17.9432609 19.4839,17.8358478 L15.9282,14.4872609 C15.9234,14.4839348 15.919,14.4809022 15.9148,14.4782609 L12,14.4782609 C10.8598,14.4782609 10,13.6371522 10,12.5217391 L10,6.94565217 C10,5.92072826 10.8972,5.08695652 12,5.08695652 L22.4,5.08695652 C23.1865,5.08695652 24,5.74561957 24,6.84782609 L24,12.5217391 C24,12.9336848 23.7892,13.4055978 23.436,13.7841848 C23.0465,14.2018043 22.5489,14.447837 22.035,14.4772826 C22.0233,14.4779674 22.0116,14.4782609 22,14.4782609 L20.5009,14.4782609 L20.5,17.4130435 C20.5,17.648413 20.3562,17.8609891 20.1349,17.9531413 C20.0592,17.9847391 19.9793,18 19.9001,18 L19.9001,18 Z M12,6.26086957 L22.4,6.26086957 C22.5305,6.26086957 22.8,6.40438043 22.8,6.84782609 L22.8,12.5217391 C22.8,12.7329457 22.446,13.2670761 21.9796,13.3043478 L20.3,13.3043478 C19.7393,13.3043478 19.3,13.7770435 19.3,14.3804348 L19.3,16.0333043 L16.7333,13.6160217 C16.7179,13.6013478 16.7016,13.5876522 16.6846,13.5747391 C16.4478,13.3953261 16.2174,13.3043478 16,13.3043478 L12,13.3043478 C11.529,13.3043478 11.2,12.9825 11.2,12.5217391 L11.2,6.94565217 C11.2,6.56804348 11.5589,6.26086957 12,6.26086957 Z M4.759,14.0375543 C4.5409,13.9439348 4.4,13.7330217 4.4,13.5 L4.4,10.7151848 C4.3677,10.6893587 4.3065,10.6616739 4.2676,10.6616739 L1.6821,10.6616739 C0.7703,10.6616739 0,9.81117391 0,8.80434783 L0,1.76086957 C0,0.789945652 0.7626,0 1.7,0 L15.1,0 C16.0374,0 16.8,0.789945652 16.8,1.76086957 L16.8,5.09062291 L15.6,5.09062291 L15.6,1.76086957 C15.6,1.39832609 15.3404,1.17391304 15.1,1.17391304 L1.7,1.17391304 C1.4595,1.17391304 1.2,1.39832609 1.2,1.76086957 L1.2,8.80434783 C1.2,9.18293478 1.4637,9.48776087 1.6821,9.48776087 L4.2676,9.48776087 C4.8978,9.48776087 5.6,9.97043478 5.6,10.6630435 L5.6,12.1613478 L8.3935,9.64438043 C8.5043,9.5445 8.6494,9.48913043 8.8,9.48913043 C9.0994,9.48913043 9.9919,9.48551087 9.992,9.48551087 L9.997,10.6594239 C9.997,10.6594239 9.418,10.6617717 9.0346,10.6626522 L5.4065,13.9317065 C5.2935,14.0335435 5.1477,14.0869565 4.9999,14.0869565 C4.9185,14.0869565 4.8365,14.0708152 4.759,14.0375543 Z"/>
  </defs>
  <g fill="none" fill-rule="evenodd" transform="translate(4 7)">
    <use fill="#384048" xlink:href="#chat-line-a"/>
  </g>
</svg>
