<svg xmlns="http://www.w3.org/2000/svg" xmlns:xlink="http://www.w3.org/1999/xlink" width="32" height="32" viewBox="0 0 32 32">
  <defs>
    <path id="eye-crossed-out-a" d="M21.26352,0.286086957 C21.46704,0.0956521739 21.69168,0 21.93456,0 C21.9528,0 21.97008,0.000869565217 21.98832,0.00173913043 C22.25424,0.0156521739 22.47984,0.111304348 22.66704,0.286086957 C22.88592,0.46 22.9944,0.671304348 22.9944,0.92 C22.9944,1.16695652 22.88592,1.39304348 22.66704,1.59652174 L18.73776,5.26869565 C19.20528,5.53130435 19.6728,5.83043478 20.14032,6.16521739 C20.60784,6.5 21.01488,6.81304348 21.3576,7.10434783 C21.70032,7.39652174 22.03536,7.68782609 22.36272,7.97913043 C22.69008,8.27043478 22.94736,8.51130435 23.13552,8.70086957 C23.32176,8.88956522 23.4936,9.06521739 23.64912,9.22521739 L23.88336,9.46521739 C24.03888,9.61130435 24.03888,9.80086957 23.88336,10.033913 C23.69616,10.2373913 23.46288,10.4852174 23.1816,10.7765217 C22.90128,11.0678261 22.33968,11.5704348 21.49776,12.2852174 C20.65584,12.9991304 19.7976,13.6252174 18.92496,14.1652174 C18.05136,14.7034783 16.98288,15.1913043 15.71952,15.6286957 C14.45712,16.066087 13.2168,16.2843478 12.00048,16.2843478 C10.69104,16.2843478 9.28752,16.0069565 7.78992,15.453913 L3.20496,19.7817391 C3.01776,19.9269565 2.78352,20 2.5032,20 C2.22192,20 1.98864,19.9269565 1.80144,19.7817391 C1.61424,19.5773913 1.52016,19.3373913 1.52016,19.06 C1.52016,18.7834783 1.61424,18.5869565 1.80144,18.4704348 L21.26352,0.286086957 Z M14.43312,12.0443478 C13.74768,12.6852174 12.92016,13.006087 11.9544,13.006087 C11.51664,13.006087 11.0808,12.9330435 10.644,12.7878261 L9.8952,13.4869565 C10.51824,13.8078261 11.20464,13.9669565 11.9544,13.9669565 C12.79632,13.9669565 13.55952,13.7713043 14.24592,13.3782609 C14.93232,12.9843478 15.47856,12.4669565 15.88368,11.826087 C16.2888,11.1843478 16.49232,10.4852174 16.49232,9.72782609 C16.49232,9.0573913 16.30416,8.41565217 15.93072,7.80434783 L15.18192,8.50347826 C15.36816,8.94086957 15.4632,9.34869565 15.4632,9.72782609 C15.4632,10.6313043 15.11952,11.4034783 14.43312,12.0443478 Z M10.10544,3.38956522 C10.7448,3.27304348 11.37648,3.21391304 12.00048,3.21391304 C13.2168,3.21391304 14.49552,3.44782609 15.83664,3.91391304 L13.73136,5.88086957 C13.10832,5.64782609 12.5304,5.53130435 12.00048,5.53130435 C10.75248,5.53130435 9.69264,5.93913043 8.82,6.75565217 C7.94544,7.57130435 7.5096,8.5626087 7.5096,9.72782609 C7.5096,10.2521739 7.61808,10.7765217 7.83696,11.3008696 L4.98288,14.0113043 C4.10928,13.5156522 3.276,12.926087 2.48016,12.2417391 C1.68432,11.5565217 1.1304,11.053913 0.8184,10.7330435 C0.50736,10.4130435 0.27312,10.1643478 0.11664,9.99043478 C-0.03888,9.81478261 -0.03888,9.62521739 0.11664,9.42173913 L0.32784,9.18173913 C0.468,9.02086957 0.63216,8.84608696 0.8184,8.6573913 C1.00656,8.46782609 1.25616,8.23391304 1.56816,7.9573913 C1.8792,7.68 2.20752,7.40347826 2.55024,7.12695652 C2.89296,6.84956522 3.28368,6.55130435 3.71952,6.23043478 C4.15632,5.91043478 4.60848,5.61130435 5.07696,5.33478261 C5.54448,5.0573913 6.05904,4.78869565 6.62064,4.52608696 C7.18224,4.26434783 7.74288,4.0373913 8.30448,3.84869565 C8.86608,3.65913043 9.46608,3.50608696 10.10544,3.38956522 Z M9.52176,7.43304348 C10.20624,6.80608696 11.03376,6.49304348 12.00048,6.49304348 C12.34416,6.49304348 12.65616,6.53652174 12.93552,6.62434783 L8.67888,10.6026087 C8.55408,10.2808696 8.49168,9.99043478 8.49168,9.72782609 C8.49168,8.82434783 8.83536,8.06 9.52176,7.43304348 Z"/>
  </defs>
  <g fill="none" fill-rule="evenodd" transform="translate(4 6)">
    <use fill="#384048" xlink:href="#eye-crossed-out-a"/>
  </g>
</svg>
