<svg xmlns="http://www.w3.org/2000/svg" xmlns:xlink="http://www.w3.org/1999/xlink" width="32" height="32" viewBox="0 0 32 32">
  <defs>
    <path id="heart-fill-a" d="M17.2171161,0 C14.1790595,0 11.9999561,3.08 11.9999561,3.08 C11.9999561,3.08 9.95428984,0 6.78279609,0 C5.18988294,0 3.60652483,0.691942308 2.44958791,1.85064423 C1.03533168,3.26509615 0.0287198975,5.17010577 0.000610319033,7.23683654 C-0.0276103645,9.3005 0.925559888,11.2470769 2.29581851,12.7015096 L10.5375914,21.1596635 C10.9513466,21.6000865 11.4277651,22 11.9999561,22 C12.5721471,22 13.1840026,21.6000865 13.5982023,21.1579712 L21.8416417,12.6997115 C23.211567,11.2453846 24.0273003,9.30018269 23.9993018,7.23683654 C23.9713034,5.16989423 23.1021285,3.26340385 21.6877612,1.84895192 C20.5307132,0.691730769 18.8096959,0 17.2171161,0"/>
  </defs>
  <g fill="none" fill-rule="evenodd" transform="translate(4 5)">
    <use fill="#384048" xlink:href="#heart-fill-a"/>
  </g>
</svg>
