<svg xmlns="http://www.w3.org/2000/svg" xmlns:xlink="http://www.w3.org/1999/xlink" width="32" height="32" viewBox="0 0 32 32">
    <defs>
        <path id="a" d="M5 6h1a1 1 0 0 1 1 1v1a1 1 0 0 1-1 1H5a1 1 0 0 1-1-1V7a1 1 0 0 1 1-1zm8 0h14a1 1 0 0 1 1 1v1a1 1 0 0 1-1 1H13a1 1 0 0 1-1-1V7a1 1 0 0 1 1-1zm0 8h14a1 1 0 0 1 1 1v1a1 1 0 0 1-1 1H13a1 1 0 0 1-1-1v-1a1 1 0 0 1 1-1zm0 8h14a1 1 0 0 1 1 1v1a1 1 0 0 1-1 1H13a1 1 0 0 1-1-1v-1a1 1 0 0 1 1-1zm-8-8h1a1 1 0 0 1 1 1v1a1 1 0 0 1-1 1H5a1 1 0 0 1-1-1v-1a1 1 0 0 1 1-1zm0 8h1a1 1 0 0 1 1 1v1a1 1 0 0 1-1 1H5a1 1 0 0 1-1-1v-1a1 1 0 0 1 1-1z"/>
    </defs>
    <g fill="none" fill-rule="evenodd">
        <mask id="b" fill="#fff">
            <use xlink:href="#a"/>
        </mask>
        <use fill="#6B7883" xlink:href="#a"/>
        <g fill="#111" mask="url(#b)">
            <path d="M0 0h32v32H0z"/>
        </g>
    </g>
</svg>
