<svg xmlns="http://www.w3.org/2000/svg" xmlns:xlink="http://www.w3.org/1999/xlink" width="32" height="32" viewBox="0 0 32 32">
  <defs>
    <path id="list-fill-new-a" d="M5,6 L6,6 C6.55228475,6 7,6.44771525 7,7 L7,8 C7,8.55228475 6.55228475,9 6,9 L5,9 C4.44771525,9 4,8.55228475 4,8 L4,7 C4,6.44771525 4.44771525,6 5,6 Z M13,6 L27,6 C27.5522847,6 28,6.44771525 28,7 L28,8 C28,8.55228475 27.5522847,9 27,9 L13,9 C12.4477153,9 12,8.55228475 12,8 L12,7 C12,6.44771525 12.4477153,6 13,6 Z M13,14 L27,14 C27.5522847,14 28,14.4477153 28,15 L28,16 C28,16.5522847 27.5522847,17 27,17 L13,17 C12.4477153,17 12,16.5522847 12,16 L12,15 C12,14.4477153 12.4477153,14 13,14 Z M13,22 L27,22 C27.5522847,22 28,22.4477153 28,23 L28,24 C28,24.5522847 27.5522847,25 27,25 L13,25 C12.4477153,25 12,24.5522847 12,24 L12,23 C12,22.4477153 12.4477153,22 13,22 Z M5,14 L6,14 C6.55228475,14 7,14.4477153 7,15 L7,16 C7,16.5522847 6.55228475,17 6,17 L5,17 C4.44771525,17 4,16.5522847 4,16 L4,15 C4,14.4477153 4.44771525,14 5,14 Z M5,22 L6,22 C6.55228475,22 7,22.4477153 7,23 L7,24 C7,24.5522847 6.55228475,25 6,25 L5,25 C4.44771525,25 4,24.5522847 4,24 L4,23 C4,22.4477153 4.44771525,22 5,22 Z"/>
  </defs>
  <g fill="none" fill-rule="evenodd">
    <use fill="#384048" xlink:href="#list-fill-new-a"/>
  </g>
</svg>
