<svg xmlns="http://www.w3.org/2000/svg" xmlns:xlink="http://www.w3.org/1999/xlink" width="32" height="32" viewBox="0 0 32 32">
  <defs>
    <path id="mail-a" d="M11.301281,8.38636364 L2.11811679,1.22727273 L0.75082349,0.142977273 C0.904441857,0.0653522729 1.0902013,1.85794062e-10 1.21976377,1.85794062e-10 L22.5806022,1.85794062e-10 C22.7028781,1.85794062e-10 22.9819664,-0.000102272541 23.2269173,0.107079546 L21.7820662,1.22727273 L12.698719,8.38636364 C12.5752454,8.47984091 12.2167027,8.59090909 12,8.59090909 C11.7833971,8.59090909 11.4647812,8.50592045 11.301281,8.38636364 Z M23.966162,1.07304545 C23.9677591,1.08071591 23.9701547,1.08807955 23.9717518,1.09575 C23.9897188,1.12643182 24,1.16192045 24,1.19904545 L24,1.38068182 L23.9780403,15.9545455 C23.9780403,17.1818182 23.1795042,18 21.9817002,18 L2.01829978,18 C0.820495758,18 0.0219597405,17.1818182 0.0219597405,15.9545455 L1.77635684e-15,1.32013636 L1.77635684e-15,1.13860227 C1.77635684e-15,1.12653409 0.00299451006,1.11518182 0.00509066711,1.103625 L1.38486109,2.19794318 L1.38875395,2.20101136 L1.39274663,2.20407955 L10.5759108,9.36317045 L10.5904841,9.37452273 L10.6053568,9.38536364 C11.0423557,9.70486364 11.6297787,9.81818182 12,9.81818182 C12.3989686,9.81818182 13.0289137,9.66242045 13.4104142,9.37339773 L13.419797,9.36634091 L13.4289802,9.35918182 L22.5084345,2.20315909 L23.966162,1.07304545 Z"/>
  </defs>
  <g fill="none" fill-rule="evenodd" transform="translate(4 7)">
    <use fill="#384048" xlink:href="#mail-a"/>
  </g>
</svg>
