<svg xmlns="http://www.w3.org/2000/svg" xmlns:xlink="http://www.w3.org/1999/xlink" width="32" height="32" viewBox="0 0 32 32">
  <defs>
    <path id="target-a" d="M13.0909091,2.29301554 C17.1478112,2.91944715 20.3532801,6.1249161 20.9797117,10.1818182 L19.5044537,10.1818182 C18.9070842,6.92968466 16.3430426,4.3656431 13.0909091,3.76827362 L13.0909091,2.29301554 Z M10.1818182,2.29301554 L10.1818182,3.76827362 C6.92968466,4.3656431 4.3656431,6.92968466 3.76827362,10.1818182 L2.29301554,10.1818182 C2.91944715,6.1249161 6.1249161,2.91944715 10.1818182,2.29301554 Z M13.0909091,20.9797117 L13.0909091,19.5044537 C16.3430426,18.9070842 18.9070842,16.3430426 19.5044537,13.0909091 L20.9797117,13.0909091 C20.3532801,17.1478112 17.1478112,20.3532801 13.0909091,20.9797117 Z M10.1818182,20.9797117 C6.1249161,20.3532801 2.91944715,17.1478112 2.29301554,13.0909091 L3.76827362,13.0909091 C4.3656431,16.3430426 6.92968466,18.9070842 10.1818182,19.5044537 L10.1818182,20.9797117 Z M10.9090909,0.727272727 C10.9090909,0.325611091 11.234702,2.13162821e-14 11.6363636,2.13162821e-14 C12.0380253,2.13162821e-14 12.3636364,0.325611091 12.3636364,0.727272727 L12.3636364,6.54545455 C12.3636364,6.94711618 12.0380253,7.27272727 11.6363636,7.27272727 C11.234702,7.27272727 10.9090909,6.94711618 10.9090909,6.54545455 L10.9090909,0.727272727 Z M10.9090909,17.4545455 C10.9090909,17.0528838 11.234702,16.7272727 11.6363636,16.7272727 C12.0380253,16.7272727 12.3636364,17.0528838 12.3636364,17.4545455 L12.3636364,23.2727273 C12.3636364,23.6743889 12.0380253,24 11.6363636,24 C11.234702,24 10.9090909,23.6743889 10.9090909,23.2727273 L10.9090909,17.4545455 Z M17.4545455,12.3636364 C17.0528838,12.3636364 16.7272727,12.0380253 16.7272727,11.6363636 C16.7272727,11.234702 17.0528838,10.9090909 17.4545455,10.9090909 L23.2727273,10.9090909 C23.6743889,10.9090909 24,11.234702 24,11.6363636 C24,12.0380253 23.6743889,12.3636364 23.2727273,12.3636364 L17.4545455,12.3636364 Z M0.727272727,12.3636364 C0.325611091,12.3636364 0,12.0380253 0,11.6363636 C0,11.234702 0.325611091,10.9090909 0.727272727,10.9090909 L6.54545455,10.9090909 C6.94711618,10.9090909 7.27272727,11.234702 7.27272727,11.6363636 C7.27272727,12.0380253 6.94711618,12.3636364 6.54545455,12.3636364 L0.727272727,12.3636364 Z"/>
  </defs>
  <g fill="none" fill-rule="evenodd" transform="translate(4 4)">
    <use fill="#384048" fill-rule="nonzero" xlink:href="#target-a"/>
  </g>
</svg>
