<svg xmlns="http://www.w3.org/2000/svg" xmlns:xlink="http://www.w3.org/1999/xlink" width="32" height="32" viewBox="0 0 32 32">
  <defs>
    <path id="thumbsup-fill-a" d="M24,9.56318299 L24,22.3316861 C24,22.9939995 23.4611603,23.5329737 22.7988702,23.5329737 L18.4836488,23.5329737 C17.8211278,23.5329737 17.2821726,22.9939995 17.2821726,22.3316861 L17.2821726,9.56318299 C17.2821726,8.90086952 17.8211278,8.36201081 18.4836488,8.36201081 L22.7988702,8.36201081 C23.4611603,8.36201081 24,8.90086952 24,9.56318299 Z M11.7305994,1.95448881 L11.7780626,3.25544109 C11.7792174,3.27715249 11.7795638,3.29655418 11.7795638,3.31918948 C11.7795638,3.32461733 11.7795638,3.33016067 11.7794483,3.33558852 C11.7622415,4.06442206 11.875414,4.4186183 12.1042996,4.85377038 C12.1064938,4.8578124 12.1105356,4.86589644 12.1126143,4.87016943 C12.1249709,4.89499897 12.1367501,4.91913559 12.1510699,4.95262659 L13.5030194,8.18577883 C13.9695672,8.88989832 14.6153434,9.38394838 15.4234875,9.65476357 C15.7058413,9.74934678 15.8962714,10.0139257 15.8962714,10.3117647 L15.8962714,21.410106 C15.8962714,21.7848588 15.5983274,22.0917057 15.2237033,22.1026769 C14.6651162,22.1190759 14.4254907,22.1664253 14.3362231,22.1910238 L13.7129659,22.8803611 C13.0613002,23.5919872 12.1429861,24 11.1929145,24 C11.1869094,24 11.1809044,24 11.1748993,23.999769 L5.16682517,23.8434007 C3.64453952,23.8387812 2.30148216,22.8132636 1.89868043,21.3463576 C1.89498501,21.3330767 1.89175151,21.3197958 1.88897993,21.3061684 L0.119216045,12.9401156 C-0.360612272,11.1518114 0.648124274,9.33475125 2.42366227,8.79681643 C2.43440211,8.79358282 2.44525743,8.79058017 2.45611275,8.7878085 L6.16470639,7.85791345 L5.86953403,4.95770798 C5.81745158,4.68031008 5.79308485,4.38039236 5.79308485,4.01753466 L5.79308485,3.38028169 C5.79308485,1.51633408 7.30567,0 9.16493255,0 L9.69476463,0 C10.7965798,0.000230972442 11.6908735,0.858640054 11.7305994,1.95448881 Z"/>
  </defs>
  <g fill="none" fill-rule="evenodd" transform="translate(4 4)">
    <use fill="#384048" xlink:href="#thumbsup-fill-a"/>
  </g>
</svg>
