<svg xmlns="http://www.w3.org/2000/svg" xmlns:xlink="http://www.w3.org/1999/xlink" width="32" height="32" viewBox="0 0 32 32">
  <defs>
    <path id="trash-can-a" d="M16.6451613,19.631746 C16.6451613,20.0634921 16.3096774,20.3936508 15.8709677,20.3936508 C15.4322581,20.3936508 15.0967742,20.0634921 15.0967742,19.631746 L15.0967742,7.44126984 C15.0967742,7.00952381 15.4322581,6.67936508 15.8709677,6.67936508 C16.3096774,6.67936508 16.6451613,7.00952381 16.6451613,7.44126984 L16.6451613,19.631746 Z M14.9419355,3.25079365 L9.08387097,3.25079365 L9.08387097,1.77777778 C9.08387097,1.62539683 9.18709677,1.52380952 9.34193548,1.52380952 L14.683871,1.52380952 C14.8387097,1.52380952 14.9419355,1.62539683 14.9419355,1.77777778 L14.9419355,3.25079365 Z M12.7741935,19.631746 C12.7741935,20.0634921 12.4387097,20.3936508 12,20.3936508 C11.5612903,20.3936508 11.2258065,20.0634921 11.2258065,19.631746 L11.2258065,7.44126984 C11.2258065,7.00952381 11.5612903,6.67936508 12,6.67936508 C12.4387097,6.67936508 12.7741935,7.00952381 12.7741935,7.44126984 L12.7741935,19.631746 Z M8.90322581,19.631746 C8.90322581,20.0634921 8.56774194,20.3936508 8.12903226,20.3936508 C7.69032258,20.3936508 7.35483871,20.0634921 7.35483871,19.631746 L7.35483871,7.44126984 C7.35483871,7.00952381 7.69032258,6.67936508 8.12903226,6.67936508 C8.56774194,6.67936508 8.90322581,7.00952381 8.90322581,7.44126984 L8.90322581,19.631746 Z M23.2258065,3.25079365 L16.4645161,3.25079365 L16.4645161,1.77777778 C16.4645161,0.787301587 15.6645161,0 14.6580645,0 L9.34193548,0 C8.33548387,0 7.53548387,0.787301587 7.53548387,1.77777778 L7.53548387,3.25079365 L0.774193548,3.25079365 C0.335483871,3.25079365 0,3.58095238 0,4.01269841 C0,4.44444444 0.361290323,4.77460317 0.774193548,4.77460317 L2.99354839,4.77460317 L3.58709677,21.7904762 C3.63870968,23.0349206 4.64516129,24 5.90967742,24 L18.0903226,24 C19.3548387,24 20.3612903,23.0349206 20.4129032,21.7904762 L21.0064516,4.77460317 L23.2258065,4.77460317 C23.6645161,4.77460317 24,4.44444444 24,4.01269841 C24,3.58095238 23.6645161,3.25079365 23.2258065,3.25079365 L23.2258065,3.25079365 Z"/>
  </defs>
  <g fill="none" fill-rule="evenodd" transform="translate(4 4)">
    <use fill="#333" xlink:href="#trash-can-a"/>
  </g>
</svg>
