<?xml version="1.0" encoding="utf-8"?>
<!-- Generator: Adobe Illustrator 20.0.0, SVG Export Plug-In . SVG Version: 6.00 Build 0)  -->
<svg version="1.1" id="Layer_1" xmlns="http://www.w3.org/2000/svg" xmlns:xlink="http://www.w3.org/1999/xlink" x="0px" y="0px"
	 viewBox="0 0 48 48" style="enable-background:new 0 0 48 48;" xml:space="preserve">
<style type="text/css">
	.st0{fill:#384048;}
</style>
<title>icon/Utility/Ship/haul-away</title>
<desc>Created with Sketch.</desc>
<g id="Symbols">
	<g id="icon_x2F_Utility_x2F_Ship_x2F_haul-away">
		<g id="Icon" transform="translate(11.000000, 12.000000)">
			<g id="Mask" transform="translate(13.000000, 12.000000) scale(-1, 1) translate(-13.000000, -12.000000) ">
				<path id="path-1_1_" class="st0" d="M21.6,5.7C21.4,5.3,20.8,5,20.4,5c-0.2,0-0.3,0.1-0.4,0.1l-9.3,5L6.1,1.7
					C6,1.6,5.9,1.5,5.7,1.4L0.9,0C0.5-0.1,0.1,0.1,0,0.5s0.1,0.8,0.5,0.9L5,2.7l7.8,14.2c-1,0.7-1.7,1.9-1.7,3.2
					c0,2.1,1.8,3.9,4,3.9s4-1.7,4-3.9c0-0.6-0.1-1.1-0.3-1.6l6.8-3.6c0.4-0.3,0.5-1.1,0.3-1.5L21.6,5.7z M12.5,20.1
					c0-1.4,1.2-2.5,2.6-2.5s2.6,1.1,2.6,2.5s-1.2,2.5-2.6,2.5C13.6,22.6,12.5,21.5,12.5,20.1z"/>
			</g>
		</g>
	</g>
</g>
</svg>
