<svg id="icon_x2F_Utility_x2F_Ship_x2F_track-order-Layer_1" xmlns="http://www.w3.org/2000/svg" viewBox="0 0 48 48" enable-background="new 0 0 48 48"><title>icon/Utility/Ship/track-order</title><g id="icon_x2F_Utility_x2F_Ship_x2F_track-order-Symbols"><g id="icon_x2F_Utility_x2F_Ship_x2F_track-order"><g id="icon_x2F_Utility_x2F_Ship_x2F_track-order-Icon" transform="translate(11 12)"><g id="icon_x2F_Utility_x2F_Ship_x2F_track-order-Mask"><path id="icon_x2F_Utility_x2F_Ship_x2F_track-order-path-1_1_" d="M25.9 13.4c.2.4.1 1.2-.3 1.5l-6.3 3.6c.2.5.3 1 .3 1.6 0 2.2-1.7 3.9-3.7 3.9s-3.7-1.8-3.7-3.9c0-1.3.6-2.5 1.6-3.2L6.6 2.7 2.4 1.4c-.3-.2-.5-.5-.4-.9.1-.4.5-.6.8-.5l4.4 1.4c.2.1.3.2.4.3l4.2 8.4 8.6-5c.1 0 .3-.1.4-.1.4 0 .9.3 1.1.7l4 7.7zm-10 9.2c1.3 0 2.4-1.1 2.4-2.5s-1.1-2.5-2.4-2.5-2.4 1.1-2.4 2.5 1.1 2.5 2.4 2.5zM5.9 8.3H1.1c-.4 0-.7-.3-.7-.6s.3-.7.7-.7h4.8c.4 0 .7.3.7.7s-.4.6-.7.6zM8 12.5H.7c-.4 0-.7-.3-.7-.7 0-.4.3-.7.7-.7H8c.4 0 .7.3.7.7 0 .4-.3.7-.7.7zm2.2 4.1H5.4c-.4 0-.7-.3-.7-.7 0-.4.3-.7.7-.7h4.8c.4 0 .7.3.7.7 0 .4-.3.7-.7.7z" fill="#384048"/></g><defs><filter id="icon_x2F_Utility_x2F_Ship_x2F_track-order-Adobe_OpacityMaskFilter" filterUnits="userSpaceOnUse" x="-11" y="-12" width="48" height="48"><feColorMatrix values="1 0 0 0 0 0 1 0 0 0 0 0 1 0 0 0 0 0 1 0"/></filter></defs><mask maskUnits="userSpaceOnUse" x="-11" y="-12" width="48" height="48" id="icon_x2F_Utility_x2F_Ship_x2F_track-order-mask-2"><g filter="url(#icon_x2F_Utility_x2F_Ship_x2F_track-order-Adobe_OpacityMaskFilter)"><path id="icon_x2F_Utility_x2F_Ship_x2F_track-order-path-1" d="M25.9 13.4c.2.4.1 1.2-.3 1.5l-6.3 3.6c.2.5.3 1 .3 1.6 0 2.2-1.7 3.9-3.7 3.9s-3.7-1.8-3.7-3.9c0-1.3.6-2.5 1.6-3.2L6.6 2.7 2.4 1.4c-.3-.2-.5-.5-.4-.9.1-.4.5-.6.8-.5l4.4 1.4c.2.1.3.2.4.3l4.2 8.4 8.6-5c.1 0 .3-.1.4-.1.4 0 .9.3 1.1.7l4 7.7zm-10 9.2c1.3 0 2.4-1.1 2.4-2.5s-1.1-2.5-2.4-2.5-2.4 1.1-2.4 2.5 1.1 2.5 2.4 2.5zM5.9 8.3H1.1c-.4 0-.7-.3-.7-.6s.3-.7.7-.7h4.8c.4 0 .7.3.7.7s-.4.6-.7.6zM8 12.5H.7c-.4 0-.7-.3-.7-.7 0-.4.3-.7.7-.7H8c.4 0 .7.3.7.7 0 .4-.3.7-.7.7zm2.2 4.1H5.4c-.4 0-.7-.3-.7-.7 0-.4.3-.7.7-.7h4.8c.4 0 .7.3.7.7 0 .4-.3.7-.7.7z" fill="#fff"/></g></mask><g id="icon_x2F_Utility_x2F_Ship_x2F_track-order-Color_x2F_Grayscale_x2F_Night-Sky" mask="url(#icon_x2F_Utility_x2F_Ship_x2F_track-order-mask-2)"><path fill="#111" d="M0 0h48v48H0z" transform="translate(-11 -12)" id="icon_x2F_Utility_x2F_Ship_x2F_track-order-Swatch"/></g></g></g></g></svg>