<?xml version="1.0" encoding="UTF-8"?>
<svg width="48px" height="48px" viewBox="0 0 48 48" version="1.1" xmlns="http://www.w3.org/2000/svg" xmlns:xlink="http://www.w3.org/1999/xlink">
    <!-- Generator: Sketch 46.2 (44496) - http://www.bohemiancoding.com/sketch -->
    <title>icon/Utility/Ship/track-order</title>
    <desc>Created with Sketch.</desc>
    <defs>
        <path d="M25.8922173,13.3894168 C26.1173954,13.8289629 25.9782636,14.5893615 25.5818631,14.847356 L19.2589275,18.4928948 C19.4640898,18.9797572 19.5790721,19.5183105 19.5790721,20.0857602 C19.5790721,22.2474567 17.9236323,24 15.8815825,24 C13.8395326,24 12.1840929,22.2474567 12.1840929,20.0857602 C12.1840929,18.7576816 12.8094788,17.584676 13.7650172,16.8771196 L6.60293966,2.68443131 L2.43714493,1.35209314 C2.09208942,1.24180368 1.89693507,0.856251052 2.00114793,0.4910755 C2.10536078,0.125784822 2.46988822,-0.0805186423 2.81472617,0.0296556968 L7.23974766,1.44488365 C7.40574851,1.49795614 7.54498907,1.61883707 7.62668412,1.7807024 L11.8407779,10.1312726 L20.4509573,5.11954899 C20.5458149,5.05784215 20.6614498,5.02986685 20.7861137,5.02986685 C21.1825141,5.02986685 21.669421,5.31295849 21.8651192,5.6951725 L25.8922173,13.3894168 Z M15.8814737,22.6185036 C17.2004517,22.6185036 18.273583,21.4823379 18.273583,20.0857602 C18.273583,18.6891824 17.2004517,17.5530167 15.8814737,17.5530167 C14.5624957,17.5530167 13.4893644,18.6891824 13.4893644,20.0857602 C13.4893644,21.4823379 14.5624957,22.6185036 15.8814737,22.6185036 Z M5.87421113,8.34304063 L1.08781688,8.34304063 C0.727423145,8.34304063 0.435126751,8.03381568 0.435126751,7.65229242 C0.435126751,7.27076916 0.727423145,6.96154421 1.08781688,6.96154421 L5.87421113,6.96154421 C6.23471365,6.96154421 6.52690126,7.27076916 6.52690126,7.65229242 C6.52690126,8.03381568 6.23471365,8.34304063 5.87421113,8.34304063 Z M8.04984489,12.4875299 L0.652690126,12.4875299 C0.292296395,12.4875299 0,12.1781898 0,11.7967817 C0,11.4152584 0.292296395,11.1060335 0.652690126,11.1060335 L8.04984489,11.1060335 C8.41023862,11.1060335 8.70253501,11.4152584 8.70253501,11.7967817 C8.70253501,12.1781898 8.41023862,12.4875299 8.04984489,12.4875299 Z M10.2254786,16.6320191 L5.43908438,16.6320191 C5.07869065,16.6320191 4.78639426,16.322679 4.78639426,15.9412709 C4.78639426,15.5598628 5.07869065,15.2505227 5.43908438,15.2505227 L10.2254786,15.2505227 C10.5859812,15.2505227 10.8781688,15.5598628 10.8781688,15.9412709 C10.8781688,16.322679 10.5859812,16.6320191 10.2254786,16.6320191 Z" id="path-1"></path>
    </defs>
    <g id="Symbols" stroke="none" stroke-width="1" fill="none" fill-rule="evenodd">
        <g id="icon/Utility/Ship/track-order">
            <g id="Icon" transform="translate(11.000000, 12.000000)">
                <mask id="mask-2" fill="white">
                    <use xlink:href="#path-1"></use>
                </mask>
                <use id="Mask" fill="#384048" xlink:href="#path-1"></use>
                <g id="Color/Grayscale/Night-Sky" mask="url(#mask-2)" fill="#111111">
                    <g transform="translate(-11.000000, -12.000000)" id="Swatch">
                        <rect x="0" y="0" width="48" height="48"></rect>
                    </g>
                </g>
            </g>
        </g>
    </g>
</svg>