<?xml version="1.0" encoding="utf-8"?>
<svg version="1.1" id="icon_x2F_Utility_x2F_Ship_x2F_truck-Layer_1"
	 xmlns="http://www.w3.org/2000/svg" xmlns:xlink="http://www.w3.org/1999/xlink" x="0px" y="0px" viewBox="0 0 48 48"
	 style="enable-background:new 0 0 48 48;" xml:space="preserve">
<path id="icon_x2F_Utility_x2F_Ship_x2F_truck-path-1_1_" style="fill:#111111;" d="M34.5,14H23c-1.2,0-2.5,1.2-2.5,2.4v13.5
	c0,1.3,1.2,2.6,2.5,2.6h5.5C29,33.4,30,34,31.1,34s2.1-0.6,2.6-1.5h0.8c1.1,0,2.4-1.3,2.4-2.6V16.4C37,15.2,35.8,14,34.5,14z
	 M31.2,32.7c-1,0-1.7-0.8-1.7-1.8s0.8-1.8,1.7-1.8c1,0,1.7,0.8,1.7,1.8S32.2,32.7,31.2,32.7z M19.1,19.1c0.4,0,0.7,0.3,0.7,0.7v11
	c0,0.4-0.3,0.7-0.7,0.7h-0.6c-0.2,1.4-1.5,2.5-3,2.5s-2.8-1.1-3-2.6h-0.8c-0.4,0-0.7-0.3-0.7-0.7v-5.6c0-0.1,0-1.1,0.5-2
	c0,0,0-0.1,0.1-0.1l2.8-3.3c0-0.1,0.1-0.1,0.2-0.1c0.8-0.5,1.3-0.5,1.6-0.5C16.2,19.1,19.1,19.1,19.1,19.1z M15.5,32.7
	c1,0,1.7-0.8,1.7-1.8s-0.8-1.8-1.7-1.8s-1.8,0.9-1.8,1.8S14.5,32.7,15.5,32.7z"/>
</svg>
