<?xml version="1.0" encoding="utf-8"?>
<!-- Generator: Adobe Illustrator 21.0.2, SVG Export Plug-In . SVG Version: 6.00 Build 0)  -->
<svg version="1.1" id="icon_x2F_Utility_x2F_Ship_x2F_truck-Layer_1" xmlns="http://www.w3.org/2000/svg" xmlns:xlink="http://www.w3.org/1999/xlink" x="0px" y="0px"
	 viewBox="0 0 48 48" style="enable-background:new 0 0 48 48;" xml:space="preserve">
<title>icon/Utility/Ship/truck</title>
<desc>Created with Sketch.</desc>
<g id="icon_x2F_Utility_x2F_Ship_x2F_truck-Symbols">
	<g id="icon_x2F_Utility_x2F_Ship_x2F_truck">
		<g id="icon_x2F_Utility_x2F_Ship_x2F_truck-Icon" transform="translate(11.000000, 14.000000)">
			<g id="icon_x2F_Utility_x2F_Ship_x2F_truck-Mask">
				<path id="icon_x2F_Utility_x2F_Ship_x2F_truck-path-1_1_" style="fill:#384048;" d="M23.5,0H12c-1.2,0-2.5,1.2-2.5,2.4v13.5c0,1.3,1.2,2.6,2.5,2.6h5.5
					c0.5,0.9,1.5,1.5,2.6,1.5s2.1-0.6,2.6-1.5h0.8c1.1,0,2.4-1.3,2.4-2.6V2.4C26,1.2,24.8,0,23.5,0L23.5,0z M20.2,18.7
					c-1,0-1.7-0.8-1.7-1.8s0.8-1.8,1.7-1.8c1,0,1.7,0.8,1.7,1.8S21.2,18.7,20.2,18.7z M8.1,5.1c0.4,0,0.7,0.3,0.7,0.7v11
					c0,0.4-0.3,0.7-0.7,0.7H7.5C7.3,18.9,6,20,4.5,20s-2.8-1.1-3-2.6H0.7c-0.4,0-0.7-0.3-0.7-0.7v-5.6c0-0.1,0-1.1,0.5-2
					c0,0,0-0.1,0.1-0.1l2.8-3.3c0-0.1,0.1-0.1,0.2-0.1c0.8-0.5,1.3-0.5,1.6-0.5H8.1z M4.5,18.7c1,0,1.7-0.8,1.7-1.8
					s-0.8-1.8-1.7-1.8S2.7,16,2.7,16.9S3.5,18.7,4.5,18.7z"/>
			</g>
			<defs>
				<filter id="icon_x2F_Utility_x2F_Ship_x2F_truck-Adobe_OpacityMaskFilter" filterUnits="userSpaceOnUse" x="-11" y="-14" width="48" height="48">
					<feColorMatrix  type="matrix" values="1 0 0 0 0  0 1 0 0 0  0 0 1 0 0  0 0 0 1 0"/>
				</filter>
			</defs>
			<mask maskUnits="userSpaceOnUse" x="-11" y="-14" width="48" height="48" id="icon_x2F_Utility_x2F_Ship_x2F_truck-mask-2">
				<g style="filter:url(#icon_x2F_Utility_x2F_Ship_x2F_truck-Adobe_OpacityMaskFilter);">
					<path id="icon_x2F_Utility_x2F_Ship_x2F_truck-path-1" style="fill:#FFFFFF;" d="M23.5,0H12c-1.2,0-2.5,1.2-2.5,2.4v13.5c0,1.3,1.2,2.6,2.5,2.6h5.5
						c0.5,0.9,1.5,1.5,2.6,1.5s2.1-0.6,2.6-1.5h0.8c1.1,0,2.4-1.3,2.4-2.6V2.4C26,1.2,24.8,0,23.5,0L23.5,0z M20.2,18.7
						c-1,0-1.7-0.8-1.7-1.8s0.8-1.8,1.7-1.8c1,0,1.7,0.8,1.7,1.8S21.2,18.7,20.2,18.7z M8.1,5.1c0.4,0,0.7,0.3,0.7,0.7v11
						c0,0.4-0.3,0.7-0.7,0.7H7.5C7.3,18.9,6,20,4.5,20s-2.8-1.1-3-2.6H0.7c-0.4,0-0.7-0.3-0.7-0.7v-5.6c0-0.1,0-1.1,0.5-2
						c0,0,0-0.1,0.1-0.1l2.8-3.3c0-0.1,0.1-0.1,0.2-0.1c0.8-0.5,1.3-0.5,1.6-0.5H8.1z M4.5,18.7c1,0,1.7-0.8,1.7-1.8
						s-0.8-1.8-1.7-1.8S2.7,16,2.7,16.9S3.5,18.7,4.5,18.7z"/>
				</g>
			</mask>
			<g id="icon_x2F_Utility_x2F_Ship_x2F_truck-Color_x2F_Grayscale_x2F_Night-Sky" style="mask:url(#icon_x2F_Utility_x2F_Ship_x2F_truck-mask-2);">
				<g id="icon_x2F_Utility_x2F_Ship_x2F_truck-Swatch" transform="translate(-11.000000, -14.000000)">
					<rect style="fill:#111111;" width="48" height="48"/>
				</g>
			</g>
		</g>
	</g>
</g>
</svg>
