<?xml version="1.0" encoding="utf-8"?>
<svg version="1.1" id="icon_x2F_Utility_x2F_Calendar_x2F_appointment-Layer_1"
	 xmlns="http://www.w3.org/2000/svg" xmlns:xlink="http://www.w3.org/1999/xlink" x="0px" y="0px" viewBox="0 0 48 48"
	 style="enable-background:new 0 0 48 48;" xml:space="preserve">
<path id="icon_x2F_Utility_x2F_Calendar_x2F_appointment-path-1_1_" style="fill:#111111;" d="M29.9,18.1c-0.4,0-0.6-0.3-0.6-0.6
	v-3.9c0-0.4,0.3-0.6,0.6-0.6c0.4,0,0.6,0.3,0.6,0.6v3.8C30.5,17.8,30.2,18.1,29.9,18.1z M18.2,18.1c-0.4,0-0.7-0.3-0.7-0.6v-3.9
	c0-0.3,0.3-0.6,0.7-0.6c0.4,0,0.7,0.3,0.7,0.6v3.8C18.8,17.8,18.5,18.1,18.2,18.1z M31.1,14.9h3c1.7,0,2.9,1.1,2.9,2.8v14.6
	c0,1.6-1.2,2.8-2.8,2.8H13.8C12.2,35,11,33.9,11,32.3V17.7c0-1.7,1.2-2.8,2.8-2.8h3v2.5c0,0.7,0.6,1.3,1.3,1.3s1.3-0.6,1.3-1.3v-2.5
	h9.1v2.5c0,0.7,0.6,1.3,1.3,1.3c0.7,0,1.3-0.6,1.3-1.3C31.1,17.4,31.1,14.9,31.1,14.9z M14.9,29.1h1.3v1.3h-1.3V29.1z M14.9,24.4
	h1.3v1.3h-1.3V24.4z M14.9,20.2h1.3v1.3h-1.3C14.9,21.5,14.9,20.2,14.9,20.2z M18.3,29.1h1.3v1.3h-1.3V29.1z M18.3,24.4h1.3v1.3
	h-1.3V24.4z M18.3,20.2h1.3v1.3h-1.3C18.3,21.5,18.3,20.2,18.3,20.2z M21.6,29.1h1.3v1.3h-1.3V29.1z M21.6,24.4h1.3v1.3h-1.3V24.4z
	 M21.6,20.2h1.3v1.3h-1.3C21.6,21.5,21.6,20.2,21.6,20.2z M25.1,29.1h1.3v1.3h-1.3V29.1z M25.1,24.4h1.3v1.3h-1.3V24.4z M25.1,20.2
	h1.3v1.3h-1.3C25.1,21.5,25.1,20.2,25.1,20.2z M28.4,29.1h1.3v1.3h-1.3V29.1z M28.4,24.4h1.3v1.3h-1.3V24.4z M28.4,20.2h1.3v1.3
	h-1.3C28.4,21.5,28.4,20.2,28.4,20.2z M31.8,29.1h1.3v1.3h-1.3V29.1z M31.8,24.4h1.3v1.3h-1.3V24.4z M31.8,20.2h1.3v1.3h-1.3
	C31.8,21.5,31.8,20.2,31.8,20.2z"/>
</svg>
