<svg xmlns="http://www.w3.org/2000/svg" xmlns:xlink="http://www.w3.org/1999/xlink" width="32" height="32" viewBox="0 0 32 32">
    <defs>
        <path id="a" d="M6.216 3.117h-.872V5.41h.872V3.117zm8.238 0h-.872V5.41h.872V3.117zM20 12.859a6.06 6.06 0 0 0-1.897-.302c-3.259 0-5.898 2.56-5.898 5.721 0 1.422.534 2.722 1.417 3.722H0V2h5.344V0h.872v2h7.366V0h.872v2H20v10.859zm-1.897.544c2.776 0 5.025 2.181 5.025 4.875s-2.249 4.876-5.025 4.876c-2.777 0-5.026-2.182-5.026-4.876 0-2.694 2.25-4.875 5.026-4.875zm2.317 5.365V17.9h-2.042l-2.249-2.583-.665.557 2.501 2.894h2.455zM7.34 7.28v.846h.987V7.28h-.986zm2.066 0v.846h.987V7.28h-.987zm2.065 0v.846h.987V7.28h-.987zm2.111 0v.846h.987V7.28h-.987zm1.997 0v.846h.986V7.28h-.986zM3.233 9.484v.846h.987v-.846h-.987zm2.065 0v.846h.987v-.846h-.987zm2.043 0v.846h.986v-.846h-.986zm2.065 0v.846h.987v-.846h-.987zm2.065 0v.846h.987v-.846h-.987zm2.111 0v.846h.987v-.846h-.987zm1.997 0v.846h.986v-.846h-.986zM3.233 11.711v.846h.987v-.846h-.987zm2.065 0v.846h.987v-.846h-.987zm2.043 0v.846h.986v-.846h-.986zm2.065 0v.846h.987v-.846h-.987zm-6.173 2.204v.846h.987v-.846h-.987zm2.065 0v.846h.987v-.846h-.987zm2.043 0v.846h.986v-.846h-.986zm-4.108 2.204v.846h.987v-.846h-.987zm2.065 0v.846h.987v-.846h-.987zm2.043 0v.846h.986v-.846h-.986zm2.065-2.204v.846h.987v-.846h-.987zm2.088 0v.846h.987v-.846h-.987zm-.023-2.204v.846h.987v-.846h-.987zm2.111 0v.846h.987v-.846h-.987zM9.36 16.119v.846h.987v-.846H9.36z"/>
    </defs>
    <g fill="none" fill-rule="evenodd" transform="translate(4 4)">
        <mask id="b" fill="#fff">
            <use xlink:href="#a"/>
        </mask>
        <use fill="#FFF" xlink:href="#a"/>
        <g fill="#384048" mask="url(#b)">
            <path d="M-4-4h32v32H-4z"/>
        </g>
    </g>
</svg>
