<?xml version="1.0" encoding="UTF-8"?>
<svg width="48px" height="48px" viewBox="0 0 48 48" version="1.1" xmlns="http://www.w3.org/2000/svg" xmlns:xlink="http://www.w3.org/1999/xlink">
    <!-- Generator: Sketch 46.2 (44496) - http://www.bohemiancoding.com/sketch -->
    <title>icon/Utility/Calendar/wedding-date</title>
    <desc>Created with Sketch.</desc>
    <defs>
        <path d="M23.1833333,1.90384615 C24.8418083,1.90384615 26,3.034625 26,4.65384615 L26,19.25 C26,20.8692212 24.8418083,22 23.1833333,22 L2.81666667,22 C1.15819167,22 0,20.8692212 0,19.25 L0,4.65384615 C0,3.034625 1.15819167,1.90384615 2.81666667,1.90384615 L5.85,1.90384615 L5.85,4.44230769 C5.85,5.14218269 6.43315833,5.71153846 7.15,5.71153846 C7.86684167,5.71153846 8.45,5.14218269 8.45,4.44230769 L8.45,1.90384615 L17.55,1.90384615 L17.55,4.44230769 C17.55,5.14218269 18.1331583,5.71153846 18.85,5.71153846 C19.5668417,5.71153846 20.15,5.14218269 20.15,4.44230769 L20.15,1.90384615 L23.1833333,1.90384615 Z M3.9,16.0747019 L3.9,17.3461538 L5.2,17.3461538 L5.2,16.0747019 L3.9,16.0747019 Z M3.9,11.4220192 L3.9,12.6934712 L5.2,12.6934712 L5.2,11.4220192 L3.9,11.4220192 Z M3.9,7.19230769 L3.9,8.46375962 L5.2,8.46375962 L5.2,7.19230769 L3.9,7.19230769 Z M14.0833333,7.19230769 L14.0833333,8.46375962 L15.3833333,8.46375962 L15.3833333,7.19230769 L14.0833333,7.19230769 Z M10.6166667,7.19230769 L10.6166667,8.46375962 L11.9166667,8.46375962 L11.9166667,7.19230769 L10.6166667,7.19230769 Z M7.25833333,7.19230769 L7.25833333,8.46375962 L8.55833333,8.46375962 L8.55833333,7.19230769 L7.25833333,7.19230769 Z M7.25833333,16.0747019 L7.25833333,17.3461538 L8.55833333,17.3461538 L8.55833333,16.0747019 L7.25833333,16.0747019 Z M14.0833333,16.0747019 L14.0833333,17.3461538 L15.3833333,17.3461538 L15.3833333,16.0747019 L14.0833333,16.0747019 Z M15.3173583,13.6895 C15.839525,13.2011635 16.1304,12.551 16.1376583,11.8595865 C16.1441583,11.1684904 15.8665,10.5143077 15.35495,10.0178269 C14.89085,9.56619231 14.2572083,9.31784615 13.5722167,9.31784615 C12.8884167,9.31784615 12.2204333,9.57560577 11.739975,10.025125 L11.284325,10.4511635 L10.8282417,10.0248077 C10.3481083,9.57560577 9.68045,9.31784615 8.99665,9.31784615 C8.31079167,9.31784615 7.67769167,9.56661538 7.213375,10.0178269 C6.70193333,10.514625 6.4246,11.1685962 6.43099167,11.8597981 C6.437925,12.551 6.72901667,13.2011635 7.25129167,13.6895 L10.92715,17.1274231 C11.023675,17.2175385 11.1505333,17.2674615 11.284325,17.2674615 C11.4179,17.2674615 11.5447583,17.21775 11.6417167,17.1274231 L15.3173583,13.6895 Z M17.4416667,16.0747019 L17.4416667,17.3461538 L18.7416667,17.3461538 L18.7416667,16.0747019 L17.4416667,16.0747019 Z M17.4416667,11.4220192 L17.4416667,12.6934712 L18.7416667,12.6934712 L18.7416667,11.4220192 L17.4416667,11.4220192 Z M17.4416667,7.19230769 L17.4416667,8.46375962 L18.7416667,8.46375962 L18.7416667,7.19230769 L17.4416667,7.19230769 Z M20.8,16.0747019 L20.8,17.3461538 L22.1,17.3461538 L22.1,16.0747019 L20.8,16.0747019 Z M20.8,11.4220192 L20.8,12.6934712 L22.1,12.6934712 L22.1,11.4220192 L20.8,11.4220192 Z M20.8,7.19230769 L20.8,8.46375962 L22.1,8.46375962 L22.1,7.19230769 L20.8,7.19230769 Z M7.15,5.07692308 C6.79109167,5.07692308 6.5,4.79272115 6.5,4.44230769 L6.5,0.634615385 C6.5,0.284201923 6.79109167,0 7.15,0 C7.50890833,0 7.8,0.284201923 7.8,0.634615385 L7.8,4.44230769 C7.8,4.79272115 7.50890833,5.07692308 7.15,5.07692308 Z M18.85,5.07692308 C18.4912,5.07692308 18.2,4.79272115 18.2,4.44230769 L18.2,0.634615385 C18.2,0.284201923 18.4912,0 18.85,0 C19.2088,0 19.5,0.284201923 19.5,0.634615385 L19.5,4.44230769 C19.5,4.79272115 19.2088,5.07692308 18.85,5.07692308 Z" id="path-1"></path>
    </defs>
    <g id="Symbols" stroke="none" stroke-width="1" fill="none" fill-rule="evenodd">
        <g id="icon/Utility/Calendar/wedding-date">
            <g id="Icon" transform="translate(11.000000, 12.000000)">
                <mask id="mask-2" fill="white">
                    <use xlink:href="#path-1"></use>
                </mask>
                <use id="Mask" fill="#384048" xlink:href="#path-1"></use>
                <g id="Color/Grayscale/Night-Sky" mask="url(#mask-2)" fill="#111111">
                    <g transform="translate(-11.000000, -12.000000)" id="Swatch">
                        <rect x="0" y="0" width="48" height="48"></rect>
                    </g>
                </g>
            </g>
        </g>
    </g>
</svg>