<?xml version="1.0" encoding="utf-8"?>
<!-- Generator: Adobe Illustrator 21.0.2, SVG Export Plug-In . SVG Version: 6.00 Build 0)  -->
<svg version="1.1" id="icon_x2F_Alert_x2F_error-2-Layer_1" xmlns="http://www.w3.org/2000/svg" xmlns:xlink="http://www.w3.org/1999/xlink" x="0px" y="0px"
	 viewBox="0 0 48 48" style="enable-background:new 0 0 48 48;" xml:space="preserve">
<title>icon/Alert/error-2</title>
<desc>Created with Sketch.</desc>
<g id="icon_x2F_Alert_x2F_error-2-Symbols">
	<g id="icon_x2F_Alert_x2F_error-2">
		<g id="icon_x2F_Alert_x2F_error-2-Icon" transform="translate(12.000000, 12.000000)">
			<g id="icon_x2F_Alert_x2F_error-2-Mask">
				<path id="icon_x2F_Alert_x2F_error-2-path-1_1_" style="fill:#384048;" d="M12,2.4c-5.3,0-9.6,4.3-9.6,9.6c0,2.2,0.8,4.3,2,5.9L17.9,4.4
					C16.3,3.2,14.2,2.4,12,2.4L12,2.4z M12,24C5.4,24,0,18.6,0,12C0,5.4,5.4,0,12,0c6.6,0,12,5.4,12,12C24,18.6,18.6,24,12,24L12,24
					z M19.6,6.1L6.1,19.6c1.6,1.3,3.7,2,5.9,2c5.3,0,9.6-4.3,9.6-9.6C21.6,9.8,20.8,7.7,19.6,6.1L19.6,6.1z"/>
			</g>
			<defs>
				<filter id="icon_x2F_Alert_x2F_error-2-Adobe_OpacityMaskFilter" filterUnits="userSpaceOnUse" x="-12" y="-12" width="48" height="48">
					<feColorMatrix  type="matrix" values="1 0 0 0 0  0 1 0 0 0  0 0 1 0 0  0 0 0 1 0"/>
				</filter>
			</defs>
			<mask maskUnits="userSpaceOnUse" x="-12" y="-12" width="48" height="48" id="icon_x2F_Alert_x2F_error-2-mask-2">
				<g style="filter:url(#icon_x2F_Alert_x2F_error-2-Adobe_OpacityMaskFilter);">
					<path id="icon_x2F_Alert_x2F_error-2-path-1" style="fill:#FFFFFF;" d="M12,2.4c-5.3,0-9.6,4.3-9.6,9.6c0,2.2,0.8,4.3,2,5.9L17.9,4.4
						C16.3,3.2,14.2,2.4,12,2.4L12,2.4z M12,24C5.4,24,0,18.6,0,12C0,5.4,5.4,0,12,0c6.6,0,12,5.4,12,12C24,18.6,18.6,24,12,24
						L12,24z M19.6,6.1L6.1,19.6c1.6,1.3,3.7,2,5.9,2c5.3,0,9.6-4.3,9.6-9.6C21.6,9.8,20.8,7.7,19.6,6.1L19.6,6.1z"/>
				</g>
			</mask>
			<g id="icon_x2F_Alert_x2F_error-2-Color_x2F_Messaging_x2F_Error" style="mask:url(#icon_x2F_Alert_x2F_error-2-mask-2);">
				<g id="icon_x2F_Alert_x2F_error-2-Swatch" transform="translate(-12.000000, -12.000000)">
					<rect style="fill:#9D2028;" width="48" height="48"/>
				</g>
			</g>
		</g>
	</g>
</g>
</svg>
