<svg xmlns="http://www.w3.org/2000/svg" xmlns:xlink="http://www.w3.org/1999/xlink" width="32" height="32" viewBox="0 0 32 32" aria-labelledby="title">
  <defs>
    <path id="error-a" d="M23.2932428,6.26069397 L17.6415969,0.687145117 C17.20909,0.253049411 16.6499088,0 16.0377841,0 L7.93637577,0.0136159738 C7.36031238,0.0136159738 6.7957335,0.248203047 6.38791829,0.657605377 L0.863406021,6.10353333 C0.306751461,6.66224981 0,7.40535889 0,8.19566231 L0,15.9494978 C0,16.5922179 0.249443719,17.1962825 0.701933706,17.6503406 L6.28892175,23.2574679 C6.76552922,23.7363347 7.39993396,24 8.07545328,24 L15.9122583,24 C16.5950128,24 17.236538,23.7328731 17.7180838,23.2490444 L23.1125913,17.8365795 C23.68475,17.2620546 24,16.4989831 24,15.6862941 L24,7.97249881 C24,7.32620161 23.7487188,6.7178676 23.2932428,6.26069397 L23.2932428,6.26069397 Z M10.2857143,5.14285714 L13.7142857,5.14285714 L13.7142857,13.7142857 L10.2857143,13.7142857 L10.2857143,5.14285714 Z M12,18.8571429 C11.0531868,18.8571429 10.2857143,18.0896703 10.2857143,17.1428571 C10.2857143,16.196044 11.0531868,15.4285714 12,15.4285714 C12.9468132,15.4285714 13.7142857,16.196044 13.7142857,17.1428571 C13.7142857,18.0896703 12.9468132,18.8571429 12,18.8571429 L12,18.8571429 Z"/>
  </defs>
  <title id="title" lang="en">error message</title>
  <g fill="none" fill-rule="evenodd" transform="translate(4 4)">
    <use fill="#9D2028" xlink:href="#error-a"/>
  </g>
</svg>
