<?xml version="1.0" encoding="UTF-8"?>
<svg width="48px" height="48px" viewBox="0 0 48 48" version="1.1" xmlns="http://www.w3.org/2000/svg" xmlns:xlink="http://www.w3.org/1999/xlink">
    <!-- Generator: Sketch 46.2 (44496) - http://www.bohemiancoding.com/sketch -->
    <title>icon/Alert/error-2</title>
    <desc>Created with Sketch.</desc>
    <defs>
        <path d="M12,2.4 C6.70656,2.4 2.4,6.70656 2.4,12 C2.4,14.21508 3.15612,16.25568 4.42104,17.88192 L17.88192,4.42104 C16.25568,3.15612 14.21508,2.4 12,2.4 L12,2.4 Z M12,24 C5.37252,24 0,18.62748 0,12 C0,5.37264 5.37252,0 12,0 C18.62736,0 24,5.37264 24,12 C24,18.62748 18.62736,24 12,24 L12,24 Z M19.57884,6.11808 L6.11808,19.57896 C7.74432,20.84388 9.78492,21.6 12,21.6 C17.29344,21.6 21.6,17.29344 21.6,12 C21.6,9.78492 20.84388,7.74432 19.57884,6.11808 L19.57884,6.11808 Z" id="path-1"></path>
    </defs>
    <g id="Symbols" stroke="none" stroke-width="1" fill="none" fill-rule="evenodd">
        <g id="icon/Alert/error-2">
            <g id="Icon" transform="translate(12.000000, 12.000000)">
                <mask id="mask-2" fill="white">
                    <use xlink:href="#path-1"></use>
                </mask>
                <use id="Mask" fill="#384048" xlink:href="#path-1"></use>
                <g id="Color/Messaging/Error" mask="url(#mask-2)" fill="#9D2028">
                    <g transform="translate(-12.000000, -12.000000)" id="Swatch">
                        <rect x="0" y="0" width="48" height="48"></rect>
                    </g>
                </g>
            </g>
        </g>
    </g>
</svg>