<?xml version="1.0" encoding="utf-8"?>
<svg version="1.1" id="icon_x2F_Alert_x2F_help-Layer_1"
	 xmlns="http://www.w3.org/2000/svg" xmlns:xlink="http://www.w3.org/1999/xlink" x="0px" y="0px" viewBox="0 0 48 48"
	 style="enable-background:new 0 0 48 48;" xml:space="preserve">
<g id="icon_x2F_Alert_x2F_help-Mask">
	<path id="icon_x2F_Alert_x2F_help-path-1_1_" style="fill:#056B9E;" d="M34.4,12H13.6c-0.8,0-1.6,0.8-1.6,1.6v20.8
		c0,0.8,0.8,1.6,1.5,1.6h20.9c0.8,0,1.6-0.8,1.6-1.6V13.5C36,12.8,35.2,12,34.4,12z M24,31.4c-0.5,0-0.9-0.4-0.9-0.9
		s0.4-0.9,0.9-0.9s0.9,0.4,0.9,0.9S24.5,31.4,24,31.4z M25.6,24.4c-0.4,0.4-0.9,1-0.9,1.2V28c0,0.4-0.3,0.7-0.7,0.7
		c-0.4,0-0.7-0.3-0.7-0.7v-2.4c0-0.7,0.6-1.3,1.3-2.1c0.9-1,1.9-2.2,1.9-3.5c0-1-1-2.1-2.5-2.1c-2.5,0-2.7,2.1-2.7,2.1
		c0,0.4-0.4,0.7-0.7,0.6c-0.4,0.1-0.7-0.3-0.7-0.6c0,0,0.3-3.4,4.1-3.4c0.9,0,1.9,0.4,2.6,1c0.8,0.5,1.3,1.4,1.3,2.4
		C27.9,21.8,26.6,23.3,25.6,24.4z"/>
</g>
</svg>
