<svg id="icon_x2F_Alert_x2F_help-Layer_1" xmlns="http://www.w3.org/2000/svg" viewBox="0 0 48 48" enable-background="new 0 0 48 48"><title>icon/Alert/help</title><g id="icon_x2F_Alert_x2F_help-Symbols"><g id="icon_x2F_Alert_x2F_help"><g id="icon_x2F_Alert_x2F_help-Icon" transform="translate(12 12)"><g id="icon_x2F_Alert_x2F_help-Mask"><path id="icon_x2F_Alert_x2F_help-path-1_1_" d="M22.4 0H1.6C.8 0 0 .8 0 1.6v20.8c0 .8.8 1.6 1.5 1.6h20.9c.8 0 1.6-.8 1.6-1.6V1.5c0-.7-.8-1.5-1.6-1.5zM12 19.4c-.5 0-.9-.4-.9-.9s.4-.9.9-.9.9.4.9.9-.4.9-.9.9zm1.6-7c-.4.4-.9 1-.9 1.2V16c0 .4-.3.7-.7.7s-.7-.3-.7-.7v-2.4c0-.7.6-1.3 1.3-2.1.9-1 1.9-2.2 1.9-3.5 0-1-1-2.1-2.5-2.1C9.5 5.9 9.3 8 9.3 8c0 .4-.4.7-.7.6-.4.1-.7-.3-.7-.6 0 0 .3-3.4 4.1-3.4.9 0 1.9.4 2.6 1 .8.5 1.3 1.4 1.3 2.4 0 1.8-1.3 3.3-2.3 4.4z" fill="#384048"/></g><defs><filter id="icon_x2F_Alert_x2F_help-Adobe_OpacityMaskFilter" filterUnits="userSpaceOnUse" x="-12" y="-12" width="48" height="48"><feColorMatrix values="1 0 0 0 0 0 1 0 0 0 0 0 1 0 0 0 0 0 1 0"/></filter></defs><mask maskUnits="userSpaceOnUse" x="-12" y="-12" width="48" height="48" id="icon_x2F_Alert_x2F_help-mask-2"><g filter="url(#icon_x2F_Alert_x2F_help-Adobe_OpacityMaskFilter)"><path id="icon_x2F_Alert_x2F_help-path-1" d="M22.4 0H1.6C.8 0 0 .8 0 1.6v20.8c0 .8.8 1.6 1.5 1.6h20.9c.8 0 1.6-.8 1.6-1.6V1.5c0-.7-.8-1.5-1.6-1.5zM12 19.4c-.5 0-.9-.4-.9-.9s.4-.9.9-.9.9.4.9.9-.4.9-.9.9zm1.6-7c-.4.4-.9 1-.9 1.2V16c0 .4-.3.7-.7.7s-.7-.3-.7-.7v-2.4c0-.7.6-1.3 1.3-2.1.9-1 1.9-2.2 1.9-3.5 0-1-1-2.1-2.5-2.1C9.5 5.9 9.3 8 9.3 8c0 .4-.4.7-.7.6-.4.1-.7-.3-.7-.6 0 0 .3-3.4 4.1-3.4.9 0 1.9.4 2.6 1 .8.5 1.3 1.4 1.3 2.4 0 1.8-1.3 3.3-2.3 4.4z" fill="#fff"/></g></mask><g id="icon_x2F_Alert_x2F_help-Color_x2F_Messaging_x2F_Neutral" mask="url(#icon_x2F_Alert_x2F_help-mask-2)"><path fill="#056b9e" d="M0 0h48v48H0z" transform="translate(-12 -12)" id="icon_x2F_Alert_x2F_help-Swatch"/></g></g></g></g></svg>