<?xml version="1.0" encoding="utf-8"?>
<!-- Generator: Adobe Illustrator 21.0.2, SVG Export Plug-In . SVG Version: 6.00 Build 0)  -->
<svg version="1.1" id="icon_x2F_Alert_x2F_information-Layer_1" xmlns="http://www.w3.org/2000/svg" xmlns:xlink="http://www.w3.org/1999/xlink" x="0px" y="0px"
	 viewBox="0 0 48 48" style="enable-background:new 0 0 48 48;" xml:space="preserve">
<title>icon/Alert/information</title>
<desc>Created with Sketch.</desc>
<g id="icon_x2F_Alert_x2F_information-Symbols">
	<g id="icon_x2F_Alert_x2F_information">
		<g id="icon_x2F_Alert_x2F_information-Icon" transform="translate(12.000000, 12.000000)">
			<g id="icon_x2F_Alert_x2F_information-Mask">
				<path id="icon_x2F_Alert_x2F_information-path-1_1_" style="fill:#384048;" d="M12,0C5.4,0,0,5.4,0,12s5.4,12,12,12s12-5.4,12-12S18.6,0,12,0L12,0z M12.7,17.6
					c0,0.4-0.3,0.7-0.7,0.7s-0.7-0.3-0.7-0.7V8.2c0-0.4,0.3-0.7,0.7-0.7s0.7,0.3,0.7,0.7V17.6L12.7,17.6z M12,6.6
					c-0.5,0-0.9-0.4-0.9-0.9s0.4-0.9,0.9-0.9s0.9,0.4,0.9,0.9S12.5,6.6,12,6.6L12,6.6z"/>
			</g>
			<defs>
				<filter id="icon_x2F_Alert_x2F_information-Adobe_OpacityMaskFilter" filterUnits="userSpaceOnUse" x="-12" y="-12" width="48" height="48">
					<feColorMatrix  type="matrix" values="1 0 0 0 0  0 1 0 0 0  0 0 1 0 0  0 0 0 1 0"/>
				</filter>
			</defs>
			<mask maskUnits="userSpaceOnUse" x="-12" y="-12" width="48" height="48" id="icon_x2F_Alert_x2F_information-mask-2">
				<g style="filter:url(#icon_x2F_Alert_x2F_information-Adobe_OpacityMaskFilter);">
					<path id="icon_x2F_Alert_x2F_information-path-1" style="fill:#FFFFFF;" d="M12,0C5.4,0,0,5.4,0,12s5.4,12,12,12s12-5.4,12-12S18.6,0,12,0L12,0z M12.7,17.6
						c0,0.4-0.3,0.7-0.7,0.7s-0.7-0.3-0.7-0.7V8.2c0-0.4,0.3-0.7,0.7-0.7s0.7,0.3,0.7,0.7V17.6L12.7,17.6z M12,6.6
						c-0.5,0-0.9-0.4-0.9-0.9s0.4-0.9,0.9-0.9s0.9,0.4,0.9,0.9S12.5,6.6,12,6.6L12,6.6z"/>
				</g>
			</mask>
			<g id="icon_x2F_Alert_x2F_information-Color_x2F_Messaging_x2F_Neutral" style="mask:url(#icon_x2F_Alert_x2F_information-mask-2);">
				<g id="icon_x2F_Alert_x2F_information-Swatch" transform="translate(-12.000000, -12.000000)">
					<rect style="fill:#056B9E;" width="48" height="48"/>
				</g>
			</g>
		</g>
	</g>
</g>
</svg>
