<?xml version="1.0" encoding="utf-8"?>
<svg version="1.1" id="icon_x2F_Alert_x2F_information-Layer_1"
	 xmlns="http://www.w3.org/2000/svg" xmlns:xlink="http://www.w3.org/1999/xlink" x="0px" y="0px" viewBox="0 0 48 48"
	 style="enable-background:new 0 0 48 48;" xml:space="preserve">
<path id="icon_x2F_Alert_x2F_information-path-1_1_" style="fill:#056B9E;" d="M24,12c-6.6,0-12,5.4-12,12s5.4,12,12,12
	s12-5.4,12-12S30.6,12,24,12z M24.7,29.6c0,0.4-0.3,0.7-0.7,0.7s-0.7-0.3-0.7-0.7v-9.4c0-0.4,0.3-0.7,0.7-0.7s0.7,0.3,0.7,0.7
	C24.7,20.2,24.7,29.6,24.7,29.6z M24,18.6c-0.5,0-0.9-0.4-0.9-0.9s0.4-0.9,0.9-0.9s0.9,0.4,0.9,0.9S24.5,18.6,24,18.6z"/>
</svg>
