<svg xmlns="http://www.w3.org/2000/svg" xmlns:xlink="http://www.w3.org/1999/xlink" width="32" height="32" viewBox="0 0 32 32">
  <defs>
    <path id="info-a" d="M16,4 C9.37253846,4 4,9.37253846 4,16 C4,22.6274615 9.37253846,28 16,28 C22.6274615,28 28,22.6274615 28,16 C28,9.37253846 22.6274615,4 16,4 L16,4 Z M14.2857143,14.2857143 L17.7142857,14.2857143 L17.7142857,22.8571429 L14.2857143,22.8571429 L14.2857143,14.2857143 Z M16,12.5714286 C15.0531868,12.5714286 14.2857143,11.803956 14.2857143,10.8571429 C14.2857143,9.91032967 15.0531868,9.14285714 16,9.14285714 C16.9468132,9.14285714 17.7142857,9.91032967 17.7142857,10.8571429 C17.7142857,11.803956 16.9468132,12.5714286 16,12.5714286 L16,12.5714286 Z"/>
  </defs>
  <g fill="none" fill-rule="evenodd">
    <use fill="#C00" xlink:href="#info-a"/>
  </g>
</svg>
