<?xml version="1.0" encoding="utf-8"?>
<!-- Generator: Adobe Illustrator 21.0.2, SVG Export Plug-In . SVG Version: 6.00 Build 0)  -->
<svg version="1.1" id="icon_x2F_Alert_x2F_success-Layer_1" xmlns="http://www.w3.org/2000/svg" xmlns:xlink="http://www.w3.org/1999/xlink" x="0px" y="0px"
	 viewBox="0 0 48 48" style="enable-background:new 0 0 48 48;" xml:space="preserve">
<title>icon/Alert/success</title>
<desc>Created with Sketch.</desc>
<g id="icon_x2F_Alert_x2F_success-Symbols">
	<g id="icon_x2F_Alert_x2F_success">
		<g id="icon_x2F_Alert_x2F_success-Group-2" transform="translate(12.000000, 12.000000)">
			<g id="icon_x2F_Alert_x2F_success-Mask">
				<path id="icon_x2F_Alert_x2F_success-path-1_1_" style="fill:#384048;" d="M12,0C5.4,0,0,5.4,0,12c0,6.6,5.4,12,12,12c6.6,0,12-5.4,12-12
					C24,5.4,18.6,0,12,0L12,0z M18.6,7.4c0.4,0.4,0.4,1,0,1.4l-8.7,8.7c-0.2,0.2-0.5,0.3-0.7,0.3c-0.3,0-0.5-0.1-0.7-0.3l-2.9-2.9
					c-0.4-0.4-0.4-1,0-1.4c0.4-0.4,1-0.4,1.4,0l2.2,2.2l8-8C17.6,7,18.2,7,18.6,7.4L18.6,7.4z"/>
			</g>
			<defs>
				<filter id="icon_x2F_Alert_x2F_success-Adobe_OpacityMaskFilter" filterUnits="userSpaceOnUse" x="-12" y="-12" width="48" height="48">
					<feColorMatrix  type="matrix" values="1 0 0 0 0  0 1 0 0 0  0 0 1 0 0  0 0 0 1 0"/>
				</filter>
			</defs>
			<mask maskUnits="userSpaceOnUse" x="-12" y="-12" width="48" height="48" id="icon_x2F_Alert_x2F_success-mask-2">
				<g style="filter:url(#icon_x2F_Alert_x2F_success-Adobe_OpacityMaskFilter);">
					<path id="icon_x2F_Alert_x2F_success-path-1" style="fill:#FFFFFF;" d="M12,0C5.4,0,0,5.4,0,12c0,6.6,5.4,12,12,12c6.6,0,12-5.4,12-12C24,5.4,18.6,0,12,0
						L12,0z M18.6,7.4c0.4,0.4,0.4,1,0,1.4l-8.7,8.7c-0.2,0.2-0.5,0.3-0.7,0.3c-0.3,0-0.5-0.1-0.7-0.3l-2.9-2.9
						c-0.4-0.4-0.4-1,0-1.4c0.4-0.4,1-0.4,1.4,0l2.2,2.2l8-8C17.6,7,18.2,7,18.6,7.4L18.6,7.4z"/>
				</g>
			</mask>
			<g id="icon_x2F_Alert_x2F_success-Color_x2F_Messaging_x2F_Success" style="mask:url(#icon_x2F_Alert_x2F_success-mask-2);">
				<g id="icon_x2F_Alert_x2F_success-Swatch" transform="translate(-12.000000, -12.000000)">
					<rect style="fill:#2A7952;" width="48" height="48"/>
				</g>
			</g>
		</g>
	</g>
</g>
</svg>
