<?xml version="1.0" encoding="UTF-8"?>
<svg width="48px" height="48px" viewBox="0 0 48 48" version="1.1" xmlns="http://www.w3.org/2000/svg" xmlns:xlink="http://www.w3.org/1999/xlink">
    <!-- Generator: Sketch 46.2 (44496) - http://www.bohemiancoding.com/sketch -->
    <title>icon/Alert/success</title>
    <desc>Created with Sketch.</desc>
    <defs>
        <path d="M12,0 C5.3726,0 0,5.3726 0,12 C0,18.6273 5.3726,24 12,24 C18.6273,24 24,18.6273 24,12 C24,5.3726 18.6273,0 12,0 L12,0 Z M18.5946462,7.35835385 C18.9851462,7.74895385 18.9851462,8.38205385 18.5945462,8.77255385 L9.93184615,17.4342538 C9.73654615,17.6294538 9.48064615,17.7271538 9.22474615,17.7271538 C8.96874615,17.7271538 8.71284615,17.6294538 8.51764615,17.4342538 L5.57434615,14.4907538 C5.18384615,14.1001538 5.18384615,13.4670538 5.57434615,13.0764538 C5.96494615,12.6860538 6.59814615,12.6859538 6.98854615,13.0764538 L9.22474615,15.3128538 L17.1804462,7.35815385 C17.5710462,6.96775385 18.2043462,6.96785385 18.5946462,7.35835385 L18.5946462,7.35835385 Z" id="path-1"></path>
    </defs>
    <g id="Symbols" stroke="none" stroke-width="1" fill="none" fill-rule="evenodd">
        <g id="icon/Alert/success">
            <g id="Group-2" transform="translate(12.000000, 12.000000)">
                <mask id="mask-2" fill="white">
                    <use xlink:href="#path-1"></use>
                </mask>
                <use id="Mask" fill="#384048" xlink:href="#path-1"></use>
                <g id="Color/Messaging/Success" mask="url(#mask-2)" fill="#2A7952">
                    <g transform="translate(-12.000000, -12.000000)" id="Swatch">
                        <rect x="0" y="0" width="48" height="48"></rect>
                    </g>
                </g>
            </g>
        </g>
    </g>
</svg>