<?xml version="1.0" encoding="utf-8"?>
<svg version="1.1" id="icon_x2F_Alert_x2F_warning-Layer_1"
	 xmlns="http://www.w3.org/2000/svg" xmlns:xlink="http://www.w3.org/1999/xlink" x="0px" y="0px" viewBox="0 0 48 48"
	 style="enable-background:new 0 0 48 48;" xml:space="preserve">
<path id="icon_x2F_Alert_x2F_warning-path-1_1_" style="fill:#615D14;" d="M36.7,33.1L25.6,13c-0.3-0.6-1-1-1.7-1
	c-0.7,0-1.2,0.4-1.6,1l-11,20.1c-0.3,0.6-0.5,1.4-0.1,1.9c0.3,0.6,1,0.9,1.7,0.9h21.8c0.8,0,1.7-0.4,2.1-1
	C37.1,34.4,37,33.7,36.7,33.1z M23.4,18.9c0-0.4,0.3-0.7,0.7-0.7c0.4,0,0.7,0.3,0.7,0.7v9.8c0,0.4-0.3,0.7-0.7,0.7
	c-0.4,0-0.7-0.3-0.7-0.7V18.9z M24,32.6c-0.5,0-1-0.4-1-1c0-0.5,0.4-1,1-1s1,0.4,1,1C25,32.1,24.5,32.6,24,32.6z"/>
</svg>
