<?xml version="1.0" encoding="UTF-8"?>
<svg width="48px" height="48px" viewBox="0 0 48 48" version="1.1" xmlns="http://www.w3.org/2000/svg" xmlns:xlink="http://www.w3.org/1999/xlink">
    <!-- Generator: Sketch 46.2 (44496) - http://www.bohemiancoding.com/sketch -->
    <title>icon/Alert/warning</title>
    <desc>Created with Sketch.</desc>
    <defs>
        <path d="M25.6781417,21.127156 L14.639267,0.965920454 C14.2935641,0.370085785 13.6446264,0 12.9465037,0 C12.2514145,0 11.711247,0.369282 11.3618607,0.96408323 L0.318002391,21.1100468 C-0.0297588904,21.705537 -0.132895569,22.4628177 0.215082386,23.0584228 C0.564577056,23.6543723 1.24894092,24 1.9439218,24 L23.7310036,24 C24.5785227,24 25.4404507,23.6347369 25.790487,23.0367206 C26.1354316,22.4424935 26.0238446,21.7225314 25.6781417,21.127156 L25.6781417,21.127156 Z M12.350001,6.87477693 C12.350001,6.49435676 12.6411021,6.18581797 13.0000221,6.18581797 C13.3589421,6.18581797 13.6500432,6.49435676 13.6500432,6.87477693 L13.6500432,16.7217228 C13.6500432,17.1021429 13.3589421,17.4106817 13.0000221,17.4106817 C12.6411021,17.4106817 12.350001,17.1021429 12.350001,16.7217228 L12.350001,6.87477693 L12.350001,6.87477693 Z M13.0000221,20.5749554 C12.461263,20.5749554 12.0244488,20.1436671 12.0244488,19.6116759 C12.0244488,19.0796848 12.461263,18.6482817 13.0000221,18.6482817 C13.5387813,18.6482817 13.9755954,19.0796848 13.9755954,19.6116759 C13.9755954,20.1436671 13.5387813,20.5749554 13.0000221,20.5749554 L13.0000221,20.5749554 Z" id="path-1"></path>
    </defs>
    <g id="Symbols" stroke="none" stroke-width="1" fill="none" fill-rule="evenodd">
        <g id="icon/Alert/warning">
            <g id="Icon" transform="translate(11.000000, 12.000000)">
                <mask id="mask-2" fill="white">
                    <use xlink:href="#path-1"></use>
                </mask>
                <use id="Mask" fill="#384048" xlink:href="#path-1"></use>
                <g id="Color/Messaging/Warning" mask="url(#mask-2)" fill="#615D14">
                    <g transform="translate(-11.000000, -12.000000)" id="Swatch">
                        <rect x="0" y="0" width="48" height="48"></rect>
                    </g>
                </g>
            </g>
        </g>
    </g>
</svg>