<?xml version="1.0" encoding="utf-8"?>
<!-- Generator: Adobe Illustrator 21.0.2, SVG Export Plug-In . SVG Version: 6.00 Build 0)  -->
<svg version="1.1" id="icon_x2F_Alert_x2F_warning-Layer_1" xmlns="http://www.w3.org/2000/svg" xmlns:xlink="http://www.w3.org/1999/xlink" x="0px" y="0px"
	 viewBox="0 0 48 48" style="enable-background:new 0 0 48 48;" xml:space="preserve">
<title>icon/Alert/warning</title>
<desc>Created with Sketch.</desc>
<g id="icon_x2F_Alert_x2F_warning-Symbols">
	<g id="icon_x2F_Alert_x2F_warning">
		<g id="icon_x2F_Alert_x2F_warning-Icon" transform="translate(11.000000, 12.000000)">
			<g id="icon_x2F_Alert_x2F_warning-Mask">
				<path id="icon_x2F_Alert_x2F_warning-path-1_1_" style="fill:#384048;" d="M25.7,21.1L14.6,1c-0.3-0.6-1-1-1.7-1c-0.7,0-1.2,0.4-1.6,1l-11,20.1
					c-0.3,0.6-0.5,1.4-0.1,1.9c0.3,0.6,1,0.9,1.7,0.9h21.8c0.8,0,1.7-0.4,2.1-1C26.1,22.4,26,21.7,25.7,21.1L25.7,21.1z M12.4,6.9
					c0-0.4,0.3-0.7,0.7-0.7s0.7,0.3,0.7,0.7v9.8c0,0.4-0.3,0.7-0.7,0.7s-0.7-0.3-0.7-0.7V6.9L12.4,6.9z M13,20.6c-0.5,0-1-0.4-1-1
					c0-0.5,0.4-1,1-1s1,0.4,1,1C14,20.1,13.5,20.6,13,20.6L13,20.6z"/>
			</g>
			<defs>
				<filter id="icon_x2F_Alert_x2F_warning-Adobe_OpacityMaskFilter" filterUnits="userSpaceOnUse" x="-11" y="-12" width="48" height="48">
					<feColorMatrix  type="matrix" values="1 0 0 0 0  0 1 0 0 0  0 0 1 0 0  0 0 0 1 0"/>
				</filter>
			</defs>
			<mask maskUnits="userSpaceOnUse" x="-11" y="-12" width="48" height="48" id="icon_x2F_Alert_x2F_warning-mask-2">
				<g style="filter:url(#icon_x2F_Alert_x2F_warning-Adobe_OpacityMaskFilter);">
					<path id="icon_x2F_Alert_x2F_warning-path-1" style="fill:#FFFFFF;" d="M25.7,21.1L14.6,1c-0.3-0.6-1-1-1.7-1c-0.7,0-1.2,0.4-1.6,1l-11,20.1
						c-0.3,0.6-0.5,1.4-0.1,1.9c0.3,0.6,1,0.9,1.7,0.9h21.8c0.8,0,1.7-0.4,2.1-1C26.1,22.4,26,21.7,25.7,21.1L25.7,21.1z M12.4,6.9
						c0-0.4,0.3-0.7,0.7-0.7s0.7,0.3,0.7,0.7v9.8c0,0.4-0.3,0.7-0.7,0.7s-0.7-0.3-0.7-0.7V6.9L12.4,6.9z M13,20.6c-0.5,0-1-0.4-1-1
						c0-0.5,0.4-1,1-1s1,0.4,1,1C14,20.1,13.5,20.6,13,20.6L13,20.6z"/>
				</g>
			</mask>
			<g id="icon_x2F_Alert_x2F_warning-Color_x2F_Messaging_x2F_Warning" style="mask:url(#icon_x2F_Alert_x2F_warning-mask-2);">
				<g id="icon_x2F_Alert_x2F_warning-Swatch" transform="translate(-11.000000, -12.000000)">
					<rect style="fill:#615D14;" width="48" height="48"/>
				</g>
			</g>
		</g>
	</g>
</g>
</svg>
