<svg xmlns="http://www.w3.org/2000/svg" xmlns:xlink="http://www.w3.org/1999/xlink" width="32" height="32" viewBox="0 0 32 32" aria-labaria-lelledby="title-009">
  <defs>
    <path id="store-a" d="M22.1042509,0 L1.90036546,0 C0.763746878,0 0,0.844218782 0,2.10059676 L0,5.85955938 C0,6.78061578 0.484193116,7.52555373 1.20023082,7.82129564 L1.20023082,21.0059676 C1.20023082,22.1828546 1.94807464,22.8854489 3.20061552,22.8854489 L4.40084633,22.8854489 L4.40084633,11.806791 C4.40084633,10.5834698 5.14919025,9.72907973 6.22079633,9.72907973 L17.6601963,9.72907973 C18.8046163,9.72907973 19.60377,10.5548354 19.60377,11.7372502 L19.60377,22.8854489 L21.1040586,22.8854489 C22.3275939,22.8854489 22.8043856,22.3740089 22.8043856,21.0612465 L22.8043856,7.82129564 C23.5204233,7.52555373 24.0046164,6.78061578 24.0046164,5.85955938 L24.0046164,1.99003904 C24.0046164,0.762516624 23.2764763,0 22.1042509,0 L22.1042509,0 Z M22.8043856,5.85955938 C22.8043856,6.32246458 22.5230314,6.63346345 22.1042509,6.63346345 L1.90036546,6.63346345 C1.48158493,6.63346345 1.20023082,6.32246458 1.20023082,5.85955938 L1.20023082,2.10059676 C1.20023082,1.57986988 1.42927487,1.32669269 1.90036546,1.32669269 L22.1042509,1.32669269 C22.7502751,1.32669269 22.8043856,1.65438579 22.8043856,1.99003904 L22.8043856,5.85955938 Z M5.5439233,11.5904644 C5.5439233,11.2762848 5.62721518,10.749226 6.18501211,10.749226 L11.5450774,10.749226 L11.5450774,24 L5.5439233,24 L5.5439233,11.5904644 Z M17.920333,10.749226 C18.2711936,10.749226 18.6893085,10.8816099 18.6893085,11.5125697 L18.6893085,24 L12.6881544,24 L12.6881544,10.749226 L17.920333,10.749226 Z"/>
  </defs>
  <title id="title-009" lang="en">store location</title>
  <g fill="none" fill-rule="evenodd" transform="translate(4 4)">
    <use fill="#384048" xlink:href="#store-a"/>
  </g>
</svg>
