<svg xmlns="http://www.w3.org/2000/svg" xmlns:xlink="http://www.w3.org/1999/xlink" width="32" height="32" viewBox="0 0 32 32">
  <defs>
    <path id="help-a" d="M22.3999615,0 L1.60003846,0 C0.805269231,0 0,0.788653846 0,1.60003846 L0,22.3999615 C0,23.1851538 0.771923077,24 1.5,24 L22.3999615,24 C23.1891923,23.9856923 24,23.2178077 24,22.3999615 L24,1.5 C24,0.796615385 23.1949615,0 22.3999615,0 L22.3999615,0 Z M10.8,19.2 L13.2,19.2 L13.2,16.8 L10.8,16.8 L10.8,19.2 Z M12,4.8 C9.348,4.8 7.2,6.948 7.2,9.6 L9.6,9.6 C9.6,8.28 10.68,7.2 12,7.2 C13.32,7.2 14.4,8.28 14.4,9.6 C14.4,12 10.8,11.7 10.8,15.6 L13.2,15.6 C13.2,12.9 16.8,12.6 16.8,9.6 C16.8,6.948 14.652,4.8 12,4.8 Z"/>
  </defs>
  <g fill="none" fill-rule="evenodd" transform="translate(4 4)">
    <use fill="#384048" xlink:href="#help-a"/>
  </g>
</svg>
