<svg width="48" height="48" viewBox="0 0 48 48" xmlns="http://www.w3.org/2000/svg" xmlns:xlink="http://www.w3.org/1999/xlink"><title>card/mastercard</title><defs><linearGradient x1="0%" y1="0%" x2="50%" y2="100%" id="linearGradient-1"><stop stop-color="#FFF" offset="0%"/><stop stop-color="#F7F7F7" offset="22.379%"/><stop stop-color="#F2F2F2" offset="100%"/></linearGradient><rect id="path-2" width="36" height="22" rx="2"/><filter x="-9.7%" y="-11.4%" width="119.4%" height="131.8%" filterUnits="objectBoundingBox" id="filter-3"><feOffset dy="1" in="SourceAlpha" result="shadowOffsetOuter1"/><feGaussianBlur stdDeviation="1" in="shadowOffsetOuter1" result="shadowBlurOuter1"/><feColorMatrix values="0 0 0 0 0.325490196 0 0 0 0 0.376470588 0 0 0 0 0.419607843 0 0 0 1 0" in="shadowBlurOuter1"/></filter><path id="path-4" d="M.005 2.308h17.923V.06H.005v2.248z"/><path id="path-6" d="M0 14.892h19.913V0H0z"/></defs><g id="Symbols" fill="none" fill-rule="evenodd"><g id="card/mastercard"><g id="Icon" transform="translate(6 13)"><g id="Card"><use fill="#000" filter="url(#filter-3)" xlink:href="#path-2"/><use fill="url(#linearGradient-1)" xlink:href="#path-2"/></g><g id="Mastercard" transform="translate(8 3)"><g id="Group-3" transform="translate(1.026 12.584)"><mask id="mask-5" fill="#fff"><use xlink:href="#path-4"/></mask><path d="M3.277 1.48c0-.277.188-.504.495-.504.294 0 .493.217.493.504 0 .287-.199.505-.493.505-.307 0-.495-.228-.495-.505zm1.323 0V.693h-.356v.19a.629.629 0 0 0-.516-.23.803.803 0 0 0-.817.827c0 .482.359.828.817.828a.629.629 0 0 0 .516-.231v.191H4.6V1.48zm12.005 0c0-.277.188-.504.495-.504.294 0 .493.217.493.504 0 .287-.199.505-.493.505-.307 0-.495-.228-.495-.505zm1.323 0V.06h-.356v.824a.628.628 0 0 0-.516-.231.803.803 0 0 0-.817.827c0 .482.359.828.817.828a.628.628 0 0 0 .516-.231v.191h.356V1.48zM9.009.96c.23 0 .376.138.414.382h-.848c.038-.228.181-.382.434-.382zm.007-.307c-.478 0-.813.336-.813.827 0 .501.348.828.837.828.246 0 .472-.06.67-.221l-.174-.254a.797.797 0 0 1-.476.165c-.229 0-.437-.102-.488-.386h1.213c.004-.043.007-.086.007-.132C9.79.99 9.474.653 9.016.653zm4.29.827c0-.277.188-.504.496-.504.294 0 .492.217.492.504 0 .287-.198.505-.492.505-.308 0-.496-.228-.496-.505zm1.323 0V.693h-.356v.19a.629.629 0 0 0-.516-.23.803.803 0 0 0-.817.827c0 .482.36.828.817.828a.629.629 0 0 0 .516-.231v.191h.356V1.48zm-3.33 0c0 .478.346.828.872.828.246 0 .41-.053.588-.188l-.17-.277a.736.736 0 0 1-.428.142.479.479 0 0 1-.492-.505c0-.303.208-.5.492-.504.154 0 .294.05.427.142L12.76.84a.876.876 0 0 0-.588-.188c-.526 0-.872.35-.872.827zM15.88.653a.486.486 0 0 0-.43.23v-.19h-.353v1.575h.356v-.883c0-.26.116-.406.349-.406.071 0 .147.01.222.04l.11-.323a.785.785 0 0 0-.254-.043zM6.357.818C6.186.709 5.95.653 5.69.653c-.414 0-.68.191-.68.504 0 .257.198.416.564.465l.167.023c.195.026.288.076.288.165 0 .122-.13.191-.373.191a.892.892 0 0 1-.544-.165l-.167.267c.195.139.44.205.707.205.472 0 .746-.215.746-.515 0-.276-.216-.422-.571-.471l-.168-.023c-.154-.02-.277-.05-.277-.155 0-.115.117-.184.311-.184.209 0 .41.075.51.135l.154-.277zM10.94.653a.486.486 0 0 0-.431.23v-.19h-.352v1.575h.355v-.883c0-.26.117-.406.349-.406.072 0 .147.01.222.04l.11-.323a.785.785 0 0 0-.253-.043zm-3.032.04h-.582V.215H6.97v.478h-.332v.313h.332v.718c0 .366.147.584.567.584a.858.858 0 0 0 .444-.122l-.102-.294a.674.674 0 0 1-.315.09c-.177 0-.236-.106-.236-.264v-.712h.582V.693zM2.596 2.268V1.28c0-.372-.246-.623-.642-.626-.209-.003-.424.06-.574.28a.606.606 0 0 0-.54-.28.547.547 0 0 0-.48.234V.693H.006v1.575h.36v-.873c0-.274.157-.419.4-.419.235 0 .355.148.355.415v.877h.359v-.873c0-.274.164-.419.4-.419.242 0 .359.148.359.415v.877h.358z" id="Fill-1" fill="#000" mask="url(#mask-5)"/></g><mask id="mask-7" fill="#fff"><use xlink:href="#path-6"/></mask><path id="Fill-4" fill="#FF5F00" mask="url(#mask-7)" d="M7.264 10.6h5.385V1.268H7.264z"/><path d="M7.606 5.934c0-1.893.92-3.579 2.35-4.665A6.272 6.272 0 0 0 6.153 0C2.755 0 0 2.657 0 5.934s2.755 5.934 6.153 5.934A6.272 6.272 0 0 0 9.956 10.6c-1.43-1.086-2.35-2.772-2.35-4.665" id="Fill-6" fill="#EB001B" mask="url(#mask-7)"/><path d="M19.913 5.934c0 3.277-2.755 5.934-6.153 5.934A6.271 6.271 0 0 1 9.956 10.6c1.432-1.086 2.35-2.772 2.35-4.665 0-1.893-.918-3.579-2.35-4.665A6.271 6.271 0 0 1 13.76 0c3.398 0 6.153 2.657 6.153 5.934" id="Fill-7" fill="#F79E1B" mask="url(#mask-7)"/></g></g></g></g></svg>