<svg id="payment-card-gift-Layer_1" xmlns="http://www.w3.org/2000/svg" viewBox="0 0 48 48" enable-background="new 0 0 48 48"><filter filterUnits="objectBoundingBox" height="131.8%" id="payment-card-gift-filter-3" width="119.4%" x="-9.7%" y="-11.4%"><feOffset dy="1" in="SourceAlpha" result="shadowOffsetOuter1"/><feGaussianBlur in="shadowOffsetOuter1" result="shadowBlurOuter1" stdDeviation="1"/><feColorMatrix in="shadowBlurOuter1" values="0 0 0 0 0.325490196 0 0 0 0 0.376470588 0 0 0 0 0.419607843 0 0 0 1 0"/></filter><title>card/giftcard</title><g id="payment-card-gift-Symbols"><g id="payment-card-gift-card_x2F_giftcard"><g id="payment-card-gift-Icon" transform="translate(6 13)"><g id="payment-card-gift-Card"><g filter="url(#payment-card-gift-filter-3)"><path id="payment-card-gift-path-2_2_" d="M2 0h32c1.1 0 2 .9 2 2v18c0 1.1-.9 2-2 2H2c-1.1 0-2-.9-2-2V2C0 .9.9 0 2 0z"/></g><linearGradient id="payment-card-gift-path-2_2_" gradientUnits="userSpaceOnUse" x1="-54.397" y1="84.799" x2="-53.911" y2="83.827" gradientTransform="matrix(36 0 0 -22 1966 1864)"><stop offset="0" stop-color="#ea2c2c"/><stop offset="1" stop-color="#c00"/></linearGradient><path id="payment-card-gift-path-2_1_" d="M2 0h32c1.1 0 2 .9 2 2v18c0 1.1-.9 2-2 2H2c-1.1 0-2-.9-2-2V2C0 .9.9 0 2 0z" fill="url(#payment-card-gift-path-2_2_)"/></g><path id="payment-card-gift-Fill-3" d="M12 10.1c.1-1.1.6-3.1 1.5-4 1.1-1 2.2-.8 2.8-.2.6.6.9 1.6-.2 2.7-.9.9-2.9 1.4-4.1 1.5zm1.5 5.8c-.9-.9-1.4-2.9-1.5-4 1.2.1 3.2.6 4.1 1.5 1.1 1.1.8 2.1.2 2.7-.6.6-1.7.9-2.8-.2zm-7.7-10c.6-.6 1.7-.9 2.8.2.9.9 1.4 2.9 1.5 4C8.8 10 6.8 9.5 6 8.6c-1.1-1-.8-2.1-.2-2.7zm0 10.2c-.6-.6-.9-1.6.2-2.7.8-.8 2.9-1.3 4.1-1.5-.1 1.1-.6 3.1-1.5 4-1.1 1.1-2.2.8-2.8.2zM12 5.7V0h-1.9v5.7c-1.3-2.2-4-2.8-5.7-1.1C2.7 6.3 3.3 9 5.6 10.2H.1V12h5.5c-2.3 1.2-2.9 3.8-1.2 5.6 1.7 1.7 4.5 1.1 5.7-1.1V22H12v-5.6c1.3 2.2 4 2.8 5.7 1.1 1.7-1.7 1.1-4.4-1.2-5.6l19.5.2v-1.9l-19.5-.1c2.3-1.2 2.9-3.8 1.2-5.6C16 2.8 13.2 3.4 12 5.7z" fill="#fefefe"/></g></g></g></svg>