<svg xmlns="http://www.w3.org/2000/svg" xmlns:xlink="http://www.w3.org/1999/xlink" width="32" height="32" viewBox="0 0 32 32">
  <defs>
    <linearGradient id="jcpenney-platinum-a" x1="4.266%" x2="41.417%" y1="5.596%" y2="95.005%">
      <stop offset=".02%" stop-color="#D5D5D5"/>
      <stop offset="100%" stop-color="#A2A6A8"/>
    </linearGradient>
    <path id="jcpenney-platinum-b" d="M1.9291075,2.49296893 C1.9291075,2.78160543 1.88710439,3.00583849 1.80309691,3.16567483 C1.64730123,3.45741495 1.35098839,3.60328283 0.914149515,3.60328283 C0.662127085,3.60328283 0.446765694,3.53384041 0.26805888,3.39495349 C0.0893520666,3.25606657 -8.8817842e-15,3.00894467 -8.8817842e-15,2.65358038 L-8.8817842e-15,2.40917166 L0.428435988,2.40917166 L0.428435988,2.65358038 C0.428435988,2.83979747 0.469293557,2.97984615 0.551009921,3.0737306 C0.632726284,3.16761506 0.759881148,3.21455658 0.932478327,3.21455658 C1.1753363,3.21455658 1.33418442,3.12998425 1.40902745,2.96083705 C1.45484971,2.85686584 1.47776049,2.66056493 1.47776049,2.37192842 L1.47776049,0.0931080834 L1.9291075,0.0931080834 L1.9291075,2.49296893 Z M4.79894129,0.342172206 C5.03416223,0.570288151 5.16475371,0.829436392 5.19071966,1.1196247 L4.74624596,1.1196247 C4.69584147,0.899267803 4.59541586,0.724691893 4.44496611,0.595891734 C4.29451635,0.467091574 4.08335527,0.402692461 3.81147653,0.402692461 C3.48002885,0.402692461 3.2123545,0.521016133 3.00844544,0.757667028 C2.80453638,0.994317924 2.70258338,1.35704787 2.70258338,1.84586775 C2.70258338,2.24623451 2.79460837,2.57094571 2.97866112,2.82001107 C3.16271386,3.06907644 3.43726145,3.19360726 3.80231212,3.19360726 C4.13834203,3.19360726 4.39417914,3.06248135 4.56983114,2.80022561 C4.66300307,2.66211459 4.73249912,2.48055565 4.77832138,2.25554332 L5.22279508,2.25554332 C5.18308245,2.61556304 5.05172728,2.91738539 4.82872561,3.16101943 C4.5614291,3.45431136 4.20096606,3.60095512 3.74732569,3.60095512 C3.35630907,3.60095512 3.02792113,3.48069172 2.76215202,3.2401613 C2.41237544,2.92204043 2.23748977,2.4309002 2.23748977,1.76672588 C2.23748977,1.26238791 2.36884494,0.848836974 2.63155924,0.526060671 C2.91565725,0.175351803 3.30743169,0 3.80689433,0 C4.23304134,0 4.56372036,0.114056262 4.79894129,0.342172206 L4.79894129,0.342172206 Z M5.58616379,0.0931080834 L7.10058191,0.0931080834 C7.399954,0.0931080834 7.64128095,0.178844253 7.82456999,0.350319164 C8.00785903,0.521794075 8.09950218,0.762708831 8.09950218,1.07307066 C8.09950218,1.33998183 8.01778704,1.57236177 7.85435431,1.77021744 C7.69092159,1.9680731 7.43966663,2.06699945 7.10058191,2.06699945 L6.04209299,2.06699945 L6.04209299,3.51250244 L5.58616379,3.51250244 L5.58616379,0.0931080834 Z M7.36405858,0.563303904 C7.26324961,0.515197821 7.1250212,0.49114514 6.9493692,0.49114514 L6.04209299,0.49114514 L6.04209299,1.6759455 L6.9493692,1.6759455 C7.15404197,1.6759455 7.32014517,1.6317196 7.44768379,1.54326648 C7.57522241,1.45481336 7.63899077,1.29885888 7.63899077,1.07539836 C7.63899077,0.824005281 7.54734762,0.653308835 7.36405858,0.563303904 L7.36405858,0.563303904 Z M9.91084706,1.08820072 C10.0742798,1.17122251 10.1987617,1.27868369 10.2842966,1.41058746 C10.3667767,1.536284 10.4217626,1.68292777 10.4492559,1.85052316 C10.4736945,1.96535703 10.4859135,2.14846777 10.4859135,2.39986085 L8.68739884,2.39986085 C8.69503588,2.65280574 8.75384023,2.85570174 8.86381366,3.00855494 C8.97378708,3.16140814 9.14409059,3.2378336 9.3747293,3.2378336 C9.59009392,3.2378336 9.76192482,3.16567556 9.89022715,3.02135731 C9.96354276,2.93755961 10.0154739,2.84057299 10.0460221,2.73039454 L10.451547,2.73039454 C10.4408552,2.82195128 10.4053434,2.92398121 10.3450108,3.03648737 C10.2846782,3.14899353 10.2170913,3.24093684 10.1422483,3.31232007 C10.0170008,3.4364648 9.86197115,3.52026123 9.6771547,3.56371189 C9.57787314,3.58854084 9.46561029,3.60095512 9.34036278,3.60095512 C9.03488105,3.60095512 8.77598916,3.4880627 8.56367936,3.26227447 C8.35136955,3.03648624 8.24521624,2.72030987 8.24521624,2.31373587 C8.24521624,1.91336911 8.35213324,1.58826997 8.56597046,1.3384287 C8.77980767,1.08858743 9.05931926,0.963668663 9.40451362,0.963668663 C9.57863821,0.963668663 9.74741433,1.00517893 9.91084706,1.08820072 L9.91084706,1.08820072 Z M10.0620598,2.06699945 C10.0452583,1.88543778 10.0063099,1.7403458 9.94521358,1.63171916 C9.83218534,1.42998397 9.6435532,1.32911789 9.3793115,1.32911789 C9.18991283,1.32911789 9.03106471,1.39856031 8.90276238,1.53744723 C8.77446006,1.67633415 8.70649139,1.85284979 8.69885435,2.06699945 L10.0620598,2.06699945 Z M10.7576382,1.01953351 L11.1494166,1.01953351 L11.1494166,1.37334423 C11.2654996,1.22747417 11.3884542,1.12272862 11.5182839,1.05910445 C11.6481136,0.995480273 11.7924516,0.963668663 11.9513021,0.963668663 C12.2995513,0.963668663 12.5347687,1.08703564 12.6569614,1.33377329 C12.7241674,1.46878069 12.7577698,1.66197803 12.7577698,1.91337111 L12.7577698,3.51250244 L12.3384983,3.51250244 L12.3384983,1.94130354 C12.3384983,1.78922624 12.3163512,1.66663516 12.2720563,1.57352661 C12.1987407,1.41834569 12.0658581,1.3407564 11.8734046,1.3407564 C11.7756505,1.3407564 11.6954627,1.35084301 11.632839,1.37101653 C11.5198107,1.40515633 11.4205307,1.47343491 11.3349958,1.57585431 C11.2662624,1.6581002 11.2215864,1.74306047 11.2009663,1.83073769 C11.1803463,1.91841491 11.1700365,2.04372162 11.1700365,2.20666158 L11.1700365,3.51250244 L10.7576382,3.51250244 L10.7576382,1.01953351 Z M13.1325941,1.01953351 L13.5243724,1.01953351 L13.5243724,1.37334423 C13.6404555,1.22747417 13.76341,1.12272862 13.8932398,1.05910445 C14.0230695,0.995480273 14.1674075,0.963668663 14.326258,0.963668663 C14.6745071,0.963668663 14.9097245,1.08703564 15.0319172,1.33377329 C15.0991232,1.46878069 15.1327257,1.66197803 15.1327257,1.91337111 L15.1327257,3.51250244 L14.7134541,3.51250244 L14.7134541,1.94130354 C14.7134541,1.78922624 14.691307,1.66663516 14.6470122,1.57352661 C14.5736966,1.41834569 14.440814,1.3407564 14.2483605,1.3407564 C14.1506064,1.3407564 14.0704186,1.35084301 14.0077948,1.37101653 C13.8947666,1.40515633 13.7954865,1.47343491 13.7099516,1.57585431 C13.6412183,1.6581002 13.5965422,1.74306047 13.5759222,1.83073769 C13.5553022,1.91841491 13.5449923,2.04372162 13.5449923,2.20666158 L13.5449923,3.51250244 L13.1325941,3.51250244 L13.1325941,1.01953351 Z M17.0357146,1.08820072 C17.1991474,1.17122251 17.3236293,1.27868369 17.4091642,1.41058746 C17.4916443,1.536284 17.5466302,1.68292777 17.5741235,1.85052316 C17.5985621,1.96535703 17.6107811,2.14846777 17.6107811,2.39986085 L15.8122664,2.39986085 C15.8199035,2.65280574 15.8787078,2.85570174 15.9886812,3.00855494 C16.0986547,3.16140814 16.2689582,3.2378336 16.4995969,3.2378336 C16.7149615,3.2378336 16.8867924,3.16567556 17.0150947,3.02135731 C17.0884104,2.93755961 17.1403415,2.84057299 17.1708896,2.73039454 L17.5764146,2.73039454 C17.5657228,2.82195128 17.530211,2.92398121 17.4698784,3.03648737 C17.4095457,3.14899353 17.3419589,3.24093684 17.2671159,3.31232007 C17.1418684,3.4364648 16.9868387,3.52026123 16.8020223,3.56371189 C16.7027407,3.58854084 16.5904779,3.60095512 16.4652304,3.60095512 C16.1597486,3.60095512 15.9008567,3.4880627 15.6885469,3.26227447 C15.4762371,3.03648624 15.3700838,2.72030987 15.3700838,2.31373587 C15.3700838,1.91336911 15.4770008,1.58826997 15.690838,1.3384287 C15.9046753,1.08858743 16.1841869,0.963668663 16.5293812,0.963668663 C16.7035058,0.963668663 16.8722819,1.00517893 17.0357146,1.08820072 L17.0357146,1.08820072 Z M17.1869274,2.06699945 C17.1701259,1.88543778 17.1311775,1.7403458 17.0700812,1.63171916 C16.9570529,1.42998397 16.7684208,1.32911789 16.5041791,1.32911789 C16.3147804,1.32911789 16.1559323,1.39856031 16.02763,1.53744723 C15.8993276,1.67633415 15.831359,1.85284979 15.8237219,2.06699945 L17.1869274,2.06699945 Z M19.4152527,1.01953351 L19.8711819,1.01953351 C19.8131404,1.17936986 19.6840763,1.54403953 19.4839858,2.11355349 C19.3342997,2.54185282 19.2090541,2.89100464 19.1082451,3.16101943 C18.8699694,3.79726118 18.7019569,4.18520765 18.6042028,4.32487047 C18.5064486,4.4645333 18.3384362,4.53436366 18.1001604,4.53436366 C18.0421189,4.53436366 17.9974429,4.53203598 17.966131,4.52738055 C17.9348191,4.52272513 17.8962526,4.5141903 17.8504304,4.50177583 L17.8504304,4.12003269 C17.9222186,4.14020621 17.9741497,4.15262049 18.0062253,4.15727592 C18.0383008,4.16193135 18.0665575,4.16425903 18.090996,4.16425903 C18.1673665,4.16425903 18.2234979,4.1514568 18.259392,4.12585194 C18.2952861,4.10024709 18.325452,4.06882343 18.3498905,4.03158001 C18.3575275,4.01916554 18.3850205,3.95554232 18.4323702,3.84070844 C18.4797198,3.72587456 18.514086,3.64052634 18.5354697,3.58466121 L17.6281935,1.01953351 L18.0955782,1.01953351 L18.7531244,3.04928973 L19.4152527,1.01953351 Z"/>
  </defs>
  <g fill="none" fill-rule="evenodd" transform="translate(4 9)">
    <rect width="24.005" height="14.67" fill="url(#jcpenney-platinum-a)" rx="2"/>
    <g transform="translate(2 4.801)">
      <use fill="#FFF" xlink:href="#jcpenney-platinum-b"/>
    </g>
  </g>
</svg>
