<svg xmlns="http://www.w3.org/2000/svg" xmlns:xlink="http://www.w3.org/1999/xlink" width="32" height="32" viewBox="0 0 32 32">
  <defs>
    <path id="camera-a" d="M22.1,3.68181818 L18.5,3.68181818 C18.0532,3.68181818 17.4947,3.31793182 17.3398,2.88930682 L16.875,1.60210227 C16.546,0.691363636 15.5495,0 14.6,0 L9.2,0 C8.2368,0 7.2852,0.715090909 7.0007,1.65620455 L6.6255,2.89810227 C6.4972,3.322125 6.0338,3.68181818 5.6,3.68181818 L1.8,3.68181818 C0.7656,3.68181818 0,4.56719318 0,5.625 L0,16.0568182 C0,17.114625 0.7656,18 1.8,18 L22.1,18 C23.1343,18 24,17.114625 24,16.0568182 L24,5.625 C24,4.56719318 23.1343,3.68181818 22.1,3.68181818 L22.1,3.68181818 Z M12,15.5454545 C9.1281,15.5454545 6.8,13.1644432 6.8,10.2272727 C6.8,7.29010227 9.1281,4.90909091 12,4.90909091 C14.8719,4.90909091 17.2,7.29010227 17.2,10.2272727 C17.2,13.1644432 14.8719,15.5454545 12,15.5454545 Z M12,6.13636364 C9.7944,6.13636364 8,7.97154545 8,10.2272727 C8,12.483 9.7944,14.3181818 12,14.3181818 C14.2056,14.3181818 16,12.483 16,10.2272727 C16,7.97154545 14.2056,6.13636364 12,6.13636364 Z"/>
  </defs>
  <g fill="none" fill-rule="evenodd" transform="translate(4 7)">
    <use fill="#384048" xlink:href="#camera-a"/>
  </g>
</svg>
