<svg xmlns="http://www.w3.org/2000/svg" xmlns:xlink="http://www.w3.org/1999/xlink" width="32" height="32" viewBox="0 0 32 32">
    <defs>
        <path id="a" d="M12 24C5.373 24 0 18.627 0 12S5.373 0 12 0s12 5.373 12 12-5.373 12-12 12zm-6.94-4.007c.049-.529.403-.993.966-1.265l3.211-1.558c.743-.36 1.217-1.071 1.217-1.858v-.983l-.31-.176C8.79 13.383 7.89 11.709 7.89 9.82c0-2.654 1.755-4.765 3.86-4.765 2.104 0 3.86 2.111 3.86 4.765 0 1.829-.844 3.46-2.134 4.261l-.29.18v1.081c0 .817.503 1.541 1.288 1.89l3.439 1.53c.571.254.939.717 1.016 1.24A10.544 10.544 0 0 1 12 22.585c-2.655 0-5.081-.977-6.94-2.592zm-.968-.956A10.545 10.545 0 0 1 1.415 12C1.415 6.154 6.155 1.415 12 1.415c5.846 0 10.585 4.74 10.585 10.585 0 2.704-1.014 5.171-2.682 7.042-.295-.603-.816-1.103-1.491-1.403l-3.44-1.529c-.354-.157-.558-.452-.558-.768v-.412c1.494-1.08 2.424-3.003 2.424-5.11 0-3.287-2.25-5.993-5.088-5.993S6.66 6.533 6.66 9.82c0 2.176.992 4.152 2.565 5.208v.284c0 .302-.193.592-.525.753L5.49 17.622a2.982 2.982 0 0 0-1.398 1.415z"/>
    </defs>
    <g fill="none" fill-rule="evenodd" transform="translate(4 4)">
        <mask id="b" fill="#fff">
            <use xlink:href="#a"/>
        </mask>
        <use fill="#111" xlink:href="#a"/>
        <g fill="#111" mask="url(#b)">
            <path d="M-4-4h32v32H-4z"/>
        </g>
    </g>
</svg>
