<svg xmlns="http://www.w3.org/2000/svg" xmlns:xlink="http://www.w3.org/1999/xlink" width="32" height="32" viewBox="0 0 32 32">
    <defs>
        <path id="a" d="M27.996 11.531c0 .287-.097.53-.291.73a.95.95 0 0 1-.709.302.95.95 0 0 1-.708-.301l-1.5-1.547-10.123 10.484a.95.95 0 0 1-.708.301.95.95 0 0 1-.708-.3l-.959-.99a1.01 1.01 0 0 1-.291-.73c0-.286.097-.53.291-.73L22.455 8.309l-1.5-1.547a1.01 1.01 0 0 1-.29-.73c0-.287.096-.53.29-.731.195-.2.431-.301.709-.301h5.332c.278 0 .514.1.709.3.194.201.291.445.291.731v5.5zm-7.04 5.114c.194-.23.43-.337.708-.323.278.015.514.115.708.301.195.186.292.437.292.752v7.563c0 .572-.195 1.06-.583 1.46a1.9 1.9 0 0 1-1.417.602H6a1.9 1.9 0 0 1-1.417-.602A2.021 2.021 0 0 1 4 24.938V9.813c0-.573.194-1.06.583-1.461A1.9 1.9 0 0 1 6 7.75H18.33c.278 0 .514.1.708.3.195.201.292.445.292.731 0 .287-.097.53-.292.73l-.666.688a.95.95 0 0 1-.708.301H6.666v13.75h13.331v-6.188c0-.286.098-.53.292-.73l.667-.687z"/>
    </defs>
    <g fill="none" fill-rule="evenodd">
        <mask id="b" fill="#fff">
            <use xlink:href="#a"/>
        </mask>
        <use fill="#111" xlink:href="#a"/>
        <g fill="#384048" mask="url(#b)">
            <path d="M0 0h32v32H0z"/>
        </g>
    </g>
</svg>
