<svg xmlns="http://www.w3.org/2000/svg" xmlns:xlink="http://www.w3.org/1999/xlink" width="32" height="32" viewBox="0 0 32 32">
    <defs>
        <path id="a" d="M6 10.42V7.56h12.52l-5.19-5.084a1.01 1.01 0 0 1 0-1.45L14.07.3c.41-.4 1.072-.4 1.481 0l8.142 7.977c.41.4.41 1.05 0 1.45l-.74.726c-.05.049-.103.091-.16.128L15.527 17.7c-.409.4-1.071.4-1.48 0l-.74-.726a1.01 1.01 0 0 1 0-1.45l5.21-5.104H6zm3.143 7.018c0 .156-.056.289-.167.398a.556.556 0 0 1-.405.164h-4c-1.27 0-2.349-.437-3.238-1.312C.444 15.813 0 14.75 0 13.5v-9c0-1.25.444-2.312 1.333-3.187C2.223.438 3.302 0 4.571 0h4c.16 0 .294.055.405.164.111.11.167.242.167.399v1.875c0 .156-.056.289-.167.398A.556.556 0 0 1 8.571 3h-4c-.412 0-.77.148-1.071.445A1.43 1.43 0 0 0 3.048 4.5v9c0 .406.15.758.452 1.055.302.297.659.445 1.071.445h4c.16 0 .294.055.405.164.111.11.167.242.167.399v1.875z"/>
    </defs>
    <g fill="none" fill-rule="evenodd" transform="translate(4 7)">
        <mask id="b" fill="#fff">
            <use xlink:href="#a"/>
        </mask>
        <use fill="#384048" xlink:href="#a"/>
        <g fill="#384048" mask="url(#b)">
            <path d="M-4-7h32v32H-4z"/>
        </g>
    </g>
</svg>
