<?xml version="1.0" encoding="utf-8"?>
<svg version="1.1" id="icon_x2F_Utility_x2F_Media_x2F_camera-Layer_1"
	 xmlns="http://www.w3.org/2000/svg" xmlns:xlink="http://www.w3.org/1999/xlink" x="0px" y="0px" viewBox="0 0 48 48"
	 style="enable-background:new 0 0 48 48;" xml:space="preserve">
<path id="icon_x2F_Utility_x2F_Media_x2F_camera-path-1_1_" style="fill:#111111;" d="M35.8,18.1h-4.2c-0.5,0-1.2-0.4-1.4-0.9
	l-0.5-1.4c-0.4-1-1.6-1.8-2.7-1.8h-6.3c-1.1,0-2.2,0.8-2.5,1.8l-0.5,1.4c-0.1,0.5-0.7,0.9-1.2,0.9h-4.4c-1.2,0-2.1,1-2.1,2.2v11.6
	c0,1.1,0.9,2.1,2.1,2.1h23.7c1.2,0,2.2-1,2.2-2.2V20.3C38,19.1,37,18.1,35.8,18.1z M24,31.3c-3.4,0-6.1-2.6-6.1-5.9s2.7-5.9,6.1-5.9
	s6.1,2.6,6.1,5.9S27.4,31.3,24,31.3z M24,20.8c-2.6,0-4.7,2-4.7,4.5s2.1,4.5,4.7,4.5s4.7-2,4.7-4.5S26.6,20.8,24,20.8z"/>
</svg>
