<?xml version="1.0" encoding="utf-8"?>
<!-- Generator: Adobe Illustrator 21.0.2, SVG Export Plug-In . SVG Version: 6.00 Build 0)  -->
<svg version="1.1" id="icon_x2F_Utility_x2F_Media_x2F_camera-Layer_1" xmlns="http://www.w3.org/2000/svg" xmlns:xlink="http://www.w3.org/1999/xlink" x="0px" y="0px"
	 viewBox="0 0 48 48" style="enable-background:new 0 0 48 48;" xml:space="preserve">
<title>icon/Utility/Media/camera</title>
<desc>Created with Sketch.</desc>
<g id="icon_x2F_Utility_x2F_Media_x2F_camera-Symbols">
	<g id="icon_x2F_Utility_x2F_Media_x2F_camera">
		<g id="icon_x2F_Utility_x2F_Media_x2F_camera-Icon" transform="translate(10.000000, 14.000000)">
			<g id="icon_x2F_Utility_x2F_Media_x2F_camera-Mask">
				<path id="icon_x2F_Utility_x2F_Media_x2F_camera-path-1_1_" style="fill:#384048;" d="M25.8,4.1h-4.2c-0.5,0-1.2-0.4-1.4-0.9l-0.5-1.4C19.3,0.8,18.1,0,17,0h-6.3
					C9.6,0,8.5,0.8,8.2,1.8L7.7,3.2C7.6,3.7,7,4.1,6.5,4.1H2.1C0.9,4.1,0,5.1,0,6.3v11.6C0,19,0.9,20,2.1,20h23.7
					c1.2,0,2.2-1,2.2-2.2V6.3C28,5.1,27,4.1,25.8,4.1L25.8,4.1z M14,17.3c-3.4,0-6.1-2.6-6.1-5.9s2.7-5.9,6.1-5.9s6.1,2.6,6.1,5.9
					S17.4,17.3,14,17.3z M14,6.8c-2.6,0-4.7,2-4.7,4.5s2.1,4.5,4.7,4.5s4.7-2,4.7-4.5S16.6,6.8,14,6.8z"/>
			</g>
			<defs>
				<filter id="icon_x2F_Utility_x2F_Media_x2F_camera-Adobe_OpacityMaskFilter" filterUnits="userSpaceOnUse" x="-10" y="-14" width="48" height="48">
					<feColorMatrix  type="matrix" values="1 0 0 0 0  0 1 0 0 0  0 0 1 0 0  0 0 0 1 0"/>
				</filter>
			</defs>
			<mask maskUnits="userSpaceOnUse" x="-10" y="-14" width="48" height="48" id="icon_x2F_Utility_x2F_Media_x2F_camera-mask-2">
				<g style="filter:url(#icon_x2F_Utility_x2F_Media_x2F_camera-Adobe_OpacityMaskFilter);">
					<path id="icon_x2F_Utility_x2F_Media_x2F_camera-path-1" style="fill:#FFFFFF;" d="M25.8,4.1h-4.2c-0.5,0-1.2-0.4-1.4-0.9l-0.5-1.4C19.3,0.8,18.1,0,17,0h-6.3
						C9.6,0,8.5,0.8,8.2,1.8L7.7,3.2C7.6,3.7,7,4.1,6.5,4.1H2.1C0.9,4.1,0,5.1,0,6.3v11.6C0,19,0.9,20,2.1,20h23.7
						c1.2,0,2.2-1,2.2-2.2V6.3C28,5.1,27,4.1,25.8,4.1L25.8,4.1z M14,17.3c-3.4,0-6.1-2.6-6.1-5.9s2.7-5.9,6.1-5.9s6.1,2.6,6.1,5.9
						S17.4,17.3,14,17.3z M14,6.8c-2.6,0-4.7,2-4.7,4.5s2.1,4.5,4.7,4.5s4.7-2,4.7-4.5S16.6,6.8,14,6.8z"/>
				</g>
			</mask>
			<g id="icon_x2F_Utility_x2F_Media_x2F_camera-Color_x2F_Grayscale_x2F_Night-Sky" style="mask:url(#icon_x2F_Utility_x2F_Media_x2F_camera-mask-2);">
				<g id="icon_x2F_Utility_x2F_Media_x2F_camera-Swatch" transform="translate(-10.000000, -14.000000)">
					<rect style="fill:#111111;" width="48" height="48"/>
				</g>
			</g>
		</g>
	</g>
</g>
</svg>
