<svg id="icon_x2F_Utility_x2F_Media_x2F_play-Layer_1" xmlns="http://www.w3.org/2000/svg" viewBox="0 0 48 48" enable-background="new 0 0 48 48"><title>icon/Utility/Media/play</title><g id="icon_x2F_Utility_x2F_Media_x2F_play-Symbols"><g id="icon_x2F_Utility_x2F_Media_x2F_play"><g id="icon_x2F_Utility_x2F_Media_x2F_play-Icon" transform="translate(16 12)"><g id="icon_x2F_Utility_x2F_Media_x2F_play-Mask"><path id="icon_x2F_Utility_x2F_Media_x2F_play-path-1_1_" d="M15.6 11L1.6.2C1.3 0 .9-.1.5.1.2.3 0 .7 0 1.2l.1 21.7c0 .4.2.8.5 1 .1.1.3.1.5.1s.4-.1.6-.2l13.9-10.9c.3-.2.4-.6.4-1 0-.3-.2-.7-.4-.9" fill="#384048"/></g><defs><filter id="icon_x2F_Utility_x2F_Media_x2F_play-Adobe_OpacityMaskFilter" filterUnits="userSpaceOnUse" x="-16" y="-12" width="48" height="48"><feColorMatrix values="1 0 0 0 0 0 1 0 0 0 0 0 1 0 0 0 0 0 1 0"/></filter></defs><mask maskUnits="userSpaceOnUse" x="-16" y="-12" width="48" height="48" id="icon_x2F_Utility_x2F_Media_x2F_play-mask-2"><g filter="url(#icon_x2F_Utility_x2F_Media_x2F_play-Adobe_OpacityMaskFilter)"><path id="icon_x2F_Utility_x2F_Media_x2F_play-path-1" d="M15.6 11L1.6.2C1.3 0 .9-.1.5.1.2.3 0 .7 0 1.2l.1 21.7c0 .4.2.8.5 1 .1.1.3.1.5.1s.4-.1.6-.2l13.9-10.9c.3-.2.4-.6.4-1 0-.3-.2-.7-.4-.9" fill="#fff"/></g></mask><g id="icon_x2F_Utility_x2F_Media_x2F_play-Color_x2F_Grayscale_x2F_Night-Sky" mask="url(#icon_x2F_Utility_x2F_Media_x2F_play-mask-2)"><path fill="#111" d="M0 0h48v48H0z" transform="translate(-16 -12)" id="icon_x2F_Utility_x2F_Media_x2F_play-Swatch"/></g></g></g></g></svg>