<?xml version="1.0" encoding="utf-8"?>
<!-- Generator: Adobe Illustrator 21.0.2, SVG Export Plug-In . SVG Version: 6.00 Build 0)  -->
<svg version="1.1" id="icon_x2F_Utility_x2F_Media_x2F_video-Layer_1" xmlns="http://www.w3.org/2000/svg" xmlns:xlink="http://www.w3.org/1999/xlink" x="0px" y="0px"
	 viewBox="0 0 48 48" style="enable-background:new 0 0 48 48;" xml:space="preserve">
<title>icon/Utility/Media/video</title>
<desc>Created with Sketch.</desc>
<g id="icon_x2F_Utility_x2F_Media_x2F_video-Symbols">
	<g id="icon_x2F_Utility_x2F_Media_x2F_video">
		<g id="icon_x2F_Utility_x2F_Media_x2F_video-Icon" transform="translate(10.000000, 14.000000)">
			<g id="icon_x2F_Utility_x2F_Media_x2F_video-Mask">
				<path id="icon_x2F_Utility_x2F_Media_x2F_video-path-1_1_" style="fill:#384048;" d="M27.3,0.1c-0.4-0.2-1-0.1-1.3,0.2l-7.1,6.2V2.4c0-0.8-0.6-1.4-1.4-1.4H1.4
					C0.6,1,0,1.6,0,2.4v15.2C0,18.4,0.6,19,1.4,19h16.1c0.8,0,1.4-0.6,1.4-1.4v-4.1l7.1,6.2c0.2,0.2,0.5,0.3,0.8,0.3
					c0.2,0,0.3,0,0.5-0.1c0.4-0.2,0.7-0.6,0.7-1.1V1.2C28,0.7,27.7,0.3,27.3,0.1"/>
			</g>
			<defs>
				<filter id="icon_x2F_Utility_x2F_Media_x2F_video-Adobe_OpacityMaskFilter" filterUnits="userSpaceOnUse" x="-10" y="-14" width="48" height="48">
					<feColorMatrix  type="matrix" values="1 0 0 0 0  0 1 0 0 0  0 0 1 0 0  0 0 0 1 0"/>
				</filter>
			</defs>
			<mask maskUnits="userSpaceOnUse" x="-10" y="-14" width="48" height="48" id="icon_x2F_Utility_x2F_Media_x2F_video-mask-2">
				<g style="filter:url(#icon_x2F_Utility_x2F_Media_x2F_video-Adobe_OpacityMaskFilter);">
					<path id="icon_x2F_Utility_x2F_Media_x2F_video-path-1" style="fill:#FFFFFF;" d="M27.3,0.1c-0.4-0.2-1-0.1-1.3,0.2l-7.1,6.2V2.4c0-0.8-0.6-1.4-1.4-1.4H1.4
						C0.6,1,0,1.6,0,2.4v15.2C0,18.4,0.6,19,1.4,19h16.1c0.8,0,1.4-0.6,1.4-1.4v-4.1l7.1,6.2c0.2,0.2,0.5,0.3,0.8,0.3
						c0.2,0,0.3,0,0.5-0.1c0.4-0.2,0.7-0.6,0.7-1.1V1.2C28,0.7,27.7,0.3,27.3,0.1"/>
				</g>
			</mask>
			<g id="icon_x2F_Utility_x2F_Media_x2F_video-Color_x2F_Grayscale_x2F_Night-Sky" style="mask:url(#icon_x2F_Utility_x2F_Media_x2F_video-mask-2);">
				<g id="icon_x2F_Utility_x2F_Media_x2F_video-Swatch" transform="translate(-10.000000, -14.000000)">
					<rect style="fill:#111111;" width="48" height="48"/>
				</g>
			</g>
		</g>
	</g>
</g>
</svg>
