<?xml version="1.0" encoding="utf-8"?>
<svg version="1.1" id="icon_x2F_Utility_x2F_Media_x2F_video-Layer_1"
	 xmlns="http://www.w3.org/2000/svg" xmlns:xlink="http://www.w3.org/1999/xlink" x="0px" y="0px" viewBox="0 0 48 48"
	 style="enable-background:new 0 0 48 48;" xml:space="preserve">
<path id="icon_x2F_Utility_x2F_Media_x2F_video-path-1_1_" style="fill:#111111;" d="M37.3,14.1c-0.4-0.2-1-0.1-1.3,0.2l-7.1,6.2
	v-4.1c0-0.8-0.6-1.4-1.4-1.4H11.4c-0.8,0-1.4,0.6-1.4,1.4v15.2c0,0.8,0.6,1.4,1.4,1.4h16.1c0.8,0,1.4-0.6,1.4-1.4v-4.1l7.1,6.2
	c0.2,0.2,0.5,0.3,0.8,0.3c0.2,0,0.3,0,0.5-0.1c0.4-0.2,0.7-0.6,0.7-1.1V15.2C38,14.7,37.7,14.3,37.3,14.1"/>
</svg>
