<svg xmlns="http://www.w3.org/2000/svg" xmlns:xlink="http://www.w3.org/1999/xlink" width="32" height="32" viewBox="0 0 32 32" aria-labaria-lelledby="title-024">
  <defs>
    <path id="video-a" d="M23.3798,0.0960168225 C23.0026,-0.0806479996 22.561,-0.00968989034 22.252,0.277273052 L16.2,5.89924231 L16.2,2.16517616 C16.2,1.47364764 15.6627,0.912974231 15,0.912974231 L1.2,0.912974231 C0.5373,0.912974231 0,1.47364764 0,2.16517616 L0,15.8350472 C0,16.5266801 0.5373,17.0872491 1.2,17.0872491 L15,17.0872491 C15.6627,17.0872491 16.2,16.5266801 16.2,15.8350472 L16.2,12.1008767 L22.252,17.7227416 C22.4481,17.904937 22.6977,18 22.9502,18 C23.0956,18 23.242,17.9684863 23.3798,17.9039979 C23.757,17.727333 24,17.3359156 24,16.9043233 L24,1.09569136 C24,0.664099097 23.757,0.272681645 23.3798,0.0960168225"/>
  </defs>
  <title id="title-024" lang="en">multi media video</title>
  <g fill="none" fill-rule="evenodd" transform="translate(4 7)">
    <use fill="#384048" xlink:href="#video-a"/>
  </g>
</svg>
