<svg id="icon_x2F_Utility_x2F_Media_x2F_camera-Layer_1" xmlns="http://www.w3.org/2000/svg" viewBox="0 0 48 48" enable-background="new 0 0 48 48"><title>icon/Utility/Media/camera</title><g id="icon_x2F_Utility_x2F_Media_x2F_camera-Symbols"><g id="icon_x2F_Utility_x2F_Media_x2F_camera"><g id="icon_x2F_Utility_x2F_Media_x2F_camera-Icon" transform="translate(10 14)"><g id="icon_x2F_Utility_x2F_Media_x2F_camera-Mask"><path id="icon_x2F_Utility_x2F_Media_x2F_camera-path-1_1_" d="M25.8 4.1h-4.2c-.5 0-1.2-.4-1.4-.9l-.5-1.4C19.3.8 18.1 0 17 0h-6.3C9.6 0 8.5.8 8.2 1.8l-.5 1.4c-.1.5-.7.9-1.2.9H2.1C.9 4.1 0 5.1 0 6.3v11.6C0 19 .9 20 2.1 20h23.7c1.2 0 2.2-1 2.2-2.2V6.3c0-1.2-1-2.2-2.2-2.2zM14 17.3c-3.4 0-6.1-2.6-6.1-5.9s2.7-5.9 6.1-5.9 6.1 2.6 6.1 5.9-2.7 5.9-6.1 5.9zm0-10.5c-2.6 0-4.7 2-4.7 4.5s2.1 4.5 4.7 4.5 4.7-2 4.7-4.5-2.1-4.5-4.7-4.5z" fill="#384048"/></g><defs><filter id="icon_x2F_Utility_x2F_Media_x2F_camera-Adobe_OpacityMaskFilter" filterUnits="userSpaceOnUse" x="-10" y="-14" width="48" height="48"><feColorMatrix values="1 0 0 0 0 0 1 0 0 0 0 0 1 0 0 0 0 0 1 0"/></filter></defs><mask maskUnits="userSpaceOnUse" x="-10" y="-14" width="48" height="48" id="icon_x2F_Utility_x2F_Media_x2F_camera-mask-2"><g filter="url(#icon_x2F_Utility_x2F_Media_x2F_camera-Adobe_OpacityMaskFilter)"><path id="icon_x2F_Utility_x2F_Media_x2F_camera-path-1" d="M25.8 4.1h-4.2c-.5 0-1.2-.4-1.4-.9l-.5-1.4C19.3.8 18.1 0 17 0h-6.3C9.6 0 8.5.8 8.2 1.8l-.5 1.4c-.1.5-.7.9-1.2.9H2.1C.9 4.1 0 5.1 0 6.3v11.6C0 19 .9 20 2.1 20h23.7c1.2 0 2.2-1 2.2-2.2V6.3c0-1.2-1-2.2-2.2-2.2zM14 17.3c-3.4 0-6.1-2.6-6.1-5.9s2.7-5.9 6.1-5.9 6.1 2.6 6.1 5.9-2.7 5.9-6.1 5.9zm0-10.5c-2.6 0-4.7 2-4.7 4.5s2.1 4.5 4.7 4.5 4.7-2 4.7-4.5-2.1-4.5-4.7-4.5z" fill="#fff"/></g></mask><g id="icon_x2F_Utility_x2F_Media_x2F_camera-Color_x2F_Grayscale_x2F_Night-Sky" mask="url(#icon_x2F_Utility_x2F_Media_x2F_camera-mask-2)"><path fill="#111" d="M0 0h48v48H0z" transform="translate(-10 -14)" id="icon_x2F_Utility_x2F_Media_x2F_camera-Swatch"/></g></g></g></g></svg>