<?xml version="1.0" encoding="utf-8"?>
<!-- Generator: Adobe Illustrator 21.0.2, SVG Export Plug-In . SVG Version: 6.00 Build 0)  -->
<svg version="1.1" id="icon_x2F_Utility_x2F_Media_x2F_play-Layer_1" xmlns="http://www.w3.org/2000/svg" xmlns:xlink="http://www.w3.org/1999/xlink" x="0px" y="0px"
	 viewBox="0 0 48 48" style="enable-background:new 0 0 48 48;" xml:space="preserve">
<title>icon/Utility/Media/play</title>
<desc>Created with Sketch.</desc>
<g id="icon_x2F_Utility_x2F_Media_x2F_play-Symbols">
	<g id="icon_x2F_Utility_x2F_Media_x2F_play">
		<g id="icon_x2F_Utility_x2F_Media_x2F_play-Icon" transform="translate(16.000000, 12.000000)">
			<g id="icon_x2F_Utility_x2F_Media_x2F_play-Mask">
				<path id="icon_x2F_Utility_x2F_Media_x2F_play-path-1_1_" style="fill:#384048;" d="M15.6,11L1.6,0.2C1.3,0,0.9-0.1,0.5,0.1C0.2,0.3,0,0.7,0,1.2l0.1,21.7
					c0,0.4,0.2,0.8,0.5,1C0.7,24,0.9,24,1.1,24c0.2,0,0.4-0.1,0.6-0.2l13.9-10.9c0.3-0.2,0.4-0.6,0.4-1C16,11.6,15.8,11.2,15.6,11"
					/>
			</g>
			<defs>
				<filter id="icon_x2F_Utility_x2F_Media_x2F_play-Adobe_OpacityMaskFilter" filterUnits="userSpaceOnUse" x="-16" y="-12" width="48" height="48">
					<feColorMatrix  type="matrix" values="1 0 0 0 0  0 1 0 0 0  0 0 1 0 0  0 0 0 1 0"/>
				</filter>
			</defs>
			<mask maskUnits="userSpaceOnUse" x="-16" y="-12" width="48" height="48" id="icon_x2F_Utility_x2F_Media_x2F_play-mask-2">
				<g style="filter:url(#icon_x2F_Utility_x2F_Media_x2F_play-Adobe_OpacityMaskFilter);">
					<path id="icon_x2F_Utility_x2F_Media_x2F_play-path-1" style="fill:#FFFFFF;" d="M15.6,11L1.6,0.2C1.3,0,0.9-0.1,0.5,0.1C0.2,0.3,0,0.7,0,1.2l0.1,21.7
						c0,0.4,0.2,0.8,0.5,1C0.7,24,0.9,24,1.1,24c0.2,0,0.4-0.1,0.6-0.2l13.9-10.9c0.3-0.2,0.4-0.6,0.4-1C16,11.6,15.8,11.2,15.6,11"
						/>
				</g>
			</mask>
			<g id="icon_x2F_Utility_x2F_Media_x2F_play-Color_x2F_Grayscale_x2F_Night-Sky" style="mask:url(#icon_x2F_Utility_x2F_Media_x2F_play-mask-2);">
				<g id="icon_x2F_Utility_x2F_Media_x2F_play-Swatch" transform="translate(-16.000000, -12.000000)">
					<rect style="fill:#111111;" width="48" height="48"/>
				</g>
			</g>
		</g>
	</g>
</g>
</svg>
