<svg id="icon_x2F_Utility_x2F_Media_x2F_video-Layer_1" xmlns="http://www.w3.org/2000/svg" viewBox="0 0 48 48" enable-background="new 0 0 48 48"><title>icon/Utility/Media/video</title><g id="icon_x2F_Utility_x2F_Media_x2F_video-Symbols"><g id="icon_x2F_Utility_x2F_Media_x2F_video"><g id="icon_x2F_Utility_x2F_Media_x2F_video-Icon" transform="translate(10 14)"><g id="icon_x2F_Utility_x2F_Media_x2F_video-Mask"><path id="icon_x2F_Utility_x2F_Media_x2F_video-path-1_1_" d="M27.3.1c-.4-.2-1-.1-1.3.2l-7.1 6.2V2.4c0-.8-.6-1.4-1.4-1.4H1.4C.6 1 0 1.6 0 2.4v15.2c0 .8.6 1.4 1.4 1.4h16.1c.8 0 1.4-.6 1.4-1.4v-4.1l7.1 6.2c.2.2.5.3.8.3.2 0 .3 0 .5-.1.4-.2.7-.6.7-1.1V1.2c0-.5-.3-.9-.7-1.1" fill="#384048"/></g><defs><filter id="icon_x2F_Utility_x2F_Media_x2F_video-Adobe_OpacityMaskFilter" filterUnits="userSpaceOnUse" x="-10" y="-14" width="48" height="48"><feColorMatrix values="1 0 0 0 0 0 1 0 0 0 0 0 1 0 0 0 0 0 1 0"/></filter></defs><mask maskUnits="userSpaceOnUse" x="-10" y="-14" width="48" height="48" id="icon_x2F_Utility_x2F_Media_x2F_video-mask-2"><g filter="url(#icon_x2F_Utility_x2F_Media_x2F_video-Adobe_OpacityMaskFilter)"><path id="icon_x2F_Utility_x2F_Media_x2F_video-path-1" d="M27.3.1c-.4-.2-1-.1-1.3.2l-7.1 6.2V2.4c0-.8-.6-1.4-1.4-1.4H1.4C.6 1 0 1.6 0 2.4v15.2c0 .8.6 1.4 1.4 1.4h16.1c.8 0 1.4-.6 1.4-1.4v-4.1l7.1 6.2c.2.2.5.3.8.3.2 0 .3 0 .5-.1.4-.2.7-.6.7-1.1V1.2c0-.5-.3-.9-.7-1.1" fill="#fff"/></g></mask><g id="icon_x2F_Utility_x2F_Media_x2F_video-Color_x2F_Grayscale_x2F_Night-Sky" mask="url(#icon_x2F_Utility_x2F_Media_x2F_video-mask-2)"><path fill="#111" d="M0 0h48v48H0z" transform="translate(-10 -14)" id="icon_x2F_Utility_x2F_Media_x2F_video-Swatch"/></g></g></g></g></svg>