<svg xmlns="http://www.w3.org/2000/svg" xmlns:xlink="http://www.w3.org/1999/xlink" width="32" height="32" viewBox="0 0 32 32" aria-labaria-lelledby="title-01">
  <defs>
    <path id="blog-line-a" d="M12,0 C18.6274615,0 24,5.37253846 24,12 C24,18.6274615 18.6274615,24 12,24 C5.37253846,24 0,18.6274615 0,12 C0,5.37253846 5.37253846,0 12,0 Z M12,22.6153846 C17.8533462,22.6153846 22.6153846,17.8533462 22.6153846,12 C22.6153846,6.14665385 17.8533462,1.38461538 12,1.38461538 C6.14665385,1.38461538 1.38461538,6.14665385 1.38461538,12 C1.38461538,17.8533462 6.14665385,22.6153846 12,22.6153846 Z M10.978022,6.17142857 C15.0112912,6.17142857 18.2925989,9.45285165 18.2927143,13.4861209 C18.2927143,13.8683901 17.9826758,14.1784286 17.6004066,14.1784286 C17.2181374,14.1784286 16.9080989,13.8683901 16.9080989,13.4861209 C16.9080989,10.2162363 14.2479066,7.55604396 10.978022,7.55604396 C10.5957527,7.55604396 10.2857143,7.24600549 10.2857143,6.86373626 C10.2857143,6.48146703 10.5957527,6.17142857 10.978022,6.17142857 Z M10.978022,9.6 C13.1458681,9.6 14.909522,11.3636538 14.909522,13.5315 C14.909522,13.9137692 14.5994835,14.2238077 14.2172143,14.2238077 C13.8349451,14.2238077 13.5249066,13.9137692 13.5249066,13.5315 C13.5249066,12.1271538 12.3823681,10.9846154 10.978022,10.9846154 C10.5957527,10.9846154 10.2857143,10.6745769 10.2857143,10.2923077 C10.2857143,9.91003846 10.5957527,9.6 10.978022,9.6 Z M9.99502747,11.9690934 C11.7252198,11.9690934 13.1326813,13.3766703 13.1326813,15.1067473 C13.1326813,16.8368242 11.7252198,18.2444011 9.99502747,18.2444011 C8.26483516,18.2444011 6.85714286,16.8368242 6.85714286,15.1067473 L6.85714286,9.60659341 C6.85714286,9.22432418 7.16718132,8.91428571 7.54945055,8.91428571 C7.93171978,8.91428571 8.24175824,9.22432418 8.24175824,9.60659341 L8.24175824,15.1067473 C8.24175824,16.0734396 9.02833516,16.8597857 9.99502747,16.8597857 C10.9616044,16.8597857 11.7480659,16.0734396 11.7480659,15.1067473 C11.7480659,14.1400549 10.9616044,13.3537088 9.99502747,13.3537088 C9.61275824,13.3537088 9.30271978,13.0436703 9.30271978,12.6614011 C9.30271978,12.2791319 9.61275824,11.9690934 9.99502747,11.9690934 Z"/>
  </defs>
  <title id="title-01" lang="en">link to jcp blog</title>
  <g fill="none" fill-rule="evenodd" transform="translate(4 4)">
    <use fill="#384048" xlink:href="#blog-line-a"/>
  </g>
</svg>
