<svg id="icon_x2F_Social_x2F_blog-line-Layer_1" xmlns="http://www.w3.org/2000/svg" viewBox="0 0 48 48" enable-background="new 0 0 48 48"><title>icon/Social/blog-line</title><g id="icon_x2F_Social_x2F_blog-line-Symbols"><g id="icon_x2F_Social_x2F_blog-line"><g id="icon_x2F_Social_x2F_blog-line-Icon" transform="translate(8 8)"><g id="icon_x2F_Social_x2F_blog-line-Mask"><path id="icon_x2F_Social_x2F_blog-line-path-1_1_" d="M16 0c8.8 0 16 7.2 16 16s-7.2 16-16 16S0 24.8 0 16 7.2 0 16 0zm0 30.2c7.8 0 14.2-6.3 14.2-14.2S23.8 1.8 16 1.8 1.8 8.2 1.8 16 8.2 30.2 16 30.2zm-1.4-22c5.4 0 9.8 4.4 9.8 9.8 0 .5-.4.9-.9.9s-.9-.4-.9-.9c0-4.4-3.5-7.9-7.9-7.9-.5 0-.9-.4-.9-.9s.3-1 .8-1zm0 4.6c2.9 0 5.2 2.4 5.2 5.2 0 .5-.4.9-.9.9-.5.1-.9-.3-.9-.9 0-1.9-1.5-3.4-3.4-3.4-.5 0-.9-.4-.9-.9s.4-.9.9-.9zM13.3 16c2.3 0 4.2 1.9 4.2 4.2s-1.9 4.2-4.2 4.2-4.2-1.9-4.2-4.2v-7.3c0-.5.4-.9.9-.9s.9.4.9.9v7.3c0 1.3 1 2.3 2.3 2.3 1.3 0 2.3-1 2.3-2.3s-1-2.3-2.3-2.3c-.5 0-.9-.4-.9-.9.1-.6.5-1 1-1z" fill="#384048"/></g><defs><filter id="icon_x2F_Social_x2F_blog-line-Adobe_OpacityMaskFilter" filterUnits="userSpaceOnUse" x="-8" y="-8" width="48" height="48"><feColorMatrix values="1 0 0 0 0 0 1 0 0 0 0 0 1 0 0 0 0 0 1 0"/></filter></defs><mask maskUnits="userSpaceOnUse" x="-8" y="-8" width="48" height="48" id="icon_x2F_Social_x2F_blog-line-mask-2"><g filter="url(#icon_x2F_Social_x2F_blog-line-Adobe_OpacityMaskFilter)"><path id="icon_x2F_Social_x2F_blog-line-path-1" d="M16 0c8.8 0 16 7.2 16 16s-7.2 16-16 16S0 24.8 0 16 7.2 0 16 0zm0 30.2c7.8 0 14.2-6.3 14.2-14.2S23.8 1.8 16 1.8 1.8 8.2 1.8 16 8.2 30.2 16 30.2zm-1.4-22c5.4 0 9.8 4.4 9.8 9.8 0 .5-.4.9-.9.9s-.9-.4-.9-.9c0-4.4-3.5-7.9-7.9-7.9-.5 0-.9-.4-.9-.9s.3-1 .8-1zm0 4.6c2.9 0 5.2 2.4 5.2 5.2 0 .5-.4.9-.9.9-.5.1-.9-.3-.9-.9 0-1.9-1.5-3.4-3.4-3.4-.5 0-.9-.4-.9-.9s.4-.9.9-.9zM13.3 16c2.3 0 4.2 1.9 4.2 4.2s-1.9 4.2-4.2 4.2-4.2-1.9-4.2-4.2v-7.3c0-.5.4-.9.9-.9s.9.4.9.9v7.3c0 1.3 1 2.3 2.3 2.3 1.3 0 2.3-1 2.3-2.3s-1-2.3-2.3-2.3c-.5 0-.9-.4-.9-.9.1-.6.5-1 1-1z" fill="#fff"/></g></mask><g id="icon_x2F_Social_x2F_blog-line-Color_x2F_Grayscale_x2F_Night-Sky" mask="url(#icon_x2F_Social_x2F_blog-line-mask-2)"><path fill="#111" d="M0 0h48v48H0z" transform="translate(-8 -8)" id="icon_x2F_Social_x2F_blog-line-Swatch"/></g></g></g></g></svg>