<?xml version="1.0" encoding="utf-8"?>
<!-- Generator: Adobe Illustrator 21.0.2, SVG Export Plug-In . SVG Version: 6.00 Build 0)  -->
<svg version="1.1" id="icon_x2F_Social_x2F_blog-line-Layer_1" xmlns="http://www.w3.org/2000/svg" xmlns:xlink="http://www.w3.org/1999/xlink" x="0px" y="0px"
	 viewBox="0 0 48 48" style="enable-background:new 0 0 48 48;" xml:space="preserve">
<title>icon/Social/blog-line</title>
<desc>Created with Sketch.</desc>
<g id="icon_x2F_Social_x2F_blog-line-Symbols">
	<g id="icon_x2F_Social_x2F_blog-line">
		<g id="icon_x2F_Social_x2F_blog-line-Icon" transform="translate(8.000000, 8.000000)">
			<g id="icon_x2F_Social_x2F_blog-line-Mask">
				<path id="icon_x2F_Social_x2F_blog-line-path-1_1_" style="fill:#384048;" d="M16,0c8.8,0,16,7.2,16,16s-7.2,16-16,16S0,24.8,0,16S7.2,0,16,0z M16,30.2
					c7.8,0,14.2-6.3,14.2-14.2S23.8,1.8,16,1.8S1.8,8.2,1.8,16S8.2,30.2,16,30.2z M14.6,8.2c5.4,0,9.8,4.4,9.8,9.8
					c0,0.5-0.4,0.9-0.9,0.9s-0.9-0.4-0.9-0.9c0-4.4-3.5-7.9-7.9-7.9c-0.5,0-0.9-0.4-0.9-0.9S14.1,8.2,14.6,8.2z M14.6,12.8
					c2.9,0,5.2,2.4,5.2,5.2c0,0.5-0.4,0.9-0.9,0.9C18.4,19,18,18.6,18,18c0-1.9-1.5-3.4-3.4-3.4c-0.5,0-0.9-0.4-0.9-0.9
					S14.1,12.8,14.6,12.8z M13.3,16c2.3,0,4.2,1.9,4.2,4.2s-1.9,4.2-4.2,4.2s-4.2-1.9-4.2-4.2v-7.3c0-0.5,0.4-0.9,0.9-0.9
					s0.9,0.4,0.9,0.9v7.3c0,1.3,1,2.3,2.3,2.3c1.3,0,2.3-1,2.3-2.3s-1-2.3-2.3-2.3c-0.5,0-0.9-0.4-0.9-0.9
					C12.4,16.4,12.8,16,13.3,16z"/>
			</g>
			<defs>
				<filter id="icon_x2F_Social_x2F_blog-line-Adobe_OpacityMaskFilter" filterUnits="userSpaceOnUse" x="-8" y="-8" width="48" height="48">
					<feColorMatrix  type="matrix" values="1 0 0 0 0  0 1 0 0 0  0 0 1 0 0  0 0 0 1 0"/>
				</filter>
			</defs>
			<mask maskUnits="userSpaceOnUse" x="-8" y="-8" width="48" height="48" id="icon_x2F_Social_x2F_blog-line-mask-2">
				<g style="filter:url(#icon_x2F_Social_x2F_blog-line-Adobe_OpacityMaskFilter);">
					<path id="icon_x2F_Social_x2F_blog-line-path-1" style="fill:#FFFFFF;" d="M16,0c8.8,0,16,7.2,16,16s-7.2,16-16,16S0,24.8,0,16S7.2,0,16,0z M16,30.2
						c7.8,0,14.2-6.3,14.2-14.2S23.8,1.8,16,1.8S1.8,8.2,1.8,16S8.2,30.2,16,30.2z M14.6,8.2c5.4,0,9.8,4.4,9.8,9.8
						c0,0.5-0.4,0.9-0.9,0.9s-0.9-0.4-0.9-0.9c0-4.4-3.5-7.9-7.9-7.9c-0.5,0-0.9-0.4-0.9-0.9S14.1,8.2,14.6,8.2z M14.6,12.8
						c2.9,0,5.2,2.4,5.2,5.2c0,0.5-0.4,0.9-0.9,0.9C18.4,19,18,18.6,18,18c0-1.9-1.5-3.4-3.4-3.4c-0.5,0-0.9-0.4-0.9-0.9
						S14.1,12.8,14.6,12.8z M13.3,16c2.3,0,4.2,1.9,4.2,4.2s-1.9,4.2-4.2,4.2s-4.2-1.9-4.2-4.2v-7.3c0-0.5,0.4-0.9,0.9-0.9
						s0.9,0.4,0.9,0.9v7.3c0,1.3,1,2.3,2.3,2.3c1.3,0,2.3-1,2.3-2.3s-1-2.3-2.3-2.3c-0.5,0-0.9-0.4-0.9-0.9
						C12.4,16.4,12.8,16,13.3,16z"/>
				</g>
			</mask>
			<g id="icon_x2F_Social_x2F_blog-line-Color_x2F_Grayscale_x2F_Night-Sky" style="mask:url(#icon_x2F_Social_x2F_blog-line-mask-2);">
				<g id="icon_x2F_Social_x2F_blog-line-Swatch" transform="translate(-8.000000, -8.000000)">
					<rect style="fill:#111111;" width="48" height="48"/>
				</g>
			</g>
		</g>
	</g>
</g>
</svg>
