<svg xmlns="http://www.w3.org/2000/svg" xmlns:xlink="http://www.w3.org/1999/xlink" width="32" height="32" viewBox="0 0 32 32">
  <defs>
    <path id="facebook-fill-a" d="M12,0 C18.6274615,0 24,5.37253846 24,12 C24,18.6274615 18.6274615,24 12,24 C5.37253846,24 0,18.6274615 0,12 C0,5.37253846 5.37253846,0 12,0 Z M15.3556154,7.68369231 L15.3556154,5.62892308 C15.1450385,5.601 14.4230769,5.53846154 13.5829615,5.53846154 C11.8288846,5.53846154 10.6280769,6.60911538 10.6280769,8.57515385 L10.6280769,10.2694615 L8.64426923,10.2694615 L8.64426923,12.5667692 L10.6280769,12.5667692 L10.6280769,18.4615385 L13.0007308,18.4615385 L13.0007308,12.5667692 L14.9793462,12.5667692 L15.2754231,10.2694615 L13.0006154,10.2694615 L13.0006154,8.80269231 C13.0006154,8.1375 13.1852308,7.68426923 14.139,7.68426923 L15.3556154,7.68369231 Z"/>
  </defs>
  <g fill="none" fill-rule="evenodd" transform="translate(4 4)">
    <use fill="#384048" xlink:href="#facebook-fill-a"/>
  </g>
</svg>
