<?xml version="1.0" encoding="utf-8"?>
<!-- Generator: Adobe Illustrator 21.0.2, SVG Export Plug-In . SVG Version: 6.00 Build 0)  -->
<svg version="1.1" id="icon_x2F_Social_x2F_facebook-line-Layer_1" xmlns="http://www.w3.org/2000/svg" xmlns:xlink="http://www.w3.org/1999/xlink" x="0px" y="0px"
	 viewBox="0 0 48 48" style="enable-background:new 0 0 48 48;" xml:space="preserve">
<title>icon/Social/facebook-line</title>
<desc>Created with Sketch.</desc>
<g id="icon_x2F_Social_x2F_facebook-line-Symbols">
	<g id="icon_x2F_Social_x2F_facebook-line">
		<g id="icon_x2F_Social_x2F_facebook-line-Icon" transform="translate(8.000000, 8.000000)">
			<g id="icon_x2F_Social_x2F_facebook-line-Mask">
				<path id="icon_x2F_Social_x2F_facebook-line-path-1_1_" style="fill:#384048;" d="M16,1.8c7.8,0,14.2,6.3,14.2,14.2S23.8,30.2,16,30.2S1.8,23.8,1.8,16
					S8.2,1.8,16,1.8 M16,0c8.8,0,16,7.2,16,16s-7.2,16-16,16S0,24.8,0,16S7.2,0,16,0z M17.3,24.6v-7.9H20l0.4-3.1h-3v-2
					c0-0.9,0.2-1.5,1.5-1.5l1.6,0V7.5c-0.3,0-1.2-0.1-2.4-0.1c-2.3,0-3.9,1.4-3.9,4v2.3h-2.6v3.1h2.6v7.9H17.3z"/>
			</g>
			<defs>
				<filter id="icon_x2F_Social_x2F_facebook-line-Adobe_OpacityMaskFilter" filterUnits="userSpaceOnUse" x="-8" y="-8" width="48" height="48">
					<feColorMatrix  type="matrix" values="1 0 0 0 0  0 1 0 0 0  0 0 1 0 0  0 0 0 1 0"/>
				</filter>
			</defs>
			<mask maskUnits="userSpaceOnUse" x="-8" y="-8" width="48" height="48" id="icon_x2F_Social_x2F_facebook-line-mask-2">
				<g style="filter:url(#icon_x2F_Social_x2F_facebook-line-Adobe_OpacityMaskFilter);">
					<path id="icon_x2F_Social_x2F_facebook-line-path-1" style="fill:#FFFFFF;" d="M16,1.8c7.8,0,14.2,6.3,14.2,14.2S23.8,30.2,16,30.2S1.8,23.8,1.8,16
						S8.2,1.8,16,1.8 M16,0c8.8,0,16,7.2,16,16s-7.2,16-16,16S0,24.8,0,16S7.2,0,16,0z M17.3,24.6v-7.9H20l0.4-3.1h-3v-2
						c0-0.9,0.2-1.5,1.5-1.5l1.6,0V7.5c-0.3,0-1.2-0.1-2.4-0.1c-2.3,0-3.9,1.4-3.9,4v2.3h-2.6v3.1h2.6v7.9H17.3z"/>
				</g>
			</mask>
			<g id="icon_x2F_Social_x2F_facebook-line-Color_x2F_Grayscale_x2F_Night-Sky" style="mask:url(#icon_x2F_Social_x2F_facebook-line-mask-2);">
				<g id="icon_x2F_Social_x2F_facebook-line-Swatch" transform="translate(-8.000000, -8.000000)">
					<rect style="fill:#111111;" width="48" height="48"/>
				</g>
			</g>
		</g>
	</g>
</g>
</svg>
