<svg xmlns="http://www.w3.org/2000/svg" xmlns:xlink="http://www.w3.org/1999/xlink" width="32" height="32" viewBox="0 0 32 32" aria-labaria-lelledby="title-03">
  <defs>
    <path id="facebook-line-a" d="M12,1.38461538 C17.8533462,1.38461538 22.6153846,6.14665385 22.6153846,12 C22.6153846,17.8533462 17.8533462,22.6153846 12,22.6153846 C6.14665385,22.6153846 1.38461538,17.8533462 1.38461538,12 C1.38461538,6.14665385 6.14665385,1.38461538 12,1.38461538 M12,0 C18.6274615,0 24,5.37253846 24,12 C24,18.6274615 18.6274615,24 12,24 C5.37253846,24 0,18.6274615 0,12 C0,5.37253846 5.37253846,0 12,0 Z M13.0006154,18.4615385 L13.0006154,12.5667692 L14.9792308,12.5667692 L15.2753077,10.2694615 L13.0005,10.2694615 L13.0005,8.80269231 C13.0005,8.1375 13.1852308,7.68426923 14.1388846,7.68426923 L15.3555,7.68369231 L15.3555,5.62892308 C15.1450385,5.601 14.4230769,5.53846154 13.5829615,5.53846154 C11.8288846,5.53846154 10.6281923,6.609 10.6281923,8.57503846 L10.6281923,10.2693462 L8.64426923,10.2693462 L8.64426923,12.5666538 L10.6280769,12.5666538 L10.6280769,18.4615385 L13.0006154,18.4615385 Z"/>
  </defs>
  <title id="title-03" lang="en">share to facbook</title>
  <g fill="none" fill-rule="evenodd" transform="translate(4 4)">
    <use fill="#384048" xlink:href="#facebook-line-a"/>
  </g>
</svg>
