<?xml version="1.0" encoding="utf-8"?>
<svg version="1.1" id="Layer_1" xmlns="http://www.w3.org/2000/svg" xmlns:xlink="http://www.w3.org/1999/xlink" x="0px" y="0px"
	 viewBox="0 0 48 48" style="enable-background:new 0 0 48 48;" xml:space="preserve">
<path id="path-1_1_" style="fill:#111111;" d="M24,8c8.8,0,16,7.2,16,16s-7.2,16-16,16S8,32.8,8,24S15.2,8,24,8z M28.5,18.2v-2.7
	c-0.3,0-1.2-0.1-2.4-0.1c-2.3,0-3.9,1.4-3.9,4v2.3h-2.6v3.1h2.6v7.9h3.2v-7.9H28l0.4-3.1h-3v-2c0-0.9,0.2-1.5,1.5-1.5
	C26.9,18.2,28.5,18.2,28.5,18.2z"/>
</svg>
