<svg xmlns="http://www.w3.org/2000/svg" xmlns:xlink="http://www.w3.org/1999/xlink" width="32" height="32" viewBox="0 0 32 32" aria-labaria-lelledby="title-04">
  <defs>
    <path id="googleplus-fill-a" d="M12,0 C18.6274615,0 24,5.37253846 24,12 C24,18.6274615 18.6274615,24 12,24 C5.37253846,24 0,18.6274615 0,12 C0,5.37253846 5.37253846,0 12,0 Z M10.0481538,13.6471154 C8.52519231,13.6299231 7.2345,14.6096538 7.2345,15.7438846 C7.2345,16.9029231 8.33330769,17.8644231 9.85696154,17.8644231 C11.8031538,17.8644231 12.7438846,16.9608462 12.7438846,15.8029615 C12.7437692,14.6988462 11.7356538,13.6471154 10.0481538,13.6471154 Z M9.84646154,18.5769231 C7.64226923,18.5769231 5.80592308,17.6267308 5.80592308,16.0294615 C5.80592308,14.7954231 6.58603846,13.1953846 10.236,13.1953846 C9.69438462,12.7543846 9.56019231,12.1386923 9.8925,11.4695769 C7.75465385,11.4695769 6.66138462,10.218 6.66138462,8.62396154 C6.66138462,7.06315385 7.82169231,5.65384615 10.1888077,5.65384615 L13.9810385,5.65384615 L13.1337692,6.50111538 L12.1384615,6.50111538 C12.8409231,6.92423077 13.2137308,7.74265385 13.2137308,8.65592308 C13.2137308,9.495 12.7523077,10.1851154 12.0945,10.6943077 C10.9248462,11.5986923 11.2248462,12.1025769 12.4480385,12.9958846 C13.6573846,13.9005 14.0561538,14.6001923 14.0561538,15.669 C14.0561538,16.9801154 12.8585769,18.5769231 9.84646154,18.5769231 L9.84646154,18.5769231 Z M18.1940769,11.8988077 L16.7132308,11.8988077 L16.7132308,13.3798846 L15.8128846,13.3798846 L15.8128846,11.8988077 L14.3845385,11.8988077 L14.3845385,10.9992692 L15.8128846,10.9992692 L15.8128846,9.56965385 L16.7132308,9.56965385 L16.7132308,10.9992692 L18.1940769,10.9992692 L18.1940769,11.8988077 Z M11.6905385,8.72457692 C11.8676538,10.0675385 11.2785,10.9300385 10.2563077,10.9001538 C9.23492308,10.8696923 8.2635,9.93173077 8.08753846,8.58980769 C7.91076923,7.24661538 8.59638462,6.21969231 9.61776923,6.2505 C10.6401923,6.28142308 11.514,7.38242308 11.6905385,8.72457692 Z"/>
  </defs>
  <title id="title-04" lang="en">share to google+</title>
  <g fill="none" fill-rule="evenodd" transform="translate(4 4)">
    <use fill="#384048" xlink:href="#googleplus-fill-a"/>
  </g>
</svg>
