<?xml version="1.0" encoding="utf-8"?>
<svg version="1.1" id="new-googleplus-fill-Layer_1"
	 xmlns="http://www.w3.org/2000/svg" xmlns:xlink="http://www.w3.org/1999/xlink" x="0px" y="0px" viewBox="0 0 48 48"
	 style="enable-background:new 0 0 48 48;" xml:space="preserve">
<path style="fill:#111111;" d="M23.6,19.6c-0.2-1.8-1.4-3.3-2.8-3.3s-2.3,1.3-2,3.1c0.2,1.8,1.5,3,2.9,3.1
	C23,22.6,23.8,21.4,23.6,19.6z M21.4,26.2c-2,0-3.8,1.3-3.8,2.8s1.5,2.8,3.5,2.8c2.6,0,3.8-1.2,3.8-2.7C25,27.6,23.6,26.2,21.4,26.2
	z"/>
<path style="fill:#111111;" d="M24,8C15.2,8,8,15.2,8,24s7.2,16,16,16s16-7.2,16-16S32.8,8,24,8z M21.1,32.8c-2.9,0-5.4-1.3-5.4-3.4
	c0-1.6,1-3.8,5.9-3.8c-0.7-0.6-0.9-1.4-0.5-2.3c-2.9,0-4.3-1.7-4.3-3.8s1.5-4,4.7-4h5.1l-1.1,1.1h-1.3c0.9,0.6,1.4,1.7,1.4,2.9
	c0,1.1-0.6,2-1.5,2.7c-1.6,1.2-1.2,1.9,0.5,3.1c1.6,1.2,2.1,2.1,2.1,3.6C26.7,30.6,25.1,32.8,21.1,32.8z M32.3,23.9h-2v2h-1.2v-2
	h-1.9v-1.2h1.9v-1.9h1.2v1.9h2V23.9z"/>
</svg>
