<?xml version="1.0" encoding="utf-8"?>
<svg version="1.1" id="new-googleplus-line-Layer_1"
	 xmlns="http://www.w3.org/2000/svg" xmlns:xlink="http://www.w3.org/1999/xlink" x="0px" y="0px" viewBox="0 0 48 48"
	 style="enable-background:new 0 0 48 48;" xml:space="preserve">
<path id="new-googleplus-line-path-1_1_" style="fill:#111111;" d="M24.6,25.3c-1.6-1.2-2-1.9-0.5-3.1c0.9-0.7,1.5-1.6,1.5-2.7
	c0-1.2-0.5-2.3-1.4-2.9h1.3l1.1-1.1h-5.1c-3.2,0-4.7,1.9-4.7,4s1.5,3.8,4.3,3.8c-0.4,0.9-0.3,1.7,0.5,2.3c-4.9,0-5.9,2.1-5.9,3.8
	c0,2.1,2.4,3.4,5.4,3.4c4,0,5.6-2.1,5.6-3.9C26.7,27.5,26.2,26.5,24.6,25.3z M18.8,19.5c-0.2-1.8,0.7-3.2,2-3.1
	c1.4,0,2.5,1.5,2.8,3.3c0.2,1.8-0.5,2.9-1.9,2.9C20.3,22.5,19,21.2,18.8,19.5 M21.1,31.8c-2,0-3.5-1.3-3.5-2.8s1.7-2.8,3.8-2.8
	c2.3,0,3.6,1.4,3.6,2.9S23.7,31.8,21.1,31.8 M30.3,22.7v-1.9h-1.2v1.9h-1.9v1.2h1.9v2h1.2v-2h2v-1.2H30.3"/>
<path id="new-googleplus-line-path-1_2_" style="fill:#111111;" d="M24,8c8.8,0,16,7.2,16,16s-7.2,16-16,16S8,32.8,8,24S15.2,8,24,8
	z M24,38.2c7.8,0,14.2-6.3,14.2-14.2S31.8,9.8,24,9.8S9.8,16.2,9.8,24S16.2,38.2,24,38.2z"/>
</svg>
