<?xml version="1.0" encoding="utf-8"?>
<svg version="1.1" id="icon_x2F_Social_x2F_instagram-line-Layer_1"
	 xmlns="http://www.w3.org/2000/svg" xmlns:xlink="http://www.w3.org/1999/xlink" x="0px" y="0px" viewBox="0 0 48 48"
	 style="enable-background:new 0 0 48 48;" xml:space="preserve">
<path id="icon_x2F_Social_x2F_instagram-line-path-1_1_" style="fill:#111111;" d="M24,8c8.8,0,16,7.2,16,16s-7.2,16-16,16
	S8,32.8,8,24S15.2,8,24,8z M24,38.2c7.8,0,14.2-6.3,14.2-14.2S31.8,9.8,24,9.8S9.8,16.2,9.8,24S16.2,38.2,24,38.2z M24,17.4h3.2
	c0.8,0,1.2,0.2,1.5,0.3c0.4,0.1,0.6,0.3,0.9,0.6c0.3,0.3,0.5,0.5,0.6,0.9c0.1,0.3,0.2,0.7,0.3,1.5v6.4c0,0.8-0.2,1.2-0.3,1.5
	c-0.1,0.4-0.3,0.6-0.6,0.9c-0.3,0.3-0.5,0.5-0.9,0.6c-0.3,0.1-0.7,0.2-1.5,0.3h-6.4c-0.8,0-1.2-0.2-1.5-0.3
	c-0.4-0.1-0.6-0.3-0.9-0.6c-0.3-0.3-0.5-0.5-0.6-0.9c-0.1-0.3-0.2-0.7-0.3-1.5v-3.2v-3.2c0-0.8,0.2-1.2,0.3-1.5
	c0.1-0.4,0.3-0.6,0.6-0.9s0.5-0.5,0.9-0.6c0.3-0.1,0.7-0.2,1.5-0.3C21.6,17.5,21.9,17.4,24,17.4z M24,19.9c-2.3,0-4.1,1.8-4.1,4.1
	s1.8,4.1,4.1,4.1s4.1-1.8,4.1-4.1S26.3,19.9,24,19.9z M29.2,19.7c0-0.5-0.4-1-1-1c-0.5,0-1,0.4-1,1c0,0.5,0.4,1,1,1
	S29.2,20.3,29.2,19.7z M24,26.7c-1.5,0-2.7-1.2-2.7-2.7s1.2-2.7,2.7-2.7s2.7,1.2,2.7,2.7S25.5,26.7,24,26.7z"/>
</svg>
