<svg id="icon_x2F_Social_x2F_instagram-line-Layer_1" xmlns="http://www.w3.org/2000/svg" viewBox="0 0 48 48" enable-background="new 0 0 48 48"><title>icon/Social/instagram-line</title><g id="icon_x2F_Social_x2F_instagram-line-Symbols"><g id="icon_x2F_Social_x2F_instagram-line"><g id="icon_x2F_Social_x2F_instagram-line-Icon" transform="translate(8 8)"><g id="icon_x2F_Social_x2F_instagram-line-Mask"><path id="icon_x2F_Social_x2F_instagram-line-path-1_1_" d="M16 0c8.8 0 16 7.2 16 16s-7.2 16-16 16S0 24.8 0 16 7.2 0 16 0zm0 30.2c7.8 0 14.2-6.3 14.2-14.2S23.8 1.8 16 1.8 1.8 8.2 1.8 16 8.2 30.2 16 30.2zm0-20.8h3.2c.8 0 1.2.2 1.5.3.4.1.6.3.9.6.3.3.5.5.6.9.1.3.2.7.3 1.5v6.4c0 .8-.2 1.2-.3 1.5-.1.4-.3.6-.6.9-.3.3-.5.5-.9.6-.3.1-.7.2-1.5.3h-6.4c-.8 0-1.2-.2-1.5-.3-.4-.1-.6-.3-.9-.6-.3-.3-.5-.5-.6-.9-.1-.3-.2-.7-.3-1.5v-3.2-3.2c0-.8.2-1.2.3-1.5.1-.4.3-.6.6-.9.3-.3.5-.5.9-.6.3-.1.7-.2 1.5-.3.8.1 1.1 0 3.2 0zm0 2.5c-2.3 0-4.1 1.8-4.1 4.1s1.8 4.1 4.1 4.1 4.1-1.8 4.1-4.1-1.8-4.1-4.1-4.1zm5.2-.2c0-.5-.4-1-1-1-.5 0-1 .4-1 1 0 .5.4 1 1 1s1-.4 1-1zm-5.2 7c-1.5 0-2.7-1.2-2.7-2.7 0-1.5 1.2-2.7 2.7-2.7 1.5 0 2.7 1.2 2.7 2.7 0 1.5-1.2 2.7-2.7 2.7z" fill="#384048"/></g><defs><filter id="icon_x2F_Social_x2F_instagram-line-Adobe_OpacityMaskFilter" filterUnits="userSpaceOnUse" x="-8" y="-8" width="48" height="48"><feColorMatrix values="1 0 0 0 0 0 1 0 0 0 0 0 1 0 0 0 0 0 1 0"/></filter></defs><mask maskUnits="userSpaceOnUse" x="-8" y="-8" width="48" height="48" id="icon_x2F_Social_x2F_instagram-line-mask-2"><g filter="url(#icon_x2F_Social_x2F_instagram-line-Adobe_OpacityMaskFilter)"><path id="icon_x2F_Social_x2F_instagram-line-path-1" d="M16 0c8.8 0 16 7.2 16 16s-7.2 16-16 16S0 24.8 0 16 7.2 0 16 0zm0 30.2c7.8 0 14.2-6.3 14.2-14.2S23.8 1.8 16 1.8 1.8 8.2 1.8 16 8.2 30.2 16 30.2zm0-20.8h3.2c.8 0 1.2.2 1.5.3.4.1.6.3.9.6.3.3.5.5.6.9.1.3.2.7.3 1.5v6.4c0 .8-.2 1.2-.3 1.5-.1.4-.3.6-.6.9-.3.3-.5.5-.9.6-.3.1-.7.2-1.5.3h-6.4c-.8 0-1.2-.2-1.5-.3-.4-.1-.6-.3-.9-.6-.3-.3-.5-.5-.6-.9-.1-.3-.2-.7-.3-1.5v-3.2-3.2c0-.8.2-1.2.3-1.5.1-.4.3-.6.6-.9.3-.3.5-.5.9-.6.3-.1.7-.2 1.5-.3.8.1 1.1 0 3.2 0zm0 2.5c-2.3 0-4.1 1.8-4.1 4.1s1.8 4.1 4.1 4.1 4.1-1.8 4.1-4.1-1.8-4.1-4.1-4.1zm5.2-.2c0-.5-.4-1-1-1-.5 0-1 .4-1 1 0 .5.4 1 1 1s1-.4 1-1zm-5.2 7c-1.5 0-2.7-1.2-2.7-2.7 0-1.5 1.2-2.7 2.7-2.7 1.5 0 2.7 1.2 2.7 2.7 0 1.5-1.2 2.7-2.7 2.7z" fill="#fff"/></g></mask><g id="icon_x2F_Social_x2F_instagram-line-Color_x2F_Grayscale_x2F_Night-Sky" mask="url(#icon_x2F_Social_x2F_instagram-line-mask-2)"><path fill="#111" d="M0 0h48v48H0z" transform="translate(-8 -8)" id="icon_x2F_Social_x2F_instagram-line-Swatch"/></g></g></g></g></svg>