<?xml version="1.0" encoding="utf-8"?>
<!-- Generator: Adobe Illustrator 21.0.2, SVG Export Plug-In . SVG Version: 6.00 Build 0)  -->
<svg version="1.1" id="icon_x2F_Social_x2F_instagram-line-Layer_1" xmlns="http://www.w3.org/2000/svg" xmlns:xlink="http://www.w3.org/1999/xlink" x="0px" y="0px"
	 viewBox="0 0 48 48" style="enable-background:new 0 0 48 48;" xml:space="preserve">
<title>icon/Social/instagram-line</title>
<desc>Created with Sketch.</desc>
<g id="icon_x2F_Social_x2F_instagram-line-Symbols">
	<g id="icon_x2F_Social_x2F_instagram-line">
		<g id="icon_x2F_Social_x2F_instagram-line-Icon" transform="translate(8.000000, 8.000000)">
			<g id="icon_x2F_Social_x2F_instagram-line-Mask">
				<path id="icon_x2F_Social_x2F_instagram-line-path-1_1_" style="fill:#384048;" d="M16,0c8.8,0,16,7.2,16,16s-7.2,16-16,16S0,24.8,0,16S7.2,0,16,0z M16,30.2
					c7.8,0,14.2-6.3,14.2-14.2S23.8,1.8,16,1.8S1.8,8.2,1.8,16S8.2,30.2,16,30.2z M16,9.4c2.1,0,2.4,0,3.2,0c0.8,0,1.2,0.2,1.5,0.3
					c0.4,0.1,0.6,0.3,0.9,0.6c0.3,0.3,0.5,0.5,0.6,0.9c0.1,0.3,0.2,0.7,0.3,1.5c0,0.8,0,1.1,0,3.2c0,2.1,0,2.4,0,3.2
					c0,0.8-0.2,1.2-0.3,1.5c-0.1,0.4-0.3,0.6-0.6,0.9c-0.3,0.3-0.5,0.5-0.9,0.6c-0.3,0.1-0.7,0.2-1.5,0.3c-0.8,0-1.1,0-3.2,0
					c-2.1,0-2.4,0-3.2,0c-0.8,0-1.2-0.2-1.5-0.3c-0.4-0.1-0.6-0.3-0.9-0.6c-0.3-0.3-0.5-0.5-0.6-0.9c-0.1-0.3-0.2-0.7-0.3-1.5
					c0-0.8,0-1.1,0-3.2c0-2.1,0-2.4,0-3.2c0-0.8,0.2-1.2,0.3-1.5c0.1-0.4,0.3-0.6,0.6-0.9c0.3-0.3,0.5-0.5,0.9-0.6
					c0.3-0.1,0.7-0.2,1.5-0.3C13.6,9.5,13.9,9.4,16,9.4z M16,11.9c-2.3,0-4.1,1.8-4.1,4.1c0,2.3,1.8,4.1,4.1,4.1
					c2.3,0,4.1-1.8,4.1-4.1C20.1,13.7,18.3,11.9,16,11.9z M21.2,11.7c0-0.5-0.4-1-1-1c-0.5,0-1,0.4-1,1c0,0.5,0.4,1,1,1
					C20.8,12.7,21.2,12.3,21.2,11.7z M16,18.7c-1.5,0-2.7-1.2-2.7-2.7c0-1.5,1.2-2.7,2.7-2.7c1.5,0,2.7,1.2,2.7,2.7
					C18.7,17.5,17.5,18.7,16,18.7z"/>
			</g>
			<defs>
				<filter id="icon_x2F_Social_x2F_instagram-line-Adobe_OpacityMaskFilter" filterUnits="userSpaceOnUse" x="-8" y="-8" width="48" height="48">
					<feColorMatrix  type="matrix" values="1 0 0 0 0  0 1 0 0 0  0 0 1 0 0  0 0 0 1 0"/>
				</filter>
			</defs>
			<mask maskUnits="userSpaceOnUse" x="-8" y="-8" width="48" height="48" id="icon_x2F_Social_x2F_instagram-line-mask-2">
				<g style="filter:url(#icon_x2F_Social_x2F_instagram-line-Adobe_OpacityMaskFilter);">
					<path id="icon_x2F_Social_x2F_instagram-line-path-1" style="fill:#FFFFFF;" d="M16,0c8.8,0,16,7.2,16,16s-7.2,16-16,16S0,24.8,0,16S7.2,0,16,0z M16,30.2
						c7.8,0,14.2-6.3,14.2-14.2S23.8,1.8,16,1.8S1.8,8.2,1.8,16S8.2,30.2,16,30.2z M16,9.4c2.1,0,2.4,0,3.2,0c0.8,0,1.2,0.2,1.5,0.3
						c0.4,0.1,0.6,0.3,0.9,0.6c0.3,0.3,0.5,0.5,0.6,0.9c0.1,0.3,0.2,0.7,0.3,1.5c0,0.8,0,1.1,0,3.2c0,2.1,0,2.4,0,3.2
						c0,0.8-0.2,1.2-0.3,1.5c-0.1,0.4-0.3,0.6-0.6,0.9c-0.3,0.3-0.5,0.5-0.9,0.6c-0.3,0.1-0.7,0.2-1.5,0.3c-0.8,0-1.1,0-3.2,0
						c-2.1,0-2.4,0-3.2,0c-0.8,0-1.2-0.2-1.5-0.3c-0.4-0.1-0.6-0.3-0.9-0.6c-0.3-0.3-0.5-0.5-0.6-0.9c-0.1-0.3-0.2-0.7-0.3-1.5
						c0-0.8,0-1.1,0-3.2c0-2.1,0-2.4,0-3.2c0-0.8,0.2-1.2,0.3-1.5c0.1-0.4,0.3-0.6,0.6-0.9c0.3-0.3,0.5-0.5,0.9-0.6
						c0.3-0.1,0.7-0.2,1.5-0.3C13.6,9.5,13.9,9.4,16,9.4z M16,11.9c-2.3,0-4.1,1.8-4.1,4.1c0,2.3,1.8,4.1,4.1,4.1
						c2.3,0,4.1-1.8,4.1-4.1C20.1,13.7,18.3,11.9,16,11.9z M21.2,11.7c0-0.5-0.4-1-1-1c-0.5,0-1,0.4-1,1c0,0.5,0.4,1,1,1
						C20.8,12.7,21.2,12.3,21.2,11.7z M16,18.7c-1.5,0-2.7-1.2-2.7-2.7c0-1.5,1.2-2.7,2.7-2.7c1.5,0,2.7,1.2,2.7,2.7
						C18.7,17.5,17.5,18.7,16,18.7z"/>
				</g>
			</mask>
			<g id="icon_x2F_Social_x2F_instagram-line-Color_x2F_Grayscale_x2F_Night-Sky" style="mask:url(#icon_x2F_Social_x2F_instagram-line-mask-2);">
				<g id="icon_x2F_Social_x2F_instagram-line-Swatch" transform="translate(-8.000000, -8.000000)">
					<rect style="fill:#111111;" width="48" height="48"/>
				</g>
			</g>
		</g>
	</g>
</g>
</svg>
