<svg xmlns="http://www.w3.org/2000/svg" xmlns:xlink="http://www.w3.org/1999/xlink" width="32" height="32" viewBox="0 0 32 32">
    <defs>
        <path id="a" d="M9.852 0C3.302 0 0 4.696 0 8.612c0 2.37.897 4.48 2.823 5.266.315.13.598.005.69-.345.063-.242.214-.852.282-1.106.092-.346.056-.467-.199-.768-.555-.655-.91-1.503-.91-2.704 0-3.483 2.607-6.602 6.787-6.602 3.702 0 5.737 2.262 5.737 5.282 0 3.975-1.76 7.33-4.371 7.33-1.442 0-2.522-1.193-2.176-2.656.415-1.746 1.217-3.63 1.217-4.891 0-1.128-.605-2.07-1.859-2.07-1.474 0-2.658 1.526-2.658 3.569 0 1.3.44 2.181.44 2.181L4.028 18.61c-.527 2.23-.08 4.963-.041 5.239.022.163.232.202.327.078.136-.177 1.892-2.345 2.489-4.51.169-.614.97-3.79.97-3.79.479.913 1.879 1.718 3.367 1.718 4.431 0 7.438-4.04 7.438-9.448C18.58 3.808 15.115 0 9.852 0"/>
    </defs>
    <g fill="none" fill-rule="evenodd" transform="translate(7 4)">
        <mask id="b" fill="#fff">
            <use xlink:href="#a"/>
        </mask>
        <use fill="#111" xlink:href="#a"/>
        <g fill="#111" mask="url(#b)">
            <path d="M-9-6h36v36H-9z"/>
        </g>
    </g>
</svg>
