<?xml version="1.0" encoding="utf-8"?>
<svg version="1.1" id="Layer_1" xmlns="http://www.w3.org/2000/svg" xmlns:xlink="http://www.w3.org/1999/xlink" x="0px" y="0px"
	 viewBox="0 0 48 48" style="enable-background:new 0 0 48 48;" xml:space="preserve">
<path id="icon_x2F_Social_x2F_pinterest-fill-path-1_1_" style="fill:#111111;" d="M24,8C15.2,8,8,15.2,8,24s7.2,16,16,16
	s16-7.2,16-16S32.8,8,24,8z M25.3,28.1c-1.1,0-2.1-0.6-2.4-1.2c0,0-0.6,2.3-0.7,2.7c-0.4,1.6-1.7,3.1-1.8,3.2
	c-0.1,0.1-0.2,0.1-0.2-0.1s-0.3-2.2,0-3.8c0.2-0.8,1.3-5.4,1.3-5.4s-0.3-0.6-0.3-1.6c0-1.5,0.9-2.6,1.9-2.6c0.9,0,1.3,0.7,1.3,1.5
	c0,0.9-0.6,2.3-0.9,3.5c-0.2,1.1,0.5,1.9,1.6,1.9c1.9,0,3.1-2.4,3.1-5.3c0-2.2-1.5-3.8-4.1-3.8c-3,0-4.9,2.2-4.9,4.7
	c0,0.9,0.3,1.5,0.7,1.9c0.2,0.2,0.2,0.3,0.1,0.6c0,0.2-0.2,0.6-0.2,0.8c-0.1,0.3-0.3,0.3-0.5,0.2c-1.4-0.6-2-2.1-2-3.8
	c0-2.8,2.4-6.2,7.1-6.2c3.8,0,6.3,2.7,6.3,5.7C30.7,25.2,28.5,28.1,25.3,28.1z"/>
</svg>
