<svg xmlns="http://www.w3.org/2000/svg" xmlns:xlink="http://www.w3.org/1999/xlink" width="32" height="32" viewBox="0 0 32 32" aria-labaria-lelledby="title-06">
  <defs>
    <path id="pinterest-fill-a" d="M12,0 C5.37253846,0 0,5.37253846 0,12 C0,18.6274615 5.37253846,24 12,24 C18.6274615,24 24,18.6274615 24,12 C24,5.37253846 18.6274615,0 12,0 L12,0 Z M12.9970385,15.1088077 C12.1954615,15.1088077 11.4417692,14.6755385 11.1838846,14.1836538 C11.1838846,14.1836538 10.7525769,15.8937692 10.6616538,16.224 C10.3403077,17.3903077 9.39484615,18.5576538 9.32146154,18.6530769 C9.27034615,18.7195385 9.15715385,18.6987692 9.14515385,18.6107308 C9.12473077,18.4621154 8.88380769,16.9903846 9.16753846,15.7898077 C9.30992308,15.1870385 10.1222308,11.7451154 10.1222308,11.7451154 C10.1222308,11.7451154 9.88546154,11.2711154 9.88546154,10.5705 C9.88546154,9.47042308 10.5231923,8.64923077 11.3170385,8.64923077 C11.9919231,8.64923077 12.3181154,9.156 12.3181154,9.7635 C12.3181154,10.4423077 11.8858846,11.4571154 11.6627308,12.3973846 C11.4765,13.185 12.0578077,13.8273462 12.8342308,13.8273462 C14.2405385,13.8273462 15.1878462,12.0208846 15.1878462,9.88061538 C15.1878462,8.25403846 14.0923846,7.03615385 12.099,7.03615385 C9.84796154,7.03615385 8.44430769,8.71557692 8.44430769,10.5912692 C8.44430769,11.2378846 8.63526923,11.6943462 8.93434615,12.0469615 C9.07153846,12.2093077 9.09092308,12.2745 9.04119231,12.4607308 C9.00484615,12.5975769 8.92373077,12.9259615 8.88957692,13.0563462 C8.84007692,13.2445385 8.68776923,13.3116923 8.51792308,13.2421154 C7.48119231,12.8188846 6.99796154,11.6829231 6.99796154,10.4063077 C6.99784615,8.29776923 8.77592308,5.76923077 12.3026538,5.76923077 C15.1367308,5.76923077 17.0021538,7.81973077 17.0021538,10.0216154 C17.0021538,12.9334615 15.3828462,15.1088077 12.9970385,15.1088077 L12.9970385,15.1088077 Z"/>
  </defs>
   <title id="title-06" lang="en">pin to pintrest board</title>
  <g fill="none" fill-rule="evenodd" transform="translate(4 4)">
    <use fill="#384048" xlink:href="#pinterest-fill-a"/>
  </g>
</svg>
