<svg xmlns="http://www.w3.org/2000/svg" xmlns:xlink="http://www.w3.org/1999/xlink" width="32" height="32" viewBox="0 0 32 32">
    <defs>
        <path id="a" d="M21.172 3.084A4.937 4.937 0 0 0 23.337.36a9.858 9.858 0 0 1-3.127 1.195 4.924 4.924 0 0 0-8.39 4.49A13.978 13.978 0 0 1 1.67.902a4.899 4.899 0 0 0-.666 2.476c0 1.708.87 3.215 2.19 4.098a4.902 4.902 0 0 1-2.23-.616v.062a4.927 4.927 0 0 0 3.95 4.828 4.932 4.932 0 0 1-2.224.084 4.929 4.929 0 0 0 4.6 3.42 9.879 9.879 0 0 1-6.115 2.107c-.398 0-.79-.023-1.175-.068a13.938 13.938 0 0 0 7.548 2.212c9.057 0 14.01-7.503 14.01-14.01 0-.213-.006-.425-.015-.636A10.004 10.004 0 0 0 24 2.308a9.848 9.848 0 0 1-2.828.776"/>
    </defs>
    <g fill="none" fill-rule="evenodd" transform="translate(4 6)">
        <mask id="b" fill="#fff">
            <use xlink:href="#a"/>
        </mask>
        <use fill="#111" xlink:href="#a"/>
        <g fill="#111" mask="url(#b)">
            <path d="M-6-8h36v36H-6z"/>
        </g>
    </g>
</svg>
