<?xml version="1.0" encoding="UTF-8"?>
<svg width="48px" height="48px" viewBox="0 0 48 48" version="1.1" xmlns="http://www.w3.org/2000/svg" xmlns:xlink="http://www.w3.org/1999/xlink">
    <!-- Generator: Sketch 46.2 (44496) - http://www.bohemiancoding.com/sketch -->
    <title>icon/Social/twitter-line</title>
    <desc>Created with Sketch.</desc>
    <defs>
        <path d="M16,0 C24.8366154,0 32,7.16338462 32,16 C32,24.8366154 24.8366154,32 16,32 C7.16338462,32 0,24.8366154 0,16 C0,7.16338462 7.16338462,0 16,0 Z M16,30.1538462 C23.8044615,30.1538462 30.1538462,23.8044615 30.1538462,16 C30.1538462,8.19553846 23.8044615,1.84615385 16,1.84615385 C8.19553846,1.84615385 1.84615385,8.19553846 1.84615385,16 C1.84615385,23.8044615 8.19553846,30.1538462 16,30.1538462 Z M23.7681538,10.7585714 C24.5849231,10.661033 25.3635385,10.4438022 26.0881538,10.1225714 C25.5464615,10.9325714 24.8618462,11.6441099 24.0724615,12.2134945 C24.0803077,12.3867253 24.0841538,12.5608791 24.0841538,12.7361099 C24.0841538,18.0736484 20.0213846,24.2285714 12.5918462,24.2285714 C10.3107692,24.2285714 8.18753846,23.5596484 6.4,22.4136484 C6.71615385,22.4508791 7.03753846,22.4698022 7.36369231,22.4698022 C9.25615385,22.4698022 10.9976923,21.8244176 12.3801538,20.741033 C10.6126154,20.7084176 9.12092308,19.5405714 8.60692308,17.935956 C8.85353846,17.9833407 9.10661538,18.0084176 9.36692308,18.0084176 C9.73523077,18.0084176 10.092,17.9591868 10.4310769,17.8668791 C8.58323077,17.4958022 7.19076923,15.8631868 7.19076923,13.9061099 C7.19076923,13.8891868 7.19076923,13.8722637 7.19107692,13.8553407 C7.73569231,14.157956 8.35846154,14.3396484 9.02061538,14.3605714 C7.93676923,13.6362637 7.22369231,12.399956 7.22369231,10.9985714 C7.22369231,10.2584176 7.42276923,9.56441758 7.77061538,8.96795604 C9.76276923,11.4116484 12.7390769,13.0198022 16.0961538,13.1881099 C16.0269231,12.8925714 15.9915385,12.5844176 15.9915385,12.2676484 C15.9915385,10.037033 17.8,8.22857143 20.0307692,8.22857143 C21.1926154,8.22857143 22.2423077,8.71903297 22.9792308,9.50410989 C23.8992308,9.32287912 24.7636923,8.98687912 25.544,8.52395604 C25.2426154,9.46718681 24.602,10.2587253 23.7681538,10.7585714 Z" id="path-1"></path>
    </defs>
    <g id="Symbols" stroke="none" stroke-width="1" fill="none" fill-rule="evenodd">
        <g id="icon/Social/twitter-line">
            <g id="Icon" transform="translate(8.000000, 8.000000)">
                <mask id="mask-2" fill="white">
                    <use xlink:href="#path-1"></use>
                </mask>
                <use id="Mask" fill="#384048" xlink:href="#path-1"></use>
                <g id="Color/Grayscale/Night-Sky" mask="url(#mask-2)" fill="#111111">
                    <g transform="translate(-8.000000, -8.000000)" id="Swatch">
                        <rect x="0" y="0" width="48" height="48"></rect>
                    </g>
                </g>
            </g>
        </g>
    </g>
</svg>