<svg id="icon_x2F_Social_x2F_twitter-fill-Layer_1" xmlns="http://www.w3.org/2000/svg" viewBox="0 0 48 48" enable-background="new 0 0 48 48"><title>icon/Social/twitter-fill</title><g id="icon_x2F_Social_x2F_twitter-fill-Symbols"><g id="icon_x2F_Social_x2F_twitter-fill"><g id="icon_x2F_Social_x2F_twitter-fill-Icon" transform="translate(8 8)"><g id="icon_x2F_Social_x2F_twitter-fill-Mask"><path id="icon_x2F_Social_x2F_twitter-fill-path-1_1_" d="M16 0C7.2 0 0 7.2 0 16s7.2 16 16 16 16-7.2 16-16S24.8 0 16 0zm8.3 12.3v.5c0 5.3-4.1 11.5-11.5 11.5-2.3 0-4.4-.7-6.2-1.8.3 0 .6.1 1 .1 1.9 0 3.6-.6 5-1.7-1.8 0-3.3-1.2-3.8-2.8.2 0 .5.1.8.1.4 0 .7 0 1.1-.1-1.8-.4-3.2-2-3.2-4V14c.5.3 1.2.5 1.8.5-1.1-.7-1.8-2-1.8-3.4 0-.7.2-1.4.5-2 2 2.4 5 4.1 8.3 4.2-.1-.3-.1-.6-.1-.9 0-2.2 1.8-4 4-4 1.2 0 2.2.5 2.9 1.3.9-.2 1.8-.5 2.6-1-.3.9-.9 1.7-1.8 2.2.8-.1 1.6-.3 2.3-.6-.4.7-1.1 1.4-1.9 2z" fill="#384048"/></g><defs><filter id="icon_x2F_Social_x2F_twitter-fill-Adobe_OpacityMaskFilter" filterUnits="userSpaceOnUse" x="-8" y="-8" width="48" height="48"><feColorMatrix values="1 0 0 0 0 0 1 0 0 0 0 0 1 0 0 0 0 0 1 0"/></filter></defs><mask maskUnits="userSpaceOnUse" x="-8" y="-8" width="48" height="48" id="icon_x2F_Social_x2F_twitter-fill-mask-2"><g filter="url(#icon_x2F_Social_x2F_twitter-fill-Adobe_OpacityMaskFilter)"><path id="icon_x2F_Social_x2F_twitter-fill-path-1" d="M16 0C7.2 0 0 7.2 0 16s7.2 16 16 16 16-7.2 16-16S24.8 0 16 0zm8.3 12.3v.5c0 5.3-4.1 11.5-11.5 11.5-2.3 0-4.4-.7-6.2-1.8.3 0 .6.1 1 .1 1.9 0 3.6-.6 5-1.7-1.8 0-3.3-1.2-3.8-2.8.2 0 .5.1.8.1.4 0 .7 0 1.1-.1-1.8-.4-3.2-2-3.2-4V14c.5.3 1.2.5 1.8.5-1.1-.7-1.8-2-1.8-3.4 0-.7.2-1.4.5-2 2 2.4 5 4.1 8.3 4.2-.1-.3-.1-.6-.1-.9 0-2.2 1.8-4 4-4 1.2 0 2.2.5 2.9 1.3.9-.2 1.8-.5 2.6-1-.3.9-.9 1.7-1.8 2.2.8-.1 1.6-.3 2.3-.6-.4.7-1.1 1.4-1.9 2z" fill="#fff"/></g></mask><g id="icon_x2F_Social_x2F_twitter-fill-Color_x2F_Grayscale_x2F_Night-Sky" mask="url(#icon_x2F_Social_x2F_twitter-fill-mask-2)"><path fill="#111" d="M0 0h48v48H0z" transform="translate(-8 -8)" id="icon_x2F_Social_x2F_twitter-fill-Swatch"/></g></g></g></g></svg>