<?xml version="1.0" encoding="utf-8"?>
<!-- Generator: Adobe Illustrator 21.0.2, SVG Export Plug-In . SVG Version: 6.00 Build 0)  -->
<svg version="1.1" id="icon_x2F_Social_x2F_youtube-line-Layer_1" xmlns="http://www.w3.org/2000/svg" xmlns:xlink="http://www.w3.org/1999/xlink" x="0px" y="0px"
	 viewBox="0 0 48 48" style="enable-background:new 0 0 48 48;" xml:space="preserve">
<title>icon/Social/youtube-line</title>
<desc>Created with Sketch.</desc>
<g id="icon_x2F_Social_x2F_youtube-line-Symbols">
	<g id="icon_x2F_Social_x2F_youtube-line">
		<g id="icon_x2F_Social_x2F_youtube-line-Icon" transform="translate(8.000000, 8.000000)">
			<g id="icon_x2F_Social_x2F_youtube-line-Mask">
				<path id="icon_x2F_Social_x2F_youtube-line-path-1_1_" style="fill:#384048;" d="M16,0c8.8,0,16,7.2,16,16s-7.2,16-16,16S0,24.8,0,16S7.2,0,16,0z M16,30.2
					c7.8,0,14.2-6.3,14.2-14.2S23.8,1.8,16,1.8S1.8,8.2,1.8,16S8.2,30.2,16,30.2z M24.7,10.2c0.6,0.6,0.8,1.9,0.8,1.9
					s0.2,1.6,0.2,3.1v1.5c0,1.6-0.2,3.1-0.2,3.1s-0.2,1.3-0.8,1.9c-0.7,0.8-1.6,0.8-1.9,0.8c-2.7,0.2-6.7,0.2-6.7,0.2s-5,0-6.5-0.2
					c-0.4-0.1-1.4-0.1-2.1-0.8c-0.6-0.6-0.8-1.9-0.8-1.9s-0.2-1.6-0.2-3.1v-1.5c0-1.6,0.2-3.1,0.2-3.1s0.2-1.3,0.8-1.9
					c0.7-0.8,1.6-0.8,1.9-0.8C12,9.1,16,9.1,16,9.1h0c0,0,4,0,6.7,0.2C23.1,9.4,24,9.4,24.7,10.2z M14,18.4l5.2-2.7L14,13L14,18.4z"
					/>
			</g>
			<defs>
				<filter id="icon_x2F_Social_x2F_youtube-line-Adobe_OpacityMaskFilter" filterUnits="userSpaceOnUse" x="-8" y="-8" width="48" height="48">
					<feColorMatrix  type="matrix" values="1 0 0 0 0  0 1 0 0 0  0 0 1 0 0  0 0 0 1 0"/>
				</filter>
			</defs>
			<mask maskUnits="userSpaceOnUse" x="-8" y="-8" width="48" height="48" id="icon_x2F_Social_x2F_youtube-line-mask-2">
				<g style="filter:url(#icon_x2F_Social_x2F_youtube-line-Adobe_OpacityMaskFilter);">
					<path id="icon_x2F_Social_x2F_youtube-line-path-1" style="fill:#FFFFFF;" d="M16,0c8.8,0,16,7.2,16,16s-7.2,16-16,16S0,24.8,0,16S7.2,0,16,0z M16,30.2
						c7.8,0,14.2-6.3,14.2-14.2S23.8,1.8,16,1.8S1.8,8.2,1.8,16S8.2,30.2,16,30.2z M24.7,10.2c0.6,0.6,0.8,1.9,0.8,1.9
						s0.2,1.6,0.2,3.1v1.5c0,1.6-0.2,3.1-0.2,3.1s-0.2,1.3-0.8,1.9c-0.7,0.8-1.6,0.8-1.9,0.8c-2.7,0.2-6.7,0.2-6.7,0.2s-5,0-6.5-0.2
						c-0.4-0.1-1.4-0.1-2.1-0.8c-0.6-0.6-0.8-1.9-0.8-1.9s-0.2-1.6-0.2-3.1v-1.5c0-1.6,0.2-3.1,0.2-3.1s0.2-1.3,0.8-1.9
						c0.7-0.8,1.6-0.8,1.9-0.8C12,9.1,16,9.1,16,9.1h0c0,0,4,0,6.7,0.2C23.1,9.4,24,9.4,24.7,10.2z M14,18.4l5.2-2.7L14,13L14,18.4z
						"/>
				</g>
			</mask>
			<g id="icon_x2F_Social_x2F_youtube-line-Color_x2F_Grayscale_x2F_Night-Sky" style="mask:url(#icon_x2F_Social_x2F_youtube-line-mask-2);">
				<g id="icon_x2F_Social_x2F_youtube-line-Swatch" transform="translate(-8.000000, -8.000000)">
					<rect style="fill:#111111;" width="48" height="48"/>
				</g>
			</g>
		</g>
	</g>
</g>
</svg>
