<?xml version="1.0" encoding="utf-8"?>
<svg version="1.1" id="icon_x2F_Social_x2F_youtube-line-Layer_1"
	 xmlns="http://www.w3.org/2000/svg" xmlns:xlink="http://www.w3.org/1999/xlink" x="0px" y="0px" viewBox="0 0 48 48"
	 style="enable-background:new 0 0 48 48;" xml:space="preserve">
<path id="icon_x2F_Social_x2F_youtube-line-path-1_1_" style="fill:#111111;" d="M24,8c8.8,0,16,7.2,16,16s-7.2,16-16,16
	S8,32.8,8,24S15.2,8,24,8z M24,38.2c7.8,0,14.2-6.3,14.2-14.2S31.8,9.8,24,9.8S9.8,16.2,9.8,24S16.2,38.2,24,38.2z M32.7,18.2
	c0.6,0.6,0.8,1.9,0.8,1.9s0.2,1.6,0.2,3.1v1.5c0,1.6-0.2,3.1-0.2,3.1s-0.2,1.3-0.8,1.9c-0.7,0.8-1.6,0.8-1.9,0.8
	c-2.7,0.2-6.7,0.2-6.7,0.2s-5,0-6.5-0.2c-0.4-0.1-1.4-0.1-2.1-0.8c-0.6-0.6-0.8-1.9-0.8-1.9s-0.2-1.6-0.2-3.1v-1.5
	c0-1.6,0.2-3.1,0.2-3.1s0.2-1.3,0.8-1.9c0.7-0.8,1.6-0.8,1.9-0.8c2.6-0.3,6.6-0.3,6.6-0.3s4,0,6.7,0.2C31.1,17.4,32,17.4,32.7,18.2z
	 M22,26.4l5.2-2.7L22,21V26.4z"/>
</svg>
