<?xml version="1.0" encoding="utf-8"?>
<!-- Generator: Adobe Illustrator 21.0.2, SVG Export Plug-In . SVG Version: 6.00 Build 0)  -->
<svg version="1.1" id="Layer_1" xmlns="http://www.w3.org/2000/svg" xmlns:xlink="http://www.w3.org/1999/xlink" x="0px" y="0px"
	 viewBox="0 0 496.7 119.7" style="enable-background:new 0 0 496.7 119.7;" xml:space="preserve">
<g>
	<path style="fill:#FFFFFF;" d="M177.9,45h-10.1v18.2h10.1c7.1,0,11.1-3.1,11.1-9.2C189.1,48,185,45,177.9,45z"/>
	<path style="fill:#FFFFFF;" d="M140.5,45h-10.1v18.2h10.1c7.1,0,11.1-3.1,11.1-9.2C151.6,48,147.5,45,140.5,45z"/>
	<polygon style="fill:#FFFFFF;" points="91,65.7 108.6,65.7 99.8,45.8 	"/>
	<path style="fill:#FFFFFF;" d="M312.5,44.8c-8.7,0-16,6.8-16,15.5c0,8.6,7.3,15.5,16,15.5s15.9-6.9,15.9-15.5
		C328.4,51.7,321.2,44.8,312.5,44.8z"/>
	<path style="fill:#FFFFFF;" d="M0,0l0,119.7h497.7V0H0z M73.9,79.9h-4.5V62.6H45.8v17.2h-4.5V40.7h4.5v17.7h23.6V40.7h4.5V79.9z
		 M114.9,79.9l-4.4-9.9H89.1l-4.4,9.9H80l17.6-39.2h4.6l17.5,39.2H114.9z M140.7,67.5h-10.2v12.4h-4.5V40.7h14.7
		c9.7,0,15.3,4.8,15.3,13.2C155.9,62.5,150.3,67.5,140.7,67.5z M178.1,67.5h-10.2v12.4h-4.5V40.7h14.7c9.7,0,15.3,4.8,15.3,13.2
		C193.4,62.5,187.8,67.5,178.1,67.5z M214.7,66.4v13.4h-4.4V66.6l-15.2-25.9h4.6l12.7,20.4L225,40.7h4.6L214.7,66.4z M283.8,79.9
		h-4.5V62.6h-23.6v17.2h-4.5V40.7h4.5v17.7h23.6V40.7h4.5V79.9z M312.5,80.1c-11.5,0-20.6-8.8-20.6-19.8c0-11.1,9.1-19.7,20.6-19.7
		c11.4,0,20.5,8.7,20.5,19.7C333,71.3,323.9,80.1,312.5,80.1z M380.8,79.9h-4.1l-0.1-32.3l-14.3,28.2h-2.7l-14.2-28.2v32.3h-4.3
		V40.7h5.5L361,68.9l14.3-28.2h5.5V79.9z M420.1,79.9h-27.3V40.7h26.6V45h-22.1v12.9H417v4.3h-19.8v13.4h22.8V79.9z M440,80
		c-5.7,0-11.3-2.5-15-6l2-4c3.6,3.5,8.6,5.5,13,5.5c5.7,0,9.2-2.3,9.2-6c0.1-10.3-22-4.8-22-18.9c0-6.2,5.4-10.1,13.6-10.1
		c4.5,0,9.2,1.5,12.4,3.6l-1.9,4.2c-3.5-2.4-7.7-3.3-10.8-3.3c-5,0-8.3,1.9-8.3,5.2c0,10.1,22.1,4.8,22,19
		C454.2,75.8,448.4,80,440,80z"/>
</g>
</svg>
