<?xml version="1.0" encoding="utf-8"?>
<!-- Generator: Adobe Illustrator 21.0.2, SVG Export Plug-In . SVG Version: 6.00 Build 0)  -->
<svg version="1.1" id="Icon-Tooltip" xmlns="http://www.w3.org/2000/svg" xmlns:xlink="http://www.w3.org/1999/xlink" x="0px"
	 y="0px" viewBox="0 0 14 14" style="enable-background:new 0 0 14 14;" xml:space="preserve">
<g>
	<path style="fill:#FFFFFF;" d="M7,0.1C3.2,0.1,0.1,3.2,0.1,7s3.1,6.9,6.9,6.9s6.9-3.1,6.9-6.9S10.8,0.1,7,0.1z M7,12.9
		c-3.3,0-5.9-2.7-5.9-5.9S3.7,1.1,7,1.1s5.9,2.7,5.9,5.9S10.3,12.9,7,12.9z"/>
	<polygon style="fill:#FFFFFF;" points="7.5,4.1 6.5,4.1 6.5,6.5 4.1,6.5 4.1,7.5 6.5,7.5 6.5,9.9 7.5,9.9 7.5,7.5 9.9,7.5 9.9,6.5 
		7.5,6.5 	"/>
</g>
</svg>
