<?xml version="1.0" encoding="utf-8"?>
<svg version="1.1" id="icon_x2F_Utility_x2F_Ship_x2F_track-order-Layer_1"
	 xmlns="http://www.w3.org/2000/svg" xmlns:xlink="http://www.w3.org/1999/xlink" x="0px" y="0px" viewBox="0 0 48 48"
	 style="enable-background:new 0 0 48 48;" xml:space="preserve">
<path id="icon_x2F_Utility_x2F_Ship_x2F_track-order-path-1_1_" style="fill:#111111;" d="M36.9,25.4c0.2,0.4,0.1,1.2-0.3,1.5
	l-6.3,3.6c0.2,0.5,0.3,1,0.3,1.6c0,2.2-1.7,3.9-3.7,3.9s-3.7-1.8-3.7-3.9c0-1.3,0.6-2.5,1.6-3.2l-7.2-14.2l-4.2-1.3
	c-0.3-0.2-0.5-0.5-0.4-0.9s0.5-0.6,0.8-0.5l4.4,1.4c0.2,0.1,0.3,0.2,0.4,0.3l4.2,8.4l8.6-5c0.1,0,0.3-0.1,0.4-0.1
	c0.4,0,0.9,0.3,1.1,0.7L36.9,25.4z M26.9,34.6c1.3,0,2.4-1.1,2.4-2.5c0-1.4-1.1-2.5-2.4-2.5s-2.4,1.1-2.4,2.5
	C24.5,33.5,25.6,34.6,26.9,34.6z M16.9,20.3h-4.8c-0.4,0-0.7-0.3-0.7-0.6s0.3-0.7,0.7-0.7h4.8c0.4,0,0.7,0.3,0.7,0.7
	S17.2,20.3,16.9,20.3z M19,24.5h-7.3c-0.4,0-0.7-0.3-0.7-0.7c0-0.4,0.3-0.7,0.7-0.7H19c0.4,0,0.7,0.3,0.7,0.7
	C19.7,24.2,19.4,24.5,19,24.5z M21.2,28.6h-4.8c-0.4,0-0.7-0.3-0.7-0.7c0-0.4,0.3-0.7,0.7-0.7h4.8c0.4,0,0.7,0.3,0.7,0.7
	C21.9,28.3,21.6,28.6,21.2,28.6z"/>
</svg>
