<?xml version="1.0" encoding="utf-8"?>
<!-- Generator: Adobe Illustrator 21.0.2, SVG Export Plug-In . SVG Version: 6.00 Build 0)  -->
<svg version="1.1" id="icon_x2F_Utility_x2F_Ship_x2F_track-order-Layer_1" xmlns="http://www.w3.org/2000/svg" xmlns:xlink="http://www.w3.org/1999/xlink" x="0px" y="0px"
	 viewBox="0 0 48 48" style="enable-background:new 0 0 48 48;" xml:space="preserve">
<title>icon/Utility/Ship/track-order</title>
<desc>Created with Sketch.</desc>
<g id="icon_x2F_Utility_x2F_Ship_x2F_track-order-Symbols">
	<g id="icon_x2F_Utility_x2F_Ship_x2F_track-order">
		<g id="icon_x2F_Utility_x2F_Ship_x2F_track-order-Icon" transform="translate(11.000000, 12.000000)">
			<g id="icon_x2F_Utility_x2F_Ship_x2F_track-order-Mask">
				<path id="icon_x2F_Utility_x2F_Ship_x2F_track-order-path-1_1_" style="fill:#384048;" d="M25.9,13.4c0.2,0.4,0.1,1.2-0.3,1.5l-6.3,3.6c0.2,0.5,0.3,1,0.3,1.6
					c0,2.2-1.7,3.9-3.7,3.9s-3.7-1.8-3.7-3.9c0-1.3,0.6-2.5,1.6-3.2L6.6,2.7L2.4,1.4C2.1,1.2,1.9,0.9,2,0.5C2.1,0.1,2.5-0.1,2.8,0
					l4.4,1.4c0.2,0.1,0.3,0.2,0.4,0.3l4.2,8.4l8.6-5C20.5,5.1,20.7,5,20.8,5c0.4,0,0.9,0.3,1.1,0.7L25.9,13.4z M15.9,22.6
					c1.3,0,2.4-1.1,2.4-2.5s-1.1-2.5-2.4-2.5s-2.4,1.1-2.4,2.5S14.6,22.6,15.9,22.6z M5.9,8.3H1.1C0.7,8.3,0.4,8,0.4,7.7
					S0.7,7,1.1,7h4.8c0.4,0,0.7,0.3,0.7,0.7S6.2,8.3,5.9,8.3z M8,12.5H0.7c-0.4,0-0.7-0.3-0.7-0.7c0-0.4,0.3-0.7,0.7-0.7H8
					c0.4,0,0.7,0.3,0.7,0.7C8.7,12.2,8.4,12.5,8,12.5z M10.2,16.6H5.4c-0.4,0-0.7-0.3-0.7-0.7c0-0.4,0.3-0.7,0.7-0.7h4.8
					c0.4,0,0.7,0.3,0.7,0.7C10.9,16.3,10.6,16.6,10.2,16.6z"/>
			</g>
			<defs>
				<filter id="icon_x2F_Utility_x2F_Ship_x2F_track-order-Adobe_OpacityMaskFilter" filterUnits="userSpaceOnUse" x="-11" y="-12" width="48" height="48">
					<feColorMatrix  type="matrix" values="1 0 0 0 0  0 1 0 0 0  0 0 1 0 0  0 0 0 1 0"/>
				</filter>
			</defs>
			<mask maskUnits="userSpaceOnUse" x="-11" y="-12" width="48" height="48" id="icon_x2F_Utility_x2F_Ship_x2F_track-order-mask-2">
				<g style="filter:url(#icon_x2F_Utility_x2F_Ship_x2F_track-order-Adobe_OpacityMaskFilter);">
					<path id="icon_x2F_Utility_x2F_Ship_x2F_track-order-path-1" style="fill:#FFFFFF;" d="M25.9,13.4c0.2,0.4,0.1,1.2-0.3,1.5l-6.3,3.6c0.2,0.5,0.3,1,0.3,1.6
						c0,2.2-1.7,3.9-3.7,3.9s-3.7-1.8-3.7-3.9c0-1.3,0.6-2.5,1.6-3.2L6.6,2.7L2.4,1.4C2.1,1.2,1.9,0.9,2,0.5C2.1,0.1,2.5-0.1,2.8,0
						l4.4,1.4c0.2,0.1,0.3,0.2,0.4,0.3l4.2,8.4l8.6-5C20.5,5.1,20.7,5,20.8,5c0.4,0,0.9,0.3,1.1,0.7L25.9,13.4z M15.9,22.6
						c1.3,0,2.4-1.1,2.4-2.5s-1.1-2.5-2.4-2.5s-2.4,1.1-2.4,2.5S14.6,22.6,15.9,22.6z M5.9,8.3H1.1C0.7,8.3,0.4,8,0.4,7.7
						S0.7,7,1.1,7h4.8c0.4,0,0.7,0.3,0.7,0.7S6.2,8.3,5.9,8.3z M8,12.5H0.7c-0.4,0-0.7-0.3-0.7-0.7c0-0.4,0.3-0.7,0.7-0.7H8
						c0.4,0,0.7,0.3,0.7,0.7C8.7,12.2,8.4,12.5,8,12.5z M10.2,16.6H5.4c-0.4,0-0.7-0.3-0.7-0.7c0-0.4,0.3-0.7,0.7-0.7h4.8
						c0.4,0,0.7,0.3,0.7,0.7C10.9,16.3,10.6,16.6,10.2,16.6z"/>
				</g>
			</mask>
			<g id="icon_x2F_Utility_x2F_Ship_x2F_track-order-Color_x2F_Grayscale_x2F_Night-Sky" style="mask:url(#icon_x2F_Utility_x2F_Ship_x2F_track-order-mask-2);">
				<g id="icon_x2F_Utility_x2F_Ship_x2F_track-order-Swatch" transform="translate(-11.000000, -12.000000)">
					<rect style="fill:#111111;" width="48" height="48"/>
				</g>
			</g>
		</g>
	</g>
</g>
</svg>
