<svg id="icon_x2F_Utility_x2F_Ship_x2F_truck-Layer_1" xmlns="http://www.w3.org/2000/svg" viewBox="0 0 48 48" enable-background="new 0 0 48 48"><title>icon/Utility/Ship/truck</title><g id="icon_x2F_Utility_x2F_Ship_x2F_truck-Symbols"><g id="icon_x2F_Utility_x2F_Ship_x2F_truck"><g id="icon_x2F_Utility_x2F_Ship_x2F_truck-Icon" transform="translate(11 14)"><g id="icon_x2F_Utility_x2F_Ship_x2F_truck-Mask"><path id="icon_x2F_Utility_x2F_Ship_x2F_truck-path-1_1_" d="M23.5 0H12c-1.2 0-2.5 1.2-2.5 2.4v13.5c0 1.3 1.2 2.6 2.5 2.6h5.5c.5.9 1.5 1.5 2.6 1.5s2.1-.6 2.6-1.5h.8c1.1 0 2.4-1.3 2.4-2.6V2.4C26 1.2 24.8 0 23.5 0zm-3.3 18.7c-1 0-1.7-.8-1.7-1.8s.8-1.8 1.7-1.8c1 0 1.7.8 1.7 1.8s-.7 1.8-1.7 1.8zM8.1 5.1c.4 0 .7.3.7.7v11c0 .4-.3.7-.7.7h-.6C7.3 18.9 6 20 4.5 20s-2.8-1.1-3-2.6H.7c-.4 0-.7-.3-.7-.7v-5.6c0-.1 0-1.1.5-2 0 0 0-.1.1-.1l2.8-3.3c0-.1.1-.1.2-.1.8-.5 1.3-.5 1.6-.5h2.9zM4.5 18.7c1 0 1.7-.8 1.7-1.8s-.8-1.8-1.7-1.8-1.8.9-1.8 1.8.8 1.8 1.8 1.8z" fill="#384048"/></g><defs><filter id="icon_x2F_Utility_x2F_Ship_x2F_truck-Adobe_OpacityMaskFilter" filterUnits="userSpaceOnUse" x="-11" y="-14" width="48" height="48"><feColorMatrix values="1 0 0 0 0 0 1 0 0 0 0 0 1 0 0 0 0 0 1 0"/></filter></defs><mask maskUnits="userSpaceOnUse" x="-11" y="-14" width="48" height="48" id="icon_x2F_Utility_x2F_Ship_x2F_truck-mask-2"><g filter="url(#icon_x2F_Utility_x2F_Ship_x2F_truck-Adobe_OpacityMaskFilter)"><path id="icon_x2F_Utility_x2F_Ship_x2F_truck-path-1" d="M23.5 0H12c-1.2 0-2.5 1.2-2.5 2.4v13.5c0 1.3 1.2 2.6 2.5 2.6h5.5c.5.9 1.5 1.5 2.6 1.5s2.1-.6 2.6-1.5h.8c1.1 0 2.4-1.3 2.4-2.6V2.4C26 1.2 24.8 0 23.5 0zm-3.3 18.7c-1 0-1.7-.8-1.7-1.8s.8-1.8 1.7-1.8c1 0 1.7.8 1.7 1.8s-.7 1.8-1.7 1.8zM8.1 5.1c.4 0 .7.3.7.7v11c0 .4-.3.7-.7.7h-.6C7.3 18.9 6 20 4.5 20s-2.8-1.1-3-2.6H.7c-.4 0-.7-.3-.7-.7v-5.6c0-.1 0-1.1.5-2 0 0 0-.1.1-.1l2.8-3.3c0-.1.1-.1.2-.1.8-.5 1.3-.5 1.6-.5h2.9zM4.5 18.7c1 0 1.7-.8 1.7-1.8s-.8-1.8-1.7-1.8-1.8.9-1.8 1.8.8 1.8 1.8 1.8z" fill="#fff"/></g></mask><g id="icon_x2F_Utility_x2F_Ship_x2F_truck-Color_x2F_Grayscale_x2F_Night-Sky" mask="url(#icon_x2F_Utility_x2F_Ship_x2F_truck-mask-2)"><path fill="#111" d="M0 0h48v48H0z" transform="translate(-11 -14)" id="icon_x2F_Utility_x2F_Ship_x2F_truck-Swatch"/></g></g></g></g></svg>