<?xml version="1.0" encoding="UTF-8"?>
<svg width="48px" height="48px" viewBox="0 0 48 48" version="1.1" xmlns="http://www.w3.org/2000/svg" xmlns:xlink="http://www.w3.org/1999/xlink">
    <!-- Generator: Sketch 46.2 (44496) - http://www.bohemiancoding.com/sketch -->
    <title>icon/Social/instagram-fill</title>
    <desc>Created with Sketch.</desc>
    <defs>
        <path d="M16,32 C7.163444,32 0,24.836556 0,16 C0,7.163444 7.163444,0 16,0 C24.836556,0 32,7.163444 32,16 C32,24.836556 24.836556,32 16,32 Z M15.9974921,8.00504762 C13.8254921,8.00504762 13.5531429,8.01425397 12.700127,8.0531746 C11.8488889,8.092 11.2675238,8.22720635 10.7588254,8.42492063 C10.2329206,8.62926984 9.78692063,8.90273016 9.34228571,9.34733333 C8.89768254,9.79196825 8.62422222,10.2379683 8.41987302,10.763873 C8.22215873,11.2725714 8.08695238,11.8539365 8.04812698,12.7051746 C8.00920635,13.5581905 8,13.8305397 8,16.0025397 C8,18.1745079 8.00920635,18.4468571 8.04812698,19.299873 C8.08695238,20.1511111 8.22215873,20.7324762 8.41987302,21.2411746 C8.62422222,21.7670794 8.89768254,22.2130794 9.34228571,22.6577143 C9.78692063,23.1023175 10.2329206,23.3757778 10.7588254,23.5801587 C11.2675238,23.7778413 11.8488889,23.9130476 12.700127,23.951873 C13.5531429,23.9907937 13.8254921,24 15.9974921,24 C18.1694603,24 18.4418095,23.9907937 19.2948254,23.951873 C20.1460635,23.9130476 20.7274286,23.7778413 21.236127,23.5801587 C21.7620317,23.3757778 22.2080317,23.1023175 22.6526667,22.6577143 C23.0972698,22.2130794 23.3707302,21.7670794 23.5751111,21.2411746 C23.7727937,20.7324762 23.908,20.1511111 23.9468254,19.299873 C23.985746,18.4468571 23.9949524,18.1745079 23.9949524,16.0025397 C23.9949524,13.8305397 23.985746,13.5581905 23.9468254,12.7051746 C23.908,11.8539365 23.7727937,11.2725714 23.5751111,10.763873 C23.3707302,10.2379683 23.0972698,9.79196825 22.6526667,9.34733333 C22.2080317,8.90273016 21.7620317,8.62926984 21.236127,8.42492063 C20.7274286,8.22720635 20.1460635,8.092 19.2948254,8.0531746 C18.4418095,8.01425397 18.1694603,8.00504762 15.9974921,8.00504762 Z M15.9974921,9.44603175 C18.1328889,9.44603175 18.3858413,9.45419048 19.2291429,9.49266667 C20.0088889,9.52822222 20.4323492,9.65850794 20.7141587,9.76803175 C21.0874603,9.91311111 21.353873,10.0864127 21.6337143,10.3662857 C21.9135873,10.646127 22.0868889,10.9125397 22.2319683,11.2858413 C22.3414921,11.5676508 22.4717778,11.9911111 22.5073333,12.7708571 C22.5458095,13.6141587 22.5539683,13.8671111 22.5539683,16.0025397 C22.5539683,18.1379365 22.5458095,18.3908889 22.5073333,19.2341905 C22.4717778,20.0139365 22.3414921,20.4373968 22.2319683,20.7192063 C22.0868889,21.0925079 21.9135873,21.3589206 21.6337143,21.6387619 C21.353873,21.9186349 21.0874603,22.0919365 20.7141587,22.2370159 C20.4323492,22.3465397 20.0088889,22.4768254 19.2291429,22.512381 C18.3859683,22.5508571 18.1330476,22.5590159 15.9974921,22.5590159 C13.8619048,22.5590159 13.6090159,22.5508571 12.7658095,22.512381 C11.9860635,22.4768254 11.5626032,22.3465397 11.2807937,22.2370159 C10.9074921,22.0919365 10.6410794,21.9186349 10.3612381,21.6387619 C10.0813968,21.3589206 9.90806349,21.0925079 9.76298413,20.7192063 C9.65346032,20.4373968 9.5231746,20.0139365 9.48761905,19.2341905 C9.44914286,18.3908889 9.44098413,18.1379365 9.44098413,16.0025397 C9.44098413,13.8671111 9.44914286,13.6141587 9.48761905,12.7708571 C9.5231746,11.9911111 9.65346032,11.5676508 9.76298413,11.2858413 C9.90806349,10.9125397 10.0813651,10.646127 10.3612381,10.3662857 C10.6410794,10.0864127 10.9074921,9.91311111 11.2807937,9.76803175 C11.5626032,9.65850794 11.9860635,9.52822222 12.7658095,9.49266667 C13.6091111,9.45419048 13.8620635,9.44603175 15.9974921,9.44603175 Z M15.9974921,11.8957143 C13.7293333,11.8957143 11.8906667,13.734381 11.8906667,16.0025397 C11.8906667,18.2706667 13.7293333,20.1093333 15.9974921,20.1093333 C18.265619,20.1093333 20.1042857,18.2706667 20.1042857,16.0025397 C20.1042857,13.734381 18.265619,11.8957143 15.9974921,11.8957143 Z M21.226254,11.7334603 C21.226254,11.2034286 20.7965714,10.773746 20.2665397,10.773746 C19.7365397,10.773746 19.3068571,11.2034286 19.3068571,11.7334603 C19.3068571,12.2634921 19.7365397,12.6931429 20.2665397,12.6931429 C20.7965714,12.6931429 21.226254,12.2634921 21.226254,11.7334603 Z M15.9974921,18.6683492 C14.5251746,18.6683492 13.3316508,17.4748254 13.3316508,16.0025397 C13.3316508,14.5302222 14.5251746,13.3366984 15.9974921,13.3366984 C17.4697778,13.3366984 18.6633016,14.5302222 18.6633016,16.0025397 C18.6633016,17.4748254 17.4697778,18.6683492 15.9974921,18.6683492 Z" id="path-1"></path>
    </defs>
    <g id="Symbols" stroke="none" stroke-width="1" fill="none" fill-rule="evenodd">
        <g id="icon/Social/instagram-fill">
            <g id="Icon" transform="translate(8.000000, 8.000000)">
                <mask id="mask-2" fill="white">
                    <use xlink:href="#path-1"></use>
                </mask>
                <use id="Mask" fill="#384048" xlink:href="#path-1"></use>
                <g id="Color/Grayscale/Night-Sky" mask="url(#mask-2)" fill="#111111">
                    <g transform="translate(-8.000000, -8.000000)" id="Swatch">
                        <rect x="0" y="0" width="48" height="48"></rect>
                    </g>
                </g>
            </g>
        </g>
    </g>
</svg>