<?xml version="1.0" encoding="UTF-8"?>
<svg width="48px" height="48px" viewBox="0 0 48 48" version="1.1" xmlns="http://www.w3.org/2000/svg" xmlns:xlink="http://www.w3.org/1999/xlink">
    <!-- Generator: Sketch 46.2 (44496) - http://www.bohemiancoding.com/sketch -->
    <title>icon/Social/blog-line</title>
    <desc>Created with Sketch.</desc>
    <defs>
        <path d="M16,0 C24.8366154,0 32,7.16338462 32,16 C32,24.8366154 24.8366154,32 16,32 C7.16338462,32 0,24.8366154 0,16 C0,7.16338462 7.16338462,0 16,0 Z M16,30.1538462 C23.8044615,30.1538462 30.1538462,23.8044615 30.1538462,16 C30.1538462,8.19553846 23.8044615,1.84615385 16,1.84615385 C8.19553846,1.84615385 1.84615385,8.19553846 1.84615385,16 C1.84615385,23.8044615 8.19553846,30.1538462 16,30.1538462 Z M14.6373626,8.22857143 C20.0150549,8.22857143 24.3901319,12.6038022 24.3902857,17.9814945 C24.3902857,18.4911868 23.9769011,18.9045714 23.4672088,18.9045714 C22.9575165,18.9045714 22.5441319,18.4911868 22.5441319,17.9814945 C22.5441319,13.6216484 18.9972088,10.0747253 14.6373626,10.0747253 C14.1276703,10.0747253 13.7142857,9.66134066 13.7142857,9.15164835 C13.7142857,8.64195604 14.1276703,8.22857143 14.6373626,8.22857143 Z M14.6373626,12.8 C17.5278242,12.8 19.8793626,15.1515385 19.8793626,18.042 C19.8793626,18.5516923 19.465978,18.9650769 18.9562857,18.9650769 C18.4465934,18.9650769 18.0332088,18.5516923 18.0332088,18.042 C18.0332088,16.1695385 16.5098242,14.6461538 14.6373626,14.6461538 C14.1276703,14.6461538 13.7142857,14.2327692 13.7142857,13.7230769 C13.7142857,13.2133846 14.1276703,12.8 14.6373626,12.8 Z M13.3267033,15.9587912 C15.6336264,15.9587912 17.5102418,17.8355604 17.5102418,20.1423297 C17.5102418,22.4490989 15.6336264,24.3258681 13.3267033,24.3258681 C11.0197802,24.3258681 9.14285714,22.4490989 9.14285714,20.1423297 L9.14285714,12.8087912 C9.14285714,12.2990989 9.55624176,11.8857143 10.0659341,11.8857143 C10.5756264,11.8857143 10.989011,12.2990989 10.989011,12.8087912 L10.989011,20.1423297 C10.989011,21.4312527 12.0377802,22.4797143 13.3267033,22.4797143 C14.6154725,22.4797143 15.6640879,21.4312527 15.6640879,20.1423297 C15.6640879,18.8534066 14.6154725,17.8049451 13.3267033,17.8049451 C12.817011,17.8049451 12.4036264,17.3915604 12.4036264,16.8818681 C12.4036264,16.3721758 12.817011,15.9587912 13.3267033,15.9587912 Z" id="path-1"></path>
    </defs>
    <g id="Symbols" stroke="none" stroke-width="1" fill="none" fill-rule="evenodd">
        <g id="icon/Social/blog-line">
            <g id="Icon" transform="translate(8.000000, 8.000000)">
                <mask id="mask-2" fill="white">
                    <use xlink:href="#path-1"></use>
                </mask>
                <use id="Mask" fill="#384048" xlink:href="#path-1"></use>
                <g id="Color/Grayscale/Night-Sky" mask="url(#mask-2)" fill="#111111">
                    <g transform="translate(-8.000000, -8.000000)" id="Swatch">
                        <rect x="0" y="0" width="48" height="48"></rect>
                    </g>
                </g>
            </g>
        </g>
    </g>
</svg>