<?xml version="1.0" encoding="utf-8"?>
<svg version="1.1" id="icon_x2F_Social_x2F_blog-line-Layer_1"
	 xmlns="http://www.w3.org/2000/svg" xmlns:xlink="http://www.w3.org/1999/xlink" x="0px" y="0px" viewBox="0 0 48 48"
	 style="enable-background:new 0 0 48 48;" xml:space="preserve">
<path id="icon_x2F_Social_x2F_blog-line-path-1_1_" style="fill:#111111;" d="M24,8c8.8,0,16,7.2,16,16s-7.2,16-16,16S8,32.8,8,24
	S15.2,8,24,8z M24,38.2c7.8,0,14.2-6.3,14.2-14.2S31.8,9.8,24,9.8S9.8,16.2,9.8,24S16.2,38.2,24,38.2z M22.6,16.2
	c5.4,0,9.8,4.4,9.8,9.8c0,0.5-0.4,0.9-0.9,0.9c-0.5,0-0.9-0.4-0.9-0.9c0-4.4-3.5-7.9-7.9-7.9c-0.5,0-0.9-0.4-0.9-0.9
	S22.1,16.2,22.6,16.2z M22.6,20.8c2.9,0,5.2,2.4,5.2,5.2c0,0.5-0.4,0.9-0.9,0.9C26.4,27,26,26.6,26,26c0-1.9-1.5-3.4-3.4-3.4
	c-0.5,0-0.9-0.4-0.9-0.9S22.1,20.8,22.6,20.8z M21.3,24c2.3,0,4.2,1.9,4.2,4.2s-1.9,4.2-4.2,4.2s-4.2-1.9-4.2-4.2v-7.3
	c0-0.5,0.4-0.9,0.9-0.9s0.9,0.4,0.9,0.9v7.3c0,1.3,1,2.3,2.3,2.3c1.3,0,2.3-1,2.3-2.3s-1-2.3-2.3-2.3c-0.5,0-0.9-0.4-0.9-0.9
	C20.4,24.4,20.8,24,21.3,24z"/>
</svg>
