<?xml version="1.0" encoding="utf-8"?>
<svg version="1.1" id="icon_x2F_Social_x2F_blog-fill-Layer_1"
	 xmlns="http://www.w3.org/2000/svg" xmlns:xlink="http://www.w3.org/1999/xlink" x="0px" y="0px" viewBox="0 0 48 48"
	 style="enable-background:new 0 0 48 48;" xml:space="preserve">
<path id="icon_x2F_Social_x2F_blog-fill-path-1_1_" style="fill:#111111;" d="M24,8C15.2,8,8,15.2,8,24s7.2,16,16,16s16-7.2,16-16
	S32.8,8,24,8z M20.6,31.9c-2.3,0-4.2-1.9-4.2-4.2v-7.3c0-0.5,0.4-0.9,0.9-0.9s0.9,0.4,0.9,0.9v7.3c0,1.3,1,2.3,2.3,2.3
	s2.3-1,2.3-2.3s-1-2.3-2.3-2.3c-0.5,0-0.9-0.4-0.9-0.9s0.4-0.9,0.9-0.9c2.3,0,4.2,1.9,4.2,4.2C24.8,30.1,22.9,31.9,20.6,31.9z
	 M27,26.6c-0.5,0-0.9-0.4-0.9-0.9c0-1.9-1.5-3.4-3.4-3.4c-0.5,0-0.9-0.4-0.9-0.9s0.4-0.9,0.9-0.9c2.9,0,5.2,2.4,5.2,5.2
	C27.9,26.2,27.5,26.6,27,26.6z M31,27.1c-0.5,0-0.9-0.4-0.9-0.9c0-4.4-3.5-7.9-7.9-7.9c-0.5,0-0.9-0.4-0.9-0.9s0.4-0.9,0.9-0.9
	c5.4,0,9.8,4.4,9.8,9.8C31.9,26.7,31.5,27.1,31,27.1z"/>
</svg>
