<?xml version="1.0" encoding="utf-8"?>
<!-- Generator: Adobe Illustrator 21.0.2, SVG Export Plug-In . SVG Version: 6.00 Build 0)  -->
<svg version="1.1" id="icon_x2F_Social_x2F_blog-fill-Layer_1" xmlns="http://www.w3.org/2000/svg" xmlns:xlink="http://www.w3.org/1999/xlink" x="0px" y="0px"
	 viewBox="0 0 48 48" style="enable-background:new 0 0 48 48;" xml:space="preserve">
<title>icon/Social/blog-fill</title>
<desc>Created with Sketch.</desc>
<g id="icon_x2F_Social_x2F_blog-fill-Symbols">
	<g id="icon_x2F_Social_x2F_blog-fill">
		<g id="icon_x2F_Social_x2F_blog-fill-Icon" transform="translate(8.000000, 8.000000)">
			<g id="icon_x2F_Social_x2F_blog-fill-Mask">
				<path id="icon_x2F_Social_x2F_blog-fill-path-1_1_" style="fill:#384048;" d="M16,0C7.2,0,0,7.2,0,16s7.2,16,16,16s16-7.2,16-16S24.8,0,16,0L16,0z M12.6,23.9
					c-2.3,0-4.2-1.9-4.2-4.2v-7.3c0-0.5,0.4-0.9,0.9-0.9s0.9,0.4,0.9,0.9v7.3c0,1.3,1,2.3,2.3,2.3c1.3,0,2.3-1,2.3-2.3
					s-1-2.3-2.3-2.3c-0.5,0-0.9-0.4-0.9-0.9c0-0.5,0.4-0.9,0.9-0.9c2.3,0,4.2,1.9,4.2,4.2C16.8,22.1,14.9,23.9,12.6,23.9L12.6,23.9z
					 M19,18.6c-0.5,0-0.9-0.4-0.9-0.9c0-1.9-1.5-3.4-3.4-3.4c-0.5,0-0.9-0.4-0.9-0.9s0.4-0.9,0.9-0.9c2.9,0,5.2,2.4,5.2,5.2
					C19.9,18.2,19.5,18.6,19,18.6L19,18.6z M23,19.1c-0.5,0-0.9-0.4-0.9-0.9c0-4.4-3.5-7.9-7.9-7.9c-0.5,0-0.9-0.4-0.9-0.9
					s0.4-0.9,0.9-0.9c5.4,0,9.8,4.4,9.8,9.8C23.9,18.7,23.5,19.1,23,19.1L23,19.1z"/>
			</g>
			<defs>
				<filter id="icon_x2F_Social_x2F_blog-fill-Adobe_OpacityMaskFilter" filterUnits="userSpaceOnUse" x="-8" y="-8" width="48" height="48">
					<feColorMatrix  type="matrix" values="1 0 0 0 0  0 1 0 0 0  0 0 1 0 0  0 0 0 1 0"/>
				</filter>
			</defs>
			<mask maskUnits="userSpaceOnUse" x="-8" y="-8" width="48" height="48" id="icon_x2F_Social_x2F_blog-fill-mask-2">
				<g style="filter:url(#icon_x2F_Social_x2F_blog-fill-Adobe_OpacityMaskFilter);">
					<path id="icon_x2F_Social_x2F_blog-fill-path-1" style="fill:#FFFFFF;" d="M16,0C7.2,0,0,7.2,0,16s7.2,16,16,16s16-7.2,16-16S24.8,0,16,0L16,0z M12.6,23.9
						c-2.3,0-4.2-1.9-4.2-4.2v-7.3c0-0.5,0.4-0.9,0.9-0.9s0.9,0.4,0.9,0.9v7.3c0,1.3,1,2.3,2.3,2.3c1.3,0,2.3-1,2.3-2.3
						s-1-2.3-2.3-2.3c-0.5,0-0.9-0.4-0.9-0.9c0-0.5,0.4-0.9,0.9-0.9c2.3,0,4.2,1.9,4.2,4.2C16.8,22.1,14.9,23.9,12.6,23.9L12.6,23.9
						z M19,18.6c-0.5,0-0.9-0.4-0.9-0.9c0-1.9-1.5-3.4-3.4-3.4c-0.5,0-0.9-0.4-0.9-0.9s0.4-0.9,0.9-0.9c2.9,0,5.2,2.4,5.2,5.2
						C19.9,18.2,19.5,18.6,19,18.6L19,18.6z M23,19.1c-0.5,0-0.9-0.4-0.9-0.9c0-4.4-3.5-7.9-7.9-7.9c-0.5,0-0.9-0.4-0.9-0.9
						s0.4-0.9,0.9-0.9c5.4,0,9.8,4.4,9.8,9.8C23.9,18.7,23.5,19.1,23,19.1L23,19.1z"/>
				</g>
			</mask>
			<g id="icon_x2F_Social_x2F_blog-fill-Color_x2F_Grayscale_x2F_Night-Sky" style="mask:url(#icon_x2F_Social_x2F_blog-fill-mask-2);">
				<g id="icon_x2F_Social_x2F_blog-fill-Swatch" transform="translate(-8.000000, -8.000000)">
					<rect style="fill:#111111;" width="48" height="48"/>
				</g>
			</g>
		</g>
	</g>
</g>
</svg>
