<?xml version="1.0" encoding="utf-8"?>
<svg version="1.1" id="new-facebook-line-Layer_1" xmlns="http://www.w3.org/2000/svg" xmlns:xlink="http://www.w3.org/1999/xlink"
	 x="0px" y="0px" viewBox="0 0 48 48" style="enable-background:new 0 0 48 48;" xml:space="preserve">
<path id="new-facebook-line-path-1_1_" style="fill:#111111;" d="M25.3,32.6v-7.9H28l0.4-3.1h-3v-2c0-0.9,0.2-1.5,1.5-1.5h1.6v-2.7
	c-0.3,0-1.2-0.1-2.4-0.1c-2.3,0-3.9,1.4-3.9,4v2.3h-2.6v3.1h2.6v7.9C22.2,32.6,25.3,32.6,25.3,32.6z"/>
<path id="new-facebook-line-path-1_2_" style="fill:#111111;" d="M24,8c8.8,0,16,7.2,16,16s-7.2,16-16,16S8,32.8,8,24S15.2,8,24,8z
	 M24,38.2c7.8,0,14.2-6.3,14.2-14.2S31.8,9.8,24,9.8S9.8,16.2,9.8,24S16.2,38.2,24,38.2z"/>
</svg>
