<svg id="new-facebook-line-Layer_1" xmlns="http://www.w3.org/2000/svg" viewBox="0 0 48 48"><g id="new-facebook-line-Mask"><path id="new-facebook-line-path-1_1_" d="M25.3 32.6v-7.9H28l.4-3.1h-3v-2c0-.9.2-1.5 1.5-1.5h1.6v-2.7c-.3 0-1.2-.1-2.4-.1-2.3 0-3.9 1.4-3.9 4v2.3h-2.6v3.1h2.6v7.9h3.1z" fill="#111"/></g><g id="new-facebook-line-Mask_1_"><path id="new-facebook-line-path-1_2_" d="M24 8c8.8 0 16 7.2 16 16s-7.2 16-16 16S8 32.8 8 24 15.2 8 24 8zm0 30.2c7.8 0 14.2-6.3 14.2-14.2S31.8 9.8 24 9.8 9.8 16.2 9.8 24 16.2 38.2 24 38.2z" fill="#111"/></g></svg>