<svg id="icon_x2F_Social_x2F_facebook-line-Layer_1" xmlns="http://www.w3.org/2000/svg" viewBox="0 0 48 48" enable-background="new 0 0 48 48"><title>icon/Social/facebook-line</title><g id="icon_x2F_Social_x2F_facebook-line-Symbols"><g id="icon_x2F_Social_x2F_facebook-line"><g id="icon_x2F_Social_x2F_facebook-line-Icon" transform="translate(8 8)"><g id="icon_x2F_Social_x2F_facebook-line-Mask"><path id="icon_x2F_Social_x2F_facebook-line-path-1_1_" d="M16 1.8c7.8 0 14.2 6.3 14.2 14.2S23.8 30.2 16 30.2 1.8 23.8 1.8 16 8.2 1.8 16 1.8M16 0c8.8 0 16 7.2 16 16s-7.2 16-16 16S0 24.8 0 16 7.2 0 16 0zm1.3 24.6v-7.9H20l.4-3.1h-3v-2c0-.9.2-1.5 1.5-1.5h1.6V7.5c-.3 0-1.2-.1-2.4-.1-2.3 0-3.9 1.4-3.9 4v2.3h-2.6v3.1h2.6v7.9h3.1z" fill="#384048"/></g><defs><filter id="icon_x2F_Social_x2F_facebook-line-Adobe_OpacityMaskFilter" filterUnits="userSpaceOnUse" x="-8" y="-8" width="48" height="48"><feColorMatrix values="1 0 0 0 0 0 1 0 0 0 0 0 1 0 0 0 0 0 1 0"/></filter></defs><mask maskUnits="userSpaceOnUse" x="-8" y="-8" width="48" height="48" id="icon_x2F_Social_x2F_facebook-line-mask-2"><g filter="url(#icon_x2F_Social_x2F_facebook-line-Adobe_OpacityMaskFilter)"><path id="icon_x2F_Social_x2F_facebook-line-path-1" d="M16 1.8c7.8 0 14.2 6.3 14.2 14.2S23.8 30.2 16 30.2 1.8 23.8 1.8 16 8.2 1.8 16 1.8M16 0c8.8 0 16 7.2 16 16s-7.2 16-16 16S0 24.8 0 16 7.2 0 16 0zm1.3 24.6v-7.9H20l.4-3.1h-3v-2c0-.9.2-1.5 1.5-1.5h1.6V7.5c-.3 0-1.2-.1-2.4-.1-2.3 0-3.9 1.4-3.9 4v2.3h-2.6v3.1h2.6v7.9h3.1z" fill="#fff"/></g></mask><g id="icon_x2F_Social_x2F_facebook-line-Color_x2F_Grayscale_x2F_Night-Sky" mask="url(#icon_x2F_Social_x2F_facebook-line-mask-2)"><path fill="#111" d="M0 0h48v48H0z" transform="translate(-8 -8)" id="icon_x2F_Social_x2F_facebook-line-Swatch"/></g></g></g></g></svg>