<?xml version="1.0" encoding="UTF-8"?>
<svg width="48px" height="48px" viewBox="0 0 48 48" version="1.1" xmlns="http://www.w3.org/2000/svg" xmlns:xlink="http://www.w3.org/1999/xlink">
    <!-- Generator: Sketch 46.2 (44496) - http://www.bohemiancoding.com/sketch -->
    <title>icon/Social/facebook-fill</title>
    <desc>Created with Sketch.</desc>
    <defs>
        <path d="M16,0 C24.8366154,0 32,7.16338462 32,16 C32,24.8366154 24.8366154,32 16,32 C7.16338462,32 0,24.8366154 0,16 C0,7.16338462 7.16338462,0 16,0 Z M20.4741538,10.2449231 L20.4741538,7.50523077 C20.1933846,7.468 19.2307692,7.38461538 18.1106154,7.38461538 C15.7718462,7.38461538 14.1707692,8.81215385 14.1707692,11.4335385 L14.1707692,13.6926154 L11.5256923,13.6926154 L11.5256923,16.7556923 L14.1707692,16.7556923 L14.1707692,24.6153846 L17.3343077,24.6153846 L17.3343077,16.7556923 L19.9724615,16.7556923 L20.3672308,13.6926154 L17.3341538,13.6926154 L17.3341538,11.7369231 C17.3341538,10.85 17.5803077,10.2456923 18.852,10.2456923 L20.4741538,10.2449231 Z" id="path-1"></path>
    </defs>
    <g id="Symbols" stroke="none" stroke-width="1" fill="none" fill-rule="evenodd">
        <g id="icon/Social/facebook-fill">
            <g id="Icon" transform="translate(8.000000, 8.000000)">
                <mask id="mask-2" fill="white">
                    <use xlink:href="#path-1"></use>
                </mask>
                <use id="Mask" fill="#384048" xlink:href="#path-1"></use>
                <g id="Color/Grayscale/Night-Sky" mask="url(#mask-2)" fill="#111111">
                    <g transform="translate(-8.000000, -8.000000)" id="Swatch">
                        <rect x="0" y="0" width="48" height="48"></rect>
                    </g>
                </g>
            </g>
        </g>
    </g>
</svg>