<svg id="new-googleplus-fill-Layer_1" xmlns="http://www.w3.org/2000/svg" viewBox="0 0 48 48"><g fill="#111"><path d="M23.6 19.6c-.2-1.8-1.4-3.3-2.8-3.3s-2.3 1.3-2 3.1c.2 1.8 1.5 3 2.9 3.1 1.3.1 2.1-1.1 1.9-2.9zM21.4 26.2c-2 0-3.8 1.3-3.8 2.8 0 1.5 1.5 2.8 3.5 2.8 2.6 0 3.8-1.2 3.8-2.7.1-1.5-1.3-2.9-3.5-2.9z"/><path d="M24 8C15.2 8 8 15.2 8 24s7.2 16 16 16 16-7.2 16-16S32.8 8 24 8zm-2.9 24.8c-2.9 0-5.4-1.3-5.4-3.4 0-1.6 1-3.8 5.9-3.8-.7-.6-.9-1.4-.5-2.3-2.9 0-4.3-1.7-4.3-3.8 0-2.1 1.5-4 4.7-4h5.1l-1.1 1.1h-1.3c.9.6 1.4 1.7 1.4 2.9 0 1.1-.6 2-1.5 2.7-1.6 1.2-1.2 1.9.5 3.1 1.6 1.2 2.1 2.1 2.1 3.6 0 1.7-1.6 3.9-5.6 3.9zm11.2-8.9h-2v2h-1.2v-2h-1.9v-1.2h1.9v-1.9h1.2v1.9h2v1.2z"/></g></svg>