<svg id="icon_x2F_Social_x2F_googleplus-fill-Layer_1" xmlns="http://www.w3.org/2000/svg" viewBox="0 0 48 48" enable-background="new 0 0 48 48"><title>icon/Social/googleplus-fill</title><g id="icon_x2F_Social_x2F_googleplus-fill-Symbols"><g id="icon_x2F_Social_x2F_googleplus-fill"><g id="icon_x2F_Social_x2F_googleplus-fill-Icon" transform="translate(8 8)"><g id="icon_x2F_Social_x2F_googleplus-fill-Mask"><path id="icon_x2F_Social_x2F_googleplus-fill-path-1_1_" d="M16 0c8.8 0 16 7.2 16 16s-7.2 16-16 16S0 24.8 0 16 7.2 0 16 0zm-2.6 18.2c-2 0-3.8 1.3-3.8 2.8 0 1.5 1.5 2.8 3.5 2.8 2.6 0 3.8-1.2 3.8-2.7.1-1.5-1.3-2.9-3.5-2.9zm-.3 6.6c-2.9 0-5.4-1.3-5.4-3.4 0-1.6 1-3.8 5.9-3.8-.7-.6-.9-1.4-.5-2.3-2.9 0-4.3-1.7-4.3-3.8 0-2.1 1.5-4 4.7-4h5.1l-1.1 1.1h-1.3c.9.6 1.4 1.7 1.4 2.9 0 1.1-.6 2-1.5 2.7-1.6 1.2-1.2 1.9.5 3.1 1.6 1.2 2.1 2.1 2.1 3.6 0 1.7-1.6 3.9-5.6 3.9zm11.2-8.9h-2v2h-1.2v-2h-1.9v-1.2h1.9v-1.9h1.2v1.9h2v1.2zm-8.7-4.3c.2 1.8-.5 2.9-1.9 2.9s-2.7-1.3-2.9-3.1c-.2-1.8.7-3.2 2-3.1 1.4.1 2.6 1.5 2.8 3.3z" fill="#384048"/></g><defs><filter id="icon_x2F_Social_x2F_googleplus-fill-Adobe_OpacityMaskFilter" filterUnits="userSpaceOnUse" x="-8" y="-8" width="48" height="48"><feColorMatrix values="1 0 0 0 0 0 1 0 0 0 0 0 1 0 0 0 0 0 1 0"/></filter></defs><mask maskUnits="userSpaceOnUse" x="-8" y="-8" width="48" height="48" id="icon_x2F_Social_x2F_googleplus-fill-mask-2"><g filter="url(#icon_x2F_Social_x2F_googleplus-fill-Adobe_OpacityMaskFilter)"><path id="icon_x2F_Social_x2F_googleplus-fill-path-1" d="M16 0c8.8 0 16 7.2 16 16s-7.2 16-16 16S0 24.8 0 16 7.2 0 16 0zm-2.6 18.2c-2 0-3.8 1.3-3.8 2.8 0 1.5 1.5 2.8 3.5 2.8 2.6 0 3.8-1.2 3.8-2.7.1-1.5-1.3-2.9-3.5-2.9zm-.3 6.6c-2.9 0-5.4-1.3-5.4-3.4 0-1.6 1-3.8 5.9-3.8-.7-.6-.9-1.4-.5-2.3-2.9 0-4.3-1.7-4.3-3.8 0-2.1 1.5-4 4.7-4h5.1l-1.1 1.1h-1.3c.9.6 1.4 1.7 1.4 2.9 0 1.1-.6 2-1.5 2.7-1.6 1.2-1.2 1.9.5 3.1 1.6 1.2 2.1 2.1 2.1 3.6 0 1.7-1.6 3.9-5.6 3.9zm11.2-8.9h-2v2h-1.2v-2h-1.9v-1.2h1.9v-1.9h1.2v1.9h2v1.2zm-8.7-4.3c.2 1.8-.5 2.9-1.9 2.9s-2.7-1.3-2.9-3.1c-.2-1.8.7-3.2 2-3.1 1.4.1 2.6 1.5 2.8 3.3z" fill="#fff"/></g></mask><g id="icon_x2F_Social_x2F_googleplus-fill-Color_x2F_Grayscale_x2F_Night-Sky" mask="url(#icon_x2F_Social_x2F_googleplus-fill-mask-2)"><path fill="#111" d="M0 0h48v48H0z" transform="translate(-8 -8)" id="icon_x2F_Social_x2F_googleplus-fill-Swatch"/></g></g></g></g></svg>