<svg id="icon_x2F_Social_x2F_googleplus-line-Layer_1" xmlns="http://www.w3.org/2000/svg" viewBox="0 0 48 48" enable-background="new 0 0 48 48"><title>icon/Social/googleplus-line</title><g id="icon_x2F_Social_x2F_googleplus-line-Symbols"><g id="icon_x2F_Social_x2F_googleplus-line"><g id="icon_x2F_Social_x2F_googleplus-line-Icon" transform="translate(8 8)"><g id="icon_x2F_Social_x2F_googleplus-line-Mask"><path id="icon_x2F_Social_x2F_googleplus-line-path-1_1_" d="M16 1.8c7.8 0 14.2 6.3 14.2 14.2S23.8 30.2 16 30.2 1.8 23.8 1.8 16 8.2 1.8 16 1.8M16 0c8.8 0 16 7.2 16 16s-7.2 16-16 16S0 24.8 0 16 7.2 0 16 0zm.6 17.3c-1.6-1.2-2-1.9-.5-3.1.9-.7 1.5-1.6 1.5-2.7 0-1.2-.5-2.3-1.4-2.9h1.3l1.1-1.1h-5.1c-3.2 0-4.7 1.9-4.7 4s1.5 3.8 4.3 3.8c-.4.9-.3 1.7.5 2.3-4.9 0-5.9 2.1-5.9 3.8 0 2.1 2.4 3.4 5.4 3.4 4 0 5.6-2.1 5.6-3.9 0-1.4-.5-2.4-2.1-3.6zm-5.8-5.8c-.2-1.8.7-3.2 2-3.1 1.4 0 2.5 1.5 2.8 3.3.2 1.8-.5 2.9-1.9 2.9-1.4-.1-2.7-1.4-2.9-3.1m2.3 12.3c-2 0-3.5-1.3-3.5-2.8 0-1.5 1.7-2.8 3.8-2.8 2.3 0 3.6 1.4 3.6 2.9s-1.3 2.7-3.9 2.7m9.2-9.1v-1.9h-1.2v1.9h-1.9v1.2h1.9v2h1.2v-2h2v-1.2h-2" fill="#384048"/></g><defs><filter id="icon_x2F_Social_x2F_googleplus-line-Adobe_OpacityMaskFilter" filterUnits="userSpaceOnUse" x="-8" y="-8" width="48" height="48"><feColorMatrix values="1 0 0 0 0 0 1 0 0 0 0 0 1 0 0 0 0 0 1 0"/></filter></defs><mask maskUnits="userSpaceOnUse" x="-8" y="-8" width="48" height="48" id="icon_x2F_Social_x2F_googleplus-line-mask-2"><g filter="url(#icon_x2F_Social_x2F_googleplus-line-Adobe_OpacityMaskFilter)"><path id="icon_x2F_Social_x2F_googleplus-line-path-1" d="M16 1.8c7.8 0 14.2 6.3 14.2 14.2S23.8 30.2 16 30.2 1.8 23.8 1.8 16 8.2 1.8 16 1.8M16 0c8.8 0 16 7.2 16 16s-7.2 16-16 16S0 24.8 0 16 7.2 0 16 0zm.6 17.3c-1.6-1.2-2-1.9-.5-3.1.9-.7 1.5-1.6 1.5-2.7 0-1.2-.5-2.3-1.4-2.9h1.3l1.1-1.1h-5.1c-3.2 0-4.7 1.9-4.7 4s1.5 3.8 4.3 3.8c-.4.9-.3 1.7.5 2.3-4.9 0-5.9 2.1-5.9 3.8 0 2.1 2.4 3.4 5.4 3.4 4 0 5.6-2.1 5.6-3.9 0-1.4-.5-2.4-2.1-3.6zm-5.8-5.8c-.2-1.8.7-3.2 2-3.1 1.4 0 2.5 1.5 2.8 3.3.2 1.8-.5 2.9-1.9 2.9-1.4-.1-2.7-1.4-2.9-3.1m2.3 12.3c-2 0-3.5-1.3-3.5-2.8 0-1.5 1.7-2.8 3.8-2.8 2.3 0 3.6 1.4 3.6 2.9s-1.3 2.7-3.9 2.7m9.2-9.1v-1.9h-1.2v1.9h-1.9v1.2h1.9v2h1.2v-2h2v-1.2h-2" fill="#fff"/></g></mask><g id="icon_x2F_Social_x2F_googleplus-line-Color_x2F_Grayscale_x2F_Night-Sky" mask="url(#icon_x2F_Social_x2F_googleplus-line-mask-2)"><path fill="#111" d="M0 0h48v48H0z" transform="translate(-8 -8)" id="icon_x2F_Social_x2F_googleplus-line-Swatch"/></g></g></g></g></svg>