<?xml version="1.0" encoding="utf-8"?>
<!-- Generator: Adobe Illustrator 21.0.2, SVG Export Plug-In . SVG Version: 6.00 Build 0)  -->
<svg version="1.1" id="icon_x2F_Social_x2F_googleplus-fill-Layer_1" xmlns="http://www.w3.org/2000/svg" xmlns:xlink="http://www.w3.org/1999/xlink" x="0px" y="0px"
	 viewBox="0 0 48 48" style="enable-background:new 0 0 48 48;" xml:space="preserve">
<title>icon/Social/googleplus-fill</title>
<desc>Created with Sketch.</desc>
<g id="icon_x2F_Social_x2F_googleplus-fill-Symbols">
	<g id="icon_x2F_Social_x2F_googleplus-fill">
		<g id="icon_x2F_Social_x2F_googleplus-fill-Icon" transform="translate(8.000000, 8.000000)">
			<g id="icon_x2F_Social_x2F_googleplus-fill-Mask">
				<path id="icon_x2F_Social_x2F_googleplus-fill-path-1_1_" style="fill:#384048;" d="M16,0c8.8,0,16,7.2,16,16s-7.2,16-16,16S0,24.8,0,16S7.2,0,16,0z M13.4,18.2
					c-2,0-3.8,1.3-3.8,2.8c0,1.5,1.5,2.8,3.5,2.8c2.6,0,3.8-1.2,3.8-2.7C17,19.6,15.6,18.2,13.4,18.2z M13.1,24.8
					c-2.9,0-5.4-1.3-5.4-3.4c0-1.6,1-3.8,5.9-3.8c-0.7-0.6-0.9-1.4-0.5-2.3c-2.9,0-4.3-1.7-4.3-3.8c0-2.1,1.5-4,4.7-4h5.1l-1.1,1.1
					h-1.3c0.9,0.6,1.4,1.7,1.4,2.9c0,1.1-0.6,2-1.5,2.7c-1.6,1.2-1.2,1.9,0.5,3.1c1.6,1.2,2.1,2.1,2.1,3.6
					C18.7,22.6,17.1,24.8,13.1,24.8L13.1,24.8z M24.3,15.9h-2v2h-1.2v-2h-1.9v-1.2h1.9v-1.9h1.2v1.9h2V15.9z M15.6,11.6
					c0.2,1.8-0.5,2.9-1.9,2.9c-1.4,0-2.7-1.3-2.9-3.1c-0.2-1.8,0.7-3.2,2-3.1C14.2,8.4,15.4,9.8,15.6,11.6z"/>
			</g>
			<defs>
				<filter id="icon_x2F_Social_x2F_googleplus-fill-Adobe_OpacityMaskFilter" filterUnits="userSpaceOnUse" x="-8" y="-8" width="48" height="48">
					<feColorMatrix  type="matrix" values="1 0 0 0 0  0 1 0 0 0  0 0 1 0 0  0 0 0 1 0"/>
				</filter>
			</defs>
			<mask maskUnits="userSpaceOnUse" x="-8" y="-8" width="48" height="48" id="icon_x2F_Social_x2F_googleplus-fill-mask-2">
				<g style="filter:url(#icon_x2F_Social_x2F_googleplus-fill-Adobe_OpacityMaskFilter);">
					<path id="icon_x2F_Social_x2F_googleplus-fill-path-1" style="fill:#FFFFFF;" d="M16,0c8.8,0,16,7.2,16,16s-7.2,16-16,16S0,24.8,0,16S7.2,0,16,0z M13.4,18.2
						c-2,0-3.8,1.3-3.8,2.8c0,1.5,1.5,2.8,3.5,2.8c2.6,0,3.8-1.2,3.8-2.7C17,19.6,15.6,18.2,13.4,18.2z M13.1,24.8
						c-2.9,0-5.4-1.3-5.4-3.4c0-1.6,1-3.8,5.9-3.8c-0.7-0.6-0.9-1.4-0.5-2.3c-2.9,0-4.3-1.7-4.3-3.8c0-2.1,1.5-4,4.7-4h5.1l-1.1,1.1
						h-1.3c0.9,0.6,1.4,1.7,1.4,2.9c0,1.1-0.6,2-1.5,2.7c-1.6,1.2-1.2,1.9,0.5,3.1c1.6,1.2,2.1,2.1,2.1,3.6
						C18.7,22.6,17.1,24.8,13.1,24.8L13.1,24.8z M24.3,15.9h-2v2h-1.2v-2h-1.9v-1.2h1.9v-1.9h1.2v1.9h2V15.9z M15.6,11.6
						c0.2,1.8-0.5,2.9-1.9,2.9c-1.4,0-2.7-1.3-2.9-3.1c-0.2-1.8,0.7-3.2,2-3.1C14.2,8.4,15.4,9.8,15.6,11.6z"/>
				</g>
			</mask>
			<g id="icon_x2F_Social_x2F_googleplus-fill-Color_x2F_Grayscale_x2F_Night-Sky" style="mask:url(#icon_x2F_Social_x2F_googleplus-fill-mask-2);">
				<g id="icon_x2F_Social_x2F_googleplus-fill-Swatch" transform="translate(-8.000000, -8.000000)">
					<rect style="fill:#111111;" width="48" height="48"/>
				</g>
			</g>
		</g>
	</g>
</g>
</svg>
