<svg id="new-googleplus-line-Layer_1" xmlns="http://www.w3.org/2000/svg" viewBox="0 0 48 48"><g id="new-googleplus-line-Mask"><path id="new-googleplus-line-path-1_1_" d="M24.6 25.3c-1.6-1.2-2-1.9-.5-3.1.9-.7 1.5-1.6 1.5-2.7 0-1.2-.5-2.3-1.4-2.9h1.3l1.1-1.1h-5.1c-3.2 0-4.7 1.9-4.7 4s1.5 3.8 4.3 3.8c-.4.9-.3 1.7.5 2.3-4.9 0-5.9 2.1-5.9 3.8 0 2.1 2.4 3.4 5.4 3.4 4 0 5.6-2.1 5.6-3.9 0-1.4-.5-2.4-2.1-3.6zm-5.8-5.8c-.2-1.8.7-3.2 2-3.1 1.4 0 2.5 1.5 2.8 3.3.2 1.8-.5 2.9-1.9 2.9-1.4-.1-2.7-1.4-2.9-3.1m2.3 12.3c-2 0-3.5-1.3-3.5-2.8 0-1.5 1.7-2.8 3.8-2.8 2.3 0 3.6 1.4 3.6 2.9s-1.3 2.7-3.9 2.7m9.2-9.1v-1.9h-1.2v1.9h-1.9v1.2h1.9v2h1.2v-2h2v-1.2h-2" fill="#111"/></g><g id="new-googleplus-line-Mask_1_"><path id="new-googleplus-line-path-1_2_" d="M24 8c8.8 0 16 7.2 16 16s-7.2 16-16 16S8 32.8 8 24 15.2 8 24 8zm0 30.2c7.8 0 14.2-6.3 14.2-14.2S31.8 9.8 24 9.8 9.8 16.2 9.8 24 16.2 38.2 24 38.2z" fill="#111"/></g></svg>