<?xml version="1.0" encoding="utf-8"?>
<!-- Generator: Adobe Illustrator 21.0.2, SVG Export Plug-In . SVG Version: 6.00 Build 0)  -->
<svg version="1.1" id="icon_x2F_Social_x2F_googleplus-line-Layer_1" xmlns="http://www.w3.org/2000/svg" xmlns:xlink="http://www.w3.org/1999/xlink" x="0px" y="0px"
	 viewBox="0 0 48 48" style="enable-background:new 0 0 48 48;" xml:space="preserve">
<title>icon/Social/googleplus-line</title>
<desc>Created with Sketch.</desc>
<g id="icon_x2F_Social_x2F_googleplus-line-Symbols">
	<g id="icon_x2F_Social_x2F_googleplus-line">
		<g id="icon_x2F_Social_x2F_googleplus-line-Icon" transform="translate(8.000000, 8.000000)">
			<g id="icon_x2F_Social_x2F_googleplus-line-Mask">
				<path id="icon_x2F_Social_x2F_googleplus-line-path-1_1_" style="fill:#384048;" d="M16,1.8c7.8,0,14.2,6.3,14.2,14.2S23.8,30.2,16,30.2S1.8,23.8,1.8,16
					S8.2,1.8,16,1.8 M16,0c8.8,0,16,7.2,16,16s-7.2,16-16,16S0,24.8,0,16S7.2,0,16,0z M16.6,17.3c-1.6-1.2-2-1.9-0.5-3.1
					c0.9-0.7,1.5-1.6,1.5-2.7c0-1.2-0.5-2.3-1.4-2.9h1.3l1.1-1.1h-5.1c-3.2,0-4.7,1.9-4.7,4c0,2.1,1.5,3.8,4.3,3.8
					c-0.4,0.9-0.3,1.7,0.5,2.3c-4.9,0-5.9,2.1-5.9,3.8c0,2.1,2.4,3.4,5.4,3.4c4,0,5.6-2.1,5.6-3.9C18.7,19.5,18.2,18.5,16.6,17.3z
					 M10.8,11.5c-0.2-1.8,0.7-3.2,2-3.1c1.4,0,2.5,1.5,2.8,3.3c0.2,1.8-0.5,2.9-1.9,2.9C12.3,14.5,11,13.2,10.8,11.5 M13.1,23.8
					c-2,0-3.5-1.3-3.5-2.8c0-1.5,1.7-2.8,3.8-2.8c2.3,0,3.6,1.4,3.6,2.9C17,22.6,15.7,23.8,13.1,23.8 M22.3,14.7v-1.9h-1.2v1.9h-1.9
					v1.2h1.9v2h1.2v-2h2v-1.2H22.3"/>
			</g>
			<defs>
				<filter id="icon_x2F_Social_x2F_googleplus-line-Adobe_OpacityMaskFilter" filterUnits="userSpaceOnUse" x="-8" y="-8" width="48" height="48">
					<feColorMatrix  type="matrix" values="1 0 0 0 0  0 1 0 0 0  0 0 1 0 0  0 0 0 1 0"/>
				</filter>
			</defs>
			<mask maskUnits="userSpaceOnUse" x="-8" y="-8" width="48" height="48" id="icon_x2F_Social_x2F_googleplus-line-mask-2">
				<g style="filter:url(#icon_x2F_Social_x2F_googleplus-line-Adobe_OpacityMaskFilter);">
					<path id="icon_x2F_Social_x2F_googleplus-line-path-1" style="fill:#FFFFFF;" d="M16,1.8c7.8,0,14.2,6.3,14.2,14.2S23.8,30.2,16,30.2S1.8,23.8,1.8,16
						S8.2,1.8,16,1.8 M16,0c8.8,0,16,7.2,16,16s-7.2,16-16,16S0,24.8,0,16S7.2,0,16,0z M16.6,17.3c-1.6-1.2-2-1.9-0.5-3.1
						c0.9-0.7,1.5-1.6,1.5-2.7c0-1.2-0.5-2.3-1.4-2.9h1.3l1.1-1.1h-5.1c-3.2,0-4.7,1.9-4.7,4c0,2.1,1.5,3.8,4.3,3.8
						c-0.4,0.9-0.3,1.7,0.5,2.3c-4.9,0-5.9,2.1-5.9,3.8c0,2.1,2.4,3.4,5.4,3.4c4,0,5.6-2.1,5.6-3.9C18.7,19.5,18.2,18.5,16.6,17.3z
						 M10.8,11.5c-0.2-1.8,0.7-3.2,2-3.1c1.4,0,2.5,1.5,2.8,3.3c0.2,1.8-0.5,2.9-1.9,2.9C12.3,14.5,11,13.2,10.8,11.5 M13.1,23.8
						c-2,0-3.5-1.3-3.5-2.8c0-1.5,1.7-2.8,3.8-2.8c2.3,0,3.6,1.4,3.6,2.9C17,22.6,15.7,23.8,13.1,23.8 M22.3,14.7v-1.9h-1.2v1.9
						h-1.9v1.2h1.9v2h1.2v-2h2v-1.2H22.3"/>
				</g>
			</mask>
			<g id="icon_x2F_Social_x2F_googleplus-line-Color_x2F_Grayscale_x2F_Night-Sky" style="mask:url(#icon_x2F_Social_x2F_googleplus-line-mask-2);">
				<g id="icon_x2F_Social_x2F_googleplus-line-Swatch" transform="translate(-8.000000, -8.000000)">
					<rect style="fill:#111111;" width="48" height="48"/>
				</g>
			</g>
		</g>
	</g>
</g>
</svg>
