<svg xmlns="http://www.w3.org/2000/svg" xmlns:xlink="http://www.w3.org/1999/xlink" width="32" height="32" viewBox="0 0 32 32">
  <defs>
    <path id="instagram-line-a" d="M12,0 C18.6274615,0 24,5.37253846 24,12 C24,18.6274615 18.6274615,24 12,24 C5.37253846,24 0,18.6274615 0,12 C0,5.37253846 5.37253846,0 12,0 Z M12,22.6153846 C17.8533462,22.6153846 22.6153846,17.8533462 22.6153846,12 C22.6153846,6.14665385 17.8533462,1.38461538 12,1.38461538 C6.14665385,1.38461538 1.38461538,6.14665385 1.38461538,12 C1.38461538,17.8533462 6.14665385,22.6153846 12,22.6153846 Z M11.998119,7.08452381 C13.5996667,7.08452381 13.789381,7.09064286 14.4218571,7.1195 C15.0066667,7.14616667 15.3242619,7.24388095 15.535619,7.32602381 C15.8155952,7.43483333 16.0154048,7.56480952 16.2252857,7.77471429 C16.4351905,7.98459524 16.5651667,8.18440476 16.6739762,8.46438095 C16.756119,8.6757381 16.8538333,8.99333333 16.8805,9.57814286 C16.9093571,10.210619 16.9154762,10.4003333 16.9154762,12.0019048 C16.9154762,13.6034524 16.9093571,13.7931667 16.8805,14.4256429 C16.8538333,15.0104524 16.756119,15.3280476 16.6739762,15.5394048 C16.5651667,15.819381 16.4351905,16.0191905 16.2252857,16.2290714 C16.0154048,16.4389762 15.8155952,16.5689524 15.535619,16.6777619 C15.3242619,16.7599048 15.0066667,16.857619 14.4218571,16.8842857 C13.7894762,16.9131429 13.5997857,16.9192619 11.998119,16.9192619 C10.3964286,16.9192619 10.2067619,16.9131429 9.57435714,16.8842857 C8.98954762,16.857619 8.67195238,16.7599048 8.46059524,16.6777619 C8.18061905,16.5689524 7.98080952,16.4389762 7.77092857,16.2290714 C7.56104762,16.0191905 7.43104762,15.819381 7.3222381,15.5394048 C7.24009524,15.3280476 7.14238095,15.0104524 7.11571429,14.4256429 C7.08685714,13.7931667 7.0807381,13.6034524 7.0807381,12.0019048 C7.0807381,10.4003333 7.08685714,10.210619 7.11571429,9.57814286 C7.14238095,8.99333333 7.24009524,8.6757381 7.3222381,8.46438095 C7.43104762,8.18440476 7.56102381,7.98459524 7.77092857,7.77471429 C7.98080952,7.56480952 8.18061905,7.43483333 8.46059524,7.32602381 C8.67195238,7.24388095 8.98954762,7.14616667 9.57435714,7.1195 C10.2068333,7.09064286 10.3965476,7.08452381 11.998119,7.08452381 Z M11.998119,8.92178571 C10.297,8.92178571 8.918,10.3007857 8.918,12.0019048 C8.918,13.703 10.297,15.082 11.998119,15.082 C13.6992143,15.082 15.0782143,13.703 15.0782143,12.0019048 C15.0782143,10.3007857 13.6992143,8.92178571 11.998119,8.92178571 Z M15.9196905,8.80009524 C15.9196905,8.40257143 15.5974286,8.08030952 15.1999048,8.08030952 C14.8024048,8.08030952 14.4801429,8.40257143 14.4801429,8.80009524 C14.4801429,9.19761905 14.8024048,9.51985714 15.1999048,9.51985714 C15.5974286,9.51985714 15.9196905,9.19761905 15.9196905,8.80009524 Z M11.998119,14.0012619 C10.893881,14.0012619 9.9987381,13.106119 9.9987381,12.0019048 C9.9987381,10.8976667 10.893881,10.0025238 11.998119,10.0025238 C13.1023333,10.0025238 13.9974762,10.8976667 13.9974762,12.0019048 C13.9974762,13.106119 13.1023333,14.0012619 11.998119,14.0012619 Z"/>
  </defs>
  <g fill="none" fill-rule="evenodd" transform="translate(4 4)">
    <use fill="#384048" xlink:href="#instagram-line-a"/>
  </g>
</svg>
