<?xml version="1.0" encoding="utf-8"?>
<!-- Generator: Adobe Illustrator 21.0.2, SVG Export Plug-In . SVG Version: 6.00 Build 0)  -->
<svg version="1.1" id="Layer_1" xmlns="http://www.w3.org/2000/svg" xmlns:xlink="http://www.w3.org/1999/xlink" x="0px" y="0px"
	 viewBox="0 0 48 48" style="enable-background:new 0 0 48 48;" xml:space="preserve">
<title>icon/Social/pinterest-fill</title>
<desc>Created with Sketch.</desc>
<g id="Symbols">
	<g id="icon_x2F_Social_x2F_pinterest-fill">
		<g id="icon_x2F_Social_x2F_pinterest-fill-Icon" transform="translate(8.000000, 8.000000)">
			<g id="icon_x2F_Social_x2F_pinterest-fill-Mask">
				<path id="icon_x2F_Social_x2F_pinterest-fill-path-1_1_" style="fill:#384048;" d="M16,0C7.2,0,0,7.2,0,16s7.2,16,16,16s16-7.2,16-16S24.8,0,16,0L16,0z M17.3,20.1
					c-1.1,0-2.1-0.6-2.4-1.2c0,0-0.6,2.3-0.7,2.7c-0.4,1.6-1.7,3.1-1.8,3.2c-0.1,0.1-0.2,0.1-0.2-0.1c0-0.2-0.3-2.2,0-3.8
					c0.2-0.8,1.3-5.4,1.3-5.4s-0.3-0.6-0.3-1.6c0-1.5,0.9-2.6,1.9-2.6c0.9,0,1.3,0.7,1.3,1.5c0,0.9-0.6,2.3-0.9,3.5
					c-0.2,1.1,0.5,1.9,1.6,1.9c1.9,0,3.1-2.4,3.1-5.3c0-2.2-1.5-3.8-4.1-3.8c-3,0-4.9,2.2-4.9,4.7c0,0.9,0.3,1.5,0.7,1.9
					c0.2,0.2,0.2,0.3,0.1,0.6c0,0.2-0.2,0.6-0.2,0.8c-0.1,0.3-0.3,0.3-0.5,0.2c-1.4-0.6-2-2.1-2-3.8c0-2.8,2.4-6.2,7.1-6.2
					c3.8,0,6.3,2.7,6.3,5.7C22.7,17.2,20.5,20.1,17.3,20.1L17.3,20.1z"/>
			</g>
			<defs>
				<filter id="Adobe_OpacityMaskFilter" filterUnits="userSpaceOnUse" x="-8" y="-8" width="48" height="48">
					<feColorMatrix  type="matrix" values="1 0 0 0 0  0 1 0 0 0  0 0 1 0 0  0 0 0 1 0"/>
				</filter>
			</defs>
			<mask maskUnits="userSpaceOnUse" x="-8" y="-8" width="48" height="48" id="icon_x2F_Social_x2F_pinterest-fill-mask-2">
				<g style="filter:url(#Adobe_OpacityMaskFilter);">
					<path id="icon_x2F_Social_x2F_pinterest-fill-path-1" style="fill:#FFFFFF;" d="M16,0C7.2,0,0,7.2,0,16s7.2,16,16,16s16-7.2,16-16S24.8,0,16,0L16,0z M17.3,20.1
						c-1.1,0-2.1-0.6-2.4-1.2c0,0-0.6,2.3-0.7,2.7c-0.4,1.6-1.7,3.1-1.8,3.2c-0.1,0.1-0.2,0.1-0.2-0.1c0-0.2-0.3-2.2,0-3.8
						c0.2-0.8,1.3-5.4,1.3-5.4s-0.3-0.6-0.3-1.6c0-1.5,0.9-2.6,1.9-2.6c0.9,0,1.3,0.7,1.3,1.5c0,0.9-0.6,2.3-0.9,3.5
						c-0.2,1.1,0.5,1.9,1.6,1.9c1.9,0,3.1-2.4,3.1-5.3c0-2.2-1.5-3.8-4.1-3.8c-3,0-4.9,2.2-4.9,4.7c0,0.9,0.3,1.5,0.7,1.9
						c0.2,0.2,0.2,0.3,0.1,0.6c0,0.2-0.2,0.6-0.2,0.8c-0.1,0.3-0.3,0.3-0.5,0.2c-1.4-0.6-2-2.1-2-3.8c0-2.8,2.4-6.2,7.1-6.2
						c3.8,0,6.3,2.7,6.3,5.7C22.7,17.2,20.5,20.1,17.3,20.1L17.3,20.1z"/>
				</g>
			</mask>
			<g id="icon_x2F_Social_x2F_pinterest-fill-Color_x2F_Grayscale_x2F_Night-Sky" style="mask:url(#icon_x2F_Social_x2F_pinterest-fill-mask-2);">
				<g id="Swatch" transform="translate(-8.000000, -8.000000)">
					<rect style="fill:#111111;" width="48" height="48"/>
				</g>
			</g>
		</g>
	</g>
</g>
</svg>
