<?xml version="1.0" encoding="utf-8"?>
<!-- Generator: Adobe Illustrator 21.0.2, SVG Export Plug-In . SVG Version: 6.00 Build 0)  -->
<svg version="1.1" id="icon_x2F_Social_x2F_pinterest-line-Layer_1" xmlns="http://www.w3.org/2000/svg" xmlns:xlink="http://www.w3.org/1999/xlink" x="0px" y="0px"
	 viewBox="0 0 48 48" style="enable-background:new 0 0 48 48;" xml:space="preserve">
<title>icon/Social/pinterest-line</title>
<desc>Created with Sketch.</desc>
<g id="icon_x2F_Social_x2F_pinterest-line-Symbols">
	<g id="icon_x2F_Social_x2F_pinterest-line">
		<g id="icon_x2F_Social_x2F_pinterest-line-Icon" transform="translate(8.000000, 8.000000)">
			<g id="icon_x2F_Social_x2F_pinterest-line-Mask">
				<path id="icon_x2F_Social_x2F_pinterest-line-path-1_1_" style="fill:#384048;" d="M16,0c8.8,0,16,7.2,16,16s-7.2,16-16,16S0,24.8,0,16S7.2,0,16,0z M16,1.8
					C8.2,1.8,1.8,8.2,1.8,16S8.2,30.2,16,30.2S30.2,23.8,30.2,16S23.8,1.8,16,1.8z M16.2,8.2c3.8,0,6.3,2.7,6.3,5.7
					c0,3.9-2.2,6.8-5.3,6.8c-1.1,0-2.1-0.6-2.4-1.2c0,0-0.6,2.3-0.7,2.7c-0.4,1.6-1.7,3.1-1.8,3.2c-0.1,0.1-0.2,0.1-0.2-0.1
					c0-0.2-0.3-2.2,0-3.8c0.2-0.8,1.3-5.4,1.3-5.4S13,15.6,13,14.6c0-1.5,0.9-2.6,1.9-2.6c0.9,0,1.3,0.7,1.3,1.5
					c0,0.9-0.6,2.3-0.9,3.5c-0.2,1.1,0.5,1.9,1.6,1.9c1.9,0,3.1-2.4,3.1-5.3c0-2.2-1.5-3.8-4.1-3.8c-3,0-4.9,2.2-4.9,4.7
					c0,0.9,0.3,1.5,0.7,1.9c0.2,0.2,0.2,0.3,0.1,0.6c0,0.2-0.2,0.6-0.2,0.8c-0.1,0.3-0.3,0.3-0.5,0.2c-1.4-0.6-2-2.1-2-3.8
					C9.1,11.6,11.5,8.2,16.2,8.2z"/>
			</g>
			<defs>
				<filter id="icon_x2F_Social_x2F_pinterest-line-Adobe_OpacityMaskFilter" filterUnits="userSpaceOnUse" x="-8" y="-8" width="48" height="48">
					<feColorMatrix  type="matrix" values="1 0 0 0 0  0 1 0 0 0  0 0 1 0 0  0 0 0 1 0"/>
				</filter>
			</defs>
			<mask maskUnits="userSpaceOnUse" x="-8" y="-8" width="48" height="48" id="icon_x2F_Social_x2F_pinterest-line-mask-2">
				<g style="filter:url(#icon_x2F_Social_x2F_pinterest-line-Adobe_OpacityMaskFilter);">
					<path id="icon_x2F_Social_x2F_pinterest-line-path-1" style="fill:#FFFFFF;" d="M16,0c8.8,0,16,7.2,16,16s-7.2,16-16,16S0,24.8,0,16S7.2,0,16,0z M16,1.8
						C8.2,1.8,1.8,8.2,1.8,16S8.2,30.2,16,30.2S30.2,23.8,30.2,16S23.8,1.8,16,1.8z M16.2,8.2c3.8,0,6.3,2.7,6.3,5.7
						c0,3.9-2.2,6.8-5.3,6.8c-1.1,0-2.1-0.6-2.4-1.2c0,0-0.6,2.3-0.7,2.7c-0.4,1.6-1.7,3.1-1.8,3.2c-0.1,0.1-0.2,0.1-0.2-0.1
						c0-0.2-0.3-2.2,0-3.8c0.2-0.8,1.3-5.4,1.3-5.4S13,15.6,13,14.6c0-1.5,0.9-2.6,1.9-2.6c0.9,0,1.3,0.7,1.3,1.5
						c0,0.9-0.6,2.3-0.9,3.5c-0.2,1.1,0.5,1.9,1.6,1.9c1.9,0,3.1-2.4,3.1-5.3c0-2.2-1.5-3.8-4.1-3.8c-3,0-4.9,2.2-4.9,4.7
						c0,0.9,0.3,1.5,0.7,1.9c0.2,0.2,0.2,0.3,0.1,0.6c0,0.2-0.2,0.6-0.2,0.8c-0.1,0.3-0.3,0.3-0.5,0.2c-1.4-0.6-2-2.1-2-3.8
						C9.1,11.6,11.5,8.2,16.2,8.2z"/>
				</g>
			</mask>
			<g id="icon_x2F_Social_x2F_pinterest-line-Color_x2F_Grayscale_x2F_Night-Sky" style="mask:url(#icon_x2F_Social_x2F_pinterest-line-mask-2);">
				<g id="icon_x2F_Social_x2F_pinterest-line-Swatch" transform="translate(-8.000000, -8.000000)">
					<rect style="fill:#111111;" width="48" height="48"/>
				</g>
			</g>
		</g>
	</g>
</g>
</svg>
