<?xml version="1.0" encoding="UTF-8"?>
<svg width="48px" height="48px" viewBox="0 0 48 48" version="1.1" xmlns="http://www.w3.org/2000/svg" xmlns:xlink="http://www.w3.org/1999/xlink">
    <!-- Generator: Sketch 46.2 (44496) - http://www.bohemiancoding.com/sketch -->
    <title>icon/Social/pinterest-fill</title>
    <desc>Created with Sketch.</desc>
    <defs>
        <path d="M16,0 C7.16338462,0 0,7.16338462 0,16 C0,24.8366154 7.16338462,32 16,32 C24.8366154,32 32,24.8366154 32,16 C32,7.16338462 24.8366154,0 16,0 L16,0 Z M17.3293846,20.1450769 C16.2606154,20.1450769 15.2556923,19.5673846 14.9118462,18.9115385 C14.9118462,18.9115385 14.3367692,21.1916923 14.2155385,21.632 C13.7870769,23.1870769 12.5264615,24.7435385 12.4286154,24.8707692 C12.3604615,24.9593846 12.2095385,24.9316923 12.1935385,24.8143077 C12.1663077,24.6161538 11.8450769,22.6538462 12.2233846,21.0530769 C12.4132308,20.2493846 13.4963077,15.6601538 13.4963077,15.6601538 C13.4963077,15.6601538 13.1806154,15.0281538 13.1806154,14.094 C13.1806154,12.6272308 14.0309231,11.5323077 15.0893846,11.5323077 C15.9892308,11.5323077 16.4241538,12.208 16.4241538,13.018 C16.4241538,13.9230769 15.8478462,15.2761538 15.5503077,16.5298462 C15.302,17.58 16.0770769,18.4364615 17.1123077,18.4364615 C18.9873846,18.4364615 20.2504615,16.0278462 20.2504615,13.1741538 C20.2504615,11.0053846 18.7898462,9.38153846 16.132,9.38153846 C13.1306154,9.38153846 11.2590769,11.6207692 11.2590769,14.1216923 C11.2590769,14.9838462 11.5136923,15.5924615 11.9124615,16.0626154 C12.0953846,16.2790769 12.1212308,16.366 12.0549231,16.6143077 C12.0064615,16.7967692 11.8983077,17.2346154 11.8527692,17.4084615 C11.7867692,17.6593846 11.5836923,17.7489231 11.3572308,17.6561538 C9.97492308,17.0918462 9.33061538,15.5772308 9.33061538,13.8750769 C9.33046154,11.0636923 11.7012308,7.69230769 16.4035385,7.69230769 C20.1823077,7.69230769 22.6695385,10.4263077 22.6695385,13.3621538 C22.6695385,17.2446154 20.5104615,20.1450769 17.3293846,20.1450769 L17.3293846,20.1450769 Z" id="path-1"></path>
    </defs>
    <g id="Symbols" stroke="none" stroke-width="1" fill="none" fill-rule="evenodd">
        <g id="icon/Social/pinterest-fill">
            <g id="Icon" transform="translate(8.000000, 8.000000)">
                <mask id="mask-2" fill="white">
                    <use xlink:href="#path-1"></use>
                </mask>
                <use id="Mask" fill="#384048" xlink:href="#path-1"></use>
                <g id="Color/Grayscale/Night-Sky" mask="url(#mask-2)" fill="#111111">
                    <g transform="translate(-8.000000, -8.000000)" id="Swatch">
                        <rect x="0" y="0" width="48" height="48"></rect>
                    </g>
                </g>
            </g>
        </g>
    </g>
</svg>