<svg id="icon_x2F_Social_x2F_pinterest-line-Layer_1" xmlns="http://www.w3.org/2000/svg" viewBox="0 0 48 48" enable-background="new 0 0 48 48"><title>icon/Social/pinterest-line</title><g id="icon_x2F_Social_x2F_pinterest-line-Symbols"><g id="icon_x2F_Social_x2F_pinterest-line"><g id="icon_x2F_Social_x2F_pinterest-line-Icon" transform="translate(8 8)"><g id="icon_x2F_Social_x2F_pinterest-line-Mask"><path id="icon_x2F_Social_x2F_pinterest-line-path-1_1_" d="M16 0c8.8 0 16 7.2 16 16s-7.2 16-16 16S0 24.8 0 16 7.2 0 16 0zm0 1.8C8.2 1.8 1.8 8.2 1.8 16S8.2 30.2 16 30.2 30.2 23.8 30.2 16 23.8 1.8 16 1.8zm.2 6.4c3.8 0 6.3 2.7 6.3 5.7 0 3.9-2.2 6.8-5.3 6.8-1.1 0-2.1-.6-2.4-1.2 0 0-.6 2.3-.7 2.7-.4 1.6-1.7 3.1-1.8 3.2-.1.1-.2.1-.2-.1s-.3-2.2 0-3.8c.2-.8 1.3-5.4 1.3-5.4s-.4-.5-.4-1.5c0-1.5.9-2.6 1.9-2.6.9 0 1.3.7 1.3 1.5 0 .9-.6 2.3-.9 3.5-.2 1.1.5 1.9 1.6 1.9 1.9 0 3.1-2.4 3.1-5.3 0-2.2-1.5-3.8-4.1-3.8-3 0-4.9 2.2-4.9 4.7 0 .9.3 1.5.7 1.9.2.2.2.3.1.6 0 .2-.2.6-.2.8-.1.3-.3.3-.5.2-1.4-.6-2-2.1-2-3.8 0-2.6 2.4-6 7.1-6z" fill="#384048"/></g><defs><filter id="icon_x2F_Social_x2F_pinterest-line-Adobe_OpacityMaskFilter" filterUnits="userSpaceOnUse" x="-8" y="-8" width="48" height="48"><feColorMatrix values="1 0 0 0 0 0 1 0 0 0 0 0 1 0 0 0 0 0 1 0"/></filter></defs><mask maskUnits="userSpaceOnUse" x="-8" y="-8" width="48" height="48" id="icon_x2F_Social_x2F_pinterest-line-mask-2"><g filter="url(#icon_x2F_Social_x2F_pinterest-line-Adobe_OpacityMaskFilter)"><path id="icon_x2F_Social_x2F_pinterest-line-path-1" d="M16 0c8.8 0 16 7.2 16 16s-7.2 16-16 16S0 24.8 0 16 7.2 0 16 0zm0 1.8C8.2 1.8 1.8 8.2 1.8 16S8.2 30.2 16 30.2 30.2 23.8 30.2 16 23.8 1.8 16 1.8zm.2 6.4c3.8 0 6.3 2.7 6.3 5.7 0 3.9-2.2 6.8-5.3 6.8-1.1 0-2.1-.6-2.4-1.2 0 0-.6 2.3-.7 2.7-.4 1.6-1.7 3.1-1.8 3.2-.1.1-.2.1-.2-.1s-.3-2.2 0-3.8c.2-.8 1.3-5.4 1.3-5.4s-.4-.5-.4-1.5c0-1.5.9-2.6 1.9-2.6.9 0 1.3.7 1.3 1.5 0 .9-.6 2.3-.9 3.5-.2 1.1.5 1.9 1.6 1.9 1.9 0 3.1-2.4 3.1-5.3 0-2.2-1.5-3.8-4.1-3.8-3 0-4.9 2.2-4.9 4.7 0 .9.3 1.5.7 1.9.2.2.2.3.1.6 0 .2-.2.6-.2.8-.1.3-.3.3-.5.2-1.4-.6-2-2.1-2-3.8 0-2.6 2.4-6 7.1-6z" fill="#fff"/></g></mask><g id="icon_x2F_Social_x2F_pinterest-line-Color_x2F_Grayscale_x2F_Night-Sky" mask="url(#icon_x2F_Social_x2F_pinterest-line-mask-2)"><path fill="#111" d="M0 0h48v48H0z" transform="translate(-8 -8)" id="icon_x2F_Social_x2F_pinterest-line-Swatch"/></g></g></g></g></svg>