<?xml version="1.0" encoding="utf-8"?>
<!-- Generator: Adobe Illustrator 21.0.2, SVG Export Plug-In . SVG Version: 6.00 Build 0)  -->
<svg version="1.1" id="icon_x2F_Social_x2F_twitter-fill-Layer_1" xmlns="http://www.w3.org/2000/svg" xmlns:xlink="http://www.w3.org/1999/xlink" x="0px" y="0px"
	 viewBox="0 0 48 48" style="enable-background:new 0 0 48 48;" xml:space="preserve">
<title>icon/Social/twitter-fill</title>
<desc>Created with Sketch.</desc>
<g id="icon_x2F_Social_x2F_twitter-fill-Symbols">
	<g id="icon_x2F_Social_x2F_twitter-fill">
		<g id="icon_x2F_Social_x2F_twitter-fill-Icon" transform="translate(8.000000, 8.000000)">
			<g id="icon_x2F_Social_x2F_twitter-fill-Mask">
				<path id="icon_x2F_Social_x2F_twitter-fill-path-1_1_" style="fill:#384048;" d="M16,0C7.2,0,0,7.2,0,16s7.2,16,16,16s16-7.2,16-16S24.8,0,16,0L16,0z M24.3,12.3
					c0,0.2,0,0.3,0,0.5c0,5.3-4.1,11.5-11.5,11.5c-2.3,0-4.4-0.7-6.2-1.8c0.3,0,0.6,0.1,1,0.1c1.9,0,3.6-0.6,5-1.7
					c-1.8,0-3.3-1.2-3.8-2.8c0.2,0,0.5,0.1,0.8,0.1c0.4,0,0.7,0,1.1-0.1c-1.8-0.4-3.2-2-3.2-4c0,0,0,0,0-0.1
					c0.5,0.3,1.2,0.5,1.8,0.5c-1.1-0.7-1.8-2-1.8-3.4c0-0.7,0.2-1.4,0.5-2c2,2.4,5,4.1,8.3,4.2c-0.1-0.3-0.1-0.6-0.1-0.9
					c0-2.2,1.8-4,4-4c1.2,0,2.2,0.5,2.9,1.3c0.9-0.2,1.8-0.5,2.6-1c-0.3,0.9-0.9,1.7-1.8,2.2c0.8-0.1,1.6-0.3,2.3-0.6
					C25.8,11,25.1,11.7,24.3,12.3L24.3,12.3z"/>
			</g>
			<defs>
				<filter id="icon_x2F_Social_x2F_twitter-fill-Adobe_OpacityMaskFilter" filterUnits="userSpaceOnUse" x="-8" y="-8" width="48" height="48">
					<feColorMatrix  type="matrix" values="1 0 0 0 0  0 1 0 0 0  0 0 1 0 0  0 0 0 1 0"/>
				</filter>
			</defs>
			<mask maskUnits="userSpaceOnUse" x="-8" y="-8" width="48" height="48" id="icon_x2F_Social_x2F_twitter-fill-mask-2">
				<g style="filter:url(#icon_x2F_Social_x2F_twitter-fill-Adobe_OpacityMaskFilter);">
					<path id="icon_x2F_Social_x2F_twitter-fill-path-1" style="fill:#FFFFFF;" d="M16,0C7.2,0,0,7.2,0,16s7.2,16,16,16s16-7.2,16-16S24.8,0,16,0L16,0z M24.3,12.3
						c0,0.2,0,0.3,0,0.5c0,5.3-4.1,11.5-11.5,11.5c-2.3,0-4.4-0.7-6.2-1.8c0.3,0,0.6,0.1,1,0.1c1.9,0,3.6-0.6,5-1.7
						c-1.8,0-3.3-1.2-3.8-2.8c0.2,0,0.5,0.1,0.8,0.1c0.4,0,0.7,0,1.1-0.1c-1.8-0.4-3.2-2-3.2-4c0,0,0,0,0-0.1
						c0.5,0.3,1.2,0.5,1.8,0.5c-1.1-0.7-1.8-2-1.8-3.4c0-0.7,0.2-1.4,0.5-2c2,2.4,5,4.1,8.3,4.2c-0.1-0.3-0.1-0.6-0.1-0.9
						c0-2.2,1.8-4,4-4c1.2,0,2.2,0.5,2.9,1.3c0.9-0.2,1.8-0.5,2.6-1c-0.3,0.9-0.9,1.7-1.8,2.2c0.8-0.1,1.6-0.3,2.3-0.6
						C25.8,11,25.1,11.7,24.3,12.3L24.3,12.3z"/>
				</g>
			</mask>
			<g id="icon_x2F_Social_x2F_twitter-fill-Color_x2F_Grayscale_x2F_Night-Sky" style="mask:url(#icon_x2F_Social_x2F_twitter-fill-mask-2);">
				<g id="icon_x2F_Social_x2F_twitter-fill-Swatch" transform="translate(-8.000000, -8.000000)">
					<rect style="fill:#111111;" width="48" height="48"/>
				</g>
			</g>
		</g>
	</g>
</g>
</svg>
