<?xml version="1.0" encoding="utf-8"?>
<svg version="1.1" id="icon_x2F_Social_x2F_twitter-line-Layer_1"
	 xmlns="http://www.w3.org/2000/svg" xmlns:xlink="http://www.w3.org/1999/xlink" x="0px" y="0px" viewBox="0 0 48 48"
	 style="enable-background:new 0 0 48 48;" xml:space="preserve">
<path id="icon_x2F_Social_x2F_twitter-line-path-1_1_" style="fill:#111111;" d="M24,8c8.8,0,16,7.2,16,16s-7.2,16-16,16
	S8,32.8,8,24S15.2,8,24,8z M24,38.2c7.8,0,14.2-6.3,14.2-14.2S31.8,9.8,24,9.8S9.8,16.2,9.8,24S16.2,38.2,24,38.2z M31.8,18.8
	c0.8-0.1,1.6-0.3,2.3-0.6c-0.5,0.8-1.2,1.5-2,2.1v0.5c0,5.3-4.1,11.5-11.5,11.5c-2.3,0-4.4-0.7-6.2-1.8c0.3,0,0.6,0.1,1,0.1
	c1.9,0,3.6-0.6,5-1.7c-1.8,0-3.3-1.2-3.8-2.8c0.3-0.1,0.5-0.1,0.8-0.1c0.4,0,0.7,0,1.1-0.1c-1.8-0.4-3.2-2-3.2-4v-0.1
	c0.5,0.3,1.2,0.5,1.8,0.5c-1.1-0.7-1.8-2-1.8-3.4c0-0.7,0.2-1.4,0.5-2c2,2.4,5,4.1,8.3,4.2C24,20.9,24,20.6,24,20.3c0-2.2,1.8-4,4-4
	c1.2,0,2.2,0.5,2.9,1.3c0.9-0.2,1.8-0.5,2.6-1C33.2,17.5,32.6,18.3,31.8,18.8z"/>
</svg>
