<svg id="icon_x2F_Social_x2F_twitter-line-Layer_1" xmlns="http://www.w3.org/2000/svg" viewBox="0 0 48 48" enable-background="new 0 0 48 48"><title>icon/Social/twitter-line</title><g id="icon_x2F_Social_x2F_twitter-line-Symbols"><g id="icon_x2F_Social_x2F_twitter-line"><g id="icon_x2F_Social_x2F_twitter-line-Icon" transform="translate(8 8)"><g id="icon_x2F_Social_x2F_twitter-line-Mask"><path id="icon_x2F_Social_x2F_twitter-line-path-1_1_" d="M16 0c8.8 0 16 7.2 16 16s-7.2 16-16 16S0 24.8 0 16 7.2 0 16 0zm0 30.2c7.8 0 14.2-6.3 14.2-14.2S23.8 1.8 16 1.8 1.8 8.2 1.8 16 8.2 30.2 16 30.2zm7.8-19.4c.8-.1 1.6-.3 2.3-.6-.5.8-1.2 1.5-2 2.1v.5c0 5.3-4.1 11.5-11.5 11.5-2.3 0-4.4-.7-6.2-1.8.3 0 .6.1 1 .1 1.9 0 3.6-.6 5-1.7-1.8 0-3.3-1.2-3.8-2.8.3-.1.5-.1.8-.1.4 0 .7 0 1.1-.1-1.8-.4-3.2-2-3.2-4v-.1c.5.3 1.2.5 1.8.5-1.1-.7-1.8-2-1.8-3.4 0-.7.2-1.4.5-2 2 2.4 5 4.1 8.3 4.2-.1-.2-.1-.5-.1-.8 0-2.2 1.8-4 4-4 1.2 0 2.2.5 2.9 1.3.9-.2 1.8-.5 2.6-1-.3.9-.9 1.7-1.7 2.2z" fill="#384048"/></g><defs><filter id="icon_x2F_Social_x2F_twitter-line-Adobe_OpacityMaskFilter" filterUnits="userSpaceOnUse" x="-8" y="-8" width="48" height="48"><feColorMatrix values="1 0 0 0 0 0 1 0 0 0 0 0 1 0 0 0 0 0 1 0"/></filter></defs><mask maskUnits="userSpaceOnUse" x="-8" y="-8" width="48" height="48" id="icon_x2F_Social_x2F_twitter-line-mask-2"><g filter="url(#icon_x2F_Social_x2F_twitter-line-Adobe_OpacityMaskFilter)"><path id="icon_x2F_Social_x2F_twitter-line-path-1" d="M16 0c8.8 0 16 7.2 16 16s-7.2 16-16 16S0 24.8 0 16 7.2 0 16 0zm0 30.2c7.8 0 14.2-6.3 14.2-14.2S23.8 1.8 16 1.8 1.8 8.2 1.8 16 8.2 30.2 16 30.2zm7.8-19.4c.8-.1 1.6-.3 2.3-.6-.5.8-1.2 1.5-2 2.1v.5c0 5.3-4.1 11.5-11.5 11.5-2.3 0-4.4-.7-6.2-1.8.3 0 .6.1 1 .1 1.9 0 3.6-.6 5-1.7-1.8 0-3.3-1.2-3.8-2.8.3-.1.5-.1.8-.1.4 0 .7 0 1.1-.1-1.8-.4-3.2-2-3.2-4v-.1c.5.3 1.2.5 1.8.5-1.1-.7-1.8-2-1.8-3.4 0-.7.2-1.4.5-2 2 2.4 5 4.1 8.3 4.2-.1-.2-.1-.5-.1-.8 0-2.2 1.8-4 4-4 1.2 0 2.2.5 2.9 1.3.9-.2 1.8-.5 2.6-1-.3.9-.9 1.7-1.7 2.2z" fill="#fff"/></g></mask><g id="icon_x2F_Social_x2F_twitter-line-Color_x2F_Grayscale_x2F_Night-Sky" mask="url(#icon_x2F_Social_x2F_twitter-line-mask-2)"><path fill="#111" d="M0 0h48v48H0z" transform="translate(-8 -8)" id="icon_x2F_Social_x2F_twitter-line-Swatch"/></g></g></g></g></svg>