<svg xmlns="http://www.w3.org/2000/svg" xmlns:xlink="http://www.w3.org/1999/xlink" width="32" height="32" viewBox="0 0 32 32">
  <defs>
    <path id="twitter-fill-a" d="M12,0 C5.37253846,0 0,5.37253846 0,12 C0,18.6274615 5.37253846,24 12,24 C18.6274615,24 24,18.6274615 24,12 C24,5.37253846 18.6274615,0 12,0 L12,0 Z M18.2175,9.21946154 C18.2233846,9.34938462 18.2262692,9.48 18.2262692,9.61142308 C18.2262692,13.6145769 15.1791923,18.2307692 9.60703846,18.2307692 C7.89623077,18.2307692 6.30380769,17.7291923 4.96315385,16.8696923 C5.20015385,16.8976154 5.44130769,16.9119231 5.68592308,16.9119231 C7.10526923,16.9119231 8.41142308,16.4277692 9.44826923,15.6152308 C8.12261538,15.5907692 7.00384615,14.7147692 6.61834615,13.5114231 C6.80330769,13.5468462 6.99311538,13.5657692 7.18834615,13.5657692 C7.46457692,13.5657692 7.73226923,13.5287308 7.98646154,13.4595 C6.60057692,13.1811923 5.55623077,11.9568462 5.55623077,10.4890385 C5.55623077,10.4763462 5.55623077,10.4636538 5.55646154,10.4509615 C5.96492308,10.6779231 6.432,10.8140769 6.92861538,10.8298846 C6.11573077,10.2866538 5.58092308,9.35942308 5.58092308,8.30838462 C5.58092308,7.75315385 5.73023077,7.23276923 5.99111538,6.78542308 C7.48523077,8.61819231 9.71746154,9.82430769 12.2352692,9.95053846 C12.1835769,9.72888462 12.1568077,9.49776923 12.1568077,9.26019231 C12.1568077,7.58723077 13.5131538,6.23088462 15.1862308,6.23088462 C16.0576154,6.23088462 16.8448846,6.59873077 17.3975769,7.18753846 C18.0874615,7.05161538 18.7359231,6.79961538 19.3211538,6.45242308 C19.0951154,7.15984615 18.6146538,7.7535 17.9892692,8.12838462 C18.6019615,8.05523077 19.1859231,7.89242308 19.7291538,7.65138462 C19.323,8.25876923 18.8095385,8.79242308 18.2175,9.21946154 L18.2175,9.21946154 Z"/>
  </defs>
  <g fill="none" fill-rule="evenodd" transform="translate(4 4)">
    <use fill="#384048" xlink:href="#twitter-fill-a"/>
  </g>
</svg>
