<svg id="icon_x2F_Social_x2F_youtube-fill-Layer_1" xmlns="http://www.w3.org/2000/svg" viewBox="0 0 48 48" enable-background="new 0 0 48 48"><title>icon/Social/youtube-fill</title><g id="icon_x2F_Social_x2F_youtube-fill-Symbols"><g id="icon_x2F_Social_x2F_youtube-fill"><g id="icon_x2F_Social_x2F_youtube-fill-Icon" transform="translate(8 8)"><g id="icon_x2F_Social_x2F_youtube-fill-Mask"><path id="icon_x2F_Social_x2F_youtube-fill-path-1_1_" d="M16 0c8.8 0 16 7.2 16 16s-7.2 16-16 16S0 24.8 0 16 7.2 0 16 0zm9.6 16.7v-1.5c0-1.6-.2-3.1-.2-3.1s-.2-1.3-.8-1.9c-.7-.8-1.6-.8-1.9-.8-2.7-.2-6.7-.2-6.7-.2s-4 0-6.7.2c-.4 0-1.2 0-1.9.8-.6.6-.8 1.9-.8 1.9s-.2 1.6-.2 3.1v1.5c0 1.6.2 3.1.2 3.1s.2 1.3.8 1.9c.7.8 1.7.7 2.1.8 1.5.1 6.5.2 6.5.2s4 0 6.7-.2c.4 0 1.2 0 1.9-.8.6-.6.8-1.9.8-1.9s.2-1.5.2-3.1zm-11.9 1.5v-5.4l5.2 2.7-5.2 2.7z" fill="#384048"/></g><defs><filter id="icon_x2F_Social_x2F_youtube-fill-Adobe_OpacityMaskFilter" filterUnits="userSpaceOnUse" x="-8" y="-8" width="48" height="48"><feColorMatrix values="1 0 0 0 0 0 1 0 0 0 0 0 1 0 0 0 0 0 1 0"/></filter></defs><mask maskUnits="userSpaceOnUse" x="-8" y="-8" width="48" height="48" id="icon_x2F_Social_x2F_youtube-fill-mask-2"><g filter="url(#icon_x2F_Social_x2F_youtube-fill-Adobe_OpacityMaskFilter)"><path id="icon_x2F_Social_x2F_youtube-fill-path-1" d="M16 0c8.8 0 16 7.2 16 16s-7.2 16-16 16S0 24.8 0 16 7.2 0 16 0zm9.6 16.7v-1.5c0-1.6-.2-3.1-.2-3.1s-.2-1.3-.8-1.9c-.7-.8-1.6-.8-1.9-.8-2.7-.2-6.7-.2-6.7-.2s-4 0-6.7.2c-.4 0-1.2 0-1.9.8-.6.6-.8 1.9-.8 1.9s-.2 1.6-.2 3.1v1.5c0 1.6.2 3.1.2 3.1s.2 1.3.8 1.9c.7.8 1.7.7 2.1.8 1.5.1 6.5.2 6.5.2s4 0 6.7-.2c.4 0 1.2 0 1.9-.8.6-.6.8-1.9.8-1.9s.2-1.5.2-3.1zm-11.9 1.5v-5.4l5.2 2.7-5.2 2.7z" fill="#fff"/></g></mask><g id="icon_x2F_Social_x2F_youtube-fill-Color_x2F_Grayscale_x2F_Night-Sky" mask="url(#icon_x2F_Social_x2F_youtube-fill-mask-2)"><path fill="#111" d="M0 0h48v48H0z" transform="translate(-8 -8)" id="icon_x2F_Social_x2F_youtube-fill-Swatch"/></g></g></g></g></svg>