<?xml version="1.0" encoding="utf-8"?>
<!-- Generator: Adobe Illustrator 21.0.2, SVG Export Plug-In . SVG Version: 6.00 Build 0)  -->
<svg version="1.1" id="icon_x2F_Social_x2F_youtube-fill-Layer_1" xmlns="http://www.w3.org/2000/svg" xmlns:xlink="http://www.w3.org/1999/xlink" x="0px" y="0px"
	 viewBox="0 0 48 48" style="enable-background:new 0 0 48 48;" xml:space="preserve">
<title>icon/Social/youtube-fill</title>
<desc>Created with Sketch.</desc>
<g id="icon_x2F_Social_x2F_youtube-fill-Symbols">
	<g id="icon_x2F_Social_x2F_youtube-fill">
		<g id="icon_x2F_Social_x2F_youtube-fill-Icon" transform="translate(8.000000, 8.000000)">
			<g id="icon_x2F_Social_x2F_youtube-fill-Mask">
				<path id="icon_x2F_Social_x2F_youtube-fill-path-1_1_" style="fill:#384048;" d="M16,0c8.8,0,16,7.2,16,16s-7.2,16-16,16S0,24.8,0,16S7.2,0,16,0z M25.6,16.7v-1.5
					c0-1.6-0.2-3.1-0.2-3.1s-0.2-1.3-0.8-1.9c-0.7-0.8-1.6-0.8-1.9-0.8C20,9.2,16,9.2,16,9.2h0c0,0-4,0-6.7,0.2
					c-0.4,0-1.2,0-1.9,0.8c-0.6,0.6-0.8,1.9-0.8,1.9s-0.2,1.6-0.2,3.1v1.5c0,1.6,0.2,3.1,0.2,3.1s0.2,1.3,0.8,1.9
					c0.7,0.8,1.7,0.7,2.1,0.8c1.5,0.1,6.5,0.2,6.5,0.2s4,0,6.7-0.2c0.4,0,1.2,0,1.9-0.8c0.6-0.6,0.8-1.9,0.8-1.9
					S25.6,18.3,25.6,16.7z M13.7,18.2l0-5.4l5.2,2.7L13.7,18.2z"/>
			</g>
			<defs>
				<filter id="icon_x2F_Social_x2F_youtube-fill-Adobe_OpacityMaskFilter" filterUnits="userSpaceOnUse" x="-8" y="-8" width="48" height="48">
					<feColorMatrix  type="matrix" values="1 0 0 0 0  0 1 0 0 0  0 0 1 0 0  0 0 0 1 0"/>
				</filter>
			</defs>
			<mask maskUnits="userSpaceOnUse" x="-8" y="-8" width="48" height="48" id="icon_x2F_Social_x2F_youtube-fill-mask-2">
				<g style="filter:url(#icon_x2F_Social_x2F_youtube-fill-Adobe_OpacityMaskFilter);">
					<path id="icon_x2F_Social_x2F_youtube-fill-path-1" style="fill:#FFFFFF;" d="M16,0c8.8,0,16,7.2,16,16s-7.2,16-16,16S0,24.8,0,16S7.2,0,16,0z M25.6,16.7v-1.5
						c0-1.6-0.2-3.1-0.2-3.1s-0.2-1.3-0.8-1.9c-0.7-0.8-1.6-0.8-1.9-0.8C20,9.2,16,9.2,16,9.2h0c0,0-4,0-6.7,0.2
						c-0.4,0-1.2,0-1.9,0.8c-0.6,0.6-0.8,1.9-0.8,1.9s-0.2,1.6-0.2,3.1v1.5c0,1.6,0.2,3.1,0.2,3.1s0.2,1.3,0.8,1.9
						c0.7,0.8,1.7,0.7,2.1,0.8c1.5,0.1,6.5,0.2,6.5,0.2s4,0,6.7-0.2c0.4,0,1.2,0,1.9-0.8c0.6-0.6,0.8-1.9,0.8-1.9
						S25.6,18.3,25.6,16.7z M13.7,18.2l0-5.4l5.2,2.7L13.7,18.2z"/>
				</g>
			</mask>
			<g id="icon_x2F_Social_x2F_youtube-fill-Color_x2F_Grayscale_x2F_Night-Sky" style="mask:url(#icon_x2F_Social_x2F_youtube-fill-mask-2);">
				<g id="icon_x2F_Social_x2F_youtube-fill-Swatch" transform="translate(-8.000000, -8.000000)">
					<rect style="fill:#111111;" width="48" height="48"/>
				</g>
			</g>
		</g>
	</g>
</g>
</svg>
