<?xml version="1.0" encoding="utf-8"?>
<svg version="1.1" id="icon_x2F_Social_x2F_youtube-fill-Layer_1"
	 xmlns="http://www.w3.org/2000/svg" xmlns:xlink="http://www.w3.org/1999/xlink" x="0px" y="0px" viewBox="0 0 48 48"
	 style="enable-background:new 0 0 48 48;" xml:space="preserve">
<path id="icon_x2F_Social_x2F_youtube-fill-path-1_1_" style="fill:#111111;" d="M24,8c8.8,0,16,7.2,16,16s-7.2,16-16,16
	S8,32.8,8,24S15.2,8,24,8z M33.6,24.7v-1.5c0-1.6-0.2-3.1-0.2-3.1s-0.2-1.3-0.8-1.9c-0.7-0.8-1.6-0.8-1.9-0.8
	C28,17.2,24,17.2,24,17.2s-4,0-6.7,0.2c-0.4,0-1.2,0-1.9,0.8c-0.6,0.6-0.8,1.9-0.8,1.9s-0.2,1.6-0.2,3.1v1.5c0,1.6,0.2,3.1,0.2,3.1
	s0.2,1.3,0.8,1.9c0.7,0.8,1.7,0.7,2.1,0.8c1.5,0.1,6.5,0.2,6.5,0.2s4,0,6.7-0.2c0.4,0,1.2,0,1.9-0.8c0.6-0.6,0.8-1.9,0.8-1.9
	S33.6,26.3,33.6,24.7z M21.7,26.2v-5.4l5.2,2.7C26.9,23.5,21.7,26.2,21.7,26.2z"/>
</svg>
