<svg id="icon_x2F_Social_x2F_youtube-line-Layer_1" xmlns="http://www.w3.org/2000/svg" viewBox="0 0 48 48" enable-background="new 0 0 48 48"><title>icon/Social/youtube-line</title><g id="icon_x2F_Social_x2F_youtube-line-Symbols"><g id="icon_x2F_Social_x2F_youtube-line"><g id="icon_x2F_Social_x2F_youtube-line-Icon" transform="translate(8 8)"><g id="icon_x2F_Social_x2F_youtube-line-Mask"><path id="icon_x2F_Social_x2F_youtube-line-path-1_1_" d="M16 0c8.8 0 16 7.2 16 16s-7.2 16-16 16S0 24.8 0 16 7.2 0 16 0zm0 30.2c7.8 0 14.2-6.3 14.2-14.2S23.8 1.8 16 1.8 1.8 8.2 1.8 16 8.2 30.2 16 30.2zm8.7-20c.6.6.8 1.9.8 1.9s.2 1.6.2 3.1v1.5c0 1.6-.2 3.1-.2 3.1s-.2 1.3-.8 1.9c-.7.8-1.6.8-1.9.8-2.7.2-6.7.2-6.7.2s-5 0-6.5-.2c-.4-.1-1.4-.1-2.1-.8-.6-.6-.8-1.9-.8-1.9s-.2-1.6-.2-3.1v-1.5c0-1.6.2-3.1.2-3.1s.2-1.3.8-1.9c.7-.8 1.6-.8 1.9-.8 2.6-.3 6.6-.3 6.6-.3s4 0 6.7.2c.4.1 1.3.1 2 .9zM14 18.4l5.2-2.7L14 13v5.4z" fill="#384048"/></g><defs><filter id="icon_x2F_Social_x2F_youtube-line-Adobe_OpacityMaskFilter" filterUnits="userSpaceOnUse" x="-8" y="-8" width="48" height="48"><feColorMatrix values="1 0 0 0 0 0 1 0 0 0 0 0 1 0 0 0 0 0 1 0"/></filter></defs><mask maskUnits="userSpaceOnUse" x="-8" y="-8" width="48" height="48" id="icon_x2F_Social_x2F_youtube-line-mask-2"><g filter="url(#icon_x2F_Social_x2F_youtube-line-Adobe_OpacityMaskFilter)"><path id="icon_x2F_Social_x2F_youtube-line-path-1" d="M16 0c8.8 0 16 7.2 16 16s-7.2 16-16 16S0 24.8 0 16 7.2 0 16 0zm0 30.2c7.8 0 14.2-6.3 14.2-14.2S23.8 1.8 16 1.8 1.8 8.2 1.8 16 8.2 30.2 16 30.2zm8.7-20c.6.6.8 1.9.8 1.9s.2 1.6.2 3.1v1.5c0 1.6-.2 3.1-.2 3.1s-.2 1.3-.8 1.9c-.7.8-1.6.8-1.9.8-2.7.2-6.7.2-6.7.2s-5 0-6.5-.2c-.4-.1-1.4-.1-2.1-.8-.6-.6-.8-1.9-.8-1.9s-.2-1.6-.2-3.1v-1.5c0-1.6.2-3.1.2-3.1s.2-1.3.8-1.9c.7-.8 1.6-.8 1.9-.8 2.6-.3 6.6-.3 6.6-.3s4 0 6.7.2c.4.1 1.3.1 2 .9zM14 18.4l5.2-2.7L14 13v5.4z" fill="#fff"/></g></mask><g id="icon_x2F_Social_x2F_youtube-line-Color_x2F_Grayscale_x2F_Night-Sky" mask="url(#icon_x2F_Social_x2F_youtube-line-mask-2)"><path fill="#111" d="M0 0h48v48H0z" transform="translate(-8 -8)" id="icon_x2F_Social_x2F_youtube-line-Swatch"/></g></g></g></g></svg>