<svg id="icon_x2F_Utility_x2F_Store_x2F_return-Layer_1" xmlns="http://www.w3.org/2000/svg" viewBox="0 0 48 48" enable-background="new 0 0 48 48"><title>icon/Utility/Store/return</title><g id="icon_x2F_Utility_x2F_Store_x2F_return-Symbols"><g id="icon_x2F_Utility_x2F_Store_x2F_return"><g id="icon_x2F_Utility_x2F_Store_x2F_return-Icon" transform="translate(12 15)"><g id="icon_x2F_Utility_x2F_Store_x2F_return-Mask"><path id="icon_x2F_Utility_x2F_Store_x2F_return-path-1_1_" d="M18.4 14.7c.2.2.2.4.2.5v.2c0 .1-.1.3-.2.5-.4.4-1.9 2-2 2 0 0-.2.1-.4.1s-.3-.1-.4-.2c-.2-.2-.2-.6 0-.9l1-1H6.1C2.7 15.9 0 12.8 0 9c0-2.7 1.3-5 3.4-6.2.3-.2.7-.1.8.2.2.3.1.7-.2.9-1.7.9-2.8 2.9-2.8 5.1 0 3.1 2.2 5.7 4.9 5.7h10.7l-1.1-1.1c-.2-.2-.2-.6 0-.9.2-.2.6-.2.8 0 0 0 1.5 1.6 1.9 2zm3.8-10.6C23.4 5.4 24 7.2 24 9c0 2.7-1.3 5-3.4 6.2-.1.1-.2.1-.3.1-.2 0-.4-.1-.5-.3-.2-.3-.1-.7.2-.8 1.7-.9 2.8-3 2.8-5.1 0-1.5-.5-3-1.4-4-.9-1.1-2.1-1.6-3.4-1.6H7.4l1.1 1.1c.2.2.2.6 0 .9-.2-.1-.4 0-.5 0-.2 0-.3-.1-.4-.2-.1-.1-1.5-1.6-2-2-.2-.2-.3-.4-.3-.5v-.2c0-.1.1-.3.2-.5.4-.4 1.9-2 2-2 .2-.2.6-.2.8 0 .2.2.2.6 0 .9l-1 1h10.6c1.7.1 3.2.8 4.3 2.1z" fill="#333"/></g><defs><filter id="icon_x2F_Utility_x2F_Store_x2F_return-Adobe_OpacityMaskFilter" filterUnits="userSpaceOnUse" x="-12" y="-15" width="48" height="48"><feColorMatrix values="1 0 0 0 0 0 1 0 0 0 0 0 1 0 0 0 0 0 1 0"/></filter></defs><mask maskUnits="userSpaceOnUse" x="-12" y="-15" width="48" height="48" id="icon_x2F_Utility_x2F_Store_x2F_return-mask-2"><g filter="url(#icon_x2F_Utility_x2F_Store_x2F_return-Adobe_OpacityMaskFilter)"><path id="icon_x2F_Utility_x2F_Store_x2F_return-path-1" d="M18.4 14.7c.2.2.2.4.2.5v.2c0 .1-.1.3-.2.5-.4.4-1.9 2-2 2 0 0-.2.1-.4.1s-.3-.1-.4-.2c-.2-.2-.2-.6 0-.9l1-1H6.1C2.7 15.9 0 12.8 0 9c0-2.7 1.3-5 3.4-6.2.3-.2.7-.1.8.2.2.3.1.7-.2.9-1.7.9-2.8 2.9-2.8 5.1 0 3.1 2.2 5.7 4.9 5.7h10.7l-1.1-1.1c-.2-.2-.2-.6 0-.9.2-.2.6-.2.8 0 0 0 1.5 1.6 1.9 2zm3.8-10.6C23.4 5.4 24 7.2 24 9c0 2.7-1.3 5-3.4 6.2-.1.1-.2.1-.3.1-.2 0-.4-.1-.5-.3-.2-.3-.1-.7.2-.8 1.7-.9 2.8-3 2.8-5.1 0-1.5-.5-3-1.4-4-.9-1.1-2.1-1.6-3.4-1.6H7.4l1.1 1.1c.2.2.2.6 0 .9-.2-.1-.4 0-.5 0-.2 0-.3-.1-.4-.2-.1-.1-1.5-1.6-2-2-.2-.2-.3-.4-.3-.5v-.2c0-.1.1-.3.2-.5.4-.4 1.9-2 2-2 .2-.2.6-.2.8 0 .2.2.2.6 0 .9l-1 1h10.6c1.7.1 3.2.8 4.3 2.1z" fill="#fff"/></g></mask><g id="icon_x2F_Utility_x2F_Store_x2F_return-Color_x2F_Grayscale_x2F_Night-Sky" mask="url(#icon_x2F_Utility_x2F_Store_x2F_return-mask-2)"><path fill="#111" d="M0 0h48v48H0z" transform="translate(-12 -15)" id="icon_x2F_Utility_x2F_Store_x2F_return-Swatch"/></g></g></g></g></svg>