<?xml version="1.0" encoding="utf-8"?>
<!-- Generator: Adobe Illustrator 21.0.2, SVG Export Plug-In . SVG Version: 6.00 Build 0)  -->
<svg version="1.1" id="icon_x2F_Utility_x2F_Store_x2F_return-Layer_1" xmlns="http://www.w3.org/2000/svg" xmlns:xlink="http://www.w3.org/1999/xlink" x="0px" y="0px"
	 viewBox="0 0 48 48" style="enable-background:new 0 0 48 48;" xml:space="preserve">
<title>icon/Utility/Store/return</title>
<desc>Created with Sketch.</desc>
<g id="icon_x2F_Utility_x2F_Store_x2F_return-Symbols">
	<g id="icon_x2F_Utility_x2F_Store_x2F_return">
		<g id="icon_x2F_Utility_x2F_Store_x2F_return-Icon" transform="translate(12.000000, 15.000000)">
			<g id="icon_x2F_Utility_x2F_Store_x2F_return-Mask">
				<path id="icon_x2F_Utility_x2F_Store_x2F_return-path-1_1_" style="fill:#333333;" d="M18.4,14.7c0.2,0.2,0.2,0.4,0.2,0.5l0,0.1l0,0.1c0,0.1-0.1,0.3-0.2,0.5
					c-0.4,0.4-1.9,2-2,2C16.4,17.9,16.2,18,16,18c-0.2,0-0.3-0.1-0.4-0.2c-0.2-0.2-0.2-0.6,0-0.9c0,0,0.5-0.5,1-1H6.1
					C2.7,15.9,0,12.8,0,9c0-2.7,1.3-5,3.4-6.2C3.7,2.6,4.1,2.7,4.2,3C4.4,3.3,4.3,3.7,4,3.9C2.3,4.8,1.2,6.8,1.2,9
					c0,3.1,2.2,5.7,4.9,5.7h10.7c-0.5-0.5-1.1-1.1-1.1-1.1c-0.2-0.2-0.2-0.6,0-0.9c0.2-0.2,0.6-0.2,0.8,0
					C16.5,12.7,18,14.3,18.4,14.7z M22.2,4.1C23.4,5.4,24,7.2,24,9c0,2.7-1.3,5-3.4,6.2c-0.1,0.1-0.2,0.1-0.3,0.1
					c-0.2,0-0.4-0.1-0.5-0.3c-0.2-0.3-0.1-0.7,0.2-0.8c1.7-0.9,2.8-3,2.8-5.1c0-1.5-0.5-3-1.4-4c-0.9-1.1-2.1-1.6-3.4-1.6l-10.6,0
					c0.5,0.5,1.1,1.1,1.1,1.1c0.2,0.2,0.2,0.6,0,0.9C8.3,5.4,8.1,5.5,8,5.5c-0.2,0-0.3-0.1-0.4-0.2c-0.1-0.1-1.5-1.6-2-2
					C5.4,3.1,5.3,2.9,5.3,2.8l0-0.1l0-0.1c0-0.1,0.1-0.3,0.2-0.5c0.4-0.4,1.9-2,2-2c0.2-0.2,0.6-0.2,0.8,0c0.2,0.2,0.2,0.6,0,0.9
					c0,0-0.5,0.5-1,1l10.6,0C19.6,2.1,21.1,2.8,22.2,4.1z"/>
			</g>
			<defs>
				<filter id="icon_x2F_Utility_x2F_Store_x2F_return-Adobe_OpacityMaskFilter" filterUnits="userSpaceOnUse" x="-12" y="-15" width="48" height="48">
					<feColorMatrix  type="matrix" values="1 0 0 0 0  0 1 0 0 0  0 0 1 0 0  0 0 0 1 0"/>
				</filter>
			</defs>
			<mask maskUnits="userSpaceOnUse" x="-12" y="-15" width="48" height="48" id="icon_x2F_Utility_x2F_Store_x2F_return-mask-2">
				<g style="filter:url(#icon_x2F_Utility_x2F_Store_x2F_return-Adobe_OpacityMaskFilter);">
					<path id="icon_x2F_Utility_x2F_Store_x2F_return-path-1" style="fill:#FFFFFF;" d="M18.4,14.7c0.2,0.2,0.2,0.4,0.2,0.5l0,0.1l0,0.1c0,0.1-0.1,0.3-0.2,0.5
						c-0.4,0.4-1.9,2-2,2C16.4,17.9,16.2,18,16,18c-0.2,0-0.3-0.1-0.4-0.2c-0.2-0.2-0.2-0.6,0-0.9c0,0,0.5-0.5,1-1H6.1
						C2.7,15.9,0,12.8,0,9c0-2.7,1.3-5,3.4-6.2C3.7,2.6,4.1,2.7,4.2,3C4.4,3.3,4.3,3.7,4,3.9C2.3,4.8,1.2,6.8,1.2,9
						c0,3.1,2.2,5.7,4.9,5.7h10.7c-0.5-0.5-1.1-1.1-1.1-1.1c-0.2-0.2-0.2-0.6,0-0.9c0.2-0.2,0.6-0.2,0.8,0
						C16.5,12.7,18,14.3,18.4,14.7z M22.2,4.1C23.4,5.4,24,7.2,24,9c0,2.7-1.3,5-3.4,6.2c-0.1,0.1-0.2,0.1-0.3,0.1
						c-0.2,0-0.4-0.1-0.5-0.3c-0.2-0.3-0.1-0.7,0.2-0.8c1.7-0.9,2.8-3,2.8-5.1c0-1.5-0.5-3-1.4-4c-0.9-1.1-2.1-1.6-3.4-1.6l-10.6,0
						c0.5,0.5,1.1,1.1,1.1,1.1c0.2,0.2,0.2,0.6,0,0.9C8.3,5.4,8.1,5.5,8,5.5c-0.2,0-0.3-0.1-0.4-0.2c-0.1-0.1-1.5-1.6-2-2
						C5.4,3.1,5.3,2.9,5.3,2.8l0-0.1l0-0.1c0-0.1,0.1-0.3,0.2-0.5c0.4-0.4,1.9-2,2-2c0.2-0.2,0.6-0.2,0.8,0c0.2,0.2,0.2,0.6,0,0.9
						c0,0-0.5,0.5-1,1l10.6,0C19.6,2.1,21.1,2.8,22.2,4.1z"/>
				</g>
			</mask>
			<g id="icon_x2F_Utility_x2F_Store_x2F_return-Color_x2F_Grayscale_x2F_Night-Sky" style="mask:url(#icon_x2F_Utility_x2F_Store_x2F_return-mask-2);">
				<g id="icon_x2F_Utility_x2F_Store_x2F_return-Swatch" transform="translate(-12.000000, -15.000000)">
					<rect style="fill:#111111;" width="48" height="48"/>
				</g>
			</g>
		</g>
	</g>
</g>
</svg>
