<?xml version="1.0" encoding="utf-8"?>
<svg version="1.1" id="icon_x2F_Utility_x2F_Store_x2F_return-Layer_1"
	 xmlns="http://www.w3.org/2000/svg" xmlns:xlink="http://www.w3.org/1999/xlink" x="0px" y="0px" viewBox="0 0 48 48"
	 style="enable-background:new 0 0 48 48;" xml:space="preserve">
<path id="icon_x2F_Utility_x2F_Store_x2F_return-path-1_1_" style="fill:#333333;" d="M30.4,29.7c0.2,0.2,0.2,0.4,0.2,0.5v0.2
	c0,0.1-0.1,0.3-0.2,0.5c-0.4,0.4-1.9,2-2,2c0,0-0.2,0.1-0.4,0.1s-0.3-0.1-0.4-0.2c-0.2-0.2-0.2-0.6,0-0.9l1-1H18.1
	c-3.4,0-6.1-3.1-6.1-6.9c0-2.7,1.3-5,3.4-6.2c0.3-0.2,0.7-0.1,0.8,0.2c0.2,0.3,0.1,0.7-0.2,0.9c-1.7,0.9-2.8,2.9-2.8,5.1
	c0,3.1,2.2,5.7,4.9,5.7h10.7l-1.1-1.1c-0.2-0.2-0.2-0.6,0-0.9c0.2-0.2,0.6-0.2,0.8,0C28.5,27.7,30,29.3,30.4,29.7z M34.2,19.1
	c1.2,1.3,1.8,3.1,1.8,4.9c0,2.7-1.3,5-3.4,6.2c-0.1,0.1-0.2,0.1-0.3,0.1c-0.2,0-0.4-0.1-0.5-0.3c-0.2-0.3-0.1-0.7,0.2-0.8
	c1.7-0.9,2.8-3,2.8-5.1c0-1.5-0.5-3-1.4-4c-0.9-1.1-2.1-1.6-3.4-1.6H19.4l1.1,1.1c0.2,0.2,0.2,0.6,0,0.9c-0.2-0.1-0.4,0-0.5,0
	c-0.2,0-0.3-0.1-0.4-0.2s-1.5-1.6-2-2c-0.2-0.2-0.3-0.4-0.3-0.5v-0.2c0-0.1,0.1-0.3,0.2-0.5c0.4-0.4,1.9-2,2-2
	c0.2-0.2,0.6-0.2,0.8,0s0.2,0.6,0,0.9l-1,1h10.6C31.6,17.1,33.1,17.8,34.2,19.1z"/>
</svg>
