<svg id="icon_x2F_Utility_x2F_Store_x2F_sameday-pickup-Layer_1" xmlns="http://www.w3.org/2000/svg" viewBox="0 0 48 48" enable-background="new 0 0 48 48"><title>icon/Utility/Store/sameday-pickup</title><g id="icon_x2F_Utility_x2F_Store_x2F_sameday-pickup-Symbols"><g id="icon_x2F_Utility_x2F_Store_x2F_sameday-pickup"><g id="icon_x2F_Utility_x2F_Store_x2F_sameday-pickup-Icon" transform="translate(11 11)"><g id="icon_x2F_Utility_x2F_Store_x2F_sameday-pickup-Mask"><path id="icon_x2F_Utility_x2F_Store_x2F_sameday-pickup-path-1_1_" d="M24.5 15.5c.9 1.1 1.5 2.5 1.5 4.1 0 3.5-2.9 6.4-6.4 6.4-3.5 0-6.4-2.9-6.4-6.4 0-2.9 2-5.4 4.7-6.2v-.7c0-.9.8-1.7 1.7-1.7.9 0 1.7.8 1.7 1.7v.7c.8.2 1.5.6 2.1 1.1l.4-.4c.3-.3.8-.3 1.1 0 .3.3.3.8 0 1.1l-.4.3zm-4.9 9c2.7 0 4.9-2.2 4.9-4.9s-2.2-4.9-4.9-4.9-4.9 2.2-4.9 4.9 2.2 4.9 4.9 4.9zm.8-7.2v1.5h2.9c.4 0 .8.3.8.8 0 .4-.3.8-.8.8h-3.7c-.4 0-.8-.3-.8-.8v-2.3c0-.4.3-.8.8-.8.4.1.8.4.8.8zm-7.6 4.3c0 .1 0 .1.1.2H1.4c-.7 0-1.4-.7-1.4-1.5L.7 3.6s0-.4.3-.7C1.3 2.5 2.9.6 3.3.3c.1-.2.5-.3.6-.3h13.9c.3 0 .5.1.6.3.3.3 1.9 2.3 2.2 2.6.4.4.4.7.4.7l.3 7.4-.1-.1-.1-.1H21c-.1-.1-.2-.2-.4-.2-.3-.2-.7-.3-1.1-.3-1.3 0-2.4 1.1-2.4 2.5v.1c-2.8 1-4.7 3.7-4.7 6.7.1.7.2 1.3.4 2zm-2-7.8c2.2 0 4-1 5.1-2.9.8-1.4 1-2.8 1.1-2.8.1-.4-.2-.8-.6-.9-.4-.1-.8.2-.9.6 0 0-.2 1.1-.9 2.3-.9 1.4-2.2 2.2-3.8 2.2-4 0-4.6-4.3-4.7-4.4 0-.4-.4-.7-.8-.7-.4.1-.7.5-.6.9 0 .1.2 1.4 1 2.8 1.2 1.9 2.9 2.9 5.1 2.9z" fill="#384048"/></g><defs><filter id="icon_x2F_Utility_x2F_Store_x2F_sameday-pickup-Adobe_OpacityMaskFilter" filterUnits="userSpaceOnUse" x="-11" y="-11" width="48" height="48"><feColorMatrix values="1 0 0 0 0 0 1 0 0 0 0 0 1 0 0 0 0 0 1 0"/></filter></defs><mask maskUnits="userSpaceOnUse" x="-11" y="-11" width="48" height="48" id="icon_x2F_Utility_x2F_Store_x2F_sameday-pickup-mask-2"><g filter="url(#icon_x2F_Utility_x2F_Store_x2F_sameday-pickup-Adobe_OpacityMaskFilter)"><path id="icon_x2F_Utility_x2F_Store_x2F_sameday-pickup-path-1" d="M24.5 15.5c.9 1.1 1.5 2.5 1.5 4.1 0 3.5-2.9 6.4-6.4 6.4-3.5 0-6.4-2.9-6.4-6.4 0-2.9 2-5.4 4.7-6.2v-.7c0-.9.8-1.7 1.7-1.7.9 0 1.7.8 1.7 1.7v.7c.8.2 1.5.6 2.1 1.1l.4-.4c.3-.3.8-.3 1.1 0 .3.3.3.8 0 1.1l-.4.3zm-4.9 9c2.7 0 4.9-2.2 4.9-4.9s-2.2-4.9-4.9-4.9-4.9 2.2-4.9 4.9 2.2 4.9 4.9 4.9zm.8-7.2v1.5h2.9c.4 0 .8.3.8.8 0 .4-.3.8-.8.8h-3.7c-.4 0-.8-.3-.8-.8v-2.3c0-.4.3-.8.8-.8.4.1.8.4.8.8zm-7.6 4.3c0 .1 0 .1.1.2H1.4c-.7 0-1.4-.7-1.4-1.5L.7 3.6s0-.4.3-.7C1.3 2.5 2.9.6 3.3.3c.1-.2.5-.3.6-.3h13.9c.3 0 .5.1.6.3.3.3 1.9 2.3 2.2 2.6.4.4.4.7.4.7l.3 7.4-.1-.1-.1-.1H21c-.1-.1-.2-.2-.4-.2-.3-.2-.7-.3-1.1-.3-1.3 0-2.4 1.1-2.4 2.5v.1c-2.8 1-4.7 3.7-4.7 6.7.1.7.2 1.3.4 2zm-2-7.8c2.2 0 4-1 5.1-2.9.8-1.4 1-2.8 1.1-2.8.1-.4-.2-.8-.6-.9-.4-.1-.8.2-.9.6 0 0-.2 1.1-.9 2.3-.9 1.4-2.2 2.2-3.8 2.2-4 0-4.6-4.3-4.7-4.4 0-.4-.4-.7-.8-.7-.4.1-.7.5-.6.9 0 .1.2 1.4 1 2.8 1.2 1.9 2.9 2.9 5.1 2.9z" fill="#fff"/></g></mask><g id="icon_x2F_Utility_x2F_Store_x2F_sameday-pickup-Color_x2F_Grayscale_x2F_Night-Sky" mask="url(#icon_x2F_Utility_x2F_Store_x2F_sameday-pickup-mask-2)"><path fill="#111" d="M0 0h48v48H0z" transform="translate(-11 -11)" id="icon_x2F_Utility_x2F_Store_x2F_sameday-pickup-Swatch"/></g></g></g></g></svg>