<?xml version="1.0" encoding="utf-8"?>
<svg version="1.1" id="icon_x2F_Utility_x2F_Store_x2F_store-Layer_1"
	 xmlns="http://www.w3.org/2000/svg" xmlns:xlink="http://www.w3.org/1999/xlink" x="0px" y="0px" viewBox="0 0 48 48"
	 style="enable-background:new 0 0 48 48;" xml:space="preserve">
<path id="icon_x2F_Utility_x2F_Store_x2F_store-path-1_1_" style="fill:#111111;" d="M35.8,11H12.2c-1.3,0-2.2,0.9-2.2,2.3v4.1
	c0,1,0.6,1.8,1.4,2.1v14.3c0,1.3,0.9,2,2.3,2h1.4v-12c0-1.3,0.9-2.3,2.1-2.3h13.3c1.3,0,2.3,0.9,2.3,2.2v12.1h1.8c1.4,0,2-0.6,2-2
	V19.5c0.8-0.3,1.4-1.2,1.4-2.2v-4.1C38,11.8,37.2,11,35.8,11z M36.6,17.3c0,0.5-0.3,0.8-0.8,0.8H12.2c-0.5,0-0.8-0.3-0.8-0.8v-4
	c0-0.6,0.3-0.8,0.8-0.8h23.6c0.8,0,0.8,0.4,0.8,0.7C36.6,13.2,36.6,17.3,36.6,17.3z M16.5,23.6c0-0.3,0.1-0.9,0.7-0.9h6.3V37h-7
	V23.6z M30.9,22.6c0.4,0,0.9,0.1,0.9,0.8V37h-7V22.6H30.9z"/>
</svg>
