<svg id="icon_x2F_Utility_x2F_Store_x2F_store-Layer_1" xmlns="http://www.w3.org/2000/svg" viewBox="0 0 48 48" enable-background="new 0 0 48 48"><title>icon/Utility/Store/store</title><g id="icon_x2F_Utility_x2F_Store_x2F_store-Symbols"><g id="icon_x2F_Utility_x2F_Store_x2F_store"><g id="icon_x2F_Utility_x2F_Store_x2F_store-Icon" transform="translate(10 11)"><g id="icon_x2F_Utility_x2F_Store_x2F_store-Mask"><path id="icon_x2F_Utility_x2F_Store_x2F_store-path-1_1_" d="M25.8 0H2.2C.9 0 0 .9 0 2.3v4.1c0 1 .6 1.8 1.4 2.1v14.3c0 1.3.9 2 2.3 2h1.4v-12c0-1.3.9-2.3 2.1-2.3h13.3c1.3 0 2.3.9 2.3 2.2v12.1h1.8c1.4 0 2-.6 2-2V8.5c.8-.3 1.4-1.2 1.4-2.2V2.2C28 .8 27.2 0 25.8 0zm.8 6.3c0 .5-.3.8-.8.8H2.2c-.5 0-.8-.3-.8-.8v-4c0-.6.3-.8.8-.8h23.6c.8 0 .8.4.8.7v4.1zM6.5 12.6c0-.3.1-.9.7-.9h6.3V26h-7V12.6zm14.4-1c.4 0 .9.1.9.8V26h-7V11.6h6.1z" fill="#384048"/></g><defs><filter id="icon_x2F_Utility_x2F_Store_x2F_store-Adobe_OpacityMaskFilter" filterUnits="userSpaceOnUse" x="-10" y="-11" width="48" height="48"><feColorMatrix values="1 0 0 0 0 0 1 0 0 0 0 0 1 0 0 0 0 0 1 0"/></filter></defs><mask maskUnits="userSpaceOnUse" x="-10" y="-11" width="48" height="48" id="icon_x2F_Utility_x2F_Store_x2F_store-mask-2"><g filter="url(#icon_x2F_Utility_x2F_Store_x2F_store-Adobe_OpacityMaskFilter)"><path id="icon_x2F_Utility_x2F_Store_x2F_store-path-1" d="M25.8 0H2.2C.9 0 0 .9 0 2.3v4.1c0 1 .6 1.8 1.4 2.1v14.3c0 1.3.9 2 2.3 2h1.4v-12c0-1.3.9-2.3 2.1-2.3h13.3c1.3 0 2.3.9 2.3 2.2v12.1h1.8c1.4 0 2-.6 2-2V8.5c.8-.3 1.4-1.2 1.4-2.2V2.2C28 .8 27.2 0 25.8 0zm.8 6.3c0 .5-.3.8-.8.8H2.2c-.5 0-.8-.3-.8-.8v-4c0-.6.3-.8.8-.8h23.6c.8 0 .8.4.8.7v4.1zM6.5 12.6c0-.3.1-.9.7-.9h6.3V26h-7V12.6zm14.4-1c.4 0 .9.1.9.8V26h-7V11.6h6.1z" fill="#fff"/></g></mask><g id="icon_x2F_Utility_x2F_Store_x2F_store-Color_x2F_Grayscale_x2F_Night-Sky" mask="url(#icon_x2F_Utility_x2F_Store_x2F_store-mask-2)"><path fill="#111" d="M0 0h48v48H0z" transform="translate(-10 -11)" id="icon_x2F_Utility_x2F_Store_x2F_store-Swatch"/></g></g></g></g></svg>