<?xml version="1.0" encoding="UTF-8" standalone="no"?>
<svg width="30px" height="26px" viewBox="0 0 30 26" version="1.1" xmlns="http://www.w3.org/2000/svg" xmlns:xlink="http://www.w3.org/1999/xlink">
    <!-- Generator: Sketch 46.1 (44463) - http://www.bohemiancoding.com/sketch -->
    <title>icon/ALL/arrow-right</title>
    <desc>Created with Sketch.</desc>
    <defs>
        <path d="M26.5857864,14 L16.2928932,24.2928932 C15.9023689,24.6834175 15.9023689,25.3165825 16.2928932,25.7071068 C16.6834175,26.0976311 17.3165825,26.0976311 17.7071068,25.7071068 L29.7071068,13.7071068 C30.0976311,13.3165825 30.0976311,12.6834175 29.7071068,12.2928932 L17.7071068,0.292893219 C17.3165825,-0.0976310729 16.6834175,-0.0976310729 16.2928932,0.292893219 C15.9023689,0.683417511 15.9023689,1.31658249 16.2928932,1.70710678 L26.5857864,12 L1,12 C0.44771525,12 0,12.4477153 0,13 C0,13.5522847 0.44771525,14 1,14 L26.5857864,14 Z" id="path-1"></path>
    </defs>
    <g id="Design-Foundations" stroke="none" stroke-width="1" fill="none" fill-rule="evenodd">
        <g id="Design-Foundations---Iconography-Glyph" transform="translate(-393.000000, -208.000000)">
            <g id="Navigation-Icons" transform="translate(80.000000, 143.000000)">
                <g id="arrow-right" transform="translate(304.000000, 54.000000)">
                    <g id="icon/ALL/arrow-right">
                        <g id="Icon" transform="translate(9.000000, 11.000000)">
                            <mask id="mask-2" fill="white">
                                <use xlink:href="#path-1"></use>
                            </mask>
                            <use id="Path" fill="#384048" fill-rule="nonzero" xlink:href="#path-1"></use>
                            <g id="Color/Black" mask="url(#mask-2)" fill="#1C2024">
                                <g transform="translate(-9.000000, -11.000000)" id="Swatch">
                                    <rect x="0" y="0" width="48" height="48"></rect>
                                </g>
                            </g>
                        </g>
                    </g>
                </g>
            </g>
        </g>
    </g>
</svg>