<?xml version="1.0" encoding="UTF-8" standalone="no"?>
<svg width="34px" height="34px" viewBox="0 0 34 34" version="1.1" xmlns="http://www.w3.org/2000/svg" xmlns:xlink="http://www.w3.org/1999/xlink">
    <!-- Generator: Sketch 46.1 (44463) - http://www.bohemiancoding.com/sketch -->
    <title>icon/ALL/back-to-top</title>
    <desc>Created with Sketch.</desc>
    <defs>
        <path d="M16.7539904,21.9919519 C15.6655,21.9919519 14.9103077,22.85225 14.9103077,23.9055962 L14.9103077,23.9234135 C14.9103077,24.9769231 15.6829904,25.8547115 16.7718077,25.8547115 C17.8604615,25.8547115 18.6156538,24.99425 18.6156538,23.9409038 L18.6156538,23.9234135 C18.6154904,22.8699038 17.8428077,21.9919519 16.7539904,21.9919519 L16.7539904,21.9919519 Z M23.6283654,22.0709038 L22.5836827,22.0709038 L22.5836827,23.9497308 L23.6545192,23.9497308 C24.3309231,23.9497308 24.7258462,23.5456538 24.7258462,23.0189808 L24.7258462,23.0014904 C24.7258462,22.3958654 24.3042788,22.0709038 23.6283654,22.0709038 L23.6283654,22.0709038 Z M17,0 C7.61109615,0 0,7.61109615 0,17 C0,26.3889038 7.61109615,34 17,34 C26.3889038,34 34,26.3889038 34,17 C34,7.61109615 26.3889038,0 17,0 L17,0 Z M12.9965,22.0973846 L11.1265,22.0973846 L11.1265,26.9963269 L9.77434615,26.9963269 L9.77434615,22.0973846 L7.90434615,22.0973846 L7.90434615,20.8505 L12.9963365,20.8503365 L12.9963365,22.0973846 L12.9965,22.0973846 L12.9965,22.0973846 Z M20.0286154,23.9234135 C20.0286154,25.6703269 18.6504712,27.1014327 16.7538269,27.1014327 C14.8575096,27.1014327 13.4966923,25.6881442 13.4966923,23.9409038 L13.4966923,23.9234135 C13.4966923,22.1763365 14.875,20.7450673 16.7714808,20.7450673 C18.6674712,20.7450673 20.0284519,22.1586827 20.0284519,23.9055962 L20.0284519,23.9234135 L20.0286154,23.9234135 L20.0286154,23.9234135 Z M17.9824038,8.38198077 L17.9807692,17.0336731 C17.9806058,17.5752212 17.5415481,18.0142788 17,18.0142788 C17,18.0142788 17,18.0142788 16.9998365,18.0142788 C16.458125,18.0141154 16.0190673,17.5748942 16.0192308,17.0333462 L16.0208654,8.37609615 C14.7123558,9.68476923 13.1073269,11.3000962 13.0841154,11.3236346 C12.8925385,11.5165192 12.6404808,11.613125 12.3884231,11.613125 C12.1384904,11.613125 11.8885577,11.5181538 11.6971442,11.3280481 C11.3128462,10.9463654 11.3108846,10.325375 11.6927308,9.94107692 C11.8311827,9.80164423 15.0964904,6.51541346 16.0538846,5.57649038 C16.3945385,5.24221154 16.7057692,5.14903846 16.9066635,5.12975 L17.0150385,5.11945192 L17.1229231,5.13301923 C17.3159712,5.157375 17.6149423,5.25414423 17.9436635,5.57730769 C18.8943558,6.51001923 22.1686538,9.80099038 22.3074327,9.94075 C22.6894423,10.3247212 22.6878077,10.9457115 22.3038365,11.3277212 C21.9197019,11.7095673 21.2990385,11.7080962 20.9168654,11.324125 C20.8931635,11.3004231 19.2878077,9.68673077 17.9824038,8.38198077 L17.9824038,8.38198077 Z M26.0956538,22.9928269 C26.0956538,24.4151058 24.9893462,25.1524808 23.610875,25.1524808 L22.5838462,25.1524808 L22.5838462,26.9961635 L21.2315288,26.9961635 L21.2315288,20.8501731 L23.742625,20.8501731 C25.208875,20.8501731 26.0958173,21.7194615 26.0958173,22.9751731 L26.0958173,22.9928269 L26.0956538,22.9928269 L26.0956538,22.9928269 Z" id="path-1"></path>
    </defs>
    <g id="Design-Foundations" stroke="none" stroke-width="1" fill="none" fill-rule="evenodd">
        <g id="Design-Foundations---Iconography-Glyph" transform="translate(-702.000000, -1287.000000)">
            <g id="Action-Icons" transform="translate(87.000000, 790.000000)">
                <g id="back-to-top" transform="translate(608.000000, 490.000000)">
                    <g id="icon/ALL/back-to-top">
                        <g id="Icon" transform="translate(7.000000, 7.000000)">
                            <mask id="mask-2" fill="white">
                                <use xlink:href="#path-1"></use>
                            </mask>
                            <use id="Mask" fill="#384048" xlink:href="#path-1"></use>
                            <g id="Color/Dark-Grey" mask="url(#mask-2)" fill="#384048">
                                <g transform="translate(-7.000000, -7.000000)" id="Swatch">
                                    <rect x="0" y="0" width="48" height="48"></rect>
                                </g>
                            </g>
                        </g>
                    </g>
                </g>
            </g>
        </g>
    </g>
</svg>