<?xml version="1.0" encoding="UTF-8" standalone="no"?>
<svg width="30px" height="25px" viewBox="0 0 30 25" version="1.1" xmlns="http://www.w3.org/2000/svg" xmlns:xlink="http://www.w3.org/1999/xlink">
    <!-- Generator: Sketch 46.1 (44463) - http://www.bohemiancoding.com/sketch -->
    <title>icon/ALL/cart</title>
    <desc>Created with Sketch.</desc>
    <defs>
        <path d="M5.73180224,6.09136406 C5.72899764,6.07864874 5.72643506,6.06584258 5.72411956,6.05295065 L5.09686276,2.91666667 L1.16666667,2.91666667 C0.614381917,2.91666667 0.166666667,2.46895142 0.166666667,1.91666667 C0.166666667,1.36438192 0.614381917,0.916666667 1.16666667,0.916666667 L5.91666667,0.916666667 C6.39334769,0.916666667 6.8037625,1.25312633 6.89724734,1.72055053 L7.52813724,4.875 L28.875,4.875 C29.5060464,4.875 29.9793391,5.45232421 29.8555807,6.07111614 L28.2722473,13.9877828 C28.1787625,14.455207 27.7683477,14.7916667 27.2916667,14.7916667 L9.51147057,14.7916667 L9.90313724,16.75 L27.2916667,16.75 C27.8439514,16.75 28.2916667,17.1977153 28.2916667,17.75 C28.2916667,18.3022847 27.8439514,18.75 27.2916667,18.75 L9.08333333,18.75 C8.60665231,18.75 8.1962375,18.4135403 8.10275266,17.9461161 L7.31513563,14.008031 C7.31233098,13.9953154 7.30976839,13.9825092 7.30745289,13.9696173 L5.7318023,6.09136435 Z M13.0416667,24.0833333 C11.7299904,24.0833333 10.6666667,23.0200096 10.6666667,21.7083333 C10.6666667,20.3966571 11.7299904,19.3333333 13.0416667,19.3333333 C14.3533429,19.3333333 15.4166667,20.3966571 15.4166667,21.7083333 C15.4166667,23.0200096 14.3533429,24.0833333 13.0416667,24.0833333 Z M23.3333333,24.0833333 C22.0216571,24.0833333 20.9583333,23.0200096 20.9583333,21.7083333 C20.9583333,20.3966571 22.0216571,19.3333333 23.3333333,19.3333333 C24.6450096,19.3333333 25.7083333,20.3966571 25.7083333,21.7083333 C25.7083333,23.0200096 24.6450096,24.0833333 23.3333333,24.0833333 Z" id="path-1"></path>
    </defs>
    <g id="Design-Foundations" stroke="none" stroke-width="1" fill="none" fill-rule="evenodd">
        <g id="Design-Foundations---Iconography-Glyph" transform="translate(-702.000000, -855.000000)">
            <g id="Action-Icons" transform="translate(87.000000, 790.000000)">
                <g id="cart" transform="translate(608.000000, 54.000000)">
                    <g id="icon/ALL/cart">
                        <g id="Icon" transform="translate(7.000000, 11.000000)">
                            <mask id="mask-2" fill="white">
                                <use xlink:href="#path-1"></use>
                            </mask>
                            <use id="Mask" fill="#384048" xlink:href="#path-1"></use>
                            <g id="Color/Dark-Grey" mask="url(#mask-2)" fill="#384048">
                                <g transform="translate(-7.000000, -11.000000)" id="Swatch">
                                    <rect x="0" y="0" width="48" height="48"></rect>
                                </g>
                            </g>
                        </g>
                    </g>
                </g>
            </g>
        </g>
    </g>
</svg>