<?xml version="1.0" encoding="utf-8"?>
<!-- Generator: Adobe Illustrator 21.1.0, SVG Export Plug-In . SVG Version: 6.00 Build 0)  -->
<svg version="1.1" id="Layer_1" xmlns="http://www.w3.org/2000/svg" xmlns:xlink="http://www.w3.org/1999/xlink" x="0px" y="0px"
	 viewBox="0 0 48 48" style="enable-background:new 0 0 48 48;" xml:space="preserve">
<style type="text/css">
	.st0{fill:#384048;}
	.st1{filter:url(#Adobe_OpacityMaskFilter);}
	.st2{fill:#FFFFFF;}
	.st3{mask:url(#mask-2);}
</style>
<title>icon/ALL/cart</title>
<desc>Created with Sketch.</desc>
<g id="Design-Foundations">
	<g id="Design-Foundations---Iconography-Glyph" transform="translate(-702.000000, -855.000000)">
		<g id="Action-Icons" transform="translate(87.000000, 790.000000)">
			<g id="cart" transform="translate(608.000000, 54.000000)">
				<g id="icon_x2F_ALL_x2F_cart">
					<g id="Icon" transform="translate(7.000000, 11.000000)">
						<g id="Mask">
							<path id="path-1_1_" class="st0" d="M12.7,17.1C12.7,17.1,12.7,17.1,12.7,17.1l-0.6-3.2H8.2c-0.6,0-1-0.4-1-1
								c0-0.6,0.4-1,1-1h4.7c0.5,0,0.9,0.3,1,0.8l0.6,3.2h21.3c0.6,0,1.1,0.6,1,1.2L35.3,25c-0.1,0.5-0.5,0.8-1,0.8H16.5l0.4,2h17.4
								c0.6,0,1,0.4,1,1s-0.4,1-1,1H16.1c-0.5,0-0.9-0.3-1-0.8L14.3,25c0,0,0,0,0,0C14.3,25,12.7,17.1,12.7,17.1z M20,35.1
								c-1.3,0-2.4-1.1-2.4-2.4c0-1.3,1.1-2.4,2.4-2.4c1.3,0,2.4,1.1,2.4,2.4C22.4,34,21.4,35.1,20,35.1z M30.3,35.1
								C29,35.1,28,34,28,32.7c0-1.3,1.1-2.4,2.4-2.4s2.4,1.1,2.4,2.4C32.7,34,31.6,35.1,30.3,35.1z"/>
						</g>
						<defs>
							<filter id="Adobe_OpacityMaskFilter" filterUnits="userSpaceOnUse" x="0" y="0" width="48" height="48">
								<feColorMatrix  type="matrix" values="1 0 0 0 0  0 1 0 0 0  0 0 1 0 0  0 0 0 1 0"/>
							</filter>
						</defs>
						<mask maskUnits="userSpaceOnUse" x="0" y="0" width="48" height="48" id="mask-2">
							<g class="st1">
								<path id="path-1" class="st2" d="M12.7,17.1C12.7,17.1,12.7,17.1,12.7,17.1l-0.6-3.2H8.2c-0.6,0-1-0.4-1-1c0-0.6,0.4-1,1-1
									h4.7c0.5,0,0.9,0.3,1,0.8l0.6,3.2h21.3c0.6,0,1.1,0.6,1,1.2L35.3,25c-0.1,0.5-0.5,0.8-1,0.8H16.5l0.4,2h17.4
									c0.6,0,1,0.4,1,1s-0.4,1-1,1H16.1c-0.5,0-0.9-0.3-1-0.8L14.3,25c0,0,0,0,0,0C14.3,25,12.7,17.1,12.7,17.1z M20,35.1
									c-1.3,0-2.4-1.1-2.4-2.4c0-1.3,1.1-2.4,2.4-2.4c1.3,0,2.4,1.1,2.4,2.4C22.4,34,21.4,35.1,20,35.1z M30.3,35.1
									C29,35.1,28,34,28,32.7c0-1.3,1.1-2.4,2.4-2.4s2.4,1.1,2.4,2.4C32.7,34,31.6,35.1,30.3,35.1z"/>
							</g>
						</mask>
						<g id="Color_x2F_Dark-Grey" class="st3">
							<g id="Swatch" transform="translate(-7.000000, -11.000000)">
								<rect x="7" y="11" class="st0" width="48" height="48"/>
							</g>
						</g>
					</g>
				</g>
			</g>
		</g>
	</g>
</g>
</svg>
