<?xml version="1.0" encoding="UTF-8" standalone="no"?>
<svg width="40px" height="40px" viewBox="0 0 40 40" version="1.1" xmlns="http://www.w3.org/2000/svg" xmlns:xlink="http://www.w3.org/1999/xlink">
    <!-- Generator: Sketch 46.2 (44496) - http://www.bohemiancoding.com/sketch -->
    <title>Artboard</title>
    <desc>Created with Sketch.</desc>
    <defs>
        <path d="M10.7318022,14.0913641 C10.7289976,14.0786487 10.7264351,14.0658426 10.7241196,14.0529506 L10.0968628,10.9166667 L6.16666667,10.9166667 C5.61438192,10.9166667 5.16666667,10.4689514 5.16666667,9.91666667 C5.16666667,9.36438192 5.61438192,8.91666667 6.16666667,8.91666667 L10.9166667,8.91666667 C11.3933477,8.91666667 11.8037625,9.25312633 11.8972473,9.72055053 L12.5281372,12.875 L33.875,12.875 C34.5060464,12.875 34.9793391,13.4523242 34.8555807,14.0711161 L33.2722473,21.9877828 C33.1787625,22.455207 32.7683477,22.7916667 32.2916667,22.7916667 L14.5114706,22.7916667 L14.9031372,24.75 L32.2916667,24.75 C32.8439514,24.75 33.2916667,25.1977153 33.2916667,25.75 C33.2916667,26.3022847 32.8439514,26.75 32.2916667,26.75 L14.0833333,26.75 C13.6066523,26.75 13.1962375,26.4135403 13.1027527,25.9461161 L12.3151356,22.008031 C12.312331,21.9953154 12.3097684,21.9825092 12.3074529,21.9696173 L10.7318023,14.0913643 L10.7318022,14.0913641 Z M18.0416667,32.0833333 C16.7299904,32.0833333 15.6666667,31.0200096 15.6666667,29.7083333 C15.6666667,28.3966571 16.7299904,27.3333333 18.0416667,27.3333333 C19.3533429,27.3333333 20.4166667,28.3966571 20.4166667,29.7083333 C20.4166667,31.0200096 19.3533429,32.0833333 18.0416667,32.0833333 Z M28.3333333,32.0833333 C27.0216571,32.0833333 25.9583333,31.0200096 25.9583333,29.7083333 C25.9583333,28.3966571 27.0216571,27.3333333 28.3333333,27.3333333 C29.6450096,27.3333333 30.7083333,28.3966571 30.7083333,29.7083333 C30.7083333,31.0200096 29.6450096,32.0833333 28.3333333,32.0833333 Z" id="path-1"></path>
    </defs>
    <g id="Page-1" stroke="none" stroke-width="1" fill="none" fill-rule="evenodd">
        <g id="Artboard">
            <mask id="mask-2" fill="white">
                <use xlink:href="#path-1"></use>
            </mask>
            <use id="path-1" fill="#FFFFFF" xlink:href="#path-1"></use>
        </g>
    </g>
</svg>