<?xml version="1.0" encoding="UTF-8" standalone="no"?>
<svg width="28px" height="22px" viewBox="0 0 28 22" version="1.1" xmlns="http://www.w3.org/2000/svg" xmlns:xlink="http://www.w3.org/1999/xlink">
    <!-- Generator: Sketch 46.1 (44463) - http://www.bohemiancoding.com/sketch -->
    <title>icon/ALL/chat-fill</title>
    <desc>Created with Sketch.</desc>
    <defs>
        <path d="M26.0248963,6.21616281 C26.9386722,6.21616281 27.8838174,7.02103636 27.8839336,8.36791148 L27.8839336,15.3013238 C27.8839336,15.8047135 27.6389046,16.3813821 27.2286639,16.8440081 C26.7760166,17.3543312 26.1980083,17.6549783 25.6008299,17.6909603 C25.5872365,17.6917971 25.5736432,17.6921557 25.560166,17.6921557 L23.818473,17.6921557 L23.8174274,21.2784035 C23.8174274,21.5660205 23.650473,21.8257844 23.3932448,21.9383926 C23.3052946,21.9770045 23.2124647,21.995653 23.1204481,21.995653 C22.9436183,21.995653 22.7694606,21.9263189 22.6368963,21.7950622 L18.5057925,17.7031535 C18.5002158,17.6990891 18.4951037,17.6953833 18.4902241,17.6921557 L13.9419087,17.6921557 C12.617195,17.6921557 11.6182573,16.6643371 11.6182573,15.3013238 L11.6182573,8.48745307 C11.6182573,7.23501581 12.6606473,6.21616281 13.9419087,6.21616281 L26.0248963,6.21616281 Z M10.9211618,8.48745307 L10.9210456,8.48745307 L10.9210456,13.0295554 C10.7556017,13.029675 10.6106058,13.0297945 10.4962822,13.029914 L6.28129461,17.0242768 C6.15012448,17.1487196 5.98061411,17.2139893 5.80889627,17.2139893 C5.71443983,17.2139893 5.61917012,17.194265 5.52912863,17.1536208 C5.27573444,17.0392195 5.1120332,16.7814878 5.1120332,16.4967398 L5.1120332,13.0937493 C5.07450622,13.0620707 5.00351867,13.02836 4.95820747,13.02836 L1.95430705,13.02836 C0.894954357,13.02836 0,11.9890654 0,10.7587433 L0,2.15174867 C0,0.96529836 0.886008299,0 1.97510373,0 L17.5435685,0 C18.6326639,0 19.5186722,0.96529836 19.5186722,2.15174867 L19.5186722,5.49891326 L13.9419087,5.49891326 C12.2763154,5.49891326 10.9211618,6.83957222 10.9211618,8.48745307 Z" id="path-1"></path>
    </defs>
    <g id="Design-Foundations" stroke="none" stroke-width="1" fill="none" fill-rule="evenodd">
        <g id="Design-Foundations---Iconography-Glyph" transform="translate(-705.000000, -1209.000000)">
            <g id="Action-Icons" transform="translate(87.000000, 790.000000)">
                <g id="chat-fill" transform="translate(608.000000, 406.000000)">
                    <g id="icon/ALL/chat-fill">
                        <g id="Icon" transform="translate(10.000000, 13.000000)">
                            <mask id="mask-2" fill="white">
                                <use xlink:href="#path-1"></use>
                            </mask>
                            <use id="Mask" fill="#384048" xlink:href="#path-1"></use>
                            <g id="Color/Dark-Grey" mask="url(#mask-2)" fill="#384048">
                                <g transform="translate(-10.000000, -13.000000)" id="Swatch">
                                    <rect x="0" y="0" width="48" height="48"></rect>
                                </g>
                            </g>
                        </g>
                    </g>
                </g>
            </g>
        </g>
    </g>
</svg>