<?xml version="1.0" encoding="UTF-8" standalone="no"?>
<svg width="28px" height="22px" viewBox="0 0 28 22" version="1.1" xmlns="http://www.w3.org/2000/svg" xmlns:xlink="http://www.w3.org/1999/xlink">
    <!-- Generator: Sketch 46.1 (44463) - http://www.bohemiancoding.com/sketch -->
    <title>icon/ALL/chat-line</title>
    <desc>Created with Sketch.</desc>
    <defs>
        <path d="M23.2167833,21.0833333 C23.0392167,21.0833333 22.8643333,21.016875 22.7312167,20.8910625 L18.5829,16.968875 C18.5773,16.9649792 18.5721667,16.9614271 18.5672667,16.9583333 L14,16.9583333 C12.6697667,16.9583333 11.6666667,15.9731458 11.6666667,14.6666667 L11.6666667,8.13541667 C11.6666667,6.93492708 12.7134,5.95833333 14,5.95833333 L26.1333333,5.95833333 C27.0509167,5.95833333 28,6.72982292 28,8.02083333 L28,14.6666667 C28,15.1491771 27.7540667,15.7019271 27.342,16.1453646 C26.8875833,16.6345208 26.30705,16.9226979 25.7075,16.9571875 C25.69385,16.9579896 25.6802,16.9583333 25.6666667,16.9583333 L23.9177167,16.9583333 L23.9166667,20.3958333 C23.9166667,20.6715208 23.7489,20.9205104 23.4907167,21.0284479 C23.4024,21.0654583 23.3091833,21.0833333 23.2167833,21.0833333 L23.2167833,21.0833333 Z M14,7.33333333 L26.1333333,7.33333333 C26.2855833,7.33333333 26.6,7.50142708 26.6,8.02083333 L26.6,14.6666667 C26.6,14.9140521 26.187,15.5396771 25.6428667,15.5833333 L23.6833333,15.5833333 C23.0291833,15.5833333 22.5166667,16.137 22.5166667,16.84375 L22.5166667,18.77975 L19.5221833,15.9483958 C19.5042167,15.9312083 19.4852,15.9151667 19.4653667,15.9000417 C19.1891,15.6898958 18.9203,15.5833333 18.6666667,15.5833333 L14,15.5833333 C13.4505,15.5833333 13.0666667,15.2063542 13.0666667,14.6666667 L13.0666667,8.13541667 C13.0666667,7.693125 13.4853833,7.33333333 14,7.33333333 Z M5.83321667,16.5 C5.73825,16.5 5.64258333,16.4810938 5.55216667,16.4421354 C5.29771667,16.3324792 5.13333333,16.0854375 5.13333333,15.8125 L5.13333333,12.5506563 C5.09565,12.5204063 5.02425,12.4879792 4.97886667,12.4879792 L1.96245,12.4879792 C0.898683333,12.4879792 0,11.4917917 0,10.3125 L0,2.0625 C0,0.925260417 0.8897,0 1.98333333,0 L17.6166667,0 C18.7103,0 19.6,0.925260417 19.6,2.0625 L19.6,6.07291667 L18.2,6.07291667 L18.2,2.0625 C18.2,1.63785417 17.8971333,1.375 17.6166667,1.375 L1.98333333,1.375 C1.70275,1.375 1.4,1.63785417 1.4,2.0625 L1.4,10.3125 C1.4,10.7559375 1.70765,11.1129792 1.96245,11.1129792 L4.97886667,11.1129792 C5.7141,11.1129792 6.53333333,11.6783333 6.53333333,12.4895833 L6.53333333,14.2445417 L9.79241667,11.2964271 C9.92168333,11.1794375 10.0909667,11.1145833 10.2666667,11.1145833 C10.6159667,11.1145833 11.6572167,11.1103438 11.6573333,11.1103438 L11.6631667,12.4853438 C11.6631667,12.4853438 10.9876667,12.4880938 10.5403667,12.489125 L6.30758333,16.3181563 C6.17575,16.4374375 6.00565,16.5 5.83321667,16.5 Z" id="path-1"></path>
    </defs>
    <g id="Design-Foundations" stroke="none" stroke-width="1" fill="none" fill-rule="evenodd">
        <g id="Design-Foundations---Iconography-Glyph" transform="translate(-401.000000, -1210.000000)">
            <g id="Action-Icons" transform="translate(87.000000, 790.000000)">
                <g id="chat-line" transform="translate(304.000000, 406.000000)">
                    <g id="icon/ALL/chat-line">
                        <g id="Icon" transform="translate(10.000000, 14.000000)">
                            <mask id="mask-2" fill="white">
                                <use xlink:href="#path-1"></use>
                            </mask>
                            <use id="Mask" fill="#384048" xlink:href="#path-1"></use>
                            <g id="Color/Dark-Grey" mask="url(#mask-2)" fill="#384048">
                                <g transform="translate(-10.000000, -14.000000)" id="Swatch">
                                    <rect x="0" y="0" width="48" height="48"></rect>
                                </g>
                            </g>
                        </g>
                    </g>
                </g>
            </g>
        </g>
    </g>
</svg>