<?xml version="1.0" encoding="UTF-8" standalone="no"?>
<svg width="14px" height="26px" viewBox="0 0 14 26" version="1.1" xmlns="http://www.w3.org/2000/svg" xmlns:xlink="http://www.w3.org/1999/xlink">
    <!-- Generator: Sketch 46.1 (44463) - http://www.bohemiancoding.com/sketch -->
    <title>icon/ALL/chevron-left</title>
    <desc>Created with Sketch.</desc>
    <defs>
        <path d="M18.2928932,19.7071068 C18.6834175,20.0976311 19.3165825,20.0976311 19.7071068,19.7071068 C20.0976311,19.3165825 20.0976311,18.6834175 19.7071068,18.2928932 L7.70710678,6.29289322 C7.31658249,5.90236893 6.68341751,5.90236893 6.29289322,6.29289322 L-5.70710678,18.2928932 C-6.09763107,18.6834175 -6.09763107,19.3165825 -5.70710678,19.7071068 C-5.31658249,20.0976311 -4.68341751,20.0976311 -4.29289322,19.7071068 L7,8.41421356 L18.2928932,19.7071068 Z" id="path-1"></path>
    </defs>
    <g id="Design-Foundations" stroke="none" stroke-width="1" fill="none" fill-rule="evenodd">
        <g id="Design-Foundations---Iconography-Glyph" transform="translate(-704.000000, -204.000000)">
            <g id="Navigation-Icons" transform="translate(80.000000, 143.000000)">
                <g id="chevron-left" transform="translate(608.000000, 50.000000)">
                    <g id="icon/ALL/chevron-left">
                        <g id="Icon" transform="translate(16.000000, 11.000000)">
                            <mask id="mask-2" fill="white">
                                <use xlink:href="#path-1"></use>
                            </mask>
                            <use id="Mask" fill="#384048" fill-rule="nonzero" transform="translate(7.000000, 13.000000) rotate(-90.000000) translate(-7.000000, -13.000000) " xlink:href="#path-1"></use>
                            <g id="Color/Dark-Grey" mask="url(#mask-2)" fill="#384048">
                                <g transform="translate(-16.000000, -11.000000)" id="Swatch">
                                    <rect x="0" y="0" width="48" height="48"></rect>
                                </g>
                            </g>
                        </g>
                    </g>
                </g>
            </g>
        </g>
    </g>
</svg>