<?xml version="1.0" encoding="UTF-8" standalone="no"?>
<svg width="22px" height="22px" viewBox="0 0 22 22" version="1.1" xmlns="http://www.w3.org/2000/svg" xmlns:xlink="http://www.w3.org/1999/xlink">
    <!-- Generator: Sketch 46.1 (44463) - http://www.bohemiancoding.com/sketch -->
    <title>icon/ALL/close</title>
    <desc>Created with Sketch.</desc>
    <defs>
        <path d="M11,9.58578644 L1.70710678,0.292893219 C1.31658249,-0.0976310729 0.683417511,-0.0976310729 0.292893219,0.292893219 C-0.0976310729,0.683417511 -0.0976310729,1.31658249 0.292893219,1.70710678 L9.58578644,11 L0.292893219,20.2928932 C-0.0976310729,20.6834175 -0.0976310729,21.3165825 0.292893219,21.7071068 C0.683417511,22.0976311 1.31658249,22.0976311 1.70710678,21.7071068 L11,12.4142136 L20.2928932,21.7071068 C20.6834175,22.0976311 21.3165825,22.0976311 21.7071068,21.7071068 C22.0976311,21.3165825 22.0976311,20.6834175 21.7071068,20.2928932 L12.4142136,11 L21.7071068,1.70710678 C22.0976311,1.31658249 22.0976311,0.683417511 21.7071068,0.292893219 C21.3165825,-0.0976310729 20.6834175,-0.0976310729 20.2928932,0.292893219 L11,9.58578644 Z" id="path-1"></path>
    </defs>
    <g id="Design-Foundations" stroke="none" stroke-width="1" fill="none" fill-rule="evenodd">
        <g id="Design-Foundations---Iconography-Glyph" transform="translate(-701.000000, -410.000000)">
            <g id="Navigation-Icons" transform="translate(80.000000, 143.000000)">
                <g id="close" transform="translate(608.000000, 254.000000)">
                    <g id="icon/ALL/close">
                        <g id="Icon" transform="translate(13.000000, 13.000000)">
                            <mask id="mask-2" fill="white">
                                <use xlink:href="#path-1"></use>
                            </mask>
                            <use id="Mask" fill="#384048" fill-rule="nonzero" xlink:href="#path-1"></use>
                            <g id="Color/Dark-Grey" mask="url(#mask-2)" fill="#384048">
                                <g transform="translate(-13.000000, -13.000000)" id="Swatch">
                                    <rect x="0" y="0" width="48" height="48"></rect>
                                </g>
                            </g>
                        </g>
                    </g>
                </g>
            </g>
        </g>
    </g>
</svg>