<?xml version="1.0" encoding="UTF-8" standalone="no"?>
<svg width="21px" height="16px" viewBox="0 0 21 16" version="1.1" xmlns="http://www.w3.org/2000/svg" xmlns:xlink="http://www.w3.org/1999/xlink">
    <!-- Generator: Sketch 46.1 (44463) - http://www.bohemiancoding.com/sketch -->
    <title>icon/ALL/collapse-right</title>
    <desc>Created with Sketch.</desc>
    <defs>
        <path d="M12.5857864,9 L8.29289322,13.2928932 C7.90236893,13.6834175 7.90236893,14.3165825 8.29289322,14.7071068 C8.68341751,15.0976311 9.31658249,15.0976311 9.70710678,14.7071068 L15.7071068,8.70710678 C16.0976311,8.31658249 16.0976311,7.68341751 15.7071068,7.29289322 L9.70710678,1.29289322 C9.31658249,0.902368927 8.68341751,0.902368927 8.29289322,1.29289322 C7.90236893,1.68341751 7.90236893,2.31658249 8.29289322,2.70710678 L12.5857864,7 L1,7 C0.44771525,7 0,7.44771525 0,8 C0,8.55228475 0.44771525,9 1,9 L12.5857864,9 Z M19,1 C19,0.44771525 19.4477153,0 20,0 C20.5522847,0 21,0.44771525 21,1 L21,15 C21,15.5522847 20.5522847,16 20,16 C19.4477153,16 19,15.5522847 19,15 L19,1 Z" id="path-1"></path>
    </defs>
    <g id="Design-Foundations" stroke="none" stroke-width="1" fill="none" fill-rule="evenodd">
        <g id="Design-Foundations---Iconography-Glyph" transform="translate(-702.000000, -613.000000)">
            <g id="Navigation-Icons" transform="translate(80.000000, 143.000000)">
                <g id="triancle-right-copy" transform="translate(608.000000, 454.000000)">
                    <g id="icon/ALL/collapse-right">
                        <g id="Icon" transform="translate(14.000000, 16.000000)">
                            <mask id="mask-2" fill="white">
                                <use xlink:href="#path-1"></use>
                            </mask>
                            <use id="Mask" fill="#384048" fill-rule="nonzero" xlink:href="#path-1"></use>
                            <g id="Color/Dark-Grey" mask="url(#mask-2)" fill="#384048">
                                <g transform="translate(-14.000000, -16.000000)" id="Swatch">
                                    <rect x="0" y="0" width="48" height="48"></rect>
                                </g>
                            </g>
                        </g>
                    </g>
                </g>
            </g>
        </g>
    </g>
</svg>