<?xml version="1.0" encoding="UTF-8" standalone="no"?>
<svg width="40px" height="40px" viewBox="0 0 40 40" version="1.1" xmlns="http://www.w3.org/2000/svg" xmlns:xlink="http://www.w3.org/1999/xlink">
    <!-- Generator: Sketch 46.2 (44496) - http://www.bohemiancoding.com/sketch -->
    <title>icon/error</title>
    <desc>Created with Sketch.</desc>
    <defs>
        <path d="M15.5288285,4.17379598 L11.7610646,0.458096745 C11.4727267,0.168699607 11.0999392,0 10.691856,0 L5.29091718,0.00907731585 C4.90687492,0.00907731585 4.530489,0.165468698 4.25861219,0.438403585 L0.575604014,4.06902222 C0.204500974,4.44149987 0,4.93690592 0,5.46377487 L0,10.6329985 C0,11.0614786 0.166295812,11.4641884 0.467955804,11.7668938 L4.1926145,15.5049786 C4.51035281,15.8242232 4.93328931,16 5.38363552,16 L10.6081722,16 C11.0633419,16 11.4910253,15.8219154 11.8120559,15.499363 L15.4083942,11.891053 C15.7898333,11.5080364 16,10.9993221 16,10.4575294 L16,5.31499921 C16,4.88413441 15.8324792,4.4785784 15.5288285,4.17379598 L15.5288285,4.17379598 Z M7.57388612,4.0022501 C7.57388612,3.74739292 7.77961211,3.54069166 8.03326682,3.54069166 C8.28692153,3.54069166 8.49264752,3.74739292 8.49264752,4.0022501 L8.49264752,10.1389772 C8.49264752,10.3938343 8.28692153,10.6005356 8.03326682,10.6005356 C7.77961211,10.6005356 7.57388612,10.3938343 7.57388612,10.1389772 L7.57388612,4.0022501 L7.57388612,4.0022501 Z M8.03326682,12.5403888 C7.7029721,12.5403888 7.43515315,12.2716848 7.43515315,11.940132 C7.43515315,11.6085023 7.7029721,11.3397214 8.03326682,11.3397214 C8.3636381,11.3397214 8.63145705,11.6085023 8.63145705,11.940132 C8.63145705,12.2716079 8.3636381,12.5403888 8.03326682,12.5403888 L8.03326682,12.5403888 Z" id="path-1"></path>
    </defs>
    <g id="Symbols" stroke="none" stroke-width="1" fill="none" fill-rule="evenodd">
        <g id="icon/error">
            <g id="Icon" transform="translate(12.000000, 12.000000)">
                <mask id="mask-2" fill="white">
                    <use xlink:href="#path-1"></use>
                </mask>
                <use id="Mask" fill="#9D2028" xlink:href="#path-1"></use>
            </g>
        </g>
    </g>
</svg>