<?xml version="1.0" encoding="UTF-8" standalone="no"?>
<svg width="25px" height="23px" viewBox="0 0 25 23" version="1.1" xmlns="http://www.w3.org/2000/svg" xmlns:xlink="http://www.w3.org/1999/xlink">
    <!-- Generator: Sketch 46.1 (44463) - http://www.bohemiancoding.com/sketch -->
    <title>icon/ALL/eye-crossed-out</title>
    <desc>Created with Sketch.</desc>
    <defs>
        <path d="M22.149,0.329 C22.361,0.11 22.595,0 22.848,0 C22.867,0 22.885,0.001 22.904,0.002 C23.181,0.018 23.416,0.128 23.611,0.329 C23.839,0.529 23.952,0.772 23.952,1.058 C23.952,1.342 23.839,1.602 23.611,1.836 L19.518,6.059 C20.005,6.361 20.492,6.705 20.979,7.09 C21.466,7.475 21.89,7.835 22.247,8.17 C22.604,8.506 22.953,8.841 23.294,9.176 C23.635,9.511 23.903,9.788 24.099,10.006 C24.293,10.223 24.472,10.425 24.634,10.609 L24.878,10.885 C25.04,11.053 25.04,11.271 24.878,11.539 C24.683,11.773 24.44,12.058 24.147,12.393 C23.855,12.728 23.27,13.306 22.393,14.128 C21.516,14.949 20.622,15.669 19.713,16.29 C18.803,16.909 17.69,17.47 16.374,17.973 C15.059,18.476 13.767,18.727 12.5,18.727 C11.136,18.727 9.674,18.408 8.114,17.772 L3.338,22.749 C3.143,22.916 2.899,23 2.607,23 C2.314,23 2.071,22.916 1.876,22.749 C1.681,22.514 1.583,22.238 1.583,21.919 C1.583,21.601 1.681,21.375 1.876,21.241 L22.149,0.329 Z M15.034,13.851 C14.32,14.588 13.458,14.957 12.452,14.957 C11.996,14.957 11.542,14.873 11.087,14.706 L10.307,15.51 C10.956,15.879 11.671,16.062 12.452,16.062 C13.329,16.062 14.124,15.837 14.839,15.385 C15.554,14.932 16.123,14.337 16.545,13.6 C16.967,12.862 17.179,12.058 17.179,11.187 C17.179,10.416 16.983,9.678 16.594,8.975 L15.814,9.779 C16.008,10.282 16.107,10.751 16.107,11.187 C16.107,12.226 15.749,13.114 15.034,13.851 Z M10.526,3.898 C11.192,3.764 11.85,3.696 12.5,3.696 C13.767,3.696 15.099,3.965 16.496,4.501 L14.303,6.763 C13.654,6.495 13.052,6.361 12.5,6.361 C11.2,6.361 10.096,6.83 9.187,7.769 C8.276,8.707 7.822,9.847 7.822,11.187 C7.822,11.79 7.935,12.393 8.163,12.996 L5.19,16.113 C4.28,15.543 3.412,14.865 2.583,14.078 C1.754,13.29 1.177,12.712 0.852,12.343 C0.528,11.975 0.284,11.689 0.121,11.489 C-0.041,11.287 -0.041,11.069 0.121,10.835 L0.341,10.559 C0.487,10.374 0.658,10.173 0.852,9.956 C1.048,9.738 1.308,9.469 1.633,9.151 C1.957,8.832 2.299,8.514 2.656,8.196 C3.013,7.877 3.42,7.534 3.874,7.165 C4.329,6.797 4.8,6.453 5.288,6.135 C5.775,5.816 6.311,5.507 6.896,5.205 C7.481,4.904 8.065,4.643 8.65,4.426 C9.235,4.208 9.86,4.032 10.526,3.898 Z M9.918,8.548 C10.631,7.827 11.493,7.467 12.5,7.467 C12.858,7.467 13.183,7.517 13.474,7.618 L9.04,12.193 C8.91,11.823 8.845,11.489 8.845,11.187 C8.845,10.148 9.203,9.269 9.918,8.548 Z" id="path-1"></path>
    </defs>
    <g id="Design-Foundations" stroke="none" stroke-width="1" fill="none" fill-rule="evenodd">
        <g id="Design-Foundations---Iconography-Glyph" transform="translate(-403.000000, -1385.000000)">
            <g id="Action-Icons" transform="translate(87.000000, 790.000000)">
                <g id="eye-crossed-out" transform="translate(304.000000, 582.000000)">
                    <g id="icon/ALL/eye-crossed-out">
                        <g id="Icon" transform="translate(12.000000, 13.000000)">
                            <mask id="mask-2" fill="white">
                                <use xlink:href="#path-1"></use>
                            </mask>
                            <use id="Mask" fill="#384048" xlink:href="#path-1"></use>
                            <g id="Color/Dark-Grey" mask="url(#mask-2)" fill="#384048">
                                <g transform="translate(-12.000000, -13.000000)" id="Swatch">
                                    <rect x="0" y="0" width="48" height="48"></rect>
                                </g>
                            </g>
                        </g>
                    </g>
                </g>
            </g>
        </g>
    </g>
</svg>