<?xml version="1.0" encoding="UTF-8" standalone="no"?>
<svg width="25px" height="14px" viewBox="0 0 25 14" version="1.1" xmlns="http://www.w3.org/2000/svg" xmlns:xlink="http://www.w3.org/1999/xlink">
    <!-- Generator: Sketch 46.1 (44463) - http://www.bohemiancoding.com/sketch -->
    <title>icon/ALL/eye</title>
    <desc>Created with Sketch.</desc>
    <defs>
        <path d="M24.8539,6.718 C25.0489,6.906 25.0489,7.094 24.8539,7.282 C24.6589,7.532 24.4729,7.752 24.2939,7.94 C24.1159,8.127 23.7099,8.535 23.0769,9.161 C22.4439,9.787 21.7789,10.335 21.0809,10.805 C20.3829,11.275 19.5799,11.776 18.6709,12.309 C17.7619,12.841 16.7719,13.256 15.7009,13.554 C14.6299,13.851 13.5589,14 12.4879,14 C11.2219,14 9.9319,13.765 8.6169,13.295 C7.3029,12.825 6.2069,12.317 5.3309,11.769 C4.4549,11.22 3.5539,10.547 2.6289,9.748 C1.7039,8.95 1.1199,8.417 0.8759,8.151 C0.6329,7.885 0.3809,7.595 0.1219,7.282 C-0.0411,7.125 -0.0411,6.937 0.1219,6.718 C0.3809,6.405 0.6329,6.115 0.8759,5.849 C1.1199,5.583 1.7039,5.05 2.6289,4.252 C3.5539,3.453 4.4549,2.78 5.3309,2.231 C6.2069,1.683 7.3029,1.175 8.6169,0.705 C9.9319,0.235 11.2219,0 12.4879,0 C13.7539,0 15.0359,0.227 16.3339,0.681 C17.6319,1.135 18.7519,1.66 19.6929,2.255 C20.6349,2.85 21.5189,3.5 22.3469,4.205 C23.1739,4.909 23.7749,5.465 24.1479,5.873 C24.5209,6.28 24.7569,6.562 24.8539,6.718 M12.4879,11.51 C13.7859,11.51 14.8899,11.072 15.7989,10.195 C16.7069,9.318 17.1619,8.253 17.1619,7 C17.1619,5.747 16.7069,4.682 15.7989,3.805 C14.8899,2.928 13.7859,2.49 12.4879,2.49 C11.1899,2.49 10.0859,2.928 9.1769,3.805 C8.2679,4.682 7.8139,5.747 7.8139,7 C7.8139,8.253 8.2679,9.318 9.1769,10.195 C10.0859,11.072 11.1899,11.51 12.4879,11.51 M16.1389,7 C16.1389,7.971 15.7819,8.801 15.0679,9.49 C14.3539,10.179 13.4939,10.523 12.4879,10.523 C11.4819,10.523 10.6219,10.179 9.9079,9.49 C9.1939,8.801 8.8359,7.971 8.8359,7 C8.8359,6.029 9.1939,5.199 9.9079,4.51 C10.6219,3.821 11.4819,3.477 12.4879,3.477 C13.4939,3.477 14.3539,3.821 15.0679,4.51 C15.7819,5.199 16.1389,6.029 16.1389,7" id="path-1"></path>
    </defs>
    <g id="Design-Foundations" stroke="none" stroke-width="1" fill="none" fill-rule="evenodd">
        <g id="Design-Foundations---Iconography-Glyph" transform="translate(-99.000000, -1389.000000)">
            <g id="Action-Icons" transform="translate(87.000000, 790.000000)">
                <g id="eye" transform="translate(0.000000, 582.000000)">
                    <g id="icon/ALL/eye">
                        <g id="Icon" transform="translate(12.000000, 17.000000)">
                            <mask id="mask-2" fill="white">
                                <use xlink:href="#path-1"></use>
                            </mask>
                            <use id="Mask" fill="#384048" xlink:href="#path-1"></use>
                            <g id="Color/Dark-Grey" mask="url(#mask-2)" fill="#384048">
                                <g transform="translate(-12.000000, -17.000000)" id="Swatch">
                                    <rect x="0" y="0" width="48" height="48"></rect>
                                </g>
                            </g>
                        </g>
                    </g>
                </g>
            </g>
        </g>
    </g>
</svg>