<?xml version="1.0" encoding="UTF-8" standalone="no"?>
<svg width="22px" height="22px" viewBox="0 0 22 22" version="1.1" xmlns="http://www.w3.org/2000/svg" xmlns:xlink="http://www.w3.org/1999/xlink">
    <!-- Generator: Sketch 46.1 (44463) - http://www.bohemiancoding.com/sketch -->
    <title>icon/ALL/grid-fill</title>
    <desc>Created with Sketch.</desc>
    <defs>
        <path d="M0,0.995397568 C0,0.445654671 0.455664396,0 0.995397568,0 L9.00460243,0 C9.55434533,0 10,0.455664396 10,0.995397568 L10,9.00460243 C10,9.55434533 9.5443356,10 9.00460243,10 L0.995397568,10 C0.445654671,10 0,9.5443356 0,9.00460243 L0,0.995397568 Z M0,12.9953976 C0,12.4456547 0.455664396,12 0.995397568,12 L9.00460243,12 C9.55434533,12 10,12.4556644 10,12.9953976 L10,21.0046024 C10,21.5543453 9.5443356,22 9.00460243,22 L0.995397568,22 C0.445654671,22 0,21.5443356 0,21.0046024 L0,12.9953976 Z M12,0.995397568 C12,0.445654671 12.4556644,0 12.9953976,0 L21.0046024,0 C21.5543453,0 22,0.455664396 22,0.995397568 L22,9.00460243 C22,9.55434533 21.5443356,10 21.0046024,10 L12.9953976,10 C12.4456547,10 12,9.5443356 12,9.00460243 L12,0.995397568 Z M12,12.9953976 C12,12.4456547 12.4556644,12 12.9953976,12 L21.0046024,12 C21.5543453,12 22,12.4556644 22,12.9953976 L22,21.0046024 C22,21.5543453 21.5443356,22 21.0046024,22 L12.9953976,22 C12.4456547,22 12,21.5443356 12,21.0046024 L12,12.9953976 Z" id="path-1"></path>
    </defs>
    <g id="Design-Foundations" stroke="none" stroke-width="1" fill="none" fill-rule="evenodd">
        <g id="Design-Foundations---Iconography-Glyph" transform="translate(-708.000000, -1385.000000)">
            <g id="Action-Icons" transform="translate(87.000000, 790.000000)">
                <g id="grid-fill" transform="translate(608.000000, 582.000000)">
                    <g id="icon/ALL/grid-fill">
                        <g id="Icon" transform="translate(13.000000, 13.000000)">
                            <mask id="mask-2" fill="white">
                                <use xlink:href="#path-1"></use>
                            </mask>
                            <use id="Mask" fill="#384048" xlink:href="#path-1"></use>
                            <g id="Color/Dark-Grey" mask="url(#mask-2)" fill="#384048">
                                <g transform="translate(-13.000000, -13.000000)" id="Swatch">
                                    <rect x="0" y="0" width="48" height="48"></rect>
                                </g>
                            </g>
                        </g>
                    </g>
                </g>
            </g>
        </g>
    </g>
</svg>