<?xml version="1.0" encoding="UTF-8" standalone="no"?>
<svg width="26px" height="25px" viewBox="0 0 26 25" version="1.1" xmlns="http://www.w3.org/2000/svg" xmlns:xlink="http://www.w3.org/1999/xlink">
    <!-- Generator: Sketch 46.1 (44463) - http://www.bohemiancoding.com/sketch -->
    <title>icon/ALL/heart-fill</title>
    <desc>Created with Sketch.</desc>
    <defs>
        <path d="M18.6518757,0 C15.3606478,0 12.9999524,3.5 12.9999524,3.5 C12.9999524,3.5 10.783814,0 7.3480291,0 C5.62237319,0 3.90706856,0.786298077 2.65372023,2.10300481 C1.12160932,3.71033654 0.0311132223,5.87512019 0.000661178952,8.22367788 C-0.0299112282,10.56875 1.00268988,12.7807692 2.48713672,14.4335337 L11.415724,24.0450721 C11.8639588,24.5455529 12.3800788,25 12.9999524,25 C13.619826,25 14.2826695,24.5455529 14.7313858,24.043149 L23.6617785,14.4314904 C25.1458643,12.7788462 26.0295753,10.5683894 25.9992437,8.22367788 C25.968912,5.87487981 25.0273059,3.70841346 23.4950746,2.10108173 C22.2416059,0.786057692 20.3771706,0 18.6518757,0" id="path-1"></path>
    </defs>
    <g id="Design-Foundations" stroke="none" stroke-width="1" fill="none" fill-rule="evenodd">
        <g id="Design-Foundations---Iconography-Glyph" transform="translate(-706.000000, -1040.000000)">
            <g id="Action-Icons" transform="translate(87.000000, 790.000000)">
                <g id="heart-fill" transform="translate(608.000000, 238.000000)">
                    <g id="icon/ALL/heart-fill">
                        <g id="Icon" transform="translate(11.000000, 12.000000)">
                            <mask id="mask-2" fill="white">
                                <use xlink:href="#path-1"></use>
                            </mask>
                            <use id="Mask" fill="#384048" xlink:href="#path-1"></use>
                            <g id="Color/Dark-Grey" mask="url(#mask-2)" fill="#384048">
                                <g transform="translate(-11.000000, -12.000000)" id="Swatch">
                                    <rect x="0" y="0" width="48" height="48"></rect>
                                </g>
                            </g>
                        </g>
                    </g>
                </g>
            </g>
        </g>
    </g>
</svg>