<?xml version="1.0" encoding="UTF-8" standalone="no"?>
<svg width="40px" height="40px" viewBox="0 0 40 40" version="1.1" xmlns="http://www.w3.org/2000/svg" xmlns:xlink="http://www.w3.org/1999/xlink">
    <!-- Generator: Sketch 46.2 (44496) - http://www.bohemiancoding.com/sketch -->
    <title>icon/info</title>
    <desc>Created with Sketch.</desc>
    <defs>
        <path d="M8,0 C3.58169231,0 0,3.58169231 0,8 C0,12.4183077 3.58169231,16 8,16 C12.4183077,16 16,12.4183077 16,8 C16,3.58169231 12.4183077,0 8,0 L8,0 Z M8.46153846,11.7333077 C8.46153846,11.9881538 8.25484615,12.1948462 8,12.1948462 C7.74515385,12.1948462 7.53846154,11.9881538 7.53846154,11.7333077 L7.53846154,5.46669231 C7.53846154,5.21184615 7.74515385,5.00515385 8,5.00515385 C8.25484615,5.00515385 8.46153846,5.21184615 8.46153846,5.46669231 L8.46153846,11.7333077 L8.46153846,11.7333077 Z M8,4.4 C7.66861538,4.4 7.4,4.13138462 7.4,3.8 C7.4,3.46861538 7.66861538,3.2 8,3.2 C8.33138462,3.2 8.6,3.46861538 8.6,3.8 C8.6,4.13138462 8.33138462,4.4 8,4.4 L8,4.4 Z" id="path-1"></path>
    </defs>
    <g id="Symbols" stroke="none" stroke-width="1" fill="none" fill-rule="evenodd">
        <g id="icon/info">
            <g id="Icon" transform="translate(12.000000, 12.000000)">
                <mask id="mask-2" fill="white">
                    <use xlink:href="#path-1"></use>
                </mask>
                <use id="Mask" fill="#056B9E" xlink:href="#path-1"></use>
            </g>
        </g>
    </g>
</svg>