<?xml version="1.0" encoding="UTF-8" standalone="no"?>
<svg width="22px" height="22px" viewBox="0 0 22 22" version="1.1" xmlns="http://www.w3.org/2000/svg" xmlns:xlink="http://www.w3.org/1999/xlink">
    <!-- Generator: Sketch 46.1 (44463) - http://www.bohemiancoding.com/sketch -->
    <title>icon/ALL/list-fill</title>
    <desc>Created with Sketch.</desc>
    <defs>
        <path d="M-3.55271368e-15,0.990777969 C-3.55271368e-15,0.443586406 0.45097518,0 0.990777969,0 L5.00922203,0 C5.55641359,0 6,0.45097518 6,0.990777969 L6,5.00922203 C6,5.55641359 5.54902482,6 5.00922203,6 L0.990777969,6 C0.443586406,6 -3.55271368e-15,5.54902482 -3.55271368e-15,5.00922203 L-3.55271368e-15,0.990777969 Z M-3.55271368e-15,8.99077797 C-3.55271368e-15,8.44358641 0.45097518,8 0.990777969,8 L5.00922203,8 C5.55641359,8 6,8.45097518 6,8.99077797 L6,13.009222 C6,13.5564136 5.54902482,14 5.00922203,14 L0.990777969,14 C0.443586406,14 -3.55271368e-15,13.5490248 -3.55271368e-15,13.009222 L-3.55271368e-15,8.99077797 Z M8,0.990777969 C8,0.443586406 8.44994876,0 9.00684547,0 L20.9931545,0 C21.5492199,0 22,0.45097518 22,0.990777969 L22,5.00922203 C22,5.55641359 21.5500512,6 20.9931545,6 L9.00684547,6 C8.45078007,6 8,5.54902482 8,5.00922203 L8,0.990777969 Z M8,8.99077797 C8,8.44358641 8.44994876,8 9.00684547,8 L20.9931545,8 C21.5492199,8 22,8.45097518 22,8.99077797 L22,13.009222 C22,13.5564136 21.5500512,14 20.9931545,14 L9.00684547,14 C8.45078007,14 8,13.5490248 8,13.009222 L8,8.99077797 Z M-3.55271368e-15,16.990778 C-3.55271368e-15,16.4435864 0.45097518,16 0.990777969,16 L5.00922203,16 C5.55641359,16 6,16.4509752 6,16.990778 L6,21.009222 C6,21.5564136 5.54902482,22 5.00922203,22 L0.990777969,22 C0.443586406,22 -3.55271368e-15,21.5490248 -3.55271368e-15,21.009222 L-3.55271368e-15,16.990778 Z M8,16.990778 C8,16.4435864 8.44994876,16 9.00684547,16 L20.9931545,16 C21.5492199,16 22,16.4509752 22,16.990778 L22,21.009222 C22,21.5564136 21.5500512,22 20.9931545,22 L9.00684547,22 C8.45078007,22 8,21.5490248 8,21.009222 L8,16.990778 Z" id="path-1"></path>
    </defs>
    <g id="Design-Foundations" stroke="none" stroke-width="1" fill="none" fill-rule="evenodd">
        <g id="Design-Foundations---Iconography-Glyph" transform="translate(-404.000000, -1469.000000)">
            <g id="Action-Icons" transform="translate(87.000000, 790.000000)">
                <g id="list-fill" transform="translate(304.000000, 666.000000)">
                    <g id="icon/ALL/list-fill">
                        <g id="Icon" transform="translate(13.000000, 13.000000)">
                            <mask id="mask-2" fill="white">
                                <use xlink:href="#path-1"></use>
                            </mask>
                            <use id="Mask" fill="#384048" xlink:href="#path-1"></use>
                            <g id="Color/Dark-Grey" mask="url(#mask-2)" fill="#384048">
                                <g transform="translate(-13.000000, -13.000000)" id="Swatch">
                                    <rect x="0" y="0" width="48" height="48"></rect>
                                </g>
                            </g>
                        </g>
                    </g>
                </g>
            </g>
        </g>
    </g>
</svg>