<?xml version="1.0" encoding="UTF-8" standalone="no"?>
<svg width="22px" height="22px" viewBox="0 0 22 22" version="1.1" xmlns="http://www.w3.org/2000/svg" xmlns:xlink="http://www.w3.org/1999/xlink">
    <!-- Generator: Sketch 46.1 (44463) - http://www.bohemiancoding.com/sketch -->
    <title>icon/ALL/list-line</title>
    <desc>Created with Sketch.</desc>
    <defs>
        <path d="M1,5 L5,5 L5,1 L1,1 L1,5 Z M0,0.990777969 C0,0.443586406 0.45097518,0 0.990777969,0 L5.00922203,0 C5.55641359,0 6,0.45097518 6,0.990777969 L6,5.00922203 C6,5.55641359 5.54902482,6 5.00922203,6 L0.990777969,6 C0.443586406,6 0,5.54902482 0,5.00922203 L0,0.990777969 Z M1,9 L1,13 L5,13 L5,9 L1,9 Z M0,8.99077797 C0,8.44358641 0.45097518,8 0.990777969,8 L5.00922203,8 C5.55641359,8 6,8.45097518 6,8.99077797 L6,13.009222 C6,13.5564136 5.54902482,14 5.00922203,14 L0.990777969,14 C0.443586406,14 0,13.5490248 0,13.009222 L0,8.99077797 Z M21,5.00922203 L21,5.00372727 C21.0000765,5.00504828 21,5.00682816 21,5.00922203 Z M9,5.00922203 C9,4.99682621 20.9931545,5 20.9931545,5 C20.9986859,5 21,0.990777969 21,0.990777969 C21,1.00317379 9.00684547,1 9.00684547,1 C9.0013141,1 9,5.00922203 9,5.00922203 Z M8,0.990777969 C8,0.443586406 8.44994876,0 9.00684547,0 L20.9931545,0 C21.5492199,0 22,0.45097518 22,0.990777969 L22,5.00922203 C22,5.55641359 21.5500512,6 20.9931545,6 L9.00684547,6 C8.45078007,6 8,5.54902482 8,5.00922203 L8,0.990777969 Z M21,13.009222 L21,13.0037273 C21.0000765,13.0050483 21,13.0068282 21,13.009222 Z M9,13.009222 C9,12.9968262 20.9931545,13 20.9931545,13 C20.9986859,13 21,8.99077797 21,8.99077797 C21,9.00317379 9.00684547,9 9.00684547,9 C9.0013141,9 9,13.009222 9,13.009222 Z M8,8.99077797 C8,8.44358641 8.44994876,8 9.00684547,8 L20.9931545,8 C21.5492199,8 22,8.45097518 22,8.99077797 L22,13.009222 C22,13.5564136 21.5500512,14 20.9931545,14 L9.00684547,14 C8.45078007,14 8,13.5490248 8,13.009222 L8,8.99077797 Z M1,21 L5,21 L5,17 L1,17 L1,21 Z M0,16.990778 C0,16.4435864 0.45097518,16 0.990777969,16 L5.00922203,16 C5.55641359,16 6,16.4509752 6,16.990778 L6,21.009222 C6,21.5564136 5.54902482,22 5.00922203,22 L0.990777969,22 C0.443586406,22 0,21.5490248 0,21.009222 L0,16.990778 Z M21,21.009222 L21,21.0037273 C21.0000765,21.0050483 21,21.0068282 21,21.009222 Z M9,16.990778 L9,16.9962727 C8.99992349,16.9949517 9,16.9931718 9,16.990778 Z M9,21.009222 C9,20.9968262 20.9931545,21 20.9931545,21 C20.9986859,21 21,16.990778 21,16.990778 C21,17.0031738 9.00684547,17 9.00684547,17 C9.0013141,17 9,21.009222 9,21.009222 Z M8,16.990778 C8,16.4435864 8.44994876,16 9.00684547,16 L20.9931545,16 C21.5492199,16 22,16.4509752 22,16.990778 L22,21.009222 C22,21.5564136 21.5500512,22 20.9931545,22 L9.00684547,22 C8.45078007,22 8,21.5490248 8,21.009222 L8,16.990778 Z" id="path-1"></path>
    </defs>
    <g id="Design-Foundations" stroke="none" stroke-width="1" fill="none" fill-rule="evenodd">
        <g id="Design-Foundations---Iconography-Glyph" transform="translate(-708.000000, -1469.000000)">
            <g id="Action-Icons" transform="translate(87.000000, 790.000000)">
                <g id="list-line" transform="translate(608.000000, 666.000000)">
                    <g id="icon/ALL/list-line">
                        <g id="Icon" transform="translate(13.000000, 13.000000)">
                            <mask id="mask-2" fill="white">
                                <use xlink:href="#path-1"></use>
                            </mask>
                            <use id="Mask" fill="#384048" fill-rule="nonzero" xlink:href="#path-1"></use>
                            <g id="Color/Dark-Grey" mask="url(#mask-2)" fill="#384048">
                                <g transform="translate(-13.000000, -13.000000)" id="Swatch">
                                    <rect x="0" y="0" width="48" height="48"></rect>
                                </g>
                            </g>
                        </g>
                    </g>
                </g>
            </g>
        </g>
    </g>
</svg>