<?xml version="1.0" encoding="UTF-8" standalone="no"?>
<svg width="28px" height="28px" viewBox="0 0 28 28" version="1.1" xmlns="http://www.w3.org/2000/svg" xmlns:xlink="http://www.w3.org/1999/xlink">
    <!-- Generator: Sketch 46.1 (44463) - http://www.bohemiancoding.com/sketch -->
    <title>icon/ALL/plus</title>
    <desc>Created with Sketch.</desc>
    <defs>
        <path d="M15.5,12.5 L15.5,2 C15.5,1.17157288 14.8284271,0.5 14,0.5 C13.1715729,0.5 12.5,1.17157288 12.5,2 L12.5,12.5 L2,12.5 C1.17157288,12.5 0.5,13.1715729 0.5,14 C0.5,14.8284271 1.17157288,15.5 2,15.5 L12.5,15.5 L12.5,26 C12.5,26.8284271 13.1715729,27.5 14,27.5 C14.8284271,27.5 15.5,26.8284271 15.5,26 L15.5,15.5 L26,15.5 C26.8284271,15.5 27.5,14.8284271 27.5,14 C27.5,13.1715729 26.8284271,12.5 26,12.5 L15.5,12.5 Z" id="path-1"></path>
    </defs>
    <g id="Design-Foundations" stroke="none" stroke-width="1" fill="none" fill-rule="evenodd">
        <g id="Design-Foundations---Iconography-Glyph" transform="translate(-394.000000, -407.000000)">
            <g id="Navigation-Icons" transform="translate(80.000000, 143.000000)">
                <g id="plus" transform="translate(304.000000, 254.000000)">
                    <g id="icon/ALL/plus">
                        <g id="Icon" transform="translate(10.000000, 10.000000)">
                            <mask id="mask-2" fill="white">
                                <use xlink:href="#path-1"></use>
                            </mask>
                            <use id="Mask" fill="#384048" fill-rule="nonzero" xlink:href="#path-1"></use>
                            <g id="Color/Dark-Grey" mask="url(#mask-2)" fill="#384048">
                                <g transform="translate(-10.000000, -10.000000)" id="Swatch">
                                    <rect x="0" y="0" width="48" height="48"></rect>
                                </g>
                            </g>
                        </g>
                    </g>
                </g>
            </g>
        </g>
    </g>
</svg>