<?xml version="1.0" encoding="UTF-8" standalone="no"?>
<svg width="24px" height="24px" viewBox="0 0 24 24" version="1.1" xmlns="http://www.w3.org/2000/svg" xmlns:xlink="http://www.w3.org/1999/xlink">
    <!-- Generator: Sketch 46.1 (44463) - http://www.bohemiancoding.com/sketch -->
    <title>icon/ALL/search</title>
    <desc>Created with Sketch.</desc>
    <defs>
        <path d="M23.5472308,20.8533589 C22.8711923,20.2303923 17.6666538,15.1903923 16.4358462,13.9980861 C17.4208846,12.5617608 17.9976923,10.826067 17.9976923,8.95578947 C17.9975769,4.00960766 13.9686923,0 8.99884615,0 C4.02888462,0 0,4.00960766 0,8.95578947 C0,13.9019713 4.02888462,17.9115789 8.99884615,17.9115789 C10.7606538,17.9115789 12.4029231,17.4057416 13.7907692,16.5348517 C14.9098846,17.6396555 20.1620769,22.8208995 20.8782692,23.4744115 C21.2033077,23.7707943 21.5943462,23.9164019 21.9933462,23.9164019 C22.4892692,23.9162871 22.9971923,23.6913301 23.4045,23.2514067 C24.1249615,22.4731866 24.1863462,21.4422201 23.5472308,20.8533589 L23.5472308,20.8533589 Z M2.19115385,8.95578947 C2.19115385,5.21997681 5.24507285,2.18066986 8.99884615,2.18066986 C12.7526195,2.18066986 15.8065385,5.21997681 15.8065385,8.95578947 C15.8065385,12.6916021 12.7526195,15.7309091 8.99884615,15.7309091 C5.24507285,15.7309091 2.19115385,12.6916021 2.19115385,8.95578947 L2.19115385,8.95578947 Z" id="path-1"></path>
    </defs>
    <g id="Design-Foundations" stroke="none" stroke-width="1" fill="none" fill-rule="evenodd">
        <g id="Design-Foundations---Iconography-Glyph" transform="translate(-99.000000, -856.000000)">
            <g id="Action-Icons" transform="translate(87.000000, 790.000000)">
                <g id="search" transform="translate(0.000000, 54.000000)">
                    <g id="icon/ALL/search">
                        <g id="Icon" transform="translate(12.000000, 12.000000)">
                            <mask id="mask-2" fill="white">
                                <use xlink:href="#path-1"></use>
                            </mask>
                            <use id="Mask" fill="#384048" xlink:href="#path-1"></use>
                            <g id="Color/Dark-Grey" mask="url(#mask-2)" fill="#384048">
                                <g transform="translate(-12.000000, -12.000000)" id="Swatch">
                                    <rect x="0" y="0" width="48" height="48"></rect>
                                </g>
                            </g>
                        </g>
                    </g>
                </g>
            </g>
        </g>
    </g>
</svg>