<?xml version="1.0" encoding="UTF-8" standalone="no"?>
<svg width="25px" height="25px" viewBox="0 0 25 25" version="1.1" xmlns="http://www.w3.org/2000/svg" xmlns:xlink="http://www.w3.org/1999/xlink">
    <!-- Generator: Sketch 46.1 (44463) - http://www.bohemiancoding.com/sketch -->
    <title>icon/ALL/settings</title>
    <desc>Created with Sketch.</desc>
    <defs>
        <path d="M24.6793312,11.1634423 C24.6149264,10.2059064 24.0811169,9.67002121 23.1352836,9.61380112 C22.9051645,9.60016475 22.6015931,9.5886815 22.3077836,9.5775571 C22.0954026,9.56954274 21.8890931,9.56176762 21.7251645,9.55363365 C21.5568312,9.54538006 21.5106407,9.50016475 21.4574264,9.36870542 C21.413736,9.26104992 21.3706407,9.15303557 21.3276645,9.04514083 C21.2098074,8.74968628 21.0879026,8.44430351 20.9536169,8.14262887 C20.8918312,8.00387289 20.8814741,7.92492552 21.041236,7.7505236 C21.1467122,7.63569107 21.3142122,7.47923174 21.476236,7.32791595 C21.6955217,7.12313126 21.9221883,6.91140877 22.0883788,6.71930351 C22.6580217,6.06009298 22.6361169,5.29956667 22.0296883,4.68497337 C21.4071883,4.05411212 20.7827836,3.42516475 20.1570693,2.79753317 C19.8598074,2.49956667 19.5024264,2.3421504 19.1232598,2.3421504 C18.7731407,2.3421504 18.4344503,2.47875327 18.1436169,2.73736571 C18.0119503,2.85459059 17.8169503,3.00877719 17.6283788,3.15793987 C17.3867122,3.34920782 17.1365931,3.54705471 16.948855,3.72085853 C16.8525455,3.80997337 16.7954026,3.80997337 16.7765931,3.80997337 C16.7477836,3.80997337 16.7134979,3.8025571 16.6746883,3.78808341 C16.2677836,3.63581069 15.8359979,3.45375327 15.3157598,3.21499729 C15.2627836,3.19071499 15.2169503,3.16966236 15.2100455,3.00351404 C15.2044503,2.87145662 15.198736,2.7143992 15.1926645,2.54860973 C15.1800455,2.20219825 15.1656407,1.80937528 15.148855,1.52564322 C15.0949264,0.616791548 14.5186169,0.0384422652 13.6449264,0.0163130786 C12.7920693,-0.00533763909 11.9175455,-0.00545725631 11.0480217,0.0160738442 C10.1800455,0.037246093 9.58766454,0.629231739 9.53873597,1.52444705 C9.5173074,1.91822695 9.49004549,2.56332265 9.48159311,2.96104992 C9.4773074,3.15793987 9.42659311,3.19884896 9.30302168,3.25124131 C9.18837882,3.2998059 9.07385501,3.34884896 8.95933121,3.39801164 C8.66290263,3.52504514 8.35647406,3.65638485 8.05647406,3.77384896 C8.0020693,3.79514083 7.95278359,3.80638485 7.91385501,3.80638485 C7.88873597,3.80638485 7.8295693,3.80638485 7.72635501,3.7094949 C7.42421216,3.42600207 6.98897406,3.02767671 6.66778359,2.74095423 C6.37516454,2.47959059 6.0345693,2.34155231 5.68290263,2.34155231 C5.30528359,2.34155231 4.94909311,2.49837049 4.65337882,2.79478198 C4.02718835,3.42205471 3.40290263,4.05124131 2.78040263,4.68210255 C2.17349787,5.29705471 2.14921216,6.05698294 2.71516454,6.71499729 C2.87718835,6.90339442 3.07885501,7.1248059 3.27385501,7.33892073 C3.41492644,7.49382504 3.55314073,7.64549968 3.66861692,7.77660016 C3.81135501,7.93844227 3.79218835,8.00459059 3.74278359,8.11703078 C3.59445025,8.45411212 3.45814073,8.79645662 3.32635501,9.12743748 L3.23075978,9.36679155 C3.17683121,9.50124131 3.12837882,9.54717432 2.94695025,9.55459059 C2.83802168,9.55913605 2.71028359,9.56380112 2.57421216,9.56870542 C2.21837882,9.5817437 1.81504549,9.59645662 1.52623597,9.61571499 C0.586950253,9.67815518 0.0361169195,10.2428681 0.0149264433,11.1648777 C-0.00483546144,12.0236097 -0.00495450906,12.8764805 0.0144502528,13.6998059 C0.0368312052,14.6486097 0.605521681,15.2201408 1.57492644,15.2677485 C1.73599787,15.2755236 1.9373074,15.2828203 2.14599787,15.2902365 C2.44171216,15.3008825 2.74754549,15.3117676 2.96683121,15.3255236 C3.14040263,15.3367676 3.18016454,15.3897581 3.22445025,15.4998059 L3.33242644,15.7702604 C3.46040263,16.0916719 3.59278359,16.4239686 3.73849787,16.7513609 C3.79278359,16.8733705 3.81349787,16.9452604 3.65159311,17.123849 L3.44266454,17.353514 C3.19695025,17.6230116 2.91849787,17.928514 2.70849787,18.1720547 C2.1545693,18.8146384 2.17754549,19.5865284 2.76814073,20.186648 C3.37064073,20.7986097 3.98968835,21.4224136 4.66064073,22.0934662 C4.94802168,22.3807868 5.31099787,22.53916 5.68290263,22.53916 C6.03147406,22.53916 6.3670693,22.4051887 6.65337882,22.1516002 C7.03361692,21.8146384 7.53409311,21.3498059 7.73171216,21.165715 C7.79968835,21.1023179 7.86028359,21.0701408 7.91159311,21.0701408 C7.93766454,21.0701408 7.96861692,21.0767198 8.00325978,21.0895188 C8.50218835,21.2752844 8.98123597,21.4890404 9.38397406,21.6737293 C9.42647406,21.6931073 9.47052168,21.7133226 9.47873597,21.872892 C9.48873597,22.0679877 9.49754549,22.3163131 9.50647406,22.5673896 C9.51659311,22.8539925 9.52695025,23.1439447 9.53933121,23.3669112 C9.58802168,24.2490882 10.1621883,24.8348537 11.0023074,24.8593753 C11.436236,24.8718155 11.8831407,24.8781552 12.3309979,24.8781552 C12.771236,24.8781552 13.2251645,24.8720547 13.6801645,24.860093 C14.5076645,24.838203 15.0825455,24.2683466 15.1445693,23.4081791 C15.1748074,22.9890404 15.2020693,22.3377246 15.2068312,21.9251648 C15.208855,21.7411935 15.2477836,21.6829399 15.4152836,21.6133226 C15.5524264,21.5561456 15.6894503,21.4986097 15.826355,21.4409542 C16.0919503,21.3291121 16.3576645,21.21727 16.6252836,21.1098537 C16.6819503,21.0871265 16.7331407,21.0750451 16.7733788,21.0750451 C16.7982598,21.0750451 16.856236,21.0750451 16.9577836,21.1678681 C17.2775455,21.4609303 17.5921883,21.7449016 17.8933788,22.0122461 C18.2371883,22.31727 18.651355,22.485093 19.0596883,22.485093 C19.4320693,22.485093 19.7815931,22.3402365 20.043855,22.0773179 C20.6633788,21.4561456 21.281355,20.8332987 21.8979026,20.2092557 C22.4833788,19.6170308 22.461236,18.7425093 21.8431407,18.0334183 C21.6905217,17.8581791 21.5359979,17.6847341 21.381355,17.5112892 C21.2582598,17.3731313 21.1350455,17.2348537 21.0129026,17.0957389 C20.8782598,16.9423896 20.8971883,16.8752844 20.9424264,16.769782 C21.1224264,16.3493274 21.2894503,15.9299494 21.4508788,15.5242078 C21.5080217,15.3805475 21.5595693,15.3315045 21.7511169,15.3240882 L22.0518312,15.3129638 C22.4136169,15.2999255 22.863855,15.2836576 23.1714741,15.2642796 C24.0454026,15.2087772 24.5915931,14.686648 24.6699264,13.8317437 C24.6983788,13.5216959 24.7179026,13.2088968 24.7369503,12.9065045 C24.7452836,12.7722939 24.753855,12.6372461 24.7631407,12.5011217 L24.766355,12.4520786 L24.6793312,11.1634423 L24.6793312,11.1634423 Z M12.3830217,17.2255236 C9.75314073,17.2255236 7.62111692,15.0834183 7.62111692,12.4408346 C7.62111692,9.79837049 9.75314073,7.65614561 12.3830217,7.65614561 C15.0130217,7.65614561 17.1449264,9.79837049 17.1449264,12.4408346 C17.1449264,15.0834183 15.0130217,17.2255236 12.3830217,17.2255236 L12.3830217,17.2255236 Z" id="path-1"></path>
    </defs>
    <g id="Design-Foundations" stroke="none" stroke-width="1" fill="none" fill-rule="evenodd">
        <g id="Design-Foundations---Iconography-Glyph" transform="translate(-402.000000, -856.000000)">
            <g id="Action-Icons" transform="translate(87.000000, 790.000000)">
                <g id="settings" transform="translate(304.000000, 54.000000)">
                    <g id="icon/ALL/settings">
                        <g id="Icon" transform="translate(11.000000, 12.000000)">
                            <mask id="mask-2" fill="white">
                                <use xlink:href="#path-1"></use>
                            </mask>
                            <use id="Mask" fill="#384048" xlink:href="#path-1"></use>
                            <g id="Color/Dark-Grey" mask="url(#mask-2)" fill="#384048">
                                <g transform="translate(-11.000000, -12.000000)" id="Swatch">
                                    <rect x="0" y="0" width="48" height="48"></rect>
                                </g>
                            </g>
                        </g>
                    </g>
                </g>
            </g>
        </g>
    </g>
</svg>