<?xml version="1.0" encoding="UTF-8" standalone="no"?>
<svg width="40px" height="40px" viewBox="0 0 40 40" version="1.1" xmlns="http://www.w3.org/2000/svg" xmlns:xlink="http://www.w3.org/1999/xlink">
    <!-- Generator: Sketch 46.2 (44496) - http://www.bohemiancoding.com/sketch -->
    <title>icon/success</title>
    <desc>Created with Sketch.</desc>
    <defs>
        <path d="M8,0 C3.58173333,0 0,3.58173333 0,8 C0,12.4182 3.58173333,16 8,16 C12.4182,16 16,12.4182 16,8 C16,3.58173333 12.4182,0 8,0 L8,0 Z M12.3964308,4.90556923 C12.6567641,5.16596923 12.6567641,5.5880359 12.3963641,5.84836923 L6.62123077,11.6228359 C6.49103077,11.7529692 6.32043077,11.8181026 6.14983077,11.8181026 C5.9791641,11.8181026 5.8085641,11.7529692 5.67843077,11.6228359 L3.71623077,9.66050256 C3.45589744,9.40010256 3.45589744,8.9780359 3.71623077,8.7176359 C3.97663077,8.45736923 4.3987641,8.45730256 4.65903077,8.7176359 L6.14983077,10.2085692 L11.4536308,4.9054359 C11.7140308,4.64516923 12.1362308,4.6452359 12.3964308,4.90556923 L12.3964308,4.90556923 Z" id="path-1"></path>
    </defs>
    <g id="Symbols" stroke="none" stroke-width="1" fill="none" fill-rule="evenodd">
        <g id="icon/success">
            <g id="Group-2" transform="translate(12.000000, 12.000000)">
                <mask id="mask-2" fill="white">
                    <use xlink:href="#path-1"></use>
                </mask>
                <use id="Mask" fill="#2A7952" xlink:href="#path-1"></use>
            </g>
        </g>
    </g>
</svg>