<?xml version="1.0" encoding="UTF-8" standalone="no"?>
<svg width="25px" height="25px" viewBox="0 0 25 25" version="1.1" xmlns="http://www.w3.org/2000/svg" xmlns:xlink="http://www.w3.org/1999/xlink">
    <!-- Generator: Sketch 46.1 (44463) - http://www.bohemiancoding.com/sketch -->
    <title>icon/ALL/thumbsdown-fill</title>
    <desc>Created with Sketch.</desc>
    <defs>
        <path d="M23.7417067,15.7893029 L19.2504808,15.7893029 C18.5609375,15.7893029 18,15.2284856 18,14.5391827 L18,1.25024038 C18,0.560817308 18.5609375,0 19.2504808,0 L23.7417067,0 C24.4310096,0 24.9918269,0.5609375 24.9918269,1.25024038 L24.9918269,14.5390625 C24.9918269,15.2284856 24.4310096,15.7893029 23.7417067,15.7893029 Z M10.0901843,24.977524 L9.53874196,24.977524 C7.60364581,24.977524 6.02936696,23.399399 6.02936696,21.4594952 L6.02936696,20.796274 C6.02936696,20.4186298 6.05460735,20.1066106 6.10893427,19.8177885 L6.41614581,16.7995192 L2.55629004,15.8317308 C2.54499196,15.8288462 2.53369389,15.8257212 2.522516,15.8223558 C0.67455927,15.2625 -0.375320537,13.3713942 0.124078501,11.5102163 L1.96590542,2.80348558 C1.96891023,2.78942308 1.97227562,2.77560096 1.97600158,2.76177885 C2.39523235,1.23509615 3.79318908,0.167668269 5.37744389,0.162980769 L11.6305689,0.000240384615 C11.6368189,0.000120192308 11.6430689,0 11.6493189,0 C12.638141,0 13.5939102,0.424759615 14.2721554,1.16526442 L14.9208333,1.8828125 C15.0136218,1.90841346 15.263141,1.95769231 15.8445112,1.97463942 C16.234415,1.98605769 16.5445112,2.30540865 16.5445112,2.69555288 L16.5445112,14.2460337 C16.5445112,14.5560096 16.3464343,14.8313702 16.0524439,14.9298077 C15.2113381,15.2116587 14.5392227,15.7258413 14.0536458,16.4586538 L12.6465545,19.8235577 C12.6316506,19.8584135 12.619391,19.8835337 12.6065304,19.909375 C12.6042468,19.9137019 12.60004,19.9221154 12.5978766,19.9264423 C12.3595352,20.3793269 12.241867,20.7479567 12.2597756,21.5064904 C12.2598958,21.5121394 12.2598958,21.5179087 12.2598958,21.5235577 C12.2598958,21.5469952 12.2596554,21.5671875 12.2583333,21.5899038 L12.2089343,22.9438702 C12.1677083,24.0841346 11.2369391,24.977524 10.0901843,24.977524 Z" id="path-1"></path>
    </defs>
    <g id="Design-Foundations" stroke="none" stroke-width="1" fill="none" fill-rule="evenodd">
        <g id="Design-Foundations---Iconography-Glyph" transform="translate(-403.000000, -956.000000)">
            <g id="Action-Icons" transform="translate(87.000000, 790.000000)">
                <g id="thumbsdown-fill" transform="translate(304.000000, 154.000000)">
                    <g id="icon/ALL/thumbsdown-fill">
                        <g id="Icon" transform="translate(12.000000, 12.000000)">
                            <mask id="mask-2" fill="white">
                                <use xlink:href="#path-1"></use>
                            </mask>
                            <use id="Mask" fill="#384048" xlink:href="#path-1"></use>
                            <g id="Color/Dark-Grey" mask="url(#mask-2)" fill="#384048">
                                <g transform="translate(-12.000000, -12.000000)" id="Swatch">
                                    <rect x="0" y="0" width="48" height="48"></rect>
                                </g>
                            </g>
                        </g>
                    </g>
                </g>
            </g>
        </g>
    </g>
</svg>