<?xml version="1.0" encoding="UTF-8" standalone="no"?>
<svg width="25px" height="25px" viewBox="0 0 25 25" version="1.1" xmlns="http://www.w3.org/2000/svg" xmlns:xlink="http://www.w3.org/1999/xlink">
    <!-- Generator: Sketch 46.1 (44463) - http://www.bohemiancoding.com/sketch -->
    <title>icon/ALL/thumbsup-fill</title>
    <desc>Created with Sketch.</desc>
    <defs>
        <path d="M24.9905048,9.95901442 L24.9905048,23.2478365 C24.9905048,23.9371394 24.4296875,24.4980769 23.7403846,24.4980769 L19.2491587,24.4980769 C18.5596154,24.4980769 17.9986779,23.9371394 17.9986779,23.2478365 L17.9986779,9.95901442 C17.9986779,9.26971154 18.5596154,8.70889423 19.2491587,8.70889423 L23.7403846,8.70889423 C24.4296875,8.70889423 24.9905048,9.26971154 24.9905048,9.95901442 Z M12.2206731,2.04026442 L12.2700721,3.39423077 C12.271274,3.41682692 12.2716346,3.43701923 12.2716346,3.46057692 C12.2716346,3.46622596 12.2716346,3.47199519 12.2715144,3.47764423 C12.2536058,4.23617788 12.3713942,4.60480769 12.6096154,5.05769231 C12.611899,5.06189904 12.6161058,5.0703125 12.6182692,5.07475962 C12.6311298,5.10060096 12.6433894,5.12572115 12.6582933,5.16057692 L14.0653846,8.52548077 C14.5509615,9.25829327 15.2230769,9.77247596 16.0641827,10.0543269 C16.3580529,10.1527644 16.55625,10.428125 16.55625,10.738101 L16.55625,22.2887019 C16.55625,22.678726 16.2461538,22.9980769 15.85625,23.0094952 C15.2748798,23.0265625 15.0254808,23.0758413 14.9325721,23.1014423 L14.2838942,23.8188702 C13.605649,24.5594952 12.6498798,24.9841346 11.6610577,24.9841346 C11.6548077,24.9841346 11.6485577,24.9841346 11.6423077,24.9838942 L5.38918269,24.8211538 C3.80480769,24.8163462 2.40697115,23.7490385 1.98774038,22.2223558 C1.98389423,22.2085337 1.98052885,22.1947115 1.97764423,22.1805288 L0.135697115,13.4735577 C-0.363701923,11.6123798 0.686177885,9.72127404 2.53413462,9.16141827 C2.5453125,9.15805288 2.55661058,9.15492788 2.56790865,9.15204327 L6.42776442,8.18425481 L6.12055288,5.16586538 C6.06634615,4.87716346 6.04098558,4.56502404 6.04098558,4.18737981 L6.04098558,3.52415865 C6.04098558,1.58425481 7.61526442,0.00612980769 9.55036058,0.00612980769 L10.1018029,0.00612980769 C11.2485577,0.00637019231 12.1793269,0.899759615 12.2206731,2.04026442 Z" id="path-1"></path>
    </defs>
    <g id="Design-Foundations" stroke="none" stroke-width="1" fill="none" fill-rule="evenodd">
        <g id="Design-Foundations---Iconography-Glyph" transform="translate(-98.000000, -1039.000000)">
            <g id="Action-Icons" transform="translate(87.000000, 790.000000)">
                <g id="thumbsup-fill" transform="translate(0.000000, 238.000000)">
                    <g id="icon/ALL/thumbsup-fill">
                        <g id="Icon" transform="translate(11.000000, 11.000000)">
                            <mask id="mask-2" fill="white">
                                <use xlink:href="#path-1"></use>
                            </mask>
                            <use id="Mask" fill="#384048" xlink:href="#path-1"></use>
                            <g id="Color/Dark-Grey" mask="url(#mask-2)" fill="#384048">
                                <g transform="translate(-11.000000, -11.000000)" id="Swatch">
                                    <rect x="0" y="0" width="48" height="48"></rect>
                                </g>
                            </g>
                        </g>
                    </g>
                </g>
            </g>
        </g>
    </g>
</svg>