<?xml version="1.0" encoding="UTF-8" standalone="no"?>
<svg width="25px" height="25px" viewBox="0 0 25 25" version="1.1" xmlns="http://www.w3.org/2000/svg" xmlns:xlink="http://www.w3.org/1999/xlink">
    <!-- Generator: Sketch 46.1 (44463) - http://www.bohemiancoding.com/sketch -->
    <title>icon/ALL/thumbsup-line</title>
    <desc>Created with Sketch.</desc>
    <defs>
        <path d="M23.7487029,8.7102766 L17.8101539,8.7102766 C17.1200278,8.7102766 16.5586162,9.27172156 16.5586162,9.96176833 L16.5586162,10.215002 C15.5387645,10.0050767 14.6520782,9.41103016 14.0655251,8.52645661 L12.6541168,5.15056878 C12.6424483,5.12374165 12.6302986,5.09859873 12.6155025,5.06900468 C12.6132169,5.06455354 12.6109313,5.0601024 12.6086457,5.05565126 C12.3701029,4.60235694 12.2523352,4.23339364 12.270259,3.47429407 C12.2703793,3.46851962 12.2703793,3.46286547 12.2703793,3.45721133 C12.2703793,3.43435413 12.2701387,3.41462476 12.2689357,3.39224876 L12.2193747,2.03585452 C12.1779936,0.89419764 11.2464376,0 10.0987135,0 L9.54680509,0 C7.61007331,0 6.03446382,1.57955267 6.03446382,3.52109118 L6.03446382,4.18479202 C6.03446382,4.5627779 6.05984583,4.87532 6.11409838,5.1642831 L6.42156958,8.18516255 L2.558331,9.15382654 C2.54702338,9.15671376 2.53571575,9.15972129 2.52452842,9.16321002 C0.675130007,9.72357227 -0.375637204,11.6163889 0.124183948,13.4792505 L1.96756766,22.1939782 C1.97057501,22.2079331 1.97394324,22.2218881 1.97779264,22.2357227 C2.39737777,23.7637865 3.79639582,24.83218 5.38211,24.8368718 L11.6405204,24.9997594 C11.6467757,24.9998797 11.6537527,25 11.660008,25 C12.6490645,25 13.6055213,24.5749764 14.2873471,23.830313 L14.9430691,23.105018 C15.1575531,23.0353637 15.7003192,23.0080554 16.5586162,23.0229727 L16.5586162,23.2626124 C16.5586162,23.9526591 17.1200278,24.5139838 17.8101539,24.5139838 L23.7487029,24.5139838 C24.4387087,24.5139838 25,23.9526591 25,23.2626124 L25,9.96176833 C25,9.27172156 24.4387087,8.7102766 23.7487029,8.7102766 L23.7487029,8.7102766 Z M13.9322395,22.0707899 L13.2197387,22.8587618 C12.8157918,23.2999057 12.2508917,23.5538612 11.6680677,23.5563875 L5.41086024,23.3934999 C5.40460496,23.3933796 5.39846997,23.3932593 5.39221469,23.3932593 C4.45692962,23.393139 3.63039023,22.7687766 3.37512658,21.8726541 L1.53222404,13.1604527 C1.52921669,13.1464978 1.52584846,13.1325429 1.52199906,13.118588 C1.21849755,12.014465 1.83536467,10.8892894 2.92763327,10.5495592 L7.37838726,9.43352646 C7.72603663,9.3463082 7.95712121,9.01704425 7.92079245,8.66023136 L7.54703931,4.98635786 C7.54463343,4.96398187 7.54138549,4.94172618 7.53705491,4.91983139 C7.49675646,4.71543992 7.47799061,4.4819356 7.47799061,4.18479202 L7.47799061,3.52109118 C7.47799061,2.35609589 8.38669072,1.4436125 9.54680509,1.4436125 L10.0987135,1.4436125 C10.4719855,1.4436125 10.7634576,1.72066579 10.7768102,2.08830578 L10.8266119,3.45143688 C10.8267322,3.45239928 10.8267322,3.45324139 10.8267322,3.4542038 C10.8038763,4.505274 11.0028424,5.10401228 11.3265533,5.7191115 L12.7592537,9.14396185 C12.7754934,9.18281909 12.7951013,9.22023271 12.8177165,9.25560122 C13.6722844,10.5863713 15.0170499,11.4498922 16.5586162,11.6802687 L16.5586162,21.5793602 C15.1393888,21.5548188 14.3346226,21.6313302 13.9322395,22.0707899 L13.9322395,22.0707899 Z M18.002143,10.1538891 L23.5564732,10.1538891 L23.5564732,23.0703713 L18.002143,23.0703713 L18.002143,10.1538891 Z" id="path-1"></path>
    </defs>
    <g id="Design-Foundations" stroke="none" stroke-width="1" fill="none" fill-rule="evenodd">
        <g id="Design-Foundations---Iconography-Glyph" transform="translate(-706.000000, -956.000000)">
            <g id="Action-Icons" transform="translate(87.000000, 790.000000)">
                <g id="thumbsup-line" transform="translate(608.000000, 154.000000)">
                    <g id="icon/ALL/thumbsup-line">
                        <g id="Icon" transform="translate(11.000000, 12.000000)">
                            <mask id="mask-2" fill="white">
                                <use xlink:href="#path-1"></use>
                            </mask>
                            <use id="Mask" fill="#384048" xlink:href="#path-1"></use>
                            <g id="Color/Dark-Grey" mask="url(#mask-2)" fill="#384048">
                                <g transform="translate(-11.000000, -12.000000)" id="Swatch">
                                    <rect x="0" y="0" width="48" height="48"></rect>
                                </g>
                            </g>
                        </g>
                    </g>
                </g>
            </g>
        </g>
    </g>
</svg>