<?xml version="1.0" encoding="UTF-8" standalone="no"?>
<svg width="25px" height="25px" viewBox="0 0 25 25" version="1.1" xmlns="http://www.w3.org/2000/svg" xmlns:xlink="http://www.w3.org/1999/xlink">
    <!-- Generator: Sketch 46.1 (44463) - http://www.bohemiancoding.com/sketch -->
    <title>icon/ALL/thumbsdown-line</title>
    <desc>Created with Sketch.</desc>
    <defs>
        <path d="M23.7286464,0.485576923 L17.7951127,0.485576923 C17.1055695,0.485576923 16.544632,1.04639423 16.544632,1.73581731 L16.544632,1.97524038 C15.6874204,1.99038462 15.1447521,1.96298077 14.9304493,1.89326923 L14.2722762,1.16526442 C13.594031,0.424639423 12.638382,0 11.6494396,0 C11.6431896,0 11.6369396,0.000120192308 11.6306896,0.000240384615 L5.37756465,0.162980769 C3.79330984,0.167788462 2.39535311,1.23509615 1.97612234,2.76177885 C1.97227619,2.77560096 1.9689108,2.78954327 1.96590599,2.80348558 L0.124079071,11.5102163 C-0.375319967,13.3713942 0.67455984,15.2623798 2.52239638,15.8223558 C2.53357426,15.8258413 2.54487234,15.8288462 2.55617042,15.8317308 L6.41614638,16.7995192 L6.10893484,19.8177885 C6.05472811,20.1066106 6.02936753,20.4188702 6.02936753,20.796274 L6.02936753,21.4594952 C6.02936753,23.3992788 7.60364638,24.9774038 9.53874253,24.9774038 L10.0901848,24.9774038 C11.2369396,24.9774038 12.1677089,24.0840144 12.209055,22.9435096 L12.2585743,21.5882212 C12.2597762,21.5658654 12.2600166,21.5460337 12.2600166,21.5233173 C12.2600166,21.5176683 12.2600166,21.511899 12.2598964,21.50625 C12.2419877,20.7478365 12.359656,20.3790865 12.5979973,19.9263221 C12.600281,19.9221154 12.6044877,19.9135817 12.6066512,19.9092548 C12.619632,19.8834135 12.6317714,19.8582933 12.6466752,19.8234375 L14.0536464,16.4586538 C14.6397041,15.575 15.5255214,14.9813702 16.544632,14.7716346 L16.544632,15.0246394 C16.544632,15.7140625 17.1055695,16.2748798 17.7951127,16.2748798 L23.7286464,16.2748798 C24.4180695,16.2748798 24.9788868,15.7140625 24.9788868,15.0246394 L24.9788868,1.73581731 C24.9788868,1.04639423 24.4180695,0.485576923 23.7286464,0.485576923 L23.7286464,0.485576923 Z M12.8068916,15.7301683 C12.7842954,15.765625 12.7647041,15.8027644 12.7484781,15.8415865 L11.3208339,19.2557692 L11.3177089,19.2620192 C10.990906,19.8847356 10.79343,20.4842548 10.8177089,21.5254808 C10.8175887,21.5265625 10.8175887,21.5277644 10.8174685,21.5290865 L10.7677089,22.8911058 C10.7543675,23.2582933 10.4631416,23.5350962 10.0901848,23.5350962 L9.53874253,23.5350962 C8.37960792,23.5350962 7.47167522,22.6233173 7.47167522,21.4594952 L7.47167522,20.796274 C7.47167522,20.4995192 7.49054542,20.266226 7.53068965,20.0617788 C7.53501657,20.0397837 7.53826176,20.0177885 7.54066561,19.9954327 L7.91410311,16.3247596 C7.95040119,15.9683894 7.71951176,15.6394231 7.3720358,15.5521635 L2.9251608,14.4372596 C1.83381465,14.0978365 1.21746849,12.9736779 1.52071369,11.8705529 C1.52455984,11.8567308 1.52792522,11.8427885 1.53093003,11.828726 L3.37215599,3.12463942 C3.62732426,2.22932692 4.45316561,1.60552885 5.3876608,1.60528846 C5.3939108,1.60528846 5.40004061,1.60528846 5.40629061,1.60504808 L11.6582137,1.44230769 C12.2400646,1.44471154 12.8048483,1.6984375 13.2055695,2.1359375 L13.9234781,2.93004808 C14.3225166,3.36574519 15.1262425,3.44206731 16.544632,3.41766827 L16.544632,13.3075721 C15.0042473,13.5378606 13.6607377,14.400601 12.8068916,15.7301683 L12.8068916,15.7301683 Z M17.9869396,1.92788462 L23.5365791,1.92788462 L23.5365791,14.8325721 L17.9869396,14.8325721 L17.9869396,1.92788462 Z" id="path-1"></path>
    </defs>
    <g id="Design-Foundations" stroke="none" stroke-width="1" fill="none" fill-rule="evenodd">
        <g id="Design-Foundations---Iconography-Glyph" transform="translate(-99.000000, -956.000000)">
            <g id="Action-Icons" transform="translate(87.000000, 790.000000)">
                <g id="thumbsdown-line" transform="translate(1.000000, 154.000000)">
                    <g id="icon/ALL/thumbsdown-line">
                        <g id="Icon" transform="translate(11.000000, 12.000000)">
                            <mask id="mask-2" fill="white">
                                <use xlink:href="#path-1"></use>
                            </mask>
                            <use id="Mask" fill="#384048" xlink:href="#path-1"></use>
                            <g id="Color/Dark-Grey" mask="url(#mask-2)" fill="#384048">
                                <g transform="translate(-11.000000, -12.000000)" id="Swatch">
                                    <rect x="0" y="0" width="48" height="48"></rect>
                                </g>
                            </g>
                        </g>
                    </g>
                </g>
            </g>
        </g>
    </g>
</svg>