<?xml version="1.0" encoding="UTF-8" standalone="no"?>
<svg width="40px" height="40px" viewBox="0 0 40 40" version="1.1" xmlns="http://www.w3.org/2000/svg" xmlns:xlink="http://www.w3.org/1999/xlink">
    <!-- Generator: Sketch 46.2 (44496) - http://www.bohemiancoding.com/sketch -->
    <title>icon/warning</title>
    <desc>Created with Sketch.</desc>
    <defs>
        <path d="M15.7971929,13.5389859 L9.00607711,0.618994029 C8.79340069,0.237163309 8.39417421,0 7.96468915,0 C7.53707026,0 7.2047592,0.236648216 6.98981672,0.617816675 L0.195635072,13.5280218 C-0.0183076695,13.9096317 -0.0817573549,14.3949225 0.132318685,14.776606 C0.347327808,15.1585103 0.768348462,15.3800001 1.1959007,15.3800001 L14.5993135,15.3800001 C15.1207073,15.3800001 15.6509654,15.1459274 15.8663077,14.7626985 C16.0785176,14.381898 16.0098693,13.9205223 15.7971929,13.5389859 L15.7971929,13.5389859 Z M7.5977207,4.40558625 C7.5977207,4.16180032 7.7768061,3.96407838 7.99761367,3.96407838 C8.21842124,3.96407838 8.39750665,4.16180032 8.39750665,4.40558625 L8.39750665,10.7158374 C8.39750665,10.9596234 8.21842124,11.1573453 7.99761367,11.1573453 C7.7768061,11.1573453 7.5977207,10.9596234 7.5977207,10.7158374 L7.5977207,4.40558625 L7.5977207,4.40558625 Z M7.99761367,13.1851173 C7.66616904,13.1851173 7.39744096,12.9087334 7.39744096,12.5678158 C7.39744096,12.2268981 7.66616904,11.9504406 7.99761367,11.9504406 C8.3290583,11.9504406 8.59778638,12.2268981 8.59778638,12.5678158 C8.59778638,12.9087334 8.3290583,13.1851173 7.99761367,13.1851173 L7.99761367,13.1851173 Z" id="path-1"></path>
    </defs>
    <g id="Symbols" stroke="none" stroke-width="1" fill="none" fill-rule="evenodd">
        <g id="icon/warning">
            <g id="Icon" transform="translate(12.000000, 12.000000)">
                <mask id="mask-2" fill="white">
                    <use xlink:href="#path-1"></use>
                </mask>
                <use id="Mask" fill="#EEAD1F" xlink:href="#path-1"></use>
            </g>
        </g>
    </g>
</svg>