<?xml version="1.0" encoding="UTF-8" standalone="no"?>
<svg width="25px" height="25px" viewBox="0 0 25 25" version="1.1" xmlns="http://www.w3.org/2000/svg" xmlns:xlink="http://www.w3.org/1999/xlink">
    <!-- Generator: Sketch 46.1 (44463) - http://www.bohemiancoding.com/sketch -->
    <title>icon/ALL/zoom-in-line</title>
    <desc>Created with Sketch.</desc>
    <defs>
        <path d="M24.5283654,21.8266827 C25.1941106,22.4430288 25.1301683,23.5221154 24.3795673,24.3367788 C23.9552885,24.7972356 23.4263221,25.0326923 22.9097356,25.0328125 C22.4941106,25.0328125 22.0866587,24.8802885 21.7481971,24.5700721 C21.0021635,23.8860577 15.5311298,18.4629808 14.3652644,17.3066106 C12.9197115,18.218149 11.2091346,18.7475962 9.37379808,18.7475962 C4.19675481,18.7475962 0,14.5507212 0,9.37379808 C0,4.19675481 4.19675481,0 9.37379808,0 C14.5507212,0 18.747476,4.19675481 18.7475962,9.37391827 C18.7475962,11.3313702 18.1467548,13.1481971 17.1206731,14.6515625 C18.4027644,15.8995192 23.8241587,21.1746394 24.5283654,21.8266827 Z M1.44230769,9.37379808 C1.44230769,13.7472356 5.00036058,17.3052885 9.37379808,17.3052885 C13.7471154,17.3052885 17.3052885,13.7472356 17.3052885,9.37379808 C17.3052885,5.00036058 13.7472356,1.44230769 9.37379808,1.44230769 C5.00036058,1.44230769 1.44230769,5.00036058 1.44230769,9.37379808 Z M23.1399038,23.5116587 C23.4364183,23.3215144 23.566226,22.9805288 23.544351,22.8811298 C22.8171875,22.206851 17.6633413,17.1926683 16.2129808,15.7807692 C15.9980769,16.0100962 15.7716346,16.2282452 15.5348558,16.4350962 C16.9479567,17.8361779 22.0340144,22.8753606 22.7228365,23.506851 C22.7924279,23.5704327 22.8973558,23.6668269 23.1399038,23.5116587 Z M12.9795673,8.65264423 C13.3778846,8.65264423 13.7007212,8.97560096 13.7007212,9.37379808 C13.7007212,9.77199519 13.3777644,10.0949519 12.9795673,10.0949519 L10.0949519,10.0949519 L10.0949519,12.9795673 C10.0949519,13.3777644 9.77199519,13.7007212 9.37379808,13.7007212 C8.97560096,13.7007212 8.65264423,13.3777644 8.65264423,12.9795673 L8.65264423,10.0949519 L5.76802885,10.0949519 C5.36983173,10.0949519 5.046875,9.77199519 5.046875,9.37379808 C5.046875,8.97560096 5.36983173,8.65264423 5.76802885,8.65264423 L8.65264423,8.65264423 L8.65264423,5.76802885 C8.65264423,5.36983173 8.97560096,5.046875 9.37379808,5.046875 C9.77199519,5.046875 10.0949519,5.36983173 10.0949519,5.76802885 L10.0949519,8.65264423 L12.9795673,8.65264423 Z" id="path-1"></path>
    </defs>
    <g id="Design-Foundations" stroke="none" stroke-width="1" fill="none" fill-rule="evenodd">
        <g id="Design-Foundations---Iconography-Glyph" transform="translate(-99.000000, -1124.000000)">
            <g id="Action-Icons" transform="translate(87.000000, 790.000000)">
                <g id="zoom-in-line" transform="translate(0.000000, 322.000000)">
                    <g id="icon/ALL/zoom-in-line">
                        <g id="Icon" transform="translate(12.000000, 12.000000)">
                            <mask id="mask-2" fill="white">
                                <use xlink:href="#path-1"></use>
                            </mask>
                            <use id="Mask" fill="#384048" xlink:href="#path-1"></use>
                            <g id="Color/Dark-Grey" mask="url(#mask-2)" fill="#384048">
                                <g transform="translate(-12.000000, -12.000000)" id="Swatch">
                                    <rect x="0" y="0" width="48" height="48"></rect>
                                </g>
                            </g>
                        </g>
                    </g>
                </g>
            </g>
        </g>
    </g>
</svg>