<?xml version="1.0" encoding="utf-8"?>
<!-- Generator: Adobe Illustrator 21.0.2, SVG Export Plug-In . SVG Version: 6.00 Build 0)  -->
<svg version="1.1" id="Lincoln-Penny-Logo" xmlns="http://www.w3.org/2000/svg" xmlns:xlink="http://www.w3.org/1999/xlink" x="0px"
	 y="0px" viewBox="0 0 48 48" style="enable-background:new 0 0 48 48;" xml:space="preserve">
<path id="Lincoln-Penny-Logo-Path" style="fill:#FFFFFF;stroke:#FFFFFF;stroke-width:0.5;" d="M24.8,19.5c-0.1-0.3,0.1-0.7,0.5-0.7
	c0.3-0.1,0.7,0.1,0.7,0.5c0,0,0.2,0.9,0.7,1.8l1.1,1.4c0.4,0.4,0.8,0.5,1.2,0.7c0.3,0.1,0.5,0.5,0.4,0.8c-0.1,0.3-0.3,0.4-0.6,0.4
	c-0.1,0-0.1,0-0.2,0c-0.7-0.2-1.4-0.5-2.3-1.6C25.2,21.3,24.8,19.6,24.8,19.5 M28.4,17.5c-0.2-0.3-0.1-0.7,0.2-0.9l1.4-1
	c0.1-0.1,0.3-0.1,0.5-0.1l1.2,0.3c0.3,0.1,0.5,0.4,0.4,0.7c-0.1,0.3-0.4,0.5-0.7,0.4l-0.9-0.2l-1.2,0.8c-0.1,0.1-0.2,0.1-0.3,0.1
	C28.7,17.8,28.5,17.7,28.4,17.5 M38.2,40.5c-4.4-5.1-6.3-7.4-7.2-8.5l0,0c0.1,0,0.1-0.1,0.1-0.1c0,0,0,0,0,0c0,0,0.1-0.1,0.1-0.1
	c0,0,0,0,0,0c0,0,0,0,0,0c0,0,0-0.1,0-0.1c0,0,0,0,0,0c0,0,0-0.1,0-0.1c0,0,0,0,0,0c0,0,0-0.1,0-0.1c0,0,0,0,0-0.1c0,0,0,0,0,0
	c0,0,0,0,0-0.1c0,0,0,0,0,0l-0.7-1.5c-0.1-0.2-0.2-0.3-0.4-0.3c-0.4-0.1-0.6-0.2-0.8-0.2l0.4-1.4c0.4,0.1,1,0.2,1.7,0.2
	c1,0.1,1.6-0.1,2.1-0.5c0.5-0.5,0.7-1.1,0.7-1.7c0.1-0.8-0.3-1.4-0.5-1.6c-0.3-0.3-0.7-0.5-1-0.6l0.6-2.9c0.2,0,0.4,0,0.5,0
	c1,0,1.2-0.2,1.3-0.3c0.4-0.5,0.1-1.3-1.5-3.9c-0.1-0.2-0.2-0.3-0.3-0.5c-0.1-2.4-0.4-4.1-0.9-5.1c0.5-0.2,0.9-0.5,1.1-1.1
	c0.3-0.9,0-1.9-0.7-2.4c-0.7-0.5-5.2-2.9-9.3-2.7c-2.6,0.1-7.3,1.9-8.9,6.3c0,0,0,0,0,0.1c-1.6,6.3,2.6,11.7,3.8,13.1c0,0,0,0,0,0
	c-1.2,2.1-6.6,11.7-8.6,16.3c-4.7-4-7.7-10-7.7-16.6c0-12,9.8-21.8,21.8-21.8c12,0,21.8,9.8,21.8,21.8
	C45.8,30.5,42.8,36.5,38.2,40.5 M29.2,30.4c0.1,0,0.2,0.1,0.3,0.1l0.3,0.6c-0.1,0-0.1,0-0.2,0.1l-2.2,0.6l-0.1-0.9l1.5-0.2
	C29.1,30.5,29.2,30.5,29.2,30.4 M22.3,8.8C22,8.8,21.7,9,21.6,9.3C21.5,9.6,21.7,9.9,22,10c0.1,0,1.4,0.3,2.7,0.3l0,0c0,0,0,0,0,0
	c0.1,0.3,0.1,0.7,0.1,0.8c-0.8,1.1-0.3,2,0,2.5c0,0.1,0.1,0.1,0.1,0.2c0.1,0.2,0.2,0.4-0.1,0.8c-0.6,0.8-0.8,2.2-0.2,3.1
	c0.1,0.2,0.3,0.3,0.5,0.3c0.1,0,0.2,0,0.4-0.1c0.3-0.2,0.3-0.6,0.2-0.9c-0.3-0.4-0.1-1.2,0.2-1.7c0.8-1,0.3-1.8,0.2-2.1
	c0-0.1-0.1-0.1-0.1-0.2c-0.3-0.5-0.4-0.8-0.1-1.2c0.4-0.5,0.3-1.3,0.1-1.7c0.2,0,0.4-0.1,0.5-0.2c1-0.4,3,0.3,4,0.7
	c0.1,0.1,0.2,0.1,0.3,0.1c0,0,0.1,0,0.1,0.1c0.1,0,0.2,0.1,0.2,0.1c0.3,0.3,1,1.4,1.1,5.2c0,0.1,0,0.2,0.1,0.3
	c0.1,0.1,0.2,0.3,0.4,0.6c0.3,0.5,1.1,1.4,1.3,2.5h0c-0.6,0-1.6,0-2.5-0.1c-0.3,0-0.6,0.2-0.6,0.6c0,0.3,0.2,0.6,0.5,0.7
	c0.3,0,0.5,0,0.8,0.1l-0.2,1.1l0,0.2h-0.8c-0.4,0-0.7,0.3-0.7,0.7c0,0.4,0.3,0.7,0.7,0.7h0.6L31.5,24c0,0.2,0,0.4,0.1,0.5
	c0.1,0.1,0.3,0.2,0.5,0.2c0.1,0,0.6,0.1,0.8,0.3c0.2,0.2,0.2,0.4,0.2,0.8c0,0.4-0.1,0.7-0.3,0.8c-0.2,0.2-0.7,0.3-1.3,0.2
	c-0.7-0.1-1.2-0.1-1.5-0.2c-0.1-0.1-0.1-0.1-0.2-0.1l-0.2-0.1c-1.1-0.4-2.3-0.8-4.1-2.3c-1.9-1.5-2.2-4-2.2-4c0-0.3-0.2-0.5-0.5-0.5
	c-0.7-0.2-1.3-0.6-1.5-1.1c-0.3-0.5-0.3-1.2-0.1-1.9c0.1-0.3,0.3-0.5,0.5-0.6c0.3-0.2,0.8-0.1,0.9,0c0.3,0.1,0.7,0,0.8-0.4
	c0.1-0.3,0-0.7-0.4-0.8c-0.1,0-1-0.4-1.9,0c-0.4,0.2-0.8,0.5-1.1,1.3c-0.3,1-0.3,2.1,0.2,2.9c0.4,0.7,1,1.2,1.9,1.6
	c0.2,0.9,0.8,2.9,2.5,4.4c1.7,1.4,3,2,4,2.4l0,0l-0.4,1.4c-1.6-0.9-6.9-3.7-8.5-4.6c0-0.2,0-0.3-0.2-0.5c-0.1-0.1-5.4-5.8-3.8-12.3
	c1.4-3.6,5.4-5.4,7.8-5.5c3.5-0.2,7.6,1.8,8.6,2.5c0.3,0.2,0.4,0.6,0.3,1c-0.1,0.4-0.6,0.4-0.9,0.4c-0.2-0.1-0.3-0.1-0.4-0.1
	c-1-0.5-3.5-1.4-5-0.8C24.9,9.3,23,9,22.3,8.8 M10.7,41.3c1.6-4,6.8-13.3,8.4-16.1c0.6,0.4,1.8,1,4.2,2.3c1.9,1,3.1,1.7,3.8,2
	l-0.4,0.1c-0.3,0-0.5,0.3-0.5,0.6l0.1,2.2c0,0.2,0.1,0.3,0.2,0.4c0.1,0.1,0.2,0.1,0.3,0.1c0.1,0,0.1,0,0.2,0l1-0.3l4.3,9.4
	c0.1,0.2,0.3,0.3,0.5,0.3c0.1,0,0.2,0,0.2-0.1c0.3-0.1,0.4-0.5,0.3-0.8l-4.2-9.2l0.4-0.1c0.9,1,4.7,5.5,7.6,8.9
	c-2.2,1.7-4.7,3-7.5,3.7c-0.1-5.2-2.9-11.5-4.8-13.6c-3.6-4-4.2-4.4-4.5-4.5c-0.3-0.1-0.7,0.1-0.8,0.4c-0.1,0.3,0.1,0.6,0.3,0.7
	c0.2,0.2,1.2,1,4,4.2c1.5,1.7,4.4,7.7,4.5,13c0,0,0,0.1,0,0.1c-0.7,0.2-1.5,0.3-2.2,0.4c-0.7-5.3-1.9-7.1-5.1-9.9l2.2-0.1
	c0.2,0,0.4-0.1,0.5-0.3c0.1-0.2,0.1-0.4,0-0.6c-0.6-1.4-5.2-6.2-6-6.2c-0.3,0-0.6,0.3-0.6,0.6c0,0.2,0.2,0.5,0.4,0.6
	c0.5,0.4,3.4,3,4.6,4.7l-2.8,0.1c-0.3,0-0.5,0.2-0.5,0.4c-0.1,0.2,0,0.5,0.2,0.7c3.8,3,5,4.3,5.9,10.1c-0.4,0-0.8,0-1.2,0
	C19,45.8,14.4,44.1,10.7,41.3 M23.9,0.6C11.1,0.6,0.6,11.1,0.6,23.9c0,12.8,10.4,23.3,23.3,23.3c12.8,0,23.3-10.4,23.3-23.3
	C47.2,11.1,36.8,0.6,23.9,0.6"/>
</svg>
