<?xml version="1.0" encoding="UTF-8"?>
<svg width="48px" height="48px" viewBox="0 0 48 48" version="1.1" xmlns="http://www.w3.org/2000/svg" xmlns:xlink="http://www.w3.org/1999/xlink">
    <!-- Generator: Sketch 46.1 (44463) - http://www.bohemiancoding.com/sketch -->
    <title>Penny</title>
    <desc>Created with Sketch.</desc>
    <defs></defs>
    <g id="Page-1" stroke="none" stroke-width="1" fill="none" fill-rule="evenodd">
        <g id="LIncoln-Main-Nav-Search---SMALL" transform="translate(-136.000000, -6.000000)" stroke-width="0.5" stroke="#FFFFFF" fill="#FFFFFF">
            <g id="Penny" transform="translate(136.000000, 6.000000)">
                <g id="icon/penny/gold">
                    <path d="M24.7690826,19.5325504 C24.6880079,19.2025825 24.8900337,18.8693105 25.2202809,18.7882503 C25.5496468,18.7060887 25.8829783,18.9091798 25.964053,19.2384869 C25.9688998,19.2574303 26.1914146,20.125964 26.7054017,21.0110181 L27.8516831,22.4026986 C28.2967127,22.7844305 28.6657347,22.9335548 29.0713284,23.0661588 C29.3943053,23.1718895 29.5705546,23.5192589 29.4652456,23.8421781 C29.3802053,24.1018792 29.1389641,24.2664226 28.8800979,24.2664226 C28.8168685,24.2664226 28.7525375,24.2565103 28.6888674,24.236025 C28.0164762,24.0161932 27.2812963,23.7106755 26.3407859,22.6220898 C25.2176371,21.3211615 24.7869279,19.60502 24.7690826,19.5325504 M28.3731608,17.4910666 C28.1806084,17.2113208 28.2513285,16.828047 28.5315649,16.635529 L29.9649124,15.6498104 C30.1096572,15.5504676 30.2914143,15.5172065 30.4612746,15.5594988 L31.6311294,15.8491569 C31.9611562,15.9308779 32.1623008,16.2645904 32.0805652,16.5941178 C31.9988295,16.9238654 31.666159,17.1256349 31.3354712,17.0434733 L30.4341762,16.8203375 L29.2286309,17.6494424 C29.1222204,17.7223526 29.0008287,17.7578164 28.8807588,17.7578164 C28.6849018,17.7578164 28.4925697,17.6646412 28.3731608,17.4910666 M38.1657931,40.4758212 C33.8014194,35.3408331 31.8324942,33.0451551 30.9190822,32.0213294 L30.9199634,32.0202281 C30.9717366,31.9948968 31.0180021,31.9600937 31.059641,31.9213258 C31.0671316,31.9144974 31.0746222,31.9072284 31.0818925,31.8995189 C31.1215486,31.8587685 31.1548156,31.8149343 31.1808124,31.7649325 C31.1827952,31.7622892 31.1856593,31.7600865 31.1876421,31.7563419 C31.1924889,31.7481918 31.1940311,31.737839 31.1977764,31.7283673 C31.2092326,31.7036968 31.2193669,31.6777046 31.2272982,31.651272 C31.2319247,31.6360732 31.2347888,31.6210947 31.2383137,31.6056756 C31.2431606,31.5796835 31.2469059,31.5539116 31.2488887,31.5268181 C31.2495496,31.5109585 31.2506512,31.4948786 31.2506512,31.4785785 C31.2506512,31.4534674 31.2477871,31.4279158 31.2442622,31.4025845 C31.2411778,31.3856236 31.2394153,31.3677815 31.23567,31.3506003 C31.2347888,31.3439921 31.2347888,31.3384853 31.2325856,31.3318771 C31.2272982,31.3122729 31.218706,31.2931092 31.2109951,31.2746063 C31.2063686,31.2620508 31.2043857,31.2497156 31.198878,31.2384817 L30.5256056,29.7553882 C30.4540043,29.5983341 30.3182923,29.4796073 30.1532789,29.4307068 C29.7908662,29.3225531 29.5170189,29.2432551 29.3088244,29.1859843 L29.7194853,27.7876957 C30.1034885,27.8656721 30.6740956,27.9573054 31.4398989,28.0143559 C32.3920858,28.0852836 33.0871691,27.9196388 33.5674484,27.5035444 C34.1138213,27.0297387 34.2237568,26.3656177 34.2585661,25.8407088 C34.3151862,25.0032334 34.0063092,24.4838313 33.7366478,24.1954949 C33.4401083,23.8774217 33.0768144,23.7027457 32.7619891,23.6080286 L33.3601352,20.6900814 C33.5570938,20.6973504 33.7331228,20.7013153 33.88668,20.7013153 C34.926551,20.7013153 35.0384693,20.5418381 35.1693344,20.3583513 C35.5412205,19.8358654 35.2486466,19.0620487 33.6758418,16.4196621 C33.5711937,16.2436646 33.470291,16.0740549 33.4061803,15.9621565 C33.3442728,13.6098686 33.030549,11.8972514 32.4731605,10.8454511 C32.9847241,10.6619643 33.3687273,10.3051231 33.5599579,9.79078729 C33.8789691,8.93789291 33.557975,7.8887359 32.8291841,7.40281519 C32.1142728,6.92636619 27.6146278,4.54896717 23.4829032,4.74214598 C20.9098835,4.86329575 16.221872,6.68538829 14.593769,11.0602166 C14.5860581,11.0807019 14.5794487,11.1005264 14.5748222,11.121232 C12.9802065,17.3754237 17.1731777,22.8016117 18.3740965,24.1935124 C18.3707918,24.1990192 18.3692496,24.2058477 18.3661653,24.2113545 C17.170534,26.3087874 11.719363,35.9287399 9.77004553,40.5390393 C5.07145909,36.5294225 2.08381287,30.5712768 2.08381287,23.9252208 C2.08381287,11.8805107 11.8843764,2.08147677 23.9312374,2.08147677 C35.9783188,2.08147677 45.7793229,11.8805107 45.7793229,23.9252208 C45.7793229,30.5366941 42.8223,36.4668652 38.1657931,40.4758212 M29.2398668,30.407174 C29.3407695,30.4366905 29.4460785,30.4666475 29.5507265,30.4974856 L29.8106943,31.068872 C29.7503289,31.089137 29.7014197,31.1116048 29.6496465,31.1340726 L27.4751705,31.7105252 L27.419652,30.7765706 L28.9660194,30.5305265 C29.0706675,30.5137858 29.1616562,30.4684097 29.2398668,30.407174 M22.3048969,8.84736099 C21.9856653,8.77026568 21.6615869,8.96520668 21.5827153,9.28526234 C21.5045047,9.60509773 21.7001414,9.92823721 22.0204745,10.0064339 C22.0978039,10.0253773 23.3775943,10.3344193 24.7192922,10.2982947 L24.7287656,10.2971933 C24.7303078,10.3020393 24.7305281,10.3071056 24.7322906,10.3119516 C24.8437683,10.6276018 24.8673416,11.0432556 24.8100606,11.1465633 C24.0253105,12.2580574 24.5520756,13.1862849 24.8351761,13.6849814 C24.8693244,13.7451158 24.9023712,13.8032677 24.9327742,13.8605385 C25.0539456,14.0887406 25.1182766,14.2777342 24.8455307,14.6332537 C24.2484862,15.4090528 24.0015168,16.8170334 24.6441659,17.7386527 C24.7633545,17.9102448 24.9550256,18.0020984 25.1493405,18.0020984 C25.2707322,18.0020984 25.3934458,17.966194 25.5007376,17.8915217 C25.7794318,17.6972415 25.8479487,17.3137474 25.6534135,17.0348827 C25.3630428,16.6183478 25.5075672,15.7905644 25.8215113,15.3828404 C26.5970083,14.3724513 26.1627741,13.5536991 26.0206731,13.2847466 C25.9847623,13.2175636 25.9457671,13.1486184 25.9054501,13.0776907 C25.6190449,12.5726063 25.4954501,12.3096011 25.8155629,11.8567213 C26.1956005,11.3188163 26.0662776,10.5368496 25.9642733,10.1412405 C26.1425054,10.0967455 26.3163313,10.0463032 26.4798025,9.97889984 C27.4687815,9.57117579 29.5216454,10.2608484 30.4606136,10.679586 C30.5452133,10.7566814 30.6498613,10.8086656 30.7646437,10.8256266 C30.8005545,10.84457 30.8353637,10.8635134 30.8618011,10.879373 C30.9360462,10.9243086 31.0162396,10.9461155 31.097094,10.9566886 C31.4361536,11.271678 32.1338806,12.3737004 32.2158365,16.1337487 C32.2178193,16.2220779 32.2385286,16.3086449 32.2779644,16.3877226 C32.3345845,16.4998412 32.4436387,16.6648252 32.6494098,17.0106527 C32.9375775,17.4943707 33.7018385,18.4490309 33.9985983,19.4649268 L33.9941921,19.4649268 C33.3986897,19.4649268 32.3749015,19.4239561 31.4982815,19.3457595 C31.1675937,19.3127186 30.8796464,19.5691156 30.8503449,19.8979821 C30.8212638,20.2264082 31.0642675,20.5213528 31.391871,20.5495476 C31.6679214,20.5739979 31.9212798,20.5980075 32.1565727,20.6156293 L31.9408876,21.6667688 L31.906519,21.8350568 L31.0737409,21.8350568 C30.6998721,21.8350568 30.3965029,22.1381515 30.3965029,22.5121739 C30.3965029,22.8861963 30.6998721,23.1895112 31.0737409,23.1895112 L31.6289263,23.1895112 L31.46898,23.969936 C31.4335099,24.1452728 31.4775722,24.3278785 31.5905921,24.4659893 C31.7038322,24.6043203 31.8730316,24.6851602 32.052145,24.6862616 C32.160318,24.6862616 32.6143803,24.742431 32.8642137,25.0100619 C33.0232787,25.1805526 33.0900331,25.425936 33.0671207,25.7603094 C33.0371583,26.2096649 32.9549821,26.453286 32.7846812,26.6015293 C32.5643695,26.7922851 32.1294743,26.8687196 31.5293454,26.8246652 C30.8410918,26.7729012 30.3376797,26.6931626 30.0030263,26.6266403 C29.942661,26.5706912 29.870619,26.5259759 29.7880022,26.4971202 L29.5408125,26.4118748 C28.4819948,26.0495269 27.2812963,25.6384988 25.398513,24.0842574 C23.545692,22.5555675 23.2361542,20.1043773 23.2335104,20.0810284 C23.2046496,19.829918 23.0255363,19.6217607 22.7814309,19.5563398 C22.0405229,19.3576542 21.5238921,18.9955265 21.2454182,18.4803096 C20.9623177,17.956502 20.9312538,17.2577983 21.1597169,16.5641608 C21.2610603,16.2566606 21.4110925,16.0584155 21.6188464,15.9586322 C21.9488732,15.7998159 22.3930215,15.9031236 22.5373256,15.9566497 C22.8541338,16.0762576 23.2092762,15.9198643 23.3313288,15.6031127 C23.4538221,15.2863611 23.2956383,14.9301808 22.9783896,14.8079297 C22.8766056,14.7682806 21.9581263,14.4358897 21.0960469,14.8444949 C20.7360576,15.0152059 20.2526939,15.3848228 19.9909637,16.1791248 C19.6569712,17.1930382 19.7195397,18.2448385 20.1625864,19.0653528 C20.5472506,19.7772729 21.2051011,20.311213 22.0781962,20.6246605 C22.2548861,21.4953969 22.8444401,23.5721242 24.6148645,25.0334107 C26.3502593,26.4658416 27.5965623,27.0224697 28.6055896,27.388342 L28.5873037,27.4013381 L28.1768631,28.8038118 C26.5511835,27.9487147 21.2630431,25.0596231 19.6961867,24.1708244 C19.7109476,24.0034174 19.6611571,23.8331469 19.5397654,23.7060498 C19.4851281,23.6483385 14.0974069,17.9131084 15.7235271,11.447235 C17.0863749,7.83520973 21.1099265,6.04880131 23.5395233,5.93403944 C27.0144989,5.76993657 31.1367501,7.7089937 32.1671476,8.39646358 C32.434606,8.57510442 32.5663523,9.04031953 32.4420966,9.37293072 C32.2997752,9.75312072 31.8767769,9.81810105 31.5011455,9.79078729 C31.3456055,9.7119298 31.1960139,9.66743479 31.0611832,9.64849138 C30.0422418,9.17887081 27.5542624,8.24667841 26.024859,8.87489503 C24.9228601,9.32755462 22.9660521,9.00926114 22.3048969,8.84736099 M10.7334684,41.3181425 C12.3611308,37.3014769 17.5657731,28.0418899 19.158406,25.235841 C19.7732958,25.5873956 20.9761973,26.2546004 23.3775943,27.5674234 C25.273376,28.6051262 26.427809,29.2309198 27.1444828,29.6115504 L26.6970298,29.6820375 C26.3941013,29.7300569 26.1773146,30.0014324 26.1951599,30.3073906 L26.326025,32.5098934 C26.3363796,32.6885343 26.427809,32.8535182 26.5729944,32.9581476 C26.6754393,33.0323793 26.7981529,33.0718081 26.9224086,33.0718081 C26.9733006,33.0718081 27.0250738,33.0654202 27.0748643,33.0513228 L28.0730963,32.7874365 L32.3975936,42.2232414 C32.4976151,42.4428529 32.7144018,42.5717122 32.9402212,42.5717122 C33.0239396,42.5717122 33.1078784,42.5538701 33.188953,42.5170847 C33.4881363,42.3796347 33.6203232,42.0258774 33.4828488,41.7263071 L29.2447137,32.4768526 L29.6412746,32.3713421 C30.5588726,33.3938462 34.385025,37.8728633 37.2404842,41.2309147 C35.0349443,42.9305358 32.4976151,44.2173666 29.742618,44.9786277 C29.6436981,39.7962811 26.8657885,33.4936296 24.9614147,31.3856236 C21.3434568,27.3819541 20.7743919,26.963657 20.4439244,26.8535208 C20.1302006,26.7482307 19.7922426,26.9176201 19.6875945,27.2310676 C19.587573,27.5304176 19.7393678,27.8533368 20.0277557,27.9714028 C20.2751657,28.1225096 21.18307,28.9857568 24.0753212,32.1858729 C25.6170621,33.8929832 28.5139399,39.8542127 28.5533757,45.1638767 C28.553596,45.2011027 28.5513929,45.2363463 28.5513929,45.2731318 C27.8164333,45.4319481 27.0686956,45.5548601 26.3086204,45.6374622 C25.563967,40.3493849 24.454037,38.4880839 21.2359448,35.7611127 L23.4734298,35.687762 C23.6701681,35.6811538 23.851044,35.5787272 23.9567936,35.413523 C24.0632041,35.2478782 24.0810493,35.0419236 24.0048215,34.8599787 C23.3989645,33.4156532 18.8279385,28.6758336 18.0394431,28.6758336 C17.7098569,28.6758336 17.4435001,28.9430239 17.4435001,29.2725513 C17.4435001,29.5223401 17.5950745,29.7349029 17.8116409,29.8241132 C18.3362029,30.1794124 21.1914418,32.863871 22.4168152,34.5273675 L19.6113667,34.6201021 C19.360652,34.6286928 19.1432045,34.7912537 19.0643329,35.0287073 C18.9850207,35.2659405 19.0623501,35.526743 19.2573259,35.6826958 C23.0354503,38.7043913 24.2905657,39.9524542 25.1165141,45.7359239 C24.7239187,45.75707 24.3291203,45.769185 23.9312374,45.769185 C18.9759879,45.769185 14.4027588,44.1085521 10.7334684,41.3181425 M23.9312374,0.641776965 C11.0905935,0.641776965 0.643855963,11.0868695 0.643855963,23.9252208 C0.643855963,36.7640125 11.0905935,47.2088848 23.9312374,47.2088848 C36.7723219,47.2088848 47.2192798,36.7640125 47.2192798,23.9252208 C47.2192798,11.0868695 36.7723219,0.641776965 23.9312374,0.641776965" id="Fill-1"></path>
                </g>
            </g>
        </g>
    </g>
</svg>