<svg xmlns="http://www.w3.org/2000/svg" xmlns:xlink="http://www.w3.org/1999/xlink" width="32" height="32" viewBox="0 0 32 32">
  <defs>
    <path id="appointment-a" d="M17.4,4.61538462 C17.0687,4.61538462 16.8,4.35701923 16.8,4.03846154 L16.8,0.576923077 C16.8,0.258365385 17.0687,0 17.4,0 C17.7313,0 18,0.258365385 18,0.576923077 L18,4.03846154 C18,4.35701923 17.7313,4.61538462 17.4,4.61538462 Z M6.6,4.61538462 C6.2687,4.61538462 6,4.35701923 6,4.03846154 L6,0.576923077 C6,0.258365385 6.2687,0 6.6,0 C6.9313,0 7.2,0.258365385 7.2,0.576923077 L7.2,4.03846154 C7.2,4.35701923 6.9313,4.61538462 6.6,4.61538462 Z M18.6,1.73076923 L21.4,1.73076923 C22.9309,1.73076923 24,2.75875 24,4.23076923 L24,17.5 C24,18.9720192 22.9309,20 21.4,20 L2.6,20 C1.0691,20 0,18.9720192 0,17.5 L0,4.23076923 C0,2.75875 1.0691,1.73076923 2.6,1.73076923 L5.4,1.73076923 L5.4,4.03846154 C5.4,4.67471154 5.9383,5.19230769 6.6,5.19230769 C7.2617,5.19230769 7.8,4.67471154 7.8,4.03846154 L7.8,1.73076923 L16.2,1.73076923 L16.2,4.03846154 C16.2,4.67471154 16.7383,5.19230769 17.4,5.19230769 C18.0617,5.19230769 18.6,4.67471154 18.6,4.03846154 L18.6,1.73076923 Z M3.6,14.6133654 L4.8,14.6133654 L4.8,15.7692308 L3.6,15.7692308 L3.6,14.6133654 Z M3.6,10.3836538 L4.8,10.3836538 L4.8,11.5395192 L3.6,11.5395192 L3.6,10.3836538 Z M3.6,6.53846154 L4.8,6.53846154 L4.8,7.69432692 L3.6,7.69432692 L3.6,6.53846154 Z M6.7,14.6133654 L7.9,14.6133654 L7.9,15.7692308 L6.7,15.7692308 L6.7,14.6133654 Z M6.7,10.3836538 L7.9,10.3836538 L7.9,11.5395192 L6.7,11.5395192 L6.7,10.3836538 Z M6.7,6.53846154 L7.9,6.53846154 L7.9,7.69432692 L6.7,7.69432692 L6.7,6.53846154 Z M9.8,14.6133654 L11,14.6133654 L11,15.7692308 L9.8,15.7692308 L9.8,14.6133654 Z M9.8,10.3836538 L11,10.3836538 L11,11.5395192 L9.8,11.5395192 L9.8,10.3836538 Z M9.8,6.53846154 L11,6.53846154 L11,7.69432692 L9.8,7.69432692 L9.8,6.53846154 Z M13,14.6133654 L14.2,14.6133654 L14.2,15.7692308 L13,15.7692308 L13,14.6133654 Z M13,10.3836538 L14.2,10.3836538 L14.2,11.5395192 L13,11.5395192 L13,10.3836538 Z M13,6.53846154 L14.2,6.53846154 L14.2,7.69432692 L13,7.69432692 L13,6.53846154 Z M16.1,14.6133654 L17.3,14.6133654 L17.3,15.7692308 L16.1,15.7692308 L16.1,14.6133654 Z M16.1,10.3836538 L17.3,10.3836538 L17.3,11.5395192 L16.1,11.5395192 L16.1,10.3836538 Z M16.1,6.53846154 L17.3,6.53846154 L17.3,7.69432692 L16.1,7.69432692 L16.1,6.53846154 Z M19.2,14.6133654 L20.4,14.6133654 L20.4,15.7692308 L19.2,15.7692308 L19.2,14.6133654 Z M19.2,10.3836538 L20.4,10.3836538 L20.4,11.5395192 L19.2,11.5395192 L19.2,10.3836538 Z M19.2,6.53846154 L20.4,6.53846154 L20.4,7.69432692 L19.2,7.69432692 L19.2,6.53846154 Z"/>
  </defs>
  <g fill="none" fill-rule="evenodd" transform="translate(4 6)">
    <use fill="#384048" xlink:href="#appointment-a"/>
  </g>
</svg>
