<?xml version="1.0" encoding="utf-8"?>
<svg version="1.1" id="logo-jcpenney" xmlns="http://www.w3.org/2000/svg" xmlns:xlink="http://www.w3.org/1999/xlink" x="0px" y="0px"
	 viewBox="0 0 150 35" style="enable-background:new 0 0 150 35;" xml:space="preserve">
<path id="logo-jcpenney-path" style="fill:#111111;" d="M14.6,19.2c0,2.2-0.3,3.8-0.9,5c-1.2,2.2-3.4,3.3-6.7,3.3c-1.9,0-3.5-0.5-4.8-1.6
	c-1.3-1-2-2.9-2-5.6v-1.8h3.2v1.8c0,1.4,0.3,2.4,0.9,3.1c0.6,0.7,1.6,1.1,2.9,1.1c1.8,0,3-0.6,3.6-1.9c0.3-0.8,0.5-2.3,0.5-4.4V1.2
	h3.4C14.6,1.2,14.6,19.2,14.6,19.2z M36.2,3.1c1.8,1.7,2.7,3.7,2.9,5.8h-3.3c-0.4-1.7-1.1-3-2.3-3.9c-1.1-1-2.7-1.4-4.8-1.4
	c-2.5,0-4.5,0.9-6,2.7c-1.5,1.8-2.3,4.5-2.3,8.2c0,3,0.7,5.4,2.1,7.3c1.4,1.9,3.4,2.8,6.2,2.8c2.5,0,4.4-1,5.8-3
	c0.7-1,1.2-2.4,1.6-4.1h3.3c-0.3,2.7-1.3,5-3,6.8c-2,2.2-4.7,3.3-8.1,3.3c-2.9,0-5.4-0.9-7.4-2.7c-2.6-2.4-3.9-6.1-3.9-11
	c0-3.8,1-6.9,3-9.3C22,1.8,25,0.5,28.7,0.5C31.9,0.5,34.4,1.4,36.2,3.1z M42.1,1.2h11.4c2.2,0,4.1,0.6,5.4,1.9s2.1,3.1,2.1,5.4
	c0,2-0.6,3.7-1.8,5.2C57.8,15.3,56,16,53.4,16h-7.9v10.8h-3.4V1.2z M55.4,4.7c-0.8-0.4-1.8-0.5-3.1-0.5h-6.8v8.9h6.8
	c1.5,0,2.8-0.3,3.7-1c1-0.7,1.4-1.8,1.4-3.5C57.4,6.7,56.8,5.4,55.4,4.7L55.4,4.7z M74.5,8.7c1.2,0.6,2.2,1.4,2.8,2.4
	c0.6,0.9,1,2,1.2,3.3c0.2,0.9,0.3,2.2,0.3,4.1H65.3c0.1,1.9,0.5,3.4,1.3,4.6c0.8,1.1,2.1,1.7,3.8,1.7c1.6,0,2.9-0.5,3.9-1.6
	c0.6-0.6,0.9-1.4,1.2-2.2h3c-0.1,0.7-0.3,1.5-0.8,2.3c-0.5,0.8-1,1.5-1.5,2.1c-0.9,0.9-2.1,1.6-3.5,1.9c-0.7,0.2-1.6,0.3-2.5,0.3
	c-2.3,0-4.2-0.8-5.8-2.5c-1.6-1.7-2.4-4.1-2.4-7.1c0-3,0.8-5.4,2.4-7.3c1.6-1.9,3.7-2.8,6.3-2.8C72,7.7,73.3,8,74.5,8.7L74.5,8.7z
	 M75.6,16c-0.1-1.4-0.4-2.4-0.9-3.3c-0.8-1.5-2.3-2.3-4.2-2.3c-1.4,0-2.6,0.5-3.6,1.6c-1,1-1.5,2.4-1.5,4H75.6z M80.8,8.1h2.9v2.7
	c0.9-1.1,1.8-1.9,2.8-2.4c1-0.5,2.1-0.7,3.2-0.7c2.6,0,4.4,0.9,5.3,2.8c0.5,1,0.8,2.5,0.8,4.3v12h-3.1V15.1c0-1.1-0.2-2.1-0.5-2.8
	c-0.6-1.2-1.5-1.7-3-1.7c-0.7,0-1.3,0.1-1.8,0.2c-0.8,0.3-1.6,0.8-2.2,1.5c-0.5,0.6-0.8,1.3-1,1.9c-0.2,0.7-0.2,1.6-0.2,2.8v9.8
	h-3.1V8.1L80.8,8.1z M98.6,8.1h2.9v2.7c0.9-1.1,1.8-1.9,2.8-2.4c1-0.5,2.1-0.7,3.2-0.7c2.6,0,4.4,0.9,5.3,2.8c0.5,1,0.8,2.5,0.8,4.3
	v12h-3.1V15.1c0-1.1-0.2-2.1-0.5-2.8c-0.6-1.2-1.5-1.7-3-1.7c-0.7,0-1.3,0.1-1.8,0.2c-0.8,0.3-1.6,0.8-2.2,1.5
	c-0.5,0.6-0.8,1.3-1,1.9c-0.2,0.7-0.2,1.6-0.2,2.8v9.8h-3.1L98.6,8.1L98.6,8.1z M127.9,8.7c1.2,0.6,2.2,1.4,2.8,2.4
	c0.6,0.9,1,2,1.2,3.3c0.2,0.9,0.3,2.2,0.3,4.1h-13.5c0.1,1.9,0.5,3.4,1.3,4.6c0.8,1.1,2.1,1.7,3.8,1.7c1.6,0,2.9-0.5,3.9-1.6
	c0.6-0.6,0.9-1.4,1.2-2.2h3c-0.1,0.7-0.3,1.5-0.8,2.3c-0.5,0.8-1,1.5-1.5,2.1c-0.9,0.9-2.1,1.6-3.5,1.9c-0.7,0.2-1.6,0.3-2.5,0.3
	c-2.3,0-4.2-0.8-5.8-2.5c-1.6-1.7-2.4-4.1-2.4-7.1c0-3,0.8-5.4,2.4-7.3c1.6-1.9,3.7-2.8,6.3-2.8C125.4,7.7,126.7,8,127.9,8.7z
	 M129,16c-0.1-1.4-0.4-2.4-0.9-3.3c-0.8-1.5-2.3-2.3-4.2-2.3c-1.4,0-2.6,0.5-3.6,1.6s-1.5,2.4-1.5,4H129z M145.7,8.1h3.4
	c-0.4,1.2-1.4,3.9-2.9,8.2c-0.9,2.6-1.9,5.2-2.8,7.9c-1.8,4.8-3,7.7-3.8,8.7c-0.7,1-2,1.6-3.8,1.6c-0.3,0-0.7,0-1-0.1
	c-0.3,0-0.6-0.1-0.9-0.2v-2.9c0.5,0.2,0.9,0.2,1.2,0.3c0.2,0,0.5,0.1,0.6,0.1c0.6,0,1-0.1,1.3-0.3c0.3-0.2,0.5-0.4,0.7-0.7
	c0.1-0.1,0.3-0.6,0.6-1.4s0.6-1.5,0.8-1.9l-6.8-19.2h3.5l4.9,15.2L145.7,8.1L145.7,8.1z"/>
</svg>
