<svg xmlns="http://www.w3.org/2000/svg" xmlns:xlink="http://www.w3.org/1999/xlink" width="32" height="32" viewBox="0 0 32 32">
  <defs>
    <path id="arrow-left-a" d="M5.50379287,7.56000042 L23,7.56000042 C23.5522847,7.56000042 24,8.00771567 24,8.56000042 L24,9.42000031 C24,9.97228506 23.5522847,10.4200003 23,10.4200003 L5.45949998,10.4200003 L10.669517,15.524133 C11.0783227,15.9246304 11.0783227,16.5739649 10.669517,16.9744623 L9.92930898,17.699627 C9.52050336,18.1001243 8.85769849,18.1001243 8.44889286,17.699627 L0.306604217,9.72281587 C-0.102201406,9.3223185 -0.102201406,8.67298396 0.306604217,8.27248658 L1.04681228,7.54732194 C1.09668711,7.49846072 1.15034255,7.45556064 1.20685612,7.41862169 L8.47277161,0.300373031 C8.88157723,-0.100124344 9.5443821,-0.100124344 9.95318772,0.300373031 L10.6933958,1.02553768 C11.1022014,1.42603505 11.1022014,2.07536959 10.6933958,2.47586697 L5.50379287,7.56000042 Z"/>
  </defs>
  <g fill="none" fill-rule="evenodd" transform="translate(4 7)">
    <use fill="#384048" xlink:href="#arrow-left-a"/>
  </g>
</svg>
