<svg xmlns="http://www.w3.org/2000/svg" xmlns:xlink="http://www.w3.org/1999/xlink" width="32" height="32" viewBox="0 0 32 32">
  <defs>
    <path id="arrow-right-a" d="M18.5166213,10.4200003 L1,10.4200003 C0.44771525,10.4200003 0,9.97228506 0,9.42000031 L0,8.56000042 C0,8.00771567 0.44771525,7.56000042 1,7.56000042 L18.5200859,7.56000042 L13.330483,2.47586697 C12.9216773,2.07536959 12.9216773,1.42603505 13.330483,1.02553768 L14.070691,0.300373031 C14.4794966,-0.100124344 15.1423015,-0.100124344 15.5511071,0.300373031 L23.6933958,8.27718413 C24.1022014,8.6776815 24.1022014,9.32701604 23.6933958,9.72751342 L22.9531877,10.4526781 C22.9033129,10.5015393 22.8496574,10.5444394 22.7931439,10.5813783 L15.5272284,17.699627 C15.1184228,18.1001243 14.4556179,18.1001243 14.0468123,17.699627 L13.3066042,16.9744623 C12.8977986,16.5739649 12.8977986,15.9246304 13.3066042,15.524133 L18.5166213,10.4200003 Z"/>
  </defs>
  <g fill="none" fill-rule="evenodd" transform="translate(4 7)">
    <use fill="#384048" xlink:href="#arrow-right-a"/>
  </g>
</svg>
