<svg xmlns="http://www.w3.org/2000/svg" xmlns:xlink="http://www.w3.org/1999/xlink" width="32" height="32" viewBox="0 0 32 32">
  <defs>
    <path id="menu-a" d="M23.0769231,0 C23.5867244,0 24,0.407013864 24,0.909090909 C24,1.41116795 23.5867244,1.81818182 23.0769231,1.81818182 L0.923076923,1.81818182 C0.413275616,1.81818182 0,1.41116795 0,0.909090909 C0,0.407013864 0.413275616,0 0.923076923,0 L23.0769231,0 Z M23.0769231,9.09090909 C23.5867244,9.09090909 24,9.49792295 24,10 C24,10.502077 23.5867244,10.9090909 23.0769231,10.9090909 L0.923076923,10.9090909 C0.413275616,10.9090909 0,10.502077 0,10 C0,9.49792295 0.413275616,9.09090909 0.923076923,9.09090909 L23.0769231,9.09090909 Z M23.0769231,18.1818182 C23.5867244,18.1818182 24,18.588832 24,19.0909091 C24,19.5929861 23.5867244,20 23.0769231,20 L0.923076923,20 C0.413275616,20 0,19.5929861 0,19.0909091 C0,18.588832 0.413275616,18.1818182 0.923076923,18.1818182 L23.0769231,18.1818182 Z"/>
  </defs>
  <g fill="none" fill-rule="evenodd" transform="translate(4 6)">
    <use fill="#384048" fill-rule="nonzero" xlink:href="#menu-a"/>
  </g>
</svg>
