<?xml version="1.0" encoding="UTF-8"?>
<svg width="48px" height="48px" viewBox="0 0 48 48" version="1.1" xmlns="http://www.w3.org/2000/svg" xmlns:xlink="http://www.w3.org/1999/xlink">
    <!-- Generator: Sketch 46.2 (44496) - http://www.bohemiancoding.com/sketch -->
    <title>icon/Utility/barcode-qr</title>
    <desc>Created with Sketch.</desc>
    <defs>
        <path d="M0.0075,14.4941466 L1.5,14.4941466 L1.5,15.9935411 L0.0075,15.9935411 L0.0075,14.4941466 Z M0.0075,9.99596317 L3,9.99596317 L3,12.9947521 L0.0075,12.9947521 L0.0075,9.99596317 Z M4.5,12.9947521 L6,12.9947521 L6,14.4941466 L7.5,14.4941466 L7.5,15.9935411 L3,15.9935411 L3,14.4941466 L4.5,14.4941466 L4.5,12.9947521 Z M11.53125,8.99636685 L11.53125,10.4957613 L10.03125,10.4957613 L10.03125,7.49697238 L13.03125,7.49697238 L13.03125,4.49818343 L14.53125,4.49818343 L14.53125,5.9975779 L16.03125,5.9975779 L16.03125,8.99636685 L11.53125,8.99636685 Z M11.53125,2.99878895 L11.53125,4.49818343 L10.03125,4.49818343 L10.03125,0 L11.53125,0 L11.53125,1.49939448 L13.03125,1.49939448 L13.03125,0 L16.03125,0 L16.03125,1.49939448 L14.53125,1.49939448 L14.53125,2.99878895 L11.53125,2.99878895 Z M4.5,9.99596317 L7.5,9.99596317 L7.5,11.4953576 L4.5,11.4953576 L4.5,9.99596317 Z M14.53125,20.0024221 L16.03125,20.0024221 L16.03125,21.5018166 L14.53125,21.5018166 L14.53125,20.0024221 Z M14.53125,14.9939448 L11.53125,14.9939448 L11.53125,10.4957613 L13.03125,10.4957613 L13.03125,13.4945503 L14.53125,13.4945503 L14.53125,14.9939448 Z M16.9375,14.4941466 L18.4375,14.4941466 L18.4375,15.9935411 L16.9375,15.9935411 L16.9375,14.4941466 Z M22.937625,11.4953576 L22.937625,9.99596317 L25.937625,9.99596317 L25.937625,15.9935411 L22.937625,15.9935411 L22.937625,17.4929355 L25.937625,17.4929355 L25.937625,18.99233 L16.9375,18.99233 L16.9375,17.4929355 L18.4375,17.4929355 L18.4375,15.9935411 L19.9375,15.9935411 L19.9375,17.4929355 L21.437625,17.4929355 L21.437625,14.4941466 L18.4375,14.4941466 L18.4375,11.4953576 L15.4375,11.4953576 L15.4375,9.99596317 L21.4375,9.99596317 L21.4375,11.4953576 L19.9375,11.4953576 L19.9375,12.9947521 L21.437625,12.9947521 L21.437625,11.4953576 L22.937625,11.4953576 Z M24.437625,21.5018166 L24.437625,20.4917245 L25.937625,20.4917245 L25.937625,23.001211 L24.437625,23.001211 L24.437625,26 L18.4375,26 L18.4375,24.5006055 L14.53125,24.5006055 L14.53125,23.001211 L18.4375,23.001211 L18.4375,20.0024221 L19.9375,20.0024221 L19.9375,24.5006055 L21.437625,24.5006055 L21.446,22.9917149 L22.946,22.9917149 L22.946,21.5018166 L24.437625,21.5018166 Z M10.03125,24.5006055 L11.53125,24.5006055 L11.53125,23.001211 L13.03125,23.001211 L13.03125,26 L10.03125,26 L10.03125,24.5006055 Z M8.64575,11.4953576 L10.14575,11.4953576 L10.14575,14.4941466 L8.64575,14.4941466 L8.64575,11.4953576 Z M13.03125,17.4929355 L14.53125,17.4929355 L14.53125,18.99233 L13.03125,18.99233 L13.03125,17.4929355 Z M11.53125,17.4929355 L11.53125,20.0024221 L13.03125,20.0024221 L13.03125,21.5018166 L11.53125,21.5018166 L11.53125,23.001211 L10.03125,23.001211 L10.03125,17.4929355 L11.53125,17.4929355 Z M0,8.65275562 L0,0.0104957613 L8.64575,0.0104957613 L8.64575,8.65275562 L0,8.65275562 Z M1.5,1.50989024 L1.5,7.15336114 L7.14575,7.15336114 L7.14575,1.50989024 L1.5,1.50989024 Z M0,26 L0,17.3578651 L8.64575,17.3578651 L8.64575,26 L0,26 Z M1.5,18.8572596 L1.5,24.5006055 L7.14575,24.5006055 L7.14575,18.8572596 L1.5,18.8572596 Z M17.35425,8.65275562 L17.35425,0.0104957613 L26,0.0104957613 L26,8.65275562 L17.35425,8.65275562 Z M18.85425,1.50989024 L18.85425,7.15336114 L24.5,7.15336114 L24.5,1.50989024 L18.85425,1.50989024 Z" id="path-1"></path>
    </defs>
    <g id="Symbols" stroke="none" stroke-width="1" fill="none" fill-rule="evenodd">
        <g id="icon/Utility/barcode-qr">
            <g id="Icon" transform="translate(11.000000, 11.000000)">
                <mask id="mask-2" fill="white">
                    <use xlink:href="#path-1"></use>
                </mask>
                <use id="Mask" fill="#384048" xlink:href="#path-1"></use>
                <g id="Color/Grayscale/Night-Sky" mask="url(#mask-2)" fill="#111111">
                    <g transform="translate(-11.000000, -11.000000)" id="Swatch">
                        <rect x="0" y="0" width="48" height="48"></rect>
                    </g>
                </g>
            </g>
        </g>
    </g>
</svg>