<?xml version="1.0" encoding="utf-8"?>
<svg version="1.1" id="icon_x2F_Utility_x2F_barcode-qr-Layer_1"
	 xmlns="http://www.w3.org/2000/svg" xmlns:xlink="http://www.w3.org/1999/xlink" x="0px" y="0px" viewBox="0 0 48 48"
	 style="enable-background:new 0 0 48 48;" xml:space="preserve">
<path id="icon_x2F_Utility_x2F_barcode-qr-path-1_1_" style="fill:#111111;" d="M11,25.5h1.5V27H11V25.5z M11,21h3v3h-3V21z
	 M15.5,24H17v1.5h1.5V27H14v-1.5h1.5V24z M22.5,20v1.5H21v-3h3v-3h1.5V17H27v3H22.5z M22.5,14v1.5H21V11h1.5v1.5H24V11h3v1.5h-1.5
	V14H22.5z M15.5,21h3v1.5h-3V21z M25.5,31H27v1.5h-1.5V31z M25.5,26h-3v-4.5H24v3h1.5V26z M27.9,25.5h1.5V27h-1.5V25.5z M33.9,22.5
	V21h3v6h-3v1.5h3V30h-9v-1.5h1.5V27h1.5v1.5h1.5v-3h-3v-3h-3V21h6v1.5h-1.5V24h1.5v-1.5H33.9z M35.4,32.5v-1h1.5V34h-1.5v3h-6v-1.5
	h-3.9V34h3.9v-3h1.5v4.5h1.5V34h1.5v-1.5H35.4z M21,35.5h1.5V34H24v3h-3V35.5z M19.6,22.5h1.5v3h-1.5V22.5z M24,28.5h1.5V30H24V28.5
	z M22.5,28.5V31H24v1.5h-1.5V34H21v-5.5H22.5z M11,19.7V11h8.6v8.6H11V19.7z M12.5,12.5v5.6h5.6v-5.6H12.5z M11,37v-8.6h8.6V37H11z
	 M12.5,29.9v5.6h5.6v-5.6H12.5z M28.4,19.7V11H37v8.6h-8.6V19.7z M29.9,12.5v5.6h5.6v-5.6H29.9z"/>
</svg>
