<?xml version="1.0" encoding="utf-8"?>
<!-- Generator: Adobe Illustrator 21.0.2, SVG Export Plug-In . SVG Version: 6.00 Build 0)  -->
<svg version="1.1" id="icon_x2F_Utility_x2F_barcode-Layer_1" xmlns="http://www.w3.org/2000/svg" xmlns:xlink="http://www.w3.org/1999/xlink" x="0px" y="0px"
	 viewBox="0 0 48 48" style="enable-background:new 0 0 48 48;" xml:space="preserve">
<title>icon/Utility/barcode</title>
<desc>Created with Sketch.</desc>
<g id="icon_x2F_Utility_x2F_barcode-Symbols">
	<g id="icon_x2F_Utility_x2F_barcode">
		<g id="icon_x2F_Utility_x2F_barcode-Icon" transform="translate(12.000000, 15.000000)">
			<g id="icon_x2F_Utility_x2F_barcode-Mask">
				<path id="icon_x2F_Utility_x2F_barcode-path-1_1_" style="fill:#384048;" d="M0,0h1v18H0V0z M1.9,0h1.9v18H1.9V0z M4.8,0h3.8v18H4.8V0z M10.6,0h1.9v18h-1.9V0
					z M13.4,0h1v18h-1V0z M21.1,0h1v18h-1V0z M23,0h1v18h-1V0z M16.3,0h2.9v18h-2.9V0z"/>
			</g>
			<defs>
				<filter id="icon_x2F_Utility_x2F_barcode-Adobe_OpacityMaskFilter" filterUnits="userSpaceOnUse" x="-12" y="-15" width="48" height="48">
					<feColorMatrix  type="matrix" values="1 0 0 0 0  0 1 0 0 0  0 0 1 0 0  0 0 0 1 0"/>
				</filter>
			</defs>
			<mask maskUnits="userSpaceOnUse" x="-12" y="-15" width="48" height="48" id="icon_x2F_Utility_x2F_barcode-mask-2">
				<g style="filter:url(#icon_x2F_Utility_x2F_barcode-Adobe_OpacityMaskFilter);">
					<path id="icon_x2F_Utility_x2F_barcode-path-1" style="fill:#FFFFFF;" d="M0,0h1v18H0V0z M1.9,0h1.9v18H1.9V0z M4.8,0h3.8v18H4.8V0z M10.6,0h1.9v18h-1.9V0z
						 M13.4,0h1v18h-1V0z M21.1,0h1v18h-1V0z M23,0h1v18h-1V0z M16.3,0h2.9v18h-2.9V0z"/>
				</g>
			</mask>
			<g id="icon_x2F_Utility_x2F_barcode-Color_x2F_Grayscale_x2F_Night-Sky" style="mask:url(#icon_x2F_Utility_x2F_barcode-mask-2);">
				<g id="icon_x2F_Utility_x2F_barcode-Swatch" transform="translate(-12.000000, -15.000000)">
					<rect style="fill:#111111;" width="48" height="48"/>
				</g>
			</g>
		</g>
	</g>
</g>
</svg>
