<svg xmlns="http://www.w3.org/2000/svg" xmlns:xlink="http://www.w3.org/1999/xlink" width="32" height="32" viewBox="0 0 32 32" aria-labaria-lelledby="title-021">
  <defs>
    <path id="clip-a" d="M18.8999045,3.87415712 C18.8999045,3.87415712 17.8608851,2.82877175 16.5354603,2.82886462 C16.4365584,2.82886462 16.3358565,2.83471514 16.2339546,2.84725196 C14.5933239,3.04914125 12.0168757,4.17346218 7.89969858,7.2173101 L6.69967611,6.10292577 C7.89969858,4.61708 6.89967985,2.20258063 5.999663,1.36679238 C5.14264696,0.457176171 3.9857253,0 2.94200576,0 C2.28079338,0 1.66498185,0.183501953 1.19957314,0.551620243 C0.399558161,1.05875798 -1.39537544,4.17819831 2.4420964,7.28426603 L4.99964428,9.44607876 C4.99964428,9.44607876 1.22307358,12.1872785 0.376657732,13.8144653 C-0.0730506874,14.7949378 -0.121551595,15.7547942 0.239155158,16.5165687 C0.300256302,16.6482518 0.493659922,16.993711 0.592461772,17.1146217 C1.02076979,17.62826 1.84128515,18 2.83100368,18 C3.70632007,18 4.71413894,17.7091457 5.69975739,16.968173 C7.99980045,15.0180004 7.0997836,12.5106357 7.0997836,12.5106357 L7.89979858,11.9032033 L8.91351756,12.7257118 C9.05832027,12.8752251 9.33082537,13.0678278 9.89973602,13.0678278 L14.4998221,13.0678278 L10.8099531,9.78773042 L18.8999045,3.87415712 L18.8999045,3.87415712 Z M4.86044168,5.35656687 C4.66813808,5.49827941 4.42953361,5.57312889 4.17022875,5.57312889 C3.57501761,5.57312889 2.89350485,5.16675007 2.39179546,4.51251361 C1.6566817,3.55377162 1.59188048,2.5125652 2.23779258,2.03663023 C2.42999617,1.89501055 2.66860064,1.8200682 2.9279055,1.8200682 C3.52311664,1.8200682 4.2046294,2.22644702 4.70633879,2.88068349 C5.44155256,3.83933261 5.50635377,4.88053903 4.86044168,5.35656687 L4.86044168,5.35656687 Z M4.72443913,15.360395 C4.19692925,15.9334671 3.53991695,16.275676 2.96710623,16.275676 C2.96700623,16.275676 2.96710623,16.275676 2.96700623,16.275676 C2.6612005,16.275676 2.39089544,16.1798389 2.18529159,15.9986586 C1.5872804,15.4715548 1.75078346,14.4397278 2.57419887,13.5451558 C3.10180875,12.9719908 3.75882105,12.6298748 4.33163178,12.6298748 C4.6375375,12.6298748 4.90784256,12.725619 5.11344641,12.9068922 C5.71145761,13.4339959 5.54785455,14.4659158 4.72443913,15.360395 Z M23.3999888,13.0678278 L21.9999626,13.0678278 C21.6685564,13.0678278 21.3999513,12.8182986 21.3999513,12.5106357 C21.3999513,12.2028799 21.6685564,11.9534435 21.9999626,11.9534435 L23.3999888,11.9534435 C23.731395,11.9534435 24,12.2028799 24,12.5106357 C24,12.8182986 23.731395,13.0678278 23.3999888,13.0678278 Z M20.099927,13.0678278 L18.6999008,13.0678278 C18.3684946,13.0678278 18.0998895,12.8182986 18.0998895,12.5106357 C18.0998895,12.2028799 18.3684946,11.9534435 18.6999008,11.9534435 L20.099927,11.9534435 C20.4313332,11.9534435 20.6999382,12.2028799 20.6999382,12.5106357 C20.6999382,12.8182986 20.4313332,13.0678278 20.099927,13.0678278 Z M16.7998652,13.0678278 L15.399839,13.0678278 C15.0684328,13.0678278 14.7998278,12.8182986 14.7998278,12.5106357 C14.7998278,12.2028799 15.0684328,11.9534435 15.399839,11.9534435 L16.7998652,11.9534435 C17.1312714,11.9534435 17.3998764,12.2028799 17.3998764,12.5106357 C17.3998764,12.8182986 17.1312714,13.0678278 16.7998652,13.0678278 Z"/>
  </defs>
  <title id="title-021" lang="en">clip coupon</title>
  <g fill="none" fill-rule="evenodd" transform="translate(4 7)">
    <use fill="#384048" xlink:href="#clip-a"/>
  </g>
</svg>
