<svg id="icon_x2F_Utility_x2F_clip-Layer_1" xmlns="http://www.w3.org/2000/svg" viewBox="0 0 48 48" enable-background="new 0 0 48 48"><title>icon/Utility/clip</title><g id="icon_x2F_Utility_x2F_clip-Symbols"><g id="icon_x2F_Utility_x2F_clip"><g id="icon_x2F_Utility_x2F_clip-Icon" transform="translate(11 14)"><g id="icon_x2F_Utility_x2F_clip-Mask"><path id="icon_x2F_Utility_x2F_clip-path-1_1_" d="M20.5 4.3s-1.1-1.2-2.6-1.2h-.3c-1.8.3-4.6 1.5-9 4.9L7.3 6.8c1.3-1.7.2-4.3-.8-5.3C5.6.5 4.3 0 3.2 0c-.7 0-1.4.2-1.9.6-.9.6-2.8 4 1.3 7.5l2.8 2.4s-4.1 3-5 4.9c-.5 1.1-.5 2.2-.1 3 .1.1.3.5.4.7.5.6 1.4 1 2.4 1 .9 0 2-.3 3.1-1.1 2.5-2.2 1.5-5 1.5-5l.9-.7 1.1.9c.2.2.5.4 1.1.4h5l-4-3.6 8.7-6.7zM5.3 6c-.2.1-.5.2-.8.2-.6 0-1.4-.5-1.9-1.2-.8-1.1-.9-2.2-.2-2.7.2-.2.5-.3.8-.3.6 0 1.4.5 1.9 1.2.8 1.1.9 2.2.2 2.8zm-.2 11.1c-.6.6-1.3 1-1.9 1-.3 0-.6-.1-.8-.3-.6-.6-.5-1.7.4-2.7.6-.6 1.3-1 1.9-1 .3 0 .6.1.8.3.7.5.5 1.7-.4 2.7zm20.2-2.6h-1.5c-.4 0-.7-.3-.7-.6s.3-.6.7-.6h1.5c.4 0 .7.3.7.6s-.3.6-.7.6zm-3.5 0h-1.5c-.4 0-.7-.3-.7-.6s.3-.6.7-.6h1.5c.4 0 .7.3.7.6-.1.3-.4.6-.7.6zm-3.6 0h-1.5c-.4 0-.7-.3-.7-.6s.3-.6.7-.6h1.5c.4 0 .7.3.7.6-.1.3-.3.6-.7.6z" fill="#384048"/></g><defs><filter id="icon_x2F_Utility_x2F_clip-Adobe_OpacityMaskFilter" filterUnits="userSpaceOnUse" x="-11" y="-14" width="48" height="48"><feColorMatrix values="1 0 0 0 0 0 1 0 0 0 0 0 1 0 0 0 0 0 1 0"/></filter></defs><mask maskUnits="userSpaceOnUse" x="-11" y="-14" width="48" height="48" id="icon_x2F_Utility_x2F_clip-mask-2"><g filter="url(#icon_x2F_Utility_x2F_clip-Adobe_OpacityMaskFilter)"><path id="icon_x2F_Utility_x2F_clip-path-1" d="M20.5 4.3s-1.1-1.2-2.6-1.2h-.3c-1.8.3-4.6 1.5-9 4.9L7.3 6.8c1.3-1.7.2-4.3-.8-5.3C5.6.5 4.3 0 3.2 0c-.7 0-1.4.2-1.9.6-.9.6-2.8 4 1.3 7.5l2.8 2.4s-4.1 3-5 4.9c-.5 1.1-.5 2.2-.1 3 .1.1.3.5.4.7.5.6 1.4 1 2.4 1 .9 0 2-.3 3.1-1.1 2.5-2.2 1.5-5 1.5-5l.9-.7 1.1.9c.2.2.5.4 1.1.4h5l-4-3.6 8.7-6.7zM5.3 6c-.2.1-.5.2-.8.2-.6 0-1.4-.5-1.9-1.2-.8-1.1-.9-2.2-.2-2.7.2-.2.5-.3.8-.3.6 0 1.4.5 1.9 1.2.8 1.1.9 2.2.2 2.8zm-.2 11.1c-.6.6-1.3 1-1.9 1-.3 0-.6-.1-.8-.3-.6-.6-.5-1.7.4-2.7.6-.6 1.3-1 1.9-1 .3 0 .6.1.8.3.7.5.5 1.7-.4 2.7zm20.2-2.6h-1.5c-.4 0-.7-.3-.7-.6s.3-.6.7-.6h1.5c.4 0 .7.3.7.6s-.3.6-.7.6zm-3.5 0h-1.5c-.4 0-.7-.3-.7-.6s.3-.6.7-.6h1.5c.4 0 .7.3.7.6-.1.3-.4.6-.7.6zm-3.6 0h-1.5c-.4 0-.7-.3-.7-.6s.3-.6.7-.6h1.5c.4 0 .7.3.7.6-.1.3-.3.6-.7.6z" fill="#fff"/></g></mask><g id="icon_x2F_Utility_x2F_clip-Color_x2F_Grayscale_x2F_Night-Sky" mask="url(#icon_x2F_Utility_x2F_clip-mask-2)"><path fill="#111" d="M0 0h48v48H0z" transform="translate(-11 -14)" id="icon_x2F_Utility_x2F_clip-Swatch"/></g></g></g></g></svg>