<?xml version="1.0" encoding="UTF-8"?>
<svg width="48px" height="48px" viewBox="0 0 48 48" version="1.1" xmlns="http://www.w3.org/2000/svg" xmlns:xlink="http://www.w3.org/1999/xlink">
    <!-- Generator: Sketch 46.2 (44496) - http://www.bohemiancoding.com/sketch -->
    <title>icon/Utility/collection-multi</title>
    <desc>Created with Sketch.</desc>
    <defs>
        <path d="M24.4069583,6.01442308 L1.48470833,6.01442308 C0.695933333,6.01442308 0,6.77538462 0,7.61538462 L0,22.2692308 C0,23.1092308 0.728,24 1.51666667,24 L24.375,24 C25.1370167,24 26,23.0808462 26,22.2692308 L26,7.61538462 C26,6.80376923 25.168975,6.01442308 24.4069583,6.01442308 L24.4069583,6.01442308 Z M9.1,19.5 C9.09826667,20.4399231 8.72495,20.7043846 7.84701667,20.7043846 L4.21373333,20.7043846 C3.33395833,20.7043846 3.03333333,20.4413077 3.03333333,19.5 L3.03333333,10.3846154 C3.03333333,9.44330769 3.45366667,9.11538462 4.33333333,9.11538462 L7.8,9.11538462 C8.67966667,9.11538462 9.1,9.44330769 9.1,10.3846154 L9.1,19.5 L9.1,19.5 Z M15.1666667,19.5 C15.1649333,20.4399231 14.7916167,20.7043846 13.9136833,20.7043846 L11.1470667,20.7043846 C10.2672917,20.7043846 9.96666667,20.4413077 9.96666667,19.5 L9.96666667,16.8461538 C9.96666667,15.9048462 10.387,15.5769231 11.2666667,15.5769231 L13.8666667,15.5769231 C14.7463333,15.5769231 15.1666667,15.9048462 15.1666667,16.8461538 L15.1666667,19.5 L15.1666667,19.5 Z M15.1666667,13.0384615 C15.1649333,13.9783846 14.7916167,14.2428462 13.9136833,14.2428462 L11.1470667,14.2428462 C10.2672917,14.2428462 9.96666667,13.9797692 9.96666667,13.0384615 L9.96666667,10.3846154 C9.96666667,9.44330769 10.387,9.11538462 11.2666667,9.11538462 L13.8666667,9.11538462 C14.7463333,9.11538462 15.1666667,9.44330769 15.1666667,10.3846154 L15.1666667,13.0384615 L15.1666667,13.0384615 Z M22.9666667,19.5 C22.9649333,20.4399231 22.5916167,20.7043846 21.7136833,20.7043846 L17.2138417,20.7043846 C16.3340667,20.7043846 16.0334417,20.4415385 16.0334417,19.5 L16.0334417,16.8461538 C16.0334417,15.9048462 16.453775,15.5769231 17.3334417,15.5769231 L21.666775,15.5769231 C22.5464417,15.5769231 22.966775,15.9048462 22.966775,16.8461538 L22.9666667,19.5 L22.9666667,19.5 Z M22.9666667,13.0384615 C22.9649333,13.9783846 22.5916167,14.2428462 21.7136833,14.2428462 L17.2138417,14.2428462 C16.3340667,14.2428462 16.0334417,13.98 16.0334417,13.0384615 L16.0334417,10.3846154 C16.0334417,9.44330769 16.453775,9.11538462 17.3334417,9.11538462 L21.666775,9.11538462 C22.5464417,9.11538462 22.966775,9.44330769 22.966775,10.3846154 L22.9666667,13.0384615 Z M22.75,4.38461538 L3.25,4.38461538 C2.89109167,4.38461538 2.6,4.07469231 2.6,3.69230769 C2.6,3.30992308 2.89109167,3 3.25,3 L22.75,3 C23.1090167,3 23.4,3.30992308 23.4,3.69230769 C23.4,4.07469231 23.1090167,4.38461538 22.75,4.38461538 Z M20.6916667,1.38461538 L5.2,1.38461538 C4.84109167,1.38461538 4.55,1.07469231 4.55,0.692307692 C4.55,0.309923077 4.84109167,0 5.2,0 L20.6916667,0 C21.0506833,0 21.3416667,0.309923077 21.3416667,0.692307692 C21.3416667,1.07469231 21.0506833,1.38461538 20.6916667,1.38461538 Z" id="path-1"></path>
    </defs>
    <g id="Symbols" stroke="none" stroke-width="1" fill="none" fill-rule="evenodd">
        <g id="icon/Utility/collection-multi">
            <g id="Icon" transform="translate(11.000000, 12.000000)">
                <mask id="mask-2" fill="white">
                    <use xlink:href="#path-1"></use>
                </mask>
                <use id="Mask" fill="#384048" xlink:href="#path-1"></use>
                <g id="Color/Grayscale/Night-Sky" mask="url(#mask-2)" fill="#111111">
                    <g transform="translate(-11.000000, -12.000000)" id="Swatch">
                        <rect x="0" y="0" width="48" height="48"></rect>
                    </g>
                </g>
            </g>
        </g>
    </g>
</svg>