<svg id="icon_x2F_Utility_x2F_collection-multi-Layer_1" xmlns="http://www.w3.org/2000/svg" viewBox="0 0 48 48" enable-background="new 0 0 48 48"><title>icon/Utility/collection-multi</title><g id="icon_x2F_Utility_x2F_collection-multi-Symbols"><g id="icon_x2F_Utility_x2F_collection-multi"><g id="icon_x2F_Utility_x2F_collection-multi-Icon" transform="translate(11 12)"><g id="icon_x2F_Utility_x2F_collection-multi-Mask"><path id="icon_x2F_Utility_x2F_collection-multi-path-1_1_" d="M24.4 6H1.5C.7 6 0 6.8 0 7.6v14.7c0 .8.7 1.7 1.5 1.7h22.9c.8 0 1.6-.9 1.6-1.7V7.6c0-.8-.8-1.6-1.6-1.6zM9.1 19.5c0 .9-.4 1.2-1.3 1.2H4.2c-.9 0-1.2-.3-1.2-1.2v-9.1c0-.9.4-1.3 1.3-1.3h3.5c.9 0 1.3.3 1.3 1.3v9.1zm6.1 0c0 .9-.4 1.2-1.3 1.2h-2.8c-.9 0-1.2-.3-1.2-1.2v-2.7c0-.9.4-1.3 1.3-1.3h2.6c.9 0 1.3.3 1.3 1.3v2.7h.1zm0-6.5c0 .9-.4 1.2-1.3 1.2h-2.8c-.8 0-1.1-.2-1.1-1.2v-2.7c0-.9.4-1.3 1.3-1.3h2.6c.9 0 1.3.3 1.3 1.3V13zm7.8 6.5c0 .9-.4 1.2-1.3 1.2h-4.5c-.9 0-1.2-.3-1.2-1.2v-2.7c0-.9.4-1.3 1.3-1.3h4.3c.9 0 1.3.3 1.3 1.3l.1 2.7zm0-6.5c0 .9-.4 1.2-1.3 1.2h-4.5c-.9 0-1.2-.2-1.2-1.2v-2.7c0-.9.4-1.3 1.3-1.3h4.3c.9 0 1.3.3 1.3 1.3L23 13zm-.2-8.6H3.3c-.4 0-.7-.3-.7-.7s.3-.7.7-.7h19.5c.4 0 .6.3.6.7s-.3.7-.6.7zm-2.1-3H5.2c-.4 0-.6-.3-.6-.7s.2-.7.6-.7h15.5c.4 0 .6.3.6.7s-.2.7-.6.7z" fill="#384048"/></g><defs><filter id="icon_x2F_Utility_x2F_collection-multi-Adobe_OpacityMaskFilter" filterUnits="userSpaceOnUse" x="-11" y="-12" width="48" height="48"><feColorMatrix values="1 0 0 0 0 0 1 0 0 0 0 0 1 0 0 0 0 0 1 0"/></filter></defs><mask maskUnits="userSpaceOnUse" x="-11" y="-12" width="48" height="48" id="icon_x2F_Utility_x2F_collection-multi-mask-2"><g filter="url(#icon_x2F_Utility_x2F_collection-multi-Adobe_OpacityMaskFilter)"><path id="icon_x2F_Utility_x2F_collection-multi-path-1" d="M24.4 6H1.5C.7 6 0 6.8 0 7.6v14.7c0 .8.7 1.7 1.5 1.7h22.9c.8 0 1.6-.9 1.6-1.7V7.6c0-.8-.8-1.6-1.6-1.6zM9.1 19.5c0 .9-.4 1.2-1.3 1.2H4.2c-.9 0-1.2-.3-1.2-1.2v-9.1c0-.9.4-1.3 1.3-1.3h3.5c.9 0 1.3.3 1.3 1.3v9.1zm6.1 0c0 .9-.4 1.2-1.3 1.2h-2.8c-.9 0-1.2-.3-1.2-1.2v-2.7c0-.9.4-1.3 1.3-1.3h2.6c.9 0 1.3.3 1.3 1.3v2.7h.1zm0-6.5c0 .9-.4 1.2-1.3 1.2h-2.8c-.8 0-1.1-.2-1.1-1.2v-2.7c0-.9.4-1.3 1.3-1.3h2.6c.9 0 1.3.3 1.3 1.3V13zm7.8 6.5c0 .9-.4 1.2-1.3 1.2h-4.5c-.9 0-1.2-.3-1.2-1.2v-2.7c0-.9.4-1.3 1.3-1.3h4.3c.9 0 1.3.3 1.3 1.3l.1 2.7zm0-6.5c0 .9-.4 1.2-1.3 1.2h-4.5c-.9 0-1.2-.2-1.2-1.2v-2.7c0-.9.4-1.3 1.3-1.3h4.3c.9 0 1.3.3 1.3 1.3L23 13zm-.2-8.6H3.3c-.4 0-.7-.3-.7-.7s.3-.7.7-.7h19.5c.4 0 .6.3.6.7s-.3.7-.6.7zm-2.1-3H5.2c-.4 0-.6-.3-.6-.7s.2-.7.6-.7h15.5c.4 0 .6.3.6.7s-.2.7-.6.7z" fill="#fff"/></g></mask><g id="icon_x2F_Utility_x2F_collection-multi-Color_x2F_Grayscale_x2F_Night-Sky" mask="url(#icon_x2F_Utility_x2F_collection-multi-mask-2)"><path fill="#111" d="M0 0h48v48H0z" transform="translate(-11 -12)" id="icon_x2F_Utility_x2F_collection-multi-Swatch"/></g></g></g></g></svg>