<svg xmlns="http://www.w3.org/2000/svg" xmlns:xlink="http://www.w3.org/1999/xlink" width="32" height="32" viewBox="0 0 32 32" aria-labaria-lelledby="title-032">
  <defs>
    <path id="collection-a" d="M23.9971,2.1435541 C23.9838,1.87424893 23.9244,1.61737166 23.8268,1.38093363 C23.8129,1.3471421 23.7982,1.31376141 23.7827,1.28079155 C23.5662,0.819932554 23.2017,0.445555232 22.753,0.223188455 C22.7209,0.207268432 22.6884,0.192170087 22.6555,0.177893421 C22.4253,0.0776486297 22.1751,0.0166389921 21.913,0.002978585 C21.8756,0.00102709828 21.8379,0 21.8,0 L2.2,0 C2.1621,0 2.1244,0.00102709828 2.087,0.002978585 C0.9636,0.0616258966 0.06,0.989711899 0.0029,2.1435541 C0.001,2.18196758 0,2.22068918 0,2.25961621 L0,15.7403838 C0,15.7793108 0.001,15.8180324 0.0029,15.8564459 C0.06,17.0102881 0.9636,17.9383741 2.087,17.9970214 C2.1244,17.9989729 2.1621,18 2.2,18 L21.8,18 C21.8379,18 21.8756,17.9989729 21.913,17.9970214 C23.0364,17.9383741 23.94,17.0102881 23.9971,15.8564459 C23.999,15.8180324 24,15.7793108 24,15.7403838 L24,2.25961621 C24,2.22068918 23.999,2.18196758 23.9971,2.1435541 L23.9971,2.1435541 Z M3.2399,14.3862574 L3.2399,3.62216478 C3.2399,3.27890854 3.5108,3.00066761 3.845,3.00066761 L9.4175,3.00066761 C9.7517,3.00066761 10.0226,3.27890854 10.0226,3.62216478 L10.0226,14.3862574 C10.0226,14.7295137 9.7517,15.0077546 9.4175,15.0077546 L3.845,15.0077546 C3.5108,15.0077546 3.2399,14.7295137 3.2399,14.3862574 L3.2399,14.3862574 Z M11.0398,14.3862574 L11.0398,9.68214732 C11.0398,9.33889108 11.3107,9.06065015 11.6449,9.06065015 L14.7874,9.06065015 C15.1216,9.06065015 15.3925,9.33889108 15.3925,9.68214732 L15.3925,14.3862574 C15.3925,14.7295137 15.1216,15.0077546 14.7874,15.0077546 L11.6449,15.0077546 C11.3107,15.0077546 11.0398,14.7295137 11.0398,14.3862574 L11.0398,14.3862574 Z M16.4074,14.3862574 L16.4074,9.68214732 C16.4074,9.33889108 16.6783,9.06065015 17.0125,9.06065015 L20.155,9.06065015 C20.4892,9.06065015 20.7601,9.33889108 20.7601,9.68214732 L20.7601,14.3862574 C20.7601,14.7295137 20.4892,15.0077546 20.155,15.0077546 L17.0125,15.0077546 C16.6783,15.0077546 16.4074,14.7295137 16.4074,14.3862574 L16.4074,14.3862574 Z M20.7601,7.40209186 C20.7601,7.74524539 20.4892,8.02358902 20.155,8.02358902 L11.6449,8.02358902 C11.3107,8.02358902 11.0398,7.74524539 11.0398,7.40209186 L11.0398,3.62216478 C11.0398,3.27890854 11.3107,3.00066761 11.6449,3.00066761 L20.155,3.00066761 C20.4892,3.00066761 20.7601,3.27890854 20.7601,3.62216478 L20.7601,7.40209186 L20.7601,7.40209186 Z"/>
  </defs>
  <title id="title-032" lang="en">product collection</title>
  <g fill="none" fill-rule="evenodd" transform="translate(4 7)">
    <use fill="#384048" xlink:href="#collection-a"/>
  </g>
</svg>
