<svg id="icon_x2F_Utility_x2F_collection-Layer_1" xmlns="http://www.w3.org/2000/svg" viewBox="0 0 48 48" enable-background="new 0 0 48 48"><title>icon/Utility/collection</title><g id="icon_x2F_Utility_x2F_collection-Symbols"><g id="icon_x2F_Utility_x2F_collection"><g id="icon_x2F_Utility_x2F_collection-Icon" transform="translate(11 14)"><g id="icon_x2F_Utility_x2F_collection-Mask"><path id="icon_x2F_Utility_x2F_collection-path-1_1_" d="M26 2.4c0-.3-.1-.6-.2-.8v-.1c-.2-.5-.6-.9-1.1-1.2 0 0-.1 0-.1-.1-.3-.1-.6-.2-.9-.2H2.4h-.1C1 .1.1 1.1 0 2.4v15.2c.1 1.3 1 2.3 2.3 2.4H23.7c1.2-.1 2.2-1.1 2.3-2.4V2.5v-.1zM3.5 16V4c0-.4.3-.7.7-.7h6c.4 0 .7.3.7.7v12c0 .4-.3.7-.7.7h-6c-.4 0-.7-.3-.7-.7zm8.5 0v-5.2c0-.4.3-.7.7-.7H16c.4 0 .7.3.7.7V16c0 .4-.3.7-.7.7h-3.4c-.3 0-.6-.3-.6-.7zm5.8 0v-5.2c0-.4.3-.7.7-.7h3.4c.4 0 .7.3.7.7V16c0 .4-.3.7-.7.7h-3.4c-.4 0-.7-.3-.7-.7zm4.7-7.8c0 .4-.3.7-.7.7h-9.2c-.4 0-.7-.3-.7-.7V4c0-.4.3-.7.7-.7h9.2c.4 0 .7.3.7.7v4.2z" fill="#384048"/></g><defs><filter id="icon_x2F_Utility_x2F_collection-Adobe_OpacityMaskFilter" filterUnits="userSpaceOnUse" x="-11" y="-14" width="48" height="48"><feColorMatrix values="1 0 0 0 0 0 1 0 0 0 0 0 1 0 0 0 0 0 1 0"/></filter></defs><mask maskUnits="userSpaceOnUse" x="-11" y="-14" width="48" height="48" id="icon_x2F_Utility_x2F_collection-mask-2"><g filter="url(#icon_x2F_Utility_x2F_collection-Adobe_OpacityMaskFilter)"><path id="icon_x2F_Utility_x2F_collection-path-1" d="M26 2.4c0-.3-.1-.6-.2-.8v-.1c-.2-.5-.6-.9-1.1-1.2 0 0-.1 0-.1-.1-.3-.1-.6-.2-.9-.2H2.4h-.1C1 .1.1 1.1 0 2.4v15.2c.1 1.3 1 2.3 2.3 2.4H23.7c1.2-.1 2.2-1.1 2.3-2.4V2.5v-.1zM3.5 16V4c0-.4.3-.7.7-.7h6c.4 0 .7.3.7.7v12c0 .4-.3.7-.7.7h-6c-.4 0-.7-.3-.7-.7zm8.5 0v-5.2c0-.4.3-.7.7-.7H16c.4 0 .7.3.7.7V16c0 .4-.3.7-.7.7h-3.4c-.3 0-.6-.3-.6-.7zm5.8 0v-5.2c0-.4.3-.7.7-.7h3.4c.4 0 .7.3.7.7V16c0 .4-.3.7-.7.7h-3.4c-.4 0-.7-.3-.7-.7zm4.7-7.8c0 .4-.3.7-.7.7h-9.2c-.4 0-.7-.3-.7-.7V4c0-.4.3-.7.7-.7h9.2c.4 0 .7.3.7.7v4.2z" fill="#fff"/></g></mask><g id="icon_x2F_Utility_x2F_collection-Color_x2F_Grayscale_x2F_Night-Sky" mask="url(#icon_x2F_Utility_x2F_collection-mask-2)"><path fill="#111" d="M0 0h48v48H0z" transform="translate(-11 -14)" id="icon_x2F_Utility_x2F_collection-Swatch"/></g></g></g></g></svg>