<?xml version="1.0" encoding="UTF-8"?>
<svg width="48px" height="48px" viewBox="0 0 48 48" version="1.1" xmlns="http://www.w3.org/2000/svg" xmlns:xlink="http://www.w3.org/1999/xlink">
    <!-- Generator: Sketch 46.2 (44496) - http://www.bohemiancoding.com/sketch -->
    <title>icon/Utility/device-mobile</title>
    <desc>Created with Sketch.</desc>
    <defs>
        <path d="M17.9715789,0 L1.97368421,0.0310064625 C0.827105263,0.0310064625 -1.77635684e-15,0.956675788 -1.77635684e-15,2.1602056 L-1.77635684e-15,29.8397944 C-1.77635684e-15,31.0431911 0.827105263,31.9689935 1.97368421,31.9689935 L17.9715789,32 C19.1182895,32 20,31.0431911 20,29.8397944 L20,2.1602056 C20,0.956675788 19.1182895,0 17.9715789,0 L17.9715789,0 Z M10,29.3074946 C9.41868421,29.3074946 8.94736842,28.8308202 8.94736842,28.242895 C8.94736842,27.6549699 9.41868421,27.1782955 10,27.1782955 C10.5813158,27.1782955 11.0526316,27.6549699 11.0526316,28.242895 C11.0526316,28.8308202 10.5813158,29.3074946 10,29.3074946 L10,29.3074946 Z M16.3157895,24.6498715 C16.3157895,25.3718031 15.6252632,26.1136959 14.8684211,26.1136959 L5,26.1136959 C4.26210526,26.1136959 3.69342105,25.4708108 3.69342105,24.7245265 L3.68421053,5.08785442 C3.64815789,4.7676761 3.73513158,4.39932464 3.94736842,4.15632979 C4.19236842,3.87580781 4.60526316,3.75710495 5,3.75710495 L15,3.75710495 C15.6251316,3.75710495 16.3157895,4.30484143 16.3157895,5.08785442 L16.3157895,24.6498715 L16.3157895,24.6498715 Z" id="path-1"></path>
    </defs>
    <g id="Symbols" stroke="none" stroke-width="1" fill="none" fill-rule="evenodd">
        <g id="icon/Utility/device-mobile">
            <g id="Icon" transform="translate(14.000000, 8.000000)">
                <mask id="mask-2" fill="white">
                    <use xlink:href="#path-1"></use>
                </mask>
                <use id="Mask" fill="#384048" xlink:href="#path-1"></use>
                <g id="Color/Grayscale/Night-Sky" mask="url(#mask-2)" fill="#111111">
                    <g transform="translate(-14.000000, -8.000000)" id="Swatch">
                        <rect x="0" y="0" width="48" height="48"></rect>
                    </g>
                </g>
            </g>
        </g>
    </g>
</svg>