<svg id="icon_x2F_Utility_x2F_device-phone-Layer_1" xmlns="http://www.w3.org/2000/svg" viewBox="0 0 48 48" enable-background="new 0 0 48 48"><title>icon/Utility/device-phone</title><g id="icon_x2F_Utility_x2F_device-phone-Symbols"><g id="icon_x2F_Utility_x2F_device-phone"><g id="icon_x2F_Utility_x2F_device-phone-Icon" transform="translate(12 12)"><g id="icon_x2F_Utility_x2F_device-phone-Mask"><path id="icon_x2F_Utility_x2F_device-phone-path-1_1_" d="M11.4 7.2c3 0 5.5 2.5 5.5 5.5 0 .4-.3.7-.7.7-.4 0-.7-.3-.7-.7 0-2.3-1.8-4.1-4.1-4.1-.4 0-.7-.3-.7-.7 0-.3.3-.7.7-.7zm8.5 6.9c-.4 0-.7-.3-.7-.7 0-2.3-.9-4.4-2.5-6-1.6-1.6-3.8-2.5-6.1-2.5-.4 0-.7-.3-.7-.7 0-.4.3-.7.7-.7 2.7 0 5.2 1 7 2.9 1.9 1.9 2.9 4.3 2.9 7 .1.4-.3.7-.6.7zM9.9 0C17.7 0 24 6.3 24 14.1c0 .4-.3.7-.7.7s-.7-.3-.7-.7c0-7-5.7-12.7-12.7-12.7-.4 0-.7-.3-.7-.7s.3-.7.7-.7zm11.2 18.9c.4.3.6.7.6 1.2s-.2.9-.6 1.2C19.7 22.6 18 24 16.2 24c-2.3 0-5.9-.6-10.8-5.5C1.3 14.4-.4 11.1.1 7.8c.2-1.7 1.2-3.7 1.6-4.5.3-.6.9-1 1.6-1 .5 0 .9.3 1.2.5l.1.1L7.8 6c.6.5.9 1.2.9 2 0 .7-.3 1.4-.7 1.9L7 11c.4.7 1.1 1.9 2.4 3.2 1.4 1.4 2.8 2.3 3.5 2.7l1.5-1.3c.4-.4.9-.6 1.5-.6.5 0 1.1.2 1.5.6l3.7 3.3z" fill="#384048"/></g><defs><filter id="icon_x2F_Utility_x2F_device-phone-Adobe_OpacityMaskFilter" filterUnits="userSpaceOnUse" x="-12" y="-12" width="48" height="48"><feColorMatrix values="1 0 0 0 0 0 1 0 0 0 0 0 1 0 0 0 0 0 1 0"/></filter></defs><mask maskUnits="userSpaceOnUse" x="-12" y="-12" width="48" height="48" id="icon_x2F_Utility_x2F_device-phone-mask-2"><g filter="url(#icon_x2F_Utility_x2F_device-phone-Adobe_OpacityMaskFilter)"><path id="icon_x2F_Utility_x2F_device-phone-path-1" d="M11.4 7.2c3 0 5.5 2.5 5.5 5.5 0 .4-.3.7-.7.7-.4 0-.7-.3-.7-.7 0-2.3-1.8-4.1-4.1-4.1-.4 0-.7-.3-.7-.7 0-.3.3-.7.7-.7zm8.5 6.9c-.4 0-.7-.3-.7-.7 0-2.3-.9-4.4-2.5-6-1.6-1.6-3.8-2.5-6.1-2.5-.4 0-.7-.3-.7-.7 0-.4.3-.7.7-.7 2.7 0 5.2 1 7 2.9 1.9 1.9 2.9 4.3 2.9 7 .1.4-.3.7-.6.7zM9.9 0C17.7 0 24 6.3 24 14.1c0 .4-.3.7-.7.7s-.7-.3-.7-.7c0-7-5.7-12.7-12.7-12.7-.4 0-.7-.3-.7-.7s.3-.7.7-.7zm11.2 18.9c.4.3.6.7.6 1.2s-.2.9-.6 1.2C19.7 22.6 18 24 16.2 24c-2.3 0-5.9-.6-10.8-5.5C1.3 14.4-.4 11.1.1 7.8c.2-1.7 1.2-3.7 1.6-4.5.3-.6.9-1 1.6-1 .5 0 .9.3 1.2.5l.1.1L7.8 6c.6.5.9 1.2.9 2 0 .7-.3 1.4-.7 1.9L7 11c.4.7 1.1 1.9 2.4 3.2 1.4 1.4 2.8 2.3 3.5 2.7l1.5-1.3c.4-.4.9-.6 1.5-.6.5 0 1.1.2 1.5.6l3.7 3.3z" fill="#fff"/></g></mask><g id="icon_x2F_Utility_x2F_device-phone-Color_x2F_Grayscale_x2F_Night-Sky" mask="url(#icon_x2F_Utility_x2F_device-phone-mask-2)"><path fill="#111" d="M0 0h48v48H0z" transform="translate(-12 -12)" id="icon_x2F_Utility_x2F_device-phone-Swatch"/></g></g></g></g></svg>