<?xml version="1.0" encoding="utf-8"?>
<!-- Generator: Adobe Illustrator 21.0.2, SVG Export Plug-In . SVG Version: 6.00 Build 0)  -->
<svg version="1.1" id="icon_x2F_Utility_x2F_device-phone-Layer_1" xmlns="http://www.w3.org/2000/svg" xmlns:xlink="http://www.w3.org/1999/xlink" x="0px" y="0px"
	 viewBox="0 0 48 48" style="enable-background:new 0 0 48 48;" xml:space="preserve">
<title>icon/Utility/device-phone</title>
<desc>Created with Sketch.</desc>
<g id="icon_x2F_Utility_x2F_device-phone-Symbols">
	<g id="icon_x2F_Utility_x2F_device-phone">
		<g id="icon_x2F_Utility_x2F_device-phone-Icon" transform="translate(12.000000, 12.000000)">
			<g id="icon_x2F_Utility_x2F_device-phone-Mask">
				<path id="icon_x2F_Utility_x2F_device-phone-path-1_1_" style="fill:#384048;" d="M11.4,7.2c3,0,5.5,2.5,5.5,5.5c0,0.4-0.3,0.7-0.7,0.7c-0.4,0-0.7-0.3-0.7-0.7
					c0-2.3-1.8-4.1-4.1-4.1c-0.4,0-0.7-0.3-0.7-0.7C10.7,7.6,11,7.2,11.4,7.2z M19.9,14.1c-0.4,0-0.7-0.3-0.7-0.7
					c0-2.3-0.9-4.4-2.5-6c-1.6-1.6-3.8-2.5-6.1-2.5c-0.4,0-0.7-0.3-0.7-0.7c0-0.4,0.3-0.7,0.7-0.7c2.7,0,5.2,1,7,2.9
					c1.9,1.9,2.9,4.3,2.9,7C20.6,13.8,20.2,14.1,19.9,14.1z M9.9,0C17.7,0,24,6.3,24,14.1c0,0.4-0.3,0.7-0.7,0.7s-0.7-0.3-0.7-0.7
					c0-7-5.7-12.7-12.7-12.7c-0.4,0-0.7-0.3-0.7-0.7S9.5,0,9.9,0z M21.1,18.9c0.4,0.3,0.6,0.7,0.6,1.2c0,0.5-0.2,0.9-0.6,1.2l0,0
					C19.7,22.6,18,24,16.2,24c-2.3,0-5.9-0.6-10.8-5.5c-4.1-4.1-5.8-7.4-5.3-10.7c0.2-1.7,1.2-3.7,1.6-4.5c0.3-0.6,0.9-1,1.6-1
					c0.5,0,0.9,0.3,1.2,0.5l0.1,0.1l3.2,3.1c0.6,0.5,0.9,1.2,0.9,2c0,0.7-0.3,1.4-0.7,1.9l-1,1.1c0.4,0.7,1.1,1.9,2.4,3.2
					c1.4,1.4,2.8,2.3,3.5,2.7l1.5-1.3c0.4-0.4,0.9-0.6,1.5-0.6c0.5,0,1.1,0.2,1.5,0.6L21.1,18.9z"/>
			</g>
			<defs>
				<filter id="icon_x2F_Utility_x2F_device-phone-Adobe_OpacityMaskFilter" filterUnits="userSpaceOnUse" x="-12" y="-12" width="48" height="48">
					<feColorMatrix  type="matrix" values="1 0 0 0 0  0 1 0 0 0  0 0 1 0 0  0 0 0 1 0"/>
				</filter>
			</defs>
			<mask maskUnits="userSpaceOnUse" x="-12" y="-12" width="48" height="48" id="icon_x2F_Utility_x2F_device-phone-mask-2">
				<g style="filter:url(#icon_x2F_Utility_x2F_device-phone-Adobe_OpacityMaskFilter);">
					<path id="icon_x2F_Utility_x2F_device-phone-path-1" style="fill:#FFFFFF;" d="M11.4,7.2c3,0,5.5,2.5,5.5,5.5c0,0.4-0.3,0.7-0.7,0.7c-0.4,0-0.7-0.3-0.7-0.7
						c0-2.3-1.8-4.1-4.1-4.1c-0.4,0-0.7-0.3-0.7-0.7C10.7,7.6,11,7.2,11.4,7.2z M19.9,14.1c-0.4,0-0.7-0.3-0.7-0.7
						c0-2.3-0.9-4.4-2.5-6c-1.6-1.6-3.8-2.5-6.1-2.5c-0.4,0-0.7-0.3-0.7-0.7c0-0.4,0.3-0.7,0.7-0.7c2.7,0,5.2,1,7,2.9
						c1.9,1.9,2.9,4.3,2.9,7C20.6,13.8,20.2,14.1,19.9,14.1z M9.9,0C17.7,0,24,6.3,24,14.1c0,0.4-0.3,0.7-0.7,0.7s-0.7-0.3-0.7-0.7
						c0-7-5.7-12.7-12.7-12.7c-0.4,0-0.7-0.3-0.7-0.7S9.5,0,9.9,0z M21.1,18.9c0.4,0.3,0.6,0.7,0.6,1.2c0,0.5-0.2,0.9-0.6,1.2l0,0
						C19.7,22.6,18,24,16.2,24c-2.3,0-5.9-0.6-10.8-5.5c-4.1-4.1-5.8-7.4-5.3-10.7c0.2-1.7,1.2-3.7,1.6-4.5c0.3-0.6,0.9-1,1.6-1
						c0.5,0,0.9,0.3,1.2,0.5l0.1,0.1l3.2,3.1c0.6,0.5,0.9,1.2,0.9,2c0,0.7-0.3,1.4-0.7,1.9l-1,1.1c0.4,0.7,1.1,1.9,2.4,3.2
						c1.4,1.4,2.8,2.3,3.5,2.7l1.5-1.3c0.4-0.4,0.9-0.6,1.5-0.6c0.5,0,1.1,0.2,1.5,0.6L21.1,18.9z"/>
				</g>
			</mask>
			<g id="icon_x2F_Utility_x2F_device-phone-Color_x2F_Grayscale_x2F_Night-Sky" style="mask:url(#icon_x2F_Utility_x2F_device-phone-mask-2);">
				<g id="icon_x2F_Utility_x2F_device-phone-Swatch" transform="translate(-12.000000, -12.000000)">
					<rect style="fill:#111111;" width="48" height="48"/>
				</g>
			</g>
		</g>
	</g>
</g>
</svg>
