<?xml version="1.0" encoding="utf-8"?>
<svg version="1.1" id="icon_x2F_Utility_x2F_device-phone-Layer_1"
	 xmlns="http://www.w3.org/2000/svg" xmlns:xlink="http://www.w3.org/1999/xlink" x="0px" y="0px" viewBox="0 0 48 48"
	 style="enable-background:new 0 0 48 48;" xml:space="preserve">
<path id="icon_x2F_Utility_x2F_device-phone-path-1_1_" style="fill:#111111;" d="M23.4,19.2c3,0,5.5,2.5,5.5,5.5
	c0,0.4-0.3,0.7-0.7,0.7c-0.4,0-0.7-0.3-0.7-0.7c0-2.3-1.8-4.1-4.1-4.1c-0.4,0-0.7-0.3-0.7-0.7C22.7,19.6,23,19.2,23.4,19.2z
	 M31.9,26.1c-0.4,0-0.7-0.3-0.7-0.7c0-2.3-0.9-4.4-2.5-6c-1.6-1.6-3.8-2.5-6.1-2.5c-0.4,0-0.7-0.3-0.7-0.7s0.3-0.7,0.7-0.7
	c2.7,0,5.2,1,7,2.9c1.9,1.9,2.9,4.3,2.9,7C32.6,25.8,32.2,26.1,31.9,26.1z M21.9,12C29.7,12,36,18.3,36,26.1c0,0.4-0.3,0.7-0.7,0.7
	s-0.7-0.3-0.7-0.7c0-7-5.7-12.7-12.7-12.7c-0.4,0-0.7-0.3-0.7-0.7C21.2,12.3,21.5,12,21.9,12z M33.1,30.9c0.4,0.3,0.6,0.7,0.6,1.2
	c0,0.5-0.2,0.9-0.6,1.2C31.7,34.6,30,36,28.2,36c-2.3,0-5.9-0.6-10.8-5.5c-4.1-4.1-5.8-7.4-5.3-10.7c0.2-1.7,1.2-3.7,1.6-4.5
	c0.3-0.6,0.9-1,1.6-1c0.5,0,0.9,0.3,1.2,0.5l0.1,0.1l3.2,3.1c0.6,0.5,0.9,1.2,0.9,2c0,0.7-0.3,1.4-0.7,1.9L19,23
	c0.4,0.7,1.1,1.9,2.4,3.2c1.4,1.4,2.8,2.3,3.5,2.7l1.5-1.3c0.4-0.4,0.9-0.6,1.5-0.6c0.5,0,1.1,0.2,1.5,0.6
	C29.4,27.6,33.1,30.9,33.1,30.9z"/>
</svg>
