<svg id="icon_x2F_Utility_x2F_location-pin-Layer_1" xmlns="http://www.w3.org/2000/svg" viewBox="0 0 48 48" enable-background="new 0 0 48 48"><title>icon/Utility/location-pin</title><g id="icon_x2F_Utility_x2F_location-pin-Symbols"><g id="icon_x2F_Utility_x2F_location-pin"><g id="icon_x2F_Utility_x2F_location-pin-Icon" transform="translate(15 11)"><g id="icon_x2F_Utility_x2F_location-pin-Mask"><path id="icon_x2F_Utility_x2F_location-pin-path-1_1_" d="M9 0c5 0 9 4.1 9 10.1S9 26 9 26s-9-9.9-9-15.9S4 0 9 0zm0 14.5c2.7 0 4.9-2.3 4.9-5.2S11.7 4.1 9 4.1 4.1 6.4 4.1 9.3s2.2 5.2 4.9 5.2z" fill="#384048"/></g><defs><filter id="icon_x2F_Utility_x2F_location-pin-Adobe_OpacityMaskFilter" filterUnits="userSpaceOnUse" x="-15" y="-11" width="48" height="48"><feColorMatrix values="1 0 0 0 0 0 1 0 0 0 0 0 1 0 0 0 0 0 1 0"/></filter></defs><mask maskUnits="userSpaceOnUse" x="-15" y="-11" width="48" height="48" id="icon_x2F_Utility_x2F_location-pin-mask-2"><g filter="url(#icon_x2F_Utility_x2F_location-pin-Adobe_OpacityMaskFilter)"><path id="icon_x2F_Utility_x2F_location-pin-path-1" d="M9 0c5 0 9 4.1 9 10.1S9 26 9 26s-9-9.9-9-15.9S4 0 9 0zm0 14.5c2.7 0 4.9-2.3 4.9-5.2S11.7 4.1 9 4.1 4.1 6.4 4.1 9.3s2.2 5.2 4.9 5.2z" fill="#fff"/></g></mask><g id="icon_x2F_Utility_x2F_location-pin-Color_x2F_Grayscale_x2F_Night-Sky" mask="url(#icon_x2F_Utility_x2F_location-pin-mask-2)"><path fill="#111" d="M0 0h48v48H0z" transform="translate(-15 -11)" id="icon_x2F_Utility_x2F_location-pin-Swatch"/></g></g></g></g></svg>