<svg id="icon_x2F_Utility_x2F_piggy-bank-Layer_1" xmlns="http://www.w3.org/2000/svg" viewBox="0 0 48 48" enable-background="new 0 0 48 48"><title>icon/Utility/piggy-bank</title><g id="icon_x2F_Utility_x2F_piggy-bank-Symbols"><g id="icon_x2F_Utility_x2F_piggy-bank"><g id="icon_x2F_Utility_x2F_piggy-bank-Icon" transform="translate(11 12)"><g id="icon_x2F_Utility_x2F_piggy-bank-Mask"><path id="icon_x2F_Utility_x2F_piggy-bank-path-1_1_" d="M8.3 5.4v-.6c0-2.6 2-4.8 4.5-4.8s4.5 2.1 4.5 4.8v.5h-.1c-.3-.1-.6-.2-1-.3h-.1v-.1-.1-.1c0-2-1.5-3.6-3.4-3.6S9.4 2.8 9.4 4.8V5.1h-.1c-.3 0-.6.1-1 .3zM26 10.5c.1.7-.3 1.4-1 1.7-.2.1-.5.2-.7.2-.4 0-.7-.1-1-.4-.3-.3-.5-.7-.6-1.1-.1.1-.2.1-.3.2.4.8.6 1.6.6 2.3 0 3.9-2.5 5.8-2.5 5.8-.2.2-.5.5-.6.7l-1.6 3.6c0 .3-.3.5-.6.5h-2.6c-.3 0-.4-.2-.4-.5v-1.3c0-.3-.3-.6-.5-.6h-3.4c-.3 0-.5.3-.5.6v1.1c0 .3-.2.5-.5.5H7.5c-.3 0-.6-.2-.7-.4L5 19.7c0-.1-.3-.5-.4-.7L3 16.9c-.1-.3-.4-.5-.6-.5H.5c-.3 0-.5-.2-.5-.5v-4.6c0-.3.2-.5.5-.5h1.7c.3 0 .6-.2.7-.5 0 0 .9-2.2 2.2-2.8l-.5-1.7c-.1-.3.1-.6.3-.6l3.1.9c.3.1.5-.1.8-.2 0 0 4.5-2.4 9.4.7 1.6 1 2.8 2.2 3.6 3.3.1-.1.2-.2.4-.2.2-.1.4-.2.6-.4v-.1c.4-1.3 1.1-1.9 2.5-2 .4 0 .7.2.7.6 0 .4-.2.7-.6.7-.4 0-.7.1-.9.3h.2c.7.3 1.2.9 1.3 1.7zm-8.3-.4c.2-.3.1-.7-.2-.9-2.6-1.6-6.4-1.6-9.3 0-.3.2-.4.6-.3.9.1.2.3.4.6.4.1 0 .2 0 .3-.1 2.5-1.4 5.8-1.4 8 0 .3.1.7 0 .9-.3z" fill="#384048"/></g><defs><filter id="icon_x2F_Utility_x2F_piggy-bank-Adobe_OpacityMaskFilter" filterUnits="userSpaceOnUse" x="-11" y="-12" width="48" height="48"><feColorMatrix values="1 0 0 0 0 0 1 0 0 0 0 0 1 0 0 0 0 0 1 0"/></filter></defs><mask maskUnits="userSpaceOnUse" x="-11" y="-12" width="48" height="48" id="icon_x2F_Utility_x2F_piggy-bank-mask-2"><g filter="url(#icon_x2F_Utility_x2F_piggy-bank-Adobe_OpacityMaskFilter)"><path id="icon_x2F_Utility_x2F_piggy-bank-path-1" d="M8.3 5.4v-.6c0-2.6 2-4.8 4.5-4.8s4.5 2.1 4.5 4.8v.5h-.1c-.3-.1-.6-.2-1-.3h-.1v-.1-.1-.1c0-2-1.5-3.6-3.4-3.6S9.4 2.8 9.4 4.8V5.1h-.1c-.3 0-.6.1-1 .3zM26 10.5c.1.7-.3 1.4-1 1.7-.2.1-.5.2-.7.2-.4 0-.7-.1-1-.4-.3-.3-.5-.7-.6-1.1-.1.1-.2.1-.3.2.4.8.6 1.6.6 2.3 0 3.9-2.5 5.8-2.5 5.8-.2.2-.5.5-.6.7l-1.6 3.6c0 .3-.3.5-.6.5h-2.6c-.3 0-.4-.2-.4-.5v-1.3c0-.3-.3-.6-.5-.6h-3.4c-.3 0-.5.3-.5.6v1.1c0 .3-.2.5-.5.5H7.5c-.3 0-.6-.2-.7-.4L5 19.7c0-.1-.3-.5-.4-.7L3 16.9c-.1-.3-.4-.5-.6-.5H.5c-.3 0-.5-.2-.5-.5v-4.6c0-.3.2-.5.5-.5h1.7c.3 0 .6-.2.7-.5 0 0 .9-2.2 2.2-2.8l-.5-1.7c-.1-.3.1-.6.3-.6l3.1.9c.3.1.5-.1.8-.2 0 0 4.5-2.4 9.4.7 1.6 1 2.8 2.2 3.6 3.3.1-.1.2-.2.4-.2.2-.1.4-.2.6-.4v-.1c.4-1.3 1.1-1.9 2.5-2 .4 0 .7.2.7.6 0 .4-.2.7-.6.7-.4 0-.7.1-.9.3h.2c.7.3 1.2.9 1.3 1.7zm-8.3-.4c.2-.3.1-.7-.2-.9-2.6-1.6-6.4-1.6-9.3 0-.3.2-.4.6-.3.9.1.2.3.4.6.4.1 0 .2 0 .3-.1 2.5-1.4 5.8-1.4 8 0 .3.1.7 0 .9-.3z" fill="#fff"/></g></mask><g id="icon_x2F_Utility_x2F_piggy-bank-Color_x2F_Grayscale_x2F_Night-Sky" mask="url(#icon_x2F_Utility_x2F_piggy-bank-mask-2)"><path fill="#111" d="M0 0h48v48H0z" transform="translate(-11 -12)" id="icon_x2F_Utility_x2F_piggy-bank-Swatch"/></g></g></g></g></svg>