<?xml version="1.0" encoding="utf-8"?>
<!-- Generator: Adobe Illustrator 21.0.2, SVG Export Plug-In . SVG Version: 6.00 Build 0)  -->
<svg version="1.1" id="icon_x2F_Utility_x2F_recycle-Layer_1" xmlns="http://www.w3.org/2000/svg" xmlns:xlink="http://www.w3.org/1999/xlink" x="0px" y="0px"
	 viewBox="0 0 48 48" style="enable-background:new 0 0 48 48;" xml:space="preserve">
<title>icon/Utility/recycle</title>
<desc>Created with Sketch.</desc>
<g id="icon_x2F_Utility_x2F_recycle-Symbols">
	<g id="icon_x2F_Utility_x2F_recycle">
		<g id="icon_x2F_Utility_x2F_recycle-Icon" transform="translate(12.000000, 12.000000)">
			<g id="icon_x2F_Utility_x2F_recycle-Mask">
				<path id="icon_x2F_Utility_x2F_recycle-path-1_1_" style="fill:#333333;" d="M14.9,6.7L16,7.1l-2.8-4.9c-0.3-0.4-0.7-0.7-1.2-0.7c-0.5,0-1,0.3-1.2,0.7
					L7.2,8.4C7.1,8.6,6.8,8.8,6.6,8.8c-0.1,0-0.2,0-0.3-0.1C5.9,8.5,5.8,8,6,7.7l3.6-6.3C10,0.5,11,0,12,0c1,0,1.9,0.5,2.4,1.4
					l2.8,4.9l0.3-1.1c0.1-0.4,0.5-0.6,0.9-0.5c0.4,0.1,0.6,0.5,0.5,0.9l-0.8,2.8c0,0.2-0.2,0.3-0.3,0.4c-0.1,0.1-0.2,0.1-0.3,0.1
					c-0.1,0-0.1,0-0.2,0l-2.7-0.8C14.1,8,13.9,7.6,14,7.2C14.1,6.9,14.5,6.6,14.9,6.7z M23.6,17.7c0.5,0.9,0.5,2,0,2.9
					c-0.5,0.9-1.4,1.4-2.4,1.4h0l-5.6,0l0.8,0.8c0.3,0.3,0.3,0.7,0,1c-0.1,0.1-0.3,0.2-0.5,0.2c-0.2,0-0.4-0.1-0.5-0.2l-2-2.1
					c-0.1-0.1-0.2-0.3-0.2-0.5c0-0.2,0.1-0.4,0.2-0.5l2-2c0.3-0.3,0.7-0.3,1,0c0.3,0.3,0.3,0.7,0,1l-0.8,0.8l5.6,0h0
					c0.5,0,1-0.3,1.2-0.7c0.3-0.4,0.3-1,0-1.4l-3.6-6.3c-0.2-0.3-0.1-0.8,0.3-1c0.3-0.2,0.8-0.1,0.9,0.3L23.6,17.7z M9.9,20.7
					c0.4,0,0.7,0.3,0.7,0.7c0,0.4-0.3,0.7-0.7,0.7h0l-7.1,0c-1,0-1.9-0.5-2.4-1.4c-0.5-0.9-0.5-2,0-2.9l2.8-4.9l-1.1,0.3
					c-0.4,0.1-0.8-0.1-0.8-0.5c-0.1-0.4,0.1-0.8,0.5-0.9l2.7-0.7c0.2,0,0.4,0,0.5,0.1c0.2,0.1,0.3,0.3,0.3,0.4L6,14.4
					c0.1,0.4-0.1,0.8-0.5,0.9c-0.1,0-0.1,0-0.2,0c-0.3,0-0.6-0.2-0.7-0.5l-0.3-1.1l-2.8,4.9c-0.3,0.4-0.3,1,0,1.4s0.7,0.7,1.2,0.7
					L9.9,20.7z"/>
			</g>
			<defs>
				<filter id="icon_x2F_Utility_x2F_recycle-Adobe_OpacityMaskFilter" filterUnits="userSpaceOnUse" x="-12" y="-12" width="48" height="48">
					<feColorMatrix  type="matrix" values="1 0 0 0 0  0 1 0 0 0  0 0 1 0 0  0 0 0 1 0"/>
				</filter>
			</defs>
			<mask maskUnits="userSpaceOnUse" x="-12" y="-12" width="48" height="48" id="icon_x2F_Utility_x2F_recycle-mask-2">
				<g style="filter:url(#icon_x2F_Utility_x2F_recycle-Adobe_OpacityMaskFilter);">
					<path id="icon_x2F_Utility_x2F_recycle-path-1" style="fill:#FFFFFF;" d="M14.9,6.7L16,7.1l-2.8-4.9c-0.3-0.4-0.7-0.7-1.2-0.7c-0.5,0-1,0.3-1.2,0.7L7.2,8.4
						C7.1,8.6,6.8,8.8,6.6,8.8c-0.1,0-0.2,0-0.3-0.1C5.9,8.5,5.8,8,6,7.7l3.6-6.3C10,0.5,11,0,12,0c1,0,1.9,0.5,2.4,1.4l2.8,4.9
						l0.3-1.1c0.1-0.4,0.5-0.6,0.9-0.5c0.4,0.1,0.6,0.5,0.5,0.9l-0.8,2.8c0,0.2-0.2,0.3-0.3,0.4c-0.1,0.1-0.2,0.1-0.3,0.1
						c-0.1,0-0.1,0-0.2,0l-2.7-0.8C14.1,8,13.9,7.6,14,7.2C14.1,6.9,14.5,6.6,14.9,6.7z M23.6,17.7c0.5,0.9,0.5,2,0,2.9
						c-0.5,0.9-1.4,1.4-2.4,1.4h0l-5.6,0l0.8,0.8c0.3,0.3,0.3,0.7,0,1c-0.1,0.1-0.3,0.2-0.5,0.2c-0.2,0-0.4-0.1-0.5-0.2l-2-2.1
						c-0.1-0.1-0.2-0.3-0.2-0.5c0-0.2,0.1-0.4,0.2-0.5l2-2c0.3-0.3,0.7-0.3,1,0c0.3,0.3,0.3,0.7,0,1l-0.8,0.8l5.6,0h0
						c0.5,0,1-0.3,1.2-0.7c0.3-0.4,0.3-1,0-1.4l-3.6-6.3c-0.2-0.3-0.1-0.8,0.3-1c0.3-0.2,0.8-0.1,0.9,0.3L23.6,17.7z M9.9,20.7
						c0.4,0,0.7,0.3,0.7,0.7c0,0.4-0.3,0.7-0.7,0.7h0l-7.1,0c-1,0-1.9-0.5-2.4-1.4c-0.5-0.9-0.5-2,0-2.9l2.8-4.9l-1.1,0.3
						c-0.4,0.1-0.8-0.1-0.8-0.5c-0.1-0.4,0.1-0.8,0.5-0.9l2.7-0.7c0.2,0,0.4,0,0.5,0.1c0.2,0.1,0.3,0.3,0.3,0.4L6,14.4
						c0.1,0.4-0.1,0.8-0.5,0.9c-0.1,0-0.1,0-0.2,0c-0.3,0-0.6-0.2-0.7-0.5l-0.3-1.1l-2.8,4.9c-0.3,0.4-0.3,1,0,1.4s0.7,0.7,1.2,0.7
						L9.9,20.7z"/>
				</g>
			</mask>
			<g id="icon_x2F_Utility_x2F_recycle-Color_x2F_Grayscale_x2F_Night-Sky" style="mask:url(#icon_x2F_Utility_x2F_recycle-mask-2);">
				<g id="icon_x2F_Utility_x2F_recycle-Swatch" transform="translate(-12.000000, -12.000000)">
					<rect style="fill:#111111;" width="48" height="48"/>
				</g>
			</g>
		</g>
	</g>
</g>
</svg>
