<?xml version="1.0" encoding="utf-8"?>
<svg version="1.1" id="icon_x2F_Utility_x2F_recycle-Layer_1"
	 xmlns="http://www.w3.org/2000/svg" xmlns:xlink="http://www.w3.org/1999/xlink" x="0px" y="0px" viewBox="0 0 48 48"
	 style="enable-background:new 0 0 48 48;" xml:space="preserve">
<path id="icon_x2F_Utility_x2F_recycle-path-1_1_" style="fill:#333333;" d="M26.9,18.7l1.1,0.4l-2.8-4.9c-0.3-0.4-0.7-0.7-1.2-0.7
	s-1,0.3-1.2,0.7l-3.6,6.2c-0.1,0.2-0.4,0.4-0.6,0.4c-0.1,0-0.2,0-0.3-0.1c-0.4-0.2-0.5-0.7-0.3-1l3.6-6.3C22,12.5,23,12,24,12
	s1.9,0.5,2.4,1.4l2.8,4.9l0.3-1.1c0.1-0.4,0.5-0.6,0.9-0.5c0.4,0.1,0.6,0.5,0.5,0.9l-0.8,2.8c0,0.2-0.2,0.3-0.3,0.4
	c-0.1,0.1-0.2,0.1-0.3,0.1h-0.2l-2.7-0.8c-0.5-0.1-0.7-0.5-0.6-0.9C26.1,18.9,26.5,18.6,26.9,18.7z M35.6,29.7c0.5,0.9,0.5,2,0,2.9
	c-0.5,0.9-1.4,1.4-2.4,1.4h-5.6l0.8,0.8c0.3,0.3,0.3,0.7,0,1c-0.1,0.1-0.3,0.2-0.5,0.2s-0.4-0.1-0.5-0.2l-2-2.1
	c-0.1-0.1-0.2-0.3-0.2-0.5c0-0.2,0.1-0.4,0.2-0.5l2-2c0.3-0.3,0.7-0.3,1,0s0.3,0.7,0,1l-0.8,0.8h5.6c0.5,0,1-0.3,1.2-0.7
	c0.3-0.4,0.3-1,0-1.4l-3.6-6.3c-0.2-0.3-0.1-0.8,0.3-1c0.3-0.2,0.8-0.1,0.9,0.3C32,23.4,35.6,29.7,35.6,29.7z M21.9,32.7
	c0.4,0,0.7,0.3,0.7,0.7s-0.3,0.7-0.7,0.7h-7.1c-1,0-1.9-0.5-2.4-1.4c-0.5-0.9-0.5-2,0-2.9l2.8-4.9l-1.1,0.3
	c-0.4,0.1-0.8-0.1-0.8-0.5c-0.1-0.4,0.1-0.8,0.5-0.9l2.7-0.7c0.2,0,0.4,0,0.5,0.1c0.2,0.1,0.3,0.3,0.3,0.4l0.7,2.8
	c0.1,0.4-0.1,0.8-0.5,0.9h-0.2c-0.3,0-0.6-0.2-0.7-0.5l-0.3-1.1l-2.8,4.9c-0.3,0.4-0.3,1,0,1.4c0.3,0.4,0.7,0.7,1.2,0.7
	C14.7,32.7,21.9,32.7,21.9,32.7z"/>
</svg>
