<svg xmlns="http://www.w3.org/2000/svg" width="32" height="32" viewBox="0 0 32 32">
  <path fill="#111" fill-rule="evenodd" d="M12,0 C18.6274615,0 24,5.37253846 24,12 C24,18.6274615 18.6274615,24 12,24 C5.37253846,24 0,18.6274615 0,12 C0,5.37253846 5.37253846,0 12,0 Z M12,23 C18.0654239,23 23,18.0654239 23,12 C23,5.93457609 18.0654239,1 12,1 C5.93457609,1 1,5.93457609 1,12 C1,18.0654239 5.93457609,23 12,23 Z M12.8281517,11.436169 C15.1941692,11.9813233 16.2890331,12.8842956 16.2890331,14.5439016 L16.2890331,14.5757886 C16.2890331,16.3800251 14.8606081,17.5866074 12.8281517,17.7125612 L12.8281517,18.3167065 C12.8281517,18.6941123 12.5221501,19 12.1448582,19 C11.7675663,19 11.4615647,18.6941123 11.4615647,18.3167065 L11.4615647,17.6530008 C10.2670539,17.4827468 9.21842615,17.0040998 8.23949436,16.2294727 C8.09577497,16.1339255 8,15.9590024 8,15.75242 C8,15.4025737 8.27149527,15.1323312 8.60687849,15.1323312 C8.7665414,15.1323312 8.91037467,15.1959913 8.99020613,15.2753673 C9.76517481,15.9300763 10.540599,16.334586 11.4615647,16.5033595 L11.4615647,12.4033709 C9.33595262,11.84717 8.35132673,11.0128687 8.35132673,9.34426603 L8.35132673,9.31249288 C8.35132673,7.72212732 9.63238811,6.51326728 11.4615647,6.30691265 L11.4615647,5.68329347 C11.4615647,5.30588771 11.7675663,5 12.1448582,5 C12.5221501,5 12.8281517,5.30588771 12.8281517,5.68329347 L12.8281517,6.31602323 C13.9024029,6.42933607 14.760164,6.78134609 15.5863797,7.37250883 C15.7140417,7.46794215 15.8953422,7.61633071 15.8953422,7.85480014 C15.8953422,8.18870288 15.5863797,8.4855939 15.2509965,8.4855939 C15.1071632,8.4855939 14.9954447,8.45382075 14.8834985,8.37433094 C14.2020271,7.87974035 13.5368409,7.59400979 12.8281517,7.47329461 L12.8281517,11.436169 Z M9.61302813,9.23288919 C9.61302813,10.087006 9.99407812,10.6356907 11.4615647,11.0932696 L11.4615647,7.44254641 C10.3176176,7.61166154 9.61302813,8.32752534 9.61302813,9.20111605 L9.61302813,9.23288919 Z M15.0115021,14.7029951 L15.0115021,14.671222 C15.0115021,13.7536727 14.5697529,13.1869946 12.8281517,12.7265687 L12.8281517,16.5826216 C14.1549937,16.4810386 15.0115021,15.7230384 15.0115021,14.7029951 Z" transform="translate(4 4)"/>
</svg>
