<?xml version="1.0" encoding="utf-8"?>
<!-- Generator: Adobe Illustrator 21.0.2, SVG Export Plug-In . SVG Version: 6.00 Build 0)  -->
<svg version="1.1" id="icon_x2F_Utility_x2F_ribbon-Layer_1" xmlns="http://www.w3.org/2000/svg" xmlns:xlink="http://www.w3.org/1999/xlink" x="0px" y="0px"
	 viewBox="0 0 48 48" style="enable-background:new 0 0 48 48;" xml:space="preserve">
<title>icon/Utility/ribbon</title>
<desc>Created with Sketch.</desc>
<g id="icon_x2F_Utility_x2F_ribbon-Symbols">
	<g id="icon_x2F_Utility_x2F_ribbon">
		<g id="icon_x2F_Utility_x2F_ribbon-Icon" transform="translate(14.000000, 11.000000)">
			<g id="icon_x2F_Utility_x2F_ribbon-Mask">
				<path id="icon_x2F_Utility_x2F_ribbon-path-1_1_" style="fill:#333333;" d="M19.4,8.4c0.9,1.3,0.7,2.5-0.3,3.6c-0.6,0.6-0.9,1.1-0.9,1.7c0,0.1,0,0.2,0,0.3
					c-0.1,1.3-0.7,2-2,2.4c0,0,0,0.1,0,0.1c0.2,0.8,0.4,1.4,0.6,1.9c0.4,1.5,0.6,1.9,1.4,4.3c0.1,0.2,0,0.5-0.2,0.7
					c-0.2,0.2-0.5,0.2-0.7,0.1c-0.1,0-0.3-0.1-0.5-0.2c-0.6-0.2-1.6-0.6-2.1-0.8c-0.1,0-0.1,0-0.2,0c-0.3,0-0.5,0.4-0.6,0.6
					c-0.3,0.4-0.5,0.8-0.7,1.2c-0.2,0.4-0.5,0.9-0.9,1.5c-0.1,0.2-0.4,0.3-0.6,0.3c-0.3,0-0.5-0.2-0.5-0.5c-0.4-1.3-0.8-2.6-1.2-3.7
					c-0.1,0.3-0.1,0.5-0.2,0.7c-0.2,0.8-0.4,1.6-0.8,2.9c-0.1,0.3-0.3,0.4-0.5,0.5c0,0-0.1,0-0.1,0c-0.2,0-0.4-0.1-0.6-0.3
					c-0.4-0.7-0.7-1.2-1-1.7c-0.2-0.3-0.4-0.7-0.6-1c-0.1-0.1-0.3-0.5-0.6-0.5c-0.1,0-0.2,0-0.2,0.1c-0.4,0.2-1.1,0.4-1.8,0.6
					c-0.3,0.1-0.7,0.2-0.8,0.3c-0.2,0.1-0.5,0.1-0.7-0.1s-0.3-0.4-0.2-0.7c1.1-3.3,1.2-3.6,2-6.1l0.1-0.2c-1.2-0.4-1.8-1.1-2-2.4
					c0-0.1,0-0.2,0-0.3c0-0.6-0.3-1.1-0.9-1.7c-1-1.1-1.1-2.3-0.3-3.6C1,7.7,1.2,6.9,1,6.1C0.8,4.8,1.4,3.8,2.7,3.2
					c1-0.4,1.6-1,2-1.8C5.2,0.6,6,0.1,6.9,0.1c0.2,0,0.5,0,0.7,0.1c0.9,0.2,1.7,0.3,2.3,0.3c0,0,0,0,0,0H10c0.9,0,1.8-0.2,2.1-0.3
					c0.2-0.1,0.5-0.1,0.7-0.1c1,0,1.8,0.5,2.3,1.4c0.4,0.8,1.1,1.4,2.1,1.8c1.3,0.5,1.9,1.6,1.7,2.9C18.7,6.9,18.9,7.7,19.4,8.4z
					 M14.3,14c1.2-1.2,1.9-2.7,1.8-4.4c0-1.6-0.7-3.2-1.9-4.3c-1.2-1.1-2.7-1.8-4.4-1.9c0,0,0,0-0.1,0c0,0,0,0,0,0
					C8.1,3.5,6.6,4.2,5.4,5.3C4.2,6.5,3.6,8,3.5,9.6c0,1.6,0.7,3.2,1.9,4.4c1.2,1.2,2.7,1.8,4.4,1.9c0,0,0,0,0,0c0,0,0,0,0,0
					C11.6,15.9,13.2,15.2,14.3,14z M8.7,12.4c-0.2,0-0.3-0.1-0.5-0.2l-1.6-1.6c-0.3-0.3-0.3-0.7,0-0.9c0.3-0.3,0.7-0.3,0.9,0
					l1.1,1.1l3.5-3.5c0.3-0.3,0.7-0.3,0.9,0c0.3,0.3,0.3,0.7,0,0.9l-4,3.9C9,12.3,8.9,12.4,8.7,12.4z"/>
			</g>
			<defs>
				<filter id="icon_x2F_Utility_x2F_ribbon-Adobe_OpacityMaskFilter" filterUnits="userSpaceOnUse" x="-10" y="-6.5" width="40" height="39">
					<feColorMatrix  type="matrix" values="1 0 0 0 0  0 1 0 0 0  0 0 1 0 0  0 0 0 1 0"/>
				</filter>
			</defs>
			<mask maskUnits="userSpaceOnUse" x="-10" y="-6.5" width="40" height="39" id="icon_x2F_Utility_x2F_ribbon-mask-2">
				<g style="filter:url(#icon_x2F_Utility_x2F_ribbon-Adobe_OpacityMaskFilter);">
					<path id="icon_x2F_Utility_x2F_ribbon-path-1" style="fill:#FFFFFF;" d="M19.4,8.4c0.9,1.3,0.7,2.5-0.3,3.6c-0.6,0.6-0.9,1.1-0.9,1.7c0,0.1,0,0.2,0,0.3
						c-0.1,1.3-0.7,2-2,2.4c0,0,0,0.1,0,0.1c0.2,0.8,0.4,1.4,0.6,1.9c0.4,1.5,0.6,1.9,1.4,4.3c0.1,0.2,0,0.5-0.2,0.7
						c-0.2,0.2-0.5,0.2-0.7,0.1c-0.1,0-0.3-0.1-0.5-0.2c-0.6-0.2-1.6-0.6-2.1-0.8c-0.1,0-0.1,0-0.2,0c-0.3,0-0.5,0.4-0.6,0.6
						c-0.3,0.4-0.5,0.8-0.7,1.2c-0.2,0.4-0.5,0.9-0.9,1.5c-0.1,0.2-0.4,0.3-0.6,0.3c-0.3,0-0.5-0.2-0.5-0.5
						c-0.4-1.3-0.8-2.6-1.2-3.7c-0.1,0.3-0.1,0.5-0.2,0.7c-0.2,0.8-0.4,1.6-0.8,2.9c-0.1,0.3-0.3,0.4-0.5,0.5c0,0-0.1,0-0.1,0
						c-0.2,0-0.4-0.1-0.6-0.3c-0.4-0.7-0.7-1.2-1-1.7c-0.2-0.3-0.4-0.7-0.6-1c-0.1-0.1-0.3-0.5-0.6-0.5c-0.1,0-0.2,0-0.2,0.1
						c-0.4,0.2-1.1,0.4-1.8,0.6c-0.3,0.1-0.7,0.2-0.8,0.3c-0.2,0.1-0.5,0.1-0.7-0.1s-0.3-0.4-0.2-0.7c1.1-3.3,1.2-3.6,2-6.1l0.1-0.2
						c-1.2-0.4-1.8-1.1-2-2.4c0-0.1,0-0.2,0-0.3c0-0.6-0.3-1.1-0.9-1.7c-1-1.1-1.1-2.3-0.3-3.6C1,7.7,1.2,6.9,1,6.1
						C0.8,4.8,1.4,3.8,2.7,3.2c1-0.4,1.6-1,2-1.8C5.2,0.6,6,0.1,6.9,0.1c0.2,0,0.5,0,0.7,0.1c0.9,0.2,1.7,0.3,2.3,0.3c0,0,0,0,0,0
						H10c0.9,0,1.8-0.2,2.1-0.3c0.2-0.1,0.5-0.1,0.7-0.1c1,0,1.8,0.5,2.3,1.4c0.4,0.8,1.1,1.4,2.1,1.8c1.3,0.5,1.9,1.6,1.7,2.9
						C18.7,6.9,18.9,7.7,19.4,8.4z M14.3,14c1.2-1.2,1.9-2.7,1.8-4.4c0-1.6-0.7-3.2-1.9-4.3c-1.2-1.1-2.7-1.8-4.4-1.9c0,0,0,0-0.1,0
						c0,0,0,0,0,0C8.1,3.5,6.6,4.2,5.4,5.3C4.2,6.5,3.6,8,3.5,9.6c0,1.6,0.7,3.2,1.9,4.4c1.2,1.2,2.7,1.8,4.4,1.9c0,0,0,0,0,0
						c0,0,0,0,0,0C11.6,15.9,13.2,15.2,14.3,14z M8.7,12.4c-0.2,0-0.3-0.1-0.5-0.2l-1.6-1.6c-0.3-0.3-0.3-0.7,0-0.9
						c0.3-0.3,0.7-0.3,0.9,0l1.1,1.1l3.5-3.5c0.3-0.3,0.7-0.3,0.9,0c0.3,0.3,0.3,0.7,0,0.9l-4,3.9C9,12.3,8.9,12.4,8.7,12.4z"/>
				</g>
			</mask>
			<g id="icon_x2F_Utility_x2F_ribbon-Color_x2F_Grayscale_x2F_Night-Sky" style="mask:url(#icon_x2F_Utility_x2F_ribbon-mask-2);">
				<g id="icon_x2F_Utility_x2F_ribbon-Swatch" transform="translate(-10.000000, -6.500000)">
					<rect style="fill:#111111;" width="40" height="39"/>
				</g>
			</g>
		</g>
	</g>
</g>
</svg>
