<?xml version="1.0" encoding="utf-8"?>
<svg version="1.1" id="icon_x2F_Utility_x2F_ribbon-Layer_1"
	 xmlns="http://www.w3.org/2000/svg" xmlns:xlink="http://www.w3.org/1999/xlink" x="0px" y="0px" viewBox="0 0 48 48"
	 style="enable-background:new 0 0 48 48;" xml:space="preserve">
<path id="icon_x2F_Utility_x2F_ribbon-path-1_1_" style="fill:#333333;" d="M33.4,19.4c0.9,1.3,0.7,2.5-0.3,3.6
	c-0.6,0.6-0.9,1.1-0.9,1.7V25c-0.1,1.3-0.7,2-2,2.4v0.1c0.2,0.8,0.4,1.4,0.6,1.9c0.4,1.5,0.6,1.9,1.4,4.3c0.1,0.2,0,0.5-0.2,0.7
	s-0.5,0.2-0.7,0.1c-0.1,0-0.3-0.1-0.5-0.2c-0.6-0.2-1.6-0.6-2.1-0.8h-0.2c-0.3,0-0.5,0.4-0.6,0.6c-0.3,0.4-0.5,0.8-0.7,1.2
	s-0.5,0.9-0.9,1.5c-0.1,0.2-0.4,0.3-0.6,0.3c-0.3,0-0.5-0.2-0.5-0.5c-0.4-1.3-0.8-2.6-1.2-3.7c-0.1,0.3-0.1,0.5-0.2,0.7
	c-0.2,0.8-0.4,1.6-0.8,2.9c-0.1,0.3-0.3,0.4-0.5,0.5h-0.1c-0.2,0-0.4-0.1-0.6-0.3c-0.4-0.7-0.7-1.2-1-1.7c-0.2-0.3-0.4-0.7-0.6-1
	c-0.1-0.1-0.3-0.5-0.6-0.5c-0.1,0-0.2,0-0.2,0.1c-0.4,0.2-1.1,0.4-1.8,0.6c-0.3,0.1-0.7,0.2-0.8,0.3c-0.2,0.1-0.5,0.1-0.7-0.1
	c-0.2-0.2-0.3-0.4-0.2-0.7c1.1-3.3,1.2-3.6,2-6.1l0.1-0.2c-1.2-0.4-1.8-1.1-2-2.4v-0.3c0-0.6-0.3-1.1-0.9-1.7
	c-1-1.1-1.1-2.3-0.3-3.6c0.2-0.7,0.4-1.5,0.2-2.3c-0.2-1.3,0.4-2.3,1.7-2.9c1-0.4,1.6-1,2-1.8c0.5-0.8,1.3-1.3,2.2-1.3
	c0.2,0,0.5,0,0.7,0.1c0.9,0.2,1.7,0.3,2.3,0.3H24c0.9,0,1.8-0.2,2.1-0.3c0.2-0.1,0.5-0.1,0.7-0.1c1,0,1.8,0.5,2.3,1.4
	c0.4,0.8,1.1,1.4,2.1,1.8c1.3,0.5,1.9,1.6,1.7,2.9C32.7,17.9,32.9,18.7,33.4,19.4z M28.3,25c1.2-1.2,1.9-2.7,1.8-4.4
	c0-1.6-0.7-3.2-1.9-4.3c-1.2-1.1-2.7-1.8-4.4-1.9h-0.1c-1.6,0.1-3.1,0.8-4.3,1.9c-1.2,1.2-1.8,2.7-1.9,4.3c0,1.6,0.7,3.2,1.9,4.4
	c1.2,1.2,2.7,1.8,4.4,1.9C25.6,26.9,27.2,26.2,28.3,25z M22.7,23.4c-0.2,0-0.3-0.1-0.5-0.2l-1.6-1.6c-0.3-0.3-0.3-0.7,0-0.9
	c0.3-0.3,0.7-0.3,0.9,0l1.1,1.1l3.5-3.5c0.3-0.3,0.7-0.3,0.9,0c0.3,0.3,0.3,0.7,0,0.9l-4,3.9C23,23.3,22.9,23.4,22.7,23.4z"/>
</svg>
