<svg id="icon_x2F_Utility_x2F_ribbon-Layer_1" xmlns="http://www.w3.org/2000/svg" viewBox="0 0 48 48" enable-background="new 0 0 48 48"><title>icon/Utility/ribbon</title><g id="icon_x2F_Utility_x2F_ribbon-Symbols"><g id="icon_x2F_Utility_x2F_ribbon"><g id="icon_x2F_Utility_x2F_ribbon-Icon" transform="translate(14 11)"><g id="icon_x2F_Utility_x2F_ribbon-Mask"><path id="icon_x2F_Utility_x2F_ribbon-path-1_1_" d="M19.4 8.4c.9 1.3.7 2.5-.3 3.6-.6.6-.9 1.1-.9 1.7v.3c-.1 1.3-.7 2-2 2.4v.1c.2.8.4 1.4.6 1.9.4 1.5.6 1.9 1.4 4.3.1.2 0 .5-.2.7-.2.2-.5.2-.7.1-.1 0-.3-.1-.5-.2-.6-.2-1.6-.6-2.1-.8h-.2c-.3 0-.5.4-.6.6-.3.4-.5.8-.7 1.2-.2.4-.5.9-.9 1.5-.1.2-.4.3-.6.3-.3 0-.5-.2-.5-.5-.4-1.3-.8-2.6-1.2-3.7-.1.3-.1.5-.2.7-.2.8-.4 1.6-.8 2.9-.1.3-.3.4-.5.5h-.1c-.2 0-.4-.1-.6-.3-.4-.7-.7-1.2-1-1.7-.2-.3-.4-.7-.6-1-.1-.1-.3-.5-.6-.5-.1 0-.2 0-.2.1-.4.2-1.1.4-1.8.6-.3.1-.7.2-.8.3-.2.1-.5.1-.7-.1s-.3-.4-.2-.7c1.1-3.3 1.2-3.6 2-6.1l.1-.2C2.8 16 2.2 15.3 2 14v-.3c0-.6-.3-1.1-.9-1.7C.1 10.9 0 9.7.8 8.4c.2-.7.4-1.5.2-2.3-.2-1.3.4-2.3 1.7-2.9 1-.4 1.6-1 2-1.8C5.2.6 6 .1 6.9.1c.2 0 .5 0 .7.1.9.2 1.7.3 2.3.3h.1c.9 0 1.8-.2 2.1-.3.2-.1.5-.1.7-.1 1 0 1.8.5 2.3 1.4.4.8 1.1 1.4 2.1 1.8 1.3.5 1.9 1.6 1.7 2.9-.2.7 0 1.5.5 2.2zM14.3 14c1.2-1.2 1.9-2.7 1.8-4.4 0-1.6-.7-3.2-1.9-4.3-1.2-1.1-2.7-1.8-4.4-1.9h-.1c-1.6.1-3.1.8-4.3 1.9C4.2 6.5 3.6 8 3.5 9.6c0 1.6.7 3.2 1.9 4.4 1.2 1.2 2.7 1.8 4.4 1.9 1.8 0 3.4-.7 4.5-1.9zm-5.6-1.6c-.2 0-.3-.1-.5-.2l-1.6-1.6c-.3-.3-.3-.7 0-.9.3-.3.7-.3.9 0l1.1 1.1 3.5-3.5c.3-.3.7-.3.9 0 .3.3.3.7 0 .9l-4 3.9c0 .2-.1.3-.3.3z" fill="#333"/></g><defs><filter id="icon_x2F_Utility_x2F_ribbon-Adobe_OpacityMaskFilter" filterUnits="userSpaceOnUse" x="-10" y="-6.5" width="40" height="39"><feColorMatrix values="1 0 0 0 0 0 1 0 0 0 0 0 1 0 0 0 0 0 1 0"/></filter></defs><mask maskUnits="userSpaceOnUse" x="-10" y="-6.5" width="40" height="39" id="icon_x2F_Utility_x2F_ribbon-mask-2"><g filter="url(#icon_x2F_Utility_x2F_ribbon-Adobe_OpacityMaskFilter)"><path id="icon_x2F_Utility_x2F_ribbon-path-1" d="M19.4 8.4c.9 1.3.7 2.5-.3 3.6-.6.6-.9 1.1-.9 1.7v.3c-.1 1.3-.7 2-2 2.4v.1c.2.8.4 1.4.6 1.9.4 1.5.6 1.9 1.4 4.3.1.2 0 .5-.2.7-.2.2-.5.2-.7.1-.1 0-.3-.1-.5-.2-.6-.2-1.6-.6-2.1-.8h-.2c-.3 0-.5.4-.6.6-.3.4-.5.8-.7 1.2-.2.4-.5.9-.9 1.5-.1.2-.4.3-.6.3-.3 0-.5-.2-.5-.5-.4-1.3-.8-2.6-1.2-3.7-.1.3-.1.5-.2.7-.2.8-.4 1.6-.8 2.9-.1.3-.3.4-.5.5h-.1c-.2 0-.4-.1-.6-.3-.4-.7-.7-1.2-1-1.7-.2-.3-.4-.7-.6-1-.1-.1-.3-.5-.6-.5-.1 0-.2 0-.2.1-.4.2-1.1.4-1.8.6-.3.1-.7.2-.8.3-.2.1-.5.1-.7-.1s-.3-.4-.2-.7c1.1-3.3 1.2-3.6 2-6.1l.1-.2C2.8 16 2.2 15.3 2 14v-.3c0-.6-.3-1.1-.9-1.7C.1 10.9 0 9.7.8 8.4c.2-.7.4-1.5.2-2.3-.2-1.3.4-2.3 1.7-2.9 1-.4 1.6-1 2-1.8C5.2.6 6 .1 6.9.1c.2 0 .5 0 .7.1.9.2 1.7.3 2.3.3h.1c.9 0 1.8-.2 2.1-.3.2-.1.5-.1.7-.1 1 0 1.8.5 2.3 1.4.4.8 1.1 1.4 2.1 1.8 1.3.5 1.9 1.6 1.7 2.9-.2.7 0 1.5.5 2.2zM14.3 14c1.2-1.2 1.9-2.7 1.8-4.4 0-1.6-.7-3.2-1.9-4.3-1.2-1.1-2.7-1.8-4.4-1.9h-.1c-1.6.1-3.1.8-4.3 1.9C4.2 6.5 3.6 8 3.5 9.6c0 1.6.7 3.2 1.9 4.4 1.2 1.2 2.7 1.8 4.4 1.9 1.8 0 3.4-.7 4.5-1.9zm-5.6-1.6c-.2 0-.3-.1-.5-.2l-1.6-1.6c-.3-.3-.3-.7 0-.9.3-.3.7-.3.9 0l1.1 1.1 3.5-3.5c.3-.3.7-.3.9 0 .3.3.3.7 0 .9l-4 3.9c0 .2-.1.3-.3.3z" fill="#fff"/></g></mask><g id="icon_x2F_Utility_x2F_ribbon-Color_x2F_Grayscale_x2F_Night-Sky" mask="url(#icon_x2F_Utility_x2F_ribbon-mask-2)"><path fill="#111" d="M0 0h40v39H0z" transform="translate(-10 -6.5)" id="icon_x2F_Utility_x2F_ribbon-Swatch"/></g></g></g></g></svg>