<svg id="icon_x2F_Utility_x2F_ruler-Layer_1" xmlns="http://www.w3.org/2000/svg" viewBox="0 0 48 48" enable-background="new 0 0 48 48"><title>icon/Utility/ruler</title><g id="icon_x2F_Utility_x2F_ruler-Symbols"><g id="icon_x2F_Utility_x2F_ruler"><g id="icon_x2F_Utility_x2F_ruler-Icon" transform="translate(12 12)"><g id="icon_x2F_Utility_x2F_ruler-Mask"><path id="icon_x2F_Utility_x2F_ruler-path-1_1_" d="M23.8 6.7L17.3.2c-.2-.2-.6-.2-.8 0L.2 16.4c-.1.1-.2.3-.2.5s.1.3.2.4l6.5 6.5c.1.1.3.2.4.2s.3-.1.4-.2L9.3 22l-4-4c-.2-.2-.2-.6 0-.8.2-.2.6-.2.8 0l4 4 2.1-2.1-2.8-2.8c-.2-.2-.2-.6 0-.8.2-.2.6-.2.8 0l2.8 2.8 2.1-2.1-4-4c-.2-.2-.2-.6 0-.8s.6-.2.8 0l4 4 2.1-2.1-2.8-2.8c-.2-.2-.2-.6 0-.8.2-.2.6-.2.8 0l2.8 2.8 2.1-2.1-4-4c-.2-.2-.2-.6 0-.8.2-.2.6-.2.8 0l4 4 1.8-1.8c.4-.3.5-.5.5-.7 0-.1-.1-.3-.2-.4" fill="#384048"/></g><defs><filter id="icon_x2F_Utility_x2F_ruler-Adobe_OpacityMaskFilter" filterUnits="userSpaceOnUse" x="-12" y="-12" width="48" height="48"><feColorMatrix values="1 0 0 0 0 0 1 0 0 0 0 0 1 0 0 0 0 0 1 0"/></filter></defs><mask maskUnits="userSpaceOnUse" x="-12" y="-12" width="48" height="48" id="icon_x2F_Utility_x2F_ruler-mask-2"><g filter="url(#icon_x2F_Utility_x2F_ruler-Adobe_OpacityMaskFilter)"><path id="icon_x2F_Utility_x2F_ruler-path-1" d="M23.8 6.7L17.3.2c-.2-.2-.6-.2-.8 0L.2 16.4c-.1.1-.2.3-.2.5s.1.3.2.4l6.5 6.5c.1.1.3.2.4.2s.3-.1.4-.2L9.3 22l-4-4c-.2-.2-.2-.6 0-.8.2-.2.6-.2.8 0l4 4 2.1-2.1-2.8-2.8c-.2-.2-.2-.6 0-.8.2-.2.6-.2.8 0l2.8 2.8 2.1-2.1-4-4c-.2-.2-.2-.6 0-.8s.6-.2.8 0l4 4 2.1-2.1-2.8-2.8c-.2-.2-.2-.6 0-.8.2-.2.6-.2.8 0l2.8 2.8 2.1-2.1-4-4c-.2-.2-.2-.6 0-.8.2-.2.6-.2.8 0l4 4 1.8-1.8c.4-.3.5-.5.5-.7 0-.1-.1-.3-.2-.4" fill="#fff"/></g></mask><g id="icon_x2F_Utility_x2F_ruler-Color_x2F_Grayscale_x2F_Night-Sky" mask="url(#icon_x2F_Utility_x2F_ruler-mask-2)"><path fill="#111" d="M0 0h48v48H0z" transform="translate(-12 -12)" id="icon_x2F_Utility_x2F_ruler-Swatch"/></g></g></g></g></svg>