<?xml version="1.0" encoding="utf-8"?>
<!-- Generator: Adobe Illustrator 21.0.2, SVG Export Plug-In . SVG Version: 6.00 Build 0)  -->
<svg version="1.1" id="icon_x2F_Utility_x2F_ruler-Layer_1" xmlns="http://www.w3.org/2000/svg" xmlns:xlink="http://www.w3.org/1999/xlink" x="0px" y="0px"
	 viewBox="0 0 48 48" style="enable-background:new 0 0 48 48;" xml:space="preserve">
<title>icon/Utility/ruler</title>
<desc>Created with Sketch.</desc>
<g id="icon_x2F_Utility_x2F_ruler-Symbols">
	<g id="icon_x2F_Utility_x2F_ruler">
		<g id="icon_x2F_Utility_x2F_ruler-Icon" transform="translate(12.000000, 12.000000)">
			<g id="icon_x2F_Utility_x2F_ruler-Mask">
				<path id="icon_x2F_Utility_x2F_ruler-path-1_1_" style="fill:#384048;" d="M23.8,6.7l-6.5-6.5c-0.2-0.2-0.6-0.2-0.8,0L0.2,16.4C0.1,16.5,0,16.7,0,16.9
					c0,0.2,0.1,0.3,0.2,0.4l6.5,6.5C6.8,23.9,7,24,7.1,24s0.3-0.1,0.4-0.2l1.8-1.8l-4-4c-0.2-0.2-0.2-0.6,0-0.8
					c0.2-0.2,0.6-0.2,0.8,0l4,4l2.1-2.1l-2.8-2.8c-0.2-0.2-0.2-0.6,0-0.8c0.2-0.2,0.6-0.2,0.8,0l2.8,2.8l2.1-2.1l-4-4
					c-0.2-0.2-0.2-0.6,0-0.8s0.6-0.2,0.8,0l4,4l2.1-2.1l-2.8-2.8c-0.2-0.2-0.2-0.6,0-0.8c0.2-0.2,0.6-0.2,0.8,0l2.8,2.8l2.1-2.1
					l-4-4c-0.2-0.2-0.2-0.6,0-0.8c0.2-0.2,0.6-0.2,0.8,0l4,4l1.8-1.8C23.9,7.5,24,7.3,24,7.1C24,7,23.9,6.8,23.8,6.7"/>
			</g>
			<defs>
				<filter id="icon_x2F_Utility_x2F_ruler-Adobe_OpacityMaskFilter" filterUnits="userSpaceOnUse" x="-12" y="-12" width="48" height="48">
					<feColorMatrix  type="matrix" values="1 0 0 0 0  0 1 0 0 0  0 0 1 0 0  0 0 0 1 0"/>
				</filter>
			</defs>
			<mask maskUnits="userSpaceOnUse" x="-12" y="-12" width="48" height="48" id="icon_x2F_Utility_x2F_ruler-mask-2">
				<g style="filter:url(#icon_x2F_Utility_x2F_ruler-Adobe_OpacityMaskFilter);">
					<path id="icon_x2F_Utility_x2F_ruler-path-1" style="fill:#FFFFFF;" d="M23.8,6.7l-6.5-6.5c-0.2-0.2-0.6-0.2-0.8,0L0.2,16.4C0.1,16.5,0,16.7,0,16.9
						c0,0.2,0.1,0.3,0.2,0.4l6.5,6.5C6.8,23.9,7,24,7.1,24s0.3-0.1,0.4-0.2l1.8-1.8l-4-4c-0.2-0.2-0.2-0.6,0-0.8
						c0.2-0.2,0.6-0.2,0.8,0l4,4l2.1-2.1l-2.8-2.8c-0.2-0.2-0.2-0.6,0-0.8c0.2-0.2,0.6-0.2,0.8,0l2.8,2.8l2.1-2.1l-4-4
						c-0.2-0.2-0.2-0.6,0-0.8s0.6-0.2,0.8,0l4,4l2.1-2.1l-2.8-2.8c-0.2-0.2-0.2-0.6,0-0.8c0.2-0.2,0.6-0.2,0.8,0l2.8,2.8l2.1-2.1
						l-4-4c-0.2-0.2-0.2-0.6,0-0.8c0.2-0.2,0.6-0.2,0.8,0l4,4l1.8-1.8C23.9,7.5,24,7.3,24,7.1C24,7,23.9,6.8,23.8,6.7"/>
				</g>
			</mask>
			<g id="icon_x2F_Utility_x2F_ruler-Color_x2F_Grayscale_x2F_Night-Sky" style="mask:url(#icon_x2F_Utility_x2F_ruler-mask-2);">
				<g id="icon_x2F_Utility_x2F_ruler-Swatch" transform="translate(-12.000000, -12.000000)">
					<rect style="fill:#111111;" width="48" height="48"/>
				</g>
			</g>
		</g>
	</g>
</g>
</svg>
