<?xml version="1.0" encoding="utf-8"?>
<svg version="1.1" id="icon_x2F_Utility_x2F_ruler-Layer_1"
	 xmlns="http://www.w3.org/2000/svg" xmlns:xlink="http://www.w3.org/1999/xlink" x="0px" y="0px" viewBox="0 0 48 48"
	 style="enable-background:new 0 0 48 48;" xml:space="preserve">
<path id="icon_x2F_Utility_x2F_ruler-path-1_1_" style="fill:#111111;" d="M35.8,18.7l-6.5-6.5c-0.2-0.2-0.6-0.2-0.8,0L12.2,28.4
	c-0.1,0.1-0.2,0.3-0.2,0.5s0.1,0.3,0.2,0.4l6.5,6.5c0.1,0.1,0.3,0.2,0.4,0.2s0.3-0.1,0.4-0.2l1.8-1.8l-4-4c-0.2-0.2-0.2-0.6,0-0.8
	c0.2-0.2,0.6-0.2,0.8,0l4,4l2.1-2.1l-2.8-2.8c-0.2-0.2-0.2-0.6,0-0.8c0.2-0.2,0.6-0.2,0.8,0l2.8,2.8l2.1-2.1l-4-4
	c-0.2-0.2-0.2-0.6,0-0.8c0.2-0.2,0.6-0.2,0.8,0l4,4l2.1-2.1l-2.8-2.8c-0.2-0.2-0.2-0.6,0-0.8c0.2-0.2,0.6-0.2,0.8,0l2.8,2.8l2.1-2.1
	l-4-4c-0.2-0.2-0.2-0.6,0-0.8c0.2-0.2,0.6-0.2,0.8,0l4,4l1.8-1.8c0.4-0.3,0.5-0.5,0.5-0.7C36,19,35.9,18.8,35.8,18.7"/>
</svg>
