<?xml version="1.0" encoding="utf-8"?>
<svg version="1.1" id="icon_x2F_Utility_x2F_shield-Layer_1"
	 xmlns="http://www.w3.org/2000/svg" xmlns:xlink="http://www.w3.org/1999/xlink" x="0px" y="0px" viewBox="0 0 48 48"
	 style="enable-background:new 0 0 48 48;" xml:space="preserve">
<path id="icon_x2F_Utility_x2F_shield-path-1_1_" style="fill:#111111;" d="M24,36c-9.4-2.9-10-9.7-10-9.7V12h20v14.3
	C34,26.3,33.4,33.1,24,36z M20.9,22.7c-0.7-0.5-1.8-0.4-2.4,0.3s-0.4,1.8,0.3,2.3l3.4,2.5c0.7,0.5,1.8,0.4,2.4-0.3l5.9-7.8
	c0.6-0.7,0.4-1.8-0.4-2.3c-0.7-0.5-1.8-0.4-2.3,0.3l-4.9,6.5C22.9,24.2,20.9,22.7,20.9,22.7z"/>
</svg>
