<svg xmlns="http://www.w3.org/2000/svg" xmlns:xlink="http://www.w3.org/1999/xlink" width="32" height="32" viewBox="0 0 32 32" aria-labaria-lelledby="title-27">
  <defs>
    <path id="chat-fill-a" d="M22.3999067,5.08695652 C23.1864034,5.08695652 23.9999,5.74561957 24,6.84782609 L24,12.5217391 C24,12.9336848 23.7891009,13.4055978 23.4360023,13.7841848 C23.046404,14.2018043 22.548906,14.447837 22.0349082,14.4772826 C22.0232082,14.4779674 22.0115083,14.4782609 21.9999083,14.4782609 L20.5008146,14.4782609 L20.4999146,17.4130435 C20.4999146,17.648413 20.3562152,17.8609891 20.1348161,17.9531413 C20.0591164,17.9847391 19.9792168,18 19.9000171,18 C19.7478177,18 19.5979183,17.9432609 19.4838188,17.8358478 L15.9281336,14.4872609 C15.9233337,14.4839348 15.9189337,14.4809022 15.9147337,14.4782609 L11.99995,14.4782609 C10.8597548,14.4782609 9.99995833,13.6371522 9.99995833,12.5217391 L9.99995833,6.94565217 C9.99995833,5.92072826 10.8971546,5.08695652 11.99995,5.08695652 L22.3999067,5.08695652 Z M9.39996083,6.94565217 L9.39986083,6.94565217 L9.39986083,10.6626522 C9.25746143,10.66275 9.13266195,10.6628478 9.03426236,10.6629457 L5.40637747,13.9317065 C5.29347794,14.0335435 5.14757855,14.0869565 4.99977917,14.0869565 C4.91847951,14.0869565 4.83647985,14.0708152 4.75898017,14.0375543 C4.54088108,13.9439348 4.39998167,13.7330217 4.39998167,13.5 L4.39998167,10.7151848 C4.3676818,10.6892609 4.30658206,10.6616739 4.26758222,10.6616739 L1.68209299,10.6616739 C0.77029679,10.6616739 0,9.81117391 0,8.80434783 L0,1.76086957 C0,0.789945652 0.762596823,0 1.69999292,0 L15.0999371,0 C16.0373332,0 16.79993,0.789945652 16.79993,1.76086957 L16.79993,4.5 L11.99995,4.5 C10.566356,4.5 9.39996083,5.59711957 9.39996083,6.94565217 Z"/>
  </defs>
  <title id="title-27" lang="en">chat pressed</title>
  <g fill="none" fill-rule="evenodd" transform="translate(4 7)">
    <use fill="#384048" xlink:href="#chat-fill-a"/>
  </g>
</svg>
