<?xml version="1.0" encoding="utf-8"?>
<svg version="1.1" id="action-chat-line-Layer_1" xmlns="http://www.w3.org/2000/svg" xmlns:xlink="http://www.w3.org/1999/xlink"
	 x="0px" y="0px" viewBox="0 0 48 48" style="enable-background:new 0 0 48 48;" xml:space="preserve">
<path id="action-chat-line-a_1_" style="fill:#111111;" d="M33.9,36c-0.2,0-0.4-0.1-0.5-0.2L29,31.7h-5c-1.4,0-2.5-1-2.5-2.4v-6.8
	c0-1.3,1.1-2.3,2.5-2.3h13c1,0,2,0.8,2,2.2v6.9c0,0.5-0.3,1.1-0.7,1.5c-0.5,0.5-1.1,0.8-1.8,0.8h-1.9v3.6c0,0.3-0.2,0.5-0.5,0.7
	C34.1,36,34,36,33.9,36z M24,21.7h13c0.2,0,0.5,0.2,0.5,0.7v6.9c0,0.3-0.4,0.9-1,1h-2.1c-0.7,0-1.3,0.6-1.3,1.3v2l-3.2-3h-0.1
	c-0.3-0.2-0.6-0.3-0.9-0.3h-5c-0.6,0-1-0.4-1-1v-6.8C23,22,23.4,21.7,24,21.7z M14.9,31.2c-0.3-0.1-0.4-0.4-0.4-0.7v-3.4
	c0,0-0.1-0.1-0.2-0.1h-3.2C10,27,9,26,9,24.8v-8.6C9,15,10,14,11.1,14h16.8c1.1,0,2.1,1,2.1,2.2v4.1h-1.5v-4.1
	c0-0.4-0.3-0.7-0.6-0.7H11.1c-0.3,0-0.6,0.3-0.6,0.7v8.6c0,0.5,0.3,0.8,0.6,0.8h3.2c0.8,0,1.7,0.6,1.7,1.4v1.8l3.5-3.1
	c0.1-0.1,0.3-0.2,0.5-0.2h1.5v1.4h-1.2l-4.5,4C15.5,31.2,15.2,31.3,14.9,31.2z"/>
</svg>
