<?xml version="1.0" encoding="utf-8"?>
<!-- Generator: Adobe Illustrator 21.0.2, SVG Export Plug-In . SVG Version: 6.00 Build 0)  -->
<svg version="1.1" id="action-chat-fill-Layer_1" xmlns="http://www.w3.org/2000/svg" xmlns:xlink="http://www.w3.org/1999/xlink" x="0px" y="0px"
	 viewBox="0 0 48 48" style="enable-background:new 0 0 48 48;" xml:space="preserve">
<title>icon/Action/chat-fill</title>
<g transform="translate(8 13)">
	<g>
		<path id="action-chat-fill-a_1_" style="fill:#384048;" d="M29.9,6.2c1,0,2.1,0.8,2.1,2.2v6.9c0,0.5-0.3,1.1-0.8,1.5c-0.5,0.5-1.2,0.8-1.9,0.8h-2
			v3.6c0,0.3-0.2,0.5-0.5,0.7c-0.3,0.1-0.6,0.1-0.9-0.1l-4.7-4.1c0,0,0,0,0,0H16c-1.5,0-2.7-1-2.7-2.4V8.5c0-1.3,1.2-2.3,2.7-2.3
			L29.9,6.2L29.9,6.2z M12.5,8.5V13H12l-4.8,4c-0.2,0.2-0.6,0.2-0.9,0.1c-0.3-0.1-0.5-0.4-0.5-0.7v-3.4c-0.1,0-0.1-0.1-0.2-0.1H2.2
			C1,13,0,12,0,10.8V2.2C0,1,1,0,2.3,0h17.9c1.3,0,2.3,1,2.3,2.2v3.3H16C14.1,5.5,12.5,6.8,12.5,8.5z"/>
	</g>
	<defs>
		<filter id="action-chat-fill-Adobe_OpacityMaskFilter" filterUnits="userSpaceOnUse" x="-8" y="-13" width="48" height="48">
			<feColorMatrix  type="matrix" values="1 0 0 0 0  0 1 0 0 0  0 0 1 0 0  0 0 0 1 0"/>
		</filter>
	</defs>
	<mask maskUnits="userSpaceOnUse" x="-8" y="-13" width="48" height="48" id="action-chat-fill-b">
		<g style="filter:url(#action-chat-fill-Adobe_OpacityMaskFilter);">
			<path id="action-chat-fill-a" style="fill:#FFFFFF;" d="M29.9,6.2c1,0,2.1,0.8,2.1,2.2v6.9c0,0.5-0.3,1.1-0.8,1.5c-0.5,0.5-1.2,0.8-1.9,0.8h-2v3.6
				c0,0.3-0.2,0.5-0.5,0.7c-0.3,0.1-0.6,0.1-0.9-0.1l-4.7-4.1c0,0,0,0,0,0H16c-1.5,0-2.7-1-2.7-2.4V8.5c0-1.3,1.2-2.3,2.7-2.3
				L29.9,6.2L29.9,6.2z M12.5,8.5V13H12l-4.8,4c-0.2,0.2-0.6,0.2-0.9,0.1c-0.3-0.1-0.5-0.4-0.5-0.7v-3.4c-0.1,0-0.1-0.1-0.2-0.1H2.2
				C1,13,0,12,0,10.8V2.2C0,1,1,0,2.3,0h17.9c1.3,0,2.3,1,2.3,2.2v3.3H16C14.1,5.5,12.5,6.8,12.5,8.5z"/>
		</g>
	</mask>
	<g style="mask:url(#action-chat-fill-b);">
		<path style="fill:#111111;" d="M-8-13h48v48H-8V-13z"/>
	</g>
</g>
</svg>
