<svg id="action-chat-fill-Layer_1" xmlns="http://www.w3.org/2000/svg" viewBox="0 0 48 48" enable-background="new 0 0 48 48"><title>icon/Action/chat-fill</title><g transform="translate(8 13)"><path id="action-chat-fill-a_1_" d="M29.9 6.2c1 0 2.1.8 2.1 2.2v6.9c0 .5-.3 1.1-.8 1.5-.5.5-1.2.8-1.9.8h-2v3.6c0 .3-.2.5-.5.7-.3.1-.6.1-.9-.1l-4.7-4.1H16c-1.5 0-2.7-1-2.7-2.4V8.5c0-1.3 1.2-2.3 2.7-2.3h13.9zM12.5 8.5V13H12l-4.8 4c-.2.2-.6.2-.9.1-.3-.1-.5-.4-.5-.7V13c-.1 0-.1-.1-.2-.1H2.2C1 13 0 12 0 10.8V2.2C0 1 1 0 2.3 0h17.9c1.3 0 2.3 1 2.3 2.2v3.3H16c-1.9 0-3.5 1.3-3.5 3z" fill="#384048"/><defs><filter id="action-chat-fill-Adobe_OpacityMaskFilter" filterUnits="userSpaceOnUse" x="-8" y="-13" width="48" height="48"><feColorMatrix values="1 0 0 0 0 0 1 0 0 0 0 0 1 0 0 0 0 0 1 0"/></filter></defs><mask maskUnits="userSpaceOnUse" x="-8" y="-13" width="48" height="48" id="action-chat-fill-b"><g filter="url(#action-chat-fill-Adobe_OpacityMaskFilter)"><path id="action-chat-fill-a" d="M29.9 6.2c1 0 2.1.8 2.1 2.2v6.9c0 .5-.3 1.1-.8 1.5-.5.5-1.2.8-1.9.8h-2v3.6c0 .3-.2.5-.5.7-.3.1-.6.1-.9-.1l-4.7-4.1H16c-1.5 0-2.7-1-2.7-2.4V8.5c0-1.3 1.2-2.3 2.7-2.3h13.9zM12.5 8.5V13H12l-4.8 4c-.2.2-.6.2-.9.1-.3-.1-.5-.4-.5-.7V13c-.1 0-.1-.1-.2-.1H2.2C1 13 0 12 0 10.8V2.2C0 1 1 0 2.3 0h17.9c1.3 0 2.3 1 2.3 2.2v3.3H16c-1.9 0-3.5 1.3-3.5 3z" fill="#fff"/></g></mask><g mask="url(#action-chat-fill-b)"><path d="M-8-13h48v48H-8v-48z" fill="#111"/></g></g></svg>