<?xml version="1.0" encoding="utf-8"?>
<svg version="1.1" id="action-eye-crossed-out-Layer_1"
	 xmlns="http://www.w3.org/2000/svg" xmlns:xlink="http://www.w3.org/1999/xlink" x="0px" y="0px" viewBox="0 0 48 48"
	 style="enable-background:new 0 0 48 48;" xml:space="preserve">
<path id="action-eye-crossed-out-a_1_" style="fill:#111111;" d="M34,12.3c0.3-0.2,0.5-0.3,0.8-0.3h0.1c0.3,0,0.5,0.1,0.7,0.3
	c0.2,0.2,0.4,0.5,0.4,0.8c0,0.3-0.1,0.6-0.4,0.8l-4.3,4.4c0.5,0.3,1,0.7,1.5,1.1s0.9,0.8,1.3,1.1l1.1,1.1c0.4,0.4,0.6,0.6,0.8,0.9
	l0.6,0.6l0.3,0.3c0.2,0.2,0.2,0.4,0,0.7c-0.2,0.2-0.5,0.5-0.8,0.9s-0.9,1-1.8,1.8c-0.9,0.8-1.8,1.6-2.8,2.3
	c-0.9,0.6-2.1,1.2-3.5,1.8c-1.4,0.5-2.7,0.8-4,0.8c-1.4,0-2.9-0.3-4.6-1l-5,5.2c-0.1,0-0.4,0.1-0.7,0.1s-0.6-0.1-0.8-0.3
	c-0.2-0.2-0.3-0.6-0.3-0.9s0.1-0.6,0.3-0.7L34,12.3z M26.6,26.5c-0.7,0.8-1.6,1.2-2.7,1.2c-0.5,0-1-0.1-1.4-0.3l-0.8,0.8
	c0.7,0.4,1.4,0.6,2.2,0.6c0.9,0,1.7-0.2,2.5-0.7c0.7-0.5,1.3-1.1,1.8-1.9c0.4-0.8,0.7-1.6,0.7-2.5c0-0.8-0.2-1.6-0.6-2.3l-0.8,0.8
	c0.2,0.5,0.3,1,0.3,1.5C27.8,24.8,27.4,25.7,26.6,26.5z M21.9,16.1c0.7-0.1,1.4-0.2,2.1-0.2c1.3,0,2.7,0.3,4.2,0.8l-2.3,2.4
	c-0.7-0.3-1.3-0.4-1.9-0.4c-1.4,0-2.5,0.5-3.4,1.5s-1.4,2.2-1.4,3.6c0,0.6,0.1,1.3,0.4,1.9L16.5,29c-1-0.6-1.9-1.3-2.7-2.1
	c-0.9-0.8-1.5-1.4-1.8-1.8c-0.3-0.3-0.5-0.6-0.8-0.9c-0.2-0.2-0.2-0.4,0-0.7l0.2-0.5c0.2-0.2,0.3-0.4,0.5-0.6l0.8-0.8
	c0.3-0.3,0.7-0.7,1.1-1c0.3-0.4,0.8-0.7,1.2-1.1c1-0.8,2-1.5,3.1-2c0.7-0.4,1.3-0.6,1.9-0.9C20.6,16.4,21.3,16.2,21.9,16.1z
	 M21.3,20.9c0.8-0.7,1.7-1.1,2.7-1.1c0.4,0,0.7,0.1,1,0.2l-4.6,4.8c-0.1-0.3-0.2-0.7-0.2-1.1C20.2,22.6,20.6,21.7,21.3,20.9z"/>
</svg>
