<?xml version="1.0" encoding="UTF-8"?>
<svg width="48px" height="48px" viewBox="0 0 48 48" version="1.1" xmlns="http://www.w3.org/2000/svg" xmlns:xlink="http://www.w3.org/1999/xlink">
    <!-- Generator: Sketch 46.2 (44496) - http://www.bohemiancoding.com/sketch -->
    <title>icon/Action/eye-crossed-out</title>
    <desc>Created with Sketch.</desc>
    <defs>
        <path d="M23.03548,0.343304348 C23.25596,0.114782609 23.49932,0 23.76244,0 C23.7822,0 23.80092,0.00104347826 23.82068,0.00208695652 C24.10876,0.0187826087 24.35316,0.133565217 24.55596,0.343304348 C24.79308,0.552 24.9106,0.805565217 24.9106,1.104 C24.9106,1.40034783 24.79308,1.67165217 24.55596,1.91582609 L20.29924,6.32243478 C20.80572,6.63756522 21.3122,6.99652174 21.81868,7.39826087 C22.32516,7.8 22.76612,8.17565217 23.1374,8.52521739 C23.50868,8.87582609 23.87164,9.2253913 24.22628,9.57495652 C24.58092,9.92452174 24.85964,10.2135652 25.06348,10.4410435 C25.26524,10.6674783 25.4514,10.8782609 25.61988,11.0702609 L25.87364,11.3582609 C26.04212,11.5335652 26.04212,11.7610435 25.87364,12.0406957 C25.67084,12.2848696 25.41812,12.5822609 25.1134,12.9318261 C24.80972,13.2813913 24.20132,13.8845217 23.28924,14.7422609 C22.37716,15.5989565 21.4474,16.3502609 20.50204,16.9982609 C19.55564,17.6441739 18.39812,18.2295652 17.02948,18.7544348 C15.66188,19.2793043 14.3182,19.5412174 13.00052,19.5412174 C11.58196,19.5412174 10.06148,19.2083478 8.43908,18.5446957 L3.47204,23.738087 C3.26924,23.9123478 3.01548,24 2.7118,24 C2.40708,24 2.15436,23.9123478 1.95156,23.738087 C1.74876,23.4928696 1.64684,23.2048696 1.64684,22.872 C1.64684,22.5401739 1.74876,22.3043478 1.95156,22.1645217 L23.03548,0.343304348 Z M15.63588,14.4532174 C14.89332,15.2222609 13.99684,15.6073043 12.9506,15.6073043 C12.47636,15.6073043 12.0042,15.5196522 11.531,15.3453913 L10.7198,16.1843478 C11.39476,16.5693913 12.13836,16.7603478 12.9506,16.7603478 C13.86268,16.7603478 14.68948,16.5255652 15.43308,16.053913 C16.17668,15.5812174 16.76844,14.9603478 17.20732,14.1913043 C17.6462,13.4212174 17.86668,12.5822609 17.86668,11.6733913 C17.86668,10.8688696 17.66284,10.0987826 17.25828,9.36521739 L16.44708,10.2041739 C16.64884,10.7290435 16.7518,11.2184348 16.7518,11.6733913 C16.7518,12.7575652 16.37948,13.6841739 15.63588,14.4532174 Z M10.94756,4.06747826 C11.6402,3.92765217 12.32452,3.85669565 13.00052,3.85669565 C14.3182,3.85669565 15.70348,4.1373913 17.15636,4.69669565 L14.87564,7.05704348 C14.20068,6.7773913 13.5746,6.63756522 13.00052,6.63756522 C11.64852,6.63756522 10.50036,7.12695652 9.555,8.10678261 C8.60756,9.08556522 8.1354,10.2751304 8.1354,11.6733913 C8.1354,12.3026087 8.25292,12.9318261 8.49004,13.5610435 L5.39812,16.8135652 C4.45172,16.2187826 3.549,15.5113043 2.68684,14.690087 C1.82468,13.8678261 1.2246,13.2646957 0.8866,12.8796522 C0.54964,12.4956522 0.29588,12.1972174 0.12636,11.9885217 C-0.04212,11.7777391 -0.04212,11.5502609 0.12636,11.306087 L0.35516,11.018087 C0.507,10.8250435 0.68484,10.6153043 0.8866,10.3888696 C1.09044,10.1613913 1.36084,9.88069565 1.69884,9.54886957 C2.0358,9.216 2.39148,8.88417391 2.76276,8.55234783 C3.13404,8.21947826 3.55732,7.86156522 4.02948,7.47652174 C4.50268,7.09252174 4.99252,6.73356522 5.50004,6.40173913 C6.00652,6.06886957 6.56396,5.74643478 7.17236,5.43130435 C7.78076,5.11721739 8.38812,4.84486957 8.99652,4.61843478 C9.60492,4.39095652 10.25492,4.20730435 10.94756,4.06747826 Z M10.31524,8.91965217 C11.05676,8.16730435 11.95324,7.79165217 13.00052,7.79165217 C13.37284,7.79165217 13.71084,7.84382609 14.01348,7.94921739 L9.40212,12.7231304 C9.26692,12.3370435 9.19932,11.9885217 9.19932,11.6733913 C9.19932,10.5892174 9.57164,9.672 10.31524,8.91965217 Z" id="path-1"></path>
    </defs>
    <g id="Symbols" stroke="none" stroke-width="1" fill="none" fill-rule="evenodd">
        <g id="icon/Action/eye-crossed-out">
            <g id="Icon" transform="translate(11.000000, 12.000000)">
                <mask id="mask-2" fill="white">
                    <use xlink:href="#path-1"></use>
                </mask>
                <use id="Mask" fill="#384048" xlink:href="#path-1"></use>
                <g id="Color/Grayscale/Night-Sky" mask="url(#mask-2)" fill="#111111">
                    <g transform="translate(-11.000000, -12.000000)" id="Swatch">
                        <rect x="0" y="0" width="48" height="48"></rect>
                    </g>
                </g>
            </g>
        </g>
    </g>
</svg>