<svg xmlns="http://www.w3.org/2000/svg" xmlns:xlink="http://www.w3.org/1999/xlink" width="32" height="32" viewBox="0 0 32 32">
  <defs>
    <path id="eye-a" d="M23.8596028,5.75828571 C24.0467991,5.91942857 24.0467991,6.08057143 23.8596028,6.24171429 C23.6724066,6.456 23.4938501,6.64457143 23.3220136,6.80571429 C23.151137,6.966 22.7613848,7.31571429 22.1537169,7.85228571 C21.5460491,8.38885714 20.9076618,8.85857143 20.2375952,9.26142857 C19.5675286,9.66428571 18.7966641,10.0937143 17.9240415,10.5505714 C17.051419,11.0065714 16.101038,11.3622857 15.0728985,11.6177143 C14.0447591,11.8722857 13.0166197,12 11.9884802,12 C10.7731445,12 9.5347693,11.7985714 8.27239455,11.3957143 C7.01097978,10.9928571 5.95884082,10.5574286 5.11789764,10.0877143 C4.27695446,9.61714286 3.41201176,9.04028571 2.52402952,8.35542857 C1.63604728,7.67142857 1.07541849,7.21457143 0.841183176,6.98657143 C0.607907842,6.75857143 0.36599268,6.51 0.117357653,6.24171429 C-0.0391192176,6.10714286 -0.0391192176,5.946 0.117357653,5.75828571 C0.36599268,5.49 0.607907842,5.24142857 0.841183176,5.01342857 C1.07541849,4.78542857 1.63604728,4.32857143 2.52402952,3.64457143 C3.41201176,2.95971429 4.27695446,2.38285714 5.11789764,1.91228571 C5.95884082,1.44257143 7.01097978,1.00714286 8.27239455,0.604285714 C9.5347693,0.201428571 10.7731445,0 11.9884802,0 C13.2038159,0 14.4345113,0.194571429 15.6805664,0.583714286 C16.9266215,0.972857143 18.0018,1.42285714 18.9051419,1.93285714 C19.8094438,2.44285714 20.6580668,3 21.4529309,3.60428571 C22.2468351,4.20771429 22.8237835,4.68428571 23.1818564,5.034 C23.5399292,5.38285714 23.7664847,5.62457143 23.8596028,5.75828571 M11.9884802,9.86571429 C13.2345353,9.86571429 14.2943541,9.49028571 15.1669767,8.73857143 C16.0386392,7.98685714 16.4754305,7.074 16.4754305,6 C16.4754305,4.926 16.0386392,4.01314286 15.1669767,3.26142857 C14.2943541,2.50971429 13.2345353,2.13428571 11.9884802,2.13428571 C10.7424252,2.13428571 9.68260635,2.50971429 8.8099838,3.26142857 C7.93736125,4.01314286 7.50152997,4.926 7.50152997,6 C7.50152997,7.074 7.93736125,7.98685714 8.8099838,8.73857143 C9.68260635,9.49028571 10.7424252,9.86571429 11.9884802,9.86571429 M15.4933701,6 C15.4933701,6.83228571 15.150657,7.54371429 14.4652307,8.13428571 C13.7798044,8.72485714 12.9542209,9.01971429 11.9884802,9.01971429 C11.0227395,9.01971429 10.1971561,8.72485714 9.51172977,8.13428571 C8.82630347,7.54371429 8.48263035,6.83228571 8.48263035,6 C8.48263035,5.16771429 8.82630347,4.45628571 9.51172977,3.86571429 C10.1971561,3.27514286 11.0227395,2.98028571 11.9884802,2.98028571 C12.9542209,2.98028571 13.7798044,3.27514286 14.4652307,3.86571429 C15.150657,4.45628571 15.4933701,5.16771429 15.4933701,6"/>
  </defs>
  <g fill="none" fill-rule="evenodd" transform="translate(4 10)">
    <use fill="#384048" xlink:href="#eye-a"/>
  </g>
</svg>
