<?xml version="1.0" encoding="utf-8"?>
<svg version="1.1" id="action-grid-line-Layer_1" xmlns="http://www.w3.org/2000/svg" xmlns:xlink="http://www.w3.org/1999/xlink"
	 x="0px" y="0px" viewBox="0 0 48 48" style="enable-background:new 0 0 48 48;" xml:space="preserve">
<path id="action-grid-line-a_1_" style="fill:#111111;" d="M13.1,21.8h8.7v-8.7h-8.7V21.8z M12,13.1c0-0.6,0.5-1.1,1.1-1.1h8.7
	c0.6,0,1.1,0.5,1.1,1.1v8.7c0,0.6-0.5,1.1-1.1,1.1h-8.7c-0.6,0-1.1-0.5-1.1-1.1V13.1z M13.1,34.9h8.7v-8.7h-8.7V34.9z M12,26.2
	c0-0.6,0.5-1.1,1.1-1.1h8.7c0.6,0,1.1,0.5,1.1,1.1v8.7c0,0.6-0.5,1.1-1.1,1.1h-8.7c-0.6,0-1.1-0.5-1.1-1.1V26.2z M26.2,21.8h8.7
	v-8.7h-8.7C26.2,13.1,26.2,21.8,26.2,21.8z M25.1,13.1c0-0.6,0.5-1.1,1.1-1.1h8.7c0.6,0,1.1,0.5,1.1,1.1v8.7c0,0.6-0.5,1.1-1.1,1.1
	h-8.7c-0.6,0-1.1-0.5-1.1-1.1C25.1,21.8,25.1,13.1,25.1,13.1z M26.2,34.9h8.7v-8.7h-8.7V34.9z M25.1,26.2c0-0.6,0.5-1.1,1.1-1.1h8.7
	c0.6,0,1.1,0.5,1.1,1.1v8.7c0,0.6-0.5,1.1-1.1,1.1h-8.7c-0.6,0-1.1-0.5-1.1-1.1V26.2z"/>
</svg>
