<?xml version="1.0" encoding="utf-8"?>
<svg version="1.1" id="action-grid-fill-Layer_1" xmlns="http://www.w3.org/2000/svg" xmlns:xlink="http://www.w3.org/1999/xlink"
	 x="0px" y="0px" viewBox="0 0 48 48" style="enable-background:new 0 0 48 48;" xml:space="preserve">
<path id="action-grid-fill-a_1_" style="fill:#111111;" d="M12,13c0-0.6,0.4-1,1-1h8.9c0.6,0,1,0.4,1,1v8.9c0,0.6-0.4,1-1,1H13
	c-0.6,0-1-0.4-1-1V13z M12,26.1c0-0.6,0.4-1,1-1h8.9c0.6,0,1,0.4,1,1V35c0,0.6-0.4,1-1,1H13c-0.6,0-1-0.4-1-1V26.1z M25.1,13
	c0-0.6,0.4-1,1-1H35c0.6,0,1,0.4,1,1v8.9c0,0.6-0.4,1-1,1h-8.9c-0.6,0-1-0.4-1-1V13z M25.1,26.1c0-0.6,0.4-1,1-1H35c0.6,0,1,0.4,1,1
	V35c0,0.6-0.4,1-1,1h-8.9c-0.6,0-1-0.4-1-1V26.1z"/>
</svg>
