<svg xmlns="http://www.w3.org/2000/svg" xmlns:xlink="http://www.w3.org/1999/xlink" width="32" height="32" viewBox="0 0 32 32" aria-labaria-lelledby="title-35">
  <defs>
    <path id="grid-fill-new-a" d="M5.00136329,6 L6.00136329,6 C6.55364804,6 7.00136329,6.44771525 7.00136329,7 L7.00136329,8.15789474 C7.00136329,8.71017949 6.55364804,9.15789474 6.00136329,9.15789474 L5.00136329,9.15789474 C4.44907854,9.15789474 4.00136329,8.71017949 4.00136329,8.15789474 L4.00136329,7 C4.00136329,6.44771525 4.44907854,6 5.00136329,6 Z M15.5,6 L16.5,6 C17.0522847,6 17.5,6.44771525 17.5,7 L17.5,8.15789474 C17.5,8.71017949 17.0522847,9.15789474 16.5,9.15789474 L15.5,9.15789474 C14.9477153,9.15789474 14.5,8.71017949 14.5,8.15789474 L14.5,7 C14.5,6.44771525 14.9477153,6 15.5,6 Z M26,6 L27,6 C27.5522847,6 28,6.44771525 28,7 L28,8.15789474 C28,8.71017949 27.5522847,9.15789474 27,9.15789474 L26,9.15789474 C25.4477153,9.15789474 25,8.71017949 25,8.15789474 L25,7 C25,6.44771525 25.4477153,6 26,6 Z M15.5,14.4210526 L16.5,14.4210526 C17.0522847,14.4210526 17.5,14.8687679 17.5,15.4210526 L17.5,16.5789474 C17.5,17.1312321 17.0522847,17.5789474 16.5,17.5789474 L15.5,17.5789474 C14.9477153,17.5789474 14.5,17.1312321 14.5,16.5789474 L14.5,15.4210526 C14.5,14.8687679 14.9477153,14.4210526 15.5,14.4210526 Z M26,14.4210526 L27,14.4210526 C27.5522847,14.4210526 28,14.8687679 28,15.4210526 L28,16.5789474 C28,17.1312321 27.5522847,17.5789474 27,17.5789474 L26,17.5789474 C25.4477153,17.5789474 25,17.1312321 25,16.5789474 L25,15.4210526 C25,14.8687679 25.4477153,14.4210526 26,14.4210526 Z M15.5,22.8421053 L16.5,22.8421053 C17.0522847,22.8421053 17.5,23.2898205 17.5,23.8421053 L17.5,25 C17.5,25.5522847 17.0522847,26 16.5,26 L15.5,26 C14.9477153,26 14.5,25.5522847 14.5,25 L14.5,23.8421053 C14.5,23.2898205 14.9477153,22.8421053 15.5,22.8421053 Z M26,22.8421053 L27,22.8421053 C27.5522847,22.8421053 28,23.2898205 28,23.8421053 L28,25 C28,25.5522847 27.5522847,26 27,26 L26,26 C25.4477153,26 25,25.5522847 25,25 L25,23.8421053 C25,23.2898205 25.4477153,22.8421053 26,22.8421053 Z M5.00136329,14.4210526 L6.00136329,14.4210526 C6.55364804,14.4210526 7.00136329,14.8687679 7.00136329,15.4210526 L7.00136329,16.5789474 C7.00136329,17.1312321 6.55364804,17.5789474 6.00136329,17.5789474 L5.00136329,17.5789474 C4.44907854,17.5789474 4.00136329,17.1312321 4.00136329,16.5789474 L4.00136329,15.4210526 C4.00136329,14.8687679 4.44907854,14.4210526 5.00136329,14.4210526 Z M5.00136329,22.8421053 L6.00136329,22.8421053 C6.55364804,22.8421053 7.00136329,23.2898205 7.00136329,23.8421053 L7.00136329,25 C7.00136329,25.5522847 6.55364804,26 6.00136329,26 L5.00136329,26 C4.44907854,26 4.00136329,25.5522847 4.00136329,25 L4.00136329,23.8421053 C4.00136329,23.2898205 4.44907854,22.8421053 5.00136329,22.8421053 Z"/>
  </defs>
  <title id="title-35" lang="en">grid view active</title>
  <g fill="none" fill-rule="evenodd">
    <use fill="#384048" xlink:href="#grid-fill-new-a"/>
  </g>
</svg>
