<?xml version="1.0" encoding="UTF-8"?>
<svg width="48px" height="48px" viewBox="0 0 48 48" version="1.1" xmlns="http://www.w3.org/2000/svg" xmlns:xlink="http://www.w3.org/1999/xlink">
    <!-- Generator: Sketch 46.2 (44496) - http://www.bohemiancoding.com/sketch -->
    <title>icon/Action/grid-fill</title>
    <desc>Created with Sketch.</desc>
    <defs>
        <path d="M0,1.00674716 C0,0.450736056 0.441160636,0 1.00674716,0 L9.90234375,0 C10.4583549,0 10.9090909,0.441160636 10.9090909,1.00674716 L10.9090909,9.90234375 C10.9090909,10.4583549 10.4679303,10.9090909 9.90234375,10.9090909 L1.00674716,10.9090909 C0.450736056,10.9090909 0,10.4679303 0,9.90234375 L0,1.00674716 Z M0,14.0976562 C0,13.5416451 0.441160636,13.0909091 1.00674716,13.0909091 L9.90234375,13.0909091 C10.4583549,13.0909091 10.9090909,13.5320697 10.9090909,14.0976562 L10.9090909,22.9932528 C10.9090909,23.5492639 10.4679303,24 9.90234375,24 L1.00674716,24 C0.450736056,24 0,23.5588394 0,22.9932528 L0,14.0976562 Z M13.0909091,1.00674716 C13.0909091,0.450736056 13.5320697,0 14.0976562,0 L22.9932528,0 C23.5492639,0 24,0.441160636 24,1.00674716 L24,9.90234375 C24,10.4583549 23.5588394,10.9090909 22.9932528,10.9090909 L14.0976562,10.9090909 C13.5416451,10.9090909 13.0909091,10.4679303 13.0909091,9.90234375 L13.0909091,1.00674716 Z M13.0909091,14.0976562 C13.0909091,13.5416451 13.5320697,13.0909091 14.0976562,13.0909091 L22.9932528,13.0909091 C23.5492639,13.0909091 24,13.5320697 24,14.0976562 L24,22.9932528 C24,23.5492639 23.5588394,24 22.9932528,24 L14.0976562,24 C13.5416451,24 13.0909091,23.5588394 13.0909091,22.9932528 L13.0909091,14.0976562 Z" id="path-1"></path>
    </defs>
    <g id="Symbols" stroke="none" stroke-width="1" fill="none" fill-rule="evenodd">
        <g id="icon/Action/grid-fill">
            <g id="Icon" transform="translate(12.000000, 12.000000)">
                <mask id="mask-2" fill="white">
                    <use xlink:href="#path-1"></use>
                </mask>
                <use id="Mask" fill="#384048" xlink:href="#path-1"></use>
                <g id="Color/Grayscale/Night-Sky" mask="url(#mask-2)" fill="#111111">
                    <g transform="translate(-12.000000, -12.000000)" id="Swatch">
                        <rect x="0" y="0" width="48" height="48"></rect>
                    </g>
                </g>
            </g>
        </g>
    </g>
</svg>