<?xml version="1.0" encoding="utf-8"?>
<svg version="1.1" id="action-heart-line-Layer_1" xmlns="http://www.w3.org/2000/svg" xmlns:xlink="http://www.w3.org/1999/xlink"
	 x="0px" y="0px" viewBox="0 0 48 48" style="enable-background:new 0 0 48 48;" xml:space="preserve">
<path id="action-heart-line-a_1_" style="fill:#111111;" d="M28.7,13.4c1.3,0,2.8,0.6,3.7,1.6c1.3,1.3,2.1,3.1,2.1,4.9
	c0,1.8-0.7,3.6-2,5l-8.9,9.2c-0.3,0.3-0.5,0.4-0.6,0.5c-0.1,0-0.2-0.1-0.5-0.5l-8.9-9.2c-1.4-1.5-2.1-3.3-2.1-5
	c0-1.7,0.8-3.5,2.3-4.9c1-1,2.3-1.6,3.6-1.6c2.6,0,4.4,2.7,4.4,2.7l1.2,1.8l1.2-1.8C24.2,16.1,26.2,13.4,28.7,13.4 M28.7,12
	c-3.3,0-5.7,3.4-5.7,3.4S20.8,12,17.3,12c-1.7,0-3.4,0.8-4.6,2c-1.6,1.6-2.7,3.6-2.7,5.9s1,4.4,2.5,6l8.9,9.2c0.4,0.5,1,0.9,1.6,0.9
	s1.3-0.4,1.7-0.9l8.9-9.2c1.5-1.6,2.4-3.7,2.3-6c0-2.3-1-4.3-2.5-5.9C32.2,12.8,30.4,12,28.7,12"/>
</svg>
