<?xml version="1.0" encoding="UTF-8"?>
<svg width="48px" height="48px" viewBox="0 0 48 48" version="1.1" xmlns="http://www.w3.org/2000/svg" xmlns:xlink="http://www.w3.org/1999/xlink">
    <!-- Generator: Sketch 46.2 (44496) - http://www.bohemiancoding.com/sketch -->
    <title>icon/Action/heart-fill</title>
    <desc>Created with Sketch.</desc>
    <defs>
        <path d="M18.6518757,0 C15.3606478,0 12.9999524,3.36 12.9999524,3.36 C12.9999524,3.36 10.783814,0 7.3480291,0 C5.62237319,0 3.90706856,0.754846154 2.65372023,2.01888462 C1.12160932,3.56192308 0.0311132223,5.64011538 0.000661178952,7.89473077 C-0.0299112282,10.146 1.00268988,12.2695385 2.48713672,13.8561923 L11.415724,23.0832692 C11.8639588,23.5637308 12.3800788,24 12.9999524,24 C13.619826,24 14.2826695,23.5637308 14.7313858,23.0814231 L23.6617785,13.8542308 C25.1458643,12.2676923 26.0295753,10.1456538 25.9992437,7.89473077 C25.968912,5.63988462 25.0273059,3.56007692 23.4950746,2.01703846 C22.2416059,0.754615385 20.3771706,0 18.6518757,0" id="path-1"></path>
    </defs>
    <g id="Symbols" stroke="none" stroke-width="1" fill="none" fill-rule="evenodd">
        <g id="icon/Action/heart-fill">
            <g id="Icon" transform="translate(11.000000, 12.000000)">
                <mask id="mask-2" fill="white">
                    <use xlink:href="#path-1"></use>
                </mask>
                <use id="Mask" fill="#384048" xlink:href="#path-1"></use>
                <g id="Color/Grayscale/Night-Sky" mask="url(#mask-2)" fill="#111111">
                    <g transform="translate(-11.000000, -12.000000)" id="Swatch">
                        <rect x="0" y="0" width="48" height="48"></rect>
                    </g>
                </g>
            </g>
        </g>
    </g>
</svg>