<?xml version="1.0" encoding="utf-8"?>
<!-- Generator: Adobe Illustrator 21.0.2, SVG Export Plug-In . SVG Version: 6.00 Build 0)  -->
<svg version="1.1" id="action-heart-line-Layer_1" xmlns="http://www.w3.org/2000/svg" xmlns:xlink="http://www.w3.org/1999/xlink" x="0px" y="0px"
	 viewBox="0 0 48 48" style="enable-background:new 0 0 48 48;" xml:space="preserve">
<title>icon/Action/heart-line</title>
<g transform="translate(11 12)">
	<g>
		<path id="action-heart-line-a_1_" style="fill:#384048;" d="M18.7,1.4C20,1.4,21.5,2,22.4,3c1.3,1.3,2.1,3.1,2.1,4.9c0,1.8-0.7,3.6-2,5l-8.9,9.2l0,0
			l0,0c-0.3,0.3-0.5,0.4-0.6,0.5c-0.1,0-0.2-0.1-0.5-0.5l0,0l0,0l-8.9-9.2c-1.4-1.5-2.1-3.3-2.1-5c0-1.7,0.8-3.5,2.3-4.9
			c1-1,2.3-1.6,3.6-1.6c2.6,0,4.4,2.7,4.4,2.7L13,5.9l1.2-1.8C14.2,4.1,16.2,1.4,18.7,1.4 M18.7,0C15.4,0,13,3.4,13,3.4
			S10.8,0,7.3,0C5.6,0,3.9,0.8,2.7,2C1.1,3.6,0,5.6,0,7.9c0,2.3,1,4.4,2.5,6l8.9,9.2c0.4,0.5,1,0.9,1.6,0.9s1.3-0.4,1.7-0.9l8.9-9.2
			c1.5-1.6,2.4-3.7,2.3-6c0-2.3-1-4.3-2.5-5.9C22.2,0.8,20.4,0,18.7,0"/>
	</g>
	<defs>
		<filter id="action-heart-line-Adobe_OpacityMaskFilter" filterUnits="userSpaceOnUse" x="-11" y="-12" width="48" height="48">
			<feColorMatrix  type="matrix" values="1 0 0 0 0  0 1 0 0 0  0 0 1 0 0  0 0 0 1 0"/>
		</filter>
	</defs>
	<mask maskUnits="userSpaceOnUse" x="-11" y="-12" width="48" height="48" id="action-heart-line-b">
		<g style="filter:url(#action-heart-line-Adobe_OpacityMaskFilter);">
			<path id="action-heart-line-a" style="fill:#FFFFFF;" d="M18.7,1.4C20,1.4,21.5,2,22.4,3c1.3,1.3,2.1,3.1,2.1,4.9c0,1.8-0.7,3.6-2,5l-8.9,9.2l0,0
				l0,0c-0.3,0.3-0.5,0.4-0.6,0.5c-0.1,0-0.2-0.1-0.5-0.5l0,0l0,0l-8.9-9.2c-1.4-1.5-2.1-3.3-2.1-5c0-1.7,0.8-3.5,2.3-4.9
				c1-1,2.3-1.6,3.6-1.6c2.6,0,4.4,2.7,4.4,2.7L13,5.9l1.2-1.8C14.2,4.1,16.2,1.4,18.7,1.4 M18.7,0C15.4,0,13,3.4,13,3.4
				S10.8,0,7.3,0C5.6,0,3.9,0.8,2.7,2C1.1,3.6,0,5.6,0,7.9c0,2.3,1,4.4,2.5,6l8.9,9.2c0.4,0.5,1,0.9,1.6,0.9s1.3-0.4,1.7-0.9
				l8.9-9.2c1.5-1.6,2.4-3.7,2.3-6c0-2.3-1-4.3-2.5-5.9C22.2,0.8,20.4,0,18.7,0"/>
		</g>
	</mask>
	<g style="mask:url(#action-heart-line-b);">
		<path style="fill:#111111;" d="M-11-12h48v48h-48V-12z"/>
	</g>
</g>
</svg>
