<svg xmlns="http://www.w3.org/2000/svg" xmlns:xlink="http://www.w3.org/1999/xlink" width="32" height="32" viewBox="0 0 32 32" aria-labaria-lelledby="title-32">
  <defs>
    <path id="heart-line-a" d="M17.2171161,1.26923077 C18.4627148,1.26923077 19.8384176,1.84027885 20.7221472,2.72408654 C21.9528579,3.95492308 22.6432647,5.56335577 22.6661523,7.25323077 C22.6891511,8.94723077 22.0465194,10.5773462 20.856251,11.8447788 L12.6208111,20.2947885 L12.6119227,20.3039904 L12.6031454,20.3132981 C12.3667139,20.5656635 12.119394,20.6987212 12.0132887,20.7264327 C11.9595138,20.7021058 11.8146329,20.6151635 11.5314261,20.3136154 L11.5233154,20.3050481 L11.5150936,20.2965865 L3.28132033,11.8465769 C2.02194455,10.506375 1.31220547,8.83278846 1.33387096,7.25344231 C1.35564755,5.65452885 2.09494057,4.046625 3.41597966,2.72525 C4.33981818,1.799875 5.56697349,1.26923077 6.78279609,1.26923077 C9.16433291,1.26923077 10.8587961,3.73735577 10.8730175,3.75829808 L11.9646247,5.40195192 L13.1057847,3.78907692 C13.1235615,3.76379808 14.9519062,1.26923077 17.2171161,1.26923077 M17.2171161,0 C14.1790595,0 11.9999561,3.08 11.9999561,3.08 C11.9999561,3.08 9.95428984,0 6.78279609,0 C5.18988294,0 3.60652483,0.691942308 2.44958791,1.85064423 C1.03533168,3.26509615 0.0287198975,5.17010577 0.000610319033,7.23683654 C-0.0276103645,9.3005 0.925559888,11.2470769 2.29581851,12.7015096 L10.5375914,21.1596635 C10.9513466,21.6000865 11.4277651,22 11.9999561,22 C12.5721471,22 13.1840026,21.6000865 13.5982023,21.1579712 L21.8416417,12.6997115 C23.211567,11.2453846 24.0273003,9.30018269 23.9993018,7.23683654 C23.9713034,5.16989423 23.1021285,3.26340385 21.6877612,1.84895192 C20.5307132,0.691730769 18.8096959,0 17.2171161,0"/>
  </defs>
  <title id="title-32" lang="en">save(inactive)</title>
  <g fill="none" fill-rule="evenodd" transform="translate(4 5)">
    <use fill="#384048" xlink:href="#heart-line-a"/>
  </g>
</svg>
