<svg id="action-heart-fill-Layer_1" xmlns="http://www.w3.org/2000/svg" viewBox="0 0 48 48" enable-background="new 0 0 48 48"><title>icon/Action/heart-fill</title><g transform="translate(11 12)"><path id="action-heart-fill-a_1_" d="M18.7 0C15.4 0 13 3.4 13 3.4S10.8 0 7.3 0C5.6 0 3.9.8 2.7 2 1.1 3.6 0 5.6 0 7.9c0 2.3 1 4.4 2.5 6l8.9 9.2c.4.5 1 .9 1.6.9s1.3-.4 1.7-.9l8.9-9.2c1.5-1.6 2.4-3.7 2.3-6 0-2.3-1-4.3-2.5-5.9-1.2-1.2-3-2-4.7-2" fill="#384048"/><defs><filter id="action-heart-fill-Adobe_OpacityMaskFilter" filterUnits="userSpaceOnUse" x="-11" y="-12" width="48" height="48"><feColorMatrix values="1 0 0 0 0 0 1 0 0 0 0 0 1 0 0 0 0 0 1 0"/></filter></defs><mask maskUnits="userSpaceOnUse" x="-11" y="-12" width="48" height="48" id="action-heart-fill-b"><g filter="url(#action-heart-fill-Adobe_OpacityMaskFilter)"><path id="action-heart-fill-a" d="M18.7 0C15.4 0 13 3.4 13 3.4S10.8 0 7.3 0C5.6 0 3.9.8 2.7 2 1.1 3.6 0 5.6 0 7.9c0 2.3 1 4.4 2.5 6l8.9 9.2c.4.5 1 .9 1.6.9s1.3-.4 1.7-.9l8.9-9.2c1.5-1.6 2.4-3.7 2.3-6 0-2.3-1-4.3-2.5-5.9-1.2-1.2-3-2-4.7-2" fill="#fff"/></g></mask><g mask="url(#action-heart-fill-b)"><path d="M-11-12h48v48h-48v-48z" fill="#111"/></g></g></svg>