<?xml version="1.0" encoding="utf-8"?>
<svg version="1.1" id="action-heart-fill-Layer_1" xmlns="http://www.w3.org/2000/svg" xmlns:xlink="http://www.w3.org/1999/xlink"
	 x="0px" y="0px" viewBox="0 0 48 48" style="enable-background:new 0 0 48 48;" xml:space="preserve">
<path id="action-heart-fill-a_1_" style="fill:#111111;" d="M29.7,12c-3.3,0-5.7,3.4-5.7,3.4S21.8,12,18.3,12c-1.7,0-3.4,0.8-4.6,2
	c-1.6,1.6-2.7,3.6-2.7,5.9s1,4.4,2.5,6l8.9,9.2c0.4,0.5,1,0.9,1.6,0.9s1.3-0.4,1.7-0.9l8.9-9.2c1.5-1.6,2.4-3.7,2.3-6
	c0-2.3-1-4.3-2.5-5.9C33.2,12.8,31.4,12,29.7,12"/>
</svg>
