<svg xmlns="http://www.w3.org/2000/svg" xmlns:xlink="http://www.w3.org/1999/xlink" width="32" height="32" viewBox="0 0 32 32" aria-labaria-lelledby="title-38">
  <defs>
    <path id="list-line-a" d="M1.09090909,5.45454545 L5.45454545,5.45454545 L5.45454545,1.09090909 L1.09090909,1.09090909 L1.09090909,5.45454545 Z M0,1.08084869 C0,0.483912443 0.491972923,0 1.08084869,0 L5.46460585,0 C6.0615421,0 6.54545455,0.491972923 6.54545455,1.08084869 L6.54545455,5.46460585 C6.54545455,6.0615421 6.05348162,6.54545455 5.46460585,6.54545455 L1.08084869,6.54545455 C0.483912443,6.54545455 0,6.05348162 0,5.46460585 L0,1.08084869 Z M1.09090909,9.81818182 L1.09090909,14.1818182 L5.45454545,14.1818182 L5.45454545,9.81818182 L1.09090909,9.81818182 Z M0,9.80812142 C0,9.21118517 0.491972923,8.72727273 1.08084869,8.72727273 L5.46460585,8.72727273 C6.0615421,8.72727273 6.54545455,9.21924565 6.54545455,9.80812142 L6.54545455,14.1918786 C6.54545455,14.7888148 6.05348162,15.2727273 5.46460585,15.2727273 L1.08084869,15.2727273 C0.483912443,15.2727273 0,14.7807543 0,14.1918786 L0,9.80812142 Z M22.9090909,5.46460585 L22.9090909,5.45861156 C22.9091744,5.46005266 22.9090909,5.46199436 22.9090909,5.46460585 Z M9.81818182,5.46460585 C9.81818182,5.45108314 22.9016231,5.45454545 22.9016231,5.45454545 C22.9076573,5.45454545 22.9090909,1.08084869 22.9090909,1.08084869 C22.9090909,1.09437141 9.82564961,1.09090909 9.82564961,1.09090909 C9.81961539,1.09090909 9.81818182,5.46460585 9.81818182,5.46460585 Z M8.72727273,1.08084869 C8.72727273,0.483912443 9.21812592,0 9.82564961,0 L22.9016231,0 C23.5082399,0 24,0.491972923 24,1.08084869 L24,5.46460585 C24,6.0615421 23.5091468,6.54545455 22.9016231,6.54545455 L9.82564961,6.54545455 C9.21903281,6.54545455 8.72727273,6.05348162 8.72727273,5.46460585 L8.72727273,1.08084869 Z M22.9090909,14.1918786 L22.9090909,14.1858843 C22.9091744,14.1873254 22.9090909,14.1892671 22.9090909,14.1918786 Z M9.81818182,14.1918786 C9.81818182,14.1783559 22.9016231,14.1818182 22.9016231,14.1818182 C22.9076573,14.1818182 22.9090909,9.80812142 22.9090909,9.80812142 C22.9090909,9.82164414 9.82564961,9.81818182 9.82564961,9.81818182 C9.81961539,9.81818182 9.81818182,14.1918786 9.81818182,14.1918786 Z M8.72727273,9.80812142 C8.72727273,9.21118517 9.21812592,8.72727273 9.82564961,8.72727273 L22.9016231,8.72727273 C23.5082399,8.72727273 24,9.21924565 24,9.80812142 L24,14.1918786 C24,14.7888148 23.5091468,15.2727273 22.9016231,15.2727273 L9.82564961,15.2727273 C9.21903281,15.2727273 8.72727273,14.7807543 8.72727273,14.1918786 L8.72727273,9.80812142 Z M1.09090909,22.9090909 L5.45454545,22.9090909 L5.45454545,18.5454545 L1.09090909,18.5454545 L1.09090909,22.9090909 Z M0,18.5353941 C0,17.9384579 0.491972923,17.4545455 1.08084869,17.4545455 L5.46460585,17.4545455 C6.0615421,17.4545455 6.54545455,17.9465184 6.54545455,18.5353941 L6.54545455,22.9191513 C6.54545455,23.5160876 6.05348162,24 5.46460585,24 L1.08084869,24 C0.483912443,24 0,23.5080271 0,22.9191513 L0,18.5353941 Z M22.9090909,22.9191513 L22.9090909,22.913157 C22.9091744,22.9145981 22.9090909,22.9165398 22.9090909,22.9191513 Z M9.81818182,18.5353941 L9.81818182,18.5413884 C9.81809835,18.5399473 9.81818182,18.5380056 9.81818182,18.5353941 Z M9.81818182,22.9191513 C9.81818182,22.9056286 22.9016231,22.9090909 22.9016231,22.9090909 C22.9076573,22.9090909 22.9090909,18.5353941 22.9090909,18.5353941 C22.9090909,18.5489169 9.82564961,18.5454545 9.82564961,18.5454545 C9.81961539,18.5454545 9.81818182,22.9191513 9.81818182,22.9191513 Z M8.72727273,18.5353941 C8.72727273,17.9384579 9.21812592,17.4545455 9.82564961,17.4545455 L22.9016231,17.4545455 C23.5082399,17.4545455 24,17.9465184 24,18.5353941 L24,22.9191513 C24,23.5160876 23.5091468,24 22.9016231,24 L9.82564961,24 C9.21903281,24 8.72727273,23.5080271 8.72727273,22.9191513 L8.72727273,18.5353941 Z"/>
  </defs>
  <title id="title-37" lang="en">list view inactive</title>
  <g fill="none" fill-rule="evenodd" transform="translate(4 4)">
    <use fill="#384048" fill-rule="nonzero" xlink:href="#list-line-a"/>
  </g>
</svg>
