<?xml version="1.0" encoding="utf-8"?>
<svg version="1.1" id="action-list-line-Layer_1" xmlns="http://www.w3.org/2000/svg" xmlns:xlink="http://www.w3.org/1999/xlink"
	 x="0px" y="0px" viewBox="0 0 48 48" style="enable-background:new 0 0 48 48;" xml:space="preserve">
<path id="action-list-line-a_1_" style="fill:#111111;" d="M13.1,17.5h4.4v-4.4h-4.4V17.5z M12,13.1c0-0.6,0.5-1.1,1.1-1.1h4.4
	c0.6,0,1.1,0.5,1.1,1.1v4.4c0,0.6-0.5,1.1-1.1,1.1h-4.4c-0.6-0.1-1.1-0.5-1.1-1.1V13.1z M13.1,21.8v4.4h4.4v-4.4H13.1z M12,21.8
	c0-0.6,0.5-1.1,1.1-1.1h4.4c0.6,0,1.1,0.5,1.1,1.1v4.4c0,0.6-0.5,1.1-1.1,1.1h-4.4c-0.6,0-1.1-0.5-1.1-1.1V21.8z M21.8,17.5h13.1
	v-4.4H21.8C21.8,13.1,21.8,17.5,21.8,17.5z M20.7,13.1c0-0.6,0.5-1.1,1.1-1.1h13.1c0.6,0,1.1,0.5,1.1,1.1v4.4c0,0.6-0.5,1.1-1.1,1.1
	H21.8c-0.6,0-1.1-0.5-1.1-1.1V13.1z M21.8,26.2h13.1v-4.4H21.8C21.8,21.8,21.8,26.2,21.8,26.2z M20.7,21.8c0-0.6,0.5-1.1,1.1-1.1
	h13.1c0.6,0,1.1,0.5,1.1,1.1v4.4c0,0.6-0.5,1.1-1.1,1.1H21.8c-0.6,0-1.1-0.5-1.1-1.1V21.8z M13.1,34.9h4.4v-4.4h-4.4V34.9z M12,30.5
	c0-0.6,0.5-1.1,1.1-1.1h4.4c0.6,0,1.1,0.5,1.1,1.1v4.4c0,0.6-0.5,1.1-1.1,1.1h-4.4c-0.6,0-1.1-0.5-1.1-1.1V30.5z M21.8,34.9h13.1
	v-4.4H21.8V34.9z M20.7,30.5c0-0.6,0.5-1.1,1.1-1.1h13.1c0.6,0,1.1,0.5,1.1,1.1v4.4c0,0.6-0.5,1.1-1.1,1.1H21.8
	c-0.6,0-1.1-0.5-1.1-1.1V30.5z"/>
</svg>
