<svg id="action-mail-Layer_1" xmlns="http://www.w3.org/2000/svg" viewBox="0 0 48 48" enable-background="new 0 0 48 48"><title>icon/Action/mail</title><g transform="translate(11 14)"><path id="action-mail-a_1_" d="M12.2 9.3l-9.9-8L.8.2c.2-.1.4-.2.5-.2h23.1c.1 0 .4 0 .7.1l-1.6 1.2-9.8 8c-.1.1-.5.2-.8.2s-.5 0-.7-.2zM26 1.2v16.5c0 1.4-.9 2.3-2.2 2.3H2.2C.9 20 0 19.1 0 17.7V1.3l1.5 1.2 9.9 8c.5.4 1.1.5 1.5.5.4 0 1.1-.2 1.5-.5l9.8-8L26 1.2z" fill="#384048"/><defs><filter id="action-mail-Adobe_OpacityMaskFilter" filterUnits="userSpaceOnUse" x="-11" y="-14" width="48" height="48"><feColorMatrix values="1 0 0 0 0 0 1 0 0 0 0 0 1 0 0 0 0 0 1 0"/></filter></defs><mask maskUnits="userSpaceOnUse" x="-11" y="-14" width="48" height="48" id="action-mail-b"><g filter="url(#action-mail-Adobe_OpacityMaskFilter)"><path id="action-mail-a" d="M12.2 9.3l-9.9-8L.8.2c.2-.1.4-.2.5-.2h23.1c.1 0 .4 0 .7.1l-1.6 1.2-9.8 8c-.1.1-.5.2-.8.2s-.5 0-.7-.2zM26 1.2v16.5c0 1.4-.9 2.3-2.2 2.3H2.2C.9 20 0 19.1 0 17.7V1.3l1.5 1.2 9.9 8c.5.4 1.1.5 1.5.5.4 0 1.1-.2 1.5-.5l9.8-8L26 1.2z" fill="#fff"/></g></mask><g mask="url(#action-mail-b)"><path d="M-11-14h48v48h-48v-48z" fill="#111"/></g></g></svg>