<?xml version="1.0" encoding="utf-8"?>
<!-- Generator: Adobe Illustrator 21.0.2, SVG Export Plug-In . SVG Version: 6.00 Build 0)  -->
<svg version="1.1" id="action-mail-Layer_1" xmlns="http://www.w3.org/2000/svg" xmlns:xlink="http://www.w3.org/1999/xlink" x="0px" y="0px"
	 viewBox="0 0 48 48" style="enable-background:new 0 0 48 48;" xml:space="preserve">
<title>icon/Action/mail</title>
<g transform="translate(11 14)">
	<g>
		<path id="action-mail-a_1_" style="fill:#384048;" d="M12.2,9.3l-9.9-8L0.8,0.2C1,0.1,1.2,0,1.3,0h23.1c0.1,0,0.4,0,0.7,0.1l-1.6,1.2l-9.8,8
			c-0.1,0.1-0.5,0.2-0.8,0.2S12.4,9.5,12.2,9.3z M26,1.2C26,1.2,26,1.2,26,1.2c0,0.1,0,0.1,0,0.1v0.2l0,16.2c0,1.4-0.9,2.3-2.2,2.3
			H2.2C0.9,20,0,19.1,0,17.7L0,1.5V1.3c0,0,0,0,0,0l1.5,1.2l0,0l0,0l9.9,8l0,0l0,0c0.5,0.4,1.1,0.5,1.5,0.5c0.4,0,1.1-0.2,1.5-0.5
			l0,0l0,0l9.8-8L26,1.2L26,1.2z"/>
	</g>
	<defs>
		<filter id="action-mail-Adobe_OpacityMaskFilter" filterUnits="userSpaceOnUse" x="-11" y="-14" width="48" height="48">
			<feColorMatrix  type="matrix" values="1 0 0 0 0  0 1 0 0 0  0 0 1 0 0  0 0 0 1 0"/>
		</filter>
	</defs>
	<mask maskUnits="userSpaceOnUse" x="-11" y="-14" width="48" height="48" id="action-mail-b">
		<g style="filter:url(#action-mail-Adobe_OpacityMaskFilter);">
			<path id="action-mail-a" style="fill:#FFFFFF;" d="M12.2,9.3l-9.9-8L0.8,0.2C1,0.1,1.2,0,1.3,0h23.1c0.1,0,0.4,0,0.7,0.1l-1.6,1.2l-9.8,8
				c-0.1,0.1-0.5,0.2-0.8,0.2S12.4,9.5,12.2,9.3z M26,1.2C26,1.2,26,1.2,26,1.2c0,0.1,0,0.1,0,0.1v0.2l0,16.2c0,1.4-0.9,2.3-2.2,2.3
				H2.2C0.9,20,0,19.1,0,17.7L0,1.5V1.3c0,0,0,0,0,0l1.5,1.2l0,0l0,0l9.9,8l0,0l0,0c0.5,0.4,1.1,0.5,1.5,0.5c0.4,0,1.1-0.2,1.5-0.5
				l0,0l0,0l9.8-8L26,1.2L26,1.2z"/>
		</g>
	</mask>
	<g style="mask:url(#action-mail-b);">
		<path style="fill:#111111;" d="M-11-14h48v48h-48V-14z"/>
	</g>
</g>
</svg>
