<svg xmlns="http://www.w3.org/2000/svg" xmlns:xlink="http://www.w3.org/1999/xlink" width="32" height="32" viewBox="0 0 32 32">
  <defs>
    <path id="print-a" d="M21.4,2.30769231 C22.9309,2.30769231 24,3.33567308 24,4.80769231 L24,12.1153846 C24,13.5874038 22.9309,14.6153846 21.4,14.6153846 L20.5885,14.6153846 L20.9,18.0769231 C20.9,19.2307692 20.1,20 18.9,20 L5.1,20 C3.9,20 3.1,19.2307692 3.1,18.0769231 L3.4086,14.6153846 L2.6,14.6153846 C1.0691,14.6153846 0,13.5874038 0,12.1153846 L0,4.71153846 C0,3.31865385 1.0935,2.30769231 2.6,2.30769231 L21.4,2.30769231 Z M18.9,18.8461538 C19.4232,18.8461538 19.6851,18.6084615 19.6994,18.1199038 L18.8045,8.17644231 C18.8015,8.14326923 18.8,8.11009615 18.8,8.07692308 C18.8,7.55932692 18.5383,7.30769231 18,7.30769231 L6,7.30769231 C5.7012,7.30769231 5.2,7.39509615 5.2,7.98076923 C5.2,8.01365385 5.1985,8.04653846 5.1956,8.07932692 L4.3006,18.1194231 C4.3147,18.6083654 4.5766,18.8461538 5.1,18.8461538 L18.9,18.8461538 Z M6.6,1.15384615 C6.2686,1.15384615 6,0.895576923 6,0.576923077 C6,0.258269231 6.2686,0 6.6,0 L17.4,0 C17.7314,0 18,0.258269231 18,0.576923077 C18,0.895576923 17.7314,1.15384615 17.4,1.15384615 L6.6,1.15384615 Z M7.8,11.9230769 C7.4687,11.9230769 7.2,11.6647115 7.2,11.3461538 C7.2,11.0275962 7.4687,10.7692308 7.8,10.7692308 L16.2,10.7692308 C16.5314,10.7692308 16.8,11.0275962 16.8,11.3461538 C16.8,11.6647115 16.5314,11.9230769 16.2,11.9230769 L7.8,11.9230769 Z M16.6,15 C16.9314,15 17.2,15.2583654 17.2,15.5769231 C17.2,15.8955769 16.9314,16.1538462 16.6,16.1538462 L7.4,16.1538462 C7.0687,16.1538462 6.8,15.8955769 6.8,15.5769231 C6.8,15.2583654 7.0687,15 7.4,15 L16.6,15 Z"/>
  </defs>
  <g fill="none" fill-rule="evenodd" transform="translate(4 6)">
    <use fill="#384048" xlink:href="#print-a"/>
  </g>
</svg>
