<?xml version="1.0" encoding="UTF-8"?>
<svg width="48px" height="48px" viewBox="0 0 48 48" version="1.1" xmlns="http://www.w3.org/2000/svg" xmlns:xlink="http://www.w3.org/1999/xlink">
    <!-- Generator: Sketch 46.2 (44496) - http://www.bohemiancoding.com/sketch -->
    <title>icon/Action/print</title>
    <desc>Created with Sketch.</desc>
    <defs>
        <path d="M23.1833333,2.53846154 C24.8418083,2.53846154 26,3.66924038 26,5.28846154 L26,13.3269231 C26,14.9461442 24.8418083,16.0769231 23.1833333,16.0769231 L22.3042083,16.0769231 L22.6416667,19.8846154 C22.6416667,21.1538462 21.775,22 20.475,22 L5.525,22 C4.225,22 3.35833333,21.1538462 3.35833333,19.8846154 L3.69265,16.0769231 L2.81666667,16.0769231 C1.15819167,16.0769231 0,14.9461442 0,13.3269231 L0,5.18269231 C0,3.65051923 1.184625,2.53846154 2.81666667,2.53846154 L23.1833333,2.53846154 Z M20.475,20.7307692 C21.0418,20.7307692 21.325525,20.4693077 21.3410167,19.9318942 L20.3715417,8.99408654 C20.3682917,8.95759615 20.3666667,8.92110577 20.3666667,8.88461538 C20.3666667,8.31525962 20.0831583,8.03846154 19.5,8.03846154 L6.5,8.03846154 C6.1763,8.03846154 5.63333333,8.13460577 5.63333333,8.77884615 C5.63333333,8.81501923 5.63170833,8.85119231 5.62856667,8.88725962 L4.65898333,19.9313654 C4.67425833,20.4692019 4.95798333,20.7307692 5.525,20.7307692 L20.475,20.7307692 Z M7.15,1.26923077 C6.79098333,1.26923077 6.5,0.985134615 6.5,0.634615385 C6.5,0.284096154 6.79098333,0 7.15,0 L18.85,0 C19.2090167,0 19.5,0.284096154 19.5,0.634615385 C19.5,0.985134615 19.2090167,1.26923077 18.85,1.26923077 L7.15,1.26923077 Z M8.45,13.1153846 C8.09109167,13.1153846 7.8,12.8311827 7.8,12.4807692 C7.8,12.1303558 8.09109167,11.8461538 8.45,11.8461538 L17.55,11.8461538 C17.9090167,11.8461538 18.2,12.1303558 18.2,12.4807692 C18.2,12.8311827 17.9090167,13.1153846 17.55,13.1153846 L8.45,13.1153846 Z M17.9833333,16.5 C18.34235,16.5 18.6333333,16.7842019 18.6333333,17.1346154 C18.6333333,17.4851346 18.34235,17.7692308 17.9833333,17.7692308 L8.01666667,17.7692308 C7.65775833,17.7692308 7.36666667,17.4851346 7.36666667,17.1346154 C7.36666667,16.7842019 7.65775833,16.5 8.01666667,16.5 L17.9833333,16.5 Z" id="path-1"></path>
    </defs>
    <g id="Symbols" stroke="none" stroke-width="1" fill="none" fill-rule="evenodd">
        <g id="icon/Action/print">
            <g id="Icon" transform="translate(11.000000, 13.000000)">
                <mask id="mask-2" fill="white">
                    <use xlink:href="#path-1"></use>
                </mask>
                <use id="Mask" fill="#384048" xlink:href="#path-1"></use>
                <g id="Color/Grayscale/Night-Sky" mask="url(#mask-2)" fill="#111111">
                    <g transform="translate(-11.000000, -13.000000)" id="Swatch">
                        <rect x="0" y="0" width="48" height="48"></rect>
                    </g>
                </g>
            </g>
        </g>
    </g>
</svg>