<?xml version="1.0" encoding="utf-8"?>
<svg version="1.1" id="action-search-Layer_1" xmlns="http://www.w3.org/2000/svg" xmlns:xlink="http://www.w3.org/1999/xlink"
	 x="0px" y="0px" viewBox="0 0 48 48" style="enable-background:new 0 0 48 48;" xml:space="preserve">
<path id="action-search-a_1_" style="fill:#111111;" d="M35.6,32.9c-0.7-0.6-5.9-5.7-7.1-6.9c1-1.5,1.6-3.3,1.6-5.1c0-5-4-9-9-9
	C16,12,12,16,12,21s4,9,9,9c1.7,0,3.4-0.5,4.8-1.4c1.1,1.1,6.4,6.3,7.1,7c0.3,0.3,0.7,0.4,1.1,0.4c0.5,0,1-0.2,1.4-0.7
	C36.1,34.6,36.2,33.5,35.6,32.9z M14.2,21c0-3.7,3.1-6.8,6.8-6.8c3.8,0,6.8,3.1,6.8,6.8s-3.1,6.8-6.8,6.8
	C17.2,27.8,14.2,24.7,14.2,21z"/>
</svg>
