<svg id="action-search-Layer_1" xmlns="http://www.w3.org/2000/svg" viewBox="0 0 48 48" enable-background="new 0 0 48 48"><title>icon/Action/search</title><g transform="translate(12 12)"><path id="action-search-a_1_" d="M23.6 20.9c-.7-.6-5.9-5.7-7.1-6.9 1-1.5 1.6-3.3 1.6-5.1 0-5-4-9-9-9C4 0 0 4 0 9s4 9 9 9c1.7 0 3.4-.5 4.8-1.4 1.1 1.1 6.4 6.3 7.1 7 .3.3.7.4 1.1.4.5 0 1-.2 1.4-.7.7-.7.8-1.8.2-2.4zM2.2 9c0-3.7 3.1-6.8 6.8-6.8 3.8 0 6.8 3.1 6.8 6.8 0 3.7-3.1 6.8-6.8 6.8-3.8 0-6.8-3.1-6.8-6.8z" fill="#384048"/><defs><filter id="action-search-Adobe_OpacityMaskFilter" filterUnits="userSpaceOnUse" x="-12" y="-12" width="48" height="48"><feColorMatrix values="1 0 0 0 0 0 1 0 0 0 0 0 1 0 0 0 0 0 1 0"/></filter></defs><mask maskUnits="userSpaceOnUse" x="-12" y="-12" width="48" height="48" id="action-search-b"><g filter="url(#action-search-Adobe_OpacityMaskFilter)"><path id="action-search-a" d="M23.6 20.9c-.7-.6-5.9-5.7-7.1-6.9 1-1.5 1.6-3.3 1.6-5.1 0-5-4-9-9-9C4 0 0 4 0 9s4 9 9 9c1.7 0 3.4-.5 4.8-1.4 1.1 1.1 6.4 6.3 7.1 7 .3.3.7.4 1.1.4.5 0 1-.2 1.4-.7.7-.7.8-1.8.2-2.4zM2.2 9c0-3.7 3.1-6.8 6.8-6.8 3.8 0 6.8 3.1 6.8 6.8 0 3.7-3.1 6.8-6.8 6.8-3.8 0-6.8-3.1-6.8-6.8z" fill="#fff"/></g></mask><g mask="url(#action-search-b)"><path d="M-12-12h48v48h-48v-48z" fill="#111"/></g></g></svg>