  
<svg xmlns="http://www.w3.org/2000/svg" xmlns:xlink="http://www.w3.org/1999/xlink" width="32" height="32" viewBox="0 0 32 32" aria-labaria-lelledby="title-38">
  <defs>
    <path id="search-a" d="M23.5584432,20.9262503 C22.8820828,20.3011062 17.6750661,15.2434893 16.4436724,14.0470154 C17.4291799,12.6056695 18.0062622,10.8639087 18.0062622,8.9870938 C18.0061468,4.02362295 13.9753437,0 9.00313111,0 C4.03080304,0 0,4.02362295 0,8.9870938 C0,13.9505646 4.03080304,17.9741876 9.00313111,17.9741876 C10.7657777,17.9741876 12.4088289,17.4665822 13.7973359,16.5926481 C14.9169842,17.7013137 20.1716774,22.9006684 20.8882108,23.5564646 C21.213404,23.8538834 21.6046287,24 22.0038187,24 C22.4999779,23.9998848 23.0081428,23.7741415 23.4156444,23.3326803 C24.136449,22.55174 24.1978629,21.5171699 23.5584432,20.9262503 L23.5584432,20.9262503 Z M2.1921972,8.9870938 C2.1921972,5.23822287 5.24757038,2.18829223 9.00313111,2.18829223 C12.7586918,2.18829223 15.814065,5.23822287 15.814065,8.9870938 C15.814065,12.7359647 12.7586918,15.7858954 9.00313111,15.7858954 C5.24757038,15.7858954 2.1921972,12.7359647 2.1921972,8.9870938 L2.1921972,8.9870938 Z"/>
  </defs>
  <title id="title-38" lang="en">indicate search capability</title>
  <g fill="none" fill-rule="evenodd" transform="translate(4 4)">
    <use fill="#384048" xlink:href="#search-a"/>
  </g>
</svg>
