<svg id="action-settings-Layer_1" xmlns="http://www.w3.org/2000/svg" viewBox="0 0 48 48" enable-background="new 0 0 48 48"><title>icon/Action/settings</title><g transform="translate(12 12)"><path id="action-settings-a_1_" d="M23.7 10.7c-.1-.9-.6-1.4-1.5-1.5h-1.4c-.2 0-.2-.1-.3-.2 0-.1-.1-.2-.1-.3-.1-.3-.2-.6-.4-.9-.1-.1-.1-.2.1-.4l.4-.4.6-.6c.5-.6.5-1.4-.1-2l-1.8-1.8c-.3-.3-.6-.4-1-.4-.3 0-.7.1-.9.4-.1.1-.3.3-.5.4-.2.2-.5.4-.7.5-.1.1-.1.1-.2.1h-.1c-.4-.1-.8-.3-1.3-.5-.1 0-.1 0-.1-.2v-.4-1c.1-.9-.5-1.5-1.3-1.5h-2.5c-.8 0-1.4.6-1.4 1.5 0 .4 0 1-.1 1.4 0 .1-.1.2-.2.2l-.3.2-.9.3h-.1s-.1 0-.2-.1c-.3-.3-.7-.7-1-.9-.3-.2-.6-.3-.9-.4-.4 0-.7.2-1 .4-.6.7-1.2 1.3-1.8 1.9-.6.6-.6 1.3-.1 2 .2.1.4.3.5.5l.4.4c.1.2.1.2.1.3-.1.3-.3.7-.4 1l-.1.3c-.1.1-.1.2-.3.2H1.4c-.8.1-1.4.6-1.4 1.5v2.4c0 .9.6 1.5 1.5 1.5h1.3c.2 0 .2.1.2.2l.1.3c.1.3.3.6.4.9.1.1.1.2-.1.4l-.2.2c-.2.3-.5.6-.7.8-.5.6-.5 1.4.1 1.9l1.8 1.8c.3.3.6.4 1 .4.3 0 .7-.1.9-.4.4-.3.8-.8 1-.9.1-.1.1-.1.2-.1h.1c.5.2.9.4 1.3.6 0 0 .1 0 .1.2v1.5c0 .8.6 1.4 1.4 1.4H13c.8 0 1.3-.6 1.4-1.4 0-.4.1-1 .1-1.4 0-.2 0-.2.2-.3l.4-.2c.3-.1.5-.2.8-.3h.1s.1 0 .2.1c.3.3.6.6.9.8.3.3.7.5 1.1.5.4 0 .7-.1.9-.4l1.8-1.8c.6-.6.5-1.4-.1-2.1-.1-.2-.3-.3-.4-.5l-.4-.4c-.1-.1-.1-.2-.1-.3.2-.4.3-.8.5-1.2.1-.1.1-.2.3-.2H22.1c.8-.1 1.4-.6 1.4-1.4 0-.3 0-.6.1-.9V12c.2 0 .1-1.3.1-1.3zm-11.8 5.8c-2.5 0-4.6-2.1-4.6-4.6s2-4.6 4.6-4.6 4.6 2.1 4.6 4.6-2.1 4.6-4.6 4.6z" fill="#384048"/><defs><filter id="action-settings-Adobe_OpacityMaskFilter" filterUnits="userSpaceOnUse" x="-12" y="-12" width="48" height="48"><feColorMatrix values="1 0 0 0 0 0 1 0 0 0 0 0 1 0 0 0 0 0 1 0"/></filter></defs><mask maskUnits="userSpaceOnUse" x="-12" y="-12" width="48" height="48" id="action-settings-b"><g filter="url(#action-settings-Adobe_OpacityMaskFilter)"><path id="action-settings-a" d="M23.7 10.7c-.1-.9-.6-1.4-1.5-1.5h-1.4c-.2 0-.2-.1-.3-.2 0-.1-.1-.2-.1-.3-.1-.3-.2-.6-.4-.9-.1-.1-.1-.2.1-.4l.4-.4.6-.6c.5-.6.5-1.4-.1-2l-1.8-1.8c-.3-.3-.6-.4-1-.4-.3 0-.7.1-.9.4-.1.1-.3.3-.5.4-.2.2-.5.4-.7.5-.1.1-.1.1-.2.1h-.1c-.4-.1-.8-.3-1.3-.5-.1 0-.1 0-.1-.2v-.4-1c.1-.9-.5-1.5-1.3-1.5h-2.5c-.8 0-1.4.6-1.4 1.5 0 .4 0 1-.1 1.4 0 .1-.1.2-.2.2l-.3.2-.9.3h-.1s-.1 0-.2-.1c-.3-.3-.7-.7-1-.9-.3-.2-.6-.3-.9-.4-.4 0-.7.2-1 .4-.6.7-1.2 1.3-1.8 1.9-.6.6-.6 1.3-.1 2 .2.1.4.3.5.5l.4.4c.1.2.1.2.1.3-.1.3-.3.7-.4 1l-.1.3c-.1.1-.1.2-.3.2H1.4c-.8.1-1.4.6-1.4 1.5v2.4c0 .9.6 1.5 1.5 1.5h1.3c.2 0 .2.1.2.2l.1.3c.1.3.3.6.4.9.1.1.1.2-.1.4l-.2.2c-.2.3-.5.6-.7.8-.5.6-.5 1.4.1 1.9l1.8 1.8c.3.3.6.4 1 .4.3 0 .7-.1.9-.4.4-.3.8-.8 1-.9.1-.1.1-.1.2-.1h.1c.5.2.9.4 1.3.6 0 0 .1 0 .1.2v1.5c0 .8.6 1.4 1.4 1.4H13c.8 0 1.3-.6 1.4-1.4 0-.4.1-1 .1-1.4 0-.2 0-.2.2-.3l.4-.2c.3-.1.5-.2.8-.3h.1s.1 0 .2.1c.3.3.6.6.9.8.3.3.7.5 1.1.5.4 0 .7-.1.9-.4l1.8-1.8c.6-.6.5-1.4-.1-2.1-.1-.2-.3-.3-.4-.5l-.4-.4c-.1-.1-.1-.2-.1-.3.2-.4.3-.8.5-1.2.1-.1.1-.2.3-.2H22.1c.8-.1 1.4-.6 1.4-1.4 0-.3 0-.6.1-.9V12c.2 0 .1-1.3.1-1.3zm-11.8 5.8c-2.5 0-4.6-2.1-4.6-4.6s2-4.6 4.6-4.6 4.6 2.1 4.6 4.6-2.1 4.6-4.6 4.6z" fill="#fff"/></g></mask><g mask="url(#action-settings-b)"><path d="M-12-12h48v48h-48v-48z" fill="#111"/></g></g></svg>