<svg xmlns="http://www.w3.org/2000/svg" xmlns:xlink="http://www.w3.org/1999/xlink" width="32" height="32" viewBox="0 0 32 32" aria-labaria-lelledby="title-39">
  <defs>
    <path id="settings-a" d="M23.692158,10.7169046 C23.6303294,9.79767012 23.1178722,9.28322036 22.2098722,9.22924907 C21.988958,9.21615816 21.6975294,9.20513424 21.4154722,9.19445481 C21.2115865,9.18676103 21.0135294,9.17929692 20.856158,9.17148831 C20.694558,9.16356486 20.6502151,9.12015816 20.5991294,8.99395721 C20.5571865,8.89060792 20.5158151,8.78691414 20.474558,8.6833352 C20.3614151,8.39969883 20.2443865,8.10653137 20.1154722,7.81692371 C20.056158,7.68371797 20.0462151,7.6079285 20.1995865,7.44050266 C20.3008437,7.33026343 20.4616437,7.18006247 20.6171865,7.03479931 C20.8277008,6.83820601 21.0453008,6.63495242 21.2048437,6.45053137 C21.7517008,5.81768926 21.7306722,5.087584 21.1485008,4.49757443 C20.5509008,3.89194764 19.9514722,3.28815816 19.3507865,2.68563185 C19.0654151,2.399584 18.7223294,2.24846438 18.3583294,2.24846438 C18.0222151,2.24846438 17.6970722,2.37960314 17.4178722,2.62787108 C17.2914722,2.74040697 17.1042722,2.88842611 16.9232437,3.03162228 C16.6912437,3.2152395 16.4511294,3.40517252 16.2709008,3.57202419 C16.1784437,3.65757443 16.1235865,3.65757443 16.1055294,3.65757443 C16.0778722,3.65757443 16.044958,3.65045481 16.0077008,3.63656008 C15.6170722,3.49037826 15.202558,3.31560314 14.7031294,3.0863974 C14.6522722,3.06308639 14.6082722,3.04287587 14.6016437,2.88337347 C14.5962722,2.75659835 14.5907865,2.60582323 14.584958,2.44666534 C14.5728437,2.11411032 14.5590151,1.73700027 14.5429008,1.46461749 C14.4911294,0.592119886 13.9378722,0.0369045746 13.0991294,0.0156605555 C12.2803865,-0.00512413352 11.4408437,-0.00523896606 10.6061008,0.0154308904 C9.77284367,0.0357562493 9.20415796,0.604062469 9.15718653,1.46346917 C9.1366151,1.84149788 9.11044367,2.46078974 9.10232939,2.84260792 C9.0982151,3.03162228 9.04952939,3.07089501 8.93090081,3.12119166 C8.82084367,3.16781367 8.71090081,3.21489501 8.60095796,3.26209118 C8.31638653,3.38404333 8.0222151,3.51012945 7.7342151,3.62289501 C7.68198653,3.6433352 7.63467224,3.65412945 7.59730081,3.65412945 C7.57318653,3.65412945 7.51638653,3.65412945 7.41730081,3.5611151 C7.12724367,3.28896199 6.7094151,2.90656965 6.40107224,2.63131606 C6.12015796,2.38040697 5.79318653,2.24789022 5.45558653,2.24789022 C5.09307224,2.24789022 4.75112939,2.39843568 4.46724367,2.6829907 C3.86610081,3.28517252 3.26678653,3.88919166 2.66918653,4.49481845 C2.08655796,5.08517252 2.06324367,5.81470362 2.60655796,6.4463974 C2.76210081,6.62725864 2.95570081,6.83981367 3.14290081,7.0453639 C3.27832939,7.19407204 3.4110151,7.33967969 3.52187224,7.46553615 C3.65890081,7.62090457 3.64050081,7.68440697 3.59307224,7.79234955 C3.45067224,8.11594764 3.3198151,8.44459835 3.19330081,8.76233998 L3.10152939,8.99211989 C3.04975796,9.12119166 3.00324367,9.16528735 2.82907224,9.17240697 C2.72450081,9.1767706 2.60187224,9.18124907 2.47124367,9.18595721 C2.12964367,9.19847395 1.74244367,9.21259835 1.46518653,9.23108639 C0.563472243,9.29102898 0.0346722427,9.83315338 0.0143293856,10.7182826 C-0.00464204298,11.5426653 -0.0047563287,12.3614213 0.0138722427,13.1518137 C0.035357957,14.0626653 0.581300814,14.6113352 1.51192939,14.6570385 C1.66655796,14.6645027 1.8598151,14.6715074 2.06015796,14.6786271 C2.34404367,14.6888472 2.63764367,14.6992969 2.84815796,14.7125027 C3.01478653,14.7232969 3.05295796,14.7741677 3.09547224,14.8798137 L3.19912939,15.13945 C3.32198653,15.4480051 3.44907224,15.7670098 3.58895796,16.0813065 C3.64107224,16.1984357 3.66095796,16.26745 3.50552939,16.438895 L3.30495796,16.6593735 C3.06907224,16.9180912 2.80175796,17.2113735 2.60015796,17.4451725 C2.06838653,18.0620529 2.09044367,18.8030673 2.6574151,19.3791821 C3.2358151,19.9666653 3.83010081,20.565517 4.4742151,21.2097275 C4.75010081,21.4855553 5.09855796,21.6375936 5.45558653,21.6375936 C5.7902151,21.6375936 6.11238653,21.5089811 6.38724367,21.2655362 C6.75227224,20.9420529 7.23272939,20.4958137 7.42244367,20.3190864 C7.48770081,20.2582251 7.54587224,20.2273352 7.59512939,20.2273352 C7.62015796,20.2273352 7.64987224,20.233651 7.68312939,20.2459381 C8.16210081,20.424273 8.62198653,20.6294787 9.0086151,20.8067802 C9.0494151,20.825383 9.09170081,20.8447897 9.09958653,20.9979763 C9.10918653,21.1852682 9.11764367,21.4236606 9.1262151,21.664694 C9.13592939,21.9398328 9.14587224,22.2181869 9.15775796,22.4322347 C9.20450081,23.2791247 9.75570081,23.8414596 10.5622151,23.8650003 C10.9787865,23.8769429 11.4078151,23.883029 11.837758,23.883029 C12.2603865,23.883029 12.696158,23.8771725 13.132958,23.8656893 C13.927358,23.8446749 14.4792437,23.2976127 14.5387865,22.4718519 C14.5678151,22.0694787 14.5939865,21.4442156 14.598558,21.0481582 C14.6005008,20.8715457 14.6378722,20.8156223 14.7986722,20.7487897 C14.9303294,20.6938998 15.0618722,20.6386653 15.1933008,20.5833161 C15.4482722,20.4759476 15.703358,20.3685792 15.9602722,20.2654596 C16.0146722,20.2436414 16.0638151,20.2320433 16.1024437,20.2320433 C16.1263294,20.2320433 16.1819865,20.2320433 16.2794722,20.3211534 C16.5864437,20.6024931 16.8885008,20.8751055 17.1776437,21.1317562 C17.5077008,21.4245792 17.9053008,21.5856893 18.2973008,21.5856893 C18.6547865,21.5856893 18.9903294,21.4466271 19.2421008,21.1942251 C19.8368437,20.5978998 20.4301008,19.9999668 21.0219865,19.4008854 C21.5840437,18.8323496 21.5627865,17.9928089 20.9694151,17.3120816 C20.8229008,17.1438519 20.674558,16.9773448 20.5261008,16.8108376 C20.4079294,16.678206 20.2896437,16.5454596 20.1723865,16.4119094 C20.0431294,16.264694 20.0613008,16.200273 20.1047294,16.0989907 C20.2775294,15.6953543 20.4378722,15.2927515 20.5928437,14.9032395 C20.6477008,14.7653256 20.6971865,14.7182443 20.8810722,14.7111247 L21.169758,14.7004452 C21.5170722,14.6879285 21.9493008,14.6723113 22.2446151,14.6537084 C23.0835865,14.6004261 23.6079294,14.0991821 23.6831294,13.278474 C23.7104437,12.980828 23.7291865,12.6805409 23.7474722,12.3902443 C23.7554722,12.2614022 23.7637008,12.1317562 23.7726151,12.0010768 L23.7757008,11.9539955 L23.692158,10.7169046 L23.692158,10.7169046 Z M11.8877008,16.5365027 C9.3630151,16.5365027 7.31627224,14.4800816 7.31627224,11.9432012 C7.31627224,9.40643568 9.3630151,7.34989979 11.8877008,7.34989979 C14.4125008,7.34989979 16.4591294,9.40643568 16.4591294,11.9432012 C16.4591294,14.4800816 14.4125008,16.5365027 11.8877008,16.5365027 L11.8877008,16.5365027 Z"/>
  </defs>
  <title id="title-39" lang="en">edit settings/preferences</title>
  <g fill="none" fill-rule="evenodd" transform="translate(4 4)">
    <use fill="#384048" xlink:href="#settings-a"/>
  </g>
</svg>
