<?xml version="1.0" encoding="utf-8"?>
<svg version="1.1" id="action-target-Layer_1" xmlns="http://www.w3.org/2000/svg" xmlns:xlink="http://www.w3.org/1999/xlink"
	 x="0px" y="0px" viewBox="0 0 48 48" style="enable-background:new 0 0 48 48;" xml:space="preserve">
<path id="action-target-a_1_" style="fill:#111111;" d="M25.2,13.5c4.4,0.7,7.9,4.1,8.5,8.5h-1.6c-0.7-3.5-3.4-6.3-6.9-6.9
	C25.2,15.1,25.2,13.5,25.2,13.5z M22,13.5c-4.4,0.7-7.8,4.1-8.5,8.5h1.6c0.6-3.5,3.4-6.3,6.9-6.9V13.5z M25.2,33.7
	c4.4-0.7,7.9-4.1,8.5-8.5h-1.6c-0.7,3.5-3.4,6.3-6.9,6.9C25.2,32.1,25.2,33.7,25.2,33.7z M22,33.7c-4.4-0.7-7.9-4.1-8.5-8.5h1.6
	c0.7,3.5,3.4,6.3,6.9,6.9V33.7z M22.8,11.8c0-0.4,0.4-0.8,0.8-0.8s0.8,0.4,0.8,0.8v6.3c0,0.4-0.4,0.8-0.8,0.8s-0.8-0.4-0.8-0.8V11.8
	z M22.8,29.9c0-0.4,0.4-0.8,0.8-0.8s0.8,0.4,0.8,0.8v6.3c0,0.4-0.4,0.8-0.8,0.8s-0.8-0.4-0.8-0.8C22.8,36.2,22.8,29.9,22.8,29.9z
	 M29.9,24.4c-0.4,0-0.8-0.4-0.8-0.8c0-0.4,0.4-0.8,0.8-0.8h6.3c0.4,0,0.8,0.4,0.8,0.8c0,0.4-0.4,0.8-0.8,0.8
	C36.2,24.4,29.9,24.4,29.9,24.4z M11.8,24.4c-0.4,0-0.8-0.4-0.8-0.8c0-0.4,0.4-0.8,0.8-0.8h6.3c0.4,0,0.8,0.4,0.8,0.8
	c0,0.4-0.4,0.8-0.8,0.8C18.1,24.4,11.8,24.4,11.8,24.4z"/>
</svg>
