<?xml version="1.0" encoding="utf-8"?>
<!-- Generator: Adobe Illustrator 21.0.2, SVG Export Plug-In . SVG Version: 6.00 Build 0)  -->
<svg version="1.1" id="action-thumbsdown-line-Layer_1" xmlns="http://www.w3.org/2000/svg" xmlns:xlink="http://www.w3.org/1999/xlink" x="0px" y="0px"
	 viewBox="0 0 48 48" style="enable-background:new 0 0 48 48;" xml:space="preserve">
<title>icon/Action/thumbsdown-line</title>
<g transform="translate(12 12)">
	<g>
		<path id="action-thumbsdown-line-a_1_" style="fill:#384048;" d="M22.8,0.5h-5.7c-0.7,0-1.2,0.5-1.2,1.2v0.2c-0.8,0-1.3,0-1.6-0.1l-0.6-0.7
			C13.1,0.4,12.1,0,11.2,0l-6,0.2c-1.5,0-2.9,1-3.3,2.5l-1.8,8.4c-0.5,1.8,0.6,3.6,2.3,4.1l3.7,0.9L5.9,19c-0.1,0.3-0.1,0.6-0.1,0.9
			v0.6c0,1.9,1.5,3.4,3.4,3.4h0.5c1.1,0,2-0.9,2-2l0-1.3l0-0.1v0c0-0.7,0.1-1.1,0.3-1.5l0,0c0,0,0,0,0-0.1l1.4-3.2
			c0.5-0.8,1.4-1.4,2.4-1.6v0.2c0,0.7,0.5,1.2,1.2,1.2h5.7c0.7,0,1.2-0.5,1.2-1.2V1.7C24,1,23.4,0.5,22.8,0.5L22.8,0.5z M12.3,15.1
			c0,0,0,0.1-0.1,0.1l-1.4,3.3l0,0c-0.3,0.6-0.5,1.2-0.5,2.2v0l0,1.3c0,0.3-0.3,0.6-0.6,0.6H9.2c-1.1,0-2-0.9-2-1.9c0,0,0,0,0,0V20
			c0-0.3,0-0.5,0.1-0.8l0.4-3.5c0-0.3-0.2-0.7-0.5-0.7l-4.3-1.1c-1.1-0.3-1.7-1.4-1.3-2.5L3.2,3c0.2-0.9,1-1.5,1.9-1.5h0l6-0.2
			c0.6,0,1.1,0.2,1.5,0.7l0.7,0.8c0.4,0.4,1.2,0.5,2.5,0.5v9.5C14.4,13,13.1,13.8,12.3,15.1L12.3,15.1z M17.3,1.9h5.3v12.4h-5.3
			C17.3,14.2,17.3,1.9,17.3,1.9z"/>
	</g>
	<defs>
		<filter id="action-thumbsdown-line-Adobe_OpacityMaskFilter" filterUnits="userSpaceOnUse" x="-12" y="-12" width="48" height="48">
			<feColorMatrix  type="matrix" values="1 0 0 0 0  0 1 0 0 0  0 0 1 0 0  0 0 0 1 0"/>
		</filter>
	</defs>
	<mask maskUnits="userSpaceOnUse" x="-12" y="-12" width="48" height="48" id="action-thumbsdown-line-b">
		<g style="filter:url(#action-thumbsdown-line-Adobe_OpacityMaskFilter);">
			<path id="action-thumbsdown-line-a" style="fill:#FFFFFF;" d="M22.8,0.5h-5.7c-0.7,0-1.2,0.5-1.2,1.2v0.2c-0.8,0-1.3,0-1.6-0.1l-0.6-0.7
				C13.1,0.4,12.1,0,11.2,0l-6,0.2c-1.5,0-2.9,1-3.3,2.5l-1.8,8.4c-0.5,1.8,0.6,3.6,2.3,4.1l3.7,0.9L5.9,19
				c-0.1,0.3-0.1,0.6-0.1,0.9v0.6c0,1.9,1.5,3.4,3.4,3.4h0.5c1.1,0,2-0.9,2-2l0-1.3l0-0.1v0c0-0.7,0.1-1.1,0.3-1.5l0,0
				c0,0,0,0,0-0.1l1.4-3.2c0.5-0.8,1.4-1.4,2.4-1.6v0.2c0,0.7,0.5,1.2,1.2,1.2h5.7c0.7,0,1.2-0.5,1.2-1.2V1.7
				C24,1,23.4,0.5,22.8,0.5L22.8,0.5z M12.3,15.1c0,0,0,0.1-0.1,0.1l-1.4,3.3l0,0c-0.3,0.6-0.5,1.2-0.5,2.2v0l0,1.3
				c0,0.3-0.3,0.6-0.6,0.6H9.2c-1.1,0-2-0.9-2-1.9c0,0,0,0,0,0V20c0-0.3,0-0.5,0.1-0.8l0.4-3.5c0-0.3-0.2-0.7-0.5-0.7l-4.3-1.1
				c-1.1-0.3-1.7-1.4-1.3-2.5L3.2,3c0.2-0.9,1-1.5,1.9-1.5h0l6-0.2c0.6,0,1.1,0.2,1.5,0.7l0.7,0.8c0.4,0.4,1.2,0.5,2.5,0.5v9.5
				C14.4,13,13.1,13.8,12.3,15.1L12.3,15.1z M17.3,1.9h5.3v12.4h-5.3C17.3,14.2,17.3,1.9,17.3,1.9z"/>
		</g>
	</mask>
	<g style="mask:url(#action-thumbsdown-line-b);">
		<path style="fill:#111111;" d="M-12-12h48v48h-48V-12z"/>
	</g>
</g>
</svg>
