<?xml version="1.0" encoding="utf-8"?>
<!-- Generator: Adobe Illustrator 21.0.2, SVG Export Plug-In . SVG Version: 6.00 Build 0)  -->
<svg version="1.1" id="action-thumbsup-line-Layer_1" xmlns="http://www.w3.org/2000/svg" xmlns:xlink="http://www.w3.org/1999/xlink" x="0px" y="0px"
	 viewBox="0 0 48 48" style="enable-background:new 0 0 48 48;" xml:space="preserve">
<title>icon/Action/thumbsup-line</title>
<g transform="translate(12 12)">
	<path style="fill:#384048;" d="M22.8,8.4h-5.7c-0.7,0-1.2,0.5-1.2,1.2v0.2c-1-0.2-1.8-0.8-2.4-1.6L12.1,5V4.9
		c-0.2-0.4-0.3-0.8-0.3-1.5V2c0-1.1-0.9-2-2-2H9.2C7.3,0,5.8,1.5,5.8,3.4V4c0,0.4,0,0.7,0.1,0.9l0.3,2.9l-3.7,1
		c-1.8,0.5-2.8,2.4-2.3,4.1L2,21.3c0.4,1.5,1.7,2.5,3.3,2.5l6,0.2c0.9,0,1.9-0.4,2.5-1.1l0.6-0.7c0.2-0.1,0.7-0.1,1.6-0.1v0.2
		c0,0.7,0.5,1.2,1.2,1.2h5.7c0.7,0,1.2-0.5,1.2-1.2V9.6C24,8.9,23.5,8.4,22.8,8.4z M13.4,21.2L12.7,22c-0.4,0.4-0.9,0.7-1.5,0.7
		l-6-0.2c-0.9,0-1.7-0.6-1.9-1.5l-1.8-8.4c-0.3-1.1,0.3-2.1,1.3-2.5L7.1,9c0.3,0,0.5-0.3,0.5-0.7L7.2,4.8V4.7c0-0.2-0.1-0.4-0.1-0.7
		V3.4c0-1.1,0.9-2,2-2h0.5c0.4,0,0.6,0.3,0.7,0.6v1.3c0,1,0.2,1.6,0.5,2.2l1.4,3.3c0,0,0,0.1,0.1,0.1c0.8,1.3,2.1,2.1,3.6,2.3v9.5
		C14.5,20.7,13.8,20.8,13.4,21.2z M17.3,9.7h5.3v12.4h-5.3C17.3,22.1,17.3,9.7,17.3,9.7z"/>
	<defs>
		<filter id="action-thumbsup-line-Adobe_OpacityMaskFilter" filterUnits="userSpaceOnUse" x="-10.6" y="-11.5" width="46" height="46">
			<feColorMatrix  type="matrix" values="1 0 0 0 0  0 1 0 0 0  0 0 1 0 0  0 0 0 1 0"/>
		</filter>
	</defs>
	<mask maskUnits="userSpaceOnUse" x="-10.6" y="-11.5" width="46" height="46" id="action-thumbsup-line-b">
		<path style="fill:#FFFFFF;filter:url(#action-thumbsup-line-Adobe_OpacityMaskFilter);" d="M22.8,8.4h-5.7c-0.7,0-1.2,0.5-1.2,1.2v0.2
			c-1-0.2-1.8-0.8-2.4-1.6L12.1,5V4.9c-0.2-0.4-0.3-0.8-0.3-1.5V2c0-1.1-0.9-2-2-2H9.2C7.3,0,5.8,1.5,5.8,3.4V4c0,0.4,0,0.7,0.1,0.9
			l0.3,2.9l-3.7,1c-1.8,0.5-2.8,2.4-2.3,4.1L2,21.3c0.4,1.5,1.7,2.5,3.3,2.5l6,0.2c0.9,0,1.9-0.4,2.5-1.1l0.6-0.7
			c0.2-0.1,0.7-0.1,1.6-0.1v0.2c0,0.7,0.5,1.2,1.2,1.2h5.7c0.7,0,1.2-0.5,1.2-1.2V9.6C24,8.9,23.5,8.4,22.8,8.4z M13.4,21.2L12.7,22
			c-0.4,0.4-0.9,0.7-1.5,0.7l-6-0.2c-0.9,0-1.7-0.6-1.9-1.5l-1.8-8.4c-0.3-1.1,0.3-2.1,1.3-2.5L7.1,9c0.3,0,0.5-0.3,0.5-0.7L7.2,4.8
			V4.7c0-0.2-0.1-0.4-0.1-0.7V3.4c0-1.1,0.9-2,2-2h0.5c0.4,0,0.6,0.3,0.7,0.6v1.3c0,1,0.2,1.6,0.5,2.2l1.4,3.3c0,0,0,0.1,0.1,0.1
			c0.8,1.3,2.1,2.1,3.6,2.3v9.5C14.5,20.7,13.8,20.8,13.4,21.2z M17.3,9.7h5.3v12.4h-5.3C17.3,22.1,17.3,9.7,17.3,9.7z"/>
	</mask>
	<g style="mask:url(#action-thumbsup-line-b);">
		<path style="fill:#111111;" d="M-10.6-11.5h46v46h-46L-10.6-11.5z"/>
	</g>
</g>
</svg>
