<svg id="action-thumbsup-fill-Layer_1" xmlns="http://www.w3.org/2000/svg" viewBox="0 0 48 48" enable-background="new 0 0 48 48"><title>icon/Action/thumbsup-fill</title><g transform="translate(12 12)"><path d="M24 9.6v12.8c0 .7-.5 1.2-1.2 1.2h-4.3c-.7 0-1.2-.5-1.2-1.2V9.6c0-.7.5-1.2 1.2-1.2h4.3c.7 0 1.2.5 1.2 1.2zM11.7 2v1.4c0 .7.1 1.1.3 1.5V5l1.4 3.2c.5.7 1.1 1.2 1.9 1.5.3.1.5.4.5.7v11.1c0 .4-.3.7-.7.7-.6 0-.8.1-.9.1l-.6.7c-.7.7-1.6 1.1-2.5 1.1l-6-.2c-1.5 0-2.9-1-3.3-2.5L0 13c-.5-1.8.5-3.6 2.3-4.1L6 8l-.1-3c-.1-.3-.1-.6-.1-1v-.6C5.8 1.5 7.3 0 9.2 0h.5c1.1 0 2 .9 2 2z" fill="#384048"/><defs><filter id="action-thumbsup-fill-Adobe_OpacityMaskFilter" filterUnits="userSpaceOnUse" x="-12" y="-12" width="48" height="48"><feColorMatrix values="1 0 0 0 0 0 1 0 0 0 0 0 1 0 0 0 0 0 1 0"/></filter></defs><mask maskUnits="userSpaceOnUse" x="-12" y="-12" width="48" height="48" id="action-thumbsup-fill-b"><path d="M24 9.6v12.8c0 .7-.5 1.2-1.2 1.2h-4.3c-.7 0-1.2-.5-1.2-1.2V9.6c0-.7.5-1.2 1.2-1.2h4.3c.7 0 1.2.5 1.2 1.2zM11.7 2v1.4c0 .7.1 1.1.3 1.5V5l1.4 3.2c.5.7 1.1 1.2 1.9 1.5.3.1.5.4.5.7v11.1c0 .4-.3.7-.7.7-.6 0-.8.1-.9.1l-.6.7c-.7.7-1.6 1.1-2.5 1.1l-6-.2c-1.5 0-2.9-1-3.3-2.5L0 13c-.5-1.8.5-3.6 2.3-4.1L6 8l-.1-3c-.1-.3-.1-.6-.1-1v-.6C5.8 1.5 7.3 0 9.2 0h.5c1.1 0 2 .9 2 2z" fill="#fff" filter="url(#action-thumbsup-fill-Adobe_OpacityMaskFilter)"/></mask><g mask="url(#action-thumbsup-fill-b)"><path d="M-12-12h48v48h-48v-48z" fill="#111"/></g></g></svg>