<svg id="action-thumbsdown-line-Layer_1" xmlns="http://www.w3.org/2000/svg" viewBox="0 0 48 48" enable-background="new 0 0 48 48"><title>icon/Action/thumbsdown-line</title><g transform="translate(12 12)"><path id="action-thumbsdown-line-a_1_" d="M22.8.5h-5.7c-.7 0-1.2.5-1.2 1.2v.2c-.8 0-1.3 0-1.6-.1l-.6-.7C13.1.4 12.1 0 11.2 0l-6 .2c-1.5 0-2.9 1-3.3 2.5L.1 11.1c-.5 1.8.6 3.6 2.3 4.1l3.7.9-.2 2.9c-.1.3-.1.6-.1.9v.6c0 1.9 1.5 3.4 3.4 3.4h.5c1.1 0 2-.9 2-2V20.5c0-.7.1-1.1.3-1.5v-.1l1.4-3.2c.5-.8 1.4-1.4 2.4-1.6v.2c0 .7.5 1.2 1.2 1.2h5.7c.7 0 1.2-.5 1.2-1.2V1.7C24 1 23.4.5 22.8.5zM12.3 15.1s0 .1-.1.1l-1.4 3.3c-.3.6-.5 1.2-.5 2.2V22c0 .3-.3.6-.6.6h-.5c-1.1 0-2-.9-2-1.9V20c0-.3 0-.5.1-.8l.4-3.5c0-.3-.2-.7-.5-.7l-4.3-1.1c-1.1-.3-1.7-1.4-1.3-2.5L3.2 3c.2-.9 1-1.5 1.9-1.5l6-.2c.6 0 1.1.2 1.5.7l.7.8c.4.4 1.2.5 2.5.5v9.5c-1.4.2-2.7 1-3.5 2.3zm5-13.2h5.3v12.4h-5.3V1.9z" fill="#384048"/><defs><filter id="action-thumbsdown-line-Adobe_OpacityMaskFilter" filterUnits="userSpaceOnUse" x="-12" y="-12" width="48" height="48"><feColorMatrix values="1 0 0 0 0 0 1 0 0 0 0 0 1 0 0 0 0 0 1 0"/></filter></defs><mask maskUnits="userSpaceOnUse" x="-12" y="-12" width="48" height="48" id="action-thumbsdown-line-b"><g filter="url(#action-thumbsdown-line-Adobe_OpacityMaskFilter)"><path id="action-thumbsdown-line-a" d="M22.8.5h-5.7c-.7 0-1.2.5-1.2 1.2v.2c-.8 0-1.3 0-1.6-.1l-.6-.7C13.1.4 12.1 0 11.2 0l-6 .2c-1.5 0-2.9 1-3.3 2.5L.1 11.1c-.5 1.8.6 3.6 2.3 4.1l3.7.9-.2 2.9c-.1.3-.1.6-.1.9v.6c0 1.9 1.5 3.4 3.4 3.4h.5c1.1 0 2-.9 2-2V20.5c0-.7.1-1.1.3-1.5v-.1l1.4-3.2c.5-.8 1.4-1.4 2.4-1.6v.2c0 .7.5 1.2 1.2 1.2h5.7c.7 0 1.2-.5 1.2-1.2V1.7C24 1 23.4.5 22.8.5zM12.3 15.1s0 .1-.1.1l-1.4 3.3c-.3.6-.5 1.2-.5 2.2V22c0 .3-.3.6-.6.6h-.5c-1.1 0-2-.9-2-1.9V20c0-.3 0-.5.1-.8l.4-3.5c0-.3-.2-.7-.5-.7l-4.3-1.1c-1.1-.3-1.7-1.4-1.3-2.5L3.2 3c.2-.9 1-1.5 1.9-1.5l6-.2c.6 0 1.1.2 1.5.7l.7.8c.4.4 1.2.5 2.5.5v9.5c-1.4.2-2.7 1-3.5 2.3zm5-13.2h5.3v12.4h-5.3V1.9z" fill="#fff"/></g></mask><g mask="url(#action-thumbsdown-line-b)"><path d="M-12-12h48v48h-48v-48z" fill="#111"/></g></g></svg>