<?xml version="1.0" encoding="utf-8"?>
<!-- Generator: Adobe Illustrator 21.0.2, SVG Export Plug-In . SVG Version: 6.00 Build 0)  -->
<svg version="1.1" id="action-trash-can-Layer_1" xmlns="http://www.w3.org/2000/svg" xmlns:xlink="http://www.w3.org/1999/xlink" x="0px" y="0px"
	 viewBox="0 0 48 48" style="enable-background:new 0 0 48 48;" xml:space="preserve">
<title>icon/Action/trash-can</title>
<g transform="translate(11 11)">
	<g>
		<path id="action-trash-can-a_1_" style="fill:#333333;" d="M18,21.3c0,0.5-0.4,0.8-0.8,0.8c0,0,0,0,0,0c-0.5,0-0.8-0.3-0.8-0.8c0,0,0,0,0,0V8.1
			c0-0.5,0.4-0.8,0.8-0.8c0.5,0,0.8,0.4,0.8,0.8V21.3L18,21.3z M16.2,3.5H9.8V1.9c0-0.2,0.1-0.3,0.3-0.3h5.8c0.2,0,0.3,0.1,0.3,0.3
			L16.2,3.5L16.2,3.5z M13.8,21.3c0,0.5-0.4,0.8-0.8,0.8c0,0,0,0,0,0c-0.5,0-0.8-0.3-0.8-0.8c0,0,0,0,0,0V8.1c0-0.5,0.4-0.8,0.8-0.8
			s0.8,0.4,0.8,0.8V21.3L13.8,21.3z M9.6,21.3c0,0.5-0.4,0.8-0.8,0.8c0,0,0,0,0,0c-0.5,0-0.8-0.3-0.8-0.8c0,0,0,0,0,0V8.1
			c0-0.5,0.4-0.8,0.8-0.8c0.5,0,0.8,0.4,0.8,0.8L9.6,21.3L9.6,21.3z M25.2,3.5h-7.3V1.9c0-1.1-0.9-1.9-2-1.9h-5.8
			c-1.1,0-2,0.9-2,1.9v1.6H0.8C0.4,3.5,0,3.9,0,4.3c0,0,0,0,0,0c0,0.5,0.4,0.8,0.8,0.8h2.4l0.6,18.4C3.9,25,5,26,6.4,26h13.2
			c1.4,0,2.5-1,2.5-2.4l0.6-18.4h2.4c0.5,0,0.8-0.3,0.8-0.8c0,0,0,0,0,0C26,3.9,25.6,3.5,25.2,3.5C25.2,3.5,25.2,3.5,25.2,3.5z"/>
	</g>
	<defs>
		<filter id="action-trash-can-Adobe_OpacityMaskFilter" filterUnits="userSpaceOnUse" x="-11" y="-11" width="48" height="48">
			<feColorMatrix  type="matrix" values="1 0 0 0 0  0 1 0 0 0  0 0 1 0 0  0 0 0 1 0"/>
		</filter>
	</defs>
	<mask maskUnits="userSpaceOnUse" x="-11" y="-11" width="48" height="48" id="action-trash-can-b">
		<g style="filter:url(#action-trash-can-Adobe_OpacityMaskFilter);">
			<path id="action-trash-can-a" style="fill:#FFFFFF;" d="M18,21.3c0,0.5-0.4,0.8-0.8,0.8c0,0,0,0,0,0c-0.5,0-0.8-0.3-0.8-0.8c0,0,0,0,0,0V8.1
				c0-0.5,0.4-0.8,0.8-0.8c0.5,0,0.8,0.4,0.8,0.8V21.3L18,21.3z M16.2,3.5H9.8V1.9c0-0.2,0.1-0.3,0.3-0.3h5.8c0.2,0,0.3,0.1,0.3,0.3
				L16.2,3.5L16.2,3.5z M13.8,21.3c0,0.5-0.4,0.8-0.8,0.8c0,0,0,0,0,0c-0.5,0-0.8-0.3-0.8-0.8c0,0,0,0,0,0V8.1
				c0-0.5,0.4-0.8,0.8-0.8s0.8,0.4,0.8,0.8V21.3L13.8,21.3z M9.6,21.3c0,0.5-0.4,0.8-0.8,0.8c0,0,0,0,0,0c-0.5,0-0.8-0.3-0.8-0.8
				c0,0,0,0,0,0V8.1c0-0.5,0.4-0.8,0.8-0.8c0.5,0,0.8,0.4,0.8,0.8L9.6,21.3L9.6,21.3z M25.2,3.5h-7.3V1.9c0-1.1-0.9-1.9-2-1.9h-5.8
				c-1.1,0-2,0.9-2,1.9v1.6H0.8C0.4,3.5,0,3.9,0,4.3c0,0,0,0,0,0c0,0.5,0.4,0.8,0.8,0.8h2.4l0.6,18.4C3.9,25,5,26,6.4,26h13.2
				c1.4,0,2.5-1,2.5-2.4l0.6-18.4h2.4c0.5,0,0.8-0.3,0.8-0.8c0,0,0,0,0,0C26,3.9,25.6,3.5,25.2,3.5C25.2,3.5,25.2,3.5,25.2,3.5z"/>
		</g>
	</mask>
	<g style="mask:url(#action-trash-can-b);">
		<path style="fill:#111111;" d="M-11-11h48v48h-48V-11z"/>
	</g>
</g>
</svg>
