<?xml version="1.0" encoding="utf-8"?>
<svg version="1.1" id="action-trash-can-Layer_1" xmlns="http://www.w3.org/2000/svg" xmlns:xlink="http://www.w3.org/1999/xlink"
	 x="0px" y="0px" viewBox="0 0 48 48" style="enable-background:new 0 0 48 48;" xml:space="preserve">
<path id="action-trash-can-a_1_" style="fill:#333333;" d="M29,32.3c0,0.5-0.4,0.8-0.8,0.8c-0.5,0-0.8-0.3-0.8-0.8V19.1
	c0-0.5,0.4-0.8,0.8-0.8c0.5,0,0.8,0.4,0.8,0.8V32.3z M27.2,14.5h-6.4v-1.6c0-0.2,0.1-0.3,0.3-0.3h5.8c0.2,0,0.3,0.1,0.3,0.3V14.5z
	 M24.8,32.3c0,0.5-0.4,0.8-0.8,0.8c-0.5,0-0.8-0.3-0.8-0.8V19.1c0-0.5,0.4-0.8,0.8-0.8c0.4,0,0.8,0.4,0.8,0.8V32.3z M20.6,32.3
	c0,0.5-0.4,0.8-0.8,0.8c-0.5,0-0.8-0.3-0.8-0.8V19.1c0-0.5,0.4-0.8,0.8-0.8c0.5,0,0.8,0.4,0.8,0.8V32.3z M36.2,14.5h-7.3v-1.6
	c0-1.1-0.9-1.9-2-1.9h-5.8c-1.1,0-2,0.9-2,1.9v1.6h-7.3c-0.4,0-0.8,0.4-0.8,0.8c0,0.5,0.4,0.8,0.8,0.8h2.4l0.6,18.4
	C14.9,36,16,37,17.4,37h13.2c1.4,0,2.5-1,2.5-2.4l0.6-18.4h2.4c0.5,0,0.8-0.3,0.8-0.8C37,14.9,36.6,14.5,36.2,14.5z"/>
</svg>
