<svg id="action-trash-can-Layer_1" xmlns="http://www.w3.org/2000/svg" viewBox="0 0 48 48" enable-background="new 0 0 48 48"><title>icon/Action/trash-can</title><g transform="translate(11 11)"><path id="action-trash-can-a_1_" d="M18 21.3c0 .5-.4.8-.8.8-.5 0-.8-.3-.8-.8V8.1c0-.5.4-.8.8-.8.5 0 .8.4.8.8v13.2zM16.2 3.5H9.8V1.9c0-.2.1-.3.3-.3h5.8c.2 0 .3.1.3.3v1.6zm-2.4 17.8c0 .5-.4.8-.8.8-.5 0-.8-.3-.8-.8V8.1c0-.5.4-.8.8-.8s.8.4.8.8v13.2zm-4.2 0c0 .5-.4.8-.8.8-.5 0-.8-.3-.8-.8V8.1c0-.5.4-.8.8-.8.5 0 .8.4.8.8v13.2zM25.2 3.5h-7.3V1.9c0-1.1-.9-1.9-2-1.9h-5.8c-1.1 0-2 .9-2 1.9v1.6H.8c-.4 0-.8.4-.8.8 0 .5.4.8.8.8h2.4l.6 18.4C3.9 25 5 26 6.4 26h13.2c1.4 0 2.5-1 2.5-2.4l.6-18.4h2.4c.5 0 .8-.3.8-.8.1-.5-.3-.9-.7-.9z" fill="#333"/><defs><filter id="action-trash-can-Adobe_OpacityMaskFilter" filterUnits="userSpaceOnUse" x="-11" y="-11" width="48" height="48"><feColorMatrix values="1 0 0 0 0 0 1 0 0 0 0 0 1 0 0 0 0 0 1 0"/></filter></defs><mask maskUnits="userSpaceOnUse" x="-11" y="-11" width="48" height="48" id="action-trash-can-b"><g filter="url(#action-trash-can-Adobe_OpacityMaskFilter)"><path id="action-trash-can-a" d="M18 21.3c0 .5-.4.8-.8.8-.5 0-.8-.3-.8-.8V8.1c0-.5.4-.8.8-.8.5 0 .8.4.8.8v13.2zM16.2 3.5H9.8V1.9c0-.2.1-.3.3-.3h5.8c.2 0 .3.1.3.3v1.6zm-2.4 17.8c0 .5-.4.8-.8.8-.5 0-.8-.3-.8-.8V8.1c0-.5.4-.8.8-.8s.8.4.8.8v13.2zm-4.2 0c0 .5-.4.8-.8.8-.5 0-.8-.3-.8-.8V8.1c0-.5.4-.8.8-.8.5 0 .8.4.8.8v13.2zM25.2 3.5h-7.3V1.9c0-1.1-.9-1.9-2-1.9h-5.8c-1.1 0-2 .9-2 1.9v1.6H.8c-.4 0-.8.4-.8.8 0 .5.4.8.8.8h2.4l.6 18.4C3.9 25 5 26 6.4 26h13.2c1.4 0 2.5-1 2.5-2.4l.6-18.4h2.4c.5 0 .8-.3.8-.8.1-.5-.3-.9-.7-.9z" fill="#fff"/></g></mask><g mask="url(#action-trash-can-b)"><path d="M-11-11h48v48h-48v-48z" fill="#111"/></g></g></svg>