<svg id="action-upload-Layer_1" xmlns="http://www.w3.org/2000/svg" viewBox="0 0 48 48" enable-background="new 0 0 48 48"><title>icon/Action/upload</title><g transform="translate(12 13)"><path id="action-upload-a_1_" d="M23.4 15.1c.3 0 .6.3.6.6v2.4c0 2.1-1.6 3.8-3.7 3.8H3.7c-2 0-3.7-1.7-3.7-3.8v-2.4c0-.4.3-.6.6-.6s.6.3.6.6v2.4c0 1.4 1.1 2.5 2.4 2.5h16.7c1.3 0 2.4-1.1 2.4-2.5v-2.4c.1-.3.4-.6.7-.6zm-3.7 2.5c.3 0 .6.3.6.6s-.3.6-.6.6H4.3c-.3 0-.6-.3-.6-.6 0-.4.3-.6.6-.6h15.4zM18.1 5.2c.3.2.3.6 0 .9-.2.3-.6.3-.8.1l-4.7-4.4v12.4c0 .3-.3.6-.6.6s-.6-.3-.6-.6V1.7L6.7 6.1c-.2.2-.6.2-.8 0-.2-.3-.2-.7 0-.9L11 .4c.6-.5 1.5-.5 2 0l5.1 4.8z"/><defs><filter id="action-upload-Adobe_OpacityMaskFilter" filterUnits="userSpaceOnUse" x="-12" y="-13" width="48" height="48"><feColorMatrix values="1 0 0 0 0 0 1 0 0 0 0 0 1 0 0 0 0 0 1 0"/></filter></defs><mask maskUnits="userSpaceOnUse" x="-12" y="-13" width="48" height="48" id="action-upload-b"><g filter="url(#action-upload-Adobe_OpacityMaskFilter)"><path id="action-upload-a" d="M23.4 15.1c.3 0 .6.3.6.6v2.4c0 2.1-1.6 3.8-3.7 3.8H3.7c-2 0-3.7-1.7-3.7-3.8v-2.4c0-.4.3-.6.6-.6s.6.3.6.6v2.4c0 1.4 1.1 2.5 2.4 2.5h16.7c1.3 0 2.4-1.1 2.4-2.5v-2.4c.1-.3.4-.6.7-.6zm-3.7 2.5c.3 0 .6.3.6.6s-.3.6-.6.6H4.3c-.3 0-.6-.3-.6-.6 0-.4.3-.6.6-.6h15.4zM18.1 5.2c.3.2.3.6 0 .9-.2.3-.6.3-.8.1l-4.7-4.4v12.4c0 .3-.3.6-.6.6s-.6-.3-.6-.6V1.7L6.7 6.1c-.2.2-.6.2-.8 0-.2-.3-.2-.7 0-.9L11 .4c.6-.5 1.5-.5 2 0l5.1 4.8z" fill="#fff"/></g></mask><g mask="url(#action-upload-b)"><path d="M-12-13h48v48h-48v-48z" fill="#111"/></g></g></svg>