<?xml version="1.0" encoding="UTF-8"?>
<svg width="48px" height="48px" viewBox="0 0 48 48" version="1.1" xmlns="http://www.w3.org/2000/svg" xmlns:xlink="http://www.w3.org/1999/xlink">
    <!-- Generator: Sketch 46.2 (44496) - http://www.bohemiancoding.com/sketch -->
    <title>icon/Action/upload</title>
    <desc>Created with Sketch.</desc>
    <defs>
        <path d="M23.3890313,15.1043864 C23.7264844,15.1043864 24,15.3896645 24,15.7416297 L24,18.1765893 C24,20.2848114 22.3555312,22 20.3342344,22 L3.66576563,22 C1.64446875,22 0,20.2848114 0,18.1765893 L0,15.7416297 C0,15.3896645 0.273515625,15.1043864 0.61096875,15.1043864 C0.948421875,15.1043864 1.2219375,15.3896645 1.2219375,15.7416297 L1.2219375,18.1765893 C1.2219375,19.5820544 2.31825,20.7255135 3.66576563,20.7255135 L20.3342344,20.7255135 C21.68175,20.7255135 22.7780625,19.5820544 22.7780625,18.1765893 L22.7780625,15.7416297 C22.7780625,15.3896645 23.0516719,15.1043864 23.3890313,15.1043864 Z M19.6796719,17.6151757 C20.0170781,17.6151757 20.2905938,17.9004538 20.2905938,18.252419 C20.2905938,18.6043842 20.0170781,18.8896623 19.679625,18.8896623 L4.32032813,18.8896623 C3.982875,18.8896623 3.70935938,18.6043842 3.70935938,18.252419 C3.70935938,17.9004538 3.98296875,17.6151757 4.32032813,17.6151757 L19.6796719,17.6151757 Z M18.1350937,5.17377584 C18.3867187,5.40830522 18.4084687,5.811068 18.1837969,6.07356294 C18.0630469,6.21446636 17.8958437,6.28628701 17.7278906,6.28628701 C17.5830469,6.28628701 17.4376406,6.23280042 17.3211094,6.12421386 L12.6110156,1.73557609 L12.6110156,14.0858923 C12.6110156,14.4378575 12.3375,14.7231356 12.0000469,14.7231356 C11.6626875,14.7231356 11.3890781,14.4378575 11.3890781,14.0858923 L11.3890781,1.73557609 L6.67898437,6.12421386 C6.42721875,6.35879213 6.04101562,6.33591121 5.81625,6.07351405 C5.5914375,5.81101911 5.6131875,5.40815855 5.86485937,5.17372695 L10.9823906,0.405402884 C11.5625625,-0.135183184 12.4374375,-0.135085403 13.0175625,0.405402884 L18.1350937,5.17377584 Z" id="path-1"></path>
    </defs>
    <g id="Symbols" stroke="none" stroke-width="1" fill="none" fill-rule="evenodd">
        <g id="icon/Action/upload">
            <g id="Icon" transform="translate(12.000000, 13.000000)">
                <mask id="mask-2" fill="white">
                    <use xlink:href="#path-1"></use>
                </mask>
                <use id="Combined-Shape" fill="#000000" fill-rule="nonzero" xlink:href="#path-1"></use>
                <g id="Color/Grayscale/Night-Sky" mask="url(#mask-2)" fill="#111111">
                    <g transform="translate(-12.000000, -13.000000)" id="Swatch">
                        <rect x="0" y="0" width="48" height="48"></rect>
                    </g>
                </g>
            </g>
        </g>
    </g>
</svg>