<?xml version="1.0" encoding="utf-8"?>
<svg version="1.1" id="action-zoom-out-fill-Layer_1"
	 xmlns="http://www.w3.org/2000/svg" xmlns:xlink="http://www.w3.org/1999/xlink" x="0px" y="0px" viewBox="0 0 48 48"
	 style="enable-background:new 0 0 48 48;" xml:space="preserve">
<path id="action-zoom-out-fill-a_1_" style="fill:#111111;" d="M35.5,32.9c-0.7-0.6-5.9-5.7-7.1-6.9c1-1.5,1.6-3.2,1.6-5
	c0-4.9-4-9-9-9s-9,4-9,9s4,9,9,9c1.7,0,3.4-0.5,4.8-1.4c1.1,1.1,6.4,6.3,7.1,6.9c0.3,0.3,0.7,0.4,1.1,0.4c0.5,0,1-0.2,1.4-0.7
	C36.1,34.5,36.2,33.4,35.5,32.9z M24.5,21.6h-7c-0.3,0-0.7-0.3-0.7-0.6c0-0.4,0.3-0.7,0.7-0.7h6.9c0.4,0,0.7,0.3,0.7,0.7
	C25.2,21.3,24.8,21.6,24.5,21.6z"/>
</svg>
