<?xml version="1.0" encoding="utf-8"?>
<!-- Generator: Adobe Illustrator 21.0.2, SVG Export Plug-In . SVG Version: 6.00 Build 0)  -->
<svg version="1.1" id="action-zoom-out-fill-Layer_1" xmlns="http://www.w3.org/2000/svg" xmlns:xlink="http://www.w3.org/1999/xlink" x="0px" y="0px"
	 viewBox="0 0 48 48" style="enable-background:new 0 0 48 48;" xml:space="preserve">
<title>icon/Action/zoom-out-fill</title>
<g transform="translate(12 12)">
	<g>
		<path id="action-zoom-out-fill-a_1_" style="fill:#384048;" d="M23.5,20.9c-0.7-0.6-5.9-5.7-7.1-6.9c1-1.5,1.6-3.2,1.6-5c0-4.9-4-9-9-9S0,4,0,9s4,9,9,9
			c1.7,0,3.4-0.5,4.8-1.4c1.1,1.1,6.4,6.3,7.1,6.9c0.3,0.3,0.7,0.4,1.1,0.4c0.5,0,1-0.2,1.4-0.7C24.1,22.5,24.2,21.4,23.5,20.9z
			 M12.5,9.6H5.5C5.2,9.6,4.8,9.3,4.8,9c0,0,0,0,0,0c0-0.4,0.3-0.7,0.7-0.7h6.9c0.4,0,0.7,0.3,0.7,0.7c0,0,0,0,0,0
			C13.2,9.3,12.8,9.6,12.5,9.6C12.5,9.6,12.5,9.6,12.5,9.6z"/>
	</g>
	<defs>
		<filter id="action-zoom-out-fill-Adobe_OpacityMaskFilter" filterUnits="userSpaceOnUse" x="-12" y="-12" width="48" height="48">
			<feColorMatrix  type="matrix" values="1 0 0 0 0  0 1 0 0 0  0 0 1 0 0  0 0 0 1 0"/>
		</filter>
	</defs>
	<mask maskUnits="userSpaceOnUse" x="-12" y="-12" width="48" height="48" id="action-zoom-out-fill-b">
		<g style="filter:url(#action-zoom-out-fill-Adobe_OpacityMaskFilter);">
			<path id="action-zoom-out-fill-a" style="fill:#FFFFFF;" d="M23.5,20.9c-0.7-0.6-5.9-5.7-7.1-6.9c1-1.5,1.6-3.2,1.6-5c0-4.9-4-9-9-9S0,4,0,9s4,9,9,9
				c1.7,0,3.4-0.5,4.8-1.4c1.1,1.1,6.4,6.3,7.1,6.9c0.3,0.3,0.7,0.4,1.1,0.4c0.5,0,1-0.2,1.4-0.7C24.1,22.5,24.2,21.4,23.5,20.9z
				 M12.5,9.6H5.5C5.2,9.6,4.8,9.3,4.8,9c0,0,0,0,0,0c0-0.4,0.3-0.7,0.7-0.7h6.9c0.4,0,0.7,0.3,0.7,0.7c0,0,0,0,0,0
				C13.2,9.3,12.8,9.6,12.5,9.6C12.5,9.6,12.5,9.6,12.5,9.6z"/>
		</g>
	</mask>
	<g style="mask:url(#action-zoom-out-fill-b);">
		<path style="fill:#111111;" d="M-12-12h48v48h-48V-12z"/>
	</g>
</g>
</svg>
