<svg id="action-zoom-out-fill-Layer_1" xmlns="http://www.w3.org/2000/svg" viewBox="0 0 48 48" enable-background="new 0 0 48 48"><title>icon/Action/zoom-out-fill</title><g transform="translate(12 12)"><path id="action-zoom-out-fill-a_1_" d="M23.5 20.9c-.7-.6-5.9-5.7-7.1-6.9 1-1.5 1.6-3.2 1.6-5 0-4.9-4-9-9-9S0 4 0 9s4 9 9 9c1.7 0 3.4-.5 4.8-1.4 1.1 1.1 6.4 6.3 7.1 6.9.3.3.7.4 1.1.4.5 0 1-.2 1.4-.7.7-.7.8-1.8.1-2.3zm-11-11.3h-7c-.3 0-.7-.3-.7-.6 0-.4.3-.7.7-.7h6.9c.4 0 .7.3.7.7.1.3-.3.6-.6.6z" fill="#384048"/><defs><filter id="action-zoom-out-fill-Adobe_OpacityMaskFilter" filterUnits="userSpaceOnUse" x="-12" y="-12" width="48" height="48"><feColorMatrix values="1 0 0 0 0 0 1 0 0 0 0 0 1 0 0 0 0 0 1 0"/></filter></defs><mask maskUnits="userSpaceOnUse" x="-12" y="-12" width="48" height="48" id="action-zoom-out-fill-b"><g filter="url(#action-zoom-out-fill-Adobe_OpacityMaskFilter)"><path id="action-zoom-out-fill-a" d="M23.5 20.9c-.7-.6-5.9-5.7-7.1-6.9 1-1.5 1.6-3.2 1.6-5 0-4.9-4-9-9-9S0 4 0 9s4 9 9 9c1.7 0 3.4-.5 4.8-1.4 1.1 1.1 6.4 6.3 7.1 6.9.3.3.7.4 1.1.4.5 0 1-.2 1.4-.7.7-.7.8-1.8.1-2.3zm-11-11.3h-7c-.3 0-.7-.3-.7-.6 0-.4.3-.7.7-.7h6.9c.4 0 .7.3.7.7.1.3-.3.6-.6.6z" fill="#fff"/></g></mask><g mask="url(#action-zoom-out-fill-b)"><path d="M-12-12h48v48h-48v-48z" fill="#111"/></g></g></svg>