<?xml version="1.0" encoding="utf-8"?>
<!-- Generator: Adobe Illustrator 21.0.2, SVG Export Plug-In . SVG Version: 6.00 Build 0)  -->
<svg version="1.1" id="action-zoom-out-line-Layer_1" xmlns="http://www.w3.org/2000/svg" xmlns:xlink="http://www.w3.org/1999/xlink" x="0px" y="0px"
	 viewBox="0 0 48 48" style="enable-background:new 0 0 48 48;" xml:space="preserve">
<title>icon/Action/zoom-out-line</title>
<g transform="translate(12 12)">
	<g>
		<path id="action-zoom-out-line-a_1_" style="fill:#384048;" d="M23.6,20.9c0.6,0.6,0.6,1.6-0.1,2.4C23,23.8,22.5,24,22,24c-0.4,0-0.8-0.1-1.1-0.4
			c-0.7-0.7-6-5.9-7.1-7C12.4,17.5,10.7,18,9,18c-5,0-9-4-9-9s4-9,9-9c5,0,9,4,9,9c0,1.8-0.5,3.6-1.6,5.1
			C17.7,15.2,22.9,20.3,23.6,20.9L23.6,20.9z M1.4,9c0,4.2,3.4,7.6,7.6,7.6s7.6-3.4,7.6-7.6S13.2,1.4,9,1.4C4.8,1.4,1.4,4.8,1.4,9z
			 M22.2,22.5c0.3-0.2,0.4-0.5,0.4-0.6c-0.7-0.6-5.6-5.5-7-6.8c-0.2,0.2-0.4,0.4-0.7,0.6c1.4,1.3,6.2,6.2,6.9,6.8
			C21.9,22.6,22,22.7,22.2,22.5L22.2,22.5z M12.5,8.3c0.4,0,0.7,0.3,0.7,0.7s-0.3,0.7-0.7,0.7c0,0,0,0-0.1,0H5.5
			C5.2,9.7,4.8,9.4,4.8,9c0-0.4,0.3-0.7,0.7-0.7c0,0,0,0,0.1,0H12.5z"/>
	</g>
	<defs>
		<filter id="action-zoom-out-line-Adobe_OpacityMaskFilter" filterUnits="userSpaceOnUse" x="-12" y="-12" width="48" height="48">
			<feColorMatrix  type="matrix" values="1 0 0 0 0  0 1 0 0 0  0 0 1 0 0  0 0 0 1 0"/>
		</filter>
	</defs>
	<mask maskUnits="userSpaceOnUse" x="-12" y="-12" width="48" height="48" id="action-zoom-out-line-b">
		<g style="filter:url(#action-zoom-out-line-Adobe_OpacityMaskFilter);">
			<path id="action-zoom-out-line-a" style="fill:#FFFFFF;" d="M23.6,20.9c0.6,0.6,0.6,1.6-0.1,2.4C23,23.8,22.5,24,22,24c-0.4,0-0.8-0.1-1.1-0.4
				c-0.7-0.7-6-5.9-7.1-7C12.4,17.5,10.7,18,9,18c-5,0-9-4-9-9s4-9,9-9c5,0,9,4,9,9c0,1.8-0.5,3.6-1.6,5.1
				C17.7,15.2,22.9,20.3,23.6,20.9L23.6,20.9z M1.4,9c0,4.2,3.4,7.6,7.6,7.6s7.6-3.4,7.6-7.6S13.2,1.4,9,1.4C4.8,1.4,1.4,4.8,1.4,9z
				 M22.2,22.5c0.3-0.2,0.4-0.5,0.4-0.6c-0.7-0.6-5.6-5.5-7-6.8c-0.2,0.2-0.4,0.4-0.7,0.6c1.4,1.3,6.2,6.2,6.9,6.8
				C21.9,22.6,22,22.7,22.2,22.5L22.2,22.5z M12.5,8.3c0.4,0,0.7,0.3,0.7,0.7s-0.3,0.7-0.7,0.7c0,0,0,0-0.1,0H5.5
				C5.2,9.7,4.8,9.4,4.8,9c0-0.4,0.3-0.7,0.7-0.7c0,0,0,0,0.1,0H12.5z"/>
		</g>
	</mask>
	<g style="mask:url(#action-zoom-out-line-b);">
		<path style="fill:#111111;" d="M-12-12h48v48h-48V-12z"/>
	</g>
</g>
</svg>
