<svg xmlns="http://www.w3.org/2000/svg" xmlns:xlink="http://www.w3.org/1999/xlink" width="32" height="32" viewBox="0 0 32 32"
aria-labaria-lelledby="title-04">
  <defs>
    <path id="googleplus-line-a" d="M12,1.38461538 C17.8533462,1.38461538 22.6153846,6.14665385 22.6153846,12 C22.6153846,17.8533462 17.8533462,22.6153846 12,22.6153846 C6.14665385,22.6153846 1.38461538,17.8533462 1.38461538,12 C1.38461538,6.14665385 6.14665385,1.38461538 12,1.38461538 M12,0 C18.6274615,0 24,5.37253846 24,12 C24,18.6274615 18.6274615,24 12,24 C5.37253846,24 0,18.6274615 0,12 C0,5.37253846 5.37253846,0 12,0 Z M12.4481538,12.9957692 C11.2248462,12.1024615 10.9249615,11.5985769 12.0946154,10.6941923 C12.7524231,10.185 13.2138462,9.495 13.2138462,8.65580769 C13.2138462,7.74253846 12.8410385,6.92411538 12.1385769,6.501 L13.1338846,6.501 L13.9810385,5.65384615 L10.1888077,5.65384615 C7.82169231,5.65384615 6.6615,7.06315385 6.6615,8.62396154 C6.6615,10.218 7.75476923,11.4695769 9.89261538,11.4695769 C9.56019231,12.1385769 9.69438462,12.7542692 10.2361154,13.1953846 C6.58615385,13.1953846 5.80603846,14.7954231 5.80603846,16.0294615 C5.80603846,17.6267308 7.64238462,18.5769231 9.84657692,18.5769231 C12.8586923,18.5769231 14.0562692,16.9801154 14.0562692,15.6688846 C14.0561538,14.6000769 13.6575,13.9003846 12.4481538,12.9957692 Z M8.08765385,8.58980769 C7.91088462,7.24661538 8.5965,6.21957692 9.61788462,6.2505 C10.6403077,6.28142308 11.5141154,7.38242308 11.6906538,8.72457692 C11.8676538,10.0675385 11.2786154,10.9300385 10.2564231,10.9002692 C9.23503846,10.8696923 8.26361538,9.93184615 8.08765385,8.58980769 M9.85696154,17.8644231 C8.33342308,17.8644231 7.2345,16.9029231 7.2345,15.7438846 C7.2345,14.6096538 8.52519231,13.6299231 10.0481538,13.6471154 C11.7356538,13.6471154 12.7437692,14.6987308 12.7437692,15.8029615 C12.7437692,16.9608462 11.8031538,17.8644231 9.85696154,17.8644231 M16.7132308,10.9992692 L16.7132308,9.56965385 L15.8128846,9.56965385 L15.8128846,10.9992692 L14.3845385,10.9992692 L14.3845385,11.8988077 L15.8128846,11.8988077 L15.8128846,13.3798846 L16.7132308,13.3798846 L16.7132308,11.8988077 L18.1940769,11.8988077 L18.1940769,10.9992692 L16.7132308,10.9992692"/>
  </defs>
  <title id="title-04" lang="en">share to google+</title>
  <g fill="none" fill-rule="evenodd" transform="translate(4 4)">
    <use fill="#384048" xlink:href="#googleplus-line-a"/>
  </g>
</svg>
