<svg xmlns="http://www.w3.org/2000/svg" xmlns:xlink="http://www.w3.org/1999/xlink" width="32" height="32" viewBox="0 0 32 32" aria-labaria-lelledby="title-06">
  <defs>
    <path id="pinterest-line-a" d="M12,0 C18.6274615,0 24,5.37253846 24,12 C24,18.6274615 18.6274615,24 12,24 C5.37253846,24 0,18.6274615 0,12 C0,5.37253846 5.37253846,0 12,0 Z M12,1.38461538 C6.14665385,1.38461538 1.38461538,6.14665385 1.38461538,12 C1.38461538,17.8533462 6.14665385,22.6153846 12,22.6153846 C17.8533462,22.6153846 22.6153846,17.8533462 22.6153846,12 C22.6153846,6.14665385 17.8533462,1.38461538 12,1.38461538 Z M12.1619505,6.17142857 C14.9961429,6.17142857 16.8614505,8.22192857 16.8613352,10.4238132 C16.8613352,13.335544 15.2421429,15.5110055 12.8562198,15.5110055 C12.0546429,15.5110055 11.3009505,15.0777363 11.0430659,14.5858516 C11.0430659,14.5858516 10.6117582,16.2960824 10.5208352,16.6261978 C10.199489,17.7926209 9.25402747,18.9598516 9.18064286,19.0552747 C9.12952747,19.1217363 9.01633516,19.100967 9.00433516,19.0129286 C8.98391209,18.8643132 8.74298901,17.3925824 9.02671978,16.1920055 C9.16898901,15.5892363 9.98141209,12.1473132 9.98141209,12.1473132 C9.98141209,12.1473132 9.74464286,11.6731978 9.74464286,10.9726978 C9.74464286,9.87262088 10.3823736,9.05142857 11.1762198,9.05142857 C11.8511044,9.05142857 12.1772967,9.55808242 12.1772967,10.1656978 C12.1772967,10.8445055 11.7451813,11.8593132 11.5219121,12.7995824 C11.3356813,13.5873132 11.916989,14.229544 12.6934121,14.229544 C14.0996044,14.229544 15.0470275,12.4230824 15.0470275,10.2828132 C15.0470275,8.65635165 13.9514505,7.43835165 11.9581813,7.43835165 C9.70714286,7.43835165 8.30348901,9.11777473 8.30348901,10.993467 C8.30348901,11.639967 8.49456593,12.0964286 8.79352747,12.4491593 C8.93071978,12.6115055 8.9501044,12.6766978 8.90037363,12.8629286 C8.86402747,12.9996593 8.78291209,13.3281593 8.74875824,13.458544 C8.69925824,13.6467363 8.54706593,13.7138901 8.3771044,13.6443132 C7.34037363,13.2210824 6.85714286,12.0851209 6.85714286,10.8085055 C6.85714286,8.69996703 8.63521978,6.17142857 12.1619505,6.17142857 Z"/>
  </defs>
  <title id="title-06" lang="en">pin to pintrest board</title>
  <g fill="none" fill-rule="evenodd" transform="translate(4 4)">
    <use fill="#384048" xlink:href="#pinterest-line-a"/>
  </g>
</svg>
