<svg xmlns="http://www.w3.org/2000/svg" xmlns:xlink="http://www.w3.org/1999/xlink" width="32" height="32" viewBox="0 0 32 32" aria-labaria-lelledby="title-08"  >
  <defs>
    <path id="youtube-fill-a" d="M12,0 C18.6274615,0 24,5.37253846 24,12 C24,18.6274615 18.6274615,24 12,24 C5.37253846,24 0,18.6274615 0,12 C0,5.37253846 5.37253846,0 12,0 Z M19.2183462,12.5454231 L19.2183462,11.4499615 C19.2183462,10.2816923 19.0743462,9.11342308 19.0743462,9.11342308 C19.0743462,9.11342308 18.9331154,8.11857692 18.5004231,7.68057692 C17.9513077,7.1055 17.3359615,7.10273077 17.0539615,7.06903846 C15.0336923,6.92307692 12.0033462,6.92307692 12.0033462,6.92307692 L11.997,6.92307692 C11.997,6.92307692 8.96653846,6.92307692 6.94626923,7.06892308 C6.66403846,7.10261538 6.04903846,7.10538462 5.49980769,7.68046154 C5.067,8.11834615 4.926,9.11330769 4.926,9.11330769 C4.926,9.11330769 4.78165385,10.2815769 4.78165385,11.4498462 L4.78165385,12.5450769 C4.78165385,13.7135769 4.926,14.8816154 4.926,14.8816154 C4.926,14.8816154 5.067,15.8763462 5.49980769,16.3146923 C6.04903846,16.8897692 6.77042308,16.8717692 7.09165385,16.9318846 C8.24665385,17.0426538 12,17.0769231 12,17.0769231 C12,17.0769231 15.0335769,17.0724231 17.0539615,16.9264615 C17.3359615,16.8928846 17.9513077,16.8897692 18.5004231,16.3148077 C18.9331154,15.8766923 19.0743462,14.8819615 19.0743462,14.8819615 C19.0743462,14.8819615 19.2183462,13.7136923 19.2183462,12.5454231 Z M10.2864066,13.6563462 L10.2857143,9.6 L14.186522,11.6352692 L10.2864066,13.6563462 Z"/>
  </defs>
  <title id="title-08" lang="en">link to jcp youtube channel</title>
  <g fill="none" fill-rule="evenodd" transform="translate(4 4)">
    <use fill="#384048" xlink:href="#youtube-fill-a"/>
  </g>
</svg>
