<svg xmlns="http://www.w3.org/2000/svg" xmlns:xlink="http://www.w3.org/1999/xlink" width="32" height="32" viewBox="0 0 32 32" aria-labaria-lelledby="title-08">
  <defs>
    <path id="youtube-line-a" d="M12,0 C18.6274615,0 24,5.37253846 24,12 C24,18.6274615 18.6274615,24 12,24 C5.37253846,24 0,18.6274615 0,12 C0,5.37253846 5.37253846,0 12,0 Z M12,22.6153846 C17.8533462,22.6153846 22.6153846,17.8533462 22.6153846,12 C22.6153846,6.14665385 17.8533462,1.38461538 12,1.38461538 C6.14665385,1.38461538 1.38461538,6.14665385 1.38461538,12 C1.38461538,17.8533462 6.14665385,22.6153846 12,22.6153846 Z M18.5187692,7.61475824 C18.9514615,8.05264286 19.0926923,9.04748901 19.0926923,9.04748901 C19.0926923,9.04748901 19.2366923,10.2157582 19.2366923,11.3839121 L19.2366923,12.4791429 C19.2366923,13.6476429 19.0926923,14.8156813 19.0926923,14.8156813 C19.0926923,14.8156813 18.9514615,15.8104121 18.5187692,16.2487582 C17.9696538,16.8238352 17.3543077,16.8266044 17.0723077,16.8601813 C15.0519231,17.006489 12.0183462,17.010989 12.0183462,17.010989 C12.0183462,17.010989 8.265,16.9767198 7.11,16.8660659 C6.78876923,16.8057198 6.06738462,16.8237198 5.51815385,16.2488736 C5.08534615,15.8105275 4.94434615,14.8157967 4.94434615,14.8157967 C4.94434615,14.8157967 4.8,13.6477582 4.8,12.4792582 L4.8,11.3840275 C4.8,10.2157582 4.94434615,9.04748901 4.94434615,9.04748901 C4.94434615,9.04748901 5.08534615,8.05264286 5.51815385,7.61464286 C6.06738462,7.03956593 6.68238462,7.0367967 6.96461538,7.0031044 C8.98476923,6.85714286 12.0152308,6.85714286 12.0152308,6.85714286 L12.0215769,6.85714286 C12.0215769,6.85714286 15.0519231,6.85714286 17.0723077,7.00321978 C17.3543077,7.03691209 17.9696538,7.03968132 18.5187692,7.61475824 Z M10.5280385,13.8066429 L14.4281538,11.7857967 L10.5273462,9.75052747 L10.5280385,13.8066429 Z"/>
  </defs>
  <title id="title-08" lang="en">link to jcp youtube channel</title>
  <g fill="none" fill-rule="evenodd" transform="translate(4 4)">
    <use fill="#384048" xlink:href="#youtube-line-a"/>
  </g>
</svg>
