<?xml version="1.0" encoding="utf-8"?>
<svg version="1.1" id="icon_x2F_Utility_x2F_Store_x2F_local-ad-Layer_1"
	 xmlns="http://www.w3.org/2000/svg" xmlns:xlink="http://www.w3.org/1999/xlink" x="0px" y="0px" viewBox="0 0 48 48"
	 style="enable-background:new 0 0 48 48;" xml:space="preserve">
<path id="icon_x2F_Utility_x2F_Store_x2F_local-ad-path-1_1_" style="fill:#111111;" d="M36.1,16.1H16c-1,0-1.8,0.7-1.8,1.7v16.3
	c0,1,0.8,1.8,1.8,1.8h20.1c1,0,1.9-0.8,1.9-1.8V17.9C38,16.9,37.2,16.1,36.1,16.1z M25.2,31.4c0,0.5-0.2,0.9-0.9,0.9h-5.7
	c-0.7,0-0.9-0.5-0.9-0.9V20.8c0-0.6,0.4-0.9,0.9-0.9h5.6c0.6,0,0.9,0.3,0.9,0.9v10.6C25.1,31.4,25.2,31.4,25.2,31.4z M34,32.3h-6.5
	c-0.4,0-0.7-0.3-0.7-0.7s0.3-0.7,0.7-0.7H34c0.4,0,0.7,0.3,0.7,0.7S34.4,32.3,34,32.3z M34,30.1h-6.5c-0.4,0-0.7-0.3-0.7-0.7
	c0-0.4,0.3-0.7,0.7-0.7H34c0.4,0,0.7,0.3,0.7,0.7C34.7,29.8,34.4,30.1,34,30.1z M34,27.9h-6.5c-0.4,0-0.7-0.3-0.7-0.7
	s0.3-0.7,0.7-0.7H34c0.4,0,0.7,0.3,0.7,0.7S34.4,27.9,34,27.9z M34.7,24.8c0,0.4-0.3,0.7-0.7,0.7h-6.5c-0.4,0-0.7-0.3-0.7-0.7v-4.2
	c0-0.4,0.4-0.8,0.8-0.8H34c0.4,0,0.7,0.4,0.7,0.8C34.7,20.6,34.7,24.8,34.7,24.8z M32.4,15.4H20.8c4-1.6,8.2-3.3,8.2-3.3
	c0.3-0.1,0.5-0.1,0.8-0.1c0.7,0,1.4,0.4,1.7,1.1C31.5,13.1,32.4,15.4,32.4,15.4z M13.6,18.3v11.6l-3.5-8.3c-0.4-0.9,0.1-2,1-2.3
	L13.6,18.3z"/>
</svg>
