<svg xmlns="http://www.w3.org/2000/svg" xmlns:xlink="http://www.w3.org/1999/xlink" width="32" height="32" viewBox="0 0 32 32">
  <defs>
    <path id="local-ad-a" d="M22.4068928,3.44960308 L5.17978123,3.44960308 C4.32333337,3.44960308 3.67741684,4.07014674 3.67741684,4.89295165 L3.67741684,18.4604282 C3.67741684,19.3181621 4.34316458,19.990089 5.19310219,19.990089 L22.4061917,20 C23.2704519,20 24,19.3106567 24,18.4945874 L24,4.91123406 C24,4.10526822 23.2853753,3.44960308 22.4068928,3.44960308 L22.4068928,3.44960308 Z M12.992076,16.1510705 C12.992076,16.5359634 12.7917608,16.9208564 12.190815,16.9208564 L7.38324899,16.9208564 C6.78230323,16.9208564 6.58198798,16.5359634 6.58198798,16.1510705 L6.58198798,7.2985326 C6.58198798,6.81741641 6.88246086,6.52874669 7.38324899,6.52874669 L12.190815,6.52874669 C12.6916031,6.52874669 12.992076,6.81741641 12.992076,7.2985326 L12.992076,16.1510705 L12.992076,16.1510705 Z M20.6040556,16.9208564 L14.9952285,16.9208564 C14.6634063,16.9208564 14.3942828,16.6623045 14.3942828,16.343517 C14.3942828,16.0247294 14.6634063,15.7661775 14.9952285,15.7661775 L20.6040556,15.7661775 C20.9358778,15.7661775 21.2050013,16.0247294 21.2050013,16.343517 C21.2050013,16.6623045 20.9358778,16.9208564 20.6040556,16.9208564 L20.6040556,16.9208564 Z M20.6040556,15.0926149 L14.9952285,15.0926149 C14.6634063,15.0926149 14.3942828,14.834063 14.3942828,14.5152754 C14.3942828,14.1964879 14.6634063,13.937936 14.9952285,13.937936 L20.6040556,13.937936 C20.9358778,13.937936 21.2050013,14.1964879 21.2050013,14.5152754 C21.2050013,14.834063 20.9358778,15.0926149 20.6040556,15.0926149 L20.6040556,15.0926149 Z M20.6040556,13.2643733 L14.9952285,13.2643733 C14.6634063,13.2643733 14.3942828,13.0058215 14.3942828,12.6870339 C14.3942828,12.3682463 14.6634063,12.1096945 14.9952285,12.1096945 L20.6040556,12.1096945 C20.9358778,12.1096945 21.2050013,12.3682463 21.2050013,12.6870339 C21.2050013,13.0058215 20.9358778,13.2643733 20.6040556,13.2643733 L20.6040556,13.2643733 Z M21.2050013,10.6663459 C21.2050013,10.9783017 20.9286664,11.2436854 20.6040556,11.2436854 L14.9952285,11.2436854 C14.6597005,11.2436854 14.3942828,10.98879 14.3942828,10.6663459 L14.3942828,7.20230936 C14.3942828,6.83887419 14.717191,6.52874669 15.0953861,6.52874669 L20.6040556,6.52874669 C20.9323722,6.52874669 21.2050013,6.88688958 21.2050013,7.20230936 L21.2050013,10.6663459 Z M19.2066564,2.87226365 L9.29796231,2.87226365 C12.6869959,1.55929757 16.3171089,0.12778446 16.3586743,0.11142651 L16.3615788,0.110271831 L16.3645836,0.109117152 C16.5508768,0.0366610536 16.7470856,0 16.9477013,0 C17.5854049,0 18.1519966,0.366899206 18.3913733,0.935097426 L19.2066564,2.87226365 Z M3.07647109,5.22290113 L3.07647109,14.9174886 L0.115811681,7.9850854 L0.113407898,7.97950445 C-0.208198238,7.21501083 0.17740862,6.34159249 0.976766629,6.03098388 L3.07647109,5.22290113 Z"/>
  </defs>
  <g fill="none" fill-rule="evenodd" transform="translate(4 6)">
    <use fill="#384048" xlink:href="#local-ad-a"/>
  </g>
</svg>
