<?xml version="1.0" encoding="UTF-8"?>
<svg width="48px" height="48px" viewBox="0 0 48 48" version="1.1" xmlns="http://www.w3.org/2000/svg" xmlns:xlink="http://www.w3.org/1999/xlink">
    <!-- Generator: Sketch 46.2 (44496) - http://www.bohemiancoding.com/sketch -->
    <title>icon/Utility/Store/local-ad</title>
    <desc>Created with Sketch.</desc>
    <defs>
        <path d="M26.1413749,4.13952369 L6.0430781,4.13952369 C5.04388893,4.13952369 4.29031965,4.88417609 4.29031965,5.87154198 L4.29031965,22.1525138 C4.29031965,23.1817946 5.06702534,23.9881068 6.05861922,23.9881068 L26.140557,24 C27.1488605,24 28,23.1727881 28,22.1935049 L28,5.89348088 C28,4.92632187 27.1662712,4.13952369 26.1413749,4.13952369 L26.1413749,4.13952369 Z M15.157422,19.3812846 C15.157422,19.8431561 14.9237209,20.3050277 14.2226175,20.3050277 L8.61379048,20.3050277 C7.91268711,20.3050277 7.67898598,19.8431561 7.67898598,19.3812846 L7.67898598,8.75823911 C7.67898598,8.18089969 8.02953767,7.83449603 8.61379048,7.83449603 L14.2226175,7.83449603 C14.8068703,7.83449603 15.157422,8.18089969 15.157422,8.75823911 L15.157422,19.3812846 L15.157422,19.3812846 Z M24.0380648,20.3050277 L17.4944333,20.3050277 C17.1073074,20.3050277 16.7933299,19.9947655 16.7933299,19.6122204 C16.7933299,19.2296752 17.1073074,18.919413 17.4944333,18.919413 L24.0380648,18.919413 C24.4251907,18.919413 24.7391682,19.2296752 24.7391682,19.6122204 C24.7391682,19.9947655 24.4251907,20.3050277 24.0380648,20.3050277 L24.0380648,20.3050277 Z M24.0380648,18.1111378 L17.4944333,18.1111378 C17.1073074,18.1111378 16.7933299,17.8008756 16.7933299,17.4183305 C16.7933299,17.0357854 17.1073074,16.7255232 17.4944333,16.7255232 L24.0380648,16.7255232 C24.4251907,16.7255232 24.7391682,17.0357854 24.7391682,17.4183305 C24.7391682,17.8008756 24.4251907,18.1111378 24.0380648,18.1111378 L24.0380648,18.1111378 Z M24.0380648,15.917248 L17.4944333,15.917248 C17.1073074,15.917248 16.7933299,15.6069858 16.7933299,15.2244407 C16.7933299,14.8418956 17.1073074,14.5316334 17.4944333,14.5316334 L24.0380648,14.5316334 C24.4251907,14.5316334 24.7391682,14.8418956 24.7391682,15.2244407 C24.7391682,15.6069858 24.4251907,15.917248 24.0380648,15.917248 L24.0380648,15.917248 Z M24.7391682,12.7996151 C24.7391682,13.173962 24.4167775,13.4924224 24.0380648,13.4924224 L17.4944333,13.4924224 C17.1029839,13.4924224 16.7933299,13.186548 16.7933299,12.7996151 L16.7933299,8.64277123 C16.7933299,8.20664903 17.1700561,7.83449603 17.6112838,7.83449603 L24.0380648,7.83449603 C24.421101,7.83449603 24.7391682,8.2642675 24.7391682,8.64277123 L24.7391682,12.7996151 Z M22.4077658,3.44671638 L10.8476227,3.44671638 C14.8014952,1.87115708 19.036627,0.153341352 19.08512,0.133711811 L19.0885087,0.132326197 L19.0920142,0.130940582 C19.3093562,0.0439932644 19.5382665,0 19.7723182,0 C20.5163057,0 21.1773293,0.440279047 21.4566022,1.12211691 L22.4077658,3.44671638 Z M3.58921627,6.26748136 L3.58921627,17.9009863 L0.135113627,9.58210248 L0.132309214,9.57540534 C-0.242897944,8.65801299 0.206976724,7.60991099 1.13956107,7.23718066 L3.58921627,6.26748136 Z" id="path-1"></path>
    </defs>
    <g id="Symbols" stroke="none" stroke-width="1" fill="none" fill-rule="evenodd">
        <g id="icon/Utility/Store/local-ad">
            <g id="Icon" transform="translate(10.000000, 12.000000)">
                <mask id="mask-2" fill="white">
                    <use xlink:href="#path-1"></use>
                </mask>
                <use id="Mask" fill="#384048" xlink:href="#path-1"></use>
                <g id="Color/Grayscale/Night-Sky" mask="url(#mask-2)" fill="#111111">
                    <g transform="translate(-10.000000, -12.000000)" id="Swatch">
                        <rect x="0" y="0" width="48" height="48"></rect>
                    </g>
                </g>
            </g>
        </g>
    </g>
</svg>