<svg id="icon_x2F_Utility_x2F_Store_x2F_local-ad-Layer_1" xmlns="http://www.w3.org/2000/svg" viewBox="0 0 48 48" enable-background="new 0 0 48 48"><title>icon/Utility/Store/local-ad</title><g id="icon_x2F_Utility_x2F_Store_x2F_local-ad-Symbols"><g id="icon_x2F_Utility_x2F_Store_x2F_local-ad"><g id="icon_x2F_Utility_x2F_Store_x2F_local-ad-Icon" transform="translate(10 12)"><g id="icon_x2F_Utility_x2F_Store_x2F_local-ad-Mask"><path id="icon_x2F_Utility_x2F_Store_x2F_local-ad-path-1_1_" d="M26.1 4.1H6c-1 0-1.8.7-1.8 1.7v16.3c0 1 .8 1.8 1.8 1.8h20.1c1 0 1.9-.8 1.9-1.8V5.9c0-1-.8-1.8-1.9-1.8zM15.2 19.4c0 .5-.2.9-.9.9H8.6c-.7 0-.9-.5-.9-.9V8.8c0-.6.4-.9.9-.9h5.6c.6 0 .9.3.9.9v10.6h.1zm8.8.9h-6.5c-.4 0-.7-.3-.7-.7s.3-.7.7-.7H24c.4 0 .7.3.7.7s-.3.7-.7.7zm0-2.2h-6.5c-.4 0-.7-.3-.7-.7 0-.4.3-.7.7-.7H24c.4 0 .7.3.7.7 0 .4-.3.7-.7.7zm0-2.2h-6.5c-.4 0-.7-.3-.7-.7 0-.4.3-.7.7-.7H24c.4 0 .7.3.7.7 0 .4-.3.7-.7.7zm.7-3.1c0 .4-.3.7-.7.7h-6.5c-.4 0-.7-.3-.7-.7V8.6c0-.4.4-.8.8-.8H24c.4 0 .7.4.7.8v4.2zm-2.3-9.4H10.8C14.8 1.8 19 .1 19 .1c.3-.1.5-.1.8-.1.7 0 1.4.4 1.7 1.1l.9 2.3zM3.6 6.3v11.6L.1 9.6c-.4-.9.1-2 1-2.3l2.5-1z" fill="#384048"/></g><defs><filter id="icon_x2F_Utility_x2F_Store_x2F_local-ad-Adobe_OpacityMaskFilter" filterUnits="userSpaceOnUse" x="-10" y="-12" width="48" height="48"><feColorMatrix values="1 0 0 0 0 0 1 0 0 0 0 0 1 0 0 0 0 0 1 0"/></filter></defs><mask maskUnits="userSpaceOnUse" x="-10" y="-12" width="48" height="48" id="icon_x2F_Utility_x2F_Store_x2F_local-ad-mask-2"><g filter="url(#icon_x2F_Utility_x2F_Store_x2F_local-ad-Adobe_OpacityMaskFilter)"><path id="icon_x2F_Utility_x2F_Store_x2F_local-ad-path-1" d="M26.1 4.1H6c-1 0-1.8.7-1.8 1.7v16.3c0 1 .8 1.8 1.8 1.8h20.1c1 0 1.9-.8 1.9-1.8V5.9c0-1-.8-1.8-1.9-1.8zM15.2 19.4c0 .5-.2.9-.9.9H8.6c-.7 0-.9-.5-.9-.9V8.8c0-.6.4-.9.9-.9h5.6c.6 0 .9.3.9.9v10.6h.1zm8.8.9h-6.5c-.4 0-.7-.3-.7-.7s.3-.7.7-.7H24c.4 0 .7.3.7.7s-.3.7-.7.7zm0-2.2h-6.5c-.4 0-.7-.3-.7-.7 0-.4.3-.7.7-.7H24c.4 0 .7.3.7.7 0 .4-.3.7-.7.7zm0-2.2h-6.5c-.4 0-.7-.3-.7-.7 0-.4.3-.7.7-.7H24c.4 0 .7.3.7.7 0 .4-.3.7-.7.7zm.7-3.1c0 .4-.3.7-.7.7h-6.5c-.4 0-.7-.3-.7-.7V8.6c0-.4.4-.8.8-.8H24c.4 0 .7.4.7.8v4.2zm-2.3-9.4H10.8C14.8 1.8 19 .1 19 .1c.3-.1.5-.1.8-.1.7 0 1.4.4 1.7 1.1l.9 2.3zM3.6 6.3v11.6L.1 9.6c-.4-.9.1-2 1-2.3l2.5-1z" fill="#fff"/></g></mask><g id="icon_x2F_Utility_x2F_Store_x2F_local-ad-Color_x2F_Grayscale_x2F_Night-Sky" mask="url(#icon_x2F_Utility_x2F_Store_x2F_local-ad-mask-2)"><path fill="#111" d="M0 0h48v48H0z" transform="translate(-10 -12)" id="icon_x2F_Utility_x2F_Store_x2F_local-ad-Swatch"/></g></g></g></g></svg>