<?xml version="1.0" encoding="utf-8"?>
<!-- Generator: Adobe Illustrator 21.0.2, SVG Export Plug-In . SVG Version: 6.00 Build 0)  -->
<svg version="1.1" id="icon_x2F_Utility_x2F_Store_x2F_local-ad-Layer_1" xmlns="http://www.w3.org/2000/svg" xmlns:xlink="http://www.w3.org/1999/xlink" x="0px" y="0px"
	 viewBox="0 0 48 48" style="enable-background:new 0 0 48 48;" xml:space="preserve">
<title>icon/Utility/Store/local-ad</title>
<desc>Created with Sketch.</desc>
<g id="icon_x2F_Utility_x2F_Store_x2F_local-ad-Symbols">
	<g id="icon_x2F_Utility_x2F_Store_x2F_local-ad">
		<g id="icon_x2F_Utility_x2F_Store_x2F_local-ad-Icon" transform="translate(10.000000, 12.000000)">
			<g id="icon_x2F_Utility_x2F_Store_x2F_local-ad-Mask">
				<path id="icon_x2F_Utility_x2F_Store_x2F_local-ad-path-1_1_" style="fill:#384048;" d="M26.1,4.1H6c-1,0-1.8,0.7-1.8,1.7v16.3c0,1,0.8,1.8,1.8,1.8l20.1,0
					c1,0,1.9-0.8,1.9-1.8V5.9C28,4.9,27.2,4.1,26.1,4.1L26.1,4.1z M15.2,19.4c0,0.5-0.2,0.9-0.9,0.9H8.6c-0.7,0-0.9-0.5-0.9-0.9V8.8
					c0-0.6,0.4-0.9,0.9-0.9h5.6c0.6,0,0.9,0.3,0.9,0.9V19.4L15.2,19.4z M24,20.3h-6.5c-0.4,0-0.7-0.3-0.7-0.7s0.3-0.7,0.7-0.7H24
					c0.4,0,0.7,0.3,0.7,0.7S24.4,20.3,24,20.3L24,20.3z M24,18.1h-6.5c-0.4,0-0.7-0.3-0.7-0.7c0-0.4,0.3-0.7,0.7-0.7H24
					c0.4,0,0.7,0.3,0.7,0.7C24.7,17.8,24.4,18.1,24,18.1L24,18.1z M24,15.9h-6.5c-0.4,0-0.7-0.3-0.7-0.7c0-0.4,0.3-0.7,0.7-0.7H24
					c0.4,0,0.7,0.3,0.7,0.7C24.7,15.6,24.4,15.9,24,15.9L24,15.9z M24.7,12.8c0,0.4-0.3,0.7-0.7,0.7h-6.5c-0.4,0-0.7-0.3-0.7-0.7
					V8.6c0-0.4,0.4-0.8,0.8-0.8H24c0.4,0,0.7,0.4,0.7,0.8V12.8z M22.4,3.4H10.8c4-1.6,8.2-3.3,8.2-3.3l0,0l0,0C19.3,0,19.5,0,19.8,0
					c0.7,0,1.4,0.4,1.7,1.1L22.4,3.4z M3.6,6.3v11.6L0.1,9.6l0,0c-0.4-0.9,0.1-2,1-2.3L3.6,6.3z"/>
			</g>
			<defs>
				<filter id="icon_x2F_Utility_x2F_Store_x2F_local-ad-Adobe_OpacityMaskFilter" filterUnits="userSpaceOnUse" x="-10" y="-12" width="48" height="48">
					<feColorMatrix  type="matrix" values="1 0 0 0 0  0 1 0 0 0  0 0 1 0 0  0 0 0 1 0"/>
				</filter>
			</defs>
			<mask maskUnits="userSpaceOnUse" x="-10" y="-12" width="48" height="48" id="icon_x2F_Utility_x2F_Store_x2F_local-ad-mask-2">
				<g style="filter:url(#icon_x2F_Utility_x2F_Store_x2F_local-ad-Adobe_OpacityMaskFilter);">
					<path id="icon_x2F_Utility_x2F_Store_x2F_local-ad-path-1" style="fill:#FFFFFF;" d="M26.1,4.1H6c-1,0-1.8,0.7-1.8,1.7v16.3c0,1,0.8,1.8,1.8,1.8l20.1,0
						c1,0,1.9-0.8,1.9-1.8V5.9C28,4.9,27.2,4.1,26.1,4.1L26.1,4.1z M15.2,19.4c0,0.5-0.2,0.9-0.9,0.9H8.6c-0.7,0-0.9-0.5-0.9-0.9
						V8.8c0-0.6,0.4-0.9,0.9-0.9h5.6c0.6,0,0.9,0.3,0.9,0.9V19.4L15.2,19.4z M24,20.3h-6.5c-0.4,0-0.7-0.3-0.7-0.7s0.3-0.7,0.7-0.7
						H24c0.4,0,0.7,0.3,0.7,0.7S24.4,20.3,24,20.3L24,20.3z M24,18.1h-6.5c-0.4,0-0.7-0.3-0.7-0.7c0-0.4,0.3-0.7,0.7-0.7H24
						c0.4,0,0.7,0.3,0.7,0.7C24.7,17.8,24.4,18.1,24,18.1L24,18.1z M24,15.9h-6.5c-0.4,0-0.7-0.3-0.7-0.7c0-0.4,0.3-0.7,0.7-0.7H24
						c0.4,0,0.7,0.3,0.7,0.7C24.7,15.6,24.4,15.9,24,15.9L24,15.9z M24.7,12.8c0,0.4-0.3,0.7-0.7,0.7h-6.5c-0.4,0-0.7-0.3-0.7-0.7
						V8.6c0-0.4,0.4-0.8,0.8-0.8H24c0.4,0,0.7,0.4,0.7,0.8V12.8z M22.4,3.4H10.8c4-1.6,8.2-3.3,8.2-3.3l0,0l0,0
						C19.3,0,19.5,0,19.8,0c0.7,0,1.4,0.4,1.7,1.1L22.4,3.4z M3.6,6.3v11.6L0.1,9.6l0,0c-0.4-0.9,0.1-2,1-2.3L3.6,6.3z"/>
				</g>
			</mask>
			<g id="icon_x2F_Utility_x2F_Store_x2F_local-ad-Color_x2F_Grayscale_x2F_Night-Sky" style="mask:url(#icon_x2F_Utility_x2F_Store_x2F_local-ad-mask-2);">
				<g id="icon_x2F_Utility_x2F_Store_x2F_local-ad-Swatch" transform="translate(-10.000000, -12.000000)">
					<rect style="fill:#111111;" width="48" height="48"/>
				</g>
			</g>
		</g>
	</g>
</g>
</svg>
