<svg xmlns="http://www.w3.org/2000/svg" xmlns:xlink="http://www.w3.org/1999/xlink" width="32" height="32" viewBox="0 0 32 32" aria-labaria-lelledby="title-008">
  <defs>
    <path id="sameday-pickup-a" d="M22.6484105,14.3207627 C23.4923874,15.3437904 23.9997686,16.6563257 24,18.0877287 C24,21.3529898 21.3615019,24 18.106741,24 C14.8522115,24 12.2137134,21.3529898 12.2137134,18.0877287 C12.2137134,15.3654976 14.0486168,13.0743938 16.5446779,12.3874226 L16.5446779,11.7724219 C16.5446779,10.906917 17.2442507,10.2053194 18.106741,10.2053194 C18.9695783,10.2053194 19.6688041,10.906917 19.6688041,11.7724219 L19.6688041,12.3874226 C20.3919814,12.5865026 21.0599659,12.9190766 21.6437146,13.3590261 L22.045107,12.9563388 C22.3159803,12.6844755 22.7556721,12.6842434 23.0267768,12.9564549 C23.2979973,13.228202 23.2979973,13.6693124 23.0266611,13.9414078 L22.6484105,14.3207627 Z M18.1066253,22.60702 C20.590537,22.60702 22.6112681,20.5797699 22.6112681,18.0877287 C22.6112681,15.5960358 20.590537,13.5686696 18.1066253,13.5686696 C15.6227136,13.5686696 13.6020982,15.5960358 13.6020982,18.0877287 C13.6020982,20.5797699 15.6227136,22.60702 18.1066253,22.60702 Z M18.8008755,15.9902491 L18.8008755,17.3914709 L21.4925995,17.3914709 C21.8759413,17.3914709 22.1868497,17.7033823 22.1868497,18.0879609 C22.1868497,18.4724233 21.8759413,18.7844509 21.4925995,18.7844509 L18.1066253,18.7844509 C17.7232834,18.7844509 17.412375,18.4724233 17.412375,18.0879609 L17.412375,15.9902491 C17.412375,15.6056706 17.7232834,15.2937592 18.1066253,15.2937592 C18.4898514,15.2937592 18.8008755,15.6056706 18.8008755,15.9902491 Z M11.7826997,19.9330789 C11.8004031,19.9941379 11.8184536,20.0550807 11.8378926,20.1154432 C11.8378926,20.1155593 11.8380083,20.1157915 11.8380083,20.1159075 L1.33677887,20.1159075 C0.669372957,20.1077818 0.00266129266,19.4531973 1.77635684e-15,18.7748161 L0.668331582,3.3526706 C0.668331582,3.3526706 0.668331582,3.01742676 0.918955925,2.68218292 C1.16958027,2.34682299 2.70560896,0.554406025 3.00760783,0.251432883 C3.17480643,0.0839270427 3.47796238,0 3.59239796,0 L16.4588223,0 C16.7093309,0 16.8813893,0.0842752877 17.0437281,0.251432883 C17.3265194,0.54291394 18.7611876,2.39348782 19.0487229,2.68218292 C19.3831201,3.01742676 19.3831201,3.35278669 19.3831201,3.35278669 L19.6775979,10.1509932 C19.672391,10.1460017 19.666837,10.1414745 19.6615144,10.136483 C19.631546,10.1078108 19.6011147,10.079603 19.5697577,10.0526721 C19.5419877,10.0287592 19.5130606,10.0061233 19.4839021,9.98360347 C19.4674715,9.97106665 19.4511566,9.95876199 19.4343789,9.94657341 C19.3280429,9.86845045 19.2146487,9.79984619 19.0953533,9.74110887 C19.0948905,9.74087671 19.0944277,9.74064454 19.0941963,9.74052846 C18.7954372,9.59368516 18.46104,9.50906162 18.1066253,9.50906162 C16.8625288,9.50906162 15.8503119,10.524544 15.8503119,11.7726541 L15.8503119,11.879217 C13.2753377,12.8206393 11.5194631,15.3011884 11.5194631,18.088077 C11.5194631,18.7149179 11.60879,19.3209803 11.7721702,19.8959328 C11.7755257,19.9082374 11.7791127,19.9208903 11.7826997,19.9330789 Z M10.0135186,12.7529637 L10.0269408,12.7529637 C12.0525316,12.7487848 13.6855239,11.8204797 14.7491153,10.0685752 C15.5256342,8.78970356 15.7177101,7.51675204 15.7254626,7.46323839 C15.7808869,7.08260661 15.5181132,6.72913795 15.1387054,6.67353483 C14.7597605,6.61781563 14.4068499,6.88143709 14.3514256,7.26218495 C14.3498057,7.27251622 14.1940622,8.30494653 13.5632202,9.3439935 C12.7529144,10.6785844 11.5621595,11.3568495 10.0240481,11.3599837 L10.01375,11.3599837 C6.33665352,11.3599837 5.72455621,7.43375365 5.70002603,7.26462266 C5.64610593,6.8845713 5.29597238,6.62013727 4.91656462,6.67295442 C4.53692544,6.72623591 4.27206896,7.07819551 4.32517911,7.45917553 C4.33270015,7.51292134 4.51771785,8.79121262 5.29122834,10.0734507 C6.3488029,11.8267481 7.98133238,12.7529637 10.0135186,12.7529637 Z"/>
  </defs>
  <title id="title-008" lang="en">store pickup</title>
  <g fill="none" fill-rule="evenodd" transform="translate(4 4)">
    <use fill="#384048" xlink:href="#sameday-pickup-a"/>
  </g>
</svg>
