<?xml version="1.0" encoding="utf-8"?>
<svg version="1.1" id="icon_x2F_Utility_x2F_Store_x2F_sameday-pickup-Layer_1"
	 xmlns="http://www.w3.org/2000/svg" xmlns:xlink="http://www.w3.org/1999/xlink" x="0px" y="0px" viewBox="0 0 48 48"
	 style="enable-background:new 0 0 48 48;" xml:space="preserve">
<path id="icon_x2F_Utility_x2F_Store_x2F_sameday-pickup-path-1_1_" style="fill:#111111;" d="M35.5,26.5c0.9,1.1,1.5,2.5,1.5,4.1
	c0,3.5-2.9,6.4-6.4,6.4s-6.4-2.9-6.4-6.4c0-2.9,2-5.4,4.7-6.2v-0.7c0-0.9,0.8-1.7,1.7-1.7c0.9,0,1.7,0.8,1.7,1.7v0.7
	c0.8,0.2,1.5,0.6,2.1,1.1l0.4-0.4c0.3-0.3,0.8-0.3,1.1,0c0.3,0.3,0.3,0.8,0,1.1C35.9,26.2,35.5,26.5,35.5,26.5z M30.6,35.5
	c2.7,0,4.9-2.2,4.9-4.9s-2.2-4.9-4.9-4.9s-4.9,2.2-4.9,4.9S27.9,35.5,30.6,35.5z M31.4,28.3v1.5h2.9c0.4,0,0.8,0.3,0.8,0.8
	c0,0.4-0.3,0.8-0.8,0.8h-3.7c-0.4,0-0.8-0.3-0.8-0.8v-2.3c0-0.4,0.3-0.8,0.8-0.8C31,27.6,31.4,27.9,31.4,28.3z M23.8,32.6
	c0,0.1,0,0.1,0.1,0.2H12.4c-0.7,0-1.4-0.7-1.4-1.5l0.7-16.7c0,0,0-0.4,0.3-0.7c0.3-0.4,1.9-2.3,2.3-2.6c0.1-0.2,0.5-0.3,0.6-0.3
	h13.9c0.3,0,0.5,0.1,0.6,0.3c0.3,0.3,1.9,2.3,2.2,2.6c0.4,0.4,0.4,0.7,0.4,0.7l0.3,7.4l-0.1-0.1l-0.1-0.1H32
	c-0.1-0.1-0.2-0.2-0.4-0.2c-0.3-0.2-0.7-0.3-1.1-0.3c-1.3,0-2.4,1.1-2.4,2.5v0.1c-2.8,1-4.7,3.7-4.7,6.7
	C23.5,31.3,23.6,31.9,23.8,32.6z M21.8,24.8c2.2,0,4-1,5.1-2.9c0.8-1.4,1-2.8,1.1-2.8c0.1-0.4-0.2-0.8-0.6-0.9
	c-0.4-0.1-0.8,0.2-0.9,0.6c0,0-0.2,1.1-0.9,2.3c-0.9,1.4-2.2,2.2-3.8,2.2c-4,0-4.6-4.3-4.7-4.4c0-0.4-0.4-0.7-0.8-0.7
	c-0.4,0.1-0.7,0.5-0.6,0.9c0,0.1,0.2,1.4,1,2.8C17.9,23.8,19.6,24.8,21.8,24.8z"/>
</svg>
