<?xml version="1.0" encoding="utf-8"?>
<!-- Generator: Adobe Illustrator 21.0.2, SVG Export Plug-In . SVG Version: 6.00 Build 0)  -->
<svg version="1.1" id="icon_x2F_Utility_x2F_Store_x2F_sameday-pickup-Layer_1" xmlns="http://www.w3.org/2000/svg" xmlns:xlink="http://www.w3.org/1999/xlink" x="0px" y="0px"
	 viewBox="0 0 48 48" style="enable-background:new 0 0 48 48;" xml:space="preserve">
<title>icon/Utility/Store/sameday-pickup</title>
<desc>Created with Sketch.</desc>
<g id="icon_x2F_Utility_x2F_Store_x2F_sameday-pickup-Symbols">
	<g id="icon_x2F_Utility_x2F_Store_x2F_sameday-pickup">
		<g id="icon_x2F_Utility_x2F_Store_x2F_sameday-pickup-Icon" transform="translate(11.000000, 11.000000)">
			<g id="icon_x2F_Utility_x2F_Store_x2F_sameday-pickup-Mask">
				<path id="icon_x2F_Utility_x2F_Store_x2F_sameday-pickup-path-1_1_" style="fill:#384048;" d="M24.5,15.5c0.9,1.1,1.5,2.5,1.5,4.1c0,3.5-2.9,6.4-6.4,6.4
					c-3.5,0-6.4-2.9-6.4-6.4c0-2.9,2-5.4,4.7-6.2v-0.7c0-0.9,0.8-1.7,1.7-1.7c0.9,0,1.7,0.8,1.7,1.7v0.7c0.8,0.2,1.5,0.6,2.1,1.1
					l0.4-0.4c0.3-0.3,0.8-0.3,1.1,0c0.3,0.3,0.3,0.8,0,1.1L24.5,15.5z M19.6,24.5c2.7,0,4.9-2.2,4.9-4.9c0-2.7-2.2-4.9-4.9-4.9
					s-4.9,2.2-4.9,4.9C14.7,22.3,16.9,24.5,19.6,24.5z M20.4,17.3v1.5h2.9c0.4,0,0.8,0.3,0.8,0.8c0,0.4-0.3,0.8-0.8,0.8h-3.7
					c-0.4,0-0.8-0.3-0.8-0.8v-2.3c0-0.4,0.3-0.8,0.8-0.8C20,16.6,20.4,16.9,20.4,17.3z M12.8,21.6c0,0.1,0,0.1,0.1,0.2c0,0,0,0,0,0
					H1.4c-0.7,0-1.4-0.7-1.4-1.5L0.7,3.6c0,0,0-0.4,0.3-0.7c0.3-0.4,1.9-2.3,2.3-2.6C3.4,0.1,3.8,0,3.9,0h13.9
					c0.3,0,0.5,0.1,0.6,0.3c0.3,0.3,1.9,2.3,2.2,2.6C21,3.3,21,3.6,21,3.6l0.3,7.4c0,0,0,0,0,0c0,0-0.1-0.1-0.1-0.1
					c0,0-0.1-0.1-0.1-0.1c0,0,0,0-0.1,0c-0.1-0.1-0.2-0.2-0.4-0.2c0,0,0,0,0,0c-0.3-0.2-0.7-0.3-1.1-0.3c-1.3,0-2.4,1.1-2.4,2.5v0.1
					c-2.8,1-4.7,3.7-4.7,6.7C12.5,20.3,12.6,20.9,12.8,21.6C12.8,21.6,12.8,21.6,12.8,21.6z M10.8,13.8L10.8,13.8c2.2,0,4-1,5.1-2.9
					c0.8-1.4,1-2.8,1.1-2.8c0.1-0.4-0.2-0.8-0.6-0.9c-0.4-0.1-0.8,0.2-0.9,0.6c0,0-0.2,1.1-0.9,2.3c-0.9,1.4-2.2,2.2-3.8,2.2h0
					c-4,0-4.6-4.3-4.7-4.4C6.1,7.5,5.7,7.2,5.3,7.2C4.9,7.3,4.6,7.7,4.7,8.1c0,0.1,0.2,1.4,1,2.8C6.9,12.8,8.6,13.8,10.8,13.8z"/>
			</g>
			<defs>
				<filter id="icon_x2F_Utility_x2F_Store_x2F_sameday-pickup-Adobe_OpacityMaskFilter" filterUnits="userSpaceOnUse" x="-11" y="-11" width="48" height="48">
					<feColorMatrix  type="matrix" values="1 0 0 0 0  0 1 0 0 0  0 0 1 0 0  0 0 0 1 0"/>
				</filter>
			</defs>
			<mask maskUnits="userSpaceOnUse" x="-11" y="-11" width="48" height="48" id="icon_x2F_Utility_x2F_Store_x2F_sameday-pickup-mask-2">
				<g style="filter:url(#icon_x2F_Utility_x2F_Store_x2F_sameday-pickup-Adobe_OpacityMaskFilter);">
					<path id="icon_x2F_Utility_x2F_Store_x2F_sameday-pickup-path-1" style="fill:#FFFFFF;" d="M24.5,15.5c0.9,1.1,1.5,2.5,1.5,4.1c0,3.5-2.9,6.4-6.4,6.4c-3.5,0-6.4-2.9-6.4-6.4
						c0-2.9,2-5.4,4.7-6.2v-0.7c0-0.9,0.8-1.7,1.7-1.7c0.9,0,1.7,0.8,1.7,1.7v0.7c0.8,0.2,1.5,0.6,2.1,1.1l0.4-0.4
						c0.3-0.3,0.8-0.3,1.1,0c0.3,0.3,0.3,0.8,0,1.1L24.5,15.5z M19.6,24.5c2.7,0,4.9-2.2,4.9-4.9c0-2.7-2.2-4.9-4.9-4.9
						s-4.9,2.2-4.9,4.9C14.7,22.3,16.9,24.5,19.6,24.5z M20.4,17.3v1.5h2.9c0.4,0,0.8,0.3,0.8,0.8c0,0.4-0.3,0.8-0.8,0.8h-3.7
						c-0.4,0-0.8-0.3-0.8-0.8v-2.3c0-0.4,0.3-0.8,0.8-0.8C20,16.6,20.4,16.9,20.4,17.3z M12.8,21.6c0,0.1,0,0.1,0.1,0.2c0,0,0,0,0,0
						H1.4c-0.7,0-1.4-0.7-1.4-1.5L0.7,3.6c0,0,0-0.4,0.3-0.7c0.3-0.4,1.9-2.3,2.3-2.6C3.4,0.1,3.8,0,3.9,0h13.9
						c0.3,0,0.5,0.1,0.6,0.3c0.3,0.3,1.9,2.3,2.2,2.6C21,3.3,21,3.6,21,3.6l0.3,7.4c0,0,0,0,0,0c0,0-0.1-0.1-0.1-0.1
						c0,0-0.1-0.1-0.1-0.1c0,0,0,0-0.1,0c-0.1-0.1-0.2-0.2-0.4-0.2c0,0,0,0,0,0c-0.3-0.2-0.7-0.3-1.1-0.3c-1.3,0-2.4,1.1-2.4,2.5
						v0.1c-2.8,1-4.7,3.7-4.7,6.7C12.5,20.3,12.6,20.9,12.8,21.6C12.8,21.6,12.8,21.6,12.8,21.6z M10.8,13.8L10.8,13.8
						c2.2,0,4-1,5.1-2.9c0.8-1.4,1-2.8,1.1-2.8c0.1-0.4-0.2-0.8-0.6-0.9c-0.4-0.1-0.8,0.2-0.9,0.6c0,0-0.2,1.1-0.9,2.3
						c-0.9,1.4-2.2,2.2-3.8,2.2h0c-4,0-4.6-4.3-4.7-4.4C6.1,7.5,5.7,7.2,5.3,7.2C4.9,7.3,4.6,7.7,4.7,8.1c0,0.1,0.2,1.4,1,2.8
						C6.9,12.8,8.6,13.8,10.8,13.8z"/>
				</g>
			</mask>
			<g id="icon_x2F_Utility_x2F_Store_x2F_sameday-pickup-Color_x2F_Grayscale_x2F_Night-Sky" style="mask:url(#icon_x2F_Utility_x2F_Store_x2F_sameday-pickup-mask-2);">
				<g id="icon_x2F_Utility_x2F_Store_x2F_sameday-pickup-Swatch" transform="translate(-11.000000, -11.000000)">
					<rect style="fill:#111111;" width="48" height="48"/>
				</g>
			</g>
		</g>
	</g>
</g>
</svg>
