<?xml version="1.0" encoding="UTF-8"?>
<svg width="48px" height="48px" viewBox="0 0 48 48" version="1.1" xmlns="http://www.w3.org/2000/svg" xmlns:xlink="http://www.w3.org/1999/xlink">
    <!-- Generator: Sketch 46.2 (44496) - http://www.bohemiancoding.com/sketch -->
    <title>icon/Utility/Store/sameday-pickup</title>
    <desc>Created with Sketch.</desc>
    <defs>
        <path d="M24.535778,15.5141595 C25.4500863,16.6224396 25.9997493,18.0443529 26,19.5950394 C26,23.1324056 23.1416271,26 19.6156361,26 C16.0898958,26 13.2315228,23.1324056 13.2315228,19.5950394 C13.2315228,16.6459558 15.2193349,14.1639267 17.9234011,13.4197078 L17.9234011,12.7534571 C17.9234011,11.8158268 18.6812716,11.0557627 19.6156361,11.0557627 C20.5503765,11.0557627 21.3078711,11.8158268 21.3078711,12.7534571 L21.3078711,13.4197078 C22.0913132,13.6353778 22.814963,13.9956663 23.4473575,14.4722782 L23.8821992,14.0360337 C24.1756453,13.7415152 24.6519781,13.7412636 24.9456749,14.0361594 C25.2394971,14.3305522 25.2394971,14.8084217 24.9455496,15.1031918 L24.535778,15.5141595 Z M19.6155107,24.4909384 C22.3064151,24.4909384 24.4955404,22.2947507 24.4955404,19.5950394 C24.4955404,16.8957055 22.3064151,14.699392 19.6155107,14.699392 C16.9246064,14.699392 14.7356064,16.8957055 14.7356064,19.5950394 C14.7356064,22.2947507 16.9246064,24.4909384 19.6155107,24.4909384 Z M20.3676152,17.3227699 L20.3676152,18.8407601 L23.2836494,18.8407601 C23.6989364,18.8407601 24.0357539,19.1786642 24.0357539,19.595291 C24.0357539,20.011792 23.6989364,20.3498218 23.2836494,20.3498218 L19.6155107,20.3498218 C19.2002237,20.3498218 18.8634063,20.011792 18.8634063,19.595291 L18.8634063,17.3227699 C18.8634063,16.9061431 19.2002237,16.5682391 19.6155107,16.5682391 C20.0306724,16.5682391 20.3676152,16.9061431 20.3676152,17.3227699 Z M12.7645913,21.5941688 C12.78377,21.660316 12.8033247,21.7263375 12.8243836,21.7917301 C12.8243836,21.7918559 12.824509,21.7921074 12.824509,21.7922332 L1.44817711,21.7922332 C0.725154037,21.7834303 0.00288306704,21.0742971 1.77635684e-15,20.3393841 L0.72402588,3.63205982 C0.72402588,3.63205982 0.72402588,3.26887899 0.995535585,2.90569816 C1.26704529,2.54239157 2.93107638,0.600606527 3.25824181,0.272385623 C3.43937363,0.0909209629 3.76779257,0 3.89176446,0 L17.8303908,0 C18.1017752,0 18.2881717,0.0912982283 18.4640388,0.272385623 C18.770396,0.588156768 20.3246198,2.59294514 20.6361164,2.90569816 C20.9983801,3.26887899 20.9983801,3.63218558 20.9983801,3.63218558 L21.3173977,10.9969093 C21.3117569,10.9915019 21.3057401,10.9865974 21.299974,10.9811899 C21.2675081,10.9501284 21.2345409,10.9195699 21.2005708,10.8903947 C21.1704867,10.8644892 21.139149,10.8399669 21.1075606,10.8155704 C21.0897608,10.8019889 21.0720863,10.7886588 21.0539105,10.7754545 C20.9387131,10.6908213 20.8158694,10.6165 20.6866328,10.5528679 C20.6861314,10.5526164 20.68563,10.5523649 20.6853793,10.5522392 C20.3617237,10.3931589 19.99946,10.3014834 19.6155107,10.3014834 C18.2677395,10.3014834 17.1711713,11.4015894 17.1711713,12.7537086 L17.1711713,12.8691518 C14.3816159,13.8890259 12.4794184,16.5762874 12.4794184,19.5954167 C12.4794184,20.2744944 12.5761891,20.931062 12.7531844,21.5539272 C12.7568196,21.5672572 12.7607054,21.5809645 12.7645913,21.5941688 Z M10.8479785,13.8157107 L10.8625192,13.8157107 C13.0569092,13.8111835 14.8259842,12.8055197 15.9782083,10.9076232 C16.8194371,9.52217885 17.0275193,8.14314804 17.0359178,8.08517492 C17.0959608,7.67282383 16.8112893,7.28989944 16.4002642,7.22966273 C15.9897405,7.16930027 15.6074208,7.45489018 15.5473778,7.86736703 C15.5456228,7.87855923 15.3769008,8.99702541 14.6934885,10.1226596 C13.8156573,11.5684664 12.5256728,12.3032537 10.8593854,12.3066491 L10.8482292,12.3066491 C6.86470798,12.3066491 6.20160256,8.05323312 6.1750282,7.87000788 C6.11661476,7.45828557 5.73730342,7.17181537 5.32627834,7.22903396 C4.91500256,7.28675557 4.62807471,7.66804514 4.6856107,8.08077349 C4.6937585,8.13899812 4.89419433,9.52381367 5.73216404,10.9129049 C6.87786981,12.8123105 8.64644341,13.8157107 10.8479785,13.8157107 Z" id="path-1"></path>
    </defs>
    <g id="Symbols" stroke="none" stroke-width="1" fill="none" fill-rule="evenodd">
        <g id="icon/Utility/Store/sameday-pickup">
            <g id="Icon" transform="translate(11.000000, 11.000000)">
                <mask id="mask-2" fill="white">
                    <use xlink:href="#path-1"></use>
                </mask>
                <use id="Mask" fill="#384048" xlink:href="#path-1"></use>
                <g id="Color/Grayscale/Night-Sky" mask="url(#mask-2)" fill="#111111">
                    <g transform="translate(-11.000000, -11.000000)" id="Swatch">
                        <rect x="0" y="0" width="48" height="48"></rect>
                    </g>
                </g>
            </g>
        </g>
    </g>
</svg>