<?xml version="1.0" encoding="utf-8"?>
<!-- Generator: Adobe Illustrator 21.0.2, SVG Export Plug-In . SVG Version: 6.00 Build 0)  -->
<svg version="1.1" id="icon_x2F_Utility_x2F_Store_x2F_store-Layer_1" xmlns="http://www.w3.org/2000/svg" xmlns:xlink="http://www.w3.org/1999/xlink" x="0px" y="0px"
	 viewBox="0 0 48 48" style="enable-background:new 0 0 48 48;" xml:space="preserve">
<title>icon/Utility/Store/store</title>
<desc>Created with Sketch.</desc>
<g id="icon_x2F_Utility_x2F_Store_x2F_store-Symbols">
	<g id="icon_x2F_Utility_x2F_Store_x2F_store">
		<g id="icon_x2F_Utility_x2F_Store_x2F_store-Icon" transform="translate(10.000000, 11.000000)">
			<g id="icon_x2F_Utility_x2F_Store_x2F_store-Mask">
				<path id="icon_x2F_Utility_x2F_Store_x2F_store-path-1_1_" style="fill:#384048;" d="M25.8,0H2.2C0.9,0,0,0.9,0,2.3v4.1c0,1,0.6,1.8,1.4,2.1v14.3c0,1.3,0.9,2,2.3,2
					h1.4v-12c0-1.3,0.9-2.3,2.1-2.3h13.3c1.3,0,2.3,0.9,2.3,2.2v12.1h1.8c1.4,0,2-0.6,2-2V8.5C27.4,8.2,28,7.3,28,6.3V2.2
					C28,0.8,27.2,0,25.8,0L25.8,0z M26.6,6.3c0,0.5-0.3,0.8-0.8,0.8H2.2c-0.5,0-0.8-0.3-0.8-0.8V2.3c0-0.6,0.3-0.8,0.8-0.8h23.6
					c0.8,0,0.8,0.4,0.8,0.7V6.3z M6.5,12.6c0-0.3,0.1-0.9,0.7-0.9h6.3V26h-7V12.6z M20.9,11.6c0.4,0,0.9,0.1,0.9,0.8V26h-7V11.6
					H20.9z"/>
			</g>
			<defs>
				<filter id="icon_x2F_Utility_x2F_Store_x2F_store-Adobe_OpacityMaskFilter" filterUnits="userSpaceOnUse" x="-10" y="-11" width="48" height="48">
					<feColorMatrix  type="matrix" values="1 0 0 0 0  0 1 0 0 0  0 0 1 0 0  0 0 0 1 0"/>
				</filter>
			</defs>
			<mask maskUnits="userSpaceOnUse" x="-10" y="-11" width="48" height="48" id="icon_x2F_Utility_x2F_Store_x2F_store-mask-2">
				<g style="filter:url(#icon_x2F_Utility_x2F_Store_x2F_store-Adobe_OpacityMaskFilter);">
					<path id="icon_x2F_Utility_x2F_Store_x2F_store-path-1" style="fill:#FFFFFF;" d="M25.8,0H2.2C0.9,0,0,0.9,0,2.3v4.1c0,1,0.6,1.8,1.4,2.1v14.3c0,1.3,0.9,2,2.3,2h1.4
						v-12c0-1.3,0.9-2.3,2.1-2.3h13.3c1.3,0,2.3,0.9,2.3,2.2v12.1h1.8c1.4,0,2-0.6,2-2V8.5C27.4,8.2,28,7.3,28,6.3V2.2
						C28,0.8,27.2,0,25.8,0L25.8,0z M26.6,6.3c0,0.5-0.3,0.8-0.8,0.8H2.2c-0.5,0-0.8-0.3-0.8-0.8V2.3c0-0.6,0.3-0.8,0.8-0.8h23.6
						c0.8,0,0.8,0.4,0.8,0.7V6.3z M6.5,12.6c0-0.3,0.1-0.9,0.7-0.9h6.3V26h-7V12.6z M20.9,11.6c0.4,0,0.9,0.1,0.9,0.8V26h-7V11.6
						H20.9z"/>
				</g>
			</mask>
			<g id="icon_x2F_Utility_x2F_Store_x2F_store-Color_x2F_Grayscale_x2F_Night-Sky" style="mask:url(#icon_x2F_Utility_x2F_Store_x2F_store-mask-2);">
				<g id="icon_x2F_Utility_x2F_Store_x2F_store-Swatch" transform="translate(-10.000000, -11.000000)">
					<rect style="fill:#111111;" width="48" height="48"/>
				</g>
			</g>
		</g>
	</g>
</g>
</svg>
