<?xml version="1.0" encoding="UTF-8" standalone="no"?>
<svg width="127px" height="157px" viewBox="0 0 127 157" version="1.1" xmlns="http://www.w3.org/2000/svg" xmlns:xlink="http://www.w3.org/1999/xlink">
    <!-- Generator: Sketch 46.2 (44496) - http://www.bohemiancoding.com/sketch -->
    <title>Combined Shape</title>
    <desc>Created with Sketch.</desc>
    <defs></defs>
    <g id="Page-1" stroke="none" stroke-width="1" fill="none" fill-rule="evenodd">
        <g id="percent" fill-rule="nonzero" fill="#FFFFFF">
            <path d="M105.9,0 L32.8,102.1 L7.6,102.1 L80.9,0 L105.9,0 Z M85.8,89.9 C87.6,89.9 89,89.2 90.2,87.9 C91.4,86.6 92,84.9 92,82.7 C92,80.6 91.4,78.8 90.2,77.4 C89,76 87.6,75.3 85.9,75.3 C84.2,75.3 82.8,76 81.6,77.4 C80.4,78.8 79.8,80.6 79.8,82.7 C79.8,84.8 80.4,86.6 81.5,87.9 C82.6,89.3 84,89.9 85.8,89.9 Z M101.2,97.3 C97.1,101.2 92,103.2 85.8,103.2 C79.6,103.2 74.5,101.2 70.4,97.2 C66.3,93.2 64.3,88.4 64.3,82.7 C64.3,77 66.3,72.2 70.4,68.2 C74.5,64.2 79.6,62.2 85.8,62.2 C92,62.2 97.1,64.2 101.2,68.2 C105.3,72.2 107.3,77.1 107.3,82.8 C107.4,88.5 105.3,93.4 101.2,97.3 Z M28.2,30.2 C30,30.2 31.4,29.5 32.6,28.2 C33.8,26.9 34.4,25.2 34.4,23 C34.4,20.8 33.8,19.1 32.6,17.7 C31.4,16.3 30,15.6 28.3,15.6 C26.6,15.6 25.2,16.3 24,17.7 C22.8,19.1 22.2,20.9 22.2,23 C22.2,25.1 22.8,26.9 23.9,28.2 C25,29.5 26.5,30.2 28.2,30.2 Z M43.7,37.6 C39.6,41.5 34.5,43.5 28.3,43.5 C22.1,43.5 17,41.5 12.9,37.5 C8.8,33.5 6.8,28.7 6.8,23 C6.8,17.3 8.8,12.5 12.9,8.5 C17,4.5 22.1,2.5 28.3,2.5 C34.5,2.5 39.6,4.5 43.7,8.5 C47.8,12.5 49.8,17.4 49.8,23.1 C49.8,28.8 47.8,33.7 43.7,37.6 Z M20.6,156.4 C14.8,156.4 9.9,154.5 6,150.6 C2,146.8 0,142 0,136.2 C0,130.4 2,125.6 5.9,121.8 C9.9,117.9 14.7,116 20.5,116 C26.3,116 31.2,117.9 35.1,121.8 C39.1,125.7 41,130.5 41,136.2 C41,141.9 39,146.8 35.1,150.6 C31.2,154.5 26.3,156.4 20.6,156.4 Z M28.8,127.3 C26.6,124.8 23.8,123.6 20.5,123.6 C17.2,123.6 14.5,124.8 12.2,127.3 C9.9,129.8 9,132.8 9,136.3 C9,139.8 10.1,142.8 12.4,145.2 C14.7,147.6 17.4,148.9 20.7,148.9 C24,148.9 26.7,147.7 29,145.2 C31.3,142.7 32.4,139.8 32.4,136.3 C32.2,132.8 31.1,129.8 28.8,127.3 Z M75.4,116.9 L75.4,124.6 L57.2,124.6 L57.2,133.1 L74.4,133.1 L74.4,140.8 L57.2,140.8 L57.2,156.1 L48.5,156.1 L48.5,117 L75.4,117 L75.4,116.9 Z M109.6,116.9 L109.6,124.6 L91.5,124.6 L91.5,133.1 L108.7,133.1 L108.7,140.8 L91.5,140.8 L91.5,156.1 L82.8,156.1 L82.8,117 L109.6,117 L109.6,116.9 Z M121.474,126.576 L121.702,129.768 L117.446,129.768 L117.674,126.576 L114.976,128.438 L113.038,124.98 L116.23,123.384 L113,121.788 L114.976,118.406 L117.674,120.192 L117.446,117 L121.702,117 L121.474,120.192 L124.172,118.406 L126.148,121.788 L122.918,123.384 L126.11,124.98 L124.172,128.438 L121.474,126.576 Z" id="Combined-Shape"></path>
        </g>
    </g>
</svg>