<?xml version="1.0" encoding="utf-8"?>
<!-- Generator: Adobe Illustrator 21.1.0, SVG Export Plug-In . SVG Version: 6.00 Build 0)  -->
<svg version="1.1" id="Layer_1" xmlns="http://www.w3.org/2000/svg" xmlns:xlink="http://www.w3.org/1999/xlink" x="0px" y="0px"
	 viewBox="0 0 110 156" style="enable-background:new 0 0 110 156;" xml:space="preserve">
<style type="text/css">
	.st0{fill:#FFFFFF;}
</style>
<title>Artboard 2</title>
<desc>Created with Sketch.</desc>
<g id="Page-1">
	<g id="Artboard-2">
		<path id="percent" class="st0" d="M105.9,0L32.8,102.1H7.6L80.9,0H105.9z M85.8,89.9c1.8,0,3.2-0.7,4.4-2c1.2-1.3,1.8-3,1.8-5.2
			c0-2.1-0.6-3.9-1.8-5.3c-1.2-1.4-2.6-2.1-4.3-2.1c-1.7,0-3.1,0.7-4.3,2.1c-1.2,1.4-1.8,3.2-1.8,5.3c0,2.1,0.6,3.9,1.7,5.2
			C82.6,89.3,84,89.9,85.8,89.9z M101.2,97.3c-4.1,3.9-9.2,5.9-15.4,5.9c-6.2,0-11.3-2-15.4-6s-6.1-8.8-6.1-14.5s2-10.5,6.1-14.5
			s9.2-6,15.4-6c6.2,0,11.3,2,15.4,6s6.1,8.9,6.1,14.6C107.4,88.5,105.3,93.4,101.2,97.3z M28.2,30.2c1.8,0,3.2-0.7,4.4-2
			s1.8-3,1.8-5.2s-0.6-3.9-1.8-5.3s-2.6-2.1-4.3-2.1c-1.7,0-3.1,0.7-4.3,2.1c-1.2,1.4-1.8,3.2-1.8,5.3s0.6,3.9,1.7,5.2
			S26.5,30.2,28.2,30.2z M43.7,37.6c-4.1,3.9-9.2,5.9-15.4,5.9s-11.3-2-15.4-6S6.8,28.7,6.8,23s2-10.5,6.1-14.5s9.2-6,15.4-6
			s11.3,2,15.4,6s6.1,8.9,6.1,14.6S47.8,33.7,43.7,37.6z M20.6,156.4c-5.8,0-10.7-1.9-14.6-5.8C2,146.8,0,142,0,136.2
			s2-10.6,5.9-14.4c4-3.9,8.8-5.8,14.6-5.8s10.7,1.9,14.6,5.8c4,3.9,5.9,8.7,5.9,14.4s-2,10.6-5.9,14.4
			C31.2,154.5,26.3,156.4,20.6,156.4z M28.8,127.3c-2.2-2.5-5-3.7-8.3-3.7s-6,1.2-8.3,3.7S9,132.8,9,136.3c0,3.5,1.1,6.5,3.4,8.9
			s5,3.7,8.3,3.7s6-1.2,8.3-3.7s3.4-5.4,3.4-8.9C32.2,132.8,31.1,129.8,28.8,127.3z M75.4,116.9v7.7H57.2v8.5h17.2v7.7H57.2v15.3
			h-8.7v-39.1H75.4z M109.6,116.9v7.7H91.5v8.5h17.2v7.7H91.5v15.3h-8.7v-39.1H109.6z"/>
	</g>
</g>
</svg>
