<?xml version="1.0" encoding="utf-8"?>
<!-- Generator: Adobe Illustrator 21.0.2, SVG Export Plug-In . SVG Version: 6.00 Build 0)  -->
<svg version="1.1" id="icon_x2F_Service_x2F_account-Layer_1" xmlns="http://www.w3.org/2000/svg" xmlns:xlink="http://www.w3.org/1999/xlink" x="0px" y="0px"
	 viewBox="0 0 48 48" style="enable-background:new 0 0 48 48;" xml:space="preserve">
<title>icon/Service/account</title>
<desc>Created with Sketch.</desc>
<g id="icon_x2F_Service_x2F_account-Symbols">
	<g id="icon_x2F_Service_x2F_account">
		<g id="icon_x2F_Service_x2F_account-Icon" transform="translate(8.000000, 8.000000)">
			<g id="icon_x2F_Service_x2F_account-Mask">
				<path id="icon_x2F_Service_x2F_account-path-1_1_" style="fill:#384048;" d="M16,0C7.2,0,0,7.2,0,16c0,8.8,7.2,16,16,16c8.8,0,16-7.2,16-16
					C32,7.2,24.8,0,16,0L16,0z M16,1.8c7.8,0,14.2,6.3,14.2,14.2c0,3.2-1.1,6.2-2.9,8.6c-1.8-3.4-6-6-7.5-6.7l-0.3-0.2
					c-0.1,0-0.1-0.1-0.1-0.1c0,0,0.1-0.2,0.2-0.3l0.1-0.2c1-1.1,2.6-3,2.7-6.2c0.1-3.4-2.4-7.1-6.2-7.3l0,0l-0.3,0l0,0
					C12.2,3.8,9.7,7.6,9.8,11c0.1,3.2,1.7,5.1,2.7,6.2l0.1,0.2c0.1,0.2,0.2,0.3,0.2,0.3c0,0-0.1,0-0.1,0.1l-0.2,0.1
					c-1.6,0.8-5.9,3.3-7.8,6.7c-1.8-2.4-2.9-5.3-2.9-8.6C1.8,8.2,8.2,1.8,16,1.8L16,1.8z"/>
			</g>
			<defs>
				<filter id="icon_x2F_Service_x2F_account-Adobe_OpacityMaskFilter" filterUnits="userSpaceOnUse" x="-8" y="-8" width="48" height="48">
					<feColorMatrix  type="matrix" values="1 0 0 0 0  0 1 0 0 0  0 0 1 0 0  0 0 0 1 0"/>
				</filter>
			</defs>
			<mask maskUnits="userSpaceOnUse" x="-8" y="-8" width="48" height="48" id="icon_x2F_Service_x2F_account-mask-2">
				<g style="filter:url(#icon_x2F_Service_x2F_account-Adobe_OpacityMaskFilter);">
					<path id="icon_x2F_Service_x2F_account-path-1" style="fill:#FFFFFF;" d="M16,0C7.2,0,0,7.2,0,16c0,8.8,7.2,16,16,16c8.8,0,16-7.2,16-16C32,7.2,24.8,0,16,0
						L16,0z M16,1.8c7.8,0,14.2,6.3,14.2,14.2c0,3.2-1.1,6.2-2.9,8.6c-1.8-3.4-6-6-7.5-6.7l-0.3-0.2c-0.1,0-0.1-0.1-0.1-0.1
						c0,0,0.1-0.2,0.2-0.3l0.1-0.2c1-1.1,2.6-3,2.7-6.2c0.1-3.4-2.4-7.1-6.2-7.3l0,0l-0.3,0l0,0C12.2,3.8,9.7,7.6,9.8,11
						c0.1,3.2,1.7,5.1,2.7,6.2l0.1,0.2c0.1,0.2,0.2,0.3,0.2,0.3c0,0-0.1,0-0.1,0.1l-0.2,0.1c-1.6,0.8-5.9,3.3-7.8,6.7
						c-1.8-2.4-2.9-5.3-2.9-8.6C1.8,8.2,8.2,1.8,16,1.8L16,1.8z"/>
				</g>
			</mask>
			<g id="icon_x2F_Service_x2F_account-Color_x2F_Grayscale_x2F_Night-Sky" style="mask:url(#icon_x2F_Service_x2F_account-mask-2);">
				<g id="icon_x2F_Service_x2F_account-Swatch" transform="translate(-8.000000, -8.000000)">
					<rect style="fill:#111111;" width="48" height="48"/>
				</g>
			</g>
		</g>
	</g>
</g>
</svg>
