<?xml version="1.0" encoding="utf-8"?>
<svg version="1.1" id="icon_x2F_Service_x2F_account-Layer_1"
	 xmlns="http://www.w3.org/2000/svg" xmlns:xlink="http://www.w3.org/1999/xlink" x="0px" y="0px" viewBox="0 0 48 48"
	 style="enable-background:new 0 0 48 48;" xml:space="preserve">
<path id="icon_x2F_Service_x2F_account-path-1_1_" style="fill:#FFFFFF;" d="M24,8C15.2,8,8,15.2,8,24s7.2,16,16,16s16-7.2,16-16
	S32.8,8,24,8z M24,9.8c7.8,0,14.2,6.3,14.2,14.2c0,3.2-1.1,6.2-2.9,8.6c-1.8-3.4-6-6-7.5-6.7l-0.3-0.2c-0.1,0-0.1-0.1-0.1-0.1
	s0.1-0.2,0.2-0.3l0.1-0.2c1-1.1,2.6-3,2.7-6.2c0.1-3.4-2.4-7.1-6.2-7.3h-0.3c-3.7,0.2-6.2,4-6.1,7.4c0.1,3.2,1.7,5.1,2.7,6.2
	l0.1,0.2c0.1,0.2,0.2,0.3,0.2,0.3s-0.1,0-0.1,0.1l-0.2,0.1c-1.6,0.8-5.9,3.3-7.8,6.7c-1.8-2.4-2.9-5.3-2.9-8.6
	C9.8,16.2,16.2,9.8,24,9.8z"/>
</svg>
