<?xml version="1.0" encoding="utf-8"?>
<!-- Generator: Adobe Illustrator 21.0.2, SVG Export Plug-In . SVG Version: 6.00 Build 0)  -->
<svg version="1.1" id="icon_x2F_Service_x2F_cash-Layer_1" xmlns="http://www.w3.org/2000/svg" xmlns:xlink="http://www.w3.org/1999/xlink" x="0px" y="0px"
	 viewBox="0 0 48 48" style="enable-background:new 0 0 48 48;" xml:space="preserve">
<title>icon/Service/cash</title>
<desc>Created with Sketch.</desc>
<g id="icon_x2F_Service_x2F_cash-Symbols">
	<g id="icon_x2F_Service_x2F_cash">
		<g id="icon_x2F_Service_x2F_cash-Icon" transform="translate(10.000000, 16.000000)">
			<g id="icon_x2F_Service_x2F_cash-Mask">
				<path id="icon_x2F_Service_x2F_cash-path-1_1_" style="fill:#384048;" d="M26,0H2.1C1,0,0,1,0,2.1v11.9C0,15,1,16,2.1,16h23.8c1.1,0,2.1-1,2.1-2V2
					C28,1.1,27.2,0,26,0L26,0z M5.3,14.5H2.1c-0.2,0-0.5-0.3-0.5-0.5v-3.4c0.2-0.1,0.5-0.1,0.7-0.1c1.7,0,3.2,1.4,3.2,3
					C5.5,13.8,5.4,14.1,5.3,14.5L5.3,14.5z M2.4,5.5c-0.3,0-0.5,0-0.8-0.1V2.1c0-0.2,0.3-0.5,0.5-0.5h3.2c0.1,0.3,0.2,0.6,0.2,0.9
					C5.5,4.2,4.1,5.5,2.4,5.5L2.4,5.5z M17.4,9.8c0,1.3-1,2.2-2.4,2.4v1.1c0,0.4-0.4,0.8-0.8,0.8c-0.4,0-0.8-0.3-0.8-0.8v-1.2
					c-0.9-0.2-1.7-0.6-2.4-1.2l0.9-1c0.8,0.7,1.6,1,2.6,1c0.9,0,1.5-0.4,1.5-1v0c0-0.6-0.3-0.9-1.9-1.2c-1.8-0.4-2.8-0.9-2.8-2.4v0
					c0-1.2,0.8-2,2.1-2.3V2.7c0-0.4,0.4-0.8,0.8-0.8c0.4,0,0.8,0.3,0.8,0.8V4c0.8,0.1,1.5,0.5,2.2,1L16.3,6
					c-0.7-0.5-1.5-0.8-2.3-0.8c-0.9,0-1.4,0.4-1.4,1v0c0,0.6,0.4,0.9,2,1.3C16.5,7.8,17.4,8.4,17.4,9.8L17.4,9.8L17.4,9.8L17.4,9.8z
					 M26.4,14c0,0.2-0.3,0.5-0.5,0.5h-3.3c-0.1-0.3-0.2-0.6-0.2-1c0-1.7,1.4-3,3.2-3c0.3,0,0.5,0,0.8,0.1V14L26.4,14z M26.4,5.4
					c-0.3,0.1-0.6,0.1-0.9,0.1c-1.7,0-3.1-1.4-3.1-3.1c0-0.3,0.1-0.6,0.2-0.9H26c0.2,0,0.4,0.3,0.4,0.5V5.4L26.4,5.4z"/>
			</g>
			<defs>
				<filter id="icon_x2F_Service_x2F_cash-Adobe_OpacityMaskFilter" filterUnits="userSpaceOnUse" x="-10" y="-16" width="48" height="48">
					<feColorMatrix  type="matrix" values="1 0 0 0 0  0 1 0 0 0  0 0 1 0 0  0 0 0 1 0"/>
				</filter>
			</defs>
			<mask maskUnits="userSpaceOnUse" x="-10" y="-16" width="48" height="48" id="icon_x2F_Service_x2F_cash-mask-2">
				<g style="filter:url(#icon_x2F_Service_x2F_cash-Adobe_OpacityMaskFilter);">
					<path id="icon_x2F_Service_x2F_cash-path-1" style="fill:#FFFFFF;" d="M26,0H2.1C1,0,0,1,0,2.1v11.9C0,15,1,16,2.1,16h23.8c1.1,0,2.1-1,2.1-2V2
						C28,1.1,27.2,0,26,0L26,0z M5.3,14.5H2.1c-0.2,0-0.5-0.3-0.5-0.5v-3.4c0.2-0.1,0.5-0.1,0.7-0.1c1.7,0,3.2,1.4,3.2,3
						C5.5,13.8,5.4,14.1,5.3,14.5L5.3,14.5z M2.4,5.5c-0.3,0-0.5,0-0.8-0.1V2.1c0-0.2,0.3-0.5,0.5-0.5h3.2c0.1,0.3,0.2,0.6,0.2,0.9
						C5.5,4.2,4.1,5.5,2.4,5.5L2.4,5.5z M17.4,9.8c0,1.3-1,2.2-2.4,2.4v1.1c0,0.4-0.4,0.8-0.8,0.8c-0.4,0-0.8-0.3-0.8-0.8v-1.2
						c-0.9-0.2-1.7-0.6-2.4-1.2l0.9-1c0.8,0.7,1.6,1,2.6,1c0.9,0,1.5-0.4,1.5-1v0c0-0.6-0.3-0.9-1.9-1.2c-1.8-0.4-2.8-0.9-2.8-2.4v0
						c0-1.2,0.8-2,2.1-2.3V2.7c0-0.4,0.4-0.8,0.8-0.8c0.4,0,0.8,0.3,0.8,0.8V4c0.8,0.1,1.5,0.5,2.2,1L16.3,6
						c-0.7-0.5-1.5-0.8-2.3-0.8c-0.9,0-1.4,0.4-1.4,1v0c0,0.6,0.4,0.9,2,1.3C16.5,7.8,17.4,8.4,17.4,9.8L17.4,9.8L17.4,9.8L17.4,9.8
						z M26.4,14c0,0.2-0.3,0.5-0.5,0.5h-3.3c-0.1-0.3-0.2-0.6-0.2-1c0-1.7,1.4-3,3.2-3c0.3,0,0.5,0,0.8,0.1V14L26.4,14z M26.4,5.4
						c-0.3,0.1-0.6,0.1-0.9,0.1c-1.7,0-3.1-1.4-3.1-3.1c0-0.3,0.1-0.6,0.2-0.9H26c0.2,0,0.4,0.3,0.4,0.5V5.4L26.4,5.4z"/>
				</g>
			</mask>
			<g id="icon_x2F_Service_x2F_cash-Color_x2F_Grayscale_x2F_Night-Sky" style="mask:url(#icon_x2F_Service_x2F_cash-mask-2);">
				<g id="icon_x2F_Service_x2F_cash-Swatch" transform="translate(-10.000000, -16.000000)">
					<rect style="fill:#111111;" width="48" height="48"/>
				</g>
			</g>
		</g>
	</g>
</g>
</svg>
