<svg xmlns="http://www.w3.org/2000/svg" xmlns:xlink="http://www.w3.org/1999/xlink" width="32" height="32" viewBox="0 0 32 32" aria-labaria-lelledby="title-015">
  <defs>
    <path id="cash-a" d="M22.3052536,0 L1.8115942,0 C0.897305254,0 0,0.894758065 0,1.80645161 L0,12.1935484 C0,13.105129 0.897305254,14 1.8115942,14 L22.192029,14 C23.1213768,14 24,13.1377581 24,12.2257258 L24,1.77416129 C24,0.934951613 23.3038949,0 22.3052536,0 L22.3052536,0 Z M4.55061141,12.6451613 L1.8115942,12.6451613 C1.64175725,12.6451613 1.35869565,12.3615484 1.35869565,12.1935484 L1.35869565,9.21933871 C1.56023551,9.17383871 1.76721014,9.14922581 1.97769475,9.14922581 C3.47622283,9.14922581 4.6953125,10.336629 4.6953125,11.7959032 C4.6953125,12.0875323 4.64549366,12.3725 4.55061141,12.6451613 L4.55061141,12.6451613 Z M2.02287138,4.84670968 C1.79676178,4.84670968 1.57461504,4.81803226 1.35869565,4.7636129 L1.35869565,1.80645161 C1.35869565,1.63822581 1.64187047,1.35483871 1.8115942,1.35483871 L4.5863904,1.35483871 C4.6709692,1.61756452 4.71535326,1.89158065 4.71535326,2.17090323 C4.71535326,3.64632258 3.50758605,4.84670968 2.02287138,4.84670968 L2.02287138,4.84670968 Z M14.8821332,8.57319355 C14.8821332,9.74998387 14.0495924,10.5013548 12.8109149,10.6526452 L12.8109149,11.6451774 C12.8109149,12.0192258 12.5066803,12.3225968 12.131567,12.3225968 C11.7564538,12.3225968 11.4522192,12.0192258 11.4522192,11.6451774 L11.4522192,10.5964194 C10.6927083,10.4469355 9.98120471,10.1007742 9.3607337,9.55229032 L10.1146966,8.66408065 C10.7972147,9.24948387 11.489923,9.58266129 12.3660553,9.58266129 C13.1401721,9.58266129 13.6291893,9.2188871 13.6291893,8.69445161 L13.6291893,8.67435484 C13.6291893,8.16967742 13.34375,7.89735484 12.0197011,7.59454839 C10.5016984,7.2311129 9.64605978,6.78706452 9.64605978,5.48529032 L9.64605978,5.46519355 C9.64605978,4.44262903 10.3737545,3.68854839 11.4522192,3.47787097 L11.4522192,2.35493548 C11.4522192,1.9808871 11.7564538,1.67751613 12.131567,1.67751613 C12.5066803,1.67751613 12.8109149,1.9808871 12.8109149,2.35493548 L12.8109149,3.47279032 C13.5198143,3.58659677 14.1230752,3.8708871 14.6684783,4.30454839 L13.9961504,5.2431129 C13.3541667,4.76858065 12.712183,4.51624194 12.0602355,4.51624194 C11.3268795,4.51624194 10.8992301,4.8896129 10.8992301,5.35387097 L10.8992301,5.37419355 C10.8992301,5.91906452 11.2250906,6.16124194 12.600317,6.48414516 C14.1077899,6.84746774 14.8820199,7.38251613 14.8820199,8.55298387 L14.8820199,8.57319355 L14.8821332,8.57319355 L14.8821332,8.57319355 Z M22.6413043,12.2257258 C22.6413043,12.3939516 22.3617527,12.6451613 22.192029,12.6451613 L19.3787364,12.6451613 C19.2838542,12.3725 19.2340353,12.0875323 19.2340353,11.7960161 C19.2340353,10.3365161 20.4532382,9.14922581 21.9517663,9.14922581 C22.1865942,9.14922581 22.4175725,9.17880645 22.6413043,9.23570968 L22.6413043,12.2257258 L22.6413043,12.2257258 Z M22.6413043,4.74453226 C22.4033062,4.81148387 22.157269,4.84670968 21.9065897,4.84670968 C20.4219882,4.84670968 19.214221,3.64632258 19.214221,2.17090323 C19.214221,1.89135484 19.2587183,1.61733871 19.3431839,1.35483871 L22.3052536,1.35483871 C22.4750906,1.35483871 22.6413043,1.60593548 22.6413043,1.77416129 L22.6413043,4.74453226 L22.6413043,4.74453226 Z"/>
  </defs>
  <title id="title-015" lang="en">reward cash</title>
  <g fill="none" fill-rule="evenodd" transform="translate(4 9)">
    <use fill="#384048" xlink:href="#cash-a"/>
  </g>
</svg>
