<svg id="icon_x2F_Service_x2F_cash-Layer_1" xmlns="http://www.w3.org/2000/svg" viewBox="0 0 48 48" enable-background="new 0 0 48 48"><title>icon/Service/cash</title><g id="icon_x2F_Service_x2F_cash-Symbols"><g id="icon_x2F_Service_x2F_cash"><g id="icon_x2F_Service_x2F_cash-Icon" transform="translate(10 16)"><g id="icon_x2F_Service_x2F_cash-Mask"><path id="icon_x2F_Service_x2F_cash-path-1_1_" d="M26 0H2.1C1 0 0 1 0 2.1V14c0 1 1 2 2.1 2h23.8c1.1 0 2.1-1 2.1-2V2c0-.9-.8-2-2-2zM5.3 14.5H2.1c-.2 0-.5-.3-.5-.5v-3.4c.2-.1.5-.1.7-.1 1.7 0 3.2 1.4 3.2 3 0 .3-.1.6-.2 1zm-2.9-9c-.3 0-.5 0-.8-.1V2.1c0-.2.3-.5.5-.5h3.2c.1.3.2.6.2.9 0 1.7-1.4 3-3.1 3zm15 4.3c0 1.3-1 2.2-2.4 2.4v1.1c0 .4-.4.8-.8.8s-.8-.3-.8-.8v-1.2c-.9-.2-1.7-.6-2.4-1.2l.9-1c.8.7 1.6 1 2.6 1 .9 0 1.5-.4 1.5-1s-.3-.9-1.9-1.2c-1.8-.4-2.8-.9-2.8-2.4 0-1.2.8-2 2.1-2.3V2.7c0-.4.4-.8.8-.8s.8.3.8.8V4c.8.1 1.5.5 2.2 1l-.9 1c-.7-.5-1.5-.8-2.3-.8-.9 0-1.4.4-1.4 1s.4.9 2 1.3c1.9.3 2.8.9 2.8 2.3zm9 4.2c0 .2-.3.5-.5.5h-3.3c-.1-.3-.2-.6-.2-1 0-1.7 1.4-3 3.2-3 .3 0 .5 0 .8.1V14zm0-8.6c-.3.1-.6.1-.9.1-1.7 0-3.1-1.4-3.1-3.1 0-.3.1-.6.2-.9H26c.2 0 .4.3.4.5v3.4z" fill="#384048"/></g><defs><filter id="icon_x2F_Service_x2F_cash-Adobe_OpacityMaskFilter" filterUnits="userSpaceOnUse" x="-10" y="-16" width="48" height="48"><feColorMatrix values="1 0 0 0 0 0 1 0 0 0 0 0 1 0 0 0 0 0 1 0"/></filter></defs><mask maskUnits="userSpaceOnUse" x="-10" y="-16" width="48" height="48" id="icon_x2F_Service_x2F_cash-mask-2"><g filter="url(#icon_x2F_Service_x2F_cash-Adobe_OpacityMaskFilter)"><path id="icon_x2F_Service_x2F_cash-path-1" d="M26 0H2.1C1 0 0 1 0 2.1V14c0 1 1 2 2.1 2h23.8c1.1 0 2.1-1 2.1-2V2c0-.9-.8-2-2-2zM5.3 14.5H2.1c-.2 0-.5-.3-.5-.5v-3.4c.2-.1.5-.1.7-.1 1.7 0 3.2 1.4 3.2 3 0 .3-.1.6-.2 1zm-2.9-9c-.3 0-.5 0-.8-.1V2.1c0-.2.3-.5.5-.5h3.2c.1.3.2.6.2.9 0 1.7-1.4 3-3.1 3zm15 4.3c0 1.3-1 2.2-2.4 2.4v1.1c0 .4-.4.8-.8.8s-.8-.3-.8-.8v-1.2c-.9-.2-1.7-.6-2.4-1.2l.9-1c.8.7 1.6 1 2.6 1 .9 0 1.5-.4 1.5-1s-.3-.9-1.9-1.2c-1.8-.4-2.8-.9-2.8-2.4 0-1.2.8-2 2.1-2.3V2.7c0-.4.4-.8.8-.8s.8.3.8.8V4c.8.1 1.5.5 2.2 1l-.9 1c-.7-.5-1.5-.8-2.3-.8-.9 0-1.4.4-1.4 1s.4.9 2 1.3c1.9.3 2.8.9 2.8 2.3zm9 4.2c0 .2-.3.5-.5.5h-3.3c-.1-.3-.2-.6-.2-1 0-1.7 1.4-3 3.2-3 .3 0 .5 0 .8.1V14zm0-8.6c-.3.1-.6.1-.9.1-1.7 0-3.1-1.4-3.1-3.1 0-.3.1-.6.2-.9H26c.2 0 .4.3.4.5v3.4z" fill="#fff"/></g></mask><g id="icon_x2F_Service_x2F_cash-Color_x2F_Grayscale_x2F_Night-Sky" mask="url(#icon_x2F_Service_x2F_cash-mask-2)"><path fill="#111" d="M0 0h48v48H0z" transform="translate(-10 -16)" id="icon_x2F_Service_x2F_cash-Swatch"/></g></g></g></g></svg>