<?xml version="1.0" encoding="utf-8"?>
<svg version="1.1" id="icon_x2F_Service_x2F_cash-Layer_1"
	 xmlns="http://www.w3.org/2000/svg" xmlns:xlink="http://www.w3.org/1999/xlink" x="0px" y="0px" viewBox="0 0 48 48"
	 style="enable-background:new 0 0 48 48;" xml:space="preserve">
<path id="icon_x2F_Service_x2F_cash-path-1_1_" style="fill:#111111;" d="M36,16H12.1C11,16,10,17,10,18.1V30c0,1,1,2,2.1,2h23.8
	c1.1,0,2.1-1,2.1-2V18C38,17.1,37.2,16,36,16z M15.3,30.5h-3.2c-0.2,0-0.5-0.3-0.5-0.5v-3.4c0.2-0.1,0.5-0.1,0.7-0.1
	c1.7,0,3.2,1.4,3.2,3C15.5,29.8,15.4,30.1,15.3,30.5z M12.4,21.5c-0.3,0-0.5,0-0.8-0.1v-3.3c0-0.2,0.3-0.5,0.5-0.5h3.2
	c0.1,0.3,0.2,0.6,0.2,0.9C15.5,20.2,14.1,21.5,12.4,21.5z M27.4,25.8c0,1.3-1,2.2-2.4,2.4v1.1c0,0.4-0.4,0.8-0.8,0.8
	c-0.4,0-0.8-0.3-0.8-0.8v-1.2c-0.9-0.2-1.7-0.6-2.4-1.2l0.9-1c0.8,0.7,1.6,1,2.6,1c0.9,0,1.5-0.4,1.5-1s-0.3-0.9-1.9-1.2
	c-1.8-0.4-2.8-0.9-2.8-2.4c0-1.2,0.8-2,2.1-2.3v-1.3c0-0.4,0.4-0.8,0.8-0.8c0.4,0,0.8,0.3,0.8,0.8V20c0.8,0.1,1.5,0.5,2.2,1l-0.9,1
	c-0.7-0.5-1.5-0.8-2.3-0.8c-0.9,0-1.4,0.4-1.4,1c0,0.6,0.4,0.9,2,1.3C26.5,23.8,27.4,24.4,27.4,25.8z M36.4,30
	c0,0.2-0.3,0.5-0.5,0.5h-3.3c-0.1-0.3-0.2-0.6-0.2-1c0-1.7,1.4-3,3.2-3c0.3,0,0.5,0,0.8,0.1V30z M36.4,21.4
	c-0.3,0.1-0.6,0.1-0.9,0.1c-1.7,0-3.1-1.4-3.1-3.1c0-0.3,0.1-0.6,0.2-0.9H36c0.2,0,0.4,0.3,0.4,0.5V21.4z"/>
</svg>
