<svg xmlns="http://www.w3.org/2000/svg" xmlns:xlink="http://www.w3.org/1999/xlink" width="32" height="32" viewBox="0 0 32 32" aria-labaria-lelledby="title-017">
  <defs>
    <path id="gift-registry-a" d="M15.1974972,17.0428578 C14.0676906,17.0428578 13.1989795,14.8833656 12.8503928,12.822387 C15.4141583,13.3737418 17.1769552,14.3315515 17.1553695,15.17041 C17.1293059,16.1719652 16.3387857,16.9582371 15.2772956,17.0398726 C15.2503134,17.0418245 15.2237905,17.0428578 15.1974972,17.0428578 Z M15.2760326,6.84221932 C16.3389005,6.92396956 17.1294207,7.71024151 17.1554843,8.71168192 C17.1771849,9.55065521 15.414388,10.5086945 12.8505076,11.0599345 C13.1987499,8.99918556 14.0675758,6.83934888 15.1974972,6.83934888 C15.2237905,6.83934888 15.2503134,6.84026742 15.2760326,6.84221932 Z M12.7401678,7.12639325 L12.7401678,0 L22.4069037,0 C23.1985721,0 24,0.792701742 24,1.49263074 L24,11.2522543 L16.5353537,11.2522543 C17.8854956,10.5429102 18.558672,9.67810292 18.532838,8.6759736 C18.4878295,6.95428145 17.162603,5.60540253 15.3802871,5.46831013 C15.3185151,5.46371742 15.2576617,5.46142107 15.1974972,5.46142107 C14.0997247,5.46142107 13.3072526,6.18580625 12.7401678,7.12639325 Z M7.56716889,11.2521394 L0.102637363,11.2521394 L0.102637363,1.59217773 C0.102637363,0.784779317 0.904409707,0 1.69573364,0 L11.3623548,0 L11.3623548,7.12650807 C10.7952699,6.18580625 10.0029126,5.46142107 8.9050253,5.46142107 C8.84474598,5.46142107 8.7840074,5.46371742 8.72085763,5.46842495 C6.93991952,5.60540253 5.61457824,6.95428145 5.56956968,8.67620323 C5.54373569,9.67810292 6.21691215,10.5427954 7.56716889,11.2521394 Z M16.5352388,12.6299524 L23.9998852,12.6299524 L23.9998852,22.2899141 C23.9998852,23.1037424 23.1924868,23.8678545 22.4067889,23.8820919 L12.7401678,23.8820919 L12.7401678,16.7556986 C13.3072526,17.6964004 14.0996099,18.4207856 15.1973824,18.4207856 L15.1976121,18.4207856 C15.2578914,18.4207856 15.31863,18.4184893 15.3816649,18.4137817 C17.162603,18.2766894 18.4878295,16.9278104 18.532838,15.2060035 C18.558672,14.2041038 17.8856104,13.3392965 16.5352388,12.6299524 Z M6.9469234,15.1705248 C6.92533767,14.3315515 8.68824939,13.373627 11.2520149,12.8221573 C10.9036579,14.8829063 10.034832,17.042743 8.9050253,17.042743 C8.87873204,17.042743 8.85220914,17.0418245 8.82648996,17.0398726 C7.76350724,16.9581223 6.97310185,16.1718504 6.9469234,15.1705248 Z M8.9050253,6.83923406 C10.034832,6.83923406 10.903543,8.99861147 11.2521297,11.0597049 C8.68836421,10.5083501 6.92545249,9.55042558 6.94703822,8.71179674 C6.97321667,7.71024151 7.76362206,6.92385474 8.82522697,6.84221932 C8.85220914,6.84026742 8.87873204,6.83923406 8.9050253,6.83923406 Z M11.3623548,16.7556986 L11.3623548,23.8820919 L1.59618665,23.8820919 C0.871342195,23.8820919 0.102637363,23.0712489 0.102637363,22.2899141 L0.102637363,12.6299524 L7.5672837,12.6299524 C6.21691215,13.3391817 5.54373569,14.203989 5.56956968,15.2062331 C5.61457824,16.9278104 6.93991952,18.2766894 8.72212063,18.4137817 C8.78389258,18.4183745 8.8448608,18.4206708 8.9050253,18.4206708 C10.0029126,18.4206708 10.7952699,17.6962856 11.3623548,16.7556986 Z"/>
  </defs>
  <title id="title-017" lang="en">gift registry</title>
  <g fill="none" fill-rule="evenodd" transform="translate(4 4)">
    <use fill="#384048" xlink:href="#gift-registry-a"/>
  </g>
</svg>
