<?xml version="1.0" encoding="utf-8"?>
<svg version="1.1" id="icon_x2F_Service_x2F_gift-registry-Layer_1"
	 xmlns="http://www.w3.org/2000/svg" xmlns:xlink="http://www.w3.org/1999/xlink" x="0px" y="0px" viewBox="0 0 48 48"
	 style="enable-background:new 0 0 48 48;" xml:space="preserve">
<path id="icon_x2F_Service_x2F_gift-registry-path-1_1_" style="fill:#111111;" d="M27.5,29.5c-1.2,0-2.2-2.3-2.5-4.6
	c2.8,0.6,4.7,1.6,4.7,2.5C29.6,28.5,28.7,29.4,27.5,29.5z M27.5,18.4c1.2,0.1,2,0.9,2,2c0,0.9-1.9,1.9-4.7,2.5
	C25.3,20.7,26.2,18.4,27.5,18.4z M24.8,18.7V11h10.5c0.8,0,1.7,0.9,1.7,1.6v10.6h-8.1c1.5-0.8,2.2-1.7,2.2-2.8
	c0-1.9-1.5-3.3-3.4-3.5h-0.2C26.3,16.9,25.4,17.7,24.8,18.7z M19.2,23.2h-8.1V12.7c0-0.8,0.9-1.7,1.7-1.7h10.5v7.7
	c-0.6-1-1.5-1.8-2.7-1.8h-0.2c-1.9,0.2-3.3,1.6-3.4,3.5C17,21.5,17.7,22.4,19.2,23.2z M28.9,24.7H37v10.5c0,0.9-0.9,1.7-1.7,1.7
	H24.8v-7.7c0.6,1,1.5,1.8,2.7,1.8h0.2c1.9-0.1,3.4-1.6,3.4-3.5C31.1,26.4,30.4,25.5,28.9,24.7z M18.5,27.4c0-0.9,1.9-1.9,4.7-2.5
	c-0.4,2.2-1.3,4.6-2.5,4.6h-0.1C19.4,29.4,18.6,28.5,18.5,27.4z M20.6,18.4c1.2,0,2.2,2.3,2.5,4.6c-2.8-0.6-4.7-1.6-4.7-2.5
	C18.6,19.4,19.4,18.5,20.6,18.4z M23.3,29.2v7.7H12.7c-0.8,0-1.6-0.9-1.6-1.7V24.7h8.1c-1.5,0.8-2.2,1.7-2.2,2.8
	c0,1.9,1.5,3.3,3.4,3.5h0.2C21.8,31,22.7,30.2,23.3,29.2z"/>
</svg>
