<?xml version="1.0" encoding="utf-8"?>
<!-- Generator: Adobe Illustrator 21.0.2, SVG Export Plug-In . SVG Version: 6.00 Build 0)  -->
<svg version="1.1" id="icon_x2F_Service_x2F_wallet-Layer_1" xmlns="http://www.w3.org/2000/svg" xmlns:xlink="http://www.w3.org/1999/xlink" x="0px" y="0px"
	 viewBox="0 0 48 48" style="enable-background:new 0 0 48 48;" xml:space="preserve">
<title>icon/Service/wallet</title>
<desc>Created with Sketch.</desc>
<g id="icon_x2F_Service_x2F_wallet-Symbols">
	<g id="icon_x2F_Service_x2F_wallet">
		<g id="icon_x2F_Service_x2F_wallet-Icon" transform="translate(12.000000, 14.000000)">
			<g id="icon_x2F_Service_x2F_wallet-Mask">
				<path id="icon_x2F_Service_x2F_wallet-path-1_1_" style="fill:#384048;" d="M18,15.2h6v2.7c0,1.2-1,2.1-2.1,2.1H2.1C1,20,0,19,0,17.9V5.4
					c0-1.2,1-2.1,2.1-2.1h19.7c1.2,0,2.1,1,2.1,2.1v2.7h-6c-1,0-1.8,0.4-2.4,1.2c-0.5,0.7-0.8,1.5-0.8,2.4
					C14.8,13.4,15.9,15.2,18,15.2z M21.3,2.7H4.1L18.3,0c0.2,0,0.3,0,0.5,0C20,0,21,0.9,21.2,2L21.3,2.7C21.3,2.6,21.3,2.7,21.3,2.7
					z M18,9.3L18,9.3l6,0V14h-6c-1.4,0-2-1.2-2-2.3c0-0.6,0.2-1.3,0.5-1.7C16.9,9.5,17.4,9.3,18,9.3z M19.4,13
					c0.8,0,1.4-0.6,1.4-1.4c0-0.8-0.6-1.4-1.4-1.4S18,10.9,18,11.6C18,12.4,18.6,13,19.4,13z"/>
			</g>
			<defs>
				<filter id="icon_x2F_Service_x2F_wallet-Adobe_OpacityMaskFilter" filterUnits="userSpaceOnUse" x="-12" y="-14" width="48" height="48">
					<feColorMatrix  type="matrix" values="1 0 0 0 0  0 1 0 0 0  0 0 1 0 0  0 0 0 1 0"/>
				</filter>
			</defs>
			<mask maskUnits="userSpaceOnUse" x="-12" y="-14" width="48" height="48" id="icon_x2F_Service_x2F_wallet-mask-2">
				<g style="filter:url(#icon_x2F_Service_x2F_wallet-Adobe_OpacityMaskFilter);">
					<path id="icon_x2F_Service_x2F_wallet-path-1" style="fill:#FFFFFF;" d="M18,15.2h6v2.7c0,1.2-1,2.1-2.1,2.1H2.1C1,20,0,19,0,17.9V5.4c0-1.2,1-2.1,2.1-2.1
						h19.7c1.2,0,2.1,1,2.1,2.1v2.7h-6c-1,0-1.8,0.4-2.4,1.2c-0.5,0.7-0.8,1.5-0.8,2.4C14.8,13.4,15.9,15.2,18,15.2z M21.3,2.7H4.1
						L18.3,0c0.2,0,0.3,0,0.5,0C20,0,21,0.9,21.2,2L21.3,2.7C21.3,2.6,21.3,2.7,21.3,2.7z M18,9.3L18,9.3l6,0V14h-6
						c-1.4,0-2-1.2-2-2.3c0-0.6,0.2-1.3,0.5-1.7C16.9,9.5,17.4,9.3,18,9.3z M19.4,13c0.8,0,1.4-0.6,1.4-1.4c0-0.8-0.6-1.4-1.4-1.4
						S18,10.9,18,11.6C18,12.4,18.6,13,19.4,13z"/>
				</g>
			</mask>
			<g id="icon_x2F_Service_x2F_wallet-Color_x2F_Grayscale_x2F_Night-Sky" style="mask:url(#icon_x2F_Service_x2F_wallet-mask-2);">
				<g id="icon_x2F_Service_x2F_wallet-Swatch" transform="translate(-12.000000, -14.000000)">
					<rect style="fill:#111111;" width="48" height="48"/>
				</g>
			</g>
		</g>
	</g>
</g>
</svg>
