<?xml version="1.0" encoding="UTF-8"?>
<svg width="48px" height="48px" viewBox="0 0 48 48" version="1.1" xmlns="http://www.w3.org/2000/svg" xmlns:xlink="http://www.w3.org/1999/xlink">
    <!-- Generator: Sketch 46.2 (44496) - http://www.bohemiancoding.com/sketch -->
    <title>icon/Service/wallet</title>
    <desc>Created with Sketch.</desc>
    <defs>
        <path d="M17.999925,15.2154091 L24,15.2154091 L24,17.8743779 C24,19.0434999 23.035704,20 21.8571089,20 L2.14289107,20 C0.964295982,20 0,19.0434999 0,17.8743779 L0,5.39936293 C0,4.23024089 0.964295982,3.27364125 2.14289107,3.27374079 L21.8570089,3.27374079 C23.035604,3.27374079 23.9999,4.23024089 23.9999,5.39936293 L23.9999,8.07664742 L17.999525,8.07664742 C17.0196291,8.07664742 16.1571327,8.49372885 15.5709351,9.25094565 C15.0662372,9.9028469 14.7883384,10.7655783 14.7883384,11.6800717 C14.7883384,13.4369898 15.8914338,15.2154091 17.999925,15.2154091 Z M21.348111,2.67638861 L4.13358278,2.67638861 L18.2685239,0.0440971531 C18.4225232,0.0149313159 18.5815226,0 18.7392219,0 C19.9530169,0 20.9987125,0.858451125 21.2257116,2.04111089 L21.3390111,2.63089787 C21.3415111,2.64363926 21.3449111,2.66026279 21.348111,2.67638861 Z M17.999525,9.27125224 L17.999525,9.27135178 L23.9999,9.27135178 L23.9999,14.0210034 L17.999925,14.0210034 C16.6103308,14.0210034 15.9883334,12.8453116 15.9883334,11.6801712 C15.9883334,11.0375274 16.1826326,10.4178778 16.5215312,9.98019112 C16.8856296,9.50975513 17.3829276,9.27125224 17.999525,9.27125224 Z M19.3999192,13.0254828 C20.1731159,13.0254828 20.7999133,12.4015529 20.7999133,11.6318933 C20.7999133,10.8622337 20.1731159,10.2383038 19.3999192,10.2383038 C18.6267224,10.2383038 17.999925,10.8622337 17.999925,11.6318933 C17.999925,12.4015529 18.6267224,13.0254828 19.3999192,13.0254828 Z" id="path-1"></path>
    </defs>
    <g id="Symbols" stroke="none" stroke-width="1" fill="none" fill-rule="evenodd">
        <g id="icon/Service/wallet">
            <g id="Icon" transform="translate(12.000000, 14.000000)">
                <mask id="mask-2" fill="white">
                    <use xlink:href="#path-1"></use>
                </mask>
                <use id="Mask" fill="#384048" xlink:href="#path-1"></use>
                <g id="Color/Grayscale/Night-Sky" mask="url(#mask-2)" fill="#111111">
                    <g transform="translate(-12.000000, -14.000000)" id="Swatch">
                        <rect x="0" y="0" width="48" height="48"></rect>
                    </g>
                </g>
            </g>
        </g>
    </g>
</svg>