<svg xmlns="http://www.w3.org/2000/svg" xmlns:xlink="http://www.w3.org/1999/xlink" width="32" height="32" viewBox="0 0 32 32" aria-labelledby="title-54">
  <defs>
    <path id="plus-a" d="M12.9230769,11.0769231 L22.6666667,11.0769231 C23.4030463,11.0769231 24,11.4901987 24,12 C24,12.5098013 23.4030463,12.9230769 22.6666667,12.9230769 L12.9230769,12.9230769 L12.9230769,22.6666667 C12.9230769,23.4030463 12.5098013,24 12,24 C11.4901987,24 11.0769231,23.4030463 11.0769231,22.6666667 L11.0769231,12.9230769 L1.33333333,12.9230769 C0.596953667,12.9230769 0,12.5098013 0,12 C0,11.4901987 0.596953667,11.0769231 1.33333333,11.0769231 L11.0769231,11.0769231 L11.0769231,1.33333333 C11.0769231,0.596953667 11.4901987,0 12,0 C12.5098013,0 12.9230769,0.596953667 12.9230769,1.33333333 L12.9230769,11.0769231 Z"/>
  </defs>
  <title id="title-54" lang="en">expand accordian</title>
  <g fill="none" fill-rule="evenodd" transform="translate(4 4)">
    <use fill="#384048" fill-rule="nonzero" xlink:href="#plus-a"/>
  </g>
</svg>
