<svg xmlns="http://www.w3.org/2000/svg" xmlns:xlink="http://www.w3.org/1999/xlink" width="32" height="32" viewBox="0 0 32 32">
  <defs>
    <path id="cart-new-a" d="M22.3374104,13.4296471 L24.0562972,3.68135619 C24.1483643,3.15921763 24.6462763,2.81057585 25.1684149,2.90264296 C25.6905534,2.99471008 26.0391952,3.49262215 25.9471281,4.0147607 L24.0770062,14.6207489 C24.0740528,14.6374985 24.0706818,14.6540696 24.0669057,14.6704533 C23.9911745,15.1476806 23.5778459,15.51249 23.0793115,15.51249 L8,15.51249 C7.51371104,15.51249 7.10849349,15.1653821 7.01859364,14.7054124 C7.0135287,14.6847573 7.0091101,14.663797 7.00536357,14.6425493 L4.76310837,1.92608819 L1.73473994,1.92608819 C1.20454656,1.92608819 0.774739901,1.49628153 0.774739901,0.966088149 C0.774739901,0.435894768 1.20454656,0.00608811078 1.73473994,0.00608811078 L5.57474009,0.00608811078 C6.08484614,0.00608811078 6.50202804,0.40394372 6.5329072,0.906276363 L8.74111535,13.4296471 L22.3374104,13.4296471 Z M10.25,21.5 C9.00735931,21.5 8,20.4926407 8,19.25 C8,18.0073593 9.00735931,17 10.25,17 C11.4926407,17 12.5,18.0073593 12.5,19.25 C12.5,20.4926407 11.4926407,21.5 10.25,21.5 Z M20.25,21.5 C19.0073593,21.5 18,20.4926407 18,19.25 C18,18.0073593 19.0073593,17 20.25,17 C21.4926407,17 22.5,18.0073593 22.5,19.25 C22.5,20.4926407 21.4926407,21.5 20.25,21.5 Z"/>
  </defs>
  <g fill="none" fill-rule="evenodd" transform="translate(3 6)">
    <use fill="#384048" xlink:href="#cart-new-a"/>
  </g>
</svg>
