<svg xmlns="http://www.w3.org/2000/svg" xmlns:xlink="http://www.w3.org/1999/xlink" width="32" height="32" viewBox="0 0 32 32" aria-labaria-lelledby="title-035">
  <defs>
    <path id="barcode-qr-a" d="M0.00692307692,13.3792122 L1.38461538,13.3792122 L1.38461538,14.7632687 L0.00692307692,14.7632687 L0.00692307692,13.3792122 Z M0.00692307692,9.22704292 L2.76923077,9.22704292 L2.76923077,11.9951558 L0.00692307692,11.9951558 L0.00692307692,9.22704292 Z M4.15384615,11.9951558 L5.53846154,11.9951558 L5.53846154,13.3792122 L6.92307692,13.3792122 L6.92307692,14.7632687 L2.76923077,14.7632687 L2.76923077,13.3792122 L4.15384615,13.3792122 L4.15384615,11.9951558 Z M10.6442308,8.30433863 L10.6442308,9.68839507 L9.25961538,9.68839507 L9.25961538,6.92028219 L12.0288462,6.92028219 L12.0288462,4.15216932 L13.4134615,4.15216932 L13.4134615,5.53622575 L14.7980769,5.53622575 L14.7980769,8.30433863 L10.6442308,8.30433863 Z M10.6442308,2.76811288 L10.6442308,4.15216932 L9.25961538,4.15216932 L9.25961538,0 L10.6442308,0 L10.6442308,1.38405644 L12.0288462,1.38405644 L12.0288462,0 L14.7980769,0 L14.7980769,1.38405644 L13.4134615,1.38405644 L13.4134615,2.76811288 L10.6442308,2.76811288 Z M4.15384615,9.22704292 L6.92307692,9.22704292 L6.92307692,10.6110994 L4.15384615,10.6110994 L4.15384615,9.22704292 Z M13.4134615,18.4637742 L14.7980769,18.4637742 L14.7980769,19.8478307 L13.4134615,19.8478307 L13.4134615,18.4637742 Z M13.4134615,13.8405644 L10.6442308,13.8405644 L10.6442308,9.68839507 L12.0288462,9.68839507 L12.0288462,12.4565079 L13.4134615,12.4565079 L13.4134615,13.8405644 Z M15.6346154,13.3792122 L17.0192308,13.3792122 L17.0192308,14.7632687 L15.6346154,14.7632687 L15.6346154,13.3792122 Z M21.1731923,10.6110994 L21.1731923,9.22704292 L23.9424231,9.22704292 L23.9424231,14.7632687 L21.1731923,14.7632687 L21.1731923,16.1473251 L23.9424231,16.1473251 L23.9424231,17.5313816 L15.6346154,17.5313816 L15.6346154,16.1473251 L17.0192308,16.1473251 L17.0192308,14.7632687 L18.4038462,14.7632687 L18.4038462,16.1473251 L19.7885769,16.1473251 L19.7885769,13.3792122 L17.0192308,13.3792122 L17.0192308,10.6110994 L14.25,10.6110994 L14.25,9.22704292 L19.7884615,9.22704292 L19.7884615,10.6110994 L18.4038462,10.6110994 L18.4038462,11.9951558 L19.7885769,11.9951558 L19.7885769,10.6110994 L21.1731923,10.6110994 Z M22.5578077,19.8478307 L22.5578077,18.915438 L23.9424231,18.915438 L23.9424231,21.2318871 L22.5578077,21.2318871 L22.5578077,24 L17.0192308,24 L17.0192308,22.6159436 L13.4134615,22.6159436 L13.4134615,21.2318871 L17.0192308,21.2318871 L17.0192308,18.4637742 L18.4038462,18.4637742 L18.4038462,22.6159436 L19.7885769,22.6159436 L19.7963077,21.2231214 L21.1809231,21.2231214 L21.1809231,19.8478307 L22.5578077,19.8478307 Z M9.25961538,22.6159436 L10.6442308,22.6159436 L10.6442308,21.2318871 L12.0288462,21.2318871 L12.0288462,24 L9.25961538,24 L9.25961538,22.6159436 Z M7.98069231,10.6110994 L9.36530769,10.6110994 L9.36530769,13.3792122 L7.98069231,13.3792122 L7.98069231,10.6110994 Z M12.0288462,16.1473251 L13.4134615,16.1473251 L13.4134615,17.5313816 L12.0288462,17.5313816 L12.0288462,16.1473251 Z M10.6442308,16.1473251 L10.6442308,18.4637742 L12.0288462,18.4637742 L12.0288462,19.8478307 L10.6442308,19.8478307 L10.6442308,21.2318871 L9.25961538,21.2318871 L9.25961538,16.1473251 L10.6442308,16.1473251 Z M0,7.98715903 L0,0.00968839507 L7.98069231,0.00968839507 L7.98069231,7.98715903 L0,7.98715903 Z M1.38461538,1.39374483 L1.38461538,6.60310259 L6.59607692,6.60310259 L6.59607692,1.39374483 L1.38461538,1.39374483 Z M0,24 L0,16.0226447 L7.98069231,16.0226447 L7.98069231,24 L0,24 Z M1.38461538,17.4067011 L1.38461538,22.6159436 L6.59607692,22.6159436 L6.59607692,17.4067011 L1.38461538,17.4067011 Z M16.0193077,7.98715903 L16.0193077,0.00968839507 L24,0.00968839507 L24,7.98715903 L16.0193077,7.98715903 Z M17.4039231,1.39374483 L17.4039231,6.60310259 L22.6153846,6.60310259 L22.6153846,1.39374483 L17.4039231,1.39374483 Z"/>
  </defs>
  <title id="title-035" lang="en"></title>
  <g fill="none" fill-rule="evenodd" transform="translate(4 4)">
    <use fill="#384048" xlink:href="#barcode-qr-a"/>
  </g>
</svg>
