<svg xmlns="http://www.w3.org/2000/svg" xmlns:xlink="http://www.w3.org/1999/xlink" width="32" height="32" viewBox="0 0 32 32" aria-labaria-lelledby="title-030">
  <defs>
    <path id="device-mobile-a" d="M14.3772632,0 L1.57894737,0.0232548468 C0.661684211,0.0232548468 0,0.717506841 0,1.6201542 L0,22.3798458 C0,23.2823934 0.661684211,23.9767452 1.57894737,23.9767452 L14.3772632,24 C15.2946316,24 16,23.2823934 16,22.3798458 L16,1.6201542 C16,0.717506841 15.2946316,0 14.3772632,0 L14.3772632,0 Z M8,21.980621 C7.53494737,21.980621 7.15789474,21.6231151 7.15789474,21.1821713 C7.15789474,20.7412275 7.53494737,20.3837216 8,20.3837216 C8.46505263,20.3837216 8.84210526,20.7412275 8.84210526,21.1821713 C8.84210526,21.6231151 8.46505263,21.980621 8,21.980621 L8,21.980621 Z M13.0526316,18.4874036 C13.0526316,19.0288523 12.5002105,19.5852719 11.8947368,19.5852719 L4,19.5852719 C3.40968421,19.5852719 2.95473684,19.1031081 2.95473684,18.5433949 L2.94736842,3.81589081 C2.91852632,3.57575707 2.98810526,3.29949348 3.15789474,3.11724734 C3.35389474,2.90685585 3.68421053,2.81782872 4,2.81782872 L12,2.81782872 C12.5001053,2.81782872 13.0526316,3.22863107 13.0526316,3.81589081 L13.0526316,18.4874036 L13.0526316,18.4874036 Z"/>
  </defs>
  <title id="title-030" lang="en">mobile device</title>
  <g fill="none" fill-rule="evenodd" transform="translate(8 4)">
    <use fill="#384048" xlink:href="#device-mobile-a"/>
  </g>
</svg>
