<svg xmlns="http://www.w3.org/2000/svg" width="32" height="32" viewBox="0 0 32 32">
  <path fill="#111" fill-rule="evenodd" d="M16.4315657,13.7360258 C16.3897884,13.5659652 16.4938909,13.3942017 16.664065,13.3524245 C16.8337851,13.3100796 17.0055485,13.4147497 17.0473258,13.5844698 C17.0498233,13.5942329 17.1644837,14.0418624 17.4293377,14.4980062 L18.0200088,15.2152578 C18.2493295,15.4119968 18.439484,15.4888533 18.6484837,15.5571954 C18.8149115,15.6116874 18.9057316,15.7907165 18.8514666,15.9571443 C18.8076459,16.0909904 18.6833359,16.1757936 18.5499439,16.1757936 C18.5173622,16.1757936 18.4842129,16.170685 18.4514042,16.1601271 C18.1049256,16.0468291 17.7260923,15.8893698 17.2414537,15.3283288 C16.6627027,14.6578496 16.4407612,13.7733755 16.4315657,13.7360258 M18.2887227,12.6838752 C18.1895018,12.5396983 18.2259433,12.3421646 18.3703472,12.2429437 L19.1089415,11.7349189 C19.1835275,11.6837191 19.2771857,11.6665768 19.3647136,11.6883736 L19.9675318,11.8376591 C20.1375924,11.8797769 20.2412408,12.0517674 20.199123,12.221601 C20.1570052,12.3915481 19.9855823,12.495537 19.8151811,12.4531922 L19.35075,12.3381913 L18.7295406,12.7654997 C18.674708,12.8030765 18.6121557,12.8213541 18.5502845,12.8213541 C18.4493607,12.8213541 18.3502533,12.773333 18.2887227,12.6838752 M23.3347997,24.5298784 C21.0858675,21.8833813 20.0712938,20.7002228 19.6006187,20.1725581 L19.6010728,20.1719905 C19.6277512,20.1589351 19.6515915,20.1409982 19.6730477,20.1210178 C19.6769076,20.1174985 19.6807674,20.1137521 19.6845138,20.1097788 C19.7049483,20.0887766 19.7220906,20.0661851 19.7354865,20.0404149 C19.7365083,20.0390526 19.7379841,20.0379174 19.7390058,20.0359875 C19.7415034,20.031787 19.742298,20.0264513 19.744228,20.0215698 C19.7501313,20.008855 19.7553534,19.995459 19.7594403,19.981836 C19.7618243,19.9740028 19.7633002,19.966283 19.7651166,19.9583363 C19.7676141,19.9449403 19.7695441,19.9316579 19.7705658,19.9176943 C19.7709064,19.9095205 19.771474,19.9012332 19.771474,19.8928323 C19.771474,19.8798904 19.7699982,19.8667215 19.7681818,19.8536662 C19.7665924,19.8449247 19.7656842,19.8357292 19.7637543,19.8268742 C19.7633002,19.8234685 19.7633002,19.8206303 19.7621649,19.8172246 C19.7594403,19.8071209 19.7550128,19.7972442 19.7510395,19.7877081 C19.7486554,19.7812371 19.7476337,19.7748797 19.7447956,19.76909 L19.3978629,19.0047255 C19.3609672,18.9237821 19.2910358,18.8625921 19.2060055,18.8373895 C19.0192567,18.7816487 18.878145,18.7407796 18.7708638,18.7112631 L18.9824746,17.9906058 C19.1803488,18.0307937 19.4743788,18.0780201 19.868992,18.1074231 C20.3596475,18.1439782 20.7178192,18.0586073 20.9653039,17.8441584 C21.2468461,17.5999659 21.3034952,17.2576878 21.3214321,16.9871575 C21.3506081,16.5555351 21.1914459,16.2878429 21.0524912,16.1392385 C20.8996864,15.9753083 20.7124835,15.8852829 20.5502561,15.8364671 L20.8584768,14.3326002 C20.9599682,14.3363465 21.0506748,14.3383899 21.1298018,14.3383899 C21.6656402,14.3383899 21.723311,14.2561978 21.7907449,14.1616314 C21.9823752,13.8923498 21.8316139,13.4935362 21.0211582,12.1316891 C20.9672338,12.0409826 20.9152393,11.9535682 20.8822035,11.8958975 C20.850303,10.683563 20.6886432,9.80090536 20.4014247,9.25882303 C20.66503,9.16425662 20.8629043,8.98034597 20.961444,8.71526487 C21.1258284,8.2756957 20.9604223,7.73497566 20.5848813,7.4845393 C20.2164924,7.23898452 17.8978558,6.01370816 15.7688061,6.11326966 C14.4429465,6.17570847 12.027246,7.11478806 11.1882956,9.36951 C11.1843222,9.38006783 11.1809164,9.39028509 11.1785324,9.40095645 C10.3568378,12.6242745 12.5174474,15.4208517 13.1362727,16.1382168 C13.1345698,16.1410549 13.1337751,16.1445742 13.1321858,16.1474123 C12.5160851,17.2283983 9.70713363,22.1863798 8.70266358,24.5624601 C6.28151386,22.4959628 4.74200003,19.4252224 4.74200003,15.9999432 C4.74200003,9.79227746 9.79216393,4.74200003 15.9998297,4.74200003 C22.207609,4.74200003 27.258,9.79227746 27.258,15.9999432 C27.258,19.407399 25.7342661,22.4637216 23.3347997,24.5298784 M18.7353304,19.3406462 C18.7873249,19.3558586 18.8415899,19.371298 18.8955143,19.3871915 L19.029474,19.6816756 C18.9983681,19.6921199 18.9731655,19.7036995 18.9464871,19.7152791 L17.8259944,20.0123742 L17.7973861,19.5310278 L18.5942187,19.4042203 C18.6481432,19.3955924 18.695029,19.3722062 18.7353304,19.3406462 M15.1617875,8.22903688 C14.9972896,8.1893031 14.8302942,8.28977281 14.7896522,8.45472477 C14.7493508,8.61956321 14.8501611,8.78610453 15.0152266,8.82640594 C15.0550739,8.8361691 15.7145411,8.99544481 16.405909,8.97682669 L16.4107906,8.97625906 C16.4115852,8.97875662 16.4116988,8.98136769 16.412607,8.98386525 C16.4700507,9.14654671 16.4821978,9.36076856 16.4526813,9.41401183 C16.0483049,9.98685947 16.3197434,10.4652542 16.4656232,10.722275 C16.4832196,10.7532674 16.5002483,10.783238 16.5159148,10.8127545 C16.5783536,10.9303665 16.6115029,11.0277711 16.4709589,11.2110006 C16.1633059,11.610836 16.0360442,12.3364884 16.3671969,12.8114774 C16.428614,12.8999134 16.5273808,12.9472534 16.62751,12.9472534 C16.6900623,12.9472534 16.7532958,12.9287488 16.8085825,12.8902638 C16.9521917,12.7901347 16.987498,12.5924875 16.8872554,12.4487647 C16.7376293,12.2340887 16.8121018,11.8074614 16.973875,11.5973265 C17.3734834,11.0765869 17.1497254,10.6546141 17.0765017,10.5159999 C17.0579971,10.4813748 17.0379032,10.4458414 17.0171281,10.4092864 C16.8695455,10.1489733 16.8058579,10.0134243 16.9708099,9.78001674 C17.1666407,9.50278846 17.1000014,9.09977437 17.0474393,8.8958833 C17.1392811,8.87295123 17.2288524,8.84695398 17.313088,8.8122153 C17.8227022,8.60208035 18.880529,8.95752742 19.364373,9.17333863 C19.4079666,9.21307241 19.461891,9.23986434 19.5210376,9.24860577 C19.5395422,9.25836893 19.5574792,9.26813209 19.5711022,9.27630589 C19.6093601,9.29946501 19.6506833,9.310704 19.692347,9.3161532 C19.8670621,9.47849409 20.2265961,10.0464601 20.2688274,11.9843335 C20.2698492,12.0298571 20.2805205,12.0744725 20.3008415,12.115228 C20.3300175,12.1730122 20.3862124,12.2580425 20.4922448,12.4362769 C20.6407356,12.6855781 21.0345542,13.1775958 21.1874725,13.7011736 L21.185202,13.7011736 C20.8783437,13.7011736 20.3507925,13.6800579 19.8990762,13.6397565 C19.728675,13.6227277 19.5802977,13.7548709 19.5651989,13.9243639 C19.5502136,14.0936298 19.6754318,14.2456399 19.8442436,14.2601711 C19.9864905,14.2727724 20.1170444,14.2851467 20.2382892,14.2942287 L20.1271481,14.8359704 L20.1094382,14.9227036 L19.6803133,14.9227036 C19.4876612,14.9227036 19.3313372,15.0789141 19.3313372,15.2716797 C19.3313372,15.4644454 19.4876612,15.6207694 19.6803133,15.6207694 L19.9663966,15.6207694 L19.8839774,16.0229888 C19.8656998,16.1133548 19.8884048,16.2074671 19.9466432,16.2786473 C20.0049951,16.3499411 20.0921824,16.3916048 20.1844783,16.3921724 C20.2402191,16.3921724 20.4741943,16.4211213 20.6029318,16.5590543 C20.6848969,16.6469228 20.719295,16.7733897 20.7074884,16.9457208 C20.692049,17.177312 20.6497041,17.3028708 20.5619492,17.3792732 C20.4484241,17.4775859 20.2243256,17.5169791 19.9150832,17.4942741 C19.5604308,17.4675957 19.301026,17.4264996 19.1285814,17.392215 C19.0974755,17.3633796 19.0603528,17.340334 19.0177809,17.3254623 L18.8904057,17.281528 C18.3448041,17.0947793 17.7260923,16.8829414 16.7559069,16.0819084 C15.8011608,15.2940442 15.641658,14.0307369 15.6402957,14.0187033 C15.6254239,13.8892846 15.533128,13.7820034 15.4073422,13.7482865 C15.0255573,13.6458868 14.759341,13.4592516 14.6158453,13.1937164 C14.4699655,12.9237537 14.4539585,12.5636521 14.571684,12.2061616 C14.6239055,12.0476805 14.7012161,11.945508 14.8082703,11.8940811 C14.9783309,11.8122295 15.2071975,11.8654728 15.2815564,11.8930594 C15.4448055,11.9547035 15.627808,11.8741007 15.6907009,11.7108516 C15.7538208,11.5476025 15.6723098,11.3640324 15.5088337,11.301026 C15.4563851,11.2805915 14.983099,11.1092821 14.5388753,11.3198711 C14.3533752,11.4078531 14.1043012,11.5983482 13.9694334,12.0077197 C13.7973293,12.5302757 13.8295704,13.0723581 14.0578694,13.495239 C14.2560842,13.8621522 14.5950702,14.137337 15.0449701,14.2988832 C15.1360173,14.7476479 15.4398104,15.8179625 16.3520981,16.571088 C17.2463353,17.3093417 17.8885467,17.5962196 18.4084917,17.7847848 L18.3990691,17.7914828 L18.1875718,18.5142971 C17.3498702,18.0735926 14.6249273,16.5845975 13.8175368,16.1265237 C13.825143,16.0402446 13.7994863,15.9524897 13.736934,15.8869858 C13.7087797,15.8572422 10.9325235,12.9013893 11.7704523,9.56897359 C12.4727185,7.70738906 14.5460273,6.78670053 15.7979821,6.72755396 C17.5886134,6.64297776 19.7127815,7.64233918 20.2437384,7.99665101 C20.3815578,8.08871986 20.4494459,8.32848487 20.3854177,8.49990776 C20.3120805,8.69585208 20.0941123,8.72934198 19.900552,8.71526487 C19.8204033,8.67462288 19.7433198,8.65169081 19.6738424,8.64192766 C19.1487888,8.39989215 17.8667499,7.91945394 17.0786587,8.24322752 C16.5108062,8.47652159 15.5024763,8.31247783 15.1617875,8.22903688 M9.19910883,24.9639984 C10.0378322,22.8938682 12.7197491,18.1216138 13.540422,16.6754176 C13.8572706,16.8566036 14.4771176,17.2004711 15.7145411,17.8770807 C16.6914246,18.4118974 17.2862961,18.7344222 17.6555932,18.9305936 L17.4250238,18.9669216 C17.2689268,18.9916701 17.1572181,19.131533 17.1664136,19.2892194 L17.2338475,20.4243568 C17.2391832,20.5164257 17.2862961,20.601456 17.3611091,20.6553804 C17.4138983,20.6936383 17.4771318,20.7139593 17.5411599,20.7139593 C17.5673842,20.7139593 17.5940626,20.7106671 17.6197193,20.7034015 L18.1341015,20.5673984 L20.3624856,25.430473 C20.414026,25.5436575 20.5257347,25.6100697 20.6420979,25.6100697 C20.6852375,25.6100697 20.7284905,25.6008741 20.7702678,25.5819155 C20.9244349,25.5110758 20.9925499,25.3287545 20.9217103,25.1743604 L18.737828,20.407328 L18.9421732,20.3529495 C19.4150052,20.879933 21.3865955,23.1883523 22.8579943,24.9190424 C21.7214946,25.7950021 20.414026,26.4582157 18.9943947,26.8505584 C18.9434219,24.1796535 17.511984,20.9313599 16.5306731,19.8449247 C14.6663639,17.7814926 14.3731286,17.5659084 14.202841,17.5091459 C14.0411812,17.4548809 13.8670337,17.5421817 13.8131093,17.7037279 C13.7615689,17.8580085 13.8397877,18.0244363 13.9883921,18.0852857 C14.1158807,18.1631639 14.5837177,18.6080688 16.0740751,20.2573614 C16.8685237,21.1371809 18.3612652,24.2095106 18.3815862,26.946033 C18.3816998,26.9652187 18.3805645,26.9833828 18.3805645,27.0023415 C18.0018448,27.084193 17.6165406,27.1475401 17.224879,27.190112 C16.8411642,24.464715 16.2692248,23.5054279 14.6109637,22.0999872 L15.7639246,22.0621834 C15.8653025,22.0587776 15.9585066,22.0059884 16.0129986,21.9208446 C16.0678312,21.8354738 16.0770268,21.7293278 16.0377471,21.6355561 C15.7255531,20.891172 13.3701344,18.448339 12.9638281,18.448339 C12.7939945,18.448339 12.6567427,18.5860449 12.6567427,18.7558785 C12.6567427,18.8846159 12.7348479,18.9941676 12.8464431,19.0401453 C13.1167464,19.2232613 14.5880316,20.6067916 15.2194582,21.4641332 L13.7738296,21.5119272 C13.6446381,21.5163547 13.5325888,21.6001362 13.4919468,21.7225163 C13.4510778,21.8447828 13.4909251,21.9791965 13.5913948,22.0595723 C15.5382367,23.6169096 16.1849891,24.2601428 16.6105947,27.2408577 C16.408293,27.2517561 16.204856,27.258 15.9998297,27.258 C13.4464232,27.258 11.0898693,26.4021343 9.19910883,24.9639984 M15.9998297,4 C9.38313301,4 4,9.38324653 4,15.9999432 C4,22.616867 9.38313301,28 15.9998297,28 C22.6167535,28 28,22.616867 28,15.9999432 C28,9.38324653 22.6167535,4 15.9998297,4"/>
</svg>
