<svg xmlns="http://www.w3.org/2000/svg" xmlns:xlink="http://www.w3.org/1999/xlink" width="32" height="32" viewBox="0 0 32 32">
    <defs>
        <path id="a" d="M12 0c6.627 0 12 5.373 12 12s-5.373 12-12 12S0 18.627 0 12 5.373 0 12 0zm.828 11.436V7.473c.709.121 1.374.407 2.055.901.112.08.224.112.368.112.335 0 .644-.297.644-.631 0-.239-.181-.387-.309-.482-.826-.592-1.684-.944-2.758-1.057v-.633a.683.683 0 0 0-1.366 0v.624c-1.83.206-3.11 1.415-3.11 3.005v.032c0 1.669.984 2.503 3.11 3.06v4.1c-.921-.17-1.697-.574-2.472-1.229a.561.561 0 0 0-.383-.143.609.609 0 0 0-.607.62c0 .207.096.382.24.477.978.775 2.027 1.254 3.222 1.424v.664a.683.683 0 0 0 1.366 0v-.604c2.033-.126 3.461-1.333 3.461-3.137v-.032c0-1.66-1.095-2.563-3.46-3.108zM9.613 9.233V9.2c0-.873.705-1.59 1.849-1.758v3.65c-1.468-.457-1.849-1.006-1.849-1.86zm5.399 5.47c0 1.02-.857 1.778-2.184 1.88v-3.856c1.742.46 2.184 1.027 2.184 1.944v.032z"/>
    </defs>
    <g fill="none" fill-rule="evenodd" transform="translate(4 4)">
        <mask id="b" fill="#fff">
            <use xlink:href="#a"/>
        </mask>
        <use fill="#384048" xlink:href="#a"/>
        <g fill="#384048" mask="url(#b)">
            <path d="M-4-4h32v32H-4z"/>
        </g>
    </g>
</svg>
