<svg xmlns="http://www.w3.org/2000/svg" xmlns:xlink="http://www.w3.org/1999/xlink" width="32" height="32" viewBox="0 0 32 32" aria-labaria-lelledby="title-020">
  <defs>
    <path id="ribbon-a" d="M17.4269508,7.71525087 C18.2021311,8.8791853 18.0976721,10.0233482 17.1248852,11.023845 C16.5840984,11.5803279 16.3225574,12.0809737 16.3017049,12.5992052 C16.2983607,12.6786885 16.2932459,12.7554893 16.2871475,12.8307998 C16.1835738,14.0263289 15.6128852,14.7191257 14.4488852,15.0459016 C14.4570492,15.0795827 14.4650164,15.1109786 14.4720984,15.1357178 C14.6875082,15.885842 14.8437049,16.4390462 14.97,16.8864382 C15.3707213,18.3059116 15.4659344,18.6431197 16.1924262,20.8167909 C16.2662951,21.0377546 16.2058033,21.2818679 16.0377049,21.4416294 C15.8695082,21.601391 15.6244918,21.6475907 15.4108525,21.5596622 C15.3591148,21.5384004 15.1600328,21.4640835 14.9491475,21.3853949 C14.3857377,21.1752608 13.5341311,20.8576254 13.0976066,20.6659712 C13.0314098,20.6368604 12.9719016,20.6222553 12.9203607,20.6222553 C12.6908852,20.6222553 12.4572787,20.9552906 12.3385574,21.1537009 C12.1094754,21.536314 11.9203279,21.8661699 11.7012787,22.2482861 C11.478,22.6375559 11.2250164,23.0787879 10.888623,23.6457029 C10.7674426,23.8495777 10.5369836,23.9612519 10.3048525,23.930154 C10.0714426,23.8988574 9.87885246,23.7305514 9.81462295,23.5018381 C9.48580328,22.3307501 9.08793443,21.0905117 8.76245902,20.1154496 C8.69911475,20.3497268 8.6395082,20.5700944 8.57960656,20.7915549 C8.3852459,21.5098857 8.18734426,22.2408346 7.84888525,23.5007452 C7.78681967,23.731545 7.59422951,23.9026329 7.3597377,23.9352211 C7.33278689,23.9388972 7.30583607,23.9407849 7.27918033,23.9407849 C7.07360656,23.9407849 6.88013115,23.8319921 6.77272131,23.6503726 C6.40347541,23.0259314 6.14478689,22.5464481 5.89465574,22.082762 C5.7244918,21.7674118 5.56377049,21.4696473 5.38042623,21.1494287 C5.30527869,21.0179831 5.10088525,20.7126677 4.8267541,20.7126677 C4.75898361,20.7126677 4.68511475,20.7308495 4.60731148,20.7665176 C4.23442623,20.9376056 3.58908197,21.160159 3.01967213,21.3565822 C2.706,21.4647789 2.38160656,21.5766518 2.28590164,21.6192747 C2.07157377,21.7149528 1.82163934,21.673224 1.64901639,21.5134625 C1.47639344,21.3537009 1.41354098,21.1058122 1.48908197,20.8818679 C2.50022951,17.8815698 2.58914754,17.5820169 3.28121311,15.2501739 L3.34318033,15.0414307 C2.22619672,14.7108793 1.67970492,14.0186786 1.58114754,12.8310979 C1.57495082,12.7535022 1.57022951,12.6762047 1.56727869,12.5979136 C1.54711475,12.0752111 1.29629508,11.5718828 0.777934426,11.014307 C-0.147737705,10.0186786 -0.247868852,8.88137109 0.488360656,7.72528564 C0.899114754,7.0804769 1.04301639,6.39562842 0.928229508,5.63139593 C0.745672131,4.41530055 1.27268852,3.47282663 2.412,2.97764531 C3.27196721,2.60387481 3.85052459,2.0900149 4.2327541,1.36065574 C4.65885246,0.547044213 5.35937705,0.0988574267 6.20518033,0.0988574267 C6.40829508,0.0988574267 6.61996721,0.125285643 6.83429508,0.177347243 C7.66131148,0.378539493 8.32485246,0.46010929 8.86377049,0.427620467 C8.87537705,0.426825633 8.88698361,0.426527571 8.89868852,0.426527571 L8.96154098,0.426527571 C9.78481967,0.402285147 10.5450492,0.243417784 10.8342295,0.176055638 C11.0546557,0.124888227 11.2719344,0.0989567809 11.4801639,0.0989567809 C12.3494754,0.0989567809 13.071541,0.54366617 13.5135738,1.35111773 C13.9137049,2.08216592 14.5215738,2.59781421 15.4261967,2.9739692 C16.6131148,3.4674615 17.161082,4.41261798 16.9692787,5.63527074 C16.850459,6.39354198 17.0001639,7.07391952 17.4269508,7.71525087 Z M12.9050164,12.9447591 C13.9832459,11.8514655 14.5734098,10.4144064 14.5665246,8.8982613 C14.5599344,7.39205166 13.9638689,5.97516145 12.8880984,4.90849478 C11.8328852,3.86209637 10.4139344,3.25176354 8.89278689,3.18996523 C8.87695082,3.18926975 8.86121311,3.18897168 8.84537705,3.18897168 C8.83081967,3.18897168 8.8162623,3.18926975 8.80170492,3.18976652 C7.31862295,3.24530551 5.92229508,3.85394933 4.86983607,4.90342772 C3.79288525,5.97734724 3.19632787,7.39612519 3.19003279,8.89846001 C3.18363934,10.4122206 3.77813115,11.8527571 4.86403279,12.9544958 C5.92986885,14.0360656 7.33377049,14.6583209 8.81714754,14.7066071 C8.82983607,14.7070045 8.84252459,14.7072032 8.85521311,14.7072032 C8.86996721,14.7072032 8.88462295,14.7069051 8.89937705,14.706309 C10.4188525,14.6488823 11.8414426,14.0232489 12.9050164,12.9447591 Z M7.812,11.4520616 C7.6555082,11.4520616 7.50531148,11.3892697 7.39465574,11.2773969 L5.94659016,9.81460507 C5.71613115,9.58181818 5.71613115,9.20437158 5.94668852,8.9715847 C6.17714754,8.73879781 6.55091803,8.73879781 6.78127869,8.97168405 L7.812,10.012916 L10.9756721,6.81738698 C11.2060328,6.5846001 11.5797049,6.5846001 11.8102623,6.81738698 C12.0407213,7.05017387 12.0407213,7.42762047 11.8101639,7.66040735 L8.22934426,11.2774963 C8.11859016,11.3892697 7.9684918,11.4520616 7.812,11.4520616 Z"/>
  </defs>
  <title id="title-020" lang="en"></title>
  <g fill="none" fill-rule="evenodd" transform="translate(7 4)">
    <use fill="#333" xlink:href="#ribbon-a"/>
  </g>
</svg>
