<svg xmlns="http://www.w3.org/2000/svg" xmlns:xlink="http://www.w3.org/1999/xlink" width="32" height="32" viewBox="0 0 32 32" aria-labaria-lelledby="title-025">
  <defs>
    <path id="ruler-a" d="M23.8240838,6.71894871 L17.2809412,0.175940344 C17.0464529,-0.0586467812 16.6658852,-0.0586467812 16.431497,0.175940344 L0.17591623,16.4315365 C0.0632777789,16.5441744 0,16.6969614 0,16.8562564 C0,17.0155513 0.0632777789,17.1683383 0.17591623,17.2809762 L6.71895872,23.8239846 C6.83620283,23.9413282 6.98999187,24 7.1437809,24 C7.29756993,24 7.45125884,23.9413282 7.56860307,23.8239846 L9.34008052,22.0526165 L5.29170439,18.0044617 C5.05711604,17.7697745 5.05711604,17.3894089 5.29170439,17.1549219 C5.52629273,16.9202347 5.90666027,16.9203348 6.14124862,17.1548218 L10.1896247,21.2029766 L12.3058259,19.0867864 L9.53632173,16.3174969 C9.30173338,16.0828097 9.30173338,15.7024441 9.53632173,15.4679571 C9.77091008,15.2332699 10.1512776,15.23337 10.385866,15.467857 L13.1553701,18.2372466 L15.2713711,16.1212567 L11.2228948,12.0728016 C10.9883065,11.8382145 10.9883065,11.4578489 11.2228948,11.2232618 C11.4574832,10.9886747 11.8379508,10.9886747 12.072439,11.2232618 L16.1209153,15.2717169 L18.2369162,13.1557271 L15.4675122,10.3861372 C15.2329238,10.1515501 15.2329238,9.7710844 15.4676123,9.5365974 C15.7022006,9.30191015 16.0826683,9.3021104 16.3171565,9.5365974 L19.0865606,12.3061873 L21.2026616,10.1900973 L17.1544857,6.14164211 C16.9198974,5.90705499 16.9198974,5.52658932 17.1545858,5.29210231 C17.3890741,5.05741507 17.7695417,5.05761531 18.0041301,5.29210231 L22.0522058,9.34055745 L23.8239836,7.56878888 C23.9367222,7.45615102 24,7.30336401 24,7.14396892 C24,6.98457383 23.9368223,6.83158658 23.8240838,6.71894871"/>
  </defs>
  <title id="title-025" lang="en">size guide</title>
  <g fill="none" fill-rule="evenodd" transform="translate(4 4)">
    <use fill="#384048" xlink:href="#ruler-a"/>
  </g>
</svg>
