<svg xmlns="http://www.w3.org/2000/svg" xmlns:xlink="http://www.w3.org/1999/xlink" width="32" height="32" viewBox="0 0 32 32">
    <defs>
        <path id="a" d="M23.824 6.719L17.281.176a.6.6 0 0 0-.85 0L.176 16.432a.6.6 0 0 0 0 .849l6.543 6.543a.599.599 0 0 0 .85 0l1.771-1.771-4.048-4.049a.6.6 0 0 1 .85-.85l4.048 4.049 2.116-2.116-2.77-2.77a.6.6 0 0 1 .85-.85l2.77 2.77 2.115-2.116-4.048-4.048a.6.6 0 0 1 .85-.85l4.048 4.049 2.116-2.116-2.77-2.77a.6.6 0 1 1 .85-.85l2.77 2.77 2.116-2.116-4.049-4.048a.6.6 0 1 1 .85-.85l4.048 4.049 1.772-1.772a.6.6 0 0 0 0-.85"/>
    </defs>
    <g fill="none" fill-rule="evenodd" transform="translate(4 4)">
        <mask id="b" fill="#fff">
            <use xlink:href="#a"/>
        </mask>
        <use fill="#384048" xlink:href="#a"/>
        <g fill="#111" mask="url(#b)">
            <path d="M-12-12h48v48h-48z"/>
        </g>
    </g>
</svg>
