<svg xmlns="http://www.w3.org/2000/svg" xmlns:xlink="http://www.w3.org/1999/xlink" width="32" height="32" viewBox="0 0 32 32" aria-labelledby="title-19">
  <defs>
    <path id="thumbsdown-fill-a" d="M22.7994921,15.1713704 L18.4865052,15.1713704 C17.8243272,15.1713704 17.2856511,14.6325013 17.2856511,13.9701751 L17.2856511,1.20131079 C17.2856511,0.538869079 17.8243272,0 18.4865052,0 L22.7994921,0 C23.4614393,0 24,0.538984568 24,1.20131079 L24,13.9700596 C24,14.6325013 23.4614393,15.1713704 22.7994921,15.1713704 Z M9.6897447,24 L9.16018696,24 C7.30188713,24 5.7900852,22.4836367 5.7900852,20.6196532 L5.7900852,19.982388 C5.7900852,19.6195233 5.81432389,19.3197153 5.86649479,19.0421966 L6.16151432,16.1420508 L2.45484098,15.2121378 C2.44399128,15.2093661 2.43314158,15.2063634 2.4224073,15.2031297 C0.647788676,14.6651846 -0.360425547,12.8480894 0.119154315,11.0597508 L1.8878864,2.69376795 C1.89077196,2.68025581 1.89400379,2.66697464 1.89758188,2.65369346 C2.30017503,1.18675925 3.64265238,0.161106379 5.16403437,0.15660233 L11.1689975,0.000230976888 C11.1749995,0.000115488444 11.1810015,0 11.1870034,0 C12.1365831,0 13.0544216,0.408136161 13.7057499,1.11966046 L14.3286844,1.80912647 C14.4177904,1.83372551 14.6574072,1.88107577 15.2157051,1.89735965 C15.5901352,1.90833105 15.8879249,2.21518384 15.8879249,2.59005933 L15.8879249,13.6884988 C15.8879249,13.9863435 15.6977088,14.2509275 15.4153858,14.3455126 C14.6076602,14.616333 13.9622184,15.1103925 13.4959121,15.8145256 L12.1446627,19.04774 C12.1303503,19.0812317 12.1185772,19.1053688 12.106227,19.1301988 C12.104034,19.1343564 12.0999942,19.1424406 12.0979166,19.1465981 C11.8690341,19.5817586 11.7560356,19.9359617 11.7732335,20.6648092 C11.773349,20.6702372 11.773349,20.6757806 11.773349,20.6812086 C11.773349,20.7037288 11.7731181,20.7231309 11.7718485,20.7449582 L11.7244099,22.0459355 C11.68482,23.1415744 10.7909893,24 9.6897447,24 Z"/>
  </defs>
  <title id="title-19" lang="en">dislike(active)</title>
  <g fill="none" fill-rule="evenodd" transform="translate(4 4)">
    <use fill="#384048" xlink:href="#thumbsdown-fill-a"/>
  </g>
</svg>
