<svg xmlns="http://www.w3.org/2000/svg" xmlns:xlink="http://www.w3.org/1999/xlink" width="32" height="32" viewBox="0 0 32 32" aria-labelledby="title-20">
  <defs>
    <path id="thumbsdown-line-a" d="M22.7795005,0.466153846 L17.0833082,0.466153846 C16.4213467,0.466153846 15.8828467,1.00453846 15.8828467,1.66638462 L15.8828467,1.89623077 C15.0599236,1.91076923 14.5389621,1.88446154 14.3332313,1.81753846 L13.7013851,1.11865385 C13.0502698,0.407653846 12.1328467,0 11.1834621,0 C11.1774621,0 11.1714621,0.000115384615 11.1654621,0.000230769231 L5.16246206,0.156461538 C3.64157745,0.161076923 2.29953899,1.18569231 1.89707745,2.65130769 C1.89338514,2.66457692 1.89015437,2.67796154 1.88726975,2.69134615 L0.119115908,11.0498077 C-0.360307169,12.8365385 0.647577447,14.6518846 2.42150052,15.1894615 C2.43223129,15.1928077 2.44307745,15.1956923 2.4539236,15.1984615 L6.15950052,16.1275385 L5.86457745,19.0250769 C5.81253899,19.3023462 5.78819283,19.6021154 5.78819283,19.9644231 L5.78819283,20.6011154 C5.78819283,22.4633077 7.29950052,23.9783077 9.15719283,23.9783077 L9.68657745,23.9783077 C10.7874621,23.9783077 11.6810005,23.1206538 11.7206928,22.0257692 L11.7682313,20.7246923 C11.7693851,20.7032308 11.7696159,20.6841923 11.7696159,20.6623846 C11.7696159,20.6569615 11.7696159,20.6514231 11.7695005,20.646 C11.7523082,19.9179231 11.8652698,19.5639231 12.0940774,19.1292692 C12.0962698,19.1252308 12.1003082,19.1170385 12.1023851,19.1128846 C12.1148467,19.0880769 12.1265005,19.0639615 12.1408082,19.0305 L13.4915005,15.8003077 C14.0541159,14.952 14.9045005,14.3821154 15.8828467,14.1807692 L15.8828467,14.4236538 C15.8828467,15.0855 16.4213467,15.6238846 17.0833082,15.6238846 L22.7795005,15.6238846 C23.4413467,15.6238846 23.9797313,15.0855 23.9797313,14.4236538 L23.9797313,1.66638462 C23.9797313,1.00453846 23.4413467,0.466153846 22.7795005,0.466153846 L22.7795005,0.466153846 Z M12.2946159,15.1009615 C12.2729236,15.135 12.2541159,15.1706538 12.238539,15.2079231 L10.8680005,18.4855385 L10.8650005,18.4915385 C10.5512698,19.0893462 10.3616928,19.6648846 10.3850005,20.6644615 C10.3848851,20.6655 10.3848851,20.6666538 10.3847698,20.6679231 L10.3370005,21.9754615 C10.3241928,22.3279615 10.0446159,22.5936923 9.68657745,22.5936923 L9.15719283,22.5936923 C8.0444236,22.5936923 7.17280822,21.7183846 7.17280822,20.6011154 L7.17280822,19.9644231 C7.17280822,19.6795385 7.1909236,19.4555769 7.22946206,19.2593077 C7.23361591,19.2381923 7.23673129,19.2170769 7.23903899,19.1956154 L7.59753899,15.6717692 C7.63238514,15.3296538 7.41073129,15.0138462 7.07715437,14.9300769 L2.80815437,13.8597692 C1.76046206,13.5339231 1.16876975,12.4547308 1.45988514,11.3957308 C1.46357745,11.3824615 1.46680822,11.3690769 1.46969283,11.3555769 L3.23726975,2.99965385 C3.48223129,2.14015385 4.27503899,1.54130769 5.17215437,1.54107692 C5.17815437,1.54107692 5.18403899,1.54107692 5.19003899,1.54084615 L11.1918851,1.38461538 C11.7504621,1.38692308 12.2926544,1.6305 12.6773467,2.0505 L13.366539,2.81284615 C13.7496159,3.23111538 14.5211928,3.30438462 15.8828467,3.28096154 L15.8828467,12.7752692 C14.4040774,12.9963462 13.1143082,13.8245769 12.2946159,15.1009615 L12.2946159,15.1009615 Z M17.2674621,1.85076923 L22.5951159,1.85076923 L22.5951159,14.2392692 L17.2674621,14.2392692 L17.2674621,1.85076923 Z"/>
  </defs>
  <title id="title-19" lang="en">dislike(inactive)</title>
  <g fill="none" fill-rule="evenodd" transform="translate(4 4)">
    <use fill="#384048" xlink:href="#thumbsdown-line-a"/>
  </g>
</svg>
