<svg id="icon_x2F_Nav_x2F_arrow-right-Layer_1" xmlns="http://www.w3.org/2000/svg" viewBox="0 0 48 48" enable-background="new 0 0 48 48"><title>icon/Nav/arrow-right</title><g id="icon_x2F_Nav_x2F_arrow-right-Symbols"><g id="icon_x2F_Nav_x2F_arrow-right"><g id="icon_x2F_Nav_x2F_arrow-right-Icon" transform="translate(9 12)"><g id="icon_x2F_Nav_x2F_arrow-right-Path"><path id="icon_x2F_Nav_x2F_arrow-right-path-1_1_" d="M26.6 12.9l-10.3 9.5c-.4.4-.4.9 0 1.3s1 .4 1.4 0l12-11.1c.4-.4.4-.9 0-1.3L17.7.2c-.4-.4-1-.4-1.4 0-.4.4-.4.9 0 1.3L26.6 11H1c-.6 0-1 .4-1 .9s.4.9 1 .9h25.6z" fill="#384048"/></g><defs><filter id="icon_x2F_Nav_x2F_arrow-right-Adobe_OpacityMaskFilter" filterUnits="userSpaceOnUse" x="-9" y="-12" width="48" height="48"><feColorMatrix values="1 0 0 0 0 0 1 0 0 0 0 0 1 0 0 0 0 0 1 0"/></filter></defs><mask maskUnits="userSpaceOnUse" x="-9" y="-12" width="48" height="48" id="icon_x2F_Nav_x2F_arrow-right-mask-2"><g filter="url(#icon_x2F_Nav_x2F_arrow-right-Adobe_OpacityMaskFilter)"><path id="icon_x2F_Nav_x2F_arrow-right-path-1" d="M26.6 12.9l-10.3 9.5c-.4.4-.4.9 0 1.3s1 .4 1.4 0l12-11.1c.4-.4.4-.9 0-1.3L17.7.2c-.4-.4-1-.4-1.4 0-.4.4-.4.9 0 1.3L26.6 11H1c-.6 0-1 .4-1 .9s.4.9 1 .9h25.6z" fill="#fff"/></g></mask><g id="icon_x2F_Nav_x2F_arrow-right-Color_x2F_Grayscale_x2F_Night-Sky" mask="url(#icon_x2F_Nav_x2F_arrow-right-mask-2)"><path fill="#111" d="M0 0h48v48H0z" transform="translate(-9 -12)" id="icon_x2F_Nav_x2F_arrow-right-Swatch"/></g></g></g></g></svg>