<svg xmlns="http://www.w3.org/2000/svg" xmlns:xlink="http://www.w3.org/1999/xlink" width="32" height="32" viewBox="0 0 32 32" aria-labelledby="title-47">
  <defs>
    <path id="arrow-up-a" d="M10.4236368,5.48709063 L10.4236368,23 C10.4236368,23.5522847 9.97592153,24 9.42363678,24 L8.56000042,24 C8.00771567,24 7.56000042,23.5522847 7.56000042,23 L7.56000042,5.47991413 L2.47586697,10.669517 C2.07536959,11.0783227 1.42603505,11.0783227 1.02553768,10.669517 L0.300373031,9.92930898 C-0.100124344,9.52050336 -0.100124344,8.85769849 0.300373031,8.44889286 L8.27718413,0.306604217 C8.6776815,-0.102201406 9.32701604,-0.102201406 9.72751342,0.306604217 L10.4526781,1.04681228 C10.5015393,1.09668711 10.5444394,1.15034255 10.5813783,1.20685612 L17.699627,8.47277161 C18.1001243,8.88157723 18.1001243,9.5443821 17.699627,9.95318772 L16.9744623,10.6933958 C16.5739649,11.1022014 15.9246304,11.1022014 15.524133,10.6933958 L10.4236368,5.48709063 Z"/>
  </defs>
  <title id="title-47" lang="en"></title>
  <g fill="none" fill-rule="evenodd" transform="translate(7 4)">
    <use fill="#384048" xlink:href="#arrow-up-a"/>
  </g>
</svg>
