<?xml version="1.0" encoding="utf-8"?>
<!-- Generator: Adobe Illustrator 21.0.2, SVG Export Plug-In . SVG Version: 6.00 Build 0)  -->
<svg version="1.1" id="icon_x2F_Nav_x2F_arrow-right-Layer_1" xmlns="http://www.w3.org/2000/svg" xmlns:xlink="http://www.w3.org/1999/xlink" x="0px" y="0px"
	 viewBox="0 0 48 48" style="enable-background:new 0 0 48 48;" xml:space="preserve">
<title>icon/Nav/arrow-right</title>
<desc>Created with Sketch.</desc>
<g id="icon_x2F_Nav_x2F_arrow-right-Symbols">
	<g id="icon_x2F_Nav_x2F_arrow-right">
		<g id="icon_x2F_Nav_x2F_arrow-right-Icon" transform="translate(9.000000, 12.000000)">
			<g id="icon_x2F_Nav_x2F_arrow-right-Path">
				<path id="icon_x2F_Nav_x2F_arrow-right-path-1_1_" style="fill:#384048;" d="M26.6,12.9l-10.3,9.5c-0.4,0.4-0.4,0.9,0,1.3c0.4,0.4,1,0.4,1.4,0l12-11.1
					c0.4-0.4,0.4-0.9,0-1.3l-12-11.1c-0.4-0.4-1-0.4-1.4,0c-0.4,0.4-0.4,0.9,0,1.3l10.3,9.5H1c-0.6,0-1,0.4-1,0.9s0.4,0.9,1,0.9
					H26.6z"/>
			</g>
			<defs>
				<filter id="icon_x2F_Nav_x2F_arrow-right-Adobe_OpacityMaskFilter" filterUnits="userSpaceOnUse" x="-9" y="-12" width="48" height="48">
					<feColorMatrix  type="matrix" values="1 0 0 0 0  0 1 0 0 0  0 0 1 0 0  0 0 0 1 0"/>
				</filter>
			</defs>
			<mask maskUnits="userSpaceOnUse" x="-9" y="-12" width="48" height="48" id="icon_x2F_Nav_x2F_arrow-right-mask-2">
				<g style="filter:url(#icon_x2F_Nav_x2F_arrow-right-Adobe_OpacityMaskFilter);">
					<path id="icon_x2F_Nav_x2F_arrow-right-path-1" style="fill:#FFFFFF;" d="M26.6,12.9l-10.3,9.5c-0.4,0.4-0.4,0.9,0,1.3c0.4,0.4,1,0.4,1.4,0l12-11.1
						c0.4-0.4,0.4-0.9,0-1.3l-12-11.1c-0.4-0.4-1-0.4-1.4,0c-0.4,0.4-0.4,0.9,0,1.3l10.3,9.5H1c-0.6,0-1,0.4-1,0.9s0.4,0.9,1,0.9
						H26.6z"/>
				</g>
			</mask>
			<g id="icon_x2F_Nav_x2F_arrow-right-Color_x2F_Grayscale_x2F_Night-Sky" style="mask:url(#icon_x2F_Nav_x2F_arrow-right-mask-2);">
				<g id="icon_x2F_Nav_x2F_arrow-right-Swatch" transform="translate(-9.000000, -12.000000)">
					<rect style="fill:#111111;" width="48" height="48"/>
				</g>
			</g>
		</g>
	</g>
</g>
</svg>
