<svg id="icon_x2F_Nav_x2F_back-to-top-Layer_1" xmlns="http://www.w3.org/2000/svg" viewBox="0 0 48 48" enable-background="new 0 0 48 48"><title>icon/Nav/back-to-top</title><g id="icon_x2F_Nav_x2F_back-to-top-Symbols"><g id="icon_x2F_Nav_x2F_back-to-top"><g id="icon_x2F_Nav_x2F_back-to-top-Icon"><g id="icon_x2F_Nav_x2F_back-to-top-Mask"><path id="icon_x2F_Nav_x2F_back-to-top-path-1_1_" d="M23.7 31c-1.5 0-2.6 1.2-2.6 2.7 0 1.5 1.1 2.7 2.6 2.7s2.6-1.2 2.6-2.7c0-1.4-1.1-2.7-2.6-2.7zm9.7.2h-1.5v2.7h1.5c1 0 1.5-.6 1.5-1.3 0-1-.6-1.4-1.5-1.4zM24 0C10.7 0 0 10.7 0 24s10.7 24 24 24 24-10.7 24-24S37.3 0 24 0zm-5.7 31.2h-2.6v6.9h-1.9v-6.9h-2.6v-1.8h7.2l-.1 1.8zm10 2.6c0 2.5-1.9 4.5-4.6 4.5-2.7 0-4.6-2-4.6-4.5s1.9-4.5 4.6-4.5c2.7 0 4.6 2 4.6 4.5zm-2.9-22V24c0 .8-.6 1.4-1.4 1.4-.8 0-1.4-.6-1.4-1.4V11.8c-1.8 1.8-4.1 4.1-4.1 4.2-.3.3-.6.4-1 .4s-.7-.1-1-.4c-.5-.5-.5-1.4 0-2l6.2-6.2c.5-.5.9-.6 1.2-.6h.4c.3 0 .7.2 1.2.6l6.2 6.2c.5.5.5 1.4 0 2-.5.5-1.4.5-2 0-.2 0-2.5-2.3-4.3-4.2zm11.4 20.7c0 2-1.6 3-3.5 3h-1.4v2.6H30v-8.7h3.5c2.1 0 3.3 1.3 3.3 3.1z" fill="#384048"/></g><defs><filter id="icon_x2F_Nav_x2F_back-to-top-Adobe_OpacityMaskFilter" filterUnits="userSpaceOnUse" x="0" y="0" width="48" height="48"><feColorMatrix values="1 0 0 0 0 0 1 0 0 0 0 0 1 0 0 0 0 0 1 0"/></filter></defs><mask maskUnits="userSpaceOnUse" x="0" y="0" width="48" height="48" id="icon_x2F_Nav_x2F_back-to-top-mask-2"><g filter="url(#icon_x2F_Nav_x2F_back-to-top-Adobe_OpacityMaskFilter)"><path id="icon_x2F_Nav_x2F_back-to-top-path-1" d="M23.7 31c-1.5 0-2.6 1.2-2.6 2.7 0 1.5 1.1 2.7 2.6 2.7s2.6-1.2 2.6-2.7c0-1.4-1.1-2.7-2.6-2.7zm9.7.2h-1.5v2.7h1.5c1 0 1.5-.6 1.5-1.3 0-1-.6-1.4-1.5-1.4zM24 0C10.7 0 0 10.7 0 24s10.7 24 24 24 24-10.7 24-24S37.3 0 24 0zm-5.7 31.2h-2.6v6.9h-1.9v-6.9h-2.6v-1.8h7.2l-.1 1.8zm10 2.6c0 2.5-1.9 4.5-4.6 4.5-2.7 0-4.6-2-4.6-4.5s1.9-4.5 4.6-4.5c2.7 0 4.6 2 4.6 4.5zm-2.9-22V24c0 .8-.6 1.4-1.4 1.4-.8 0-1.4-.6-1.4-1.4V11.8c-1.8 1.8-4.1 4.1-4.1 4.2-.3.3-.6.4-1 .4s-.7-.1-1-.4c-.5-.5-.5-1.4 0-2l6.2-6.2c.5-.5.9-.6 1.2-.6h.4c.3 0 .7.2 1.2.6l6.2 6.2c.5.5.5 1.4 0 2-.5.5-1.4.5-2 0-.2 0-2.5-2.3-4.3-4.2zm11.4 20.7c0 2-1.6 3-3.5 3h-1.4v2.6H30v-8.7h3.5c2.1 0 3.3 1.3 3.3 3.1z" fill="#fff"/></g></mask><g id="icon_x2F_Nav_x2F_back-to-top-Color_x2F_Grayscale_x2F_Night-Sky" mask="url(#icon_x2F_Nav_x2F_back-to-top-mask-2)"><path id="icon_x2F_Nav_x2F_back-to-top-Swatch" fill="#111" d="M0 0h48v48H0z"/></g></g></g></g></svg>