<?xml version="1.0" encoding="utf-8"?>
<svg version="1.1" id="icon_x2F_Nav_x2F_back-to-top-Layer_1"
	 xmlns="http://www.w3.org/2000/svg" xmlns:xlink="http://www.w3.org/1999/xlink" x="0px" y="0px" viewBox="0 0 48 48"
	 style="enable-background:new 0 0 48 48;" xml:space="preserve">
<path id="icon_x2F_Nav_x2F_back-to-top-path-1_1_" style="fill:#111111;" d="M23.7,31c-1.5,0-2.6,1.2-2.6,2.7s1.1,2.7,2.6,2.7
	s2.6-1.2,2.6-2.7C26.3,32.3,25.2,31,23.7,31z M33.4,31.2h-1.5v2.7h1.5c1,0,1.5-0.6,1.5-1.3C34.9,31.6,34.3,31.2,33.4,31.2z M24,0
	C10.7,0,0,10.7,0,24s10.7,24,24,24s24-10.7,24-24S37.3,0,24,0z M18.3,31.2h-2.6v6.9h-1.9v-6.9h-2.6v-1.8h7.2
	C18.4,29.4,18.3,31.2,18.3,31.2z M28.3,33.8c0,2.5-1.9,4.5-4.6,4.5s-4.6-2-4.6-4.5s1.9-4.5,4.6-4.5S28.3,31.3,28.3,33.8z M25.4,11.8
	V24c0,0.8-0.6,1.4-1.4,1.4s-1.4-0.6-1.4-1.4V11.8c-1.8,1.8-4.1,4.1-4.1,4.2c-0.3,0.3-0.6,0.4-1,0.4s-0.7-0.1-1-0.4
	c-0.5-0.5-0.5-1.4,0-2l6.2-6.2c0.5-0.5,0.9-0.6,1.2-0.6h0.4c0.3,0,0.7,0.2,1.2,0.6l6.2,6.2c0.5,0.5,0.5,1.4,0,2
	c-0.5,0.5-1.4,0.5-2,0C29.5,16,27.2,13.7,25.4,11.8z M36.8,32.5c0,2-1.6,3-3.5,3h-1.4v2.6H30v-8.7h3.5
	C35.6,29.4,36.8,30.7,36.8,32.5z"/>
</svg>
