<svg xmlns="http://www.w3.org/2000/svg" xmlns:xlink="http://www.w3.org/1999/xlink" width="32" height="32" viewBox="0 0 32 32">
  <defs>
    <path id="back-to-top-a" d="M11.8263462,15.5237308 C11.058,15.5237308 10.5249231,16.131 10.5249231,16.8745385 L10.5249231,16.8871154 C10.5249231,17.6307692 11.0703462,18.2503846 11.8389231,18.2503846 C12.6073846,18.2503846 13.1404615,17.643 13.1404615,16.8994615 L13.1404615,16.8871154 C13.1403462,16.1434615 12.5949231,15.5237308 11.8263462,15.5237308 L11.8263462,15.5237308 Z M16.6788462,15.5794615 L15.9414231,15.5794615 L15.9414231,16.9056923 L16.6973077,16.9056923 C17.1747692,16.9056923 17.4535385,16.6204615 17.4535385,16.2486923 L17.4535385,16.2363462 C17.4535385,15.8088462 17.1559615,15.5794615 16.6788462,15.5794615 L16.6788462,15.5794615 Z M12,0 C5.37253846,0 0,5.37253846 0,12 C0,18.6274615 5.37253846,24 12,24 C18.6274615,24 24,18.6274615 24,12 C24,5.37253846 18.6274615,0 12,0 L12,0 Z M9.174,15.5981538 L7.854,15.5981538 L7.854,19.0562308 L6.89953846,19.0562308 L6.89953846,15.5981538 L5.57953846,15.5981538 L5.57953846,14.718 L9.17388462,14.7178846 L9.17388462,15.5981538 L9.174,15.5981538 L9.174,15.5981538 Z M14.1378462,16.8871154 C14.1378462,18.1202308 13.1650385,19.1304231 11.8262308,19.1304231 C10.4876538,19.1304231 9.52707692,18.1328077 9.52707692,16.8994615 L9.52707692,16.8871154 C9.52707692,15.6538846 10.5,14.6435769 11.8386923,14.6435769 C13.1770385,14.6435769 14.1377308,15.6414231 14.1377308,16.8745385 L14.1377308,16.8871154 L14.1378462,16.8871154 L14.1378462,16.8871154 Z M12.6934615,5.91669231 L12.6923077,12.0237692 C12.6921923,12.4060385 12.3822692,12.7159615 12,12.7159615 C12,12.7159615 12,12.7159615 11.9998846,12.7159615 C11.6175,12.7158462 11.3075769,12.4058077 11.3076923,12.0235385 L11.3088462,5.91253846 C10.3851923,6.83630769 9.25223077,7.97653846 9.23584615,7.99315385 C9.10061538,8.12930769 8.92269231,8.1975 8.74476923,8.1975 C8.56834615,8.1975 8.39192308,8.13046154 8.25680769,7.99626923 C7.98553846,7.72684615 7.98415385,7.2885 8.25369231,7.01723077 C8.35142308,6.91880769 10.6563462,4.59911538 11.3321538,3.93634615 C11.5726154,3.70038462 11.7923077,3.63461538 11.9341154,3.621 L12.0106154,3.61373077 L12.0867692,3.62330769 C12.2230385,3.6405 12.4340769,3.70880769 12.6661154,3.93692308 C13.3371923,4.59530769 15.6484615,6.91834615 15.7464231,7.017 C16.0160769,7.28803846 16.0149231,7.72638462 15.7438846,7.99603846 C15.4727308,8.26557692 15.0346154,8.26453846 14.7648462,7.9935 C14.7481154,7.97676923 13.6149231,6.83769231 12.6934615,5.91669231 L12.6934615,5.91669231 Z M18.4204615,16.2302308 C18.4204615,17.2341923 17.6395385,17.7546923 16.6665,17.7546923 L15.9415385,17.7546923 L15.9415385,19.0561154 L14.9869615,19.0561154 L14.9869615,14.7177692 L16.7595,14.7177692 C17.7945,14.7177692 18.4205769,15.3313846 18.4205769,16.2177692 L18.4205769,16.2302308 L18.4204615,16.2302308 L18.4204615,16.2302308 Z"/>
  </defs>
  <g fill="none" fill-rule="evenodd" transform="translate(4 4)">
    <use fill="#384048" xlink:href="#back-to-top-a"/>
  </g>
</svg>
