<?xml version="1.0" encoding="utf-8"?>
<!-- Generator: Adobe Illustrator 21.0.2, SVG Export Plug-In . SVG Version: 6.00 Build 0)  -->
<svg version="1.1" id="icon_x2F_Nav_x2F_chevron-left-Layer_1" xmlns="http://www.w3.org/2000/svg" xmlns:xlink="http://www.w3.org/1999/xlink" x="0px" y="0px"
	 viewBox="0 0 48 48" style="enable-background:new 0 0 48 48;" xml:space="preserve">
<title>icon/Nav/chevron-left</title>
<desc>Created with Sketch.</desc>
<g id="icon_x2F_Nav_x2F_chevron-left-Symbols">
	<g id="icon_x2F_Nav_x2F_chevron-left">
		<g id="icon_x2F_Nav_x2F_chevron-left-Icon">
			<g id="icon_x2F_Nav_x2F_chevron-left-Fill-1">
				<path id="icon_x2F_Nav_x2F_chevron-left-path-1_1_" style="fill:#384048;" d="M29.7,12.7c0.4-0.4,0.4-1,0-1.4c-0.4-0.4-1-0.4-1.4,0l-12,12
					c-0.4,0.4-0.4,1,0,1.4l12,12c0.4,0.4,1,0.4,1.4,0s0.4-1,0-1.4L18.4,24L29.7,12.7z"/>
			</g>
			<defs>
				<filter id="icon_x2F_Nav_x2F_chevron-left-Adobe_OpacityMaskFilter" filterUnits="userSpaceOnUse" x="0" y="0" width="48" height="48">
					<feColorMatrix  type="matrix" values="1 0 0 0 0  0 1 0 0 0  0 0 1 0 0  0 0 0 1 0"/>
				</filter>
			</defs>
			<mask maskUnits="userSpaceOnUse" x="0" y="0" width="48" height="48" id="icon_x2F_Nav_x2F_chevron-left-mask-2">
				<g style="filter:url(#icon_x2F_Nav_x2F_chevron-left-Adobe_OpacityMaskFilter);">
					<path id="icon_x2F_Nav_x2F_chevron-left-path-1" style="fill:#FFFFFF;" d="M29.7,12.7c0.4-0.4,0.4-1,0-1.4c-0.4-0.4-1-0.4-1.4,0l-12,12c-0.4,0.4-0.4,1,0,1.4
						l12,12c0.4,0.4,1,0.4,1.4,0s0.4-1,0-1.4L18.4,24L29.7,12.7z"/>
				</g>
			</mask>
			<g id="icon_x2F_Nav_x2F_chevron-left-Color_x2F_Grayscale_x2F_Night-Sky" style="mask:url(#icon_x2F_Nav_x2F_chevron-left-mask-2);">
				<rect id="icon_x2F_Nav_x2F_chevron-left-Swatch" style="fill:#111111;" width="48" height="48"/>
			</g>
		</g>
	</g>
</g>
</svg>
