<svg id="icon_x2F_Nav_x2F_chevron-up-Layer_1" xmlns="http://www.w3.org/2000/svg" viewBox="0 0 48 48" enable-background="new 0 0 48 48"><title>icon/Nav/chevron-up</title><g id="icon_x2F_Nav_x2F_chevron-up-Symbols"><g id="icon_x2F_Nav_x2F_chevron-up"><g id="icon_x2F_Nav_x2F_chevron-up-Icon" transform="translate(11 17)"><g id="icon_x2F_Nav_x2F_chevron-up-Mask"><path id="icon_x2F_Nav_x2F_chevron-up-path-1_1_" d="M24.3 13.7c.4.4 1 .4 1.4 0 .4-.4.4-1 0-1.4l-12-12c-.4-.4-1-.4-1.4 0l-12 12c-.4.4-.4 1 0 1.4.4.4 1 .4 1.4 0L13 2.4l11.3 11.3z" fill="#384048"/></g><defs><filter id="icon_x2F_Nav_x2F_chevron-up-Adobe_OpacityMaskFilter" filterUnits="userSpaceOnUse" x="-11" y="-17" width="48" height="48"><feColorMatrix values="1 0 0 0 0 0 1 0 0 0 0 0 1 0 0 0 0 0 1 0"/></filter></defs><mask maskUnits="userSpaceOnUse" x="-11" y="-17" width="48" height="48" id="icon_x2F_Nav_x2F_chevron-up-mask-2"><g filter="url(#icon_x2F_Nav_x2F_chevron-up-Adobe_OpacityMaskFilter)"><path id="icon_x2F_Nav_x2F_chevron-up-path-1" d="M24.3 13.7c.4.4 1 .4 1.4 0 .4-.4.4-1 0-1.4l-12-12c-.4-.4-1-.4-1.4 0l-12 12c-.4.4-.4 1 0 1.4.4.4 1 .4 1.4 0L13 2.4l11.3 11.3z" fill="#fff"/></g></mask><g id="icon_x2F_Nav_x2F_chevron-up-Color_x2F_Grayscale_x2F_Night-Sky" mask="url(#icon_x2F_Nav_x2F_chevron-up-mask-2)"><path fill="#111" d="M0 0h48v48H0z" transform="translate(-11 -17)" id="icon_x2F_Nav_x2F_chevron-up-Swatch"/></g></g></g></g></svg>