<?xml version="1.0" encoding="utf-8"?>
<!-- Generator: Adobe Illustrator 21.0.2, SVG Export Plug-In . SVG Version: 6.00 Build 0)  -->
<svg version="1.1" id="icon_x2F_Nav_x2F_chevron-right-Layer_1" xmlns="http://www.w3.org/2000/svg" xmlns:xlink="http://www.w3.org/1999/xlink" x="0px" y="0px"
	 viewBox="0 0 48 48" style="enable-background:new 0 0 48 48;" xml:space="preserve">
<title>icon/Nav/chevron-right</title>
<desc>Created with Sketch.</desc>
<g id="icon_x2F_Nav_x2F_chevron-right-Symbols">
	<g id="icon_x2F_Nav_x2F_chevron-right">
		<g id="icon_x2F_Nav_x2F_chevron-right-Icon" transform="translate(18.000000, 11.000000)">
			<g id="icon_x2F_Nav_x2F_chevron-right-Clip-2">
			</g>
			<defs>
				<filter id="icon_x2F_Nav_x2F_chevron-right-Adobe_OpacityMaskFilter" filterUnits="userSpaceOnUse" x="-18" y="-11" width="48" height="48">
					<feColorMatrix  type="matrix" values="1 0 0 0 0  0 1 0 0 0  0 0 1 0 0  0 0 0 1 0"/>
				</filter>
			</defs>
			<mask maskUnits="userSpaceOnUse" x="-18" y="-11" width="48" height="48" id="icon_x2F_Nav_x2F_chevron-right-mask-2">
				<g style="filter:url(#icon_x2F_Nav_x2F_chevron-right-Adobe_OpacityMaskFilter);">
					<path id="icon_x2F_Nav_x2F_chevron-right-path-1" style="fill:#FFFFFF;" d="M0.3,0.3C0.1,0.5,0,0.7,0,1V1c0,0.2,0.1,0.5,0.3,0.7L11.6,13L0.3,24.3
						C0.1,24.5,0,24.7,0,25V25c0,0.2,0.1,0.5,0.3,0.7C0.5,25.9,0.7,26,1,26H1c0.2,0,0.5-0.1,0.7-0.3l12-12c0.2-0.2,0.3-0.4,0.3-0.7
						V13c0-0.2-0.1-0.5-0.3-0.7l-12-12C1.5,0.1,1.3,0,1,0C0.7,0,0.5,0.1,0.3,0.3z"/>
				</g>
			</mask>
			<g id="icon_x2F_Nav_x2F_chevron-right-Color_x2F_Grayscale_x2F_Night-Sky" style="mask:url(#icon_x2F_Nav_x2F_chevron-right-mask-2);">
				<g id="icon_x2F_Nav_x2F_chevron-right-Swatch" transform="translate(-18.000000, -11.000000)">
					<rect style="fill:#111111;" width="48" height="48"/>
				</g>
			</g>
		</g>
	</g>
</g>
</svg>
