<svg xmlns="http://www.w3.org/2000/svg" xmlns:xlink="http://www.w3.org/1999/xlink" width="32" height="32" viewBox="0 0 32 32">
    <defs>
        <path id="a" d="M12.523 10.958L8.328 6.763a1 1 0 0 0-1.414 0l-.102.102a1 1 0 0 0 0 1.414l4.195 4.195-4.247 4.247a1 1 0 0 0 0 1.414l.102.102a1 1 0 0 0 1.415 0l4.246-4.246 4.2 4.2a1 1 0 0 0 1.415 0l.102-.102a1 1 0 0 0 0-1.414l-4.2-4.2 4.148-4.15a1 1 0 0 0 0-1.414l-.102-.102a1 1 0 0 0-1.414 0l-4.15 4.15zM12.5 24.5c-6.627 0-12-5.373-12-12s5.373-12 12-12 12 5.373 12 12-5.373 12-12 12z"/>
    </defs>
    <use fill="#384048" fill-rule="evenodd" transform="translate(3.5 3.5)" xlink:href="#a"/>
</svg>
