<svg id="icon_x2F_Nav_x2F_close-Layer_1" xmlns="http://www.w3.org/2000/svg" viewBox="0 0 48 48" enable-background="new 0 0 48 48"><title>icon/Nav/close</title><g id="icon_x2F_Nav_x2F_close-Symbols"><g id="icon_x2F_Nav_x2F_close"><g id="icon_x2F_Nav_x2F_close-Icon" transform="translate(12 12)"><g id="icon_x2F_Nav_x2F_close-Mask"><path id="icon_x2F_Nav_x2F_close-path-1_1_" d="M12 10.5L1.9.3C1.5-.1.8-.1.4.3S0 1.4.4 1.8L10.5 12 .3 22.1c-.4.4-.4 1.1 0 1.5.4.4 1.1.4 1.5 0L12 13.5l10.1 10.1c.4.4 1.1.4 1.5 0 .4-.4.4-1.1 0-1.5L13.5 12 23.7 1.9c.4-.4.4-1.1 0-1.5-.4-.4-1.1-.4-1.5 0L12 10.5z" fill="#384048"/></g><defs><filter id="icon_x2F_Nav_x2F_close-Adobe_OpacityMaskFilter" filterUnits="userSpaceOnUse" x="-12" y="-12" width="48" height="48"><feColorMatrix values="1 0 0 0 0 0 1 0 0 0 0 0 1 0 0 0 0 0 1 0"/></filter></defs><mask maskUnits="userSpaceOnUse" x="-12" y="-12" width="48" height="48" id="icon_x2F_Nav_x2F_close-mask-2"><g filter="url(#icon_x2F_Nav_x2F_close-Adobe_OpacityMaskFilter)"><path id="icon_x2F_Nav_x2F_close-path-1" d="M12 10.5L1.9.3C1.5-.1.8-.1.4.3S0 1.4.4 1.8L10.5 12 .3 22.1c-.4.4-.4 1.1 0 1.5.4.4 1.1.4 1.5 0L12 13.5l10.1 10.1c.4.4 1.1.4 1.5 0 .4-.4.4-1.1 0-1.5L13.5 12 23.7 1.9c.4-.4.4-1.1 0-1.5-.4-.4-1.1-.4-1.5 0L12 10.5z" fill="#fff"/></g></mask><g id="icon_x2F_Nav_x2F_close-Color_x2F_Grayscale_x2F_Night-Sky" mask="url(#icon_x2F_Nav_x2F_close-mask-2)"><path fill="#111" d="M0 0h48v48H0z" transform="translate(-12 -12)" id="icon_x2F_Nav_x2F_close-Swatch"/></g></g></g></g></svg>