<svg id="icon_x2F_Nav_x2F_collapse-left-Layer_1" xmlns="http://www.w3.org/2000/svg" viewBox="0 0 48 48"><title>icon/Nav/collapse-left</title><g id="icon_x2F_Nav_x2F_collapse-left-Symbols"><g id="icon_x2F_Nav_x2F_collapse-left"><g id="icon_x2F_Nav_x2F_collapse-left-Icon" transform="translate(13 16)"><g id="icon_x2F_Nav_x2F_collapse-left-Mask" transform="matrix(-1 0 0 1 22 0)"><path id="icon_x2F_Nav_x2F_collapse-left-path-1_1_" d="M13.2 7L8.7 2.7c-.4-.4-.4-1 0-1.4s1.1-.4 1.5 0l6.3 6c.4.4.4 1 0 1.4l-6.3 6c-.4.4-1.1.4-1.5 0s-.4-1 0-1.4L13.2 9H1c-.6 0-1-.4-1-1s.5-1 1-1h12.2zm6.7 8c0 .6.5 1 1 1s1.1-.4 1.1-1V1c0-.6-.5-1-1-1s-1 .4-1 1v14h-.1z" fill="#384048"/></g></g></g></g></svg>