<?xml version="1.0" encoding="utf-8"?>
<svg version="1.1" id="icon_x2F_Nav_x2F_collapse-right-Layer_1"
	 xmlns="http://www.w3.org/2000/svg" xmlns:xlink="http://www.w3.org/1999/xlink" x="0px" y="0px" viewBox="0 0 48 48"
	 style="enable-background:new 0 0 48 48;" xml:space="preserve">
<path id="icon_x2F_Nav_x2F_collapse-right-path-1_1_" style="fill:#111111;" d="M26.2,25l-4.5,4.3c-0.4,0.4-0.4,1,0,1.4
	c0.4,0.4,1.1,0.4,1.5,0l6.3-6c0.4-0.4,0.4-1,0-1.4l-6.3-6c-0.4-0.4-1.1-0.4-1.5,0c-0.4,0.4-0.4,1,0,1.4l4.5,4.3H14c-0.5,0-1,0.4-1,1
	s0.5,1,1,1H26.2z M32.9,17c0-0.6,0.5-1,1-1s1,0.4,1,1v14c0,0.6-0.5,1-1,1s-1-0.4-1-1V17z"/>
</svg>
