<svg xmlns="http://www.w3.org/2000/svg" xmlns:xlink="http://www.w3.org/1999/xlink" width="32" height="32" viewBox="0 0 32 32">
  <defs>
    <path id="collapse-right-a" d="M14.3837559,10.125 L1.14285714,10.125 C0.511674572,10.125 0,9.62132034 0,9 C0,8.37867966 0.511674572,7.875 1.14285714,7.875 L14.3837559,7.875 L9.47759225,3.04549513 C9.03127877,2.6061553 9.03127877,1.8938447 9.47759225,1.45450487 C9.92390573,1.01516504 10.6475228,1.01516504 11.0938363,1.45450487 L17.9509792,8.20450487 C18.3972927,8.6438447 18.3972927,9.3561553 17.9509792,9.79549513 L11.0938363,16.5454951 C10.6475228,16.984835 9.92390573,16.984835 9.47759225,16.5454951 C9.03127877,16.1061553 9.03127877,15.3938447 9.47759225,14.9545049 L14.3837559,10.125 Z M21.7142857,1.125 C21.7142857,0.503679656 22.2259603,0 22.8571429,0 C23.4883254,0 24,0.503679656 24,1.125 L24,16.875 C24,17.4963203 23.4883254,18 22.8571429,18 C22.2259603,18 21.7142857,17.4963203 21.7142857,16.875 L21.7142857,1.125 Z"/>
  </defs>
  <g fill="none" fill-rule="evenodd" transform="translate(4 7)">
    <use fill="#384048" fill-rule="nonzero" xlink:href="#collapse-right-a"/>
  </g>
</svg>
