<?xml version="1.0" encoding="utf-8"?>
<svg version="1.1" id="icon_x2F_Nav_x2F_collapse-left-Layer_1"
	 xmlns="http://www.w3.org/2000/svg" xmlns:xlink="http://www.w3.org/1999/xlink" x="0px" y="0px" viewBox="0 0 48 48"
	 style="enable-background:new 0 0 48 48;" xml:space="preserve">
<path id="icon_x2F_Nav_x2F_collapse-left-path-1_1_" style="fill:#111111;" d="M21.8,23l4.5-4.3c0.4-0.4,0.4-1,0-1.4
	c-0.4-0.4-1.1-0.4-1.5,0l-6.3,6c-0.4,0.4-0.4,1,0,1.4l6.3,6c0.4,0.4,1.1,0.4,1.5,0c0.4-0.4,0.4-1,0-1.4L21.8,25H34c0.6,0,1-0.4,1-1
	s-0.5-1-1-1H21.8z M15.1,31c0,0.6-0.5,1-1,1S13,31.6,13,31V17c0-0.6,0.5-1,1-1s1,0.4,1,1v14H15.1z"/>
</svg>
