<?xml version="1.0" encoding="utf-8"?>
<!-- Generator: Adobe Illustrator 21.0.2, SVG Export Plug-In . SVG Version: 6.00 Build 0)  -->
<svg version="1.1" id="icon_x2F_Nav_x2F_menu-Layer_1" xmlns="http://www.w3.org/2000/svg" xmlns:xlink="http://www.w3.org/1999/xlink" x="0px" y="0px"
	 viewBox="0 0 48 48" style="enable-background:new 0 0 48 48;" xml:space="preserve">
<title>icon/Nav/menu</title>
<desc>Created with Sketch.</desc>
<g id="icon_x2F_Nav_x2F_menu-Symbols">
	<g id="icon_x2F_Nav_x2F_menu">
		<g id="icon_x2F_Nav_x2F_menu-Icon" transform="translate(11.000000, 13.000000)">
			<g id="icon_x2F_Nav_x2F_menu-Mask">
				<path id="icon_x2F_Nav_x2F_menu-path-1_1_" style="fill:#384048;" d="M25,0c0.6,0,1,0.4,1,1s-0.4,1-1,1H1C0.4,2,0,1.6,0,1s0.4-1,1-1H25z M25,10
					c0.6,0,1,0.4,1,1s-0.4,1-1,1H1c-0.6,0-1-0.4-1-1s0.4-1,1-1H25z M25,20c0.6,0,1,0.4,1,1s-0.4,1-1,1H1c-0.6,0-1-0.4-1-1s0.4-1,1-1
					H25z"/>
			</g>
			<defs>
				<filter id="icon_x2F_Nav_x2F_menu-Adobe_OpacityMaskFilter" filterUnits="userSpaceOnUse" x="-11" y="-13" width="48" height="48">
					<feColorMatrix  type="matrix" values="1 0 0 0 0  0 1 0 0 0  0 0 1 0 0  0 0 0 1 0"/>
				</filter>
			</defs>
			<mask maskUnits="userSpaceOnUse" x="-11" y="-13" width="48" height="48" id="icon_x2F_Nav_x2F_menu-mask-2">
				<g style="filter:url(#icon_x2F_Nav_x2F_menu-Adobe_OpacityMaskFilter);">
					<path id="icon_x2F_Nav_x2F_menu-path-1" style="fill:#FFFFFF;" d="M25,0c0.6,0,1,0.4,1,1s-0.4,1-1,1H1C0.4,2,0,1.6,0,1s0.4-1,1-1H25z M25,10
						c0.6,0,1,0.4,1,1s-0.4,1-1,1H1c-0.6,0-1-0.4-1-1s0.4-1,1-1H25z M25,20c0.6,0,1,0.4,1,1s-0.4,1-1,1H1c-0.6,0-1-0.4-1-1
						s0.4-1,1-1H25z"/>
				</g>
			</mask>
			<g id="icon_x2F_Nav_x2F_menu-Color_x2F_Grayscale_x2F_Night-Sky" style="mask:url(#icon_x2F_Nav_x2F_menu-mask-2);">
				<g id="icon_x2F_Nav_x2F_menu-Swatch" transform="translate(-11.000000, -13.000000)">
					<rect style="fill:#111111;" width="48" height="48"/>
				</g>
			</g>
		</g>
	</g>
</g>
</svg>
