<svg id="icon_x2F_Nav_x2F_menu-Layer_1" xmlns="http://www.w3.org/2000/svg" viewBox="0 0 48 48" enable-background="new 0 0 48 48"><title>icon/Nav/menu</title><g id="icon_x2F_Nav_x2F_menu-Symbols"><g id="icon_x2F_Nav_x2F_menu"><g id="icon_x2F_Nav_x2F_menu-Icon" transform="translate(11 13)"><g id="icon_x2F_Nav_x2F_menu-Mask"><path id="icon_x2F_Nav_x2F_menu-path-1_1_" d="M25 0c.6 0 1 .4 1 1s-.4 1-1 1H1c-.6 0-1-.4-1-1s.4-1 1-1h24zm0 10c.6 0 1 .4 1 1s-.4 1-1 1H1c-.6 0-1-.4-1-1s.4-1 1-1h24zm0 10c.6 0 1 .4 1 1s-.4 1-1 1H1c-.6 0-1-.4-1-1s.4-1 1-1h24z" fill="#384048"/></g><defs><filter id="icon_x2F_Nav_x2F_menu-Adobe_OpacityMaskFilter" filterUnits="userSpaceOnUse" x="-11" y="-13" width="48" height="48"><feColorMatrix values="1 0 0 0 0 0 1 0 0 0 0 0 1 0 0 0 0 0 1 0"/></filter></defs><mask maskUnits="userSpaceOnUse" x="-11" y="-13" width="48" height="48" id="icon_x2F_Nav_x2F_menu-mask-2"><g filter="url(#icon_x2F_Nav_x2F_menu-Adobe_OpacityMaskFilter)"><path id="icon_x2F_Nav_x2F_menu-path-1" d="M25 0c.6 0 1 .4 1 1s-.4 1-1 1H1c-.6 0-1-.4-1-1s.4-1 1-1h24zm0 10c.6 0 1 .4 1 1s-.4 1-1 1H1c-.6 0-1-.4-1-1s.4-1 1-1h24zm0 10c.6 0 1 .4 1 1s-.4 1-1 1H1c-.6 0-1-.4-1-1s.4-1 1-1h24z" fill="#fff"/></g></mask><g id="icon_x2F_Nav_x2F_menu-Color_x2F_Grayscale_x2F_Night-Sky" mask="url(#icon_x2F_Nav_x2F_menu-mask-2)"><path fill="#111" d="M0 0h48v48H0z" transform="translate(-11 -13)" id="icon_x2F_Nav_x2F_menu-Swatch"/></g></g></g></g></svg>