<?xml version="1.0" encoding="utf-8"?>
<svg version="1.1" id="icon_x2F_Nav_x2F_menu-Layer_1"
	 xmlns="http://www.w3.org/2000/svg" xmlns:xlink="http://www.w3.org/1999/xlink" x="0px" y="0px" viewBox="0 0 48 48"
	 style="enable-background:new 0 0 48 48;" xml:space="preserve">
<path id="icon_x2F_Nav_x2F_menu-path-1_1_" style="fill:#111111;" d="M36,13c0.6,0,1,0.4,1,1s-0.4,1-1,1H12c-0.6,0-1-0.4-1-1
	s0.4-1,1-1H36z M36,23c0.6,0,1,0.4,1,1s-0.4,1-1,1H12c-0.6,0-1-0.4-1-1s0.4-1,1-1H36z M36,33c0.6,0,1,0.4,1,1s-0.4,1-1,1H12
	c-0.6,0-1-0.4-1-1s0.4-1,1-1H36z"/>
</svg>
