<svg id="icon_x2F_Nav_x2F_minus-Layer_1" xmlns="http://www.w3.org/2000/svg" viewBox="0 0 48 48" enable-background="new 0 0 48 48"><title>icon/Nav/minus</title><g id="icon_x2F_Nav_x2F_minus-Symbols"><g id="icon_x2F_Nav_x2F_minus"><g id="icon_x2F_Nav_x2F_minus-Icon" transform="translate(11 23)"><g id="icon_x2F_Nav_x2F_minus-Mask" transform="rotate(90 13 1)"><path id="icon_x2F_Nav_x2F_minus-path-1_1_" d="M24.6 0c.8 0 1.4.4 1.4 1s-.6 1-1.4 1H1.4C.6 2 0 1.6 0 1s.6-1 1.4-1h23.2z" fill="#384048"/></g><defs><filter id="icon_x2F_Nav_x2F_minus-Adobe_OpacityMaskFilter" filterUnits="userSpaceOnUse" x="-11" y="-23" width="48" height="48"><feColorMatrix values="1 0 0 0 0 0 1 0 0 0 0 0 1 0 0 0 0 0 1 0"/></filter></defs><mask maskUnits="userSpaceOnUse" x="-11" y="-23" width="48" height="48" id="icon_x2F_Nav_x2F_minus-mask-2"><g filter="url(#icon_x2F_Nav_x2F_minus-Adobe_OpacityMaskFilter)"><path id="icon_x2F_Nav_x2F_minus-path-1" d="M12-10.6c0-.8.4-1.4 1-1.4s1 .6 1 1.4v23.1c0 .8-.4 1.4-1 1.4s-1-.6-1-1.4v-23.1z" fill="#fff"/></g></mask><g id="icon_x2F_Nav_x2F_minus-Color_x2F_Grayscale_x2F_Night-Sky" mask="url(#icon_x2F_Nav_x2F_minus-mask-2)"><path fill="#111" d="M0 0h48v48H0z" transform="translate(-11 -23)" id="icon_x2F_Nav_x2F_minus-Swatch"/></g></g></g></g></svg>