<?xml version="1.0" encoding="utf-8"?>
<!-- Generator: Adobe Illustrator 21.0.2, SVG Export Plug-In . SVG Version: 6.00 Build 0)  -->
<svg version="1.1" id="icon_x2F_Nav_x2F_minus-Layer_1" xmlns="http://www.w3.org/2000/svg" xmlns:xlink="http://www.w3.org/1999/xlink" x="0px" y="0px"
	 viewBox="0 0 48 48" style="enable-background:new 0 0 48 48;" xml:space="preserve">
<title>icon/Nav/minus</title>
<desc>Created with Sketch.</desc>
<g id="icon_x2F_Nav_x2F_minus-Symbols">
	<g id="icon_x2F_Nav_x2F_minus">
		<g id="icon_x2F_Nav_x2F_minus-Icon" transform="translate(11.000000, 23.000000)">
			<g id="icon_x2F_Nav_x2F_minus-Mask" transform="translate(13.000000, 1.000000) rotate(-270.000000) translate(-13.000000, -1.000000) ">
				<path id="icon_x2F_Nav_x2F_minus-path-1_1_" style="fill:#384048;" d="M24.6,0C25.4,0,26,0.4,26,1s-0.6,1-1.4,1H1.4C0.6,2,0,1.6,0,1s0.6-1,1.4-1H24.6z"
					/>
			</g>
			<defs>
				<filter id="icon_x2F_Nav_x2F_minus-Adobe_OpacityMaskFilter" filterUnits="userSpaceOnUse" x="-11" y="-23" width="48" height="48">
					<feColorMatrix  type="matrix" values="1 0 0 0 0  0 1 0 0 0  0 0 1 0 0  0 0 0 1 0"/>
				</filter>
			</defs>
			<mask maskUnits="userSpaceOnUse" x="-11" y="-23" width="48" height="48" id="icon_x2F_Nav_x2F_minus-mask-2">
				<g style="filter:url(#icon_x2F_Nav_x2F_minus-Adobe_OpacityMaskFilter);">
					<path id="icon_x2F_Nav_x2F_minus-path-1" style="fill:#FFFFFF;" d="M12-10.6c0-0.8,0.4-1.4,1-1.4s1,0.6,1,1.4v23.1c0,0.8-0.4,1.4-1,1.4s-1-0.6-1-1.4
						V-10.6z"/>
				</g>
			</mask>
			<g id="icon_x2F_Nav_x2F_minus-Color_x2F_Grayscale_x2F_Night-Sky" style="mask:url(#icon_x2F_Nav_x2F_minus-mask-2);">
				<g id="icon_x2F_Nav_x2F_minus-Swatch" transform="translate(-11.000000, -23.000000)">
					<rect style="fill:#111111;" width="48" height="48"/>
				</g>
			</g>
		</g>
	</g>
</g>
</svg>
