<?xml version="1.0" encoding="utf-8"?>
<!-- Generator: Adobe Illustrator 21.0.2, SVG Export Plug-In . SVG Version: 6.00 Build 0)  -->
<svg version="1.1" id="icon_x2F_Nav_x2F_plus-Layer_1" xmlns="http://www.w3.org/2000/svg" xmlns:xlink="http://www.w3.org/1999/xlink" x="0px" y="0px"
	 viewBox="0 0 48 48" style="enable-background:new 0 0 48 48;" xml:space="preserve">
<title>icon/Nav/plus</title>
<desc>Created with Sketch.</desc>
<g id="icon_x2F_Nav_x2F_plus-Symbols">
	<g id="icon_x2F_Nav_x2F_plus">
		<g id="icon_x2F_Nav_x2F_plus-Icon" transform="translate(11.000000, 11.000000)">
			<g id="icon_x2F_Nav_x2F_plus-Mask">
				<path id="icon_x2F_Nav_x2F_plus-path-1_1_" style="fill:#384048;" d="M14,12V1.4C14,0.6,13.6,0,13,0s-1,0.6-1,1.4V12H1.4C0.6,12,0,12.4,0,13
					s0.6,1,1.4,1H12v10.6c0,0.8,0.4,1.4,1,1.4s1-0.6,1-1.4V14h10.6c0.8,0,1.4-0.4,1.4-1s-0.6-1-1.4-1H14z"/>
			</g>
			<defs>
				<filter id="icon_x2F_Nav_x2F_plus-Adobe_OpacityMaskFilter" filterUnits="userSpaceOnUse" x="-11" y="-11" width="48" height="48">
					<feColorMatrix  type="matrix" values="1 0 0 0 0  0 1 0 0 0  0 0 1 0 0  0 0 0 1 0"/>
				</filter>
			</defs>
			<mask maskUnits="userSpaceOnUse" x="-11" y="-11" width="48" height="48" id="icon_x2F_Nav_x2F_plus-mask-2">
				<g style="filter:url(#icon_x2F_Nav_x2F_plus-Adobe_OpacityMaskFilter);">
					<path id="icon_x2F_Nav_x2F_plus-path-1" style="fill:#FFFFFF;" d="M14,12V1.4C14,0.6,13.6,0,13,0s-1,0.6-1,1.4V12H1.4C0.6,12,0,12.4,0,13s0.6,1,1.4,1
						H12v10.6c0,0.8,0.4,1.4,1,1.4s1-0.6,1-1.4V14h10.6c0.8,0,1.4-0.4,1.4-1s-0.6-1-1.4-1H14z"/>
				</g>
			</mask>
			<g id="icon_x2F_Nav_x2F_plus-Color_x2F_Grayscale_x2F_Night-Sky" style="mask:url(#icon_x2F_Nav_x2F_plus-mask-2);">
				<g id="icon_x2F_Nav_x2F_plus-Swatch" transform="translate(-11.000000, -11.000000)">
					<rect style="fill:#111111;" width="48" height="48"/>
				</g>
			</g>
		</g>
	</g>
</g>
</svg>
