<svg xmlns="http://www.w3.org/2000/svg" xmlns:xlink="http://www.w3.org/1999/xlink" width="32" height="32" viewBox="0 0 32 32" aria-labelledby="title-45">
  <defs>
    <path id="arrow-down-a" d="M7.56000042,18.4962071 L7.56000042,1.01999998 C7.56000042,0.467715231 8.00771567,0.0199999809 8.56000042,0.0199999809 L9.42363678,0.0199999809 C9.97592153,0.0199999809 10.4236368,0.467715231 10.4236368,1.01999998 L10.4236368,18.5367881 L15.524133,13.330483 C15.9246304,12.9216773 16.5739649,12.9216773 16.9744623,13.330483 L17.699627,14.070691 C18.1001243,14.4794966 18.1001243,15.1423015 17.699627,15.5511071 L9.72281587,23.6933958 C9.3223185,24.1022014 8.67298396,24.1022014 8.27248658,23.6933958 L7.54732194,22.9531877 C7.49846072,22.9033129 7.45556064,22.8496574 7.41862169,22.7931439 L0.300373031,15.5272284 C-0.100124344,15.1184228 -0.100124344,14.4556179 0.300373031,14.0468123 L1.02553768,13.3066042 C1.42603505,12.8977986 2.07536959,12.8977986 2.47586697,13.3066042 L7.56000042,18.4962071 Z"/>
  </defs>
  <title id="title-45" lang="en"></title>
  <g fill="none" fill-rule="evenodd" transform="translate(7 4)">
    <use fill="#384048" xlink:href="#arrow-down-a"/>
  </g>
</svg>
