<?xml version="1.0" encoding="utf-8"?>
<!-- Generator: Adobe Illustrator 20.0.0, SVG Export Plug-In . SVG Version: 6.00 Build 0)  -->
<svg version="1.1" id="Layer_1" xmlns="http://www.w3.org/2000/svg" xmlns:xlink="http://www.w3.org/1999/xlink" x="0px" y="0px"
	 viewBox="0 0 48 48" style="enable-background:new 0 0 48 48;" xml:space="preserve">
<style type="text/css">
	.st0{fill:#384048;}
</style>
<title>icon/Nav/arrow-left</title>
<desc>Created with Sketch.</desc>
<g id="Symbols">
	<g id="icon_x2F_Nav_x2F_arrow-left">
		<g id="Icon" transform="translate(9.000000, 12.000000)">
			<g id="Mask" transform="translate(15.000000, 12.000000) scale(-1, 1) translate(-15.000000, -12.000000) ">
				<path id="path-1_1_" class="st0" d="M26.6,11L16.3,1.5c-0.4-0.4-0.4-0.9,0-1.3c0.4-0.4,1-0.4,1.4,0l12,11.1
					c0.4,0.4,0.4,0.9,0,1.3l-12,11.1c-0.4,0.4-1,0.4-1.4,0c-0.4-0.4-0.4-0.9,0-1.3l10.3-9.6H1c-0.6,0-1-0.4-1-0.9S0.4,11,1,11H26.6z
					"/>
			</g>
		</g>
	</g>
</g>
</svg>
