<?xml version="1.0" encoding="utf-8"?>
<!-- Generator: Adobe Illustrator 21.0.2, SVG Export Plug-In . SVG Version: 6.00 Build 0)  -->
<svg version="1.1" id="icon_x2F_Nav_x2F_back-to-top-Layer_1" xmlns="http://www.w3.org/2000/svg" xmlns:xlink="http://www.w3.org/1999/xlink" x="0px" y="0px"
	 viewBox="0 0 48 48" style="enable-background:new 0 0 48 48;" xml:space="preserve">
<title>icon/Nav/back-to-top</title>
<desc>Created with Sketch.</desc>
<g id="icon_x2F_Nav_x2F_back-to-top-Symbols">
	<g id="icon_x2F_Nav_x2F_back-to-top">
		<g id="icon_x2F_Nav_x2F_back-to-top-Icon">
			<g id="icon_x2F_Nav_x2F_back-to-top-Mask">
				<path id="icon_x2F_Nav_x2F_back-to-top-path-1_1_" style="fill:#384048;" d="M23.7,31c-1.5,0-2.6,1.2-2.6,2.7v0c0,1.5,1.1,2.7,2.6,2.7c1.5,0,2.6-1.2,2.6-2.7
					v0C26.3,32.3,25.2,31,23.7,31L23.7,31z M33.4,31.2h-1.5v2.7h1.5c1,0,1.5-0.6,1.5-1.3v0C34.9,31.6,34.3,31.2,33.4,31.2L33.4,31.2
					z M24,0C10.7,0,0,10.7,0,24s10.7,24,24,24s24-10.7,24-24S37.3,0,24,0L24,0z M18.3,31.2h-2.6v6.9h-1.9v-6.9h-2.6v-1.8l7.2,0
					L18.3,31.2L18.3,31.2L18.3,31.2z M28.3,33.8c0,2.5-1.9,4.5-4.6,4.5c-2.7,0-4.6-2-4.6-4.5v0c0-2.5,1.9-4.5,4.6-4.5
					C26.4,29.3,28.3,31.3,28.3,33.8L28.3,33.8L28.3,33.8L28.3,33.8z M25.4,11.8l0,12.2c0,0.8-0.6,1.4-1.4,1.4c0,0,0,0,0,0
					c-0.8,0-1.4-0.6-1.4-1.4l0-12.2c-1.8,1.8-4.1,4.1-4.1,4.2c-0.3,0.3-0.6,0.4-1,0.4c-0.4,0-0.7-0.1-1-0.4c-0.5-0.5-0.5-1.4,0-2
					c0.2-0.2,4.8-4.8,6.2-6.2c0.5-0.5,0.9-0.6,1.2-0.6l0.2,0l0.2,0c0.3,0,0.7,0.2,1.2,0.6c1.3,1.3,6,6,6.2,6.2c0.5,0.5,0.5,1.4,0,2
					c-0.5,0.5-1.4,0.5-2,0C29.5,16,27.2,13.7,25.4,11.8L25.4,11.8z M36.8,32.5c0,2-1.6,3-3.5,3h-1.4v2.6H30v-8.7h3.5
					C35.6,29.4,36.8,30.7,36.8,32.5L36.8,32.5L36.8,32.5L36.8,32.5z"/>
			</g>
			<defs>
				<filter id="icon_x2F_Nav_x2F_back-to-top-Adobe_OpacityMaskFilter" filterUnits="userSpaceOnUse" x="0" y="0" width="48" height="48">
					<feColorMatrix  type="matrix" values="1 0 0 0 0  0 1 0 0 0  0 0 1 0 0  0 0 0 1 0"/>
				</filter>
			</defs>
			<mask maskUnits="userSpaceOnUse" x="0" y="0" width="48" height="48" id="icon_x2F_Nav_x2F_back-to-top-mask-2">
				<g style="filter:url(#icon_x2F_Nav_x2F_back-to-top-Adobe_OpacityMaskFilter);">
					<path id="icon_x2F_Nav_x2F_back-to-top-path-1" style="fill:#FFFFFF;" d="M23.7,31c-1.5,0-2.6,1.2-2.6,2.7v0c0,1.5,1.1,2.7,2.6,2.7c1.5,0,2.6-1.2,2.6-2.7v0
						C26.3,32.3,25.2,31,23.7,31L23.7,31z M33.4,31.2h-1.5v2.7h1.5c1,0,1.5-0.6,1.5-1.3v0C34.9,31.6,34.3,31.2,33.4,31.2L33.4,31.2z
						 M24,0C10.7,0,0,10.7,0,24s10.7,24,24,24s24-10.7,24-24S37.3,0,24,0L24,0z M18.3,31.2h-2.6v6.9h-1.9v-6.9h-2.6v-1.8l7.2,0
						L18.3,31.2L18.3,31.2L18.3,31.2z M28.3,33.8c0,2.5-1.9,4.5-4.6,4.5c-2.7,0-4.6-2-4.6-4.5v0c0-2.5,1.9-4.5,4.6-4.5
						C26.4,29.3,28.3,31.3,28.3,33.8L28.3,33.8L28.3,33.8L28.3,33.8z M25.4,11.8l0,12.2c0,0.8-0.6,1.4-1.4,1.4c0,0,0,0,0,0
						c-0.8,0-1.4-0.6-1.4-1.4l0-12.2c-1.8,1.8-4.1,4.1-4.1,4.2c-0.3,0.3-0.6,0.4-1,0.4c-0.4,0-0.7-0.1-1-0.4c-0.5-0.5-0.5-1.4,0-2
						c0.2-0.2,4.8-4.8,6.2-6.2c0.5-0.5,0.9-0.6,1.2-0.6l0.2,0l0.2,0c0.3,0,0.7,0.2,1.2,0.6c1.3,1.3,6,6,6.2,6.2c0.5,0.5,0.5,1.4,0,2
						c-0.5,0.5-1.4,0.5-2,0C29.5,16,27.2,13.7,25.4,11.8L25.4,11.8z M36.8,32.5c0,2-1.6,3-3.5,3h-1.4v2.6H30v-8.7h3.5
						C35.6,29.4,36.8,30.7,36.8,32.5L36.8,32.5L36.8,32.5L36.8,32.5z"/>
				</g>
			</mask>
			<g id="icon_x2F_Nav_x2F_back-to-top-Color_x2F_Grayscale_x2F_Night-Sky" style="mask:url(#icon_x2F_Nav_x2F_back-to-top-mask-2);">
				<rect id="icon_x2F_Nav_x2F_back-to-top-Swatch" style="fill:#111111;" width="48" height="48"/>
			</g>
		</g>
	</g>
</g>
</svg>
