<?xml version="1.0" encoding="utf-8"?>
<!-- Generator: Adobe Illustrator 21.0.2, SVG Export Plug-In . SVG Version: 6.00 Build 0)  -->
<svg version="1.1" id="icon_x2F_Nav_x2F_chevron-up-Layer_1" xmlns="http://www.w3.org/2000/svg" xmlns:xlink="http://www.w3.org/1999/xlink" x="0px" y="0px"
	 viewBox="0 0 48 48" style="enable-background:new 0 0 48 48;" xml:space="preserve">
<title>icon/Nav/chevron-up</title>
<desc>Created with Sketch.</desc>
<g id="icon_x2F_Nav_x2F_chevron-up-Symbols">
	<g id="icon_x2F_Nav_x2F_chevron-up">
		<g id="icon_x2F_Nav_x2F_chevron-up-Icon" transform="translate(11.000000, 17.000000)">
			<g id="icon_x2F_Nav_x2F_chevron-up-Mask">
				<path id="icon_x2F_Nav_x2F_chevron-up-path-1_1_" style="fill:#384048;" d="M24.3,13.7c0.4,0.4,1,0.4,1.4,0c0.4-0.4,0.4-1,0-1.4l-12-12c-0.4-0.4-1-0.4-1.4,0
					l-12,12c-0.4,0.4-0.4,1,0,1.4c0.4,0.4,1,0.4,1.4,0L13,2.4L24.3,13.7z"/>
			</g>
			<defs>
				<filter id="icon_x2F_Nav_x2F_chevron-up-Adobe_OpacityMaskFilter" filterUnits="userSpaceOnUse" x="-11" y="-17" width="48" height="48">
					<feColorMatrix  type="matrix" values="1 0 0 0 0  0 1 0 0 0  0 0 1 0 0  0 0 0 1 0"/>
				</filter>
			</defs>
			<mask maskUnits="userSpaceOnUse" x="-11" y="-17" width="48" height="48" id="icon_x2F_Nav_x2F_chevron-up-mask-2">
				<g style="filter:url(#icon_x2F_Nav_x2F_chevron-up-Adobe_OpacityMaskFilter);">
					<path id="icon_x2F_Nav_x2F_chevron-up-path-1" style="fill:#FFFFFF;" d="M24.3,13.7c0.4,0.4,1,0.4,1.4,0c0.4-0.4,0.4-1,0-1.4l-12-12c-0.4-0.4-1-0.4-1.4,0
						l-12,12c-0.4,0.4-0.4,1,0,1.4c0.4,0.4,1,0.4,1.4,0L13,2.4L24.3,13.7z"/>
				</g>
			</mask>
			<g id="icon_x2F_Nav_x2F_chevron-up-Color_x2F_Grayscale_x2F_Night-Sky" style="mask:url(#icon_x2F_Nav_x2F_chevron-up-mask-2);">
				<g id="icon_x2F_Nav_x2F_chevron-up-Swatch" transform="translate(-11.000000, -17.000000)">
					<rect style="fill:#111111;" width="48" height="48"/>
				</g>
			</g>
		</g>
	</g>
</g>
</svg>
