<svg id="icon_x2F_Nav_x2F_chevron-right-Layer_1" xmlns="http://www.w3.org/2000/svg" viewBox="0 0 48 48" enable-background="new 0 0 48 48"><title>icon/Nav/chevron-right</title><g id="icon_x2F_Nav_x2F_chevron-right-Symbols"><g id="icon_x2F_Nav_x2F_chevron-right"><g id="icon_x2F_Nav_x2F_chevron-right-Icon" transform="translate(18 11)"><defs><filter id="icon_x2F_Nav_x2F_chevron-right-Adobe_OpacityMaskFilter" filterUnits="userSpaceOnUse" x="-18" y="-11" width="48" height="48"><feColorMatrix values="1 0 0 0 0 0 1 0 0 0 0 0 1 0 0 0 0 0 1 0"/></filter></defs><mask maskUnits="userSpaceOnUse" x="-18" y="-11" width="48" height="48" id="icon_x2F_Nav_x2F_chevron-right-mask-2"><g filter="url(#icon_x2F_Nav_x2F_chevron-right-Adobe_OpacityMaskFilter)"><path id="icon_x2F_Nav_x2F_chevron-right-path-1" d="M.3.3C.1.5 0 .7 0 1c0 .2.1.5.3.7L11.6 13 .3 24.3c-.2.2-.3.4-.3.7 0 .2.1.5.3.7.2.2.4.3.7.3.2 0 .5-.1.7-.3l12-12c.2-.2.3-.4.3-.7 0-.2-.1-.5-.3-.7L1.7.3C1.5.1 1.3 0 1 0 .7 0 .5.1.3.3z" fill="#fff"/></g></mask><g id="icon_x2F_Nav_x2F_chevron-right-Color_x2F_Grayscale_x2F_Night-Sky" mask="url(#icon_x2F_Nav_x2F_chevron-right-mask-2)"><path fill="#111" d="M0 0h48v48H0z" transform="translate(-18 -11)" id="icon_x2F_Nav_x2F_chevron-right-Swatch"/></g></g></g></g></svg>