<svg id="icon_x2F_Nav_x2F_chevron-left-Layer_1" xmlns="http://www.w3.org/2000/svg" viewBox="0 0 48 48" enable-background="new 0 0 48 48"><title>icon/Nav/chevron-right</title><g id="icon_x2F_Nav_x2F_chevron-left-Symbols"><g id="icon_x2F_Nav_x2F_chevron-left"><g id="icon_x2F_Nav_x2F_chevron-left-Icon"><g id="icon_x2F_Nav_x2F_chevron-left-Fill-1"><path id="icon_x2F_Nav_x2F_chevron-left-path-1_1_" d="M18.3 35.3c-.4.4-.4 1 0 1.4.4.4 1 .4 1.4 0l12-12c.4-.4.4-1 0-1.4l-12-12c-.4-.4-1-.4-1.4 0s-.4 1 0 1.4L29.6 24 18.3 35.3z" fill="#384048"/></g><defs><filter id="icon_x2F_Nav_x2F_chevron-left-Adobe_OpacityMaskFilter" filterUnits="userSpaceOnUse" x="0" y="0" width="48" height="48"><feColorMatrix values="1 0 0 0 0 0 1 0 0 0 0 0 1 0 0 0 0 0 1 0"/></filter></defs><mask maskUnits="userSpaceOnUse" x="0" y="0" width="48" height="48" id="icon_x2F_Nav_x2F_chevron-left-mask-2_1_"><g filter="url(#icon_x2F_Nav_x2F_chevron-left-Adobe_OpacityMaskFilter)"><path id="icon_x2F_Nav_x2F_chevron-left-path-1_2_" d="M18.3 35.3c-.4.4-.4 1 0 1.4.4.4 1 .4 1.4 0l12-12c.4-.4.4-1 0-1.4l-12-12c-.4-.4-1-.4-1.4 0s-.4 1 0 1.4L29.6 24 18.3 35.3z" fill="#fff"/></g></mask><g id="icon_x2F_Nav_x2F_chevron-left-Color_x2F_Grayscale_x2F_Night-Sky" mask="url(#icon_x2F_Nav_x2F_chevron-left-mask-2_1_)"><path id="icon_x2F_Nav_x2F_chevron-left-Swatch" fill="#111" d="M0 0h48v48H0z"/></g></g></g></g></svg>