<svg id="icon_x2F_Nav_x2F_chevron-down-Layer_1" xmlns="http://www.w3.org/2000/svg" viewBox="0 0 48 48" enable-background="new 0 0 48 48"><title>icon/Nav/chevron-down</title><g id="icon_x2F_Nav_x2F_chevron-down-Symbols"><g id="icon_x2F_Nav_x2F_chevron-down"><g id="icon_x2F_Nav_x2F_chevron-down-Icon" transform="translate(11 17)"><g id="icon_x2F_Nav_x2F_chevron-down-Mask"><path id="icon_x2F_Nav_x2F_chevron-down-path-1_1_" d="M1.7.3C1.3-.1.7-.1.3.3s-.4 1 0 1.4l12 12c.4.4 1 .4 1.4 0l12-12c.4-.4.4-1 0-1.4-.4-.4-1-.4-1.4 0L13 11.6 1.7.3z" fill="#384048"/></g><defs><filter id="icon_x2F_Nav_x2F_chevron-down-Adobe_OpacityMaskFilter" filterUnits="userSpaceOnUse" x="-11" y="-17" width="48" height="48"><feColorMatrix values="1 0 0 0 0 0 1 0 0 0 0 0 1 0 0 0 0 0 1 0"/></filter></defs><mask maskUnits="userSpaceOnUse" x="-11" y="-17" width="48" height="48" id="icon_x2F_Nav_x2F_chevron-down-mask-2"><g filter="url(#icon_x2F_Nav_x2F_chevron-down-Adobe_OpacityMaskFilter)"><path id="icon_x2F_Nav_x2F_chevron-down-path-1" d="M1.7.3C1.3-.1.7-.1.3.3s-.4 1 0 1.4l12 12c.4.4 1 .4 1.4 0l12-12c.4-.4.4-1 0-1.4-.4-.4-1-.4-1.4 0L13 11.6 1.7.3z" fill="#fff"/></g></mask><g id="icon_x2F_Nav_x2F_chevron-down-Color_x2F_Grayscale_x2F_Night-Sky" mask="url(#icon_x2F_Nav_x2F_chevron-down-mask-2)"><path fill="#111" d="M0 0h48v48H0z" transform="translate(-11 -17)" id="icon_x2F_Nav_x2F_chevron-down-Swatch"/></g></g></g></g></svg>