<?xml version="1.0" encoding="utf-8"?>
<svg version="1.1" id="icon_x2F_Nav_x2F_close-Layer_1"
	 xmlns="http://www.w3.org/2000/svg" xmlns:xlink="http://www.w3.org/1999/xlink" x="0px" y="0px" viewBox="0 0 48 48"
	 style="enable-background:new 0 0 48 48;" xml:space="preserve">
<path id="icon_x2F_Nav_x2F_close-path-1_1_" style="fill:#111111;" d="M24,22.5L13.9,12.3c-0.4-0.4-1.1-0.4-1.5,0
	c-0.4,0.4-0.4,1.1,0,1.5L22.5,24L12.3,34.1c-0.4,0.4-0.4,1.1,0,1.5c0.4,0.4,1.1,0.4,1.5,0L24,25.5l10.1,10.1c0.4,0.4,1.1,0.4,1.5,0
	c0.4-0.4,0.4-1.1,0-1.5L25.5,24l10.2-10.1c0.4-0.4,0.4-1.1,0-1.5c-0.4-0.4-1.1-0.4-1.5,0L24,22.5z"/>
</svg>
