<?xml version="1.0" encoding="UTF-8"?>
<svg width="48px" height="48px" viewBox="0 0 48 48" version="1.1" xmlns="http://www.w3.org/2000/svg" xmlns:xlink="http://www.w3.org/1999/xlink">
    <!-- Generator: Sketch 46.2 (44496) - http://www.bohemiancoding.com/sketch -->
    <title>icon/Nav/close</title>
    <desc>Created with Sketch.</desc>
    <defs>
        <path d="M12,10.4572216 L1.86229831,0.319519875 C1.43627181,-0.106506625 0.745546375,-0.106506625 0.319519875,0.319519875 C-0.106506625,0.745546375 -0.106506625,1.43627181 0.319519875,1.86229831 L10.4572216,12 L0.319519875,22.1377017 C-0.106506625,22.5637282 -0.106506625,23.2544536 0.319519875,23.6804801 C0.745546375,24.1065066 1.43627181,24.1065066 1.86229831,23.6804801 L12,13.5427784 L22.1377017,23.6804801 C22.5637282,24.1065066 23.2544536,24.1065066 23.6804801,23.6804801 C24.1065066,23.2544536 24.1065066,22.5637282 23.6804801,22.1377017 L13.5427784,12 L23.6804801,1.86229831 C24.1065066,1.43627181 24.1065066,0.745546375 23.6804801,0.319519875 C23.2544536,-0.106506625 22.5637282,-0.106506625 22.1377017,0.319519875 L12,10.4572216 Z" id="path-1"></path>
    </defs>
    <g id="Symbols" stroke="none" stroke-width="1" fill="none" fill-rule="evenodd">
        <g id="icon/Nav/close">
            <g id="Icon" transform="translate(12.000000, 12.000000)">
                <mask id="mask-2" fill="white">
                    <use xlink:href="#path-1"></use>
                </mask>
                <use id="Mask" fill="#384048" fill-rule="nonzero" xlink:href="#path-1"></use>
                <g id="Color/Grayscale/Night-Sky" mask="url(#mask-2)" fill="#111111">
                    <g transform="translate(-12.000000, -12.000000)" id="Swatch">
                        <rect x="0" y="0" width="48" height="48"></rect>
                    </g>
                </g>
            </g>
        </g>
    </g>
</svg>