<svg xmlns="http://www.w3.org/2000/svg" xmlns:xlink="http://www.w3.org/1999/xlink" width="32" height="32" viewBox="0 0 32 32">
  <defs>
    <path id="close-a" d="M12,10.4572216 L22.1377017,0.319519875 C22.5637282,-0.106506625 23.2544536,-0.106506625 23.6804801,0.319519875 C24.1065066,0.745546375 24.1065066,1.43627181 23.6804801,1.86229831 L13.5427784,12 L23.6804801,22.1377017 C24.1065066,22.5637282 24.1065066,23.2544536 23.6804801,23.6804801 C23.2544536,24.1065066 22.5637282,24.1065066 22.1377017,23.6804801 L12,13.5427784 L1.86229831,23.6804801 C1.43627181,24.1065066 0.745546375,24.1065066 0.319519875,23.6804801 C-0.106506625,23.2544536 -0.106506625,22.5637282 0.319519875,22.1377017 L10.4572216,12 L0.319519875,1.86229831 C-0.106506625,1.43627181 -0.106506625,0.745546375 0.319519875,0.319519875 C0.745546375,-0.106506625 1.43627181,-0.106506625 1.86229831,0.319519875 L12,10.4572216 Z"/>
  </defs>
  <g fill="none" fill-rule="evenodd" transform="translate(4 4)">
    <use fill="#384048" fill-rule="nonzero" xlink:href="#close-a"/>
  </g>
</svg>
