<?xml version="1.0" encoding="utf-8"?>
<!-- Generator: Adobe Illustrator 21.0.2, SVG Export Plug-In . SVG Version: 6.00 Build 0)  -->
<svg version="1.1" id="icon_x2F_Nav_x2F_collapse-right-Layer_1" xmlns="http://www.w3.org/2000/svg" xmlns:xlink="http://www.w3.org/1999/xlink" x="0px" y="0px"
	 viewBox="0 0 48 48" style="enable-background:new 0 0 48 48;" xml:space="preserve">
<title>icon/Nav/collapse-right</title>
<desc>Created with Sketch.</desc>
<g id="icon_x2F_Nav_x2F_collapse-right-Symbols">
	<g id="icon_x2F_Nav_x2F_collapse-right">
		<g id="icon_x2F_Nav_x2F_collapse-right-Icon" transform="translate(13.000000, 16.000000)">
			<g id="icon_x2F_Nav_x2F_collapse-right-Mask">
				<path id="icon_x2F_Nav_x2F_collapse-right-path-1_1_" style="fill:#384048;" d="M13.2,9l-4.5,4.3c-0.4,0.4-0.4,1,0,1.4c0.4,0.4,1.1,0.4,1.5,0l6.3-6
					c0.4-0.4,0.4-1,0-1.4l-6.3-6c-0.4-0.4-1.1-0.4-1.5,0s-0.4,1,0,1.4L13.2,7H1C0.5,7,0,7.4,0,8s0.5,1,1,1H13.2z M19.9,1
					c0-0.6,0.5-1,1-1s1,0.4,1,1v14c0,0.6-0.5,1-1,1s-1-0.4-1-1V1z"/>
			</g>
			<defs>
				<filter id="icon_x2F_Nav_x2F_collapse-right-Adobe_OpacityMaskFilter" filterUnits="userSpaceOnUse" x="-13" y="-16" width="48" height="48">
					<feColorMatrix  type="matrix" values="1 0 0 0 0  0 1 0 0 0  0 0 1 0 0  0 0 0 1 0"/>
				</filter>
			</defs>
			<mask maskUnits="userSpaceOnUse" x="-13" y="-16" width="48" height="48" id="icon_x2F_Nav_x2F_collapse-right-mask-2">
				<g style="filter:url(#icon_x2F_Nav_x2F_collapse-right-Adobe_OpacityMaskFilter);">
					<path id="icon_x2F_Nav_x2F_collapse-right-path-1" style="fill:#FFFFFF;" d="M13.2,9l-4.5,4.3c-0.4,0.4-0.4,1,0,1.4c0.4,0.4,1.1,0.4,1.5,0l6.3-6
						c0.4-0.4,0.4-1,0-1.4l-6.3-6c-0.4-0.4-1.1-0.4-1.5,0s-0.4,1,0,1.4L13.2,7H1C0.5,7,0,7.4,0,8s0.5,1,1,1H13.2z M19.9,1
						c0-0.6,0.5-1,1-1s1,0.4,1,1v14c0,0.6-0.5,1-1,1s-1-0.4-1-1V1z"/>
				</g>
			</mask>
			<g id="icon_x2F_Nav_x2F_collapse-right-Color_x2F_Grayscale_x2F_Night-Sky" style="mask:url(#icon_x2F_Nav_x2F_collapse-right-mask-2);">
				<g id="icon_x2F_Nav_x2F_collapse-right-Swatch" transform="translate(-13.000000, -16.000000)">
					<rect style="fill:#111111;" width="48" height="48"/>
				</g>
			</g>
		</g>
	</g>
</g>
</svg>
