<svg id="icon_x2F_Nav_x2F_collapse-right-Layer_1" xmlns="http://www.w3.org/2000/svg" viewBox="0 0 48 48" enable-background="new 0 0 48 48"><title>icon/Nav/collapse-right</title><g id="icon_x2F_Nav_x2F_collapse-right-Symbols"><g id="icon_x2F_Nav_x2F_collapse-right"><g id="icon_x2F_Nav_x2F_collapse-right-Icon" transform="translate(13 16)"><g id="icon_x2F_Nav_x2F_collapse-right-Mask"><path id="icon_x2F_Nav_x2F_collapse-right-path-1_1_" d="M13.2 9l-4.5 4.3c-.4.4-.4 1 0 1.4.4.4 1.1.4 1.5 0l6.3-6c.4-.4.4-1 0-1.4l-6.3-6c-.4-.4-1.1-.4-1.5 0s-.4 1 0 1.4L13.2 7H1c-.5 0-1 .4-1 1s.5 1 1 1h12.2zm6.7-8c0-.6.5-1 1-1s1 .4 1 1v14c0 .6-.5 1-1 1s-1-.4-1-1V1z" fill="#384048"/></g><defs><filter id="icon_x2F_Nav_x2F_collapse-right-Adobe_OpacityMaskFilter" filterUnits="userSpaceOnUse" x="-13" y="-16" width="48" height="48"><feColorMatrix values="1 0 0 0 0 0 1 0 0 0 0 0 1 0 0 0 0 0 1 0"/></filter></defs><mask maskUnits="userSpaceOnUse" x="-13" y="-16" width="48" height="48" id="icon_x2F_Nav_x2F_collapse-right-mask-2"><g filter="url(#icon_x2F_Nav_x2F_collapse-right-Adobe_OpacityMaskFilter)"><path id="icon_x2F_Nav_x2F_collapse-right-path-1" d="M13.2 9l-4.5 4.3c-.4.4-.4 1 0 1.4.4.4 1.1.4 1.5 0l6.3-6c.4-.4.4-1 0-1.4l-6.3-6c-.4-.4-1.1-.4-1.5 0s-.4 1 0 1.4L13.2 7H1c-.5 0-1 .4-1 1s.5 1 1 1h12.2zm6.7-8c0-.6.5-1 1-1s1 .4 1 1v14c0 .6-.5 1-1 1s-1-.4-1-1V1z" fill="#fff"/></g></mask><g id="icon_x2F_Nav_x2F_collapse-right-Color_x2F_Grayscale_x2F_Night-Sky" mask="url(#icon_x2F_Nav_x2F_collapse-right-mask-2)"><path fill="#111" d="M0 0h48v48H0z" transform="translate(-13 -16)" id="icon_x2F_Nav_x2F_collapse-right-Swatch"/></g></g></g></g></svg>