<?xml version="1.0" encoding="utf-8"?>
<!-- Generator: Adobe Illustrator 20.0.0, SVG Export Plug-In . SVG Version: 6.00 Build 0)  -->
<svg version="1.1" id="Layer_1" xmlns="http://www.w3.org/2000/svg" xmlns:xlink="http://www.w3.org/1999/xlink" x="0px" y="0px"
	 viewBox="0 0 48 48" style="enable-background:new 0 0 48 48;" xml:space="preserve">
<style type="text/css">
	.st0{fill:#384048;}
</style>
<title>icon/Nav/collapse-left</title>
<desc>Created with Sketch.</desc>
<g id="Symbols">
	<g id="icon_x2F_Nav_x2F_collapse-left">
		<g id="Icon" transform="translate(13.000000, 16.000000)">
			<g id="Mask" transform="translate(11.000000, 8.000000) scale(-1, 1) translate(-11.000000, -8.000000) ">
				<path id="path-1_1_" class="st0" d="M13.2,7L8.7,2.7c-0.4-0.4-0.4-1,0-1.4s1.1-0.4,1.5,0l6.3,6c0.4,0.4,0.4,1,0,1.4l-6.3,6
					c-0.4,0.4-1.1,0.4-1.5,0c-0.4-0.4-0.4-1,0-1.4L13.2,9H1C0.4,9,0,8.6,0,8s0.5-1,1-1H13.2z M19.9,15c0,0.6,0.5,1,1,1
					s1.1-0.4,1.1-1V1c0-0.6-0.5-1-1-1s-1,0.4-1,1v14H19.9z"/>
			</g>
		</g>
	</g>
</g>
</svg>
