<?xml version="1.0" encoding="UTF-8"?>
<svg width="48px" height="48px" viewBox="0 0 48 48" version="1.1" xmlns="http://www.w3.org/2000/svg" xmlns:xlink="http://www.w3.org/1999/xlink">
    <!-- Generator: Sketch 46.2 (44496) - http://www.bohemiancoding.com/sketch -->
    <title>icon/Nav/menu</title>
    <desc>Created with Sketch.</desc>
    <defs>
        <path d="M25,0 C25.5522847,0 26,0.44771525 26,1 C26,1.55228475 25.5522847,2 25,2 L1,2 C0.44771525,2 0,1.55228475 0,1 C0,0.44771525 0.44771525,0 1,0 L25,0 Z M25,10 C25.5522847,10 26,10.4477153 26,11 C26,11.5522847 25.5522847,12 25,12 L1,12 C0.44771525,12 0,11.5522847 0,11 C0,10.4477153 0.44771525,10 1,10 L25,10 Z M25,20 C25.5522847,20 26,20.4477153 26,21 C26,21.5522847 25.5522847,22 25,22 L1,22 C0.44771525,22 0,21.5522847 0,21 C0,20.4477153 0.44771525,20 1,20 L25,20 Z" id="path-1"></path>
    </defs>
    <g id="Symbols" stroke="none" stroke-width="1" fill="none" fill-rule="evenodd">
        <g id="icon/Nav/menu">
            <g id="Icon" transform="translate(11.000000, 13.000000)">
                <mask id="mask-2" fill="white">
                    <use xlink:href="#path-1"></use>
                </mask>
                <use id="Mask" fill="#384048" fill-rule="nonzero" xlink:href="#path-1"></use>
                <g id="Color/Grayscale/Night-Sky" mask="url(#mask-2)" fill="#111111">
                    <g transform="translate(-11.000000, -13.000000)" id="Swatch">
                        <rect x="0" y="0" width="48" height="48"></rect>
                    </g>
                </g>
            </g>
        </g>
    </g>
</svg>