<svg id="icon_x2F_Nav_x2F_plus-Layer_1" xmlns="http://www.w3.org/2000/svg" viewBox="0 0 48 48" enable-background="new 0 0 48 48"><title>icon/Nav/plus</title><g id="icon_x2F_Nav_x2F_plus-Symbols"><g id="icon_x2F_Nav_x2F_plus"><g id="icon_x2F_Nav_x2F_plus-Icon" transform="translate(11 11)"><g id="icon_x2F_Nav_x2F_plus-Mask"><path id="icon_x2F_Nav_x2F_plus-path-1_1_" d="M14 12V1.4c0-.8-.4-1.4-1-1.4s-1 .6-1 1.4V12H1.4c-.8 0-1.4.4-1.4 1s.6 1 1.4 1H12v10.6c0 .8.4 1.4 1 1.4s1-.6 1-1.4V14h10.6c.8 0 1.4-.4 1.4-1s-.6-1-1.4-1H14z" fill="#384048"/></g><defs><filter id="icon_x2F_Nav_x2F_plus-Adobe_OpacityMaskFilter" filterUnits="userSpaceOnUse" x="-11" y="-11" width="48" height="48"><feColorMatrix values="1 0 0 0 0 0 1 0 0 0 0 0 1 0 0 0 0 0 1 0"/></filter></defs><mask maskUnits="userSpaceOnUse" x="-11" y="-11" width="48" height="48" id="icon_x2F_Nav_x2F_plus-mask-2"><g filter="url(#icon_x2F_Nav_x2F_plus-Adobe_OpacityMaskFilter)"><path id="icon_x2F_Nav_x2F_plus-path-1" d="M14 12V1.4c0-.8-.4-1.4-1-1.4s-1 .6-1 1.4V12H1.4c-.8 0-1.4.4-1.4 1s.6 1 1.4 1H12v10.6c0 .8.4 1.4 1 1.4s1-.6 1-1.4V14h10.6c.8 0 1.4-.4 1.4-1s-.6-1-1.4-1H14z" fill="#fff"/></g></mask><g id="icon_x2F_Nav_x2F_plus-Color_x2F_Grayscale_x2F_Night-Sky" mask="url(#icon_x2F_Nav_x2F_plus-mask-2)"><path fill="#111" d="M0 0h48v48H0z" transform="translate(-11 -11)" id="icon_x2F_Nav_x2F_plus-Swatch"/></g></g></g></g></svg>