<svg xmlns="http://www.w3.org/2000/svg" xmlns:xlink="http://www.w3.org/1999/xlink" width="32" height="32" viewBox="0 0 32 32">
  <defs>
    <path id="online-only-a" d="M20.448518,11.4758475 L17.6136635,14.4190852 L14.778809,11.4758475 C14.5667461,11.2557333 14.2228838,11.2557333 14.0107666,11.4758475 C13.7987037,11.696018 13.7987037,12.053027 14.0107666,12.2732539 L16.8456211,15.2164916 L14.0107666,18.1597294 C13.7987037,18.3798999 13.7987037,18.7369089 14.0107666,18.9571358 C14.1168252,19.0671929 14.2557929,19.1222778 14.3947607,19.1222778 C14.5337284,19.1222778 14.6727504,19.0671929 14.7787547,18.9571358 L21.216506,12.2732539 C21.4285689,12.0530834 21.4285689,11.6960744 21.216506,11.4758475 C21.0043888,11.2557333 20.6606352,11.2557333 20.448518,11.4758475 L20.448518,11.4758475 Z M26.0663109,14.2830925 C28.6445721,16.9599267 28.6445721,21.3154697 26.0662566,23.9924167 C24.7770446,25.3308056 23.0837456,26 21.3903922,26 C19.6969845,26 18.0036311,25.3308056 16.7145277,23.9924167 L12.079338,19.1800127 C9.97440345,16.9944887 9.97440345,13.438551 12.079338,11.2531398 L12.5537507,10.7606456 L9.62130924,7.71614631 C8.86494256,6.93086194 7.63421754,6.93086194 6.87779656,7.71614631 C6.5113975,8.09655367 6.30959835,8.60235394 6.30959835,9.14034816 C6.30959835,9.67834238 6.5113975,10.1841426 6.87779656,10.56455 L8.43848165,12.1848474 C9.0100468,12.7782649 9.32480134,13.567214 9.32480134,14.4063993 C9.32480134,15.2455846 9.0100468,16.0345902 8.43848165,16.6279512 C7.25869517,17.8529565 5.33894226,17.8529565 4.15904717,16.6279512 C3.94698428,16.4077243 3.94698428,16.0507153 4.15904717,15.8305448 C4.37111005,15.6104306 4.71497233,15.6104306 4.92703522,15.8305448 C5.6834562,16.6158292 6.91418122,16.6158292 7.67054791,15.8305448 C8.03694696,15.4501374 8.23874611,14.9443372 8.23874611,14.4063429 C8.23874611,13.8683487 8.03700126,13.3625485 7.67054791,12.9821411 L6.10991711,11.3618437 C5.53835197,10.7684826 5.22359743,9.97953344 5.22359743,9.14029178 C5.22359743,8.30110649 5.53840628,7.5121573 6.10997142,6.91862711 C7.28986651,5.69379096 9.20967373,5.69379096 10.3894602,6.91862711 L13.3219017,9.96318275 L13.79626,9.47068856 C15.9011946,7.28527733 19.326241,7.28533371 21.4311213,9.47068856 L26.0663109,14.2830925 Z"/>
  </defs>
  <g fill="none" fill-rule="evenodd">
    <use fill="#384048" xlink:href="#online-only-a"/>
  </g>
</svg>
