<svg xmlns="http://www.w3.org/2000/svg" xmlns:xlink="http://www.w3.org/1999/xlink" width="32" height="32" viewBox="0 0 32 32">
  <defs>
    <path id="parts-services-a" d="M2.14763492,21.8119068 C1.62005942,21.2854287 1.62005942,20.4315272 2.1475165,19.9049309 C2.67497357,19.378571 3.530463,19.378571 4.05792008,19.9051673 C4.585614,20.4317636 4.58549558,21.2854287 4.0580385,21.812025 C3.53058143,22.3385031 2.67532884,22.3385031 2.14763492,21.8119068 L2.14763492,21.8119068 Z M16.9601312,11.1685156 L5.00862179,23.0978419 C3.86287701,24.2415783 2.00517177,24.2415783 0.859308578,23.0978419 C-0.286436193,21.9541055 -0.286436193,20.0999666 0.859308578,18.9563484 L12.8106996,7.02702206 C12.3512174,5.16460885 12.8502529,3.11472501 14.3081614,1.65952261 C15.9053355,0.0653129791 18.2170754,-0.380077537 20.2140464,0.322405434 L16.7602328,3.76992661 C16.2835793,4.2455772 16.2835793,5.01709097 16.7602328,5.49285977 L17.5080755,6.23931442 C17.550471,6.27702131 17.5940508,6.31295515 17.6347884,6.35361713 C17.675526,6.39427911 17.7116451,6.43789617 17.7495405,6.48033121 L18.4971463,7.22654944 C18.9739183,7.70220004 19.7466299,7.70220004 20.2232834,7.22654944 L23.6770969,3.77914647 C24.3807678,5.77229267 23.9344306,8.07985999 22.3373749,9.67395142 C20.8795849,11.1291538 18.8260077,11.6271449 16.9601312,11.1685156 Z M15.5881981,13.7350666 L16.6228619,12.702205 L22.9330438,19.0006747 C24.078907,20.1442928 24.0787885,21.99855 22.9330438,23.1422864 C21.7871806,24.2859045 19.9294753,24.2859045 18.7837306,23.1422864 L12.4735486,16.8438167 L13.5083308,15.8109552 L13.5084493,15.8109552 L19.9960292,22.2864936 C20.1540058,22.4441769 20.4100368,22.4441769 20.5680134,22.2864936 C20.7258716,22.1289284 20.72599,21.8732544 20.5680134,21.7154528 L14.0804335,15.2400326 L15.0162139,14.3059891 L21.5037938,20.7815275 C21.661652,20.9390927 21.9179198,20.9390927 22.0758964,20.7815275 C22.233873,20.6237259 22.2337546,20.3682883 22.075778,20.2107232 L15.5881981,13.7350666 Z M9.94568633,8.51236633 L8.38546025,10.0695783 L4.55103442,6.09877054 L2.63909133,5.58730431 L0.0680045411,1.61578734 L1.47593835,0.210348585 L5.45495895,2.77689961 L5.96725785,4.68529395 L9.94568633,8.51236633 Z"/>
  </defs>
  <g fill="none" fill-rule="evenodd" transform="translate(4 4)">
    <use fill="#384048" xlink:href="#parts-services-a"/>
  </g>
</svg>
