<svg xmlns="http://www.w3.org/2000/svg" xmlns:xlink="http://www.w3.org/1999/xlink" width="32" height="32" viewBox="0 0 32 32">
  <defs>
    <path id="shield-a" d="M10,23.9999664 C10,23.9999888 10,24 10,24 C0.606060606,21.1428571 3.73034936e-14,14.2886294 3.73034936e-14,14.2886294 L0,0 L8.40318302,0 L20,0 L20,14.2886294 C20,14.2886294 19.3939394,21.1428571 10,24 Z M6.8906644,10.7258676 C6.14812474,10.1805971 5.09471691,10.3279401 4.53781217,11.0549674 C3.98090742,11.7819948 4.13139425,12.8133959 4.87393391,13.3586664 L8.23515139,15.8269153 C8.98214448,16.375456 10.042606,16.2226344 10.5965005,15.4866244 L16.4786311,7.67050302 C17.0292234,6.93888104 16.8698151,5.90876555 16.1225827,5.36967567 C15.3753504,4.83058579 14.3232556,4.9866639 13.7726634,5.71828588 L8.89595265,12.1984145 L6.8906644,10.7258676 Z"/>
  </defs>
  <g fill="none" fill-rule="evenodd" transform="translate(6 4)">
    <use fill="#384048" xlink:href="#shield-a"/>
  </g>
</svg>
