<svg id="payment-card-amex-Layer_1" xmlns="http://www.w3.org/2000/svg" viewBox="0 0 48 48"><title>card/american-express</title><g id="payment-card-amex-Symbols"><g id="payment-card-amex-card_x2F_american-express"><g id="payment-card-amex-Icon" transform="translate(6 13)"><g id="payment-card-amex-Card"><path d="M2 0h32c1.1 0 2 .9 2 2v18c0 1.1-.9 2-2 2H2c-1.1 0-2-.9-2-2V2C0 .9.9 0 2 0z"/><linearGradient id="payment-card-amex-path-2_2_" gradientUnits="userSpaceOnUse" x1="-265.717" y1="180.509" x2="-265.217" y2="179.509" gradientTransform="matrix(36 0 0 -22 9573 3969)"><stop offset="0" stop-color="#62b1de"/><stop offset="1" stop-color="#3379ba"/></linearGradient><path id="payment-card-amex-path-2_1_" d="M2 0h32c1.1 0 2 .9 2 2v18c0 1.1-.9 2-2 2H2c-1.1 0-2-.9-2-2V2C0 .9.9 0 2 0z" fill="url(#payment-card-amex-path-2_2_)"/></g><path id="payment-card-amex-Shape" d="M14 13.8l1.5-1.6v3.3L14 13.8zm-4.7-1.2v.7h2.1v.8H9.3v.9h2.4l1.1-1.2-1.1-1.2H9.3zm26.1.6c.3.3.5.8.5 1.3 0 1.2-.8 2-2.2 2h-1.9c-.3 0-.5-.2-.6-.4-.4.3-.8.4-1.4.4h-1.9c-.1 0-.2 0-.3-.1-.1 0-.2.1-.3.1h-3.2c-.1 0-.2 0-.3-.1-.1 0-.2.1-.3.1h-1c-.4 0-.7-.3-.7-.7v-.6-.2H21.2v.8c0 .4-.3.7-.7.7h-1c-.4 0-.7-.3-.7-.7v-1c-.3.2-.8.3-1.5.3h-.5v.7c0 .4-.3.7-.7.7h-1.9c-.2 0-.4-.1-.5-.2l-.7-.8-.7.8c-.1.1-.3.2-.5.2H8.3c-.4 0-.7-.3-.7-.7v-4.1c0-.4.3-.7.7-.7h3.9c.2 0 .4.1.5.2l.7.8.7-.8c.1-.1.3-.2.5-.2h3.1c.7 0 1.1.2 1.5.4.1-.2.3-.4.6-.4H22c.5 0 1 0 1.5.3l.1.1c.1-.2.3-.4.6-.4h3.2c.2 0 .5.1.6.4.3-.2.7-.4 1.3-.4h1.9c.3 0 .5.2.6.5.3-.3.8-.5 1.4-.5h1.9c.4 0 .7.3.7.7v.9c-.1.3-.2.5-.4.6zm-16.1-.1c0-1.1-.9-1.3-1.6-1.3h-3.1l-1.2 1.3-1.2-1.3H8.3v4.1h3.8l1.2-1.4 1.2 1.4h1.9v-1.4h1.2c.9 0 1.7-.3 1.7-1.4zm3.6.9c.3-.1.7-.4.7-1.1 0-.5-.2-.7-.5-.9s-.7-.2-1.2-.2h-2.2v4.1h1v-1.5h1c.4 0 .6 0 .7.2.2.2.2.6.2.8v.5h1V15c0-.4 0-.5-.2-.7-.1-.1-.2-.3-.5-.3zm4.5-2.2h-3.2v4.1h3.2V15h-2.3v-.8h2.2v-.8h-2.2v-.7h2.3v-.9zm3.9 2.8c0-.4-.1-.7-.3-.9-.2-.2-.6-.3-1.1-.3H29c-.1 0-.2-.2-.2-.3s0-.2.1-.3.2-.1.4-.1h1.8v-.9h-1.9c-1 0-1.4.6-1.4 1.2 0 1.3 1.1 1.2 2 1.3.2 0 .3 0 .3.1.1.1.1.2.1.3s0 .2-.1.3c0-.1-.1 0-.3 0h-1.9v.9h1.9c1 0 1.5-.5 1.5-1.3zm4 0c0-.4-.1-.7-.3-.9s-.6-.3-1.1-.3H33c-.1 0-.2-.2-.2-.3s0-.2.1-.3.2-.1.4-.1h1.8v-.9h-1.9c-1 0-1.4.6-1.4 1.2 0 1.3 1.1 1.2 2 1.3.2 0 .3 0 .3.1.1.1.1.2.1.3s0 .2-.1.3-.2.1-.4.1h-1.9v.9h1.9c1-.1 1.6-.6 1.6-1.4zm-17.6-2h-1.3v1h1.2c.4 0 .6-.2.6-.5.1-.3-.2-.5-.5-.5zm.5-6.2c.1-.1.2-.2.2-.4s-.1-.3-.2-.4-.3-.1-.5-.1h-1.2v.9h1.2c.3.1.4.1.5 0zm4.2 6.3c-.1-.1-.3-.1-.5-.1h-1.2v.9h1.2c.2 0 .3 0 .5-.1.1-.1.2-.2.2-.4 0-.1-.1-.2-.2-.3zm3.5-7.3L25.2 7h1.3l-.6-1.6zM2.4 7.1h1.3l-.6-1.7-.7 1.7zm5.4 2.4c-.3 0-.5-.2-.6-.4l-.1-.3c0 .4-.3.7-.7.7h-2c-.3 0-.5-.2-.6-.4l-.2-.5H2.5l-.2.5c-.1.2-.3.4-.6.4h-1c-.2 0-.4-.1-.6-.3C0 9 0 8.8.1 8.6l1.7-4.1c.1-.2.3-.4.6-.4h1.4c.3 0 .5.2.6.4l.4.9v-.7c0-.4.3-.7.7-.7H7c.3 0 .5.2.6.4l.6 1.4.6-1.4c.1-.2.3-.4.6-.4H11c.1 0 .3.1.4.1.1-.1.2-.1.4-.1H15c.1 0 .2 0 .3.1.1-.1.2-.1.3-.1h2.2c.6 0 1 0 1.5.3l.1.1c.1-.2.3-.4.6-.4h1c.3 0 .6.3.6.6.4-.4 1-.6 1.8-.6h.9c.1 0 .3 0 .4.1.1-.1.3-.1.4-.1h1.4c.3 0 .5.2.6.4l.4.8v-.5c0-.4.3-.7.7-.7h1.5c.2 0 .4.1.6.3l.5.8v-.4c0-.4.3-.7.7-.7h1c.4 0 .7.3.7.7v4.1c0 .4-.3.7-.7.7h-1.4c-.2 0-.4-.1-.6-.3l-.6-1v.6c0 .4-.3.7-.7.7h-2c-.3 0-.5-.2-.6-.4l-.2-.5h-1.1l-.2.5c-.1.3-.3.4-.6.4h-1.1c-.4 0-1.2-.1-1.7-.5-.1.3-.3.5-.6.5h-1c-.1 0-.2 0-.3-.1-.1 0-.2.1-.3.1h-1c-.4 0-.7-.3-.7-.7v-.6V8H17.2v.8c0 .4-.3.7-.7.7h-1c-.1 0-.2 0-.3-.1-.1.1-.2.1-.3.1h-3.2c-.1 0-.3-.1-.4-.1-.1.1-.2.1-.4.1h-1c-.4 0-.7-.3-.7-.7l.1.3c-.1.2-.4.4-.6.4h-.9zm13.7-2.7c0 .7.2 1.2.5 1.6.3.3.9.5 1.4.5h1.1l.4-.9h2l.4.9h2V5.7l1.8 3.1h1.4V4.7h-1v2.8l-1.7-2.8h-1.5v3.9l-1.6-3.9h-1.4l-1.4 3.2h-.4c-.3 0-.5 0-.7-.2s-.3-.5-.3-1c0-.4.1-.8.3-.9.2-.2.4-.2.7-.2h.9v-.9h-.9c-.7 0-1.2.2-1.5.5-.4.4-.5 1-.5 1.6zm2-.5c-.2 0-.2 0-.3.1 0 0-.1.2-.1.4 0 .3 0 .4.1.5h.2l.4-1h-.3zm-3.4 2.5h1V4.7h-1v4.1zm-4.5 0h1V7.3h1c.3 0 .6 0 .7.2.2.2.2.6.2.8v.5h1V8c0-.4 0-.5-.2-.7-.1-.2-.3-.3-.5-.4.2-.1.7-.4.7-1.1 0-.5-.2-.7-.5-.9-.3-.2-.7-.2-1.2-.2h-2.2v4.1zm-3.8 0H15V8h-2.3v-.8h2.2v-.9h-2.2v-.7H15v-.9h-3.2v4.1zm-4 0h.8L10 5.6v3.2h1V4.7H9.4L8.3 7.5 7 4.7H5.5v3.9L3.8 4.7H2.4L.7 8.8h1l.4-.9h2l.4.9h2V5.6l1.3 3.2z" fill="#fff"/></g></g></g></svg>