<?xml version="1.0" encoding="utf-8"?>
<!-- Generator: Adobe Illustrator 21.0.2, SVG Export Plug-In . SVG Version: 6.00 Build 0)  -->
<svg version="1.1" id="payment-card-jcp-Layer_1" xmlns="http://www.w3.org/2000/svg" xmlns:xlink="http://www.w3.org/1999/xlink" x="0px" y="0px"
	 viewBox="0 0 48 48" style="enable-background:new 0 0 48 48;" xml:space="preserve">
<filter  filterUnits="objectBoundingBox" height="131.8%" id="payment-card-jcp-filter-3" width="119.4%" x="-9.7%" y="-11.4%">
	<feOffset  dx="0" dy="1" in="SourceAlpha" result="shadowOffsetOuter1"></feOffset>
	<feGaussianBlur  in="shadowOffsetOuter1" result="shadowBlurOuter1" stdDeviation="1"></feGaussianBlur>
	
		<feColorMatrix  in="shadowBlurOuter1" type="matrix" values="0 0 0 0 0.325490196   0 0 0 0 0.376470588   0 0 0 0 0.419607843  0 0 0 1 0">
		</feColorMatrix>
</filter>
<g>
	<path id="payment-card-jcp-path-4" style="fill:#FFFFFF;" d="M11.9,23.9c0,0.4-0.1,0.8-0.2,1c-0.2,0.4-0.7,0.7-1.3,0.7c-0.4,0-0.7-0.1-1-0.3
		C9.1,25.1,9,24.7,9,24.2v-0.4h0.6v0.4c0,0.3,0.1,0.5,0.2,0.6C9.9,25,10.1,25,10.4,25c0.4,0,0.6-0.1,0.7-0.4
		c0.1-0.2,0.1-0.5,0.1-0.9v-3.4h0.7V23.9z M16.2,20.7c0.4,0.3,0.5,0.7,0.6,1.2h-0.7c-0.1-0.3-0.2-0.6-0.5-0.8
		c-0.2-0.2-0.5-0.3-1-0.3c-0.5,0-0.9,0.2-1.2,0.5c-0.3,0.4-0.5,0.9-0.5,1.6c0,0.6,0.1,1.1,0.4,1.5s0.7,0.6,1.2,0.6
		c0.5,0,0.9-0.2,1.2-0.6c0.1-0.2,0.2-0.5,0.3-0.8h0.7c-0.1,0.5-0.3,1-0.6,1.4c-0.4,0.4-0.9,0.7-1.6,0.7c-0.6,0-1.1-0.2-1.5-0.5
		c-0.5-0.5-0.8-1.2-0.8-2.2c0-0.8,0.2-1.4,0.6-1.9c0.4-0.5,1-0.8,1.8-0.8C15.3,20.2,15.8,20.4,16.2,20.7L16.2,20.7z M17.4,20.3h2.3
		c0.4,0,0.8,0.1,1.1,0.4c0.3,0.3,0.4,0.6,0.4,1.1c0,0.4-0.1,0.7-0.4,1c-0.2,0.3-0.6,0.4-1.1,0.4h-1.6v2.2h-0.7V20.3z M20,21
		c-0.2-0.1-0.4-0.1-0.6-0.1h-1.4v1.8h1.4c0.3,0,0.6-0.1,0.7-0.2c0.2-0.1,0.3-0.4,0.3-0.7C20.5,21.4,20.3,21.2,20,21L20,21z
		 M23.9,21.8c0.2,0.1,0.4,0.3,0.6,0.5c0.1,0.2,0.2,0.4,0.2,0.7c0,0.2,0.1,0.4,0.1,0.8H22c0,0.4,0.1,0.7,0.3,0.9
		c0.2,0.2,0.4,0.3,0.8,0.3c0.3,0,0.6-0.1,0.8-0.3c0.1-0.1,0.2-0.3,0.2-0.4h0.6c0,0.1-0.1,0.3-0.2,0.5s-0.2,0.3-0.3,0.4
		c-0.2,0.2-0.4,0.3-0.7,0.4c-0.1,0-0.3,0.1-0.5,0.1c-0.5,0-0.8-0.2-1.2-0.5s-0.5-0.8-0.5-1.4c0-0.6,0.2-1.1,0.5-1.5
		c0.3-0.4,0.7-0.6,1.3-0.6C23.4,21.6,23.6,21.7,23.9,21.8L23.9,21.8z M24.1,23.3c0-0.3-0.1-0.5-0.2-0.7c-0.2-0.3-0.5-0.5-0.8-0.5
		c-0.3,0-0.5,0.1-0.7,0.3S22.1,23,22,23.3H24.1z M25.1,21.7h0.6v0.5c0.2-0.2,0.4-0.4,0.6-0.5c0.2-0.1,0.4-0.1,0.6-0.1
		c0.5,0,0.9,0.2,1.1,0.6c0.1,0.2,0.2,0.5,0.2,0.9v2.4h-0.6v-2.4c0-0.2,0-0.4-0.1-0.6c-0.1-0.2-0.3-0.3-0.6-0.3c-0.1,0-0.3,0-0.4,0
		c-0.2,0.1-0.3,0.2-0.4,0.3c-0.1,0.1-0.2,0.3-0.2,0.4c0,0.1,0,0.3,0,0.6v2h-0.6V21.7z M28.7,21.7h0.6v0.5c0.2-0.2,0.4-0.4,0.6-0.5
		c0.2-0.1,0.4-0.1,0.6-0.1c0.5,0,0.9,0.2,1.1,0.6c0.1,0.2,0.2,0.5,0.2,0.9v2.4h-0.6v-2.4c0-0.2,0-0.4-0.1-0.6
		c-0.1-0.2-0.3-0.3-0.6-0.3c-0.1,0-0.3,0-0.4,0c-0.2,0.1-0.3,0.2-0.4,0.3c-0.1,0.1-0.2,0.3-0.2,0.4c0,0.1,0,0.3,0,0.6v2h-0.6V21.7z
		 M34.5,21.8c0.2,0.1,0.4,0.3,0.6,0.5c0.1,0.2,0.2,0.4,0.2,0.7c0,0.2,0.1,0.4,0.1,0.8h-2.7c0,0.4,0.1,0.7,0.3,0.9
		c0.2,0.2,0.4,0.3,0.8,0.3c0.3,0,0.6-0.1,0.8-0.3c0.1-0.1,0.2-0.3,0.2-0.4h0.6c0,0.1-0.1,0.3-0.2,0.5c-0.1,0.2-0.2,0.3-0.3,0.4
		c-0.2,0.2-0.4,0.3-0.7,0.4c-0.1,0-0.3,0.1-0.5,0.1c-0.5,0-0.8-0.2-1.2-0.5S32,24.3,32,23.7c0-0.6,0.2-1.1,0.5-1.5
		c0.3-0.4,0.7-0.6,1.3-0.6C34,21.6,34.3,21.7,34.5,21.8L34.5,21.8z M34.8,23.3c0-0.3-0.1-0.5-0.2-0.7c-0.2-0.3-0.5-0.5-0.8-0.5
		c-0.3,0-0.5,0.1-0.7,0.3c-0.2,0.2-0.3,0.5-0.3,0.8H34.8z M38.1,21.7h0.7c-0.1,0.2-0.3,0.8-0.6,1.6c-0.2,0.6-0.4,1.2-0.6,1.6
		c-0.4,1-0.6,1.5-0.8,1.7c-0.1,0.2-0.4,0.3-0.8,0.3c-0.1,0-0.2,0-0.2,0s-0.1,0-0.2,0v-0.6c0.1,0,0.2,0,0.2,0.1c0,0,0.1,0,0.1,0
		c0.1,0,0.2,0,0.3-0.1c0.1,0,0.1-0.1,0.1-0.1c0,0,0.1-0.1,0.1-0.3c0.1-0.2,0.1-0.3,0.2-0.4l-1.4-3.8h0.7l1,3L38.1,21.7z"/>
</g>
<title>card/jcpcard</title>
<desc>Created with Sketch.</desc>
<g id="payment-card-jcp-Symbols">
	<g id="payment-card-jcp-card_x2F_jcpcard">
		<g id="payment-card-jcp-Card">
			<g style="filter:url(#payment-card-jcp-filter-3);">
				<path id="payment-card-jcp-path-2_2_" d="M8,13h32c1.1,0,2,0.9,2,2v18c0,1.1-0.9,2-2,2H8c-1.1,0-2-0.9-2-2V15C6,13.9,6.9,13,8,13z"/>
			</g>
			<g>
				
					<linearGradient id="payment-card-jcp-path-2_2_" gradientUnits="userSpaceOnUse" x1="-48.4111" y1="97.8273" x2="-47.9111" y2="96.8273" gradientTransform="matrix(36 0 0 -22 1756 2163)">
					<stop  offset="0" style="stop-color:#666666"/>
					<stop  offset="1" style="stop-color:#000000"/>
				</linearGradient>
				<path id="payment-card-jcp-path-2_1_" style="fill:url(#payment-card-jcp-path-2_2_);" d="M8,13h32c1.1,0,2,0.9,2,2v18c0,1.1-0.9,2-2,2H8c-1.1,0-2-0.9-2-2V15
					C6,13.9,6.9,13,8,13z"/>
			</g>
		</g>
		<g id="payment-card-jcp-Logo" transform="translate(9.000000, 20.200000)">
			<g id="payment-card-jcp-Mask">
				<path id="payment-card-jcp-path-4_1_" style="fill:#FFFFFF;" d="M2.9,3.7c0,0.4-0.1,0.8-0.2,1C2.5,5.2,2,5.4,1.4,5.4c-0.4,0-0.7-0.1-1-0.3
					C0.1,4.9,0,4.5,0,4V3.6h0.6V4c0,0.3,0.1,0.5,0.2,0.6s0.3,0.2,0.6,0.2c0.4,0,0.6-0.1,0.7-0.4C2.2,4.3,2.2,4,2.2,3.6V0.1h0.7V3.7z
					 M7.2,0.5c0.4,0.3,0.5,0.7,0.6,1.2H7.1C7,1.3,6.9,1.1,6.7,0.9c-0.2-0.2-0.5-0.3-1-0.3c-0.5,0-0.9,0.2-1.2,0.5
					C4.2,1.5,4.1,2,4.1,2.8c0,0.6,0.1,1.1,0.4,1.5c0.3,0.4,0.7,0.6,1.2,0.6c0.5,0,0.9-0.2,1.2-0.6C7,4,7.1,3.7,7.2,3.4h0.7
					c-0.1,0.5-0.3,1-0.6,1.4C6.8,5.2,6.3,5.4,5.6,5.4C5,5.4,4.5,5.2,4.1,4.9C3.6,4.4,3.4,3.6,3.4,2.6c0-0.8,0.2-1.4,0.6-1.9
					C4.4,0.3,5,0,5.7,0C6.3,0,6.8,0.2,7.2,0.5L7.2,0.5z M8.4,0.1h2.3c0.4,0,0.8,0.1,1.1,0.4s0.4,0.6,0.4,1.1c0,0.4-0.1,0.7-0.4,1
					s-0.6,0.4-1.1,0.4H9.1v2.2H8.4V0.1z M11,0.8c-0.2-0.1-0.4-0.1-0.6-0.1H9.1v1.8h1.4c0.3,0,0.6-0.1,0.7-0.2
					c0.2-0.1,0.3-0.4,0.3-0.7C11.5,1.2,11.3,1,11,0.8L11,0.8z M14.9,1.6c0.2,0.1,0.4,0.3,0.6,0.5c0.1,0.2,0.2,0.4,0.2,0.7
					c0,0.2,0.1,0.4,0.1,0.8H13c0,0.4,0.1,0.7,0.3,0.9c0.2,0.2,0.4,0.3,0.8,0.3c0.3,0,0.6-0.1,0.8-0.3c0.1-0.1,0.2-0.3,0.2-0.4h0.6
					c0,0.1-0.1,0.3-0.2,0.5c-0.1,0.2-0.2,0.3-0.3,0.4c-0.2,0.2-0.4,0.3-0.7,0.4c-0.1,0-0.3,0.1-0.5,0.1c-0.5,0-0.8-0.2-1.2-0.5
					c-0.3-0.3-0.5-0.8-0.5-1.4c0-0.6,0.2-1.1,0.5-1.5c0.3-0.4,0.7-0.6,1.3-0.6C14.4,1.4,14.6,1.5,14.9,1.6L14.9,1.6z M15.1,3.1
					c0-0.3-0.1-0.5-0.2-0.7C14.7,2.1,14.5,2,14.1,2c-0.3,0-0.5,0.1-0.7,0.3c-0.2,0.2-0.3,0.5-0.3,0.8H15.1z M16.1,1.5h0.6v0.5
					c0.2-0.2,0.4-0.4,0.6-0.5c0.2-0.1,0.4-0.1,0.6-0.1c0.5,0,0.9,0.2,1.1,0.6c0.1,0.2,0.2,0.5,0.2,0.9v2.4h-0.6V2.9
					c0-0.2,0-0.4-0.1-0.6C18.3,2.1,18.1,2,17.8,2c-0.1,0-0.3,0-0.4,0c-0.2,0.1-0.3,0.2-0.4,0.3c-0.1,0.1-0.2,0.3-0.2,0.4
					c0,0.1,0,0.3,0,0.6v2h-0.6V1.5z M19.7,1.5h0.6v0.5c0.2-0.2,0.4-0.4,0.6-0.5c0.2-0.1,0.4-0.1,0.6-0.1c0.5,0,0.9,0.2,1.1,0.6
					c0.1,0.2,0.2,0.5,0.2,0.9v2.4h-0.6V2.9c0-0.2,0-0.4-0.1-0.6C21.9,2.1,21.7,2,21.4,2c-0.1,0-0.3,0-0.4,0
					c-0.2,0.1-0.3,0.2-0.4,0.3c-0.1,0.1-0.2,0.3-0.2,0.4c0,0.1,0,0.3,0,0.6v2h-0.6V1.5z M25.5,1.6c0.2,0.1,0.4,0.3,0.6,0.5
					c0.1,0.2,0.2,0.4,0.2,0.7c0,0.2,0.1,0.4,0.1,0.8h-2.7c0,0.4,0.1,0.7,0.3,0.9s0.4,0.3,0.8,0.3c0.3,0,0.6-0.1,0.8-0.3
					c0.1-0.1,0.2-0.3,0.2-0.4h0.6c0,0.1-0.1,0.3-0.2,0.5C26.1,4.7,26,4.9,25.9,5c-0.2,0.2-0.4,0.3-0.7,0.4c-0.1,0-0.3,0.1-0.5,0.1
					c-0.5,0-0.8-0.2-1.2-0.5S23,4.1,23,3.5c0-0.6,0.2-1.1,0.5-1.5s0.7-0.6,1.3-0.6C25,1.4,25.3,1.5,25.5,1.6L25.5,1.6z M25.8,3.1
					c0-0.3-0.1-0.5-0.2-0.7C25.4,2.1,25.1,2,24.8,2c-0.3,0-0.5,0.1-0.7,0.3c-0.2,0.2-0.3,0.5-0.3,0.8H25.8z M29.1,1.5h0.7
					c-0.1,0.2-0.3,0.8-0.6,1.6c-0.2,0.6-0.4,1.2-0.6,1.6c-0.4,1-0.6,1.5-0.8,1.7c-0.1,0.2-0.4,0.3-0.8,0.3c-0.1,0-0.2,0-0.2,0
					c0,0-0.1,0-0.2,0V6.2c0.1,0,0.2,0,0.2,0.1c0,0,0.1,0,0.1,0c0.1,0,0.2,0,0.3-0.1c0.1,0,0.1-0.1,0.1-0.1c0,0,0.1-0.1,0.1-0.3
					s0.1-0.3,0.2-0.4l-1.4-3.8h0.7l1,3L29.1,1.5z"/>
			</g>
		</g>
	</g>
</g>
</svg>
