<svg id="payment-card-jcp-mastercard-Layer_1" xmlns="http://www.w3.org/2000/svg" xmlns:xlink="http://www.w3.org/1999/xlink" viewBox="0 0 48 48" enable-background="new 0 0 48 48"><filter filterUnits="objectBoundingBox" height="159.1%" id="payment-card-jcp-mastercard-filter-2" width="136.1%" x="-18.1%" y="-25%"><feOffset dy="1" in="SourceAlpha" result="shadowOffsetOuter1"/><feGaussianBlur in="shadowOffsetOuter1" result="shadowBlurOuter1" stdDeviation="2"/><feColorMatrix in="shadowBlurOuter1" values="0 0 0 0 0.325490196 0 0 0 0 0.376470588 0 0 0 0 0.419607843 0 0 0 1 0"/></filter><title>card/PLCC/JCP-Mastercard</title><g id="payment-card-jcp-mastercard-Symbols"><g id="payment-card-jcp-mastercard-card_x2F_PLCC_x2F_JCP-Mastercard"><g id="payment-card-jcp-mastercard-Card"><g filter="url(#payment-card-jcp-mastercard-filter-2)"><path id="payment-card-jcp-mastercard-path-1_2_" d="M8 13h32c1.1 0 2 .9 2 2v18c0 1.1-.9 2-2 2H8c-1.1 0-2-.9-2-2V15c0-1.1.9-2 2-2z"/></g><path id="payment-card-jcp-mastercard-path-1_1_" d="M8 13h32c1.1 0 2 .9 2 2v18c0 1.1-.9 2-2 2H8c-1.1 0-2-.9-2-2V15c0-1.1.9-2 2-2z" fill="#ba162b"/></g><g id="payment-card-jcp-mastercard-Group-2" transform="translate(8 14.722)"><path id="payment-card-jcp-mastercard-Combined-Shape" d="M13.1 2.7c0 .5-.2.9-1 .9-.6 0-1-.3-1-1v-.1h.5v.1c0 .4.1.7.6.7.4 0 .5-.2.5-.6V.2h.5v2.5h-.1zm2.8-1.5c-.1-.5-.5-.7-.9-.7-.8 0-1.1.7-1.1 1.3 0 .8.3 1.4 1.2 1.4.6 0 .9-.4 1-1h.5c-.1.8-.6 1.3-1.5 1.3-1.1 0-1.6-.8-1.6-1.7S14.1 0 15.1 0c.7 0 1.3.4 1.4 1.1h-.6v.1zm.7-1H18c.7 0 1 .4 1 1s-.4 1-1 1h-1v1.4h-.5V.2zm.4 1.6h.9c.5 0 .7-.2.7-.6s-.2-.6-.7-.6H17v1.2zm4.2 1c-.1.5-.5.8-1 .8-.8 0-1.2-.5-1.2-1.3 0-.7.5-1.3 1.2-1.3.9 0 1.1.8 1.1 1.4h-1.8c0 .4.2.8.8.8.3 0 .6-.2.6-.5h.3zm-.4-.7c0-.4-.3-.7-.7-.7-.4 0-.7.3-.7.7h1.4zm.6-.9h.4v.4c.2-.3.5-.4.8-.4.6 0 .8.4.8.9v1.6H23V1.9c0-.3-.2-.5-.5-.5-.5 0-.7.3-.7.8v1.4h-.4V1.2zm2.4 0h.4v.4c.2-.3.5-.4.8-.4.6 0 .8.4.8.9v1.6h-.4V1.9c0-.3-.2-.5-.5-.5-.5 0-.7.3-.7.8v1.4h-.4V1.2zm4.4 1.6c-.1.5-.5.8-1 .8-.8 0-1.2-.5-1.2-1.3 0-.7.5-1.3 1.2-1.3.9 0 1.1.8 1.1 1.4h-1.8c0 .4.2.8.8.8.3 0 .6-.2.6-.5h.3zm-.4-.7c0-.4-.3-.7-.7-.7-.4 0-.7.3-.7.7h1.4zm1.5 1.8c-.2.5-.4.6-.7.6h-.3v-.4c.1 0 .2.1.2.1.2 0 .3-.1.3-.2l.2-.4-1-2.4h.5l.7 2 .7-2h.4l-1 2.7z" fill="#fff"/><path id="payment-card-jcp-mastercard-Combined-Shape_1_" d="M1.1 11.6l.1-.1c.1.1.1.1.2.1s.2-.1.2-.2v-.7h.2v.7c0 .1 0 .2-.1.3-.1.1-.2.1-.3.1-.1-.1-.2-.1-.3-.2zm.9-.4c0-.3.2-.5.6-.5.2 0 .3.1.4.2l-.1.1c-.1-.1-.2-.1-.3-.1-.2 0-.4.2-.4.4s.1.4.4.4c.1 0 .2-.1.3-.1H3c-.1.1-.2.2-.4.2-.3 0-.6-.3-.6-.6zm1.2-.5h.4c.2 0 .4.1.4.3 0 .2-.2.4-.4.4h-.2v.3h-.2v-1zm.4.5c.1 0 .2-.1.2-.2s-.1-.2-.2-.2h-.2v.4h.2zm.6-.5H5v.2h-.7v.3h.5v.2h-.5v.3h.6v.2h-.8l.1-1.2zm.9 0h.2l.6.7v-.7h.2v1.1h-.2l-.6-.8v.8h-.2v-1.1zm1.2 0h.2l.6.7v-.7h.2v1.1h-.2l-.6-.8v.8h-.2v-1.1zm1.2 0h.8v.2h-.6v.3h.5v.2h-.5v.3h.6v.2h-.8v-1.2zm1.3.6l-.4-.6h.2l.3.5.3-.5h.2l-.4.6v.4h-.2v-.4zm1.1-.1c0-.3.2-.5.6-.5.2 0 .3.1.4.2l-.1.1c-.1-.1-.2-.1-.3-.1-.2 0-.4.2-.4.4s.1.4.4.4c.1 0 .2-.1.3-.1l.1.1c-.1.1-.2.2-.4.2-.3-.1-.6-.4-.6-.7zm1.6-.5h.2l.5 1.1H12l-.1-.3h-.5l-.1.3H11l.5-1.1zm.2.6l-.2-.4-.2.4h.4zm.6-.6h.5c.1 0 .2 0 .3.1.1.1.1.1.1.2 0 .2-.1.3-.3.3l.3.4H13l-.3-.4h-.2v.4h-.2v-1zm.4.5c.1 0 .2-.1.2-.2s-.1-.2-.2-.2h-.3v.4h.3zm.6-.5h.4c.3 0 .6.2.6.5s-.2.5-.6.5h-.4v-1zm.2.2v.7h.2c.2 0 .4-.2.4-.3 0-.2-.1-.4-.4-.4h-.2zm1-.2h.2l.3.5.3-.5h.2v1.1h-.2V11l-.3.5-.3-.5v.8h-.2v-1.1zm1.3 0h.8v.2H16v.3h.5v.2H16v.3h.6v.2h-.8v-1.2zm1 0h.2l.3.5.3-.5h.2v1.1h-.2V11l-.3.5-.3-.5v.8h-.2v-1.1zm1.3 0h.5c.1 0 .2 0 .3.1 0 0 .1.1.1.2s-.1.2-.2.2c.1 0 .2.1.2.3 0 .2-.2.3-.4.3h-.5v-1.1zm.6.3c0-.1-.1-.1-.2-.1h-.3v.3h.3c.1-.1.2-.1.2-.2zm-.1.3h-.3v.3h.3c.1 0 .2-.1.2-.1 0-.2-.1-.2-.2-.2zm.5-.6h.8v.2h-.6v.3h.5v.2h-.5v.3h.6v.2h-.8v-1.2zm1 0h.5c.1 0 .2 0 .3.1.1.1.1.1.1.2 0 .2-.1.3-.3.3l.3.4h-.2l-.3-.4h-.2v.4h-.2v-1zm.5.5c.1 0 .2-.1.2-.2s-.1-.2-.2-.2h-.3v.4h.3z" fill="#fff"/><path id="payment-card-jcp-mastercard-Combined-Shape_2_" d="M1.2 16.7l.1-.1c.1.1.2.1.3.1.1 0 .2-.1.2-.2s-.1-.2-.2-.2h-.2l-.1-.1v-.5h.6v.3h-.5v.3h.2c.2 0 .4.1.4.3 0 .2-.2.4-.4.4-.2-.1-.3-.2-.4-.3zm1.5-.1h-.5v-.1l.6-.7H3V16.7h-.1v.2h-.2v-.3zm0-.1v-.4l-.4.4h.4zm.6.3c-.1-.1-.1-.2-.1-.4 0-.3.2-.6.5-.6.1 0 .2 0 .3.1l-.1.1h-.3c-.2 0-.3.2-.3.3.1-.1.1-.1.3-.1.2 0 .4.1.4.3 0 .2-.2.4-.4.4s-.2-.1-.3-.1zm.5-.3c0-.1-.1-.2-.2-.2s-.2.1-.2.2.1.2.2.2.2-.1.2-.2zm.5.3c-.1-.1-.1-.2-.1-.4 0-.3.2-.6.5-.6.1 0 .2 0 .3.1l-.1.1h-.3c-.2 0-.3.2-.3.3.1-.1.1-.1.3-.1.2 0 .4.1.4.3 0 .2-.2.4-.4.4-.1 0-.2-.1-.3-.1zm.5-.3c0-.1-.1-.2-.2-.2s-.2.1-.2.2.1.2.2.2c.2 0 .2-.1.2-.2zm.9-.2c0-.3.2-.5.5-.5s.5.2.5.5-.2.5-.5.5-.5-.2-.5-.5zM7 16l-.2.1v-.2l.3-.1h.2v1.1H7V16zm.4.7l.4-.3c.1-.1.2-.2.2-.3 0-.1-.1-.1-.2-.1s-.1 0-.2.1l-.2-.1c.1-.1.2-.2.4-.2s.4.1.4.3c0 .2-.1.3-.3.4l-.2.2h.5v.2h-.8v-.2zm1 0l.1-.1c.1.1.2.1.3.1.1 0 .2-.1.2-.2s-.1-.2-.2-.2h-.2v-.1l.3-.2h-.5v-.2h.7v.1l-.3.3c.2 0 .3.1.3.3 0 .2-.2.3-.4.3-.1.1-.2 0-.3-.1zm2-.1h-.5v-.1l.6-.7h.2v.7h.2v.2h-.2v.2h-.2v-.3zm0-.1v-.4l-.4.4h.4zm.5.2l.1-.1c.1.1.2.1.3.1.1 0 .2-.1.2-.2s-.1-.2-.2-.2H11v-.5h.6v.2h-.5v.3h.2c.2 0 .4.1.4.3 0 .2-.2.4-.4.4-.2-.1-.3-.2-.4-.3zm1.1.1c-.1-.1-.1-.2-.1-.4 0-.3.2-.6.5-.6.1 0 .2 0 .3.1l-.1.1h-.2c-.2 0-.3.2-.3.3.1-.1.1-.1.3-.1.2 0 .4.1.4.3 0 .2-.2.4-.4.4s-.3-.1-.4-.1zm.5-.3c0-.1-.1-.2-.2-.2s-.2.1-.2.2.1.2.2.2c.2 0 .2-.1.2-.2zm1-.5H13v-.2h.7v.1l-.5.9H13l.5-.8zm.8.6c0-.1.1-.2.2-.3-.1 0-.2-.1-.2-.2 0-.2.2-.3.4-.3s.4.1.4.3c0 .1-.1.2-.2.2.1.1.2.1.2.3 0 .2-.2.3-.4.3s-.4-.1-.4-.3zm.7 0c0-.1-.1-.2-.2-.2s-.2.1-.2.2.1.2.2.2l.2-.2zm-.1-.5c0-.1-.1-.2-.2-.2s-.2.1-.2.1c0 .1.1.2.2.2.2 0 .2 0 .2-.1zm1.1.3c-.1.1-.1.1-.3.1-.2 0-.4-.1-.4-.3s.2-.4.4-.4c.1 0 .2 0 .3.1.1.1.1.2.1.4 0 .3-.2.6-.5.6-.1 0-.3-.1-.3-.1l.1-.1c.1.1.2.1.2.1.3-.1.4-.3.4-.4zm0-.3c0-.1-.1-.2-.2-.2s-.2.1-.2.2.1.2.2.2.2-.1.2-.2zm.4.2c0-.3.2-.5.5-.5s.5.2.5.5-.2.5-.5.5-.5-.2-.5-.5zm-10 0c0-.2-.1-.4-.3-.4-.2 0-.3.2-.3.4s.1.4.3.4c.2 0 .3-.1.3-.4zm10.7 0c0-.2-.1-.4-.3-.4-.2 0-.3.2-.3.4s.1.4.3.4.3-.1.3-.4zm.6-.3l-.2.1v-.2l.3-.1h.1v1.1h-.2V16z" fill="#fff"/><path id="payment-card-jcp-mastercard-Combined-Shape_3_" d="M16.2 14.1l.4-.3c.1-.1.2-.2.2-.3 0-.1-.1-.2-.2-.2s-.2.1-.2.2l-.1-.1c.1-.1.2-.2.4-.2s.4.1.4.3c0 .2-.1.3-.3.4l-.2.2h.5v.2h-.8l-.1-.2zm.9-.3c0-.3.2-.5.5-.5s.5.2.5.5-.2.5-.5.5-.5-.2-.5-.5zm.7 0c0-.2-.1-.4-.3-.4-.2 0-.3.2-.3.4s.1.4.3.4.3-.2.3-.4zm.5-.4l-.2.1v-.2l.3-.1h.1v1.1h-.2v-.9zm.4.7l.4-.3c.1-.1.2-.2.2-.3 0-.1-.1-.2-.2-.2s-.2.1-.2.2l-.1-.1c.1-.1.2-.2.4-.2s.4.1.4.3c0 .2-.1.3-.3.4l-.3.2h.5v.2h-.8v-.2zm-6.2-.9l.3.2.2-.2h.1v.5H13v-.4l-.2.2-.2-.2v.4h-.1v-.5zm.6 0h.4v.1l-.4-.1.1.2h.3v.1h-.3v.1h.3v.1h-.4v-.5zm.5 0l.3.2.2-.2h.1v.5H14v-.4l-.2.2-.2-.2v.4h-.1v-.5zm.5 0H14.4v.1c0 .1 0 .1-.1.1.1 0 .1 0 .1.1s-.1.1-.2.1H14l.1-.4zm.4.2c0-.1-.1-.1 0 0l-.2-.1v.1h.2c-.1.1 0 0 0 0zm-.1.2h-.1v.1h.1s.1 0 0-.1c.1 0 0 0 0 0zm.2-.4h.4v.1l-.4-.1.1.2h.3v.1h-.3v.1h.3v.1h-.4v-.5zm.5 0H15.4v.1c0 .1 0 .1-.1.2l.1.2h-.1l-.1-.2h-.1v.2H15v-.5zm.2.3c.1 0 .1 0 .1-.1 0 0 0-.1-.1-.1h-.1v.2h.1zm-2.8.8h.2s.1 0 .1-.1 0-.1-.1-.1-.2-.1-.2-.2.1-.1.2-.1.1 0 .2.1v.1h-.1s-.1 0-.1.1 0 .1.1.1.2.1.2.1c0 .1-.1.2-.2.2-.2-.1-.2-.1-.3-.2zm.5-.4l.1.5H13v-.5zm.2 0l.4.4v-.4h.1v.5h-.1l-.3-.4v.4h-.1v-.5zm.5.2c0-.1.1-.3.3-.3.1 0 .2 0 .2.1l-.1.1-.1-.1c-.2 0-.2.1-.3.2.1.1.2.2.3.2.1 0 .1 0 .1-.1l.1.1s-.1.1-.2.1c-.2 0-.3-.1-.3-.3zm.5-.2h.4v.1l-.4-.1.1.2h.3v.1h-.3v.1h.3v.1h-.4v-.5z" fill="#fff"/><path id="payment-card-jcp-mastercard-Combined-Shape_4_" d="M3.9 13.8c0-.3.2-.5.5-.5s.5.2.5.5-.2.5-.5.5-.5-.2-.5-.5zm.7 0c0-.2-.1-.4-.3-.4-.2 0-.3.2-.3.4s.1.4.3.4c.2-.1.3-.2.3-.4zm.4 0c0-.3.2-.5.5-.5s.5.2.5.5-.2.5-.5.5-.5-.2-.5-.5zm.7 0c0-.2-.1-.4-.3-.4-.2 0-.3.2-.3.4s.1.4.3.4c.2-.1.3-.2.3-.4zm.8-.7h.2L6 14.5h-.2l.7-1.4zm.2.7c0-.3.2-.5.5-.5s.5.2.5.5-.2.5-.5.5-.5-.2-.5-.5zm.7 0c0-.2-.1-.4-.3-.4-.2 0-.3.2-.3.4s.1.4.3.4c.2-.1.3-.2.3-.4zm.4 0c0-.3.2-.5.5-.5s.5.2.5.5-.2.5-.5.5c-.4 0-.5-.2-.5-.5zm.7 0c0-.2-.1-.4-.3-.4-.2 0-.3.2-.3.4s.1.4.3.4c.2-.1.3-.2.3-.4zm-7.3-.6l.3.4.2-.4h.1l-.2.5h-.2l-.2-.5zm.6 0l.3.5H2v-.1h-.2v.1h-.2l.2-.5zm.2.4l-.1-.2-.1.2H2zm.2-.4l.1.4h.3v.1h-.4v-.5zm.4 0l.1.5h-.1v-.5zm.2 0H3c.2 0 .3.1.3.3 0 .1-.1.3-.3.3h-.2v-.6zm.1.1v.4H3c.1 0 .2-.1.2-.2s-.1-.2-.3-.2zm-1.5.6h-.2v-.1h.4v.1h-.2l.1.4h-.1v-.4zm.3 0l.1.2H2v-.2h.1v.5H2v-.2h-.2v.2h-.1v-.5zm.5 0H2.5v.1c0 .1 0 .1-.1.2l.1.2-.1-.2h-.1v.2h-.1v-.5zm.2.2c.1 0 .1 0 .1-.1s0-.1-.1-.1h-.1v.2h.1zm.2.1v-.3h.1l-.1.3c.1.1.1.1.2.1s.1 0 .1-.1v-.3H3v.3c0 .2-.1.2-.2.2s-.2-.1-.2-.2z" fill="#fff"/><g id="payment-card-jcp-mastercard-mc-logo" transform="translate(24.965 13.565)"><path id="payment-card-jcp-mastercard-Shape" d="M3.7 3.4c-.4 0-.7-.1-1-.3-.3.2-.6.3-1 .3C.8 3.4 0 2.6 0 1.7S.8 0 1.7 0c.4 0 .7.1 1 .3.3-.2.6-.3 1-.3.9 0 1.7.8 1.7 1.7 0 1-.7 1.7-1.7 1.7" fill="#fff"/><path id="payment-card-jcp-mastercard-Rectangle-path" fill="#f26522" d="M2.1.5h1.4v2.4H2.1z"/><path id="payment-card-jcp-mastercard-Shape_1_" d="M2.2 1.8c0-.5.2-.9.6-1.2-.3-.2-.6-.3-1-.3C.9.3.2 1 .2 1.9s.7 1.6 1.6 1.6c.4 0 .7-.1 1-.3-.4-.5-.6-1-.6-1.4" fill="#e51b24"/><path id="payment-card-jcp-mastercard-Shape_2_" d="M5.3 1.8c0 .9-.7 1.6-1.6 1.6-.3-.1-.7-.2-.9-.4.4-.3.6-.7.6-1.2S3.1.8 2.8.5c.3-.2.6-.3 1-.3.8 0 1.5.7 1.5 1.6" fill="#f99f1c"/><path id="payment-card-jcp-mastercard-Shape_3_" d="M1.2 4.1v-.3c0-.1-.1-.2-.2-.2s-.1 0-.1.1l-.1-.1s-.1 0-.1.1v-.1H.5V4h.1v-.2c0-.1 0-.1.1-.1s.1 0 .1.1V4h.1v-.2c0-.1 0-.1.1-.1s.1 0 .1.1l.1.3zm1.3-.4h-.1v-.2h-.1v.1h-.1v.1h.1v.2c0 .1 0 .2.1.2h.1V4h-.1s-.1 0-.1-.1v-.1l.2-.1zm.8 0c-.1 0-.1 0-.1.1v-.1h-.1v.4h.1v-.3s0-.1.1-.1zm-1.2 0h-.2c-.1 0-.2.1-.2.1 0 .1.1.1.1.1h.1s.1.1 0 .1h-.1v.1c.1 0 .1.1.2.1s.2-.1.2-.1c0-.1-.1-.1-.1-.1H2h.1c.1 0 0-.2 0-.3zm2.4 0c-.1 0-.1 0-.1.1v-.1h-.1v.4h.1v-.3l.1-.1s.1 0 0 0c.1 0 .1 0 0 0zm-1.1.2c0 .1.1.2.2.2s.1 0 .2-.1v-.1h-.1c-.2.1-.2.1-.3 0 .1-.1.2-.1.2-.1h.1v-.1s-.1-.1-.2-.1c0 .1-.1.2-.1.3zm.8 0v-.2.1l-.1-.1c-.1 0-.2.1-.2.2s0 .2.1.2.1 0 .1-.1v.1h.1v-.2zm-.3 0c0-.1 0-.1.1-.1s.1.1.1.1c.1 0 0 .1-.1.1s-.1-.1-.1-.1zm-1.1-.2c-.1 0-.2.1-.2.2s.1.2.2.2.1 0 .2-.1v-.1h-.1c-.2.1-.2.1-.2 0H3c0-.2-.1-.2-.2-.2zm0 0c.1 0 .1 0 .1.1h-.2s0-.1.1-.1zm2.3.2v-.4H5v.2l-.1-.1c-.1 0-.2.1-.2.2s.1.2.2.2c0 .1.1.1.1 0v.1h.1v-.2zm-.4 0c0-.1 0-.1.1-.1s.2 0 .2.1l-.1.1-.2-.1zm-3 0v-.2h-.1v.1l-.1-.1c-.1 0-.2.1-.2.2s.1.2.2.2.1 0 .1-.1v.1h.1v-.2zm-.4 0c0-.1 0-.1.1-.1s.1.1.1.1c.1 0 0 .1 0 .1-.1 0-.2-.1-.2-.1zm3.9.1s.1 0 0 0c.1 0 .1 0 0 0 .1.1.1.1 0 0 .1.1 0 .1 0 0 0 .1 0 .1 0 0 0 .1 0 .1 0 0zm0 .1c.1 0 .1 0 0 0 .1-.1.1-.1 0 0 0-.1 0-.1 0 0zm0-.1s0 .1 0 0c0 .1 0 .1 0 0 0 .1 0 .1 0 0zm0 0c0 .1 0 .1 0 0z" fill="#fff"/><path id="payment-card-jcp-mastercard-Rectangle-path_1_" fill="#f26522" d="M2.1.5h1.4v2.4H2.1z"/><path id="payment-card-jcp-mastercard-Shape_4_" d="M2.2 1.8c0-.5.2-.9.6-1.2-.3-.2-.6-.3-1-.3C.9.3.2 1 .2 1.9s.7 1.6 1.6 1.6c.4 0 .7-.1 1-.3-.4-.5-.6-1-.6-1.4" fill="#e51b24"/><path id="payment-card-jcp-mastercard-Shape_5_" d="M5.3 1.8c0 .9-.7 1.6-1.6 1.6-.3-.1-.7-.2-.9-.4.4-.3.6-.7.6-1.2S3.1.8 2.8.5c.3-.2.6-.3 1-.3.8 0 1.5.7 1.5 1.6" fill="#f99f1c"/></g><image width="46" height="43" id="payment-card-jcp-mastercard-chip" xlink:href="5AE9337C.png" transform="matrix(.1412 0 0 .139 .682 3.837)" overflow="visible" enable-background="new"/></g></g></g></svg>