<?xml version="1.0" encoding="utf-8"?>
<!-- Generator: Adobe Illustrator 21.0.2, SVG Export Plug-In . SVG Version: 6.00 Build 0)  -->
<svg version="1.1" id="payment-card-gift-Layer_1" xmlns="http://www.w3.org/2000/svg" xmlns:xlink="http://www.w3.org/1999/xlink" x="0px" y="0px"
	 viewBox="0 0 48 48" style="enable-background:new 0 0 48 48;" xml:space="preserve">
<filter  filterUnits="objectBoundingBox" height="131.8%" id="payment-card-gift-filter-3" width="119.4%" x="-9.7%" y="-11.4%">
	<feOffset  dx="0" dy="1" in="SourceAlpha" result="shadowOffsetOuter1"></feOffset>
	<feGaussianBlur  in="shadowOffsetOuter1" result="shadowBlurOuter1" stdDeviation="1"></feGaussianBlur>
	
		<feColorMatrix  in="shadowBlurOuter1" type="matrix" values="0 0 0 0 0.325490196   0 0 0 0 0.376470588   0 0 0 0 0.419607843  0 0 0 1 0">
		</feColorMatrix>
</filter>
<title>card/giftcard</title>
<desc>Created with Sketch.</desc>
<g id="payment-card-gift-Symbols">
	<g id="payment-card-gift-card_x2F_giftcard">
		<g id="payment-card-gift-Icon" transform="translate(6.000000, 13.000000)">
			<g id="payment-card-gift-Card">
				<g style="filter:url(#payment-card-gift-filter-3);">
					<path id="payment-card-gift-path-2_2_" d="M2,0h32c1.1,0,2,0.9,2,2v18c0,1.1-0.9,2-2,2H2c-1.1,0-2-0.9-2-2V2C0,0.9,0.9,0,2,0z"/>
				</g>
				<g>
					
						<linearGradient id="payment-card-gift-path-2_2_" gradientUnits="userSpaceOnUse" x1="-54.3972" y1="84.7995" x2="-53.9111" y2="83.8273" gradientTransform="matrix(36 0 0 -22 1966 1864)">
						<stop  offset="0" style="stop-color:#EA2C2C"/>
						<stop  offset="1" style="stop-color:#CC0000"/>
					</linearGradient>
					<path id="payment-card-gift-path-2_1_" style="fill:url(#payment-card-gift-path-2_2_);" d="M2,0h32c1.1,0,2,0.9,2,2v18c0,1.1-0.9,2-2,2H2c-1.1,0-2-0.9-2-2V2
						C0,0.9,0.9,0,2,0z"/>
				</g>
			</g>
			<path id="payment-card-gift-Fill-3" style="fill:#FEFEFE;" d="M12,10.1c0.1-1.1,0.6-3.1,1.5-4c1.1-1,2.2-0.8,2.8-0.2c0.6,0.6,0.9,1.6-0.2,2.7
				C15.2,9.5,13.2,10,12,10.1z M13.5,15.9c-0.9-0.9-1.4-2.9-1.5-4c1.2,0.1,3.2,0.6,4.1,1.5c1.1,1.1,0.8,2.1,0.2,2.7
				C15.7,16.7,14.6,17,13.5,15.9z M5.8,5.9c0.6-0.6,1.7-0.9,2.8,0.2c0.9,0.9,1.4,2.9,1.5,4C8.8,10,6.8,9.5,6,8.6
				C4.9,7.6,5.2,6.5,5.8,5.9z M5.8,16.1c-0.6-0.6-0.9-1.6,0.2-2.7c0.8-0.8,2.9-1.3,4.1-1.5c-0.1,1.1-0.6,3.1-1.5,4
				C7.5,17,6.4,16.7,5.8,16.1z M12,5.7V0h-1.9v5.7c-1.3-2.2-4-2.8-5.7-1.1c-1.7,1.7-1.1,4.4,1.2,5.6l-5.5,0V12l5.5,0
				c-2.3,1.2-2.9,3.8-1.2,5.6c1.7,1.7,4.5,1.1,5.7-1.1V22H12v-5.6c1.3,2.2,4,2.8,5.7,1.1c1.7-1.7,1.1-4.4-1.2-5.6L36,12.1v-1.9
				l-19.5-0.1c2.3-1.2,2.9-3.8,1.2-5.6C16,2.8,13.2,3.4,12,5.7z"/>
		</g>
	</g>
</g>
</svg>
