<?xml version="1.0" encoding="UTF-8"?>
<svg width="48px" height="48px" viewBox="0 0 48 48" version="1.1" xmlns="http://www.w3.org/2000/svg" xmlns:xlink="http://www.w3.org/1999/xlink">
    <!-- Generator: Sketch 46.2 (44496) - http://www.bohemiancoding.com/sketch -->
    <title>card/discover</title>
    <desc>Created with Sketch.</desc>
    <defs>
        <linearGradient x1="0%" y1="0%" x2="50%" y2="100%" id="linearGradient-1">
            <stop stop-color="#FAB765" offset="0%"></stop>
            <stop stop-color="#F48035" offset="100%"></stop>
        </linearGradient>
        <rect id="path-2" x="0" y="0" width="36" height="22" rx="2"></rect>
        <filter x="-9.7%" y="-11.4%" width="119.4%" height="131.8%" filterUnits="objectBoundingBox" id="filter-3">
            <feOffset dx="0" dy="1" in="SourceAlpha" result="shadowOffsetOuter1"></feOffset>
            <feGaussianBlur stdDeviation="1" in="shadowOffsetOuter1" result="shadowBlurOuter1"></feGaussianBlur>
            <feColorMatrix values="0 0 0 0 0.325490196   0 0 0 0 0.376470588   0 0 0 0 0.419607843  0 0 0 1 0" type="matrix" in="shadowBlurOuter1"></feColorMatrix>
        </filter>
    </defs>
    <g id="Symbols" stroke="none" stroke-width="1" fill="none" fill-rule="evenodd">
        <g id="card/discover">
            <g id="Icon" transform="translate(6.000000, 12.000000)">
                <g id="Card">
                    <use fill="black" fill-opacity="1" filter="url(#filter-3)" xlink:href="#path-2"></use>
                    <use fill="url(#linearGradient-1)" fill-rule="evenodd" xlink:href="#path-2"></use>
                </g>
                <path d="M25.3437402,8.58965749 L23.0450479,8.58965749 L23.0450479,4.12693083 L25.3437402,4.12693083 L25.3437402,4.88314305 L23.8552837,4.88314305 L23.8552837,5.87374077 L25.2899331,5.87374077 L25.2899331,6.6292814 L23.8552837,6.6292814 L23.8552837,7.83411686 L25.3437402,7.83411686 L25.3437402,8.58965749 L25.3437402,8.58965749 Z M26.6932991,8.58965749 L25.8830633,8.58965749 L25.8830633,4.12693083 L27.0855909,4.12693083 C28.0203341,4.12693083 28.5571545,4.60913365 28.5571545,5.44459369 C28.5571545,6.12827401 28.2199212,6.57622565 27.609898,6.7098724 L28.9187887,8.58965749 L27.9202277,8.58965749 L26.7984108,6.79650772 L26.6932991,6.79650772 L26.6932991,8.58965749 L26.6932991,8.58965749 Z M26.6932991,6.18132975 L26.9291747,6.18132975 C27.4472252,6.18132975 27.7225177,5.94022834 27.7225177,5.4916051 C27.7225177,5.05775688 27.4484765,4.8307589 26.9429394,4.8307589 L26.6939248,4.8307589 L26.6932991,6.18132975 L26.6932991,6.18132975 L26.6932991,6.18132975 Z M20.8821248,8.70382807 L22.6784083,4.12760242 L21.8006006,4.12760242 L20.6769067,7.12491605 L19.5688544,4.12760242 L18.6829131,4.12760242 L20.4472877,8.70382807 L20.8821248,8.70382807 L20.8821248,8.70382807 Z M28.8687355,4.57689725 L28.7811425,4.57689725 L28.7811425,4.18468771 L28.8987674,4.18468771 C28.9876118,4.18468771 29.037665,4.22699799 29.037665,4.3062458 C29.037665,4.36064473 29.0095101,4.40094023 28.9582056,4.41571525 L29.0770819,4.57689725 L28.9707189,4.57689725 L28.8681099,4.42444594 L28.8681099,4.57689725 L28.8687355,4.57689725 L28.8687355,4.57689725 Z M28.8687355,4.35930154 L28.8825002,4.35930154 C28.925671,4.35930154 28.9488206,4.34251175 28.9488206,4.30758899 C28.9488206,4.2740094 28.9269224,4.25721961 28.8837515,4.25721961 L28.8687355,4.25721961 L28.8687355,4.35930154 L28.8687355,4.35930154 Z M6.79465682,8.58965749 L7.6048927,8.58965749 L7.6048927,4.12693083 L6.79465682,4.12693083 L6.79465682,8.58965749 L6.79465682,8.58965749 Z M6.42050929,6.36198791 C6.42050929,7.01880457 6.14083714,7.6534587 5.66658324,8.07387508 C5.26678346,8.42914708 4.81255084,8.59032908 4.18438341,8.59032908 L3,8.59032908 L3,4.12760242 L4.18876306,4.12760242 C5.5039104,4.12693083 6.42050929,5.04499664 6.42050929,6.36198791 L6.42050929,6.36198791 Z M5.58587249,6.3546004 C5.58587249,5.92679651 5.416943,5.51175285 5.13601952,5.24378778 C4.868235,4.9838818 4.5503973,4.88314305 4.02796722,4.88314305 L3.81023588,4.88314305 L3.81023588,7.83411686 L4.02796722,7.83411686 C4.55102296,7.83411686 4.88199962,7.7259906 5.13601952,7.47951645 C5.41756867,7.21155138 5.58587249,6.78374748 5.58587249,6.3546004 L5.58587249,6.3546004 Z M16.7245824,8.74748153 C17.7168867,8.74748153 18.5584058,8.04566823 18.836201,7.07924782 C18.8493399,7.03828073 18.8568479,6.99664204 18.8681099,6.95567495 C18.8756178,6.92075218 18.8850028,6.88650101 18.8912595,6.85224983 C18.921917,6.69778375 18.9363073,6.53727334 18.9363073,6.37273338 C18.9363073,5.06245803 17.9465057,4 16.7245824,4 C15.8092348,4 15.0221485,4.59771659 14.6874179,5.44996642 C14.5747982,5.7340497 14.5141087,6.04633983 14.5141087,6.37407656 C14.5141087,7.68435191 15.5039104,8.74748153 16.7245824,8.74748153 L16.7245824,8.74748153 Z M13.2321216,8.68905306 C13.5818682,8.68905306 13.880936,8.61652116 14.2488269,8.42914708 L14.2488269,7.40429819 C13.9247325,7.75285426 13.6375524,7.89388852 13.2702872,7.89388852 C12.4537947,7.89388852 11.8750547,7.2578912 11.8750547,6.3546004 C11.8750547,5.49832102 12.4725646,4.82202821 13.2327473,4.82202821 C13.6200338,4.82202821 13.9134706,4.97044997 14.2494525,5.32437878 L14.2494525,4.30087307 C13.894075,4.10678308 13.6006382,4.02686367 13.2521429,4.02686367 C12.023963,4.02686367 11.0391666,5.0644728 11.0391666,6.36198791 C11.0385409,7.67226326 11.997685,8.68905306 13.2321216,8.68905306 L13.2321216,8.68905306 Z M28.5978227,4.38012089 C28.5978227,4.19006044 28.7392229,4.03828073 28.9175374,4.03828073 C29.0889695,4.03828073 29.2316211,4.19274681 29.2316211,4.38012089 C29.2316211,4.56816655 29.0889695,4.72196105 28.9175374,4.72196105 C28.7404743,4.72196105 28.5978227,4.57018133 28.5978227,4.38012089 L28.5978227,4.38012089 Z M28.6622662,4.38079248 C28.6622662,4.53593015 28.7773885,4.66084621 28.9144091,4.66084621 C29.054558,4.66084621 29.1671776,4.53458697 29.1671776,4.38079248 C29.1671776,4.22699799 29.052681,4.10006716 28.9144091,4.10006716 C28.7761371,4.10006716 28.6622662,4.22498321 28.6622662,4.38079248 L28.6622662,4.38079248 Z M33,19 L33,10.453996 C33,10.453996 25.2073453,16.3566152 10.9334293,18.9993284 L33,18.9993284 L33,19 Z M9.58825002,5.838818 C9.10085716,5.64607119 8.95757993,5.51779718 8.95757993,5.27736736 C8.95757993,4.99597045 9.21285115,4.7824043 9.56259776,4.7824043 C9.80473003,4.7824043 10.0049428,4.88985897 10.2164174,5.14439221 L10.6406182,4.54734721 C10.2908716,4.22028207 9.87417881,4.05305574 9.41869486,4.05305574 C8.6829131,4.05305574 8.12356879,4.60107455 8.12356879,5.33109469 C8.12356879,5.94560107 8.38384534,6.26057757 9.14527936,6.55473472 C9.46311706,6.67494963 9.62453857,6.75486904 9.70587499,6.80859637 C9.86854783,6.92209537 9.94925859,7.08327737 9.94925859,7.27065144 C9.94925859,7.63196776 9.68147407,7.90060443 9.31983983,7.90060443 C8.93380467,7.90060443 8.62097228,7.69241101 8.43514985,7.30490262 L7.91084277,7.8468771 C8.2849903,8.435863 8.73296628,8.69711216 9.34924607,8.69711216 C10.1926422,8.69711216 10.7838954,8.09536602 10.7838954,7.23169913 C10.7832697,6.52249832 10.5092286,6.20080591 9.58825002,5.838818 L9.58825002,5.838818 Z" id="Shape" fill="#FFFFFF"></path>
            </g>
        </g>
    </g>
</svg>