<?xml version="1.0" encoding="utf-8"?>
<!-- Generator: Adobe Illustrator 21.0.2, SVG Export Plug-In . SVG Version: 6.00 Build 0)  -->
<svg version="1.1" id="payment-card-jcp-gold-Layer_1" xmlns="http://www.w3.org/2000/svg" xmlns:xlink="http://www.w3.org/1999/xlink" x="0px" y="0px"
	 viewBox="0 0 48 48" style="enable-background:new 0 0 48 48;" xml:space="preserve">
<filter  filterUnits="objectBoundingBox" height="159.1%" id="payment-card-jcp-gold-filter-2" width="136.1%" x="-18.1%" y="-25.0%">
	<feOffset  dx="0" dy="1" in="SourceAlpha" result="shadowOffsetOuter1"></feOffset>
	<feGaussianBlur  in="shadowOffsetOuter1" result="shadowBlurOuter1" stdDeviation="2"></feGaussianBlur>
	
		<feColorMatrix  in="shadowBlurOuter1" type="matrix" values="0 0 0 0 0.325490196   0 0 0 0 0.376470588   0 0 0 0 0.419607843  0 0 0 1 0">
		</feColorMatrix>
</filter>
<title>card/PLCC/JCP-Gold</title>
<desc>Created with Sketch.</desc>
<g id="payment-card-jcp-gold-Symbols">
	<g id="payment-card-jcp-gold-card_x2F_PLCC_x2F_JCP-Gold">
		<g id="payment-card-jcp-gold-Card">
			<g style="filter:url(#payment-card-jcp-gold-filter-2);">
				<path id="payment-card-jcp-gold-path-1_2_" d="M8,13h32c1.1,0,2,0.9,2,2v18c0,1.1-0.9,2-2,2H8c-1.1,0-2-0.9-2-2V15C6,13.9,6.9,13,8,13z"/>
			</g>
			<g>
				<path id="payment-card-jcp-gold-path-1_1_" style="fill:#A87B17;" d="M8,13h32c1.1,0,2,0.9,2,2v18c0,1.1-0.9,2-2,2H8c-1.1,0-2-0.9-2-2V15
					C6,13.9,6.9,13,8,13z"/>
			</g>
		</g>
		<g id="payment-card-jcp-gold-Group-2" transform="translate(8.000000, 14.722059)">
			<path id="payment-card-jcp-gold-Combined-Shape" style="fill:#FFFFFF;" d="M13.1,2.7c0,0.5-0.2,0.9-1,0.9c-0.6,0-1-0.3-1-1V2.5h0.5v0.1
				c0,0.4,0.1,0.7,0.6,0.7c0.4,0,0.5-0.2,0.5-0.6V0.2h0.5V2.7L13.1,2.7z M15.9,1.2c-0.1-0.5-0.5-0.7-0.9-0.7c-0.8,0-1.1,0.7-1.1,1.3
				c0,0.8,0.3,1.4,1.2,1.4c0.6,0,0.9-0.4,1-1h0.5c-0.1,0.8-0.6,1.3-1.5,1.3c-1.1,0-1.6-0.8-1.6-1.7s0.6-1.8,1.6-1.8
				c0.7,0,1.3,0.4,1.4,1.1H15.9L15.9,1.2z M16.6,0.2H18c0.7,0,1,0.4,1,1s-0.4,1-1,1h-1v1.4h-0.5V0.2z M17,1.8h0.9
				c0.5,0,0.7-0.2,0.7-0.6s-0.2-0.6-0.7-0.6H17V1.8z M21.2,2.8c-0.1,0.5-0.5,0.8-1,0.8c-0.8,0-1.2-0.5-1.2-1.3
				c0-0.7,0.5-1.3,1.2-1.3c0.9,0,1.1,0.8,1.1,1.4h-1.8c0,0.4,0.2,0.8,0.8,0.8c0.3,0,0.6-0.2,0.6-0.5H21.2z M20.8,2.1
				c0-0.4-0.3-0.7-0.7-0.7c-0.4,0-0.7,0.3-0.7,0.7H20.8L20.8,2.1z M21.4,1.2h0.4v0.4h0c0.2-0.3,0.5-0.4,0.8-0.4
				c0.6,0,0.8,0.4,0.8,0.9v1.6H23V1.9c0-0.3-0.2-0.5-0.5-0.5c-0.5,0-0.7,0.3-0.7,0.8v1.4h-0.4V1.2L21.4,1.2z M23.8,1.2h0.4v0.4h0
				c0.2-0.3,0.5-0.4,0.8-0.4c0.6,0,0.8,0.4,0.8,0.9v1.6h-0.4V1.9c0-0.3-0.2-0.5-0.5-0.5c-0.5,0-0.7,0.3-0.7,0.8v1.4h-0.4V1.2z
				 M28.2,2.8c-0.1,0.5-0.5,0.8-1,0.8c-0.8,0-1.2-0.5-1.2-1.3c0-0.7,0.5-1.3,1.2-1.3c0.9,0,1.1,0.8,1.1,1.4h-1.8
				c0,0.4,0.2,0.8,0.8,0.8c0.3,0,0.6-0.2,0.6-0.5H28.2z M27.8,2.1c0-0.4-0.3-0.7-0.7-0.7c-0.4,0-0.7,0.3-0.7,0.7H27.8L27.8,2.1z
				 M29.3,3.9c-0.2,0.5-0.4,0.6-0.7,0.6c-0.1,0-0.2,0-0.3,0V4.1c0.1,0,0.2,0.1,0.2,0.1c0.2,0,0.3-0.1,0.3-0.2l0.2-0.4l-1-2.4h0.5
				l0.7,2h0l0.7-2h0.4L29.3,3.9z"/>
			<path id="payment-card-jcp-gold-Combined-Shape_1_" style="fill:#FFFFFF;" d="M1.1,11.6l0.1-0.1c0.1,0.1,0.1,0.1,0.2,0.1c0.1,0,0.2-0.1,0.2-0.2v-0.7
				h0.2v0.7c0,0.1,0,0.2-0.1,0.3c-0.1,0.1-0.2,0.1-0.3,0.1C1.3,11.7,1.2,11.7,1.1,11.6z M2,11.2c0-0.3,0.2-0.5,0.6-0.5
				c0.2,0,0.3,0.1,0.4,0.2L2.9,11c-0.1-0.1-0.2-0.1-0.3-0.1c-0.2,0-0.4,0.2-0.4,0.4c0,0.2,0.1,0.4,0.4,0.4c0.1,0,0.2-0.1,0.3-0.1
				L3,11.6c-0.1,0.1-0.2,0.2-0.4,0.2C2.3,11.8,2,11.5,2,11.2z M3.2,10.7h0.4C3.8,10.7,4,10.8,4,11c0,0.2-0.2,0.4-0.4,0.4H3.4v0.3
				H3.2L3.2,10.7L3.2,10.7z M3.6,11.2c0.1,0,0.2-0.1,0.2-0.2c0-0.1-0.1-0.2-0.2-0.2H3.4v0.4L3.6,11.2L3.6,11.2z M4.2,10.7h0.8v0.2
				H4.3v0.3h0.5v0.2H4.3v0.3h0.6v0.2H4.1L4.2,10.7L4.2,10.7z M5.1,10.7h0.2l0.6,0.7v-0.7h0.2v1.1H5.9L5.3,11v0.8H5.1V10.7z
				 M6.3,10.7h0.2l0.6,0.7v-0.7h0.2v1.1H7.1L6.5,11v0.8H6.3V10.7z M7.5,10.7h0.8v0.2H7.7v0.3h0.5v0.2H7.7v0.3h0.6v0.2H7.5L7.5,10.7
				L7.5,10.7z M8.8,11.3l-0.4-0.6h0.2l0.3,0.5l0.3-0.5h0.2L9,11.3v0.4H8.8V11.3L8.8,11.3z M9.9,11.2c0-0.3,0.2-0.5,0.6-0.5
				c0.2,0,0.3,0.1,0.4,0.2L10.8,11c-0.1-0.1-0.2-0.1-0.3-0.1c-0.2,0-0.4,0.2-0.4,0.4c0,0.2,0.1,0.4,0.4,0.4c0.1,0,0.2-0.1,0.3-0.1
				l0.1,0.1c-0.1,0.1-0.2,0.2-0.4,0.2C10.2,11.8,9.9,11.5,9.9,11.2z M11.5,10.7h0.2l0.5,1.1h-0.2l-0.1-0.3h-0.5l-0.1,0.3H11
				L11.5,10.7z M11.7,11.3l-0.2-0.4l-0.2,0.4H11.7z M12.3,10.7h0.5c0.1,0,0.2,0,0.3,0.1c0.1,0.1,0.1,0.1,0.1,0.2
				c0,0.2-0.1,0.3-0.3,0.3l0.3,0.4h-0.2l-0.3-0.4h-0.2v0.4h-0.2V10.7z M12.7,11.2c0.1,0,0.2-0.1,0.2-0.2s-0.1-0.2-0.2-0.2h-0.3v0.4
				H12.7z M13.3,10.7h0.4c0.3,0,0.6,0.2,0.6,0.5c0,0.3-0.2,0.5-0.6,0.5h-0.4V10.7z M13.5,10.9v0.7h0.2c0.2,0,0.4-0.2,0.4-0.3
				c0-0.2-0.1-0.4-0.4-0.4H13.5z M14.5,10.7h0.2l0.3,0.5l0.3-0.5h0.2v1.1h-0.2V11L15,11.5L14.7,11v0.8h-0.2V10.7z M15.8,10.7h0.8
				v0.2H16v0.3h0.5v0.2H16v0.3h0.6v0.2h-0.8V10.7z M16.8,10.7H17l0.3,0.5l0.3-0.5h0.2v1.1h-0.2V11l-0.3,0.5L17,11v0.8h-0.2V10.7z
				 M18.1,10.7h0.5c0.1,0,0.2,0,0.3,0.1c0,0,0.1,0.1,0.1,0.2c0,0.1-0.1,0.2-0.2,0.2c0.1,0,0.2,0.1,0.2,0.3c0,0.2-0.2,0.3-0.4,0.3
				h-0.5V10.7z M18.7,11c0-0.1-0.1-0.1-0.2-0.1h-0.3v0.3h0.3C18.6,11.1,18.7,11.1,18.7,11z M18.6,11.3h-0.3v0.3h0.3
				c0.1,0,0.2-0.1,0.2-0.1C18.8,11.3,18.7,11.3,18.6,11.3z M19.1,10.7h0.8v0.2h-0.6v0.3h0.5v0.2h-0.5v0.3h0.6v0.2h-0.8L19.1,10.7
				L19.1,10.7z M20.1,10.7h0.5c0.1,0,0.2,0,0.3,0.1C21,10.9,21,10.9,21,11c0,0.2-0.1,0.3-0.3,0.3l0.3,0.4h-0.2l-0.3-0.4h-0.2v0.4
				h-0.2L20.1,10.7L20.1,10.7z M20.6,11.2c0.1,0,0.2-0.1,0.2-0.2s-0.1-0.2-0.2-0.2h-0.3v0.4H20.6z"/>
			<path id="payment-card-jcp-gold-Combined-Shape_2_" style="fill:#FFFFFF;" d="M1.2,16.7l0.1-0.1c0.1,0.1,0.2,0.1,0.3,0.1c0.1,0,0.2-0.1,0.2-0.2
				c0-0.1-0.1-0.2-0.2-0.2c-0.1,0-0.1,0-0.2,0l-0.1-0.1l0-0.5h0.6V16H1.4l0,0.3c0.1,0,0.1,0,0.2,0c0.2,0,0.4,0.1,0.4,0.3
				c0,0.2-0.2,0.4-0.4,0.4C1.4,16.9,1.3,16.8,1.2,16.7z M2.7,16.6H2.2l0-0.1l0.6-0.7h0.2v0.7H3v0.2H2.9v0.2H2.7V16.6L2.7,16.6z
				 M2.7,16.5v-0.4l-0.4,0.4H2.7z M3.3,16.8c-0.1-0.1-0.1-0.2-0.1-0.4c0-0.3,0.2-0.6,0.5-0.6c0.1,0,0.2,0,0.3,0.1l-0.1,0.1
				C3.8,16,3.7,16,3.6,16c-0.2,0-0.3,0.2-0.3,0.3c0.1-0.1,0.1-0.1,0.3-0.1c0.2,0,0.4,0.1,0.4,0.3c0,0.2-0.2,0.4-0.4,0.4
				C3.4,16.9,3.4,16.8,3.3,16.8z M3.8,16.5c0-0.1-0.1-0.2-0.2-0.2s-0.2,0.1-0.2,0.2c0,0.1,0.1,0.2,0.2,0.2S3.8,16.6,3.8,16.5z
				 M4.3,16.8c-0.1-0.1-0.1-0.2-0.1-0.4c0-0.3,0.2-0.6,0.5-0.6c0.1,0,0.2,0,0.3,0.1l-0.1,0.1C4.8,16,4.7,16,4.6,16
				c-0.2,0-0.3,0.2-0.3,0.3c0.1-0.1,0.1-0.1,0.3-0.1c0.2,0,0.4,0.1,0.4,0.3c0,0.2-0.2,0.4-0.4,0.4C4.5,16.9,4.4,16.8,4.3,16.8z
				 M4.8,16.5c0-0.1-0.1-0.2-0.2-0.2c-0.1,0-0.2,0.1-0.2,0.2c0,0.1,0.1,0.2,0.2,0.2C4.8,16.7,4.8,16.6,4.8,16.5z M5.7,16.3
				c0-0.3,0.2-0.5,0.5-0.5s0.5,0.2,0.5,0.5c0,0.3-0.2,0.5-0.5,0.5S5.7,16.6,5.7,16.3z M7,16l-0.2,0.1l0-0.2l0.3-0.1h0.2v1.1H7V16z
				 M7.4,16.7l0.4-0.3C7.9,16.3,8,16.2,8,16.1C8,16,7.9,16,7.8,16S7.7,16,7.6,16.1L7.4,16c0.1-0.1,0.2-0.2,0.4-0.2
				c0.2,0,0.4,0.1,0.4,0.3c0,0.2-0.1,0.3-0.3,0.4l-0.2,0.2h0.5v0.2H7.4L7.4,16.7L7.4,16.7z M8.4,16.7l0.1-0.1
				c0.1,0.1,0.2,0.1,0.3,0.1c0.1,0,0.2-0.1,0.2-0.2c0-0.1-0.1-0.2-0.2-0.2H8.6l0-0.1L8.9,16H8.4v-0.2h0.7v0.1l-0.3,0.3
				c0.2,0,0.3,0.1,0.3,0.3c0,0.2-0.2,0.3-0.4,0.3C8.6,16.9,8.5,16.8,8.4,16.7z M10.4,16.6H9.9l0-0.1l0.6-0.7h0.2v0.7h0.2v0.2h-0.2
				v0.2h-0.2V16.6z M10.4,16.5v-0.4L10,16.5H10.4z M10.9,16.7l0.1-0.1c0.1,0.1,0.2,0.1,0.3,0.1c0.1,0,0.2-0.1,0.2-0.2
				c0-0.1-0.1-0.2-0.2-0.2c-0.1,0-0.1,0-0.2,0L11,16.3l0-0.5h0.6V16h-0.5l0,0.3c0.1,0,0.1,0,0.2,0c0.2,0,0.4,0.1,0.4,0.3
				c0,0.2-0.2,0.4-0.4,0.4C11.1,16.9,11,16.8,10.9,16.7z M12,16.8c-0.1-0.1-0.1-0.2-0.1-0.4c0-0.3,0.2-0.6,0.5-0.6
				c0.1,0,0.2,0,0.3,0.1l-0.1,0.1C12.5,16,12.5,16,12.4,16c-0.2,0-0.3,0.2-0.3,0.3c0.1-0.1,0.1-0.1,0.3-0.1c0.2,0,0.4,0.1,0.4,0.3
				c0,0.2-0.2,0.4-0.4,0.4C12.2,16.9,12.1,16.8,12,16.8z M12.5,16.5c0-0.1-0.1-0.2-0.2-0.2s-0.2,0.1-0.2,0.2c0,0.1,0.1,0.2,0.2,0.2
				C12.5,16.7,12.5,16.6,12.5,16.5z M13.5,16h-0.5v-0.2h0.7v0.1l-0.5,0.9H13L13.5,16z M14.3,16.6c0-0.1,0.1-0.2,0.2-0.3
				c-0.1,0-0.2-0.1-0.2-0.2c0-0.2,0.2-0.3,0.4-0.3c0.2,0,0.4,0.1,0.4,0.3c0,0.1-0.1,0.2-0.2,0.2c0.1,0.1,0.2,0.1,0.2,0.3
				c0,0.2-0.2,0.3-0.4,0.3C14.5,16.9,14.3,16.8,14.3,16.6z M15,16.6c0-0.1-0.1-0.2-0.2-0.2s-0.2,0.1-0.2,0.2c0,0.1,0.1,0.2,0.2,0.2
				C14.9,16.7,15,16.6,15,16.6z M14.9,16.1c0-0.1-0.1-0.2-0.2-0.2c-0.1,0-0.2,0.1-0.2,0.1c0,0.1,0.1,0.2,0.2,0.2
				C14.9,16.2,14.9,16.2,14.9,16.1z M16,16.4c-0.1,0.1-0.1,0.1-0.3,0.1c-0.2,0-0.4-0.1-0.4-0.3s0.2-0.4,0.4-0.4c0.1,0,0.2,0,0.3,0.1
				c0.1,0.1,0.1,0.2,0.1,0.4c0,0.3-0.2,0.6-0.5,0.6c-0.1,0-0.3-0.1-0.3-0.1l0.1-0.1c0.1,0.1,0.2,0.1,0.2,0.1
				C15.9,16.7,16,16.5,16,16.4z M16,16.1c0-0.1-0.1-0.2-0.2-0.2c-0.1,0-0.2,0.1-0.2,0.2c0,0.1,0.1,0.2,0.2,0.2
				C15.9,16.3,16,16.2,16,16.1z M16.4,16.3c0-0.3,0.2-0.5,0.5-0.5s0.5,0.2,0.5,0.5c0,0.3-0.2,0.5-0.5,0.5S16.4,16.6,16.4,16.3z
				 M6.4,16.3c0-0.2-0.1-0.4-0.3-0.4c-0.2,0-0.3,0.2-0.3,0.4s0.1,0.4,0.3,0.4C6.3,16.7,6.4,16.6,6.4,16.3z M17.1,16.3
				c0-0.2-0.1-0.4-0.3-0.4c-0.2,0-0.3,0.2-0.3,0.4s0.1,0.4,0.3,0.4S17.1,16.6,17.1,16.3z M17.7,16l-0.2,0.1l0-0.2l0.3-0.1h0.1v1.1
				h-0.2L17.7,16L17.7,16z"/>
			<path id="payment-card-jcp-gold-Combined-Shape_3_" style="fill:#FFFFFF;" d="M16.2,14.1l0.4-0.3c0.1-0.1,0.2-0.2,0.2-0.3c0-0.1-0.1-0.2-0.2-0.2
				s-0.2,0.1-0.2,0.2l-0.1-0.1c0.1-0.1,0.2-0.2,0.4-0.2c0.2,0,0.4,0.1,0.4,0.3c0,0.2-0.1,0.3-0.3,0.4l-0.2,0.2h0.5v0.2h-0.8
				L16.2,14.1L16.2,14.1z M17.1,13.8c0-0.3,0.2-0.5,0.5-0.5c0.3,0,0.5,0.2,0.5,0.5s-0.2,0.5-0.5,0.5C17.3,14.3,17.1,14.1,17.1,13.8z
				 M17.8,13.8c0-0.2-0.1-0.4-0.3-0.4c-0.2,0-0.3,0.2-0.3,0.4s0.1,0.4,0.3,0.4S17.8,14,17.8,13.8z M18.3,13.4l-0.2,0.1l0-0.2
				l0.3-0.1h0.1v1.1h-0.2L18.3,13.4L18.3,13.4z M18.7,14.1l0.4-0.3c0.1-0.1,0.2-0.2,0.2-0.3c0-0.1-0.1-0.2-0.2-0.2s-0.2,0.1-0.2,0.2
				l-0.1-0.1c0.1-0.1,0.2-0.2,0.4-0.2c0.2,0,0.4,0.1,0.4,0.3c0,0.2-0.1,0.3-0.3,0.4L19,14.1h0.5v0.2h-0.8L18.7,14.1L18.7,14.1z
				 M12.5,13.2L12.5,13.2l0.3,0.2l0.2-0.2h0.1v0.5H13v-0.4l-0.2,0.2l-0.2-0.2v0.4h-0.1V13.2z M13.1,13.2h0.4v0.1L13.1,13.2l0.1,0.2
				h0.3v0.1h-0.3v0.1h0.3v0.1h-0.4V13.2z M13.6,13.2L13.6,13.2l0.3,0.2l0.2-0.2h0.1v0.5H14v-0.4l-0.2,0.2l-0.2-0.2v0.4h-0.1V13.2z
				 M14.1,13.2h0.2c0.1,0,0.1,0,0.1,0c0,0,0,0,0,0.1c0,0.1,0,0.1-0.1,0.1c0.1,0,0.1,0,0.1,0.1c0,0.1-0.1,0.1-0.2,0.1h-0.2L14.1,13.2
				L14.1,13.2z M14.5,13.4C14.5,13.3,14.4,13.3,14.5,13.4l-0.2-0.1v0.1L14.5,13.4C14.4,13.5,14.5,13.4,14.5,13.4z M14.4,13.6h-0.1
				v0.1h0.1C14.4,13.7,14.5,13.7,14.4,13.6C14.5,13.6,14.4,13.6,14.4,13.6z M14.6,13.2H15v0.1L14.6,13.2l0.1,0.2H15v0.1h-0.3v0.1H15
				v0.1h-0.4V13.2z M15.1,13.2h0.2c0.1,0,0.1,0,0.1,0c0,0,0,0.1,0,0.1c0,0.1,0,0.1-0.1,0.2l0.1,0.2h-0.1l-0.1-0.2h-0.1v0.2h-0.1
				V13.2z M15.3,13.5c0.1,0,0.1,0,0.1-0.1c0,0,0-0.1-0.1-0.1h-0.1v0.2L15.3,13.5L15.3,13.5z M12.5,14.3L12.5,14.3c0.1,0,0.1,0,0.2,0
				c0,0,0.1,0,0.1-0.1s0-0.1-0.1-0.1c-0.1,0-0.2-0.1-0.2-0.2c0-0.1,0.1-0.1,0.2-0.1c0.1,0,0.1,0,0.2,0.1l0,0.1c0,0-0.1,0-0.1,0
				s-0.1,0-0.1,0.1s0,0.1,0.1,0.1c0.1,0,0.2,0.1,0.2,0.1c0,0.1-0.1,0.2-0.2,0.2C12.6,14.4,12.6,14.4,12.5,14.3z M13,13.9L13,13.9
				l0.1,0.5H13V13.9z M13.2,13.9L13.2,13.9l0.4,0.4v-0.4h0.1v0.5h-0.1L13.3,14v0.4h-0.1L13.2,13.9L13.2,13.9z M13.7,14.1
				c0-0.1,0.1-0.3,0.3-0.3c0.1,0,0.2,0,0.2,0.1L14.1,14c0,0-0.1-0.1-0.1-0.1C13.8,13.9,13.8,14,13.7,14.1c0.1,0.1,0.2,0.2,0.3,0.2
				c0.1,0,0.1,0,0.1-0.1l0.1,0.1c0,0-0.1,0.1-0.2,0.1C13.8,14.4,13.7,14.3,13.7,14.1z M14.2,13.9h0.4v0.1L14.2,13.9l0.1,0.2h0.3v0.1
				h-0.3v0.1h0.3v0.1h-0.4V13.9z"/>
			<path id="payment-card-jcp-gold-Combined-Shape_4_" style="fill:#FFFFFF;" d="M3.9,13.8c0-0.3,0.2-0.5,0.5-0.5s0.5,0.2,0.5,0.5s-0.2,0.5-0.5,0.5
				S3.9,14.1,3.9,13.8z M4.6,13.8c0-0.2-0.1-0.4-0.3-0.4c-0.2,0-0.3,0.2-0.3,0.4s0.1,0.4,0.3,0.4C4.5,14.1,4.6,14,4.6,13.8z M5,13.8
				c0-0.3,0.2-0.5,0.5-0.5s0.5,0.2,0.5,0.5s-0.2,0.5-0.5,0.5S5,14.1,5,13.8z M5.7,13.8c0-0.2-0.1-0.4-0.3-0.4
				c-0.2,0-0.3,0.2-0.3,0.4s0.1,0.4,0.3,0.4C5.6,14.1,5.7,14,5.7,13.8z M6.5,13.1h0.2L6,14.5H5.8L6.5,13.1z M6.7,13.8
				c0-0.3,0.2-0.5,0.5-0.5s0.5,0.2,0.5,0.5s-0.2,0.5-0.5,0.5S6.7,14.1,6.7,13.8z M7.4,13.8c0-0.2-0.1-0.4-0.3-0.4
				c-0.2,0-0.3,0.2-0.3,0.4s0.1,0.4,0.3,0.4C7.3,14.1,7.4,14,7.4,13.8z M7.8,13.8c0-0.3,0.2-0.5,0.5-0.5c0.3,0,0.5,0.2,0.5,0.5
				s-0.2,0.5-0.5,0.5C7.9,14.3,7.8,14.1,7.8,13.8z M8.5,13.8c0-0.2-0.1-0.4-0.3-0.4c-0.2,0-0.3,0.2-0.3,0.4s0.1,0.4,0.3,0.4
				C8.4,14.1,8.5,14,8.5,13.8z M1.2,13.2L1.2,13.2l0.3,0.4l0.2-0.4h0.1l-0.2,0.5H1.4L1.2,13.2z M1.8,13.2L1.8,13.2l0.3,0.5H2l0-0.1
				H1.8l0,0.1H1.6L1.8,13.2z M2,13.6l-0.1-0.2l-0.1,0.2H2z M2.2,13.2L2.2,13.2l0.1,0.4h0.3v0.1H2.2V13.2z M2.6,13.2L2.6,13.2
				l0.1,0.5H2.6L2.6,13.2L2.6,13.2z M2.8,13.2H3c0.2,0,0.3,0.1,0.3,0.3c0,0.1-0.1,0.3-0.3,0.3H2.8V13.2z M2.9,13.3v0.4H3
				c0.1,0,0.2-0.1,0.2-0.2S3.1,13.3,2.9,13.3L2.9,13.3L2.9,13.3z M1.4,13.9H1.2v-0.1h0.4v0.1H1.4l0.1,0.4H1.4V13.9z M1.7,13.9
				L1.7,13.9l0.1,0.2H2v-0.2h0.1v0.5H2v-0.2H1.8v0.2H1.7V13.9z M2.2,13.9h0.2c0.1,0,0.1,0,0.1,0c0,0,0,0.1,0,0.1
				c0,0.1,0,0.1-0.1,0.2l0.1,0.2H2.5l-0.1-0.2H2.3v0.2H2.2L2.2,13.9L2.2,13.9z M2.4,14.1c0.1,0,0.1,0,0.1-0.1s0-0.1-0.1-0.1H2.3v0.2
				L2.4,14.1L2.4,14.1z M2.6,14.2v-0.3h0.1L2.6,14.2c0.1,0.1,0.1,0.1,0.2,0.1c0.1,0,0.1,0,0.1-0.1v-0.3h0.1v0.3
				c0,0.2-0.1,0.2-0.2,0.2C2.7,14.4,2.6,14.3,2.6,14.2z"/>
			<g id="payment-card-jcp-gold-mc-logo" transform="translate(24.964706, 13.564706)">
				<path id="payment-card-jcp-gold-Shape" style="fill:#FFFFFF;" d="M3.7,3.4c-0.4,0-0.7-0.1-1-0.3c-0.3,0.2-0.6,0.3-1,0.3c-0.9,0-1.7-0.8-1.7-1.7
					s0.8-1.7,1.7-1.7c0.4,0,0.7,0.1,1,0.3c0.3-0.2,0.6-0.3,1-0.3c0.9,0,1.7,0.8,1.7,1.7C5.4,2.7,4.7,3.4,3.7,3.4"/>
				<rect id="payment-card-jcp-gold-Rectangle-path" x="2.1" y="0.5" style="fill:#F26522;" width="1.4" height="2.4"/>
				<path id="payment-card-jcp-gold-Shape_1_" style="fill:#E51B24;" d="M2.2,1.8c0-0.5,0.2-0.9,0.6-1.2c-0.3-0.2-0.6-0.3-1-0.3c-0.9,0-1.6,0.7-1.6,1.6
					s0.7,1.6,1.6,1.6c0.4,0,0.7-0.1,1-0.3C2.4,2.7,2.2,2.2,2.2,1.8"/>
				<path id="payment-card-jcp-gold-Shape_2_" style="fill:#F99F1C;" d="M5.3,1.8c0,0.9-0.7,1.6-1.6,1.6C3.4,3.3,3,3.2,2.8,3c0.4-0.3,0.6-0.7,0.6-1.2
					S3.1,0.8,2.8,0.5c0.3-0.2,0.6-0.3,1-0.3C4.6,0.2,5.3,0.9,5.3,1.8"/>
				<path id="payment-card-jcp-gold-Shape_3_" style="fill:#FFFFFF;" d="M1.2,4.1V3.8c0-0.1-0.1-0.2-0.2-0.2c-0.1,0-0.1,0-0.1,0.1c0,0-0.1-0.1-0.1-0.1
					c0,0-0.1,0-0.1,0.1V3.6H0.5v0.4h0.1V3.8c0-0.1,0-0.1,0.1-0.1s0.1,0,0.1,0.1v0.2h0.1V3.8c0-0.1,0-0.1,0.1-0.1
					c0.1,0,0.1,0,0.1,0.1L1.2,4.1L1.2,4.1L1.2,4.1z M2.5,3.7H2.4V3.5H2.3v0.1H2.2v0.1h0.1v0.2c0,0.1,0,0.2,0.1,0.2c0,0,0.1,0,0.1,0
					l0-0.1c0,0-0.1,0-0.1,0c0,0-0.1,0-0.1-0.1V3.8L2.5,3.7L2.5,3.7L2.5,3.7z M3.3,3.7c-0.1,0-0.1,0-0.1,0.1V3.7H3.1v0.4h0.1V3.8
					C3.2,3.8,3.2,3.7,3.3,3.7C3.3,3.7,3.3,3.7,3.3,3.7L3.3,3.7C3.3,3.7,3.3,3.7,3.3,3.7L3.3,3.7z M2.1,3.7c0,0-0.1,0-0.2,0
					c-0.1,0-0.2,0.1-0.2,0.1c0,0.1,0.1,0.1,0.1,0.1h0c0.1,0,0.1,0,0.1,0S2,4,1.9,4C1.9,4,1.8,4,1.8,4l0,0.1c0.1,0,0.1,0.1,0.2,0.1
					c0.1,0,0.2-0.1,0.2-0.1c0-0.1-0.1-0.1-0.1-0.1h0c0,0-0.1,0-0.1,0s0,0,0.1,0S2.1,3.8,2.1,3.7L2.1,3.7z M4.5,3.7
					c-0.1,0-0.1,0-0.1,0.1V3.7H4.3v0.4h0.1V3.8C4.4,3.8,4.5,3.7,4.5,3.7C4.5,3.7,4.6,3.7,4.5,3.7L4.5,3.7C4.6,3.7,4.6,3.7,4.5,3.7
					L4.5,3.7z M3.4,3.9c0,0.1,0.1,0.2,0.2,0.2c0.1,0,0.1,0,0.2-0.1l0-0.1c0,0-0.1,0-0.1,0C3.5,4,3.5,4,3.4,3.9
					c0.1-0.1,0.2-0.1,0.2-0.1c0,0,0.1,0,0.1,0l0-0.1c0,0-0.1-0.1-0.2-0.1C3.5,3.7,3.4,3.8,3.4,3.9L3.4,3.9z M4.2,3.9V3.7H4.2v0.1
					c0,0-0.1-0.1-0.1-0.1c-0.1,0-0.2,0.1-0.2,0.2S3.9,4.1,4,4.1c0.1,0,0.1,0,0.1-0.1v0.1h0.1V3.9z M3.9,3.9c0-0.1,0-0.1,0.1-0.1
					c0.1,0,0.1,0.1,0.1,0.1C4.2,3.9,4.1,4,4,4C3.9,4,3.9,3.9,3.9,3.9L3.9,3.9z M2.8,3.7c-0.1,0-0.2,0.1-0.2,0.2
					c0,0.1,0.1,0.2,0.2,0.2c0.1,0,0.1,0,0.2-0.1l0-0.1c0,0-0.1,0-0.1,0C2.7,4,2.7,4,2.7,3.9H3c0,0,0,0,0,0C3,3.7,2.9,3.7,2.8,3.7
					L2.8,3.7z M2.8,3.7c0.1,0,0.1,0,0.1,0.1H2.7C2.7,3.8,2.7,3.7,2.8,3.7L2.8,3.7z M5.1,3.9V3.5H5v0.2c0,0-0.1-0.1-0.1-0.1
					c-0.1,0-0.2,0.1-0.2,0.2s0.1,0.2,0.2,0.2C4.9,4.1,5,4.1,5,4v0.1h0.1V3.9z M4.7,3.9c0-0.1,0-0.1,0.1-0.1C4.9,3.8,5,3.8,5,3.9
					C5,3.9,4.9,4,4.9,4S4.7,3.9,4.7,3.9L4.7,3.9z M1.7,3.9V3.7H1.6v0.1c0,0-0.1-0.1-0.1-0.1c-0.1,0-0.2,0.1-0.2,0.2s0.1,0.2,0.2,0.2
					c0.1,0,0.1,0,0.1-0.1v0.1h0.1V3.9z M1.3,3.9c0-0.1,0-0.1,0.1-0.1c0.1,0,0.1,0.1,0.1,0.1C1.6,3.9,1.5,4,1.5,4
					C1.4,4,1.3,3.9,1.3,3.9L1.3,3.9z M5.2,4L5.2,4C5.2,4,5.3,4,5.2,4C5.3,4,5.3,4,5.2,4L5.2,4L5.2,4C5.3,4.1,5.3,4.1,5.2,4
					C5.3,4.1,5.2,4.1,5.2,4L5.2,4L5.2,4C5.2,4.1,5.2,4.1,5.2,4C5.2,4.1,5.2,4.1,5.2,4L5.2,4L5.2,4C5.2,4,5.2,4,5.2,4
					C5.2,4,5.2,4,5.2,4L5.2,4L5.2,4z M5.2,4.1C5.2,4.1,5.2,4.1,5.2,4.1C5.2,4.1,5.2,4.1,5.2,4.1C5.3,4.1,5.3,4.1,5.2,4.1L5.2,4.1
					L5.2,4.1L5.2,4.1C5.3,4,5.3,4,5.2,4.1L5.2,4.1L5.2,4.1L5.2,4.1C5.2,4,5.2,4,5.2,4.1L5.2,4.1L5.2,4.1L5.2,4.1
					C5.2,4.1,5.2,4.1,5.2,4.1L5.2,4.1L5.2,4.1z M5.2,4C5.2,4,5.2,4,5.2,4C5.2,4,5.2,4.1,5.2,4C5.2,4.1,5.2,4.1,5.2,4
					C5.2,4.1,5.2,4.1,5.2,4L5.2,4L5.2,4L5.2,4L5.2,4L5.2,4L5.2,4L5.2,4L5.2,4L5.2,4z M5.2,4L5.2,4L5.2,4C5.2,4.1,5.2,4.1,5.2,4
					L5.2,4L5.2,4C5.2,4,5.2,4,5.2,4L5.2,4z"/>
				<rect id="payment-card-jcp-gold-Rectangle-path_1_" x="2.1" y="0.5" style="fill:#F26522;" width="1.4" height="2.4"/>
				<path id="payment-card-jcp-gold-Shape_4_" style="fill:#E51B24;" d="M2.2,1.8c0-0.5,0.2-0.9,0.6-1.2c-0.3-0.2-0.6-0.3-1-0.3c-0.9,0-1.6,0.7-1.6,1.6
					s0.7,1.6,1.6,1.6c0.4,0,0.7-0.1,1-0.3C2.4,2.7,2.2,2.2,2.2,1.8"/>
				<path id="payment-card-jcp-gold-Shape_5_" style="fill:#F99F1C;" d="M5.3,1.8c0,0.9-0.7,1.6-1.6,1.6C3.4,3.3,3,3.2,2.8,3c0.4-0.3,0.6-0.7,0.6-1.2
					S3.1,0.8,2.8,0.5c0.3-0.2,0.6-0.3,1-0.3C4.6,0.2,5.3,0.9,5.3,1.8"/>
			</g>
			<path id="payment-card-jcp-gold-GOLD" style="fill:#FFFFFF;" d="M0.5,2.3c0.2,0,0.3-0.1,0.4-0.2V1.7H0.5v0.1h0.2v0.2c-0.1,0-0.1,0.1-0.2,0.1
				C0.3,2.1,0.2,2,0.2,1.8v0c0-0.2,0.1-0.3,0.3-0.3c0.1,0,0.2,0,0.3,0.1l0.1-0.1C0.8,1.3,0.7,1.3,0.5,1.3C0.2,1.3,0,1.5,0,1.8v0
				C0,2.1,0.2,2.3,0.5,2.3z M1.6,2.3c-0.3,0-0.5-0.2-0.5-0.5v0c0-0.3,0.2-0.5,0.5-0.5s0.5,0.2,0.5,0.5v0C2.1,2.1,1.9,2.3,1.6,2.3z
				 M1.6,2.1c0.2,0,0.3-0.2,0.3-0.3v0c0-0.2-0.1-0.3-0.3-0.3S1.3,1.6,1.3,1.8v0C1.3,2,1.4,2.1,1.6,2.1z M2.3,2.3H3V2.1H2.5V1.3H2.3
				V2.3z M3.1,2.3v-1h0.4C3.8,1.3,4,1.5,4,1.8v0c0,0.3-0.2,0.5-0.5,0.5H3.1z M3.5,1.4H3.3v0.7h0.2c0.2,0,0.3-0.1,0.3-0.3v0
				C3.8,1.6,3.7,1.4,3.5,1.4z"/>
			
				<image style="overflow:visible;enable-background:new    ;" width="46" height="43" id="payment-card-jcp-gold-chip" xlink:href="DB4DEE67.png"  transform="matrix(0.1412 0 0 0.139 0.6824 3.8368)">
			</image>
		</g>
	</g>
</g>
</svg>
