<?xml version="1.0" encoding="utf-8"?>
<!-- Generator: Adobe Illustrator 21.0.2, SVG Export Plug-In . SVG Version: 6.00 Build 0)  -->
<svg version="1.1" id="Layer_1" xmlns="http://www.w3.org/2000/svg" xmlns:xlink="http://www.w3.org/1999/xlink" x="0px" y="0px"
	 viewBox="0 0 48 48" style="enable-background:new 0 0 48 48;" xml:space="preserve">
<filter  filterUnits="objectBoundingBox" height="156.2%" id="filter-7" width="156.2%" x="-28.1%" y="-21.9%">
	<feGaussianBlur  in="SourceAlpha" result="shadowBlurInner1" stdDeviation="1"></feGaussianBlur>
	<feOffset  dx="0" dy="1" in="shadowBlurInner1" result="shadowOffsetInner1"></feOffset>
	<feComposite  in="shadowOffsetInner1" in2="SourceAlpha" k2="-1" k3="1" operator="arithmetic" result="shadowInnerInner1">
		</feComposite>
	
		<feColorMatrix  in="shadowInnerInner1" type="matrix" values="0 0 0 0 0.325490196   0 0 0 0 0.376470588   0 0 0 0 0.419607843  0 0 0 0.5 0">
		</feColorMatrix>
</filter>
<filter  filterUnits="objectBoundingBox" height="156.2%" id="filter-6" width="156.2%" x="-28.1%" y="-21.9%">
	<feMorphology  in="SourceAlpha" operator="dilate" radius="1" result="shadowSpreadOuter1"></feMorphology>
	<feOffset  dx="0" dy="1" in="shadowSpreadOuter1" result="shadowOffsetOuter1"></feOffset>
	<feGaussianBlur  in="shadowOffsetOuter1" result="shadowBlurOuter1" stdDeviation="1"></feGaussianBlur>
	<feComposite  in="shadowBlurOuter1" in2="SourceAlpha" operator="out" result="shadowBlurOuter1"></feComposite>
	<feColorMatrix  in="shadowBlurOuter1" type="matrix" values="0 0 0 0 0   0 0 0 0 0   0 0 0 0 0  0 0 0 0.5 0"></feColorMatrix>
</filter>
<filter  filterUnits="objectBoundingBox" height="131.8%" id="filter-3" width="119.4%" x="-9.7%" y="-11.4%">
	<feOffset  dx="0" dy="1" in="SourceAlpha" result="shadowOffsetOuter1"></feOffset>
	<feGaussianBlur  in="shadowOffsetOuter1" result="shadowBlurOuter1" stdDeviation="1"></feGaussianBlur>
	
		<feColorMatrix  in="shadowBlurOuter1" type="matrix" values="0 0 0 0 0.325490196   0 0 0 0 0.376470588   0 0 0 0 0.419607843  0 0 0 1 0">
		</feColorMatrix>
</filter>
<title>card/CVV</title>
<desc>Created with Sketch.</desc>
<g id="Symbols">
	<g id="card_x2F_CVV">
		<g id="Icon" transform="translate(6.000000, 13.000000)">
			<g id="Card">
				<g style="filter:url(#filter-3);">
					<path id="path-2_2_" d="M2,0h32c1.1,0,2,0.9,2,2v18c0,1.1-0.9,2-2,2H2c-1.1,0-2-0.9-2-2V2C0,0.9,0.9,0,2,0z"/>
				</g>
				<g>
					
						<linearGradient id="path-2_2_" gradientUnits="userSpaceOnUse" x1="-151.6333" y1="108.6909" x2="-151.1333" y2="107.6909" gradientTransform="matrix(36 0 0 -22 5466 2389)">
						<stop  offset="0" style="stop-color:#F1F3F4"/>
						<stop  offset="0.2238" style="stop-color:#F1F3F4"/>
						<stop  offset="1" style="stop-color:#E3E6EA"/>
					</linearGradient>
					<path id="path-2_1_" style="fill:url(#path-2_2_);" d="M2,0h32c1.1,0,2,0.9,2,2v18c0,1.1-0.9,2-2,2H2c-1.1,0-2-0.9-2-2V2
						C0,0.9,0.9,0,2,0z"/>
				</g>
			</g>
			<rect id="Mag-Strip" y="3" style="fill:#9BA5AE;" width="36" height="5"/>
			<rect id="Mag-Strip_1_" x="5" y="13" style="fill:#FFFFFF;" width="19" height="4"/>
			<g id="CVV" transform="translate(21.000000, 3.000000)">
				<g id="Mask">
					<g style="filter:url(#filter-6);">
						<circle id="path-4_5_" cx="8" cy="8" r="8"/>
					</g>
					<g>
						<circle id="path-4_2_" style="fill:#E3E6EA;" cx="8" cy="8" r="8"/>
					</g>
					<g style="filter:url(#filter-7);">
						<circle id="path-4_5_" cx="8" cy="8" r="8"/>
					</g>
					<g>
						<circle id="path-4_4_" style="fill:none;stroke:#FFFFFF;stroke-width:2;" cx="8" cy="8" r="8"/>
					</g>
				</g>
				<defs>
					<filter id="Adobe_OpacityMaskFilter" filterUnits="userSpaceOnUse" x="4" y="7" width="8" height="2">
						<feColorMatrix  type="matrix" values="1 0 0 0 0  0 1 0 0 0  0 0 1 0 0  0 0 0 1 0"/>
					</filter>
				</defs>
				<mask maskUnits="userSpaceOnUse" x="4" y="7" width="8" height="2" id="mask-5">
					<g style="filter:url(#Adobe_OpacityMaskFilter);">
						<circle id="path-4" style="fill:#FFFFFF;" cx="8" cy="8" r="8"/>
					</g>
				</mask>
				<path id="Combined-Shape" style="mask:url(#mask-5);fill:#1C2024;" d="M8,9C7.4,9,7,8.6,7,8s0.4-1,1-1s1,0.4,1,1S8.6,9,8,9z
					 M11,9c-0.6,0-1-0.4-1-1s0.4-1,1-1s1,0.4,1,1S11.6,9,11,9z M5,9C4.4,9,4,8.6,4,8s0.4-1,1-1s1,0.4,1,1S5.6,9,5,9z"/>
			</g>
		</g>
	</g>
</g>
</svg>
