<?xml version="1.0" encoding="utf-8"?>
<!-- Generator: Adobe Illustrator 21.0.2, SVG Export Plug-In . SVG Version: 6.00 Build 0)  -->
<svg version="1.1" id="payment-card-amex-Layer_1" xmlns="http://www.w3.org/2000/svg" xmlns:xlink="http://www.w3.org/1999/xlink" x="0px" y="0px"
	 viewBox="0 0 48 48" style="enable-background:new 0 0 48 48;" xml:space="preserve">
<title>card/american-express</title>
<desc>Created with Sketch.</desc>
<g id="payment-card-amex-Symbols">
	<g id="payment-card-amex-card_x2F_american-express">
		<g id="payment-card-amex-Icon" transform="translate(6.000000, 13.000000)">
			<g id="payment-card-amex-Card">
				<g>
					<path d="M2,0h32c1.1,0,2,0.9,2,2v18c0,1.1-0.9,2-2,2H2c-1.1,0-2-0.9-2-2V2C0,0.9,0.9,0,2,0z"/>
				</g>
				<g>
					
						<linearGradient id="payment-card-amex-path-2_2_" gradientUnits="userSpaceOnUse" x1="-265.7167" y1="180.5091" x2="-265.2167" y2="179.5091" gradientTransform="matrix(36 0 0 -22 9573 3969)">
						<stop  offset="0" style="stop-color:#62B1DE"/>
						<stop  offset="1" style="stop-color:#3379BA"/>
					</linearGradient>
					<path id="payment-card-amex-path-2_1_" style="fill:url(#payment-card-amex-path-2_2_);" d="M2,0h32c1.1,0,2,0.9,2,2v18c0,1.1-0.9,2-2,2H2c-1.1,0-2-0.9-2-2V2
						C0,0.9,0.9,0,2,0z"/>
				</g>
			</g>
			<path id="payment-card-amex-Shape" style="fill:#FFFFFF;" d="M14,13.8l1.5-1.6v3.3L14,13.8L14,13.8z M9.3,12.6v0.7h2.1v0.8H9.3V15h2.4l1.1-1.2
				l-1.1-1.2H9.3L9.3,12.6L9.3,12.6z M35.4,13.2c0.3,0.3,0.5,0.8,0.5,1.3c0,1.2-0.8,2-2.2,2h-1.9c-0.3,0-0.5-0.2-0.6-0.4
				c-0.4,0.3-0.8,0.4-1.4,0.4h-1.9c-0.1,0-0.2,0-0.3-0.1c-0.1,0-0.2,0.1-0.3,0.1h-3.2c-0.1,0-0.2,0-0.3-0.1c-0.1,0-0.2,0.1-0.3,0.1
				h-1c-0.4,0-0.7-0.3-0.7-0.7v-0.6c0-0.1,0-0.1,0-0.2c0,0-0.1,0-0.2,0h-0.4v0.8c0,0.4-0.3,0.7-0.7,0.7h-1c-0.4,0-0.7-0.3-0.7-0.7
				v-1c-0.3,0.2-0.8,0.3-1.5,0.3h-0.5v0.7c0,0.4-0.3,0.7-0.7,0.7h-1.9c-0.2,0-0.4-0.1-0.5-0.2L13,15.5l-0.7,0.8
				c-0.1,0.1-0.3,0.2-0.5,0.2H8.3c-0.4,0-0.7-0.3-0.7-0.7v-4.1c0-0.4,0.3-0.7,0.7-0.7h3.9c0.2,0,0.4,0.1,0.5,0.2l0.7,0.8l0.7-0.8
				c0.1-0.1,0.3-0.2,0.5-0.2h3.1c0.7,0,1.1,0.2,1.5,0.4c0.1-0.2,0.3-0.4,0.6-0.4H22c0.5,0,1,0,1.5,0.3l0.1,0.1
				c0.1-0.2,0.3-0.4,0.6-0.4h3.2c0.2,0,0.5,0.1,0.6,0.4c0.3-0.2,0.7-0.4,1.3-0.4h1.9c0.3,0,0.5,0.2,0.6,0.5c0.3-0.3,0.8-0.5,1.4-0.5
				h1.9c0.4,0,0.7,0.3,0.7,0.7v0.9C35.7,12.9,35.6,13.1,35.4,13.2L35.4,13.2L35.4,13.2z M19.3,13.1c0-1.1-0.9-1.3-1.6-1.3h-3.1
				l-1.2,1.3l-1.2-1.3H8.3v4.1h3.8l1.2-1.4l1.2,1.4h1.9v-1.4h1.2C18.5,14.5,19.3,14.2,19.3,13.1L19.3,13.1z M22.9,14
				c0.3-0.1,0.7-0.4,0.7-1.1c0-0.5-0.2-0.7-0.5-0.9s-0.7-0.2-1.2-0.2h-2.2v4.1h1v-1.5h1c0.4,0,0.6,0,0.7,0.2
				c0.2,0.2,0.2,0.6,0.2,0.8v0.5h1V15c0-0.4,0-0.5-0.2-0.7C23.3,14.2,23.2,14,22.9,14L22.9,14z M27.4,11.8h-3.2v4.1h3.2V15h-2.3
				v-0.8h2.2v-0.8h-2.2v-0.7h2.3V11.8L27.4,11.8z M31.3,14.6c0-0.4-0.1-0.7-0.3-0.9c-0.2-0.2-0.6-0.3-1.1-0.3h-0.5
				c-0.2,0-0.3,0-0.4,0s-0.2-0.2-0.2-0.3s0-0.2,0.1-0.3s0.2-0.1,0.4-0.1h1.8v-0.9h-1.9c-1,0-1.4,0.6-1.4,1.2c0,1.3,1.1,1.2,2,1.3
				c0.2,0,0.3,0,0.3,0.1c0.1,0.1,0.1,0.2,0.1,0.3s0,0.2-0.1,0.3c0-0.1-0.1,0-0.3,0h-1.9v0.9h1.9C30.8,15.9,31.3,15.4,31.3,14.6
				L31.3,14.6z M35.3,14.6c0-0.4-0.1-0.7-0.3-0.9s-0.6-0.3-1.1-0.3h-0.5c-0.2,0-0.3,0-0.4,0c-0.1,0-0.2-0.2-0.2-0.3s0-0.2,0.1-0.3
				s0.2-0.1,0.4-0.1h1.8v-0.9h-1.9c-1,0-1.4,0.6-1.4,1.2c0,1.3,1.1,1.2,2,1.3c0.2,0,0.3,0,0.3,0.1c0.1,0.1,0.1,0.2,0.1,0.3
				s0,0.2-0.1,0.3s-0.2,0.1-0.4,0.1h-1.9V16h1.9C34.7,15.9,35.3,15.4,35.3,14.6L35.3,14.6z M17.7,12.6h-1.3v1h1.2
				c0.4,0,0.6-0.2,0.6-0.5C18.3,12.8,18,12.6,17.7,12.6L17.7,12.6z M18.2,6.4c0.1-0.1,0.2-0.2,0.2-0.4c0-0.2-0.1-0.3-0.2-0.4
				s-0.3-0.1-0.5-0.1h-1.2v0.9h1.2C18,6.5,18.1,6.5,18.2,6.4L18.2,6.4z M22.4,12.7c-0.1-0.1-0.3-0.1-0.5-0.1h-1.2v0.9h1.2
				c0.2,0,0.3,0,0.5-0.1c0.1-0.1,0.2-0.2,0.2-0.4C22.6,12.9,22.5,12.8,22.4,12.7L22.4,12.7z M25.9,5.4L25.2,7h1.3L25.9,5.4L25.9,5.4
				z M2.4,7.1h1.3L3.1,5.4L2.4,7.1L2.4,7.1z M7.8,9.5c-0.3,0-0.5-0.2-0.6-0.4L7.1,8.8l0,0c0,0.4-0.3,0.7-0.7,0.7h-2
				c-0.3,0-0.5-0.2-0.6-0.4L3.6,8.6H2.5L2.3,9.1C2.2,9.3,2,9.5,1.7,9.5h-1c-0.2,0-0.4-0.1-0.6-0.3C0,9,0,8.8,0.1,8.6l1.7-4.1
				c0.1-0.2,0.3-0.4,0.6-0.4h1.4c0.3,0,0.5,0.2,0.6,0.4l0.4,0.9V4.7C4.8,4.3,5.1,4,5.5,4H7c0.3,0,0.5,0.2,0.6,0.4l0.6,1.4l0.6-1.4
				C8.9,4.2,9.1,4,9.4,4H11c0.1,0,0.3,0.1,0.4,0.1C11.5,4,11.6,4,11.8,4H15c0.1,0,0.2,0,0.3,0.1C15.4,4,15.5,4,15.6,4h2.2
				c0.6,0,1,0,1.5,0.3l0.1,0.1C19.5,4.2,19.7,4,20,4h1c0.3,0,0.6,0.3,0.6,0.6C22,4.2,22.6,4,23.4,4h0.9c0.1,0,0.3,0,0.4,0.1
				C24.8,4,25,4,25.1,4h1.4c0.3,0,0.5,0.2,0.6,0.4l0.4,0.8V4.7c0-0.4,0.3-0.7,0.7-0.7h1.5c0.2,0,0.4,0.1,0.6,0.3l0.5,0.8V4.7
				c0-0.4,0.3-0.7,0.7-0.7h1c0.4,0,0.7,0.3,0.7,0.7v4.1c0,0.4-0.3,0.7-0.7,0.7h-1.4c-0.2,0-0.4-0.1-0.6-0.3l-0.6-1v0.6
				c0,0.4-0.3,0.7-0.7,0.7h-2c-0.3,0-0.5-0.2-0.6-0.4l-0.2-0.5h-1.1l-0.2,0.5c-0.1,0.3-0.3,0.4-0.6,0.4h-1.1c-0.4,0-1.2-0.1-1.7-0.5
				c-0.1,0.3-0.3,0.5-0.6,0.5h-1c-0.1,0-0.2,0-0.3-0.1c-0.1,0-0.2,0.1-0.3,0.1h-1c-0.4,0-0.7-0.3-0.7-0.7V8.3V8.2c0-0.1,0-0.1,0-0.2
				c0,0-0.1,0-0.2,0h-0.4v0.8c0,0.4-0.3,0.7-0.7,0.7h-1c-0.1,0-0.2,0-0.3-0.1c-0.1,0.1-0.2,0.1-0.3,0.1h-3.2c-0.1,0-0.3-0.1-0.4-0.1
				c-0.1,0.1-0.2,0.1-0.4,0.1h-1c-0.4,0-0.7-0.3-0.7-0.7l0,0l0.1,0.3C9.2,9.3,8.9,9.5,8.7,9.5H7.8L7.8,9.5L7.8,9.5z M21.5,6.8
				c0,0.7,0.2,1.2,0.5,1.6c0.3,0.3,0.9,0.5,1.4,0.5h1.1L24.9,8h2l0.4,0.9h2V5.7l1.8,3.1h1.4V4.7h-1v2.8l-1.7-2.8h-1.5v3.9l-1.6-3.9
				h-1.4l-1.4,3.2h-0.4c-0.3,0-0.5,0-0.7-0.2s-0.3-0.5-0.3-1c0-0.4,0.1-0.8,0.3-0.9c0.2-0.2,0.4-0.2,0.7-0.2h0.9V4.7h-0.9
				c-0.7,0-1.2,0.2-1.5,0.5C21.6,5.6,21.5,6.2,21.5,6.8L21.5,6.8z M23.5,6.3c-0.2,0-0.2,0-0.3,0.1c0,0-0.1,0.2-0.1,0.4
				c0,0.3,0,0.4,0.1,0.5c0,0,0.1,0,0.2,0l0.4-1H23.5L23.5,6.3L23.5,6.3z M20.1,8.8h1V4.7h-1V8.8L20.1,8.8z M15.6,8.8h1V7.3h1
				c0.3,0,0.6,0,0.7,0.2c0.2,0.2,0.2,0.6,0.2,0.8v0.5h1V8c0-0.4,0-0.5-0.2-0.7C19.2,7.1,19,7,18.8,6.9c0.2-0.1,0.7-0.4,0.7-1.1
				c0-0.5-0.2-0.7-0.5-0.9c-0.3-0.2-0.7-0.2-1.2-0.2h-2.2L15.6,8.8L15.6,8.8z M11.8,8.8H15V8h-2.3V7.2h2.2V6.3h-2.2V5.6H15V4.7h-3.2
				V8.8L11.8,8.8z M7.8,8.8h0.8L10,5.6v3.2h1V4.7H9.4L8.3,7.5L7,4.7H5.5v3.9L3.8,4.7H2.4L0.7,8.8h1l0.4-0.9h2l0.4,0.9h2V5.6L7.8,8.8
				L7.8,8.8z"/>
		</g>
	</g>
</g>
</svg>
