<?xml version="1.0" encoding="utf-8"?>
<!-- Generator: Adobe Illustrator 21.0.2, SVG Export Plug-In . SVG Version: 6.00 Build 0)  -->
<svg version="1.1" id="payment-card-paypal-Layer_1" xmlns="http://www.w3.org/2000/svg" xmlns:xlink="http://www.w3.org/1999/xlink" x="0px" y="0px"
	 viewBox="0 0 48 48" style="enable-background:new 0 0 48 48;" xml:space="preserve">
<title>card/paypal</title>
<desc>Created with Sketch.</desc>
<g id="payment-card-paypal-Symbols">
	<g id="payment-card-paypal-card_x2F_paypal">
		<g id="payment-card-paypal-Icon" transform="translate(6.000000, 13.000000)">
			<g id="payment-card-paypal-Card">
				<g>
					<path id="payment-card-paypal-path-2_2_" d="M2,0h32c1.1,0,2,0.9,2,2v18c0,1.1-0.9,2-2,2H2c-1.1,0-2-0.9-2-2V2C0,0.9,0.9,0,2,0z"/>
				</g>
				<g>
					<path id="payment-card-paypal-path-2_1_" style="fill:none;" d="M2,0h32c1.1,0,2,0.9,2,2v18c0,1.1-0.9,2-2,2H2c-1.1,0-2-0.9-2-2V2C0,0.9,0.9,0,2,0z
						"/>
				</g>
			</g>
			<g id="payment-card-paypal-PayPal_2014_logo" transform="translate(3.000000, 7.000000)">
				<g id="payment-card-paypal-svg14712">
					<path id="payment-card-paypal-path14499" style="fill:#003087;" d="M5.5,0.6C5.1,0.2,4.5,0,3.7,0H1.3C1.1,0,1,0.1,1,0.3L0,6.7C0,6.9,0.1,7,0.2,7
						h1.5L2,4.6v0.1c0-0.2,0.2-0.3,0.3-0.3H3c1.4,0,2.4-0.6,2.7-2.2V2.1l0,0C5.9,1.4,5.8,1,5.5,0.6"/>
					<path id="payment-card-paypal-path14519" style="fill:#002F86;" d="M20.5,3.6h-0.8c-0.1,0-0.1,0-0.2,0.1l-1.1,1.6L18,3.8c0-0.1-0.1-0.2-0.2-0.2H17
						c-0.1,0-0.2,0.1-0.1,0.2l0.9,2.6L17,7.6c-0.1,0.1,0,0.2,0.1,0.2h0.8c0.1,0,0.1,0,0.2-0.1l2.6-3.9C20.7,3.8,20.6,3.6,20.5,3.6
						 M15.2,5.2c0,0.5-0.4,0.8-0.8,0.8c-0.2,0-0.4-0.1-0.5-0.2s-0.2-0.3-0.1-0.6c0.1-0.5,0.4-0.8,0.9-0.8c0.2,0,0.4,0.1,0.5,0.2
						C15.2,4.8,15.3,5,15.2,5.2 M16.3,3.6h-0.8c-0.1,0-0.1,0.1-0.1,0.1v0.2l-0.1-0.1c-0.2-0.3-0.5-0.3-0.9-0.3
						c-0.9,0-1.6,0.7-1.7,1.6c-0.1,0.5,0,0.9,0.3,1.2c0.2,0.3,0.6,0.4,1,0.4c0.7,0,1.1-0.5,1.1-0.5v0.2c0,0.1,0.1,0.2,0.1,0.2h0.7
						c0.1,0,0.2-0.1,0.2-0.2l0.4-2.8C16.5,3.7,16.4,3.6,16.3,3.6 M11.7,3.7c-0.1,0.6-0.5,0.6-1,0.6h-0.2l0.2-1.1
						c0-0.1,0.1-0.1,0.1-0.1h0.1c0.3,0,0.6,0,0.7,0.2C11.7,3.3,11.7,3.4,11.7,3.7 M11.5,2.1H9.9c-0.1,0-0.2,0.1-0.2,0.2L9,6.6
						c0,0.1,0,0.2,0.1,0.2h0.8c0.1,0,0.2-0.1,0.2-0.2l0.2-1.2c0-0.1,0.1-0.2,0.2-0.2H11c1.1,0,1.7-0.5,1.8-1.6
						c0.1-0.5,0-0.8-0.2-1.1C12.4,2.2,12,2.1,11.5,2.1"/>
					<path id="payment-card-paypal-path14523" style="fill:#009CDE;" d="M28.8,2.2l-0.7,4.4c0,0.1,0.1,0.2,0.1,0.2H29c0.1,0,0.2-0.1,0.2-0.2l0.7-4.3
						c0-0.1-0.1-0.2-0.1-0.2H29C28.9,2.1,28.9,2.1,28.8,2.2 M26.8,5.2C26.8,5.7,26.4,6,26,6c-0.2,0-0.4-0.1-0.5-0.2
						s-0.2-0.3-0.1-0.6c0.1-0.5,0.4-0.8,0.9-0.8c0.2,0,0.4,0.1,0.5,0.2C26.8,4.8,26.9,5,26.8,5.2 M27.9,3.6h-0.8
						C27,3.6,27,3.7,27,3.7V4l-0.1-0.1c-0.2-0.3-0.5-0.3-0.9-0.3c-0.9,0-1.6,0.7-1.7,1.6c-0.1,0.5,0,0.9,0.3,1.2
						c0.2,0.3,0.6,0.4,1,0.4c0.7,0,1.1-0.5,1.1-0.5v0.2c0,0.1,0.1,0.2,0.1,0.2h0.7c0.1,0,0.2-0.1,0.2-0.2l0.4-2.8
						C28.1,3.7,28,3.6,27.9,3.6 M23.3,3.7c-0.1,0.6-0.5,0.6-1,0.6H22l0.2-1.1c0-0.1,0.1-0.1,0.1-0.1h0.1c0.3,0,0.6,0,0.7,0.2
						C23.3,3.3,23.3,3.4,23.3,3.7 M23.1,2.1h-1.6c-0.1,0-0.2,0.1-0.2,0.2l-0.7,4.3c0,0.1,0.1,0.2,0.1,0.2h0.8c0.1,0,0.1-0.1,0.2-0.1
						l0.2-1.2c0-0.1,0.1-0.2,0.2-0.2h0.5c1.1,0,1.7-0.5,1.8-1.6c0.1-0.5,0-0.8-0.2-1.1C24,2.2,23.6,2.1,23.1,2.1"/>
					<path id="payment-card-paypal-path14527" style="fill:#003087;" d="M5.5,0.6C5.1,0.2,4.5,0,3.7,0H1.3C1.1,0,1,0.1,1,0.3L0,6.7C0,6.9,0.1,7,0.2,7
						h1.5L2,4.6v0.1c0-0.2,0.2-0.3,0.3-0.3H3c1.4,0,2.4-0.6,2.7-2.2V2.1l0,0C5.9,1.4,5.8,1,5.5,0.6"/>
					<path id="payment-card-paypal-path14531" style="fill:#002F86;" d="M2.4,2c0-0.1,0.1-0.2,0.2-0.2h0.1h1.8c0.2,0,0.4,0,0.6,0c0.1,0,0.1,0,0.2,0
						s0.1,0,0.1,0s0,0,0.1,0C5.6,1.9,5.7,2,5.8,2c0.1-0.6,0-1-0.3-1.4C5.1,0.2,4.5,0,3.7,0H1.3C1.1,0,1,0.1,1,0.3L0,6.7
						C0,6.9,0.1,7,0.2,7h1.5L2,4.6L2.4,2L2.4,2z"/>
					<path id="payment-card-paypal-path14535" style="fill:#009CDE;" d="M5.8,2L5.8,2L5.8,2C5.4,3.8,4.4,4.4,3,4.4H2.3C2.2,4.4,2,4.5,2,4.7L1.7,7
						L1.6,7.6c0,0.1,0.1,0.2,0.2,0.2H3c0.1,0,0.3-0.1,0.3-0.3V7.4L3.5,6V5.9c0-0.1,0.1-0.3,0.3-0.3H4c1.2,0,2.1-0.5,2.4-1.9
						c0.1-0.6,0.1-1.1-0.2-1.5C6,2.2,5.9,2.1,5.8,2"/>
					<path id="payment-card-paypal-path14539" style="fill:#012069;" d="M5.5,1.9L5.5,1.9c-0.2,0-0.2,0-0.3,0c-0.2,0-0.4,0-0.6,0H2.7H2.6
						C2.5,1.8,2.4,1.9,2.4,2L2,4.6v0.1c0-0.2,0.2-0.3,0.3-0.3H3c1.4,0,2.4-0.6,2.7-2.2V2.1C5.7,2,5.6,1.9,5.5,1.9L5.5,1.9"/>
				</g>
			</g>
		</g>
	</g>
</g>
</svg>
