<?xml version="1.0" encoding="utf-8"?>
<!-- Generator: Adobe Illustrator 21.0.2, SVG Export Plug-In . SVG Version: 6.00 Build 0)  -->
<svg version="1.1" id="payment-card-jcvv-Layer_1" xmlns="http://www.w3.org/2000/svg" xmlns:xlink="http://www.w3.org/1999/xlink" x="0px" y="0px"
	 viewBox="0 0 48 48" style="enable-background:new 0 0 48 48;" xml:space="preserve">
<g>
	<circle id="payment-card-jcvv-path-4" style="fill:#FFFFFF;" cx="35" cy="24" r="8"/>
</g>
<title>card/CVV</title>
<desc>Created with Sketch.</desc>
<g id="payment-card-jcvv-Symbols">
	<g id="payment-card-jcvv-card_x2F_CVV">
		<g id="payment-card-jcvv-Icon" transform="translate(6.000000, 13.000000)">
			<g id="payment-card-jcvv-Card">
				<g>
					<path id="payment-card-jcvv-path-2_3_" d="M2,0h32c1.1,0,2,0.9,2,2v18c0,1.1-0.9,2-2,2H2c-1.1,0-2-0.9-2-2V2C0,0.9,0.9,0,2,0z"/>
				</g>
				<g>
					<path id="payment-card-jcvv-path-2_1_" style="fill:none;" d="M2,0h32c1.1,0,2,0.9,2,2v18c0,1.1-0.9,2-2,2H2c-1.1,0-2-0.9-2-2V2C0,0.9,0.9,0,2,0z
						"/>
				</g>
			</g>
			<rect id="payment-card-jcvv-Mag-Strip" y="3" style="fill:#9BA5AE;" width="36" height="5"/>
			<rect id="payment-card-jcvv-Mag-Strip_1_" x="5" y="13" style="fill:#FFFFFF;" width="19" height="4"/>
			<g id="payment-card-jcvv-CVV" transform="translate(21.000000, 3.000000)">
				<g id="payment-card-jcvv-Mask">
					<g>
						<circle id="payment-card-jcvv-path-4_3_" cx="8" cy="8" r="8"/>
					</g>
					<g>
						<circle id="payment-card-jcvv-path-4_2_" style="fill:#E3E6EA;" cx="8" cy="8" r="8"/>
					</g>
					<g>
						<circle id="payment-card-jcvv-path-4_1_" cx="8" cy="8" r="8"/>
					</g>
					<g>
						<circle id="payment-card-jcvv-path-4_4_" style="fill:none;stroke:#FFFFFF;stroke-width:2;" cx="8" cy="8" r="8"/>
					</g>
				</g>
				<path id="payment-card-jcvv-Combined-Shape" style="fill:#1C2024;" d="M8,9C7.4,9,7,8.6,7,8s0.4-1,1-1s1,0.4,1,1S8.6,9,8,9z M11,9
					c-0.6,0-1-0.4-1-1s0.4-1,1-1s1,0.4,1,1S11.6,9,11,9z M5,9C4.4,9,4,8.6,4,8s0.4-1,1-1s1,0.4,1,1S5.6,9,5,9z"/>
			</g>
		</g>
	</g>
</g>
</svg>
