<svg xmlns="http://www.w3.org/2000/svg" xmlns:xlink="http://www.w3.org/1999/xlink" width="32" height="32" viewBox="0 0 32 32" ria-labaria-lelledby="title-004">
  <defs>
    <path id="haul-away-a" d="M23.892338,12.273632 C24.1172639,12.6765493 23.978288,13.3735814 23.5823314,13.6100763 L17.266476,16.9518202 C17.4714086,17.3981107 17.5862621,17.8917846 17.5862621,18.4119468 C17.5862621,20.3935019 15.9326761,22 13.8929128,22 C11.8531496,22 10.1995636,20.3935019 10.1995636,18.4119468 C10.1995636,17.1945415 10.8242493,16.1192864 11.7787176,15.470693 L4.62466002,2.4607287 L0.463530045,1.23941871 C0.118860916,1.13832004 -0.0760749025,0.784896798 0.0280212593,0.450152541 C0.132117421,0.115302754 0.496236667,-0.0738087555 0.840688476,0.0271843887 L5.26075494,1.32447668 C5.42656991,1.37312646 5.56565455,1.48393398 5.64725812,1.63231054 L9.85663307,9.28699989 L18.457171,4.69291991 C18.5519224,4.6363553 18.6674278,4.61071128 18.791952,4.61071128 C19.1879086,4.61071128 19.6742702,4.87021195 19.8697494,5.22057479 L23.892338,12.273632 Z M13.8928042,20.7336283 C15.2103052,20.7336283 16.2822349,19.6921431 16.2822349,18.4119468 C16.2822349,17.1317505 15.2103052,16.0902653 13.8928042,16.0902653 C12.5753032,16.0902653 11.5033735,17.1317505 11.5033735,18.4119468 C11.5033735,19.6921431 12.5753032,20.7336283 13.8928042,20.7336283 Z"/>
  </defs>
  <title id="title-004" lang="en">haul away appliances</title>
  <g fill="none" fill-rule="evenodd" transform="translate(4 5)">
    <use fill="#384048" transform="matrix(-1 0 0 1 24 0)" xlink:href="#haul-away-a"/>
  </g>
</svg>
