<svg xmlns="http://www.w3.org/2000/svg" xmlns:xlink="http://www.w3.org/1999/xlink" width="32" height="32" viewBox="0 0 32 32" aria-labaria-lelledby="title-005">
  <defs>
    <path id="track-order-a" d="M23.9005083,12.273632 C24.108365,12.6765493 23.9799356,13.3735814 23.6140275,13.6100763 L17.7774716,16.9518202 C17.9668521,17.3981107 18.0729896,17.8917846 18.0729896,18.4119468 C18.0729896,20.3935019 16.5448914,22 14.6599223,22 C12.7749532,22 11.246855,20.3935019 11.246855,18.4119468 C11.246855,17.1945415 11.8241343,16.1192864 12.7061697,15.470693 L6.09502122,2.4607287 L2.24967224,1.23941871 C1.93115946,1.13832004 1.75101699,0.784896798 1.84721347,0.450152541 C1.94340995,0.115302754 2.27989682,-0.0738087555 2.59820877,0.0271843887 L6.68284399,1.32447668 C6.83607555,1.37312646 6.9646053,1.48393398 7.04001611,1.63231054 L10.9299488,9.28699989 L18.8778067,4.69291991 C18.9653676,4.6363553 19.0721076,4.61071128 19.1871818,4.61071128 C19.55309,4.61071128 20.0025424,4.87021195 20.183187,5.22057479 L23.9005083,12.273632 Z M14.6598219,20.7336283 C15.87734,20.7336283 16.8679228,19.6921431 16.8679228,18.4119468 C16.8679228,17.1317505 15.87734,16.0902653 14.6598219,16.0902653 C13.4423038,16.0902653 12.451721,17.1317505 12.451721,18.4119468 C12.451721,19.6921431 13.4423038,20.7336283 14.6598219,20.7336283 Z M5.42234874,7.64778724 L1.00413866,7.64778724 C0.671467519,7.64778724 0.401655462,7.36433104 0.401655462,7.01460138 C0.401655462,6.66487173 0.671467519,6.38141553 1.00413866,6.38141553 L5.42234874,6.38141553 C5.75512029,6.38141553 6.02483193,6.66487173 6.02483193,7.01460138 C6.02483193,7.36433104 5.75512029,7.64778724 5.42234874,7.64778724 Z M7.43062605,11.4469024 L0.602483193,11.4469024 C0.269812057,11.4469024 0,11.1633406 0,10.8137165 C0,10.4639869 0.269812057,10.1805307 0.602483193,10.1805307 L7.43062605,10.1805307 C7.76329719,10.1805307 8.03310924,10.4639869 8.03310924,10.8137165 C8.03310924,11.1633406 7.76329719,11.4469024 7.43062605,11.4469024 Z M9.43890336,15.2460175 L5.02069328,15.2460175 C4.68802214,15.2460175 4.41821008,14.9624558 4.41821008,14.6128317 C4.41821008,14.2632075 4.68802214,13.9796458 5.02069328,13.9796458 L9.43890336,13.9796458 C9.77167491,13.9796458 10.0413866,14.2632075 10.0413866,14.6128317 C10.0413866,14.9624558 9.77167491,15.2460175 9.43890336,15.2460175 Z"/>
  </defs>
  <title id="title-005" lang="en">CAM track orders</title>
  <g fill="none" fill-rule="evenodd" transform="translate(4 5)">
    <use fill="#384048" xlink:href="#track-order-a"/>
  </g>
</svg>
