<svg xmlns="http://www.w3.org/2000/svg" xmlns:xlink="http://www.w3.org/1999/xlink" width="32" height="32" viewBox="0 0 32 32" aria-labaria-lelledby="title-006" >
  <defs>
    <path id="truck-a" d="M21.7172887,0 L11.1196318,0 C9.9889205,0 8.83682008,1.08474725 8.83682008,2.14941758 L8.83682008,14.2680659 C8.83682008,15.4527033 9.98389958,16.6153846 11.1526695,16.6153846 L16.2550293,16.6153846 C16.7401506,17.4428901 17.6460251,18 18.6840502,18 C19.7220753,18 20.6279498,17.4428901 21.1130711,16.6153846 L21.8174059,16.6153846 C22.8782259,16.6153846 24,15.4088901 24,14.2682637 L24,2.18195604 C24,1.08079121 22.8690879,0 21.7172887,0 L21.7172887,0 Z M18.6840502,16.8131868 C17.8016736,16.8131868 17.083682,16.1032747 17.083682,15.2307692 C17.083682,14.3582637 17.8013724,13.6483516 18.6840502,13.6483516 C19.5664268,13.6483516 20.2845188,14.3582637 20.2845188,15.2307692 C20.2845188,16.1032747 19.566728,16.8131868 18.6840502,16.8131868 Z M7.46440167,4.54945055 C7.79718828,4.54945055 8.06691213,4.8150989 8.06701255,5.14285714 L8.06701255,15.032967 C8.06701255,15.3605275 7.79718828,15.6263736 7.46450209,15.6263736 L6.88719665,15.6263736 C6.69268619,16.9682637 5.52401674,18 4.11082845,18 C2.69764017,18 1.52897071,16.9682637 1.33446025,15.6263736 L0.60251046,15.6263736 C0.269723849,15.6263736 0,15.3605275 0,15.032967 L0,9.98901099 C0,9.89208791 0.0134560669,9.01691209 0.481104603,8.21116484 C0.500585774,8.17763736 0.523280335,8.14608791 0.548887029,8.11691209 L3.15976569,5.14987912 C3.20425105,5.09934066 3.25717155,5.05651648 3.31611715,5.02328571 C4.09295397,4.58604396 4.49974895,4.54945055 4.82008368,4.54945055 L7.46440167,4.54945055 Z M4.11082845,16.8131868 C4.99330544,16.8131868 5.71119665,16.1032747 5.71119665,15.2307692 C5.71119665,14.3582637 4.99330544,13.6483516 4.11082845,13.6483516 C3.22835146,13.6483516 2.51046025,14.3582637 2.51046025,15.2307692 C2.51046025,16.1032747 3.22835146,16.8131868 4.11082845,16.8131868 Z"/>
  </defs>
  <title id="title-006" lang="en">truck delivery</title>
  <g fill="none" fill-rule="evenodd" transform="translate(4 7)">
    <use fill="#384048" xlink:href="#truck-a"/>
  </g>
</svg>
