<svg xmlns="http://www.w3.org/2000/svg" id="payment-card-paypal-Layer_1" viewBox="0 0 48 48" aria-labaria-lelledby="title-12">
    <title>
        paypal
    </title>
    <g id="payment-card-paypal-Symbols">
        <g id="payment-card-paypal-card_x2F_paypal">
            <g id="payment-card-paypal-Icon" transform="translate(6 13)">
                <g id="payment-card-paypal-Card">
                    <path id="payment-card-paypal-path-2_2_" d="M2 0h32c1.1 0 2 .9 2 2v18c0 1.1-.9 2-2 2H2c-1.1 0-2-.9-2-2V2C0 .9.9 0 2 0z"/>
                    <path id="payment-card-paypal-path-2_1_" fill="none" d="M2 0h32c1.1 0 2 .9 2 2v18c0 1.1-.9 2-2 2H2c-1.1 0-2-.9-2-2V2C0 .9.9 0 2 0z"/>
                </g>
                <g id="payment-card-paypal-PayPal_2014_logo" transform="translate(3 7)">
                    <g id="payment-card-paypal-svg14712">
                        <path id="payment-card-paypal-path14499" fill="#003087" d="M5.5.6C5.1.2 4.5 0 3.7 0H1.3c-.2 0-.3.1-.3.3L0 6.7c0 .2.1.3.2.3h1.5L2 4.6v.1c0-.2.2-.3.3-.3H3c1.4 0 2.4-.6 2.7-2.2v-.1c.2-.7.1-1.1-.2-1.5"/>
                        <path id="payment-card-paypal-path14519" fill="#002f86" d="M20.5 3.6h-.8c-.1 0-.1 0-.2.1l-1.1 1.6-.4-1.5c0-.1-.1-.2-.2-.2H17c-.1 0-.2.1-.1.2l.9 2.6-.8 1.2c-.1.1 0 .2.1.2h.8c.1 0 .1 0 .2-.1l2.6-3.9s-.1-.2-.2-.2m-5.3 1.6c0 .5-.4.8-.8.8-.2 0-.4-.1-.5-.2s-.2-.3-.1-.6c.1-.5.4-.8.9-.8.2 0 .4.1.5.2 0 .2.1.4 0 .6m1.1-1.6h-.8c-.1 0-.1.1-.1.1v.2l-.1-.1c-.2-.3-.5-.3-.9-.3-.9 0-1.6.7-1.7 1.6-.1.5 0 .9.3 1.2.2.3.6.4 1 .4.7 0 1.1-.5 1.1-.5v.2c0 .1.1.2.1.2h.7c.1 0 .2-.1.2-.2l.4-2.8c0 .1-.1 0-.2 0m-4.6.1c-.1.6-.5.6-1 .6h-.2l.2-1.1c0-.1.1-.1.1-.1h.1c.3 0 .6 0 .7.2.1 0 .1.1.1.4m-.2-1.6H9.9c-.1 0-.2.1-.2.2L9 6.6c0 .1 0 .2.1.2h.8c.1 0 .2-.1.2-.2l.2-1.2c0-.1.1-.2.2-.2h.5c1.1 0 1.7-.5 1.8-1.6.1-.5 0-.8-.2-1.1-.2-.3-.6-.4-1.1-.4"/>
                        <path id="payment-card-paypal-path14523" fill="#009cde" d="M28.8 2.2l-.7 4.4c0 .1.1.2.1.2h.8c.1 0 .2-.1.2-.2l.7-4.3c0-.1-.1-.2-.1-.2H29c-.1 0-.1 0-.2.1m-2 3c0 .5-.4.8-.8.8-.2 0-.4-.1-.5-.2s-.2-.3-.1-.6c.1-.5.4-.8.9-.8.2 0 .4.1.5.2 0 .2.1.4 0 .6m1.1-1.6h-.8c-.1 0-.1.1-.1.1V4l-.1-.1c-.2-.3-.5-.3-.9-.3-.9 0-1.6.7-1.7 1.6-.1.5 0 .9.3 1.2.2.3.6.4 1 .4.7 0 1.1-.5 1.1-.5v.2c0 .1.1.2.1.2h.7c.1 0 .2-.1.2-.2l.4-2.8s-.1-.1-.2-.1m-4.6.1c-.1.6-.5.6-1 .6H22l.2-1.1c0-.1.1-.1.1-.1h.1c.3 0 .6 0 .7.2.2 0 .2.1.2.4m-.2-1.6h-1.6c-.1 0-.2.1-.2.2l-.7 4.3c0 .1.1.2.1.2h.8c.1 0 .1-.1.2-.1l.2-1.2c0-.1.1-.2.2-.2h.5c1.1 0 1.7-.5 1.8-1.6.1-.5 0-.8-.2-1.1-.2-.4-.6-.5-1.1-.5"/>
                        <path id="payment-card-paypal-path14527" fill="#003087" d="M5.5.6C5.1.2 4.5 0 3.7 0H1.3c-.2 0-.3.1-.3.3L0 6.7c0 .2.1.3.2.3h1.5L2 4.6v.1c0-.2.2-.3.3-.3H3c1.4 0 2.4-.6 2.7-2.2v-.1c.2-.7.1-1.1-.2-1.5"/>
                        <path id="payment-card-paypal-path14531" fill="#002f86" d="M2.4 2c0-.1.1-.2.2-.2H5.5c.1.1.2.2.3.2.1-.6 0-1-.3-1.4-.4-.4-1-.6-1.8-.6H1.3c-.2 0-.3.1-.3.3L0 6.7c0 .2.1.3.2.3h1.5L2 4.6 2.4 2z"/>
                        <path id="payment-card-paypal-path14535" fill="#009cde" d="M5.8 2C5.4 3.8 4.4 4.4 3 4.4h-.7c-.1 0-.3.1-.3.3L1.7 7l-.1.6c0 .1.1.2.2.2H3c.1 0 .3-.1.3-.3v-.1L3.5 6v-.1c0-.1.1-.3.3-.3H4c1.2 0 2.1-.5 2.4-1.9.1-.6.1-1.1-.2-1.5-.2 0-.3-.1-.4-.2"/>
                        <path id="payment-card-paypal-path14539" fill="#012069" d="M5.5 1.9H2.6c-.1-.1-.2 0-.2.1L2 4.6v.1c0-.2.2-.3.3-.3H3c1.4 0 2.4-.6 2.7-2.2v-.1c0-.1-.1-.2-.2-.2"/>
                    </g>
                </g>
            </g>
        </g>
    </g>
</svg>
