<svg id="icon_x2F_Utility_x2F_barcode-Layer_1" xmlns="http://www.w3.org/2000/svg" viewBox="0 0 48 48" enable-background="new 0 0 48 48"><title>icon/Utility/barcode</title><g id="icon_x2F_Utility_x2F_barcode-Symbols"><g id="icon_x2F_Utility_x2F_barcode"><g id="icon_x2F_Utility_x2F_barcode-Icon" transform="translate(12 15)"><g id="icon_x2F_Utility_x2F_barcode-Mask"><path id="icon_x2F_Utility_x2F_barcode-path-1_1_" d="M0 0h1v18H0V0zm1.9 0h1.9v18H1.9V0zm2.9 0h3.8v18H4.8V0zm5.8 0h1.9v18h-1.9V0zm2.8 0h1v18h-1V0zm7.7 0h1v18h-1V0zM23 0h1v18h-1V0zm-6.7 0h2.9v18h-2.9V0z" fill="#384048"/></g><defs><filter id="icon_x2F_Utility_x2F_barcode-Adobe_OpacityMaskFilter" filterUnits="userSpaceOnUse" x="-12" y="-15" width="48" height="48"><feColorMatrix values="1 0 0 0 0 0 1 0 0 0 0 0 1 0 0 0 0 0 1 0"/></filter></defs><mask maskUnits="userSpaceOnUse" x="-12" y="-15" width="48" height="48" id="icon_x2F_Utility_x2F_barcode-mask-2"><g filter="url(#icon_x2F_Utility_x2F_barcode-Adobe_OpacityMaskFilter)"><path id="icon_x2F_Utility_x2F_barcode-path-1" d="M0 0h1v18H0V0zm1.9 0h1.9v18H1.9V0zm2.9 0h3.8v18H4.8V0zm5.8 0h1.9v18h-1.9V0zm2.8 0h1v18h-1V0zm7.7 0h1v18h-1V0zM23 0h1v18h-1V0zm-6.7 0h2.9v18h-2.9V0z" fill="#fff"/></g></mask><g id="icon_x2F_Utility_x2F_barcode-Color_x2F_Grayscale_x2F_Night-Sky" mask="url(#icon_x2F_Utility_x2F_barcode-mask-2)"><path fill="#111" d="M0 0h48v48H0z" transform="translate(-12 -15)" id="icon_x2F_Utility_x2F_barcode-Swatch"/></g></g></g></g></svg>