<svg id="icon_x2F_Utility_x2F_barcode-qr-Layer_1" xmlns="http://www.w3.org/2000/svg" viewBox="0 0 48 48" enable-background="new 0 0 48 48"><title>icon/Utility/barcode-qr</title><g id="icon_x2F_Utility_x2F_barcode-qr-Symbols"><g id="icon_x2F_Utility_x2F_barcode-qr"><g id="icon_x2F_Utility_x2F_barcode-qr-Icon" transform="translate(11 11)"><g id="icon_x2F_Utility_x2F_barcode-qr-Mask"><path id="icon_x2F_Utility_x2F_barcode-qr-path-1_1_" d="M0 14.5h1.5V16H0v-1.5zM0 10h3v3H0v-3zm4.5 3H6v1.5h1.5V16H3v-1.5h1.5V13zm7-4v1.5H10v-3h3v-3h1.5V6H16v3h-4.5zm0-6v1.5H10V0h1.5v1.5H13V0h3v1.5h-1.5V3h-3zm-7 7h3v1.5h-3V10zm10 10H16v1.5h-1.5V20zm0-5h-3v-4.5H13v3h1.5V15zm2.4-.5h1.5V16h-1.5v-1.5zm6-3V10h3v6h-3v1.5h3V19h-9v-1.5h1.5V16h1.5v1.5h1.5v-3h-3v-3h-3V10h6v1.5h-1.5V13h1.5v-1.5h1.5zm1.5 10v-1h1.5V23h-1.5v3h-6v-1.5h-3.9V23h3.9v-3h1.5v4.5h1.5V23h1.5v-1.5h1.5zm-14.4 3h1.5V23H13v3h-3v-1.5zm-1.4-13h1.5v3H8.6v-3zm4.4 6h1.5V19H13v-1.5zm-1.5 0V20H13v1.5h-1.5V23H10v-5.5h1.5zM0 8.7V0h8.6v8.6H0zm1.5-7.2v5.6h5.6V1.5H1.5zM0 26v-8.6h8.6V26H0zm1.5-7.1v5.6h5.6v-5.6H1.5zM17.4 8.7V0H26v8.6h-8.6zm1.5-7.2v5.6h5.6V1.5h-5.6z" fill="#384048"/></g><defs><filter id="icon_x2F_Utility_x2F_barcode-qr-Adobe_OpacityMaskFilter" filterUnits="userSpaceOnUse" x="-11" y="-11" width="48" height="48"><feColorMatrix values="1 0 0 0 0 0 1 0 0 0 0 0 1 0 0 0 0 0 1 0"/></filter></defs><mask maskUnits="userSpaceOnUse" x="-11" y="-11" width="48" height="48" id="icon_x2F_Utility_x2F_barcode-qr-mask-2"><g filter="url(#icon_x2F_Utility_x2F_barcode-qr-Adobe_OpacityMaskFilter)"><path id="icon_x2F_Utility_x2F_barcode-qr-path-1" d="M0 14.5h1.5V16H0v-1.5zM0 10h3v3H0v-3zm4.5 3H6v1.5h1.5V16H3v-1.5h1.5V13zm7-4v1.5H10v-3h3v-3h1.5V6H16v3h-4.5zm0-6v1.5H10V0h1.5v1.5H13V0h3v1.5h-1.5V3h-3zm-7 7h3v1.5h-3V10zm10 10H16v1.5h-1.5V20zm0-5h-3v-4.5H13v3h1.5V15zm2.4-.5h1.5V16h-1.5v-1.5zm6-3V10h3v6h-3v1.5h3V19h-9v-1.5h1.5V16h1.5v1.5h1.5v-3h-3v-3h-3V10h6v1.5h-1.5V13h1.5v-1.5h1.5zm1.5 10v-1h1.5V23h-1.5v3h-6v-1.5h-3.9V23h3.9v-3h1.5v4.5h1.5V23h1.5v-1.5h1.5zm-14.4 3h1.5V23H13v3h-3v-1.5zm-1.4-13h1.5v3H8.6v-3zm4.4 6h1.5V19H13v-1.5zm-1.5 0V20H13v1.5h-1.5V23H10v-5.5h1.5zM0 8.7V0h8.6v8.6H0zm1.5-7.2v5.6h5.6V1.5H1.5zM0 26v-8.6h8.6V26H0zm1.5-7.1v5.6h5.6v-5.6H1.5zM17.4 8.7V0H26v8.6h-8.6zm1.5-7.2v5.6h5.6V1.5h-5.6z" fill="#fff"/></g></mask><g id="icon_x2F_Utility_x2F_barcode-qr-Color_x2F_Grayscale_x2F_Night-Sky" mask="url(#icon_x2F_Utility_x2F_barcode-qr-mask-2)"><path fill="#111" d="M0 0h48v48H0z" transform="translate(-11 -11)" id="icon_x2F_Utility_x2F_barcode-qr-Swatch"/></g></g></g></g></svg>