<?xml version="1.0" encoding="utf-8"?>
<!-- Generator: Adobe Illustrator 21.0.2, SVG Export Plug-In . SVG Version: 6.00 Build 0)  -->
<svg version="1.1" id="icon_x2F_Utility_x2F_barcode-qr-Layer_1" xmlns="http://www.w3.org/2000/svg" xmlns:xlink="http://www.w3.org/1999/xlink" x="0px" y="0px"
	 viewBox="0 0 48 48" style="enable-background:new 0 0 48 48;" xml:space="preserve">
<title>icon/Utility/barcode-qr</title>
<desc>Created with Sketch.</desc>
<g id="icon_x2F_Utility_x2F_barcode-qr-Symbols">
	<g id="icon_x2F_Utility_x2F_barcode-qr">
		<g id="icon_x2F_Utility_x2F_barcode-qr-Icon" transform="translate(11.000000, 11.000000)">
			<g id="icon_x2F_Utility_x2F_barcode-qr-Mask">
				<path id="icon_x2F_Utility_x2F_barcode-qr-path-1_1_" style="fill:#384048;" d="M0,14.5h1.5V16H0V14.5z M0,10h3v3H0V10z M4.5,13H6v1.5h1.5V16H3v-1.5h1.5V13z
					 M11.5,9v1.5H10v-3h3v-3h1.5V6H16v3H11.5z M11.5,3v1.5H10V0h1.5v1.5H13V0h3v1.5h-1.5V3H11.5z M4.5,10h3v1.5h-3V10z M14.5,20H16
					v1.5h-1.5V20z M14.5,15h-3v-4.5H13v3h1.5V15z M16.9,14.5h1.5V16h-1.5V14.5z M22.9,11.5V10h3v6h-3v1.5h3V19h-9v-1.5h1.5V16h1.5
					v1.5h1.5v-3h-3v-3h-3V10h6v1.5h-1.5V13h1.5v-1.5H22.9z M24.4,21.5v-1h1.5V23h-1.5v3h-6v-1.5h-3.9V23h3.9v-3h1.5v4.5h1.5l0-1.5
					h1.5v-1.5H24.4z M10,24.5h1.5V23H13v3h-3V24.5z M8.6,11.5h1.5v3H8.6V11.5z M13,17.5h1.5V19H13V17.5z M11.5,17.5V20H13v1.5h-1.5
					V23H10v-5.5H11.5z M0,8.7V0h8.6v8.6H0z M1.5,1.5v5.6h5.6V1.5H1.5z M0,26v-8.6h8.6V26H0z M1.5,18.9v5.6h5.6v-5.6H1.5z M17.4,8.7
					V0H26v8.6H17.4z M18.9,1.5v5.6h5.6V1.5H18.9z"/>
			</g>
			<defs>
				<filter id="icon_x2F_Utility_x2F_barcode-qr-Adobe_OpacityMaskFilter" filterUnits="userSpaceOnUse" x="-11" y="-11" width="48" height="48">
					<feColorMatrix  type="matrix" values="1 0 0 0 0  0 1 0 0 0  0 0 1 0 0  0 0 0 1 0"/>
				</filter>
			</defs>
			<mask maskUnits="userSpaceOnUse" x="-11" y="-11" width="48" height="48" id="icon_x2F_Utility_x2F_barcode-qr-mask-2">
				<g style="filter:url(#icon_x2F_Utility_x2F_barcode-qr-Adobe_OpacityMaskFilter);">
					<path id="icon_x2F_Utility_x2F_barcode-qr-path-1" style="fill:#FFFFFF;" d="M0,14.5h1.5V16H0V14.5z M0,10h3v3H0V10z M4.5,13H6v1.5h1.5V16H3v-1.5h1.5V13z
						 M11.5,9v1.5H10v-3h3v-3h1.5V6H16v3H11.5z M11.5,3v1.5H10V0h1.5v1.5H13V0h3v1.5h-1.5V3H11.5z M4.5,10h3v1.5h-3V10z M14.5,20H16
						v1.5h-1.5V20z M14.5,15h-3v-4.5H13v3h1.5V15z M16.9,14.5h1.5V16h-1.5V14.5z M22.9,11.5V10h3v6h-3v1.5h3V19h-9v-1.5h1.5V16h1.5
						v1.5h1.5v-3h-3v-3h-3V10h6v1.5h-1.5V13h1.5v-1.5H22.9z M24.4,21.5v-1h1.5V23h-1.5v3h-6v-1.5h-3.9V23h3.9v-3h1.5v4.5h1.5l0-1.5
						h1.5v-1.5H24.4z M10,24.5h1.5V23H13v3h-3V24.5z M8.6,11.5h1.5v3H8.6V11.5z M13,17.5h1.5V19H13V17.5z M11.5,17.5V20H13v1.5h-1.5
						V23H10v-5.5H11.5z M0,8.7V0h8.6v8.6H0z M1.5,1.5v5.6h5.6V1.5H1.5z M0,26v-8.6h8.6V26H0z M1.5,18.9v5.6h5.6v-5.6H1.5z M17.4,8.7
						V0H26v8.6H17.4z M18.9,1.5v5.6h5.6V1.5H18.9z"/>
				</g>
			</mask>
			<g id="icon_x2F_Utility_x2F_barcode-qr-Color_x2F_Grayscale_x2F_Night-Sky" style="mask:url(#icon_x2F_Utility_x2F_barcode-qr-mask-2);">
				<g id="icon_x2F_Utility_x2F_barcode-qr-Swatch" transform="translate(-11.000000, -11.000000)">
					<rect style="fill:#111111;" width="48" height="48"/>
				</g>
			</g>
		</g>
	</g>
</g>
</svg>
