<?xml version="1.0" encoding="UTF-8"?>
<svg width="48px" height="48px" viewBox="0 0 48 48" version="1.1" xmlns="http://www.w3.org/2000/svg" xmlns:xlink="http://www.w3.org/1999/xlink">
    <!-- Generator: Sketch 46.2 (44496) - http://www.bohemiancoding.com/sketch -->
    <title>icon/Utility/barcode</title>
    <desc>Created with Sketch.</desc>
    <defs>
        <path d="M0,0 L0.969305331,0 L0.969305331,18 L0,18 L0,0 Z M1.91922456,0 L3.84814216,0 L3.84814216,18 L1.91922456,18 L1.91922456,0 Z M4.79806139,0 L8.64659128,0 L8.64659128,18 L4.79806139,18 L4.79806139,0 Z M10.5557351,0 L12.4846527,0 L12.4846527,18 L10.5557351,18 L10.5557351,0 Z M13.4345719,0 L14.4038772,0 L14.4038772,18 L13.4345719,18 L13.4345719,0 Z M21.1114701,0 L22.0807754,0 L22.0807754,18 L21.1114701,18 L21.1114701,0 Z M23.0306947,0 L24,0 L24,18 L23.0306947,18 L23.0306947,0 Z M16.3134087,0 L19.2019386,0 L19.2019386,18 L16.3134087,18 L16.3134087,0 Z" id="path-1"></path>
    </defs>
    <g id="Symbols" stroke="none" stroke-width="1" fill="none" fill-rule="evenodd">
        <g id="icon/Utility/barcode">
            <g id="Icon" transform="translate(12.000000, 15.000000)">
                <mask id="mask-2" fill="white">
                    <use xlink:href="#path-1"></use>
                </mask>
                <use id="Mask" fill="#384048" xlink:href="#path-1"></use>
                <g id="Color/Grayscale/Night-Sky" mask="url(#mask-2)" fill="#111111">
                    <g transform="translate(-12.000000, -15.000000)" id="Swatch">
                        <rect x="0" y="0" width="48" height="48"></rect>
                    </g>
                </g>
            </g>
        </g>
    </g>
</svg>