<?xml version="1.0" encoding="utf-8"?>
<svg version="1.1" id="icon_x2F_Utility_x2F_clip-Layer_1"
	 xmlns="http://www.w3.org/2000/svg" xmlns:xlink="http://www.w3.org/1999/xlink" x="0px" y="0px" viewBox="0 0 48 48"
	 style="enable-background:new 0 0 48 48;" xml:space="preserve">
<path id="icon_x2F_Utility_x2F_clip-path-1_1_" style="fill:#111111;" d="M31.5,18.3c0,0-1.1-1.2-2.6-1.2h-0.3
	c-1.8,0.3-4.6,1.5-9,4.9l-1.3-1.2c1.3-1.7,0.2-4.3-0.8-5.3c-0.9-1-2.2-1.5-3.3-1.5c-0.7,0-1.4,0.2-1.9,0.6c-0.9,0.6-2.8,4,1.3,7.5
	l2.8,2.4c0,0-4.1,3-5,4.9c-0.5,1.1-0.5,2.2-0.1,3c0.1,0.1,0.3,0.5,0.4,0.7c0.5,0.6,1.4,1,2.4,1c0.9,0,2-0.3,3.1-1.1
	c2.5-2.2,1.5-5,1.5-5l0.9-0.7l1.1,0.9c0.2,0.2,0.5,0.4,1.1,0.4h5l-4-3.6L31.5,18.3z M16.3,20c-0.2,0.1-0.5,0.2-0.8,0.2
	c-0.6,0-1.4-0.5-1.9-1.2c-0.8-1.1-0.9-2.2-0.2-2.7c0.2-0.2,0.5-0.3,0.8-0.3c0.6,0,1.4,0.5,1.9,1.2C16.9,18.3,17,19.4,16.3,20z
	 M16.1,31.1c-0.6,0.6-1.3,1-1.9,1c-0.3,0-0.6-0.1-0.8-0.3c-0.6-0.6-0.5-1.7,0.4-2.7c0.6-0.6,1.3-1,1.9-1c0.3,0,0.6,0.1,0.8,0.3
	C17.2,28.9,17,30.1,16.1,31.1z M36.3,28.5h-1.5c-0.4,0-0.7-0.3-0.7-0.6s0.3-0.6,0.7-0.6h1.5c0.4,0,0.7,0.3,0.7,0.6
	S36.7,28.5,36.3,28.5z M32.8,28.5h-1.5c-0.4,0-0.7-0.3-0.7-0.6s0.3-0.6,0.7-0.6h1.5c0.4,0,0.7,0.3,0.7,0.6
	C33.4,28.2,33.1,28.5,32.8,28.5z M29.2,28.5h-1.5c-0.4,0-0.7-0.3-0.7-0.6s0.3-0.6,0.7-0.6h1.5c0.4,0,0.7,0.3,0.7,0.6
	C29.8,28.2,29.6,28.5,29.2,28.5z"/>
</svg>
