<svg xmlns="http://www.w3.org/2000/svg" xmlns:xlink="http://www.w3.org/1999/xlink" width="32" height="32" viewBox="0 0 32 32" aria-labaria-lelledby="title-033">
  <defs>
    <path id="collection-multi-a" d="M22.5295,5.51322115 L1.3705,5.51322115 C0.6424,5.51322115 0,6.21076923 0,6.98076923 L0,20.4134615 C0,21.1834615 0.672,22 1.4,22 L22.5,22 C23.2034,22 24,21.1574423 24,20.4134615 L24,6.98076923 C24,6.23678846 23.2329,5.51322115 22.5295,5.51322115 L22.5295,5.51322115 Z M8.4,17.875 C8.3984,18.7365962 8.0538,18.9790192 7.2434,18.9790192 L3.8896,18.9790192 C3.0775,18.9790192 2.8,18.7378654 2.8,17.875 L2.8,9.51923077 C2.8,8.65636538 3.188,8.35576923 4,8.35576923 L7.2,8.35576923 C8.012,8.35576923 8.4,8.65636538 8.4,9.51923077 L8.4,17.875 L8.4,17.875 Z M14,17.875 C13.9984,18.7365962 13.6538,18.9790192 12.8434,18.9790192 L10.2896,18.9790192 C9.4775,18.9790192 9.2,18.7378654 9.2,17.875 L9.2,15.4423077 C9.2,14.5794423 9.588,14.2788462 10.4,14.2788462 L12.8,14.2788462 C13.612,14.2788462 14,14.5794423 14,15.4423077 L14,17.875 L14,17.875 Z M14,11.9519231 C13.9984,12.8135192 13.6538,13.0559423 12.8434,13.0559423 L10.2896,13.0559423 C9.4775,13.0559423 9.2,12.8147885 9.2,11.9519231 L9.2,9.51923077 C9.2,8.65636538 9.588,8.35576923 10.4,8.35576923 L12.8,8.35576923 C13.612,8.35576923 14,8.65636538 14,9.51923077 L14,11.9519231 L14,11.9519231 Z M21.2,17.875 C21.1984,18.7365962 20.8538,18.9790192 20.0434,18.9790192 L15.8897,18.9790192 C15.0776,18.9790192 14.8001,18.7380769 14.8001,17.875 L14.8001,15.4423077 C14.8001,14.5794423 15.1881,14.2788462 16.0001,14.2788462 L20.0001,14.2788462 C20.8121,14.2788462 21.2001,14.5794423 21.2001,15.4423077 L21.2,17.875 L21.2,17.875 Z M21.2,11.9519231 C21.1984,12.8135192 20.8538,13.0559423 20.0434,13.0559423 L15.8897,13.0559423 C15.0776,13.0559423 14.8001,12.815 14.8001,11.9519231 L14.8001,9.51923077 C14.8001,8.65636538 15.1881,8.35576923 16.0001,8.35576923 L20.0001,8.35576923 C20.8121,8.35576923 21.2001,8.65636538 21.2001,9.51923077 L21.2,11.9519231 Z M21,4.01923077 L3,4.01923077 C2.6687,4.01923077 2.4,3.73513462 2.4,3.38461538 C2.4,3.03409615 2.6687,2.75 3,2.75 L21,2.75 C21.3314,2.75 21.6,3.03409615 21.6,3.38461538 C21.6,3.73513462 21.3314,4.01923077 21,4.01923077 Z M19.1,1.26923077 L4.8,1.26923077 C4.4687,1.26923077 4.2,0.985134615 4.2,0.634615385 C4.2,0.284096154 4.4687,0 4.8,0 L19.1,0 C19.4314,0 19.7,0.284096154 19.7,0.634615385 C19.7,0.985134615 19.4314,1.26923077 19.1,1.26923077 Z"/>
  </defs>
  <title id="title-033" lang="en">multiple product collections</title>
  <g fill="none" fill-rule="evenodd" transform="translate(4 5)">
    <use fill="#384048" xlink:href="#collection-multi-a"/>
  </g>
</svg>
