<?xml version="1.0" encoding="utf-8"?>
<!-- Generator: Adobe Illustrator 21.0.2, SVG Export Plug-In . SVG Version: 6.00 Build 0)  -->
<svg version="1.1" id="icon_x2F_Utility_x2F_collection-Layer_1" xmlns="http://www.w3.org/2000/svg" xmlns:xlink="http://www.w3.org/1999/xlink" x="0px" y="0px"
	 viewBox="0 0 48 48" style="enable-background:new 0 0 48 48;" xml:space="preserve">
<title>icon/Utility/collection</title>
<desc>Created with Sketch.</desc>
<g id="icon_x2F_Utility_x2F_collection-Symbols">
	<g id="icon_x2F_Utility_x2F_collection">
		<g id="icon_x2F_Utility_x2F_collection-Icon" transform="translate(11.000000, 14.000000)">
			<g id="icon_x2F_Utility_x2F_collection-Mask">
				<path id="icon_x2F_Utility_x2F_collection-path-1_1_" style="fill:#384048;" d="M26,2.4c0-0.3-0.1-0.6-0.2-0.8c0,0,0-0.1,0-0.1c-0.2-0.5-0.6-0.9-1.1-1.2
					c0,0-0.1,0-0.1-0.1C24.3,0.1,24,0,23.7,0c0,0-0.1,0-0.1,0H2.4c0,0-0.1,0-0.1,0C1,0.1,0.1,1.1,0,2.4c0,0,0,0.1,0,0.1v15
					c0,0,0,0.1,0,0.1c0.1,1.3,1,2.3,2.3,2.4c0,0,0.1,0,0.1,0h21.2c0,0,0.1,0,0.1,0c1.2-0.1,2.2-1.1,2.3-2.4c0,0,0-0.1,0-0.1v-15
					C26,2.5,26,2.4,26,2.4L26,2.4z M3.5,16V4c0-0.4,0.3-0.7,0.7-0.7h6c0.4,0,0.7,0.3,0.7,0.7v12c0,0.4-0.3,0.7-0.7,0.7h-6
					C3.8,16.7,3.5,16.4,3.5,16L3.5,16z M12,16v-5.2c0-0.4,0.3-0.7,0.7-0.7H16c0.4,0,0.7,0.3,0.7,0.7V16c0,0.4-0.3,0.7-0.7,0.7h-3.4
					C12.3,16.7,12,16.4,12,16L12,16z M17.8,16v-5.2c0-0.4,0.3-0.7,0.7-0.7h3.4c0.4,0,0.7,0.3,0.7,0.7V16c0,0.4-0.3,0.7-0.7,0.7h-3.4
					C18.1,16.7,17.8,16.4,17.8,16L17.8,16z M22.5,8.2c0,0.4-0.3,0.7-0.7,0.7h-9.2c-0.4,0-0.7-0.3-0.7-0.7V4c0-0.4,0.3-0.7,0.7-0.7
					h9.2c0.4,0,0.7,0.3,0.7,0.7V8.2L22.5,8.2z"/>
			</g>
			<defs>
				<filter id="icon_x2F_Utility_x2F_collection-Adobe_OpacityMaskFilter" filterUnits="userSpaceOnUse" x="-11" y="-14" width="48" height="48">
					<feColorMatrix  type="matrix" values="1 0 0 0 0  0 1 0 0 0  0 0 1 0 0  0 0 0 1 0"/>
				</filter>
			</defs>
			<mask maskUnits="userSpaceOnUse" x="-11" y="-14" width="48" height="48" id="icon_x2F_Utility_x2F_collection-mask-2">
				<g style="filter:url(#icon_x2F_Utility_x2F_collection-Adobe_OpacityMaskFilter);">
					<path id="icon_x2F_Utility_x2F_collection-path-1" style="fill:#FFFFFF;" d="M26,2.4c0-0.3-0.1-0.6-0.2-0.8c0,0,0-0.1,0-0.1c-0.2-0.5-0.6-0.9-1.1-1.2
						c0,0-0.1,0-0.1-0.1C24.3,0.1,24,0,23.7,0c0,0-0.1,0-0.1,0H2.4c0,0-0.1,0-0.1,0C1,0.1,0.1,1.1,0,2.4c0,0,0,0.1,0,0.1v15
						c0,0,0,0.1,0,0.1c0.1,1.3,1,2.3,2.3,2.4c0,0,0.1,0,0.1,0h21.2c0,0,0.1,0,0.1,0c1.2-0.1,2.2-1.1,2.3-2.4c0,0,0-0.1,0-0.1v-15
						C26,2.5,26,2.4,26,2.4L26,2.4z M3.5,16V4c0-0.4,0.3-0.7,0.7-0.7h6c0.4,0,0.7,0.3,0.7,0.7v12c0,0.4-0.3,0.7-0.7,0.7h-6
						C3.8,16.7,3.5,16.4,3.5,16L3.5,16z M12,16v-5.2c0-0.4,0.3-0.7,0.7-0.7H16c0.4,0,0.7,0.3,0.7,0.7V16c0,0.4-0.3,0.7-0.7,0.7h-3.4
						C12.3,16.7,12,16.4,12,16L12,16z M17.8,16v-5.2c0-0.4,0.3-0.7,0.7-0.7h3.4c0.4,0,0.7,0.3,0.7,0.7V16c0,0.4-0.3,0.7-0.7,0.7
						h-3.4C18.1,16.7,17.8,16.4,17.8,16L17.8,16z M22.5,8.2c0,0.4-0.3,0.7-0.7,0.7h-9.2c-0.4,0-0.7-0.3-0.7-0.7V4
						c0-0.4,0.3-0.7,0.7-0.7h9.2c0.4,0,0.7,0.3,0.7,0.7V8.2L22.5,8.2z"/>
				</g>
			</mask>
			<g id="icon_x2F_Utility_x2F_collection-Color_x2F_Grayscale_x2F_Night-Sky" style="mask:url(#icon_x2F_Utility_x2F_collection-mask-2);">
				<g id="icon_x2F_Utility_x2F_collection-Swatch" transform="translate(-11.000000, -14.000000)">
					<rect style="fill:#111111;" width="48" height="48"/>
				</g>
			</g>
		</g>
	</g>
</g>
</svg>
