<?xml version="1.0" encoding="utf-8"?>
<svg version="1.1" id="icon_x2F_Utility_x2F_collection-Layer_1"
	 xmlns="http://www.w3.org/2000/svg" xmlns:xlink="http://www.w3.org/1999/xlink" x="0px" y="0px" viewBox="0 0 48 48"
	 style="enable-background:new 0 0 48 48;" xml:space="preserve">
<path id="icon_x2F_Utility_x2F_collection-path-1_1_" style="fill:#111111;" d="M37,16.4c0-0.3-0.1-0.6-0.2-0.8v-0.1
	c-0.2-0.5-0.6-0.9-1.1-1.2c0,0-0.1,0-0.1-0.1C35.3,14.1,35,14,34.7,14H13.4h-0.1c-1.3,0.1-2.2,1.1-2.3,2.4v15.2
	c0.1,1.3,1,2.3,2.3,2.4h21.4c1.2-0.1,2.2-1.1,2.3-2.4V16.5V16.4z M14.5,30V18c0-0.4,0.3-0.7,0.7-0.7h6c0.4,0,0.7,0.3,0.7,0.7v12
	c0,0.4-0.3,0.7-0.7,0.7h-6C14.8,30.7,14.5,30.4,14.5,30z M23,30v-5.2c0-0.4,0.3-0.7,0.7-0.7H27c0.4,0,0.7,0.3,0.7,0.7V30
	c0,0.4-0.3,0.7-0.7,0.7h-3.4C23.3,30.7,23,30.4,23,30z M28.8,30v-5.2c0-0.4,0.3-0.7,0.7-0.7h3.4c0.4,0,0.7,0.3,0.7,0.7V30
	c0,0.4-0.3,0.7-0.7,0.7h-3.4C29.1,30.7,28.8,30.4,28.8,30z M33.5,22.2c0,0.4-0.3,0.7-0.7,0.7h-9.2c-0.4,0-0.7-0.3-0.7-0.7V18
	c0-0.4,0.3-0.7,0.7-0.7h9.2c0.4,0,0.7,0.3,0.7,0.7V22.2z"/>
</svg>
