<?xml version="1.0" encoding="utf-8"?>
<!-- Generator: Adobe Illustrator 21.0.2, SVG Export Plug-In . SVG Version: 6.00 Build 0)  -->
<svg version="1.1" id="icon_x2F_Utility_x2F_device-mobile-Layer_1" xmlns="http://www.w3.org/2000/svg" xmlns:xlink="http://www.w3.org/1999/xlink" x="0px" y="0px"
	 viewBox="0 0 48 48" style="enable-background:new 0 0 48 48;" xml:space="preserve">
<title>icon/Utility/device-mobile</title>
<desc>Created with Sketch.</desc>
<g id="icon_x2F_Utility_x2F_device-mobile-Symbols">
	<g id="icon_x2F_Utility_x2F_device-mobile">
		<g id="icon_x2F_Utility_x2F_device-mobile-Icon" transform="translate(14.000000, 8.000000)">
			<g id="icon_x2F_Utility_x2F_device-mobile-Mask">
				<path id="icon_x2F_Utility_x2F_device-mobile-path-1_1_" style="fill:#384048;" d="M18,0L2,0C0.8,0,0,1,0,2.2v27.7C0,31,0.8,32,2,32l16,0c1.1,0,2-1,2-2.2V2.2
					C20,1,19.1,0,18,0L18,0z M10,29.3c-0.6,0-1.1-0.5-1.1-1.1s0.5-1.1,1.1-1.1s1.1,0.5,1.1,1.1S10.6,29.3,10,29.3L10,29.3z
					 M16.3,24.6c0,0.7-0.7,1.5-1.4,1.5H5c-0.7,0-1.3-0.6-1.3-1.4l0-19.6c0-0.3,0.1-0.7,0.3-0.9C4.2,3.9,4.6,3.8,5,3.8h10
					c0.6,0,1.3,0.5,1.3,1.3V24.6L16.3,24.6z"/>
			</g>
			<defs>
				<filter id="icon_x2F_Utility_x2F_device-mobile-Adobe_OpacityMaskFilter" filterUnits="userSpaceOnUse" x="-14" y="-8" width="48" height="48">
					<feColorMatrix  type="matrix" values="1 0 0 0 0  0 1 0 0 0  0 0 1 0 0  0 0 0 1 0"/>
				</filter>
			</defs>
			<mask maskUnits="userSpaceOnUse" x="-14" y="-8" width="48" height="48" id="icon_x2F_Utility_x2F_device-mobile-mask-2">
				<g style="filter:url(#icon_x2F_Utility_x2F_device-mobile-Adobe_OpacityMaskFilter);">
					<path id="icon_x2F_Utility_x2F_device-mobile-path-1" style="fill:#FFFFFF;" d="M18,0L2,0C0.8,0,0,1,0,2.2v27.7C0,31,0.8,32,2,32l16,0c1.1,0,2-1,2-2.2V2.2
						C20,1,19.1,0,18,0L18,0z M10,29.3c-0.6,0-1.1-0.5-1.1-1.1s0.5-1.1,1.1-1.1s1.1,0.5,1.1,1.1S10.6,29.3,10,29.3L10,29.3z
						 M16.3,24.6c0,0.7-0.7,1.5-1.4,1.5H5c-0.7,0-1.3-0.6-1.3-1.4l0-19.6c0-0.3,0.1-0.7,0.3-0.9C4.2,3.9,4.6,3.8,5,3.8h10
						c0.6,0,1.3,0.5,1.3,1.3V24.6L16.3,24.6z"/>
				</g>
			</mask>
			<g id="icon_x2F_Utility_x2F_device-mobile-Color_x2F_Grayscale_x2F_Night-Sky" style="mask:url(#icon_x2F_Utility_x2F_device-mobile-mask-2);">
				<g id="icon_x2F_Utility_x2F_device-mobile-Swatch" transform="translate(-14.000000, -8.000000)">
					<rect style="fill:#111111;" width="48" height="48"/>
				</g>
			</g>
		</g>
	</g>
</g>
</svg>
