<svg id="icon_x2F_Utility_x2F_device-mobile-Layer_1" xmlns="http://www.w3.org/2000/svg" viewBox="0 0 48 48" enable-background="new 0 0 48 48"><title>icon/Utility/device-mobile</title><g id="icon_x2F_Utility_x2F_device-mobile-Symbols"><g id="icon_x2F_Utility_x2F_device-mobile"><g id="icon_x2F_Utility_x2F_device-mobile-Icon" transform="translate(14 8)"><g id="icon_x2F_Utility_x2F_device-mobile-Mask"><path id="icon_x2F_Utility_x2F_device-mobile-path-1_1_" d="M18 0H2C.8 0 0 1 0 2.2v27.7C0 31 .8 32 2 32h16c1.1 0 2-1 2-2.2V2.2C20 1 19.1 0 18 0zm-8 29.3c-.6 0-1.1-.5-1.1-1.1s.5-1.1 1.1-1.1 1.1.5 1.1 1.1-.5 1.1-1.1 1.1zm6.3-4.7c0 .7-.7 1.5-1.4 1.5H5c-.7 0-1.3-.6-1.3-1.4V5.1c0-.3.1-.7.3-.9.2-.3.6-.4 1-.4h10c.6 0 1.3.5 1.3 1.3v19.5z" fill="#384048"/></g><defs><filter id="icon_x2F_Utility_x2F_device-mobile-Adobe_OpacityMaskFilter" filterUnits="userSpaceOnUse" x="-14" y="-8" width="48" height="48"><feColorMatrix values="1 0 0 0 0 0 1 0 0 0 0 0 1 0 0 0 0 0 1 0"/></filter></defs><mask maskUnits="userSpaceOnUse" x="-14" y="-8" width="48" height="48" id="icon_x2F_Utility_x2F_device-mobile-mask-2"><g filter="url(#icon_x2F_Utility_x2F_device-mobile-Adobe_OpacityMaskFilter)"><path id="icon_x2F_Utility_x2F_device-mobile-path-1" d="M18 0H2C.8 0 0 1 0 2.2v27.7C0 31 .8 32 2 32h16c1.1 0 2-1 2-2.2V2.2C20 1 19.1 0 18 0zm-8 29.3c-.6 0-1.1-.5-1.1-1.1s.5-1.1 1.1-1.1 1.1.5 1.1 1.1-.5 1.1-1.1 1.1zm6.3-4.7c0 .7-.7 1.5-1.4 1.5H5c-.7 0-1.3-.6-1.3-1.4V5.1c0-.3.1-.7.3-.9.2-.3.6-.4 1-.4h10c.6 0 1.3.5 1.3 1.3v19.5z" fill="#fff"/></g></mask><g id="icon_x2F_Utility_x2F_device-mobile-Color_x2F_Grayscale_x2F_Night-Sky" mask="url(#icon_x2F_Utility_x2F_device-mobile-mask-2)"><path fill="#111" d="M0 0h48v48H0z" transform="translate(-14 -8)" id="icon_x2F_Utility_x2F_device-mobile-Swatch"/></g></g></g></g></svg>