<?xml version="1.0" encoding="utf-8"?>
<svg version="1.1" id="icon_x2F_Utility_x2F_device-mobile-Layer_1"
	 xmlns="http://www.w3.org/2000/svg" xmlns:xlink="http://www.w3.org/1999/xlink" x="0px" y="0px" viewBox="0 0 48 48"
	 style="enable-background:new 0 0 48 48;" xml:space="preserve">
<path id="icon_x2F_Utility_x2F_device-mobile-path-1_1_" style="fill:#111111;" d="M32,8H16c-1.2,0-2,1-2,2.2v27.7
	c0,1.1,0.8,2.1,2,2.1h16c1.1,0,2-1,2-2.2V10.2C34,9,33.1,8,32,8z M24,37.3c-0.6,0-1.1-0.5-1.1-1.1c0-0.6,0.5-1.1,1.1-1.1
	s1.1,0.5,1.1,1.1C25.1,36.8,24.6,37.3,24,37.3z M30.3,32.6c0,0.7-0.7,1.5-1.4,1.5H19c-0.7,0-1.3-0.6-1.3-1.4V13.1
	c0-0.3,0.1-0.7,0.3-0.9c0.2-0.3,0.6-0.4,1-0.4h10c0.6,0,1.3,0.5,1.3,1.3V32.6z"/>
</svg>
