<?xml version="1.0" encoding="utf-8"?>
<!-- Generator: Adobe Illustrator 21.0.2, SVG Export Plug-In . SVG Version: 6.00 Build 0)  -->
<svg version="1.1" id="icon_x2F_Utility_x2F_location-pin-Layer_1" xmlns="http://www.w3.org/2000/svg" xmlns:xlink="http://www.w3.org/1999/xlink" x="0px" y="0px"
	 viewBox="0 0 48 48" style="enable-background:new 0 0 48 48;" xml:space="preserve">
<title>icon/Utility/location-pin</title>
<desc>Created with Sketch.</desc>
<g id="icon_x2F_Utility_x2F_location-pin-Symbols">
	<g id="icon_x2F_Utility_x2F_location-pin">
		<g id="icon_x2F_Utility_x2F_location-pin-Icon" transform="translate(15.000000, 11.000000)">
			<g id="icon_x2F_Utility_x2F_location-pin-Mask">
				<path id="icon_x2F_Utility_x2F_location-pin-path-1_1_" style="fill:#384048;" d="M9,0c5,0,9,4.1,9,10.1S9,26,9,26s-9-9.9-9-15.9S4,0,9,0z M9,14.5
					c2.7,0,4.9-2.3,4.9-5.2S11.7,4.1,9,4.1S4.1,6.4,4.1,9.3S6.3,14.5,9,14.5z"/>
			</g>
			<defs>
				<filter id="icon_x2F_Utility_x2F_location-pin-Adobe_OpacityMaskFilter" filterUnits="userSpaceOnUse" x="-15" y="-11" width="48" height="48">
					<feColorMatrix  type="matrix" values="1 0 0 0 0  0 1 0 0 0  0 0 1 0 0  0 0 0 1 0"/>
				</filter>
			</defs>
			<mask maskUnits="userSpaceOnUse" x="-15" y="-11" width="48" height="48" id="icon_x2F_Utility_x2F_location-pin-mask-2">
				<g style="filter:url(#icon_x2F_Utility_x2F_location-pin-Adobe_OpacityMaskFilter);">
					<path id="icon_x2F_Utility_x2F_location-pin-path-1" style="fill:#FFFFFF;" d="M9,0c5,0,9,4.1,9,10.1S9,26,9,26s-9-9.9-9-15.9S4,0,9,0z M9,14.5
						c2.7,0,4.9-2.3,4.9-5.2S11.7,4.1,9,4.1S4.1,6.4,4.1,9.3S6.3,14.5,9,14.5z"/>
				</g>
			</mask>
			<g id="icon_x2F_Utility_x2F_location-pin-Color_x2F_Grayscale_x2F_Night-Sky" style="mask:url(#icon_x2F_Utility_x2F_location-pin-mask-2);">
				<g id="icon_x2F_Utility_x2F_location-pin-Swatch" transform="translate(-15.000000, -11.000000)">
					<rect style="fill:#111111;" width="48" height="48"/>
				</g>
			</g>
		</g>
	</g>
</g>
</svg>
