<?xml version="1.0" encoding="utf-8"?>
<svg version="1.1" id="icon_x2F_Utility_x2F_lock-Layer_1"
	 xmlns="http://www.w3.org/2000/svg" xmlns:xlink="http://www.w3.org/1999/xlink" x="0px" y="0px" viewBox="0 0 48 48"
	 style="enable-background:new 0 0 48 48;" xml:space="preserve">
<path id="icon_x2F_Utility_x2F_lock-path-1_1_" style="fill:#111111;" d="M31,21h1c1.1,0,2,0.9,2,2v12c0,1.1-0.9,2-2,2H16
	c-1.1,0-2-0.9-2-2V23c0-1.1,0.9-2,2-2h1v-3c0-3.9,3.1-7,7-7s7,3.1,7,7V21z M28,21v-3c0-2.2-1.8-4-4-4s-4,1.8-4,4v3H28z"/>
</svg>
