<?xml version="1.0" encoding="utf-8"?>
<!-- Generator: Adobe Illustrator 21.0.2, SVG Export Plug-In . SVG Version: 6.00 Build 0)  -->
<svg version="1.1" id="icon_x2F_Utility_x2F_lock-Layer_1" xmlns="http://www.w3.org/2000/svg" xmlns:xlink="http://www.w3.org/1999/xlink" x="0px" y="0px"
	 viewBox="0 0 48 48" style="enable-background:new 0 0 48 48;" xml:space="preserve">
<title>icon/Utility/lock</title>
<desc>Created with Sketch.</desc>
<g id="icon_x2F_Utility_x2F_lock-Symbols">
	<g id="icon_x2F_Utility_x2F_lock">
		<g id="icon_x2F_Utility_x2F_lock-Icon" transform="translate(14.000000, 11.000000)">
			<g id="icon_x2F_Utility_x2F_lock-Mask">
				<path id="icon_x2F_Utility_x2F_lock-path-1_1_" style="fill:#384048;" d="M17,10h1c1.1,0,2,0.9,2,2v12c0,1.1-0.9,2-2,2H2c-1.1,0-2-0.9-2-2V12
					c0-1.1,0.9-2,2-2h1V7c0-3.9,3.1-7,7-7c3.9,0,7,3.1,7,7V10z M14,10V7c0-2.2-1.8-4-4-4C7.8,3,6,4.8,6,7v3H14z"/>
			</g>
			<defs>
				<filter id="icon_x2F_Utility_x2F_lock-Adobe_OpacityMaskFilter" filterUnits="userSpaceOnUse" x="-14" y="-11" width="48" height="48">
					<feColorMatrix  type="matrix" values="1 0 0 0 0  0 1 0 0 0  0 0 1 0 0  0 0 0 1 0"/>
				</filter>
			</defs>
			<mask maskUnits="userSpaceOnUse" x="-14" y="-11" width="48" height="48" id="icon_x2F_Utility_x2F_lock-mask-2">
				<g style="filter:url(#icon_x2F_Utility_x2F_lock-Adobe_OpacityMaskFilter);">
					<path id="icon_x2F_Utility_x2F_lock-path-1" style="fill:#FFFFFF;" d="M17,10h1c1.1,0,2,0.9,2,2v12c0,1.1-0.9,2-2,2H2c-1.1,0-2-0.9-2-2V12
						c0-1.1,0.9-2,2-2h1V7c0-3.9,3.1-7,7-7c3.9,0,7,3.1,7,7V10z M14,10V7c0-2.2-1.8-4-4-4C7.8,3,6,4.8,6,7v3H14z"/>
				</g>
			</mask>
			<g id="icon_x2F_Utility_x2F_lock-Color_x2F_Grayscale_x2F_Night-Sky" style="mask:url(#icon_x2F_Utility_x2F_lock-mask-2);">
				<g id="icon_x2F_Utility_x2F_lock-Swatch" transform="translate(-14.000000, -11.000000)">
					<rect style="fill:#111111;" width="48" height="48"/>
				</g>
			</g>
		</g>
	</g>
</g>
</svg>
