<svg id="icon_x2F_Utility_x2F_lock-Layer_1" xmlns="http://www.w3.org/2000/svg" viewBox="0 0 48 48" enable-background="new 0 0 48 48"><title>icon/Utility/lock</title><g id="icon_x2F_Utility_x2F_lock-Symbols"><g id="icon_x2F_Utility_x2F_lock"><g id="icon_x2F_Utility_x2F_lock-Icon" transform="translate(14 11)"><g id="icon_x2F_Utility_x2F_lock-Mask"><path id="icon_x2F_Utility_x2F_lock-path-1_1_" d="M17 10h1c1.1 0 2 .9 2 2v12c0 1.1-.9 2-2 2H2c-1.1 0-2-.9-2-2V12c0-1.1.9-2 2-2h1V7c0-3.9 3.1-7 7-7s7 3.1 7 7v3zm-3 0V7c0-2.2-1.8-4-4-4S6 4.8 6 7v3h8z" fill="#384048"/></g><defs><filter id="icon_x2F_Utility_x2F_lock-Adobe_OpacityMaskFilter" filterUnits="userSpaceOnUse" x="-14" y="-11" width="48" height="48"><feColorMatrix values="1 0 0 0 0 0 1 0 0 0 0 0 1 0 0 0 0 0 1 0"/></filter></defs><mask maskUnits="userSpaceOnUse" x="-14" y="-11" width="48" height="48" id="icon_x2F_Utility_x2F_lock-mask-2"><g filter="url(#icon_x2F_Utility_x2F_lock-Adobe_OpacityMaskFilter)"><path id="icon_x2F_Utility_x2F_lock-path-1" d="M17 10h1c1.1 0 2 .9 2 2v12c0 1.1-.9 2-2 2H2c-1.1 0-2-.9-2-2V12c0-1.1.9-2 2-2h1V7c0-3.9 3.1-7 7-7s7 3.1 7 7v3zm-3 0V7c0-2.2-1.8-4-4-4S6 4.8 6 7v3h8z" fill="#fff"/></g></mask><g id="icon_x2F_Utility_x2F_lock-Color_x2F_Grayscale_x2F_Night-Sky" mask="url(#icon_x2F_Utility_x2F_lock-mask-2)"><path fill="#111" d="M0 0h48v48H0z" transform="translate(-14 -11)" id="icon_x2F_Utility_x2F_lock-Swatch"/></g></g></g></g></svg>