<svg xmlns="http://www.w3.org/2000/svg" xmlns:xlink="http://www.w3.org/1999/xlink" width="32" height="32" viewBox="0 0 32 32">
  <defs>
    <path id="online-only-new-a" d="M1,17 L23,17 C23.5522847,17 24,17.4477153 24,18 L24,19 C24,19.5522847 23.5522847,20 23,20 L1,20 C0.44771525,20 6.76353751e-17,19.5522847 0,19 L0,18 C-6.76353751e-17,17.4477153 0.44771525,17 1,17 Z M2,0 L22,0 C22.5522847,-1.01453063e-16 23,0.44771525 23,1 L23,15 C23,15.5522847 22.5522847,16 22,16 L2,16 C1.44771525,16 1,15.5522847 1,15 L1,1 C1,0.44771525 1.44771525,1.01453063e-16 2,0 Z M4,2 C3.44771525,2 3,2.44771525 3,3 L3,13 C3,13.5522847 3.44771525,14 4,14 L20,14 C20.5522847,14 21,13.5522847 21,13 L21,3 C21,2.44771525 20.5522847,2 20,2 L4,2 Z M13.5882866,8.35084972 L16.5788735,11.3414367 L15.3414367,12.5788735 L12.3637765,9.60121333 L11.1711137,12.1208612 L7.49874997,3.4509975 L16.1208612,7.17111373 L13.5882866,8.35084972 Z"/>
  </defs>
  <g fill="none" fill-rule="evenodd" transform="translate(4 6)">
    <use fill="#384048" xlink:href="#online-only-new-a"/>
  </g>
</svg>
