<?xml version="1.0" encoding="UTF-8"?>
<svg width="48px" height="48px" viewBox="0 0 48 48" version="1.1" xmlns="http://www.w3.org/2000/svg" xmlns:xlink="http://www.w3.org/1999/xlink">
    <!-- Generator: Sketch 46.2 (44496) - http://www.bohemiancoding.com/sketch -->
    <title>icon/Utility/parts-services</title>
    <desc>Created with Sketch.</desc>
    <defs>
        <path d="M2.3266045,23.6295657 C1.75506437,23.0592145 1.75506437,22.1341544 2.32647621,21.5636751 C2.89788804,20.993452 3.82466825,20.993452 4.39608008,21.5639312 C4.9677485,22.1344105 4.96762021,23.0592145 4.39620838,23.6296938 C3.82479654,24.200045 2.89827291,24.200045 2.3266045,23.6295657 L2.3266045,23.6295657 Z M18.3734755,12.0992252 L5.42600693,25.022662 C4.18478343,26.2617098 2.17226942,26.2617098 0.930917626,25.022662 C-0.310305875,23.7836143 -0.310305875,21.7749638 0.930917626,20.5360441 L13.8782579,7.61260723 C13.3804856,5.59499292 13.9211074,3.37428542 15.5005081,1.79781616 C17.2307801,0.0707557273 19.735165,-0.411750665 21.8985502,0.349272554 L18.1569189,4.08408716 C17.6405442,4.5993753 17.6405442,5.43518189 18.1569189,5.95059808 L18.9670818,6.75925728 C19.0130103,6.80010642 19.0602217,6.83903475 19.1043541,6.88308522 C19.1484865,6.9271357 19.1876155,6.97438752 19.2286689,7.02035881 L20.0385752,7.8287619 C20.5550781,8.34405004 21.3921824,8.34405004 21.908557,7.8287619 L25.6501884,4.09407535 C26.4124984,6.25331706 25.9289665,8.75318165 24.1988228,10.480114 C22.6195503,12.0565833 20.3948416,12.5960736 18.3734755,12.0992252 Z M16.8872146,14.8796555 L18.0081003,13.7607221 L24.8441308,20.5840642 C26.0854826,21.8229839 26.0853543,23.8317625 24.8441308,25.0708102 C23.602779,26.3097299 21.590265,26.3097299 20.3490415,25.0708102 L13.513011,18.2474681 L14.6340251,17.1285348 L14.6341534,17.1285348 L21.662365,24.1437014 C21.8335063,24.314525 22.1108732,24.314525 22.2820145,24.1437014 C22.4530275,23.9730058 22.4531558,23.6960256 22.2820145,23.5250739 L15.2538029,16.5100353 L16.267565,15.4981549 L23.2957766,22.5133215 C23.4667896,22.6840171 23.7444132,22.6840171 23.9155545,22.5133215 C24.0866958,22.3423698 24.0865675,22.0656457 23.9154262,21.8949501 L16.8872146,14.8796555 Z M10.7744935,9.22173019 L9.0842486,10.9087098 L4.93028728,6.60700142 L2.85901561,6.052913 L0.0736715861,1.75043629 L1.59893321,0.227877634 L5.90953886,3.00830791 L6.46452934,5.07573511 L10.7744935,9.22173019 Z" id="path-1"></path>
    </defs>
    <g id="Symbols" stroke="none" stroke-width="1" fill="none" fill-rule="evenodd">
        <g id="icon/Utility/parts-services">
            <g id="Icon" transform="translate(11.000000, 11.000000)">
                <mask id="mask-2" fill="white">
                    <use xlink:href="#path-1"></use>
                </mask>
                <use id="Mask" fill="#384048" xlink:href="#path-1"></use>
                <g id="Color/Grayscale/Night-Sky" mask="url(#mask-2)" fill="#111111">
                    <g transform="translate(-11.000000, -11.000000)" id="Swatch">
                        <rect x="0" y="0" width="48" height="48"></rect>
                    </g>
                </g>
            </g>
        </g>
    </g>
</svg>