<?xml version="1.0" encoding="utf-8"?>
<!-- Generator: Adobe Illustrator 21.0.2, SVG Export Plug-In . SVG Version: 6.00 Build 0)  -->
<svg version="1.1" id="icon_x2F_Utility_x2F_parts-services-Layer_1" xmlns="http://www.w3.org/2000/svg" xmlns:xlink="http://www.w3.org/1999/xlink" x="0px" y="0px"
	 viewBox="0 0 48 48" style="enable-background:new 0 0 48 48;" xml:space="preserve">
<title>icon/Utility/parts-services</title>
<desc>Created with Sketch.</desc>
<g id="icon_x2F_Utility_x2F_parts-services-Symbols">
	<g id="icon_x2F_Utility_x2F_parts-services">
		<g id="icon_x2F_Utility_x2F_parts-services-Icon" transform="translate(11.000000, 11.000000)">
			<g id="icon_x2F_Utility_x2F_parts-services-Mask">
				<path id="icon_x2F_Utility_x2F_parts-services-path-1_1_" style="fill:#384048;" d="M2.3,23.6c-0.6-0.6-0.6-1.5,0-2.1c0.6-0.6,1.5-0.6,2.1,0c0.6,0.6,0.6,1.5,0,2.1
					C3.8,24.2,2.9,24.2,2.3,23.6L2.3,23.6z M18.4,12.1L5.4,25c-1.2,1.2-3.3,1.2-4.5,0c-1.2-1.2-1.2-3.2,0-4.5L13.9,7.6
					c-0.5-2,0-4.2,1.6-5.8c1.7-1.7,4.2-2.2,6.4-1.4l-3.7,3.7c-0.5,0.5-0.5,1.4,0,1.9L19,6.8c0,0,0.1,0.1,0.1,0.1
					c0,0,0.1,0.1,0.1,0.1L20,7.8c0.5,0.5,1.4,0.5,1.9,0l3.7-3.7c0.8,2.2,0.3,4.7-1.5,6.4C22.6,12.1,20.4,12.6,18.4,12.1z M16.9,14.9
					l1.1-1.1l6.8,6.8c1.2,1.2,1.2,3.2,0,4.5c-1.2,1.2-3.3,1.2-4.5,0l-6.8-6.8l1.1-1.1h0l7,7c0.2,0.2,0.4,0.2,0.6,0
					c0.2-0.2,0.2-0.4,0-0.6l-7-7l1-1l7,7c0.2,0.2,0.4,0.2,0.6,0c0.2-0.2,0.2-0.4,0-0.6L16.9,14.9z M10.8,9.2l-1.7,1.7L4.9,6.6
					L2.9,6.1L0.1,1.8l1.5-1.5L5.9,3l0.6,2.1L10.8,9.2z"/>
			</g>
			<defs>
				<filter id="icon_x2F_Utility_x2F_parts-services-Adobe_OpacityMaskFilter" filterUnits="userSpaceOnUse" x="-11" y="-11" width="48" height="48">
					<feColorMatrix  type="matrix" values="1 0 0 0 0  0 1 0 0 0  0 0 1 0 0  0 0 0 1 0"/>
				</filter>
			</defs>
			<mask maskUnits="userSpaceOnUse" x="-11" y="-11" width="48" height="48" id="icon_x2F_Utility_x2F_parts-services-mask-2">
				<g style="filter:url(#icon_x2F_Utility_x2F_parts-services-Adobe_OpacityMaskFilter);">
					<path id="icon_x2F_Utility_x2F_parts-services-path-1" style="fill:#FFFFFF;" d="M2.3,23.6c-0.6-0.6-0.6-1.5,0-2.1c0.6-0.6,1.5-0.6,2.1,0c0.6,0.6,0.6,1.5,0,2.1
						C3.8,24.2,2.9,24.2,2.3,23.6L2.3,23.6z M18.4,12.1L5.4,25c-1.2,1.2-3.3,1.2-4.5,0c-1.2-1.2-1.2-3.2,0-4.5L13.9,7.6
						c-0.5-2,0-4.2,1.6-5.8c1.7-1.7,4.2-2.2,6.4-1.4l-3.7,3.7c-0.5,0.5-0.5,1.4,0,1.9L19,6.8c0,0,0.1,0.1,0.1,0.1
						c0,0,0.1,0.1,0.1,0.1L20,7.8c0.5,0.5,1.4,0.5,1.9,0l3.7-3.7c0.8,2.2,0.3,4.7-1.5,6.4C22.6,12.1,20.4,12.6,18.4,12.1z
						 M16.9,14.9l1.1-1.1l6.8,6.8c1.2,1.2,1.2,3.2,0,4.5c-1.2,1.2-3.3,1.2-4.5,0l-6.8-6.8l1.1-1.1h0l7,7c0.2,0.2,0.4,0.2,0.6,0
						c0.2-0.2,0.2-0.4,0-0.6l-7-7l1-1l7,7c0.2,0.2,0.4,0.2,0.6,0c0.2-0.2,0.2-0.4,0-0.6L16.9,14.9z M10.8,9.2l-1.7,1.7L4.9,6.6
						L2.9,6.1L0.1,1.8l1.5-1.5L5.9,3l0.6,2.1L10.8,9.2z"/>
				</g>
			</mask>
			<g id="icon_x2F_Utility_x2F_parts-services-Color_x2F_Grayscale_x2F_Night-Sky" style="mask:url(#icon_x2F_Utility_x2F_parts-services-mask-2);">
				<g id="icon_x2F_Utility_x2F_parts-services-Swatch" transform="translate(-11.000000, -11.000000)">
					<rect style="fill:#111111;" width="48" height="48"/>
				</g>
			</g>
		</g>
	</g>
</g>
</svg>
