<svg id="icon_x2F_Utility_x2F_parts-services-Layer_1" xmlns="http://www.w3.org/2000/svg" viewBox="0 0 48 48" enable-background="new 0 0 48 48"><title>icon/Utility/parts-services</title><g id="icon_x2F_Utility_x2F_parts-services-Symbols"><g id="icon_x2F_Utility_x2F_parts-services"><g id="icon_x2F_Utility_x2F_parts-services-Icon" transform="translate(11 11)"><g id="icon_x2F_Utility_x2F_parts-services-Mask"><path id="icon_x2F_Utility_x2F_parts-services-path-1_1_" d="M2.3 23.6c-.6-.6-.6-1.5 0-2.1.6-.6 1.5-.6 2.1 0 .6.6.6 1.5 0 2.1-.6.6-1.5.6-2.1 0zm16.1-11.5L5.4 25c-1.2 1.2-3.3 1.2-4.5 0-1.2-1.2-1.2-3.2 0-4.5l13-12.9c-.5-2 0-4.2 1.6-5.8C17.2.1 19.7-.4 21.9.4l-3.7 3.7c-.5.5-.5 1.4 0 1.9l.8.8.1.1.1.1.8.8c.5.5 1.4.5 1.9 0l3.7-3.7c.8 2.2.3 4.7-1.5 6.4-1.5 1.6-3.7 2.1-5.7 1.6zm-1.5 2.8l1.1-1.1 6.8 6.8c1.2 1.2 1.2 3.2 0 4.5-1.2 1.2-3.3 1.2-4.5 0l-6.8-6.8 1.1-1.1 7 7c.2.2.4.2.6 0 .2-.2.2-.4 0-.6l-7-7 1-1 7 7c.2.2.4.2.6 0 .2-.2.2-.4 0-.6l-6.9-7.1zm-6.1-5.7l-1.7 1.7-4.2-4.3-2-.5L.1 1.8 1.6.3 5.9 3l.6 2.1 4.3 4.1z" fill="#384048"/></g><defs><filter id="icon_x2F_Utility_x2F_parts-services-Adobe_OpacityMaskFilter" filterUnits="userSpaceOnUse" x="-11" y="-11" width="48" height="48"><feColorMatrix values="1 0 0 0 0 0 1 0 0 0 0 0 1 0 0 0 0 0 1 0"/></filter></defs><mask maskUnits="userSpaceOnUse" x="-11" y="-11" width="48" height="48" id="icon_x2F_Utility_x2F_parts-services-mask-2"><g filter="url(#icon_x2F_Utility_x2F_parts-services-Adobe_OpacityMaskFilter)"><path id="icon_x2F_Utility_x2F_parts-services-path-1" d="M2.3 23.6c-.6-.6-.6-1.5 0-2.1.6-.6 1.5-.6 2.1 0 .6.6.6 1.5 0 2.1-.6.6-1.5.6-2.1 0zm16.1-11.5L5.4 25c-1.2 1.2-3.3 1.2-4.5 0-1.2-1.2-1.2-3.2 0-4.5l13-12.9c-.5-2 0-4.2 1.6-5.8C17.2.1 19.7-.4 21.9.4l-3.7 3.7c-.5.5-.5 1.4 0 1.9l.8.8.1.1.1.1.8.8c.5.5 1.4.5 1.9 0l3.7-3.7c.8 2.2.3 4.7-1.5 6.4-1.5 1.6-3.7 2.1-5.7 1.6zm-1.5 2.8l1.1-1.1 6.8 6.8c1.2 1.2 1.2 3.2 0 4.5-1.2 1.2-3.3 1.2-4.5 0l-6.8-6.8 1.1-1.1 7 7c.2.2.4.2.6 0 .2-.2.2-.4 0-.6l-7-7 1-1 7 7c.2.2.4.2.6 0 .2-.2.2-.4 0-.6l-6.9-7.1zm-6.1-5.7l-1.7 1.7-4.2-4.3-2-.5L.1 1.8 1.6.3 5.9 3l.6 2.1 4.3 4.1z" fill="#fff"/></g></mask><g id="icon_x2F_Utility_x2F_parts-services-Color_x2F_Grayscale_x2F_Night-Sky" mask="url(#icon_x2F_Utility_x2F_parts-services-mask-2)"><path fill="#111" d="M0 0h48v48H0z" transform="translate(-11 -11)" id="icon_x2F_Utility_x2F_parts-services-Swatch"/></g></g></g></g></svg>