<?xml version="1.0" encoding="utf-8"?>
<svg version="1.1" id="icon_x2F_Utility_x2F_parts-services-Layer_1"
	 xmlns="http://www.w3.org/2000/svg" xmlns:xlink="http://www.w3.org/1999/xlink" x="0px" y="0px" viewBox="0 0 48 48"
	 style="enable-background:new 0 0 48 48;" xml:space="preserve">
<path id="icon_x2F_Utility_x2F_parts-services-path-1_1_" style="fill:#111111;" d="M13.3,34.6c-0.6-0.6-0.6-1.5,0-2.1
	c0.6-0.6,1.5-0.6,2.1,0c0.6,0.6,0.6,1.5,0,2.1C14.8,35.2,13.9,35.2,13.3,34.6z M29.4,23.1L16.4,36c-1.2,1.2-3.3,1.2-4.5,0
	s-1.2-3.2,0-4.5l13-12.9c-0.5-2,0-4.2,1.6-5.8c1.7-1.7,4.2-2.2,6.4-1.4l-3.7,3.7c-0.5,0.5-0.5,1.4,0,1.9l0.8,0.8l0.1,0.1l0.1,0.1
	l0.8,0.8c0.5,0.5,1.4,0.5,1.9,0l3.7-3.7c0.8,2.2,0.3,4.7-1.5,6.4C33.6,23.1,31.4,23.6,29.4,23.1z M27.9,25.9l1.1-1.1l6.8,6.8
	c1.2,1.2,1.2,3.2,0,4.5c-1.2,1.2-3.3,1.2-4.5,0l-6.8-6.8l1.1-1.1l7,7c0.2,0.2,0.4,0.2,0.6,0c0.2-0.2,0.2-0.4,0-0.6l-7-7l1-1l7,7
	c0.2,0.2,0.4,0.2,0.6,0s0.2-0.4,0-0.6C34.8,33,27.9,25.9,27.9,25.9z M21.8,20.2l-1.7,1.7l-4.2-4.3l-2-0.5l-2.8-4.3l1.5-1.5l4.3,2.7
	l0.6,2.1C17.5,16.1,21.8,20.2,21.8,20.2z"/>
</svg>
