<svg xmlns="http://www.w3.org/2000/svg" xmlns:xlink="http://www.w3.org/1999/xlink" width="32" height="32" viewBox="0 0 32 32" aria-labaria-lelledby="title-019">
  <defs>
    <path id="piggy-bank-a" d="M7.63665495,4.94573885 L7.6271555,4.85916343 C7.60845659,4.68653858 7.59925713,4.52464361 7.59925713,4.36432656 C7.59925713,1.95788773 9.48324733,0 11.7990124,0 C14.1147774,0 15.9987676,1.95778253 15.9989676,4.36432656 C15.9989676,4.46510329 15.9898681,4.56588001 15.9812686,4.6632905 C15.9787688,4.6903256 15.9763689,4.71746588 15.9741691,4.74450098 L15.9668695,4.8329699 L15.8858742,4.80456727 C15.631689,4.71567757 15.3472056,4.63267878 14.9905264,4.5434735 L14.9378294,4.53021894 L14.9390294,4.47404486 C14.9395293,4.45479419 14.9412292,4.43575391 14.9430291,4.41671363 C14.9446291,4.39925127 14.9464289,4.38178892 14.9464289,4.36432656 C14.9464289,2.56107536 13.5344112,1.0940271 11.7990124,1.0940271 C10.0636135,1.0940271 8.65169579,2.56107536 8.65169579,4.36432656 C8.65169579,4.4070357 8.6549956,4.44911366 8.6583954,4.49361111 C8.6601953,4.51612282 8.6618952,4.53873973 8.66319512,4.56135663 L8.66659493,4.61858267 L8.61309804,4.63299437 C8.32251498,4.71125939 8.02903208,4.80425169 7.71585033,4.91712583 L7.63665495,4.94573885 Z M23.9926018,9.63332938 C24.0552981,10.318569 23.7160179,10.9182852 23.1074533,11.1985245 C22.8949657,11.2962506 22.6820781,11.3446402 22.4769901,11.3446402 C22.1486092,11.3446402 21.8401272,11.2208258 21.5845421,10.9781411 C21.3190576,10.7260941 21.1385681,10.3739016 21.0347741,9.99488429 C20.9410796,10.0560025 20.8460851,10.1162792 20.7505907,10.1746624 C21.0974705,10.914393 21.2642608,11.6350834 21.2614609,12.2989685 C21.2456618,15.9055761 18.9336966,17.5758609 18.9336966,17.5758609 C18.737008,17.717874 18.497222,18.0207302 18.4008276,18.2492136 L16.9487123,21.5712689 C16.8520179,21.7997523 16.5775339,21.986368 16.3389478,21.986368 L13.9663861,21.986368 C13.7277,21.986368 13.5998074,21.8144796 13.5998074,21.5652728 L13.5998074,20.4081288 C13.5998074,20.1578701 13.3388226,19.8821542 13.0998366,19.8821542 L9.93912076,19.9000373 C9.70073466,19.9000373 9.50564603,20.2091 9.50564603,20.4592535 L9.50564603,21.5095195 C9.50564603,21.759147 9.31015742,21.965855 9.07177131,21.9697472 L6.94289538,21.9999382 C6.70450927,22.0038304 6.42202573,21.8234211 6.31533195,21.6000923 L4.68662687,18.1843083 C4.57993309,17.9605587 4.3773449,17.6134155 4.23605313,17.4121776 L2.73584056,15.4940536 C2.65584522,15.258417 2.39486043,15.0661207 2.15647432,15.0661207 L0.433874714,15.0661207 C0.195288619,15.0661207 0,14.8619373 0,14.6123098 L0,10.4112458 C0,10.1619338 0.195088631,9.95396347 0.433874714,9.95007126 L2.03428145,9.92208941 C2.27296754,9.9183024 2.55095133,9.72937233 2.65234543,9.50351885 C2.65234543,9.50351885 3.50739559,7.45411155 4.70032607,6.94317986 L4.28045054,5.30003531 C4.19835533,5.06513507 4.36934536,4.73745292 4.55953428,4.8039361 L7.40016873,5.57564599 C7.61885599,5.67516038 7.8845405,5.47213419 8.10012794,5.36525616 C8.10012794,5.36525616 12.2998832,3.19455913 16.7867217,6.04018672 C18.2871343,6.99146432 19.3882701,8.04604333 20.1233272,9.09904441 C20.2346208,9.03171967 20.3521139,8.95492738 20.4731069,8.87582081 C20.6385972,8.76747005 20.814487,8.65249201 21.0003761,8.545088 C21.0085757,8.51216199 21.0174751,8.48007754 21.0269746,8.44862426 C21.3786541,7.29568801 22.0719137,6.75193551 23.3449395,6.6301198 C23.6752202,6.5990873 23.9668033,6.85450055 23.9968015,7.20164376 C24.0266998,7.54878698 23.7836139,7.85574573 23.4535332,7.8874094 C23.0641559,7.9246484 22.803971,7.99681211 22.6190818,8.11715509 C22.6865779,8.12546549 22.7548739,8.1375629 22.8236699,8.15376292 C23.4458336,8.30072022 23.9263056,8.9090624 23.9926018,9.63332938 Z M16.3152492,9.26251731 C16.4842393,8.96260661 16.3899448,8.57548933 16.1048614,8.39792031 C13.6903022,6.89310708 10.158008,6.88784734 7.51476205,8.38519173 C7.22307905,8.55045294 7.11388541,8.93325723 7.27097626,9.24011079 C7.37936994,9.45176296 7.58615789,9.57210594 7.79974544,9.57210594 C7.89573985,9.57210594 7.99313417,9.54780591 8.0836289,9.49657599 C10.3752953,8.19836556 13.4223178,8.19310582 15.4931971,9.4838474 C15.7783805,9.66152161 16.146259,9.562428 16.3152492,9.26251731 Z"/>
  </defs>
  <title id="title-019" lang="en">savings</title>
  <g fill="none" fill-rule="evenodd" transform="translate(4 5)">
    <use fill="#384048" xlink:href="#piggy-bank-a"/>
  </g>
</svg>
