<?xml version="1.0" encoding="utf-8"?>
<svg version="1.1" id="icon_x2F_Utility_x2F_piggy-bank-Layer_1"
	 xmlns="http://www.w3.org/2000/svg" xmlns:xlink="http://www.w3.org/1999/xlink" x="0px" y="0px" viewBox="0 0 48 48"
	 style="enable-background:new 0 0 48 48;" xml:space="preserve">
<path id="icon_x2F_Utility_x2F_piggy-bank-path-1_1_" style="fill:#111111;" d="M19.3,17.4v-0.6c0-2.6,2-4.8,4.5-4.8
	s4.5,2.1,4.5,4.8v0.5h-0.1c-0.3-0.1-0.6-0.2-1-0.3h-0.1v-0.1v-0.1v-0.1c0-2-1.5-3.6-3.4-3.6s-3.3,1.7-3.3,3.7v0.3h-0.1
	C20,17.1,19.7,17.2,19.3,17.4z M37,22.5c0.1,0.7-0.3,1.4-1,1.7c-0.2,0.1-0.5,0.2-0.7,0.2c-0.4,0-0.7-0.1-1-0.4s-0.5-0.7-0.6-1.1
	c-0.1,0.1-0.2,0.1-0.3,0.2c0.4,0.8,0.6,1.6,0.6,2.3c0,3.9-2.5,5.8-2.5,5.8c-0.2,0.2-0.5,0.5-0.6,0.7l-1.6,3.6c0,0.3-0.3,0.5-0.6,0.5
	h-2.6c-0.3,0-0.4-0.2-0.4-0.5v-1.3c0-0.3-0.3-0.6-0.5-0.6h-3.4c-0.3,0-0.5,0.3-0.5,0.6v1.1c0,0.3-0.2,0.5-0.5,0.5h-2.3
	c-0.3,0-0.6-0.2-0.7-0.4L16,31.7c0-0.1-0.3-0.5-0.4-0.7L14,28.9c-0.1-0.3-0.4-0.5-0.6-0.5h-1.9c-0.3,0-0.5-0.2-0.5-0.5v-4.6
	c0-0.3,0.2-0.5,0.5-0.5h1.7c0.3,0,0.6-0.2,0.7-0.5c0,0,0.9-2.2,2.2-2.8l-0.5-1.7c-0.1-0.3,0.1-0.6,0.3-0.6l3.1,0.9
	c0.3,0.1,0.5-0.1,0.8-0.2c0,0,4.5-2.4,9.4,0.7c1.6,1,2.8,2.2,3.6,3.3c0.1-0.1,0.2-0.2,0.4-0.2c0.2-0.1,0.4-0.2,0.6-0.4v-0.1
	c0.4-1.3,1.1-1.9,2.5-2c0.4,0,0.7,0.2,0.7,0.6c0,0.4-0.2,0.7-0.6,0.7s-0.7,0.1-0.9,0.3h0.2C36.4,21.1,36.9,21.7,37,22.5z M28.7,22.1
	c0.2-0.3,0.1-0.7-0.2-0.9c-2.6-1.6-6.4-1.6-9.3,0c-0.3,0.2-0.4,0.6-0.3,0.9c0.1,0.2,0.3,0.4,0.6,0.4c0.1,0,0.2,0,0.3-0.1
	c2.5-1.4,5.8-1.4,8,0C28.1,22.5,28.5,22.4,28.7,22.1z"/>
</svg>
