<?xml version="1.0" encoding="utf-8"?>
<!-- Generator: Adobe Illustrator 21.0.2, SVG Export Plug-In . SVG Version: 6.00 Build 0)  -->
<svg version="1.1" id="icon_x2F_Utility_x2F_piggy-bank-Layer_1" xmlns="http://www.w3.org/2000/svg" xmlns:xlink="http://www.w3.org/1999/xlink" x="0px" y="0px"
	 viewBox="0 0 48 48" style="enable-background:new 0 0 48 48;" xml:space="preserve">
<title>icon/Utility/piggy-bank</title>
<desc>Created with Sketch.</desc>
<g id="icon_x2F_Utility_x2F_piggy-bank-Symbols">
	<g id="icon_x2F_Utility_x2F_piggy-bank">
		<g id="icon_x2F_Utility_x2F_piggy-bank-Icon" transform="translate(11.000000, 12.000000)">
			<g id="icon_x2F_Utility_x2F_piggy-bank-Mask">
				<path id="icon_x2F_Utility_x2F_piggy-bank-path-1_1_" style="fill:#384048;" d="M8.3,5.4L8.3,5.4c0-0.3,0-0.5,0-0.6c0-2.6,2-4.8,4.5-4.8s4.5,2.1,4.5,4.8
					c0,0.1,0,0.2,0,0.3c0,0,0,0.1,0,0.1l0,0.1l-0.1,0c-0.3-0.1-0.6-0.2-1-0.3l-0.1,0l0-0.1c0,0,0,0,0-0.1c0,0,0,0,0-0.1
					c0-2-1.5-3.6-3.4-3.6S9.4,2.8,9.4,4.8c0,0,0,0.1,0,0.1c0,0,0,0,0,0.1l0,0.1l-0.1,0C9,5.1,8.7,5.2,8.3,5.4L8.3,5.4z M26,10.5
					c0.1,0.7-0.3,1.4-1,1.7c-0.2,0.1-0.5,0.2-0.7,0.2c-0.4,0-0.7-0.1-1-0.4c-0.3-0.3-0.5-0.7-0.6-1.1c-0.1,0.1-0.2,0.1-0.3,0.2
					c0.4,0.8,0.6,1.6,0.6,2.3c0,3.9-2.5,5.8-2.5,5.8c-0.2,0.2-0.5,0.5-0.6,0.7l-1.6,3.6C18.3,23.8,18,24,17.7,24h-2.6
					c-0.3,0-0.4-0.2-0.4-0.5v-1.3c0-0.3-0.3-0.6-0.5-0.6l-3.4,0c-0.3,0-0.5,0.3-0.5,0.6v1.1c0,0.3-0.2,0.5-0.5,0.5l-2.3,0
					c-0.3,0-0.6-0.2-0.7-0.4l-1.8-3.7C5,19.6,4.7,19.2,4.6,19L3,16.9c-0.1-0.3-0.4-0.5-0.6-0.5H0.5c-0.3,0-0.5-0.2-0.5-0.5v-4.6
					c0-0.3,0.2-0.5,0.5-0.5l1.7,0c0.3,0,0.6-0.2,0.7-0.5c0,0,0.9-2.2,2.2-2.8L4.6,5.8C4.5,5.5,4.7,5.2,4.9,5.2L8,6.1
					C8.3,6.2,8.5,6,8.8,5.9c0,0,4.5-2.4,9.4,0.7c1.6,1,2.8,2.2,3.6,3.3c0.1-0.1,0.2-0.2,0.4-0.2c0.2-0.1,0.4-0.2,0.6-0.4
					c0,0,0-0.1,0-0.1c0.4-1.3,1.1-1.9,2.5-2c0.4,0,0.7,0.2,0.7,0.6c0,0.4-0.2,0.7-0.6,0.7c-0.4,0-0.7,0.1-0.9,0.3c0.1,0,0.1,0,0.2,0
					C25.4,9.1,25.9,9.7,26,10.5z M17.7,10.1c0.2-0.3,0.1-0.7-0.2-0.9c-2.6-1.6-6.4-1.6-9.3,0c-0.3,0.2-0.4,0.6-0.3,0.9
					c0.1,0.2,0.3,0.4,0.6,0.4c0.1,0,0.2,0,0.3-0.1c2.5-1.4,5.8-1.4,8,0C17.1,10.5,17.5,10.4,17.7,10.1z"/>
			</g>
			<defs>
				<filter id="icon_x2F_Utility_x2F_piggy-bank-Adobe_OpacityMaskFilter" filterUnits="userSpaceOnUse" x="-11" y="-12" width="48" height="48">
					<feColorMatrix  type="matrix" values="1 0 0 0 0  0 1 0 0 0  0 0 1 0 0  0 0 0 1 0"/>
				</filter>
			</defs>
			<mask maskUnits="userSpaceOnUse" x="-11" y="-12" width="48" height="48" id="icon_x2F_Utility_x2F_piggy-bank-mask-2">
				<g style="filter:url(#icon_x2F_Utility_x2F_piggy-bank-Adobe_OpacityMaskFilter);">
					<path id="icon_x2F_Utility_x2F_piggy-bank-path-1" style="fill:#FFFFFF;" d="M8.3,5.4L8.3,5.4c0-0.3,0-0.5,0-0.6c0-2.6,2-4.8,4.5-4.8s4.5,2.1,4.5,4.8
						c0,0.1,0,0.2,0,0.3c0,0,0,0.1,0,0.1l0,0.1l-0.1,0c-0.3-0.1-0.6-0.2-1-0.3l-0.1,0l0-0.1c0,0,0,0,0-0.1c0,0,0,0,0-0.1
						c0-2-1.5-3.6-3.4-3.6S9.4,2.8,9.4,4.8c0,0,0,0.1,0,0.1c0,0,0,0,0,0.1l0,0.1l-0.1,0C9,5.1,8.7,5.2,8.3,5.4L8.3,5.4z M26,10.5
						c0.1,0.7-0.3,1.4-1,1.7c-0.2,0.1-0.5,0.2-0.7,0.2c-0.4,0-0.7-0.1-1-0.4c-0.3-0.3-0.5-0.7-0.6-1.1c-0.1,0.1-0.2,0.1-0.3,0.2
						c0.4,0.8,0.6,1.6,0.6,2.3c0,3.9-2.5,5.8-2.5,5.8c-0.2,0.2-0.5,0.5-0.6,0.7l-1.6,3.6C18.3,23.8,18,24,17.7,24h-2.6
						c-0.3,0-0.4-0.2-0.4-0.5v-1.3c0-0.3-0.3-0.6-0.5-0.6l-3.4,0c-0.3,0-0.5,0.3-0.5,0.6v1.1c0,0.3-0.2,0.5-0.5,0.5l-2.3,0
						c-0.3,0-0.6-0.2-0.7-0.4l-1.8-3.7C5,19.6,4.7,19.2,4.6,19L3,16.9c-0.1-0.3-0.4-0.5-0.6-0.5H0.5c-0.3,0-0.5-0.2-0.5-0.5v-4.6
						c0-0.3,0.2-0.5,0.5-0.5l1.7,0c0.3,0,0.6-0.2,0.7-0.5c0,0,0.9-2.2,2.2-2.8L4.6,5.8C4.5,5.5,4.7,5.2,4.9,5.2L8,6.1
						C8.3,6.2,8.5,6,8.8,5.9c0,0,4.5-2.4,9.4,0.7c1.6,1,2.8,2.2,3.6,3.3c0.1-0.1,0.2-0.2,0.4-0.2c0.2-0.1,0.4-0.2,0.6-0.4
						c0,0,0-0.1,0-0.1c0.4-1.3,1.1-1.9,2.5-2c0.4,0,0.7,0.2,0.7,0.6c0,0.4-0.2,0.7-0.6,0.7c-0.4,0-0.7,0.1-0.9,0.3
						c0.1,0,0.1,0,0.2,0C25.4,9.1,25.9,9.7,26,10.5z M17.7,10.1c0.2-0.3,0.1-0.7-0.2-0.9c-2.6-1.6-6.4-1.6-9.3,0
						c-0.3,0.2-0.4,0.6-0.3,0.9c0.1,0.2,0.3,0.4,0.6,0.4c0.1,0,0.2,0,0.3-0.1c2.5-1.4,5.8-1.4,8,0C17.1,10.5,17.5,10.4,17.7,10.1z"
						/>
				</g>
			</mask>
			<g id="icon_x2F_Utility_x2F_piggy-bank-Color_x2F_Grayscale_x2F_Night-Sky" style="mask:url(#icon_x2F_Utility_x2F_piggy-bank-mask-2);">
				<g id="icon_x2F_Utility_x2F_piggy-bank-Swatch" transform="translate(-11.000000, -12.000000)">
					<rect style="fill:#111111;" width="48" height="48"/>
				</g>
			</g>
		</g>
	</g>
</g>
</svg>
