<svg id="icon_x2F_Utility_x2F_recycle-Layer_1" xmlns="http://www.w3.org/2000/svg" viewBox="0 0 48 48" enable-background="new 0 0 48 48"><title>icon/Utility/recycle</title><g id="icon_x2F_Utility_x2F_recycle-Symbols"><g id="icon_x2F_Utility_x2F_recycle"><g id="icon_x2F_Utility_x2F_recycle-Icon" transform="translate(12 12)"><g id="icon_x2F_Utility_x2F_recycle-Mask"><path id="icon_x2F_Utility_x2F_recycle-path-1_1_" d="M14.9 6.7l1.1.4-2.8-4.9c-.3-.4-.7-.7-1.2-.7s-1 .3-1.2.7L7.2 8.4c-.1.2-.4.4-.6.4-.1 0-.2 0-.3-.1-.4-.2-.5-.7-.3-1l3.6-6.3C10 .5 11 0 12 0s1.9.5 2.4 1.4l2.8 4.9.3-1.1c.1-.4.5-.6.9-.5.4.1.6.5.5.9l-.8 2.8c0 .2-.2.3-.3.4-.1.1-.2.1-.3.1h-.2l-2.7-.8c-.5-.1-.7-.5-.6-.9.1-.3.5-.6.9-.5zm8.7 11c.5.9.5 2 0 2.9-.5.9-1.4 1.4-2.4 1.4h-5.6l.8.8c.3.3.3.7 0 1-.1.1-.3.2-.5.2s-.4-.1-.5-.2l-2-2.1c-.1-.1-.2-.3-.2-.5s.1-.4.2-.5l2-2c.3-.3.7-.3 1 0 .3.3.3.7 0 1l-.8.8h5.6c.5 0 1-.3 1.2-.7.3-.4.3-1 0-1.4l-3.6-6.3c-.2-.3-.1-.8.3-1 .3-.2.8-.1.9.3l3.6 6.3zm-13.7 3c.4 0 .7.3.7.7 0 .4-.3.7-.7.7H2.8c-1 0-1.9-.5-2.4-1.4-.5-.9-.5-2 0-2.9l2.8-4.9-1.1.3c-.4.1-.8-.1-.8-.5-.1-.4.1-.8.5-.9l2.7-.7c.2 0 .4 0 .5.1.2.1.3.3.3.4l.7 2.8c.1.4-.1.8-.5.9h-.2c-.3 0-.6-.2-.7-.5l-.3-1.1-2.8 4.9c-.3.4-.3 1 0 1.4s.7.7 1.2.7h7.2z" fill="#333"/></g><defs><filter id="icon_x2F_Utility_x2F_recycle-Adobe_OpacityMaskFilter" filterUnits="userSpaceOnUse" x="-12" y="-12" width="48" height="48"><feColorMatrix values="1 0 0 0 0 0 1 0 0 0 0 0 1 0 0 0 0 0 1 0"/></filter></defs><mask maskUnits="userSpaceOnUse" x="-12" y="-12" width="48" height="48" id="icon_x2F_Utility_x2F_recycle-mask-2"><g filter="url(#icon_x2F_Utility_x2F_recycle-Adobe_OpacityMaskFilter)"><path id="icon_x2F_Utility_x2F_recycle-path-1" d="M14.9 6.7l1.1.4-2.8-4.9c-.3-.4-.7-.7-1.2-.7s-1 .3-1.2.7L7.2 8.4c-.1.2-.4.4-.6.4-.1 0-.2 0-.3-.1-.4-.2-.5-.7-.3-1l3.6-6.3C10 .5 11 0 12 0s1.9.5 2.4 1.4l2.8 4.9.3-1.1c.1-.4.5-.6.9-.5.4.1.6.5.5.9l-.8 2.8c0 .2-.2.3-.3.4-.1.1-.2.1-.3.1h-.2l-2.7-.8c-.5-.1-.7-.5-.6-.9.1-.3.5-.6.9-.5zm8.7 11c.5.9.5 2 0 2.9-.5.9-1.4 1.4-2.4 1.4h-5.6l.8.8c.3.3.3.7 0 1-.1.1-.3.2-.5.2s-.4-.1-.5-.2l-2-2.1c-.1-.1-.2-.3-.2-.5s.1-.4.2-.5l2-2c.3-.3.7-.3 1 0 .3.3.3.7 0 1l-.8.8h5.6c.5 0 1-.3 1.2-.7.3-.4.3-1 0-1.4l-3.6-6.3c-.2-.3-.1-.8.3-1 .3-.2.8-.1.9.3l3.6 6.3zm-13.7 3c.4 0 .7.3.7.7 0 .4-.3.7-.7.7H2.8c-1 0-1.9-.5-2.4-1.4-.5-.9-.5-2 0-2.9l2.8-4.9-1.1.3c-.4.1-.8-.1-.8-.5-.1-.4.1-.8.5-.9l2.7-.7c.2 0 .4 0 .5.1.2.1.3.3.3.4l.7 2.8c.1.4-.1.8-.5.9h-.2c-.3 0-.6-.2-.7-.5l-.3-1.1-2.8 4.9c-.3.4-.3 1 0 1.4s.7.7 1.2.7h7.2z" fill="#fff"/></g></mask><g id="icon_x2F_Utility_x2F_recycle-Color_x2F_Grayscale_x2F_Night-Sky" mask="url(#icon_x2F_Utility_x2F_recycle-mask-2)"><path fill="#111" d="M0 0h48v48H0z" transform="translate(-12 -12)" id="icon_x2F_Utility_x2F_recycle-Swatch"/></g></g></g></g></svg>