<?xml version="1.0" encoding="UTF-8"?>
<svg width="48px" height="48px" viewBox="0 0 48 48" version="1.1" xmlns="http://www.w3.org/2000/svg" xmlns:xlink="http://www.w3.org/1999/xlink">
    <!-- Generator: Sketch 46.2 (44496) - http://www.bohemiancoding.com/sketch -->
    <title>icon/Utility/ribbon</title>
    <desc>Created with Sketch.</desc>
    <defs>
        <path d="M19.3632787,8.35818844 C20.2245902,9.6191174 20.1085246,10.8586273 19.0276503,11.9424988 C18.426776,12.5453552 18.1361749,13.0877215 18.1130055,13.6491389 C18.1092896,13.7352459 18.1036066,13.8184468 18.0968306,13.9000331 C17.9817486,15.1951896 17.3476503,15.9457195 16.0543169,16.2997268 C16.063388,16.3362146 16.0722404,16.3702269 16.0801093,16.3970277 C16.3194536,17.2096622 16.4930055,17.8089667 16.6333333,18.2936413 C17.0785792,19.8314042 17.1843716,20.196713 17.9915847,22.5515234 C18.0736612,22.7909008 18.0064481,23.0553568 17.8196721,23.2284319 C17.6327869,23.4015069 17.3605464,23.4515565 17.1231694,23.3563007 C17.0656831,23.3332671 16.8444809,23.2527571 16.6101639,23.1675112 C15.984153,22.9398659 15.0379235,22.5957609 14.5528962,22.3881355 C14.4793443,22.3565988 14.413224,22.3407766 14.3559563,22.3407766 C14.1009836,22.3407766 13.8414208,22.7015648 13.7095082,22.9165094 C13.4549727,23.3310068 13.2448087,23.6883507 13.0014208,24.10231 C12.7533333,24.5240189 12.4722404,25.0020202 12.0984699,25.6161782 C11.9638251,25.8370426 11.7077596,25.9580229 11.4498361,25.9243335 C11.1904918,25.8904289 10.9765027,25.7080974 10.9051366,25.4603246 C10.5397814,24.191646 10.0977049,22.8480543 9.73606557,21.791737 C9.66568306,22.0455373 9.59945355,22.2842689 9.53289617,22.5241845 C9.31693989,23.3023762 9.09704918,24.0942375 8.72098361,25.4591406 C8.65202186,25.7091737 8.43803279,25.894519 8.17748634,25.9298228 C8.14754098,25.9338053 8.11759563,25.9358503 8.08797814,25.9358503 C7.85956284,25.9358503 7.64459016,25.8179914 7.5252459,25.621237 C7.11497268,24.9447591 6.82754098,24.4253188 6.54961749,23.9229922 C6.36054645,23.5813628 6.18196721,23.2587846 5.97825137,22.9118811 C5.8947541,22.7694817 5.66765027,22.4387233 5.36306011,22.4387233 C5.28775956,22.4387233 5.20568306,22.4584203 5.11923497,22.4970608 C4.70491803,22.682406 3.98786885,22.9235055 3.35519126,23.1362974 C3.00666667,23.2535105 2.64622951,23.3747061 2.53989071,23.4208809 C2.30174863,23.5245322 2.02404372,23.479326 1.83224044,23.306251 C1.64043716,23.133176 1.57060109,22.8646299 1.65453552,22.6220235 C2.77803279,19.3717006 2.8768306,19.047185 3.64579235,16.5210217 L3.71464481,16.2948833 C2.47355191,15.9367859 1.8663388,15.1869018 1.7568306,13.900356 C1.74994536,13.8162941 1.74469945,13.7325551 1.74142077,13.6477397 C1.71901639,13.0814787 1.44032787,12.5362063 0.864371585,11.9321659 C-0.164153005,10.8535685 -0.275409836,9.62148535 0.542622951,8.36905945 C0.999016393,7.67051664 1.1589071,6.92859745 1.03136612,6.10067892 C0.82852459,4.78324226 1.41409836,3.76222885 2.68,3.22578241 C3.63551913,2.82086438 4.27836066,2.26418281 4.70306011,1.47404372 C5.17650273,0.59263123 5.95486339,0.107095546 6.89464481,0.107095546 C7.12032787,0.107095546 7.35551913,0.135726114 7.5936612,0.19212618 C8.51256831,0.410084451 9.24983607,0.49845173 9.84863388,0.463255506 C9.86153005,0.462394436 9.87442623,0.462071535 9.88743169,0.462071535 L9.95726776,0.462071535 C10.8720219,0.435808909 11.7167213,0.2637026 12.0380328,0.190726942 C12.2829508,0.135295579 12.5243716,0.107203179 12.7557377,0.107203179 C13.7216393,0.107203179 14.5239344,0.588971684 15.015082,1.46371088 C15.4596721,2.25567975 16.135082,2.81429872 17.1402186,3.22179997 C18.4590164,3.75641663 19.0678689,4.78033615 18.8547541,6.10487664 C18.7227322,6.92633714 18.889071,7.66341282 19.3632787,8.35818844 Z M14.3389071,14.023489 C15.5369399,12.8390876 16.1926776,11.2822736 16.1850273,9.63978308 C16.1777049,8.00805597 15.5154098,6.47309157 14.3201093,5.31753602 C13.1476503,4.18393774 11.5710383,3.52274383 9.88087432,3.45579566 C9.86327869,3.45504223 9.84579235,3.45471932 9.82819672,3.45471932 C9.81202186,3.45471932 9.79584699,3.45504223 9.77967213,3.45558039 C8.13180328,3.51574764 6.58032787,4.17511177 5.41092896,5.3120467 C4.21431694,6.47545951 3.55147541,8.01246895 3.54448087,9.63999834 C3.53737705,11.2799056 4.1979235,12.8404868 5.40448087,14.0340371 C6.58874317,15.2057377 8.14863388,15.8798477 9.7968306,15.9321576 C9.81092896,15.9325882 9.82502732,15.9328034 9.83912568,15.9328034 C9.85551913,15.9328034 9.87180328,15.9324805 9.88819672,15.9318347 C11.5765027,15.8696225 13.1571585,15.191853 14.3389071,14.023489 Z M8.68,12.4064001 C8.50612022,12.4064001 8.33923497,12.3383756 8.21628415,12.21718 L6.6073224,10.6324888 C6.35125683,10.380303 6.35125683,9.97140255 6.60743169,9.71921676 C6.86349727,9.46703097 7.27879781,9.46703097 7.5347541,9.71932439 L8.68,10.8473257 L12.1951913,7.38550257 C12.4511475,7.13331677 12.8663388,7.13331677 13.1225137,7.38550257 C13.3785792,7.63768836 13.3785792,8.04658884 13.1224044,8.29877463 L9.14371585,12.2172876 C9.02065574,12.3383756 8.85387978,12.4064001 8.68,12.4064001 Z" id="path-1"></path>
    </defs>
    <g id="Symbols" stroke="none" stroke-width="1" fill="none" fill-rule="evenodd">
        <g id="icon/Utility/ribbon">
            <g id="Icon" transform="translate(14.000000, 11.000000)">
                <mask id="mask-2" fill="white">
                    <use xlink:href="#path-1"></use>
                </mask>
                <use id="Mask" fill="#333333" xlink:href="#path-1"></use>
                <g id="Color/Grayscale/Night-Sky" mask="url(#mask-2)" fill="#111111">
                    <g transform="translate(-10.000000, -6.500000)" id="Swatch">
                        <rect x="0" y="0" width="40" height="39"></rect>
                    </g>
                </g>
            </g>
        </g>
    </g>
</svg>