<svg id="icon_x2F_Utility_x2F_shield-Layer_1" xmlns="http://www.w3.org/2000/svg" viewBox="0 0 48 48" enable-background="new 0 0 48 48"><title>icon/Utility/shield</title><g id="icon_x2F_Utility_x2F_shield-Symbols"><g id="icon_x2F_Utility_x2F_shield"><g id="icon_x2F_Utility_x2F_shield-Icon" transform="translate(14 12)"><g id="icon_x2F_Utility_x2F_shield-Mask"><path id="icon_x2F_Utility_x2F_shield-path-1_1_" d="M10 24C.6 21.1 0 14.3 0 14.3V0h20v14.3s-.6 6.8-10 9.7zM6.9 10.7c-.7-.5-1.8-.4-2.4.3-.6.7-.4 1.8.3 2.3l3.4 2.5c.7.5 1.8.4 2.4-.3l5.9-7.8c.6-.7.4-1.8-.4-2.3-.7-.5-1.8-.4-2.3.3l-4.9 6.5-2-1.5z" fill="#384048"/></g><defs><filter id="icon_x2F_Utility_x2F_shield-Adobe_OpacityMaskFilter" filterUnits="userSpaceOnUse" x="-14" y="-12" width="48" height="48"><feColorMatrix values="1 0 0 0 0 0 1 0 0 0 0 0 1 0 0 0 0 0 1 0"/></filter></defs><mask maskUnits="userSpaceOnUse" x="-14" y="-12" width="48" height="48" id="icon_x2F_Utility_x2F_shield-mask-2"><g filter="url(#icon_x2F_Utility_x2F_shield-Adobe_OpacityMaskFilter)"><path id="icon_x2F_Utility_x2F_shield-path-1" d="M10 24C.6 21.1 0 14.3 0 14.3V0h20v14.3s-.6 6.8-10 9.7zM6.9 10.7c-.7-.5-1.8-.4-2.4.3-.6.7-.4 1.8.3 2.3l3.4 2.5c.7.5 1.8.4 2.4-.3l5.9-7.8c.6-.7.4-1.8-.4-2.3-.7-.5-1.8-.4-2.3.3l-4.9 6.5-2-1.5z" fill="#fff"/></g></mask><g id="icon_x2F_Utility_x2F_shield-Color_x2F_Grayscale_x2F_Night-Sky" mask="url(#icon_x2F_Utility_x2F_shield-mask-2)"><path fill="#111" d="M0 0h48v48H0z" transform="translate(-14 -12)" id="icon_x2F_Utility_x2F_shield-Swatch"/></g></g></g></g></svg>