<?xml version="1.0" encoding="utf-8"?>
<!-- Generator: Adobe Illustrator 21.0.2, SVG Export Plug-In . SVG Version: 6.00 Build 0)  -->
<svg version="1.1" id="icon_x2F_Utility_x2F_shield-Layer_1" xmlns="http://www.w3.org/2000/svg" xmlns:xlink="http://www.w3.org/1999/xlink" x="0px" y="0px"
	 viewBox="0 0 48 48" style="enable-background:new 0 0 48 48;" xml:space="preserve">
<title>icon/Utility/shield</title>
<desc>Created with Sketch.</desc>
<g id="icon_x2F_Utility_x2F_shield-Symbols">
	<g id="icon_x2F_Utility_x2F_shield">
		<g id="icon_x2F_Utility_x2F_shield-Icon" transform="translate(14.000000, 12.000000)">
			<g id="icon_x2F_Utility_x2F_shield-Mask">
				<path id="icon_x2F_Utility_x2F_shield-path-1_1_" style="fill:#384048;" d="M10,24c-9.4-2.9-10-9.7-10-9.7V0h9.2H20v14.3C20,14.3,19.4,21.1,10,24z M6.9,10.7
					c-0.7-0.5-1.8-0.4-2.4,0.3c-0.6,0.7-0.4,1.8,0.3,2.3l3.4,2.5c0.7,0.5,1.8,0.4,2.4-0.3l5.9-7.8c0.6-0.7,0.4-1.8-0.4-2.3
					c-0.7-0.5-1.8-0.4-2.3,0.3l-4.9,6.5L6.9,10.7z"/>
			</g>
			<defs>
				<filter id="icon_x2F_Utility_x2F_shield-Adobe_OpacityMaskFilter" filterUnits="userSpaceOnUse" x="-14" y="-12" width="48" height="48">
					<feColorMatrix  type="matrix" values="1 0 0 0 0  0 1 0 0 0  0 0 1 0 0  0 0 0 1 0"/>
				</filter>
			</defs>
			<mask maskUnits="userSpaceOnUse" x="-14" y="-12" width="48" height="48" id="icon_x2F_Utility_x2F_shield-mask-2">
				<g style="filter:url(#icon_x2F_Utility_x2F_shield-Adobe_OpacityMaskFilter);">
					<path id="icon_x2F_Utility_x2F_shield-path-1" style="fill:#FFFFFF;" d="M10,24c-9.4-2.9-10-9.7-10-9.7V0h9.2H20v14.3C20,14.3,19.4,21.1,10,24z M6.9,10.7
						c-0.7-0.5-1.8-0.4-2.4,0.3c-0.6,0.7-0.4,1.8,0.3,2.3l3.4,2.5c0.7,0.5,1.8,0.4,2.4-0.3l5.9-7.8c0.6-0.7,0.4-1.8-0.4-2.3
						c-0.7-0.5-1.8-0.4-2.3,0.3l-4.9,6.5L6.9,10.7z"/>
				</g>
			</mask>
			<g id="icon_x2F_Utility_x2F_shield-Color_x2F_Grayscale_x2F_Night-Sky" style="mask:url(#icon_x2F_Utility_x2F_shield-mask-2);">
				<g id="icon_x2F_Utility_x2F_shield-Swatch" transform="translate(-14.000000, -12.000000)">
					<rect style="fill:#111111;" width="48" height="48"/>
				</g>
			</g>
		</g>
	</g>
</g>
</svg>
