<svg xmlns="http://www.w3.org/2000/svg" width="32" height="32" viewBox="0 0 32 32" aria-labaria-lelledby="title-041">
  <path fill="#384048" fill-rule="evenodd" d="M5.5,7 L26.5,7 C27.3284271,7 28,7.67157288 28,8.5 L28,23.5 C28,24.3284271 27.3284271,25 26.5,25 L5.5,25 C4.67157288,25 4,24.3284271 4,23.5 L4,8.5 C4,7.67157288 4.67157288,7 5.5,7 Z M16.75,17.5 L24.625,17.5 C24.8321068,17.5 25,17.6678932 25,17.875 L25,19.375 C25,19.5821068 24.8321068,19.75 24.625,19.75 L16.75,19.75 C16.5428932,19.75 16.375,19.5821068 16.375,19.375 L16.375,17.875 C16.375,17.6678932 16.5428932,17.5 16.75,17.5 Z M16.75,12.25 L24.625,12.25 C24.8321068,12.25 25,12.4178932 25,12.625 L25,14.125 C25,14.3321068 24.8321068,14.5 24.625,14.5 L16.75,14.5 C16.5428932,14.5 16.375,14.3321068 16.375,14.125 L16.375,12.625 C16.375,12.4178932 16.5428932,12.25 16.75,12.25 Z M12.025465,16.4335485 C12.3204769,16.1004624 12.7812594,15.5217781 12.8000831,14.5823403 C12.8218276,13.503381 12.0252487,12.3087279 10.8063999,12.2501992 C10.8018202,12.2499121 10.7149142,12.2500198 10.7149142,12.2500198 C9.48820422,12.3089432 8.69541164,13.5034528 8.71712013,14.5823403 C8.73597983,15.5232853 9.19928659,16.1031179 9.49404604,16.4359887 C8.82804257,16.8494935 7.19615559,18.3737518 7.00312312,19.497137 C6.98379463,19.6097088 7.0560601,19.7176514 7.16788407,19.7432375 C7.18418346,19.7470054 7.20048286,19.7487638 7.21652983,19.7487638 C7.28839863,19.7462877 7.60342415,19.7439552 9.04887777,19.7439552 C11.118793,19.7439552 14.2519194,19.7487279 14.2833282,19.7487638 C14.3467588,19.7487638 14.4067637,19.7213116 14.4478728,19.6736203 C14.489054,19.6258212 14.5071564,19.5624839 14.4974201,19.5002949 C14.3191364,18.3612638 12.6748445,16.8251992 12.025465,16.4335485 Z"/>
<title id="title-041" lang="en"></title>
</svg>
