<svg xmlns="http://www.w3.org/2000/svg" width="32" height="32" viewBox="0 0 32 32">
  <path fill="#384048" fill-rule="evenodd" d="M7.32245649,19.7470371 C7.26499574,19.7475842 7.23376815,19.7481699 7.21652983,19.7487638 C7.20048286,19.7487638 7.18418346,19.7470054 7.16788407,19.7432375 C7.0560601,19.7176514 6.98379463,19.6097088 7.00312312,19.497137 C7.19615559,18.3737518 8.82804257,16.8494935 9.49404604,16.4359887 C9.19928659,16.1031179 8.73597983,15.5232853 8.71712013,14.5823403 C8.69541164,13.5034528 9.48820422,12.3089432 10.7149142,12.2500198 C10.7149142,12.2500198 10.8018202,12.2499121 10.8063999,12.2501992 C12.0252487,12.3087279 12.8218276,13.503381 12.8000831,14.5823403 C12.7812594,15.5217781 12.3204769,16.1004624 12.025465,16.4335485 C12.6748445,16.8251992 14.3191364,18.3612638 14.4974201,19.5002949 C14.5071564,19.5624839 14.489054,19.6258212 14.4478728,19.6736203 C14.4067637,19.7213116 14.3467588,19.7487638 14.2833282,19.7487638 C14.2519194,19.7487279 11.118793,19.7439552 9.04887777,19.7439552 C7.95286471,19.7439552 7.5067809,19.7452963 7.32382214,19.7470241 C7.32230093,19.7473931 7.3207807,19.7477559 7.31926151,19.7481123 C7.31428609,19.7497543 7.30930457,19.7513339 7.30431696,19.7528647 C7.30928413,19.7513383 7.3142337,19.7497648 7.31916138,19.7481358 C7.30129519,19.7523249 7.28357376,19.7556387 7.26610904,19.7577973 C7.28428667,19.7553692 7.30224899,19.7519938 7.31996772,19.7478687 C7.32079795,19.7475931 7.32162754,19.7473159 7.32245649,19.7470371 Z M7.32249303,19.7470367 C7.32168576,19.7473077 7.32087833,19.7475771 7.32007073,19.7478447 C7.32122731,19.7475752 7.32238284,19.7473026 7.32353733,19.7470268 C7.32318827,19.7470301 7.32284017,19.7470334 7.32249303,19.7470367 Z M6,7 L26,7 C27.1045695,7 28,7.8954305 28,9 L28,23 C28,24.1045695 27.1045695,25 26,25 L6,25 C4.8954305,25 4,24.1045695 4,23 L4,9 C4,7.8954305 4.8954305,7 6,7 Z M5.875,8.125 C5.46078644,8.125 5.125,8.46078644 5.125,8.875 L5.125,23.125 C5.125,23.5392136 5.46078644,23.875 5.875,23.875 L26.125,23.875 C26.5392136,23.875 26.875,23.5392136 26.875,23.125 L26.875,8.875 C26.875,8.46078644 26.5392136,8.125 26.125,8.125 L5.875,8.125 Z M16.375,12.25 L24.25,12.25 C24.4571068,12.25 24.625,12.4178932 24.625,12.625 L24.625,14.125 C24.625,14.3321068 24.4571068,14.5 24.25,14.5 L16.375,14.5 C16.1678932,14.5 16,14.3321068 16,14.125 L16,12.625 C16,12.4178932 16.1678932,12.25 16.375,12.25 Z M16.375,17.5 L24.25,17.5 C24.4571068,17.5 24.625,17.6678932 24.625,17.875 L24.625,19.375 C24.625,19.5821068 24.4571068,19.75 24.25,19.75 L16.375,19.75 C16.1678932,19.75 16,19.5821068 16,19.375 L16,17.875 C16,17.6678932 16.1678932,17.5 16.375,17.5 Z"/>
</svg>
