<svg xmlns="http://www.w3.org/2000/svg" xmlns:xlink="http://www.w3.org/1999/xlink" width="160" height="40" viewBox="0 0 160 40">
  <defs>
    <path id="jcpenney-a" d="M14.4650187,18.6930185 C14.4650187,20.8573003 14.1500669,22.5386661 13.520154,23.7371663 C12.3519519,25.92472 10.1301106,27.0184805 6.85456347,27.0184805 C4.96482474,27.0184805 3.34998133,26.4977807 2.00998478,25.4563655 C0.669988226,24.4149503 -8.8817842e-15,22.5619572 -8.8817842e-15,19.8973306 L-8.8817842e-15,18.0646817 L3.21253977,18.0646817 L3.21253977,19.8973306 C3.21253977,21.2936415 3.51890191,22.3437679 4.13163538,23.0477413 C4.74436884,23.7517147 5.69781362,24.1036961 6.99199833,24.1036961 C8.81301928,24.1036961 10.0041095,23.4695478 10.5653046,22.201232 C10.9088935,21.4216251 11.0806853,19.9497028 11.0806853,17.7854209 L11.0806853,0.698151951 L14.4650187,0.698151951 L14.4650187,18.6930185 Z M35.9838814,2.56570842 C37.7476375,4.27618925 38.7268511,6.21935941 38.9215514,8.39527721 L35.5887561,8.39527721 C35.2108084,6.742976 34.4577874,5.43395418 33.3296707,4.46817248 C32.2015539,3.50239079 30.6182057,3.01950719 28.5795785,3.01950719 C26.0942857,3.01950719 24.0871842,3.90673309 22.5582138,5.6812115 C21.0292434,7.45568991 20.2647696,10.1755464 20.2647696,13.8408624 C20.2647696,16.8429308 20.9548002,19.2777114 22.3348822,21.1452772 C23.7149641,23.012843 25.7736031,23.9466119 28.510861,23.9466119 C31.0305127,23.9466119 32.948855,22.9633911 34.2659456,20.9969199 C34.9645763,19.9613227 35.4856783,18.59994 35.8292671,16.912731 L39.1620624,16.912731 C38.8642854,19.6122654 37.8793454,21.8754187 36.207213,23.7022587 C34.2029447,25.9014484 31.5000862,27.0010267 28.0985565,27.0010267 C25.1665982,27.0010267 22.7042483,26.0992561 20.7114329,24.2956879 C18.0887046,21.9103235 16.7773602,18.2276087 16.7773602,13.2474333 C16.7773602,9.46575796 17.7623001,6.36483072 19.7322096,3.94455852 C21.8624605,1.31483969 24.8001012,0 28.5452197,0 C31.7405961,0 34.2201252,0.855227587 35.9838814,2.56570842 L35.9838814,2.56570842 Z M41.8867085,0.698151951 L53.2422635,0.698151951 C55.4870441,0.698151951 57.2965849,1.34102711 58.6709403,2.62679671 C60.0452958,3.91256632 60.7324632,5.71901643 60.7324632,8.04620123 C60.7324632,10.0475802 60.1197389,11.7900336 58.894272,13.273614 C57.6688051,14.7571943 55.7848211,15.4989733 53.2422635,15.4989733 L45.3054005,15.4989733 L45.3054005,26.3377823 L41.8867085,26.3377823 L41.8867085,0.698151951 Z M55.2178896,4.2238193 C54.4619941,3.86310566 53.4255166,3.68275154 52.1084259,3.68275154 L45.3054005,3.68275154 L45.3054005,12.5667351 L52.1084259,12.5667351 C53.6431228,12.5667351 54.8886138,12.2351163 55.8449361,11.5718686 C56.8012584,10.9086209 57.2794124,9.73922809 57.2794124,8.06365503 C57.2794124,6.17863534 56.592245,4.8987029 55.2178896,4.2238193 L55.2178896,4.2238193 Z M74.3144629,8.15965092 C75.5399299,8.78217286 76.4733323,9.58794851 77.1146981,10.5770021 C77.7331581,11.5195119 78.1454585,12.6190902 78.3516118,13.87577 C78.5348592,14.7368284 78.6264816,16.1098468 78.6264816,17.9948665 L65.1406862,17.9948665 C65.1979511,19.8915221 65.6388835,21.4128964 66.4634967,22.5590349 C67.28811,23.7051734 68.5650961,24.2782341 70.2944934,24.2782341 C71.909361,24.2782341 73.1977999,23.7371717 74.1598487,22.6550308 C74.7095909,22.0266909 75.0989858,21.2994566 75.328045,20.473306 L78.3687912,20.473306 C78.2886205,21.1598255 78.0223431,21.924876 77.5699511,22.7684805 C77.1175591,23.612085 76.6107731,24.3015031 76.049578,24.8367556 C75.1104351,25.7676296 73.9479769,26.39596 72.5621685,26.7217659 C71.817726,26.9079407 70.9759459,27.0010267 70.036803,27.0010267 C67.7462106,27.0010267 65.8049627,26.1545259 64.213001,24.461499 C62.6210393,22.768472 61.8250703,20.3976881 61.8250703,17.349076 C61.8250703,14.3470076 62.6267656,11.9093181 64.2301803,10.0359343 C65.833595,8.16255052 67.9294556,7.22587269 70.517825,7.22587269 C71.8234627,7.22587269 73.088996,7.53712899 74.3144629,8.15965092 L74.3144629,8.15965092 Z M75.4483005,15.4989733 C75.3223179,14.1375702 75.0302718,13.0496276 74.5721533,12.2351129 C73.7246341,10.7224428 72.3102145,9.9661191 70.3288521,9.9661191 C68.9086848,9.9661191 67.7175946,10.4868189 66.7555458,11.5282341 C65.793497,12.5696493 65.2838478,13.8932158 65.226583,15.4989733 L75.4483005,15.4989733 Z M80.6639533,7.64476386 L83.6016234,7.64476386 L83.6016234,10.2977413 C84.4720485,9.20396441 85.3939981,8.41855132 86.3674999,7.94147844 C87.3410017,7.46440555 88.4232903,7.22587269 89.6143984,7.22587269 C92.2256737,7.22587269 93.9894034,8.15091477 94.9056403,10.0010267 C95.4095707,11.0133521 95.6615321,12.4620029 95.6615321,14.3470226 L95.6615321,26.3377823 L92.5177097,26.3377823 L92.5177097,14.5564682 C92.5177097,13.4161476 92.3516443,12.4969234 92.0195084,11.798768 C91.4697662,10.6351756 90.4733734,10.0533881 89.0303002,10.0533881 C88.2973107,10.0533881 87.6960392,10.1290205 87.2264677,10.2802875 C86.3789485,10.5362778 85.6345172,11.0482508 84.9931513,11.8162218 C84.477768,12.4329257 84.1427739,13.069983 83.9881589,13.7274127 C83.8335439,14.3848424 83.7562376,15.3244292 83.7562376,16.5462012 L83.7562376,26.3377823 L80.6639533,26.3377823 L80.6639533,7.64476386 Z M98.4720749,7.64476386 L101.409745,7.64476386 L101.409745,10.2977413 C102.28017,9.20396441 103.20212,8.41855132 104.175621,7.94147844 C105.149123,7.46440555 106.231412,7.22587269 107.42252,7.22587269 C110.033795,7.22587269 111.797525,8.15091477 112.713762,10.0010267 C113.217692,11.0133521 113.469654,12.4620029 113.469654,14.3470226 L113.469654,26.3377823 L110.325831,26.3377823 L110.325831,14.5564682 C110.325831,13.4161476 110.159766,12.4969234 109.82763,11.798768 C109.277888,10.6351756 108.281495,10.0533881 106.838422,10.0533881 C106.105432,10.0533881 105.504161,10.1290205 105.034589,10.2802875 C104.18707,10.5362778 103.442639,11.0482508 102.801273,11.8162218 C102.28589,12.4329257 101.950895,13.069983 101.796281,13.7274127 C101.641666,14.3848424 101.564359,15.3244292 101.564359,16.5462012 L101.564359,26.3377823 L98.4720749,26.3377823 L98.4720749,7.64476386 Z M127.738828,8.15965092 C128.964295,8.78217286 129.897697,9.58794851 130.539063,10.5770021 C131.157523,11.5195119 131.569823,12.6190902 131.775977,13.87577 C131.959224,14.7368284 132.050846,16.1098468 132.050846,17.9948665 L118.565051,17.9948665 C118.622316,19.8915221 119.063248,21.4128964 119.887861,22.5590349 C120.712475,23.7051734 121.989461,24.2782341 123.718858,24.2782341 C125.333726,24.2782341 126.622165,23.7371717 127.584213,22.6550308 C128.133956,22.0266909 128.52335,21.2994566 128.75241,20.473306 L131.793156,20.473306 C131.712985,21.1598255 131.446708,21.924876 130.994316,22.7684805 C130.541924,23.612085 130.035138,24.3015031 129.473943,24.8367556 C128.5348,25.7676296 127.372342,26.39596 125.986533,26.7217659 C125.242091,26.9079407 124.400311,27.0010267 123.461168,27.0010267 C121.170575,27.0010267 119.229327,26.1545259 117.637366,24.461499 C116.045404,22.768472 115.249435,20.3976881 115.249435,17.349076 C115.249435,14.3470076 116.05113,11.9093181 117.654545,10.0359343 C119.25796,8.16255052 121.35382,7.22587269 123.94219,7.22587269 C125.247827,7.22587269 126.513361,7.53712899 127.738828,8.15965092 L127.738828,8.15965092 Z M128.872665,15.4989733 C128.746683,14.1375702 128.454636,13.0496276 127.996518,12.2351129 C127.148999,10.7224428 125.734579,9.9661191 123.753217,9.9661191 C122.33305,9.9661191 121.141959,10.4868189 120.179911,11.5282341 C119.217862,12.5696493 118.708213,13.8932158 118.650948,15.4989733 L128.872665,15.4989733 Z M145.581308,7.64476386 L149,7.64476386 C148.564787,8.84326403 147.597027,11.5776652 146.096689,15.8480493 C144.974298,19.0595643 144.03517,21.6776079 143.279274,23.7022587 C141.492612,28.4729876 140.232805,31.3819249 139.499816,32.4291581 C138.766826,33.4763913 137.507019,34 135.720357,34 C135.285144,34 134.95015,33.9825464 134.715365,33.9476386 C134.480579,33.9127308 134.191396,33.8487342 133.847807,33.7556468 L133.847807,30.8932238 C134.386096,31.0444908 134.775491,31.1375768 135.016003,31.1724846 C135.256516,31.2073924 135.468392,31.224846 135.65164,31.224846 C136.224288,31.224846 136.645178,31.1288511 136.914322,30.9368583 C137.183467,30.7448656 137.40966,30.5092416 137.592907,30.2299795 C137.650172,30.1368921 137.856322,29.6598263 138.211364,28.798768 C138.566406,27.9377096 138.824093,27.2977434 138.984435,26.8788501 L132.181409,7.64476386 L135.685998,7.64476386 L140.616474,22.8644764 L145.581308,7.64476386 Z"/>
  </defs>
  <g fill="none" fill-rule="evenodd" transform="translate(5 6)">
    <use fill="#111" xlink:href="#jcpenney-a"/>
  </g>
</svg>
