<svg xmlns="http://www.w3.org/2000/svg" xmlns:xlink="http://www.w3.org/1999/xlink" width="32" height="32" viewBox="0 0 32 32" aria-labaria-lelledby="title-003">
  <defs>
    <path id="express-checkout-new-a" d="M9.60788647,2.08281728 L23.3385393,2.08281728 L23.3376247,2.08756959 C23.3588975,2.08938705 23.3802727,2.09216845 23.4017027,2.09594714 C23.7903809,2.1644816 24.0499088,2.53512577 23.9813743,2.92380406 L22.5680179,10.9393464 C22.5162746,11.2327972 22.2923228,11.4526296 22.0184181,11.5132394 C21.9506912,11.5325676 21.8791777,11.5429165 21.805247,11.5429165 L10.4772664,11.5429165 C10.3231824,11.5429165 10.1795976,11.4979634 10.0589117,11.4204564 C9.88389017,11.3181416 9.75328468,11.142453 9.71532267,10.9271597 L8.04058351,1.42924198 L5.72257672,1.42924198 C5.32790244,1.42924198 5.00795573,1.10929527 5.00795573,0.714620991 C5.00795573,0.319946716 5.32790244,9.60678908e-16 5.72257672,8.8817842e-16 L8.6365912,1.11022302e-15 C8.98775679,1.04571495e-15 9.27976253,0.253293436 9.33987602,0.587147907 C9.34707681,0.611930663 9.35301166,0.637350356 9.35759566,0.663347531 L9.60788647,2.08281728 Z M12.1526576,16 C11.2156599,16 10.4560731,15.2501249 10.4560731,14.3251071 C10.4560731,13.4000893 11.2156599,12.6502142 12.1526576,12.6502142 C13.0896554,12.6502142 13.8492421,13.4000893 13.8492421,14.3251071 C13.8492421,15.2501249 13.0896554,16 12.1526576,16 Z M19.6930331,16 C18.7560354,16 17.9964487,15.2501249 17.9964487,14.3251071 C17.9964487,13.4000893 18.7560354,12.6502142 19.6930331,12.6502142 C20.6300309,12.6502142 21.3896176,13.4000893 21.3896176,14.3251071 C21.3896176,15.2501249 20.6300309,16 19.6930331,16 Z M6.3508794,7.56181453 L2.41461069,7.56181453 C2.0802297,7.56181453 1.80903088,7.29011582 1.80903088,6.95511849 C1.80903088,6.62012116 2.0802297,6.34842245 2.41461069,6.34842245 L6.3508794,6.34842245 C6.68526038,6.34842245 6.95645921,6.62012116 6.95645921,6.95511849 C6.95645921,7.29011582 6.68526038,7.56181453 6.3508794,7.56181453 Z M6.94875068,11.1514328 L4.82922137,11.1514328 C4.49484039,11.1514328 4.22364157,10.8797341 4.22364157,10.5447367 C4.22364157,10.2096383 4.49484039,9.9380407 4.82922137,9.9380407 L6.94875068,9.9380407 C7.28313166,9.9380407 7.55433048,10.2096383 7.55433048,10.5447367 C7.55433048,10.8797341 7.28313166,11.1514328 6.94875068,11.1514328 Z M6.05579803,3.97219628 L0.605579803,3.97219628 C0.271198822,3.97219628 0,3.70059869 0,3.36550024 C0,3.03040179 0.271198822,2.7588042 0.605579803,2.7588042 L6.05579803,2.7588042 C6.39017901,2.7588042 6.66137783,3.03040179 6.66137783,3.36550024 C6.66137783,3.70059869 6.39017901,3.97219628 6.05579803,3.97219628 Z"/>
  </defs>
  <title id="title-003" lang="en">express checkout</title>
  <g fill="none" fill-rule="evenodd" transform="translate(4 8)">
    <use fill="#384048" xlink:href="#express-checkout-new-a"/>
  </g>
</svg>
