<?xml version="1.0" encoding="utf-8"?>
<svg version="1.1" id="icon_x2F_Utility_x2F_Cart_x2F_express-checkout-Layer_1"
	 xmlns="http://www.w3.org/2000/svg" xmlns:xlink="http://www.w3.org/1999/xlink" x="0px" y="0px" viewBox="0 0 48 48"
	 style="enable-background:new 0 0 48 48;" xml:space="preserve">
<path id="icon_x2F_Utility_x2F_Cart_x2F_express-checkout-path-1_1_" style="fill:#111111;" d="M34.8,14.3c0,0-0.1-0.3-0.5-0.3H23.6
	c-0.4,0-0.6,0.3-0.6,0.3l-3.1,3.1L18,32.8c-0.1,0.6,0.3,1.2,1,1.2h15.6c0.6,0,1.2-0.5,1.3-1.2L37,17.4L34.8,14.3z M33,22.2
	c-0.4,1.6-2.2,4.7-5.5,4.7c-1.2,0-2.2-0.4-3-1.2C23.1,24.3,23,22.1,23,22c0-0.4,0.3-0.7,0.7-0.7c0.4,0,0.7,0.3,0.7,0.7
	c0,0,0,1,0.4,1.9c0.5,1.1,1.4,1.7,2.7,1.7c1.3,0,2.4-0.6,3.3-1.8c0.7-0.9,1-1.9,1-1.9c0.1-0.4,0.5-0.6,0.8-0.5
	C32.9,21.4,33.1,21.8,33,22.2z M16.8,24.7h-4.3c-0.4,0-0.7-0.3-0.7-0.7s0.3-0.7,0.7-0.7h4.3c0.4,0,0.7,0.3,0.7,0.7
	S17.1,24.7,16.8,24.7z M16.3,28.8h-2.2c-0.4,0-0.7-0.3-0.7-0.7c0-0.4,0.3-0.7,0.7-0.7h2.3c0.4,0,0.7,0.3,0.7,0.7
	C17,28.4,16.7,28.8,16.3,28.8z M17.6,20.7h-5.9c-0.4,0-0.7-0.3-0.7-0.7s0.3-0.7,0.7-0.7h5.9c0.4,0,0.7,0.3,0.7,0.7
	C18.2,20.4,17.9,20.7,17.6,20.7z"/>
</svg>
