<svg id="icon_x2F_Utility_x2F_Cart_x2F_express-checkout-Layer_1" xmlns="http://www.w3.org/2000/svg" viewBox="0 0 48 48" enable-background="new 0 0 48 48"><title>icon/Utility/Cart/express-checkout</title><g id="icon_x2F_Utility_x2F_Cart_x2F_express-checkout-Symbols"><g id="icon_x2F_Utility_x2F_Cart_x2F_express-checkout"><g id="icon_x2F_Utility_x2F_Cart_x2F_express-checkout-Icon" transform="translate(11 14)"><g id="icon_x2F_Utility_x2F_Cart_x2F_express-checkout-Mask"><path id="icon_x2F_Utility_x2F_Cart_x2F_express-checkout-path-1_1_" d="M23.8.3s-.1-.3-.5-.3H12.6c-.4 0-.6.3-.6.3L8.9 3.4 7 18.8c-.1.6.3 1.2 1 1.2h15.6c.6 0 1.2-.5 1.3-1.2L26 3.4 23.8.3zM22 8.2c-.4 1.6-2.2 4.7-5.5 4.7-1.2 0-2.2-.4-3-1.2C12.1 10.3 12 8.1 12 8c0-.4.3-.7.7-.7.4 0 .7.3.7.7 0 0 0 1 .4 1.9.5 1.1 1.4 1.7 2.7 1.7 1.3 0 2.4-.6 3.3-1.8.7-.9 1-1.9 1-1.9.1-.4.5-.6.8-.5.3 0 .5.4.4.8zM5.8 10.7H1.5c-.4 0-.7-.3-.7-.7s.3-.7.7-.7h4.3c.4 0 .7.3.7.7s-.4.7-.7.7zm-.5 4.1H3.1c-.4 0-.7-.3-.7-.7 0-.4.3-.7.7-.7h2.3c.4 0 .7.3.7.7-.1.3-.4.7-.8.7zm1.3-8.1H.7C.3 6.7 0 6.4 0 6c0-.4.3-.7.7-.7h5.9c.4 0 .7.3.7.7-.1.4-.4.7-.7.7z" fill="#384048"/></g><defs><filter id="icon_x2F_Utility_x2F_Cart_x2F_express-checkout-Adobe_OpacityMaskFilter" filterUnits="userSpaceOnUse" x="-11" y="-14" width="48" height="48"><feColorMatrix values="1 0 0 0 0 0 1 0 0 0 0 0 1 0 0 0 0 0 1 0"/></filter></defs><mask maskUnits="userSpaceOnUse" x="-11" y="-14" width="48" height="48" id="icon_x2F_Utility_x2F_Cart_x2F_express-checkout-mask-2"><g filter="url(#icon_x2F_Utility_x2F_Cart_x2F_express-checkout-Adobe_OpacityMaskFilter)"><path id="icon_x2F_Utility_x2F_Cart_x2F_express-checkout-path-1" d="M23.8.3s-.1-.3-.5-.3H12.6c-.4 0-.6.3-.6.3L8.9 3.4 7 18.8c-.1.6.3 1.2 1 1.2h15.6c.6 0 1.2-.5 1.3-1.2L26 3.4 23.8.3zM22 8.2c-.4 1.6-2.2 4.7-5.5 4.7-1.2 0-2.2-.4-3-1.2C12.1 10.3 12 8.1 12 8c0-.4.3-.7.7-.7.4 0 .7.3.7.7 0 0 0 1 .4 1.9.5 1.1 1.4 1.7 2.7 1.7 1.3 0 2.4-.6 3.3-1.8.7-.9 1-1.9 1-1.9.1-.4.5-.6.8-.5.3 0 .5.4.4.8zM5.8 10.7H1.5c-.4 0-.7-.3-.7-.7s.3-.7.7-.7h4.3c.4 0 .7.3.7.7s-.4.7-.7.7zm-.5 4.1H3.1c-.4 0-.7-.3-.7-.7 0-.4.3-.7.7-.7h2.3c.4 0 .7.3.7.7-.1.3-.4.7-.8.7zm1.3-8.1H.7C.3 6.7 0 6.4 0 6c0-.4.3-.7.7-.7h5.9c.4 0 .7.3.7.7-.1.4-.4.7-.7.7z" fill="#fff"/></g></mask><g id="icon_x2F_Utility_x2F_Cart_x2F_express-checkout-Color_x2F_Grayscale_x2F_Night-Sky" mask="url(#icon_x2F_Utility_x2F_Cart_x2F_express-checkout-mask-2)"><path fill="#111" d="M0 0h48v48H0z" transform="translate(-11 -14)" id="icon_x2F_Utility_x2F_Cart_x2F_express-checkout-Swatch"/></g></g></g></g></svg>