<svg xmlns="http://www.w3.org/2000/svg" xmlns:xlink="http://www.w3.org/1999/xlink" width="32" height="32" viewBox="0 0 32 32" aria-labaria-lelledby="title-027">
  <defs>
    <path id="schedule-appt-a" d="M6.2162465,2.22634508 L13.5821625,2.22634508 L13.5821625,0 L14.4541401,0 L14.4541401,2.22634508 L19.9636975,2.22634508 L19.9636975,11.8022174 L19.0458263,11.5769944 L19.0458263,3.11688312 L14.4541401,3.11688312 L14.4541401,5.41001855 L13.5821625,5.41001855 L13.5821625,3.11688312 L6.2162465,3.11688312 L6.2162465,5.41001855 L5.34426891,5.41001855 L5.34426891,3.11688312 L0.917871148,3.11688312 L0.917871148,20.7050093 L11.7028571,20.7050093 L12.1617927,21.5955473 L0,21.5955473 L0,2.22634508 L5.34426891,2.22634508 L5.34426891,0 L6.2162465,0 L6.2162465,2.22634508 Z M18.1026779,24 C14.8442353,24 12.2053557,21.4397032 12.2053557,18.2782931 C12.2053557,15.1168831 14.8442353,12.5565863 18.1026779,12.5565863 C21.3611204,12.5565863 24,15.1168831 24,18.2782931 C24,21.4397032 21.3611204,24 18.1026779,24 Z M18.1026779,13.4025974 C15.3261176,13.4025974 13.0773333,15.5844156 13.0773333,18.2782931 C13.0773333,20.9721707 15.3261176,23.1539889 18.1026779,23.1539889 C20.8792381,23.1539889 23.1280224,20.9721707 23.1280224,18.2782931 C23.1280224,15.5844156 20.8792381,13.4025974 18.1026779,13.4025974 Z M20.4203025,18.7680891 L17.9649972,18.7680891 L15.4637983,15.8738404 L16.1292549,15.3172542 L18.3780392,17.8998145 L20.4203025,17.8998145 L20.4203025,18.7680891 Z M7.34063866,7.28014842 L8.32735014,7.28014842 L8.32735014,8.12615955 L7.34063866,8.12615955 L7.34063866,7.28014842 Z M9.40584874,7.28014842 L10.3925602,7.28014842 L10.3925602,8.12615955 L9.40584874,8.12615955 L9.40584874,7.28014842 Z M11.4710588,7.28014842 L12.4577703,7.28014842 L12.4577703,8.12615955 L11.4710588,8.12615955 L11.4710588,7.28014842 Z M13.5821625,7.28014842 L14.5688739,7.28014842 L14.5688739,8.12615955 L13.5821625,8.12615955 L13.5821625,7.28014842 Z M15.5785322,7.28014842 L16.5652437,7.28014842 L16.5652437,8.12615955 L15.5785322,8.12615955 L15.5785322,7.28014842 Z M3.23316527,9.48423006 L4.21987675,9.48423006 L4.21987675,10.3302412 L3.23316527,10.3302412 L3.23316527,9.48423006 Z M5.29837535,9.48423006 L6.28508683,9.48423006 L6.28508683,10.3302412 L5.29837535,10.3302412 L5.29837535,9.48423006 Z M7.34063866,9.48423006 L8.32735014,9.48423006 L8.32735014,10.3302412 L7.34063866,10.3302412 L7.34063866,9.48423006 Z M9.40584874,9.48423006 L10.3925602,9.48423006 L10.3925602,10.3302412 L9.40584874,10.3302412 L9.40584874,9.48423006 Z M11.4710588,9.48423006 L12.4577703,9.48423006 L12.4577703,10.3302412 L11.4710588,10.3302412 L11.4710588,9.48423006 Z M13.5821625,9.48423006 L14.5688739,9.48423006 L14.5688739,10.3302412 L13.5821625,10.3302412 L13.5821625,9.48423006 Z M15.5785322,9.48423006 L16.5652437,9.48423006 L16.5652437,10.3302412 L15.5785322,10.3302412 L15.5785322,9.48423006 Z M3.23316527,11.7105751 L4.21987675,11.7105751 L4.21987675,12.5565863 L3.23316527,12.5565863 L3.23316527,11.7105751 Z M5.29837535,11.7105751 L6.28508683,11.7105751 L6.28508683,12.5565863 L5.29837535,12.5565863 L5.29837535,11.7105751 Z M7.34063866,11.7105751 L8.32735014,11.7105751 L8.32735014,12.5565863 L7.34063866,12.5565863 L7.34063866,11.7105751 Z M9.40584874,11.7105751 L10.3925602,11.7105751 L10.3925602,12.5565863 L9.40584874,12.5565863 L9.40584874,11.7105751 Z M3.23316527,13.9146568 L4.21987675,13.9146568 L4.21987675,14.7606679 L3.23316527,14.7606679 L3.23316527,13.9146568 Z M5.29837535,13.9146568 L6.28508683,13.9146568 L6.28508683,14.7606679 L5.29837535,14.7606679 L5.29837535,13.9146568 Z M7.34063866,13.9146568 L8.32735014,13.9146568 L8.32735014,14.7606679 L7.34063866,14.7606679 L7.34063866,13.9146568 Z M3.23316527,16.1187384 L4.21987675,16.1187384 L4.21987675,16.9647495 L3.23316527,16.9647495 L3.23316527,16.1187384 Z M5.29837535,16.1187384 L6.28508683,16.1187384 L6.28508683,16.9647495 L5.29837535,16.9647495 L5.29837535,16.1187384 Z M7.34063866,16.1187384 L8.32735014,16.1187384 L8.32735014,16.9647495 L7.34063866,16.9647495 L7.34063866,16.1187384 Z M9.40584874,13.9146568 L10.3925602,13.9146568 L10.3925602,14.7606679 L9.40584874,14.7606679 L9.40584874,13.9146568 Z M11.4940056,13.9146568 L12.4807171,13.9146568 L12.4807171,14.7606679 L11.4940056,14.7606679 L11.4940056,13.9146568 Z M11.4710588,11.7105751 L12.4577703,11.7105751 L12.4577703,12.5565863 L11.4710588,12.5565863 L11.4710588,11.7105751 Z M13.5821625,11.7105751 L14.5688739,11.7105751 L14.5688739,12.5565863 L13.5821625,12.5565863 L13.5821625,11.7105751 Z M9.35995518,16.1187384 L10.3466667,16.1187384 L10.3466667,16.9647495 L9.35995518,16.9647495 L9.35995518,16.1187384 Z"/>
  </defs>
  <title id="title-027" lang="en">schdule appointment with jcp store services</title>
  <g fill="none" fill-rule="evenodd" transform="translate(4 4)">
    <use fill="#384048" xlink:href="#schedule-appt-a"/>
  </g>
</svg>
