<?xml version="1.0" encoding="UTF-8"?>
<svg width="48px" height="48px" viewBox="0 0 48 48" version="1.1" xmlns="http://www.w3.org/2000/svg" xmlns:xlink="http://www.w3.org/1999/xlink">
    <!-- Generator: Sketch 46.2 (44496) - http://www.bohemiancoding.com/sketch -->
    <title>icon/Service/cash</title>
    <desc>Created with Sketch.</desc>
    <defs>
        <path d="M26.0227959,-1.77635684e-15 L2.11352657,-1.77635684e-15 C1.04685613,-1.77635684e-15 5.32907052e-15,1.02258065 5.32907052e-15,2.06451613 L5.32907052e-15,13.9354839 C5.32907052e-15,14.9772903 1.04685613,16 2.11352657,16 L25.8907005,16 C26.9749396,16 28,15.0145806 28,13.9722581 L28,2.0276129 C28,1.06851613 27.1878774,-1.77635684e-15 26.0227959,-1.77635684e-15 L26.0227959,-1.77635684e-15 Z M5.30904665,14.4516129 L2.11352657,14.4516129 C1.91538345,14.4516129 1.58514493,14.1274839 1.58514493,13.9354839 L1.58514493,10.5363871 C1.82027476,10.4843871 2.06174517,10.4562581 2.30731054,10.4562581 C4.0555933,10.4562581 5.47786458,11.8132903 5.47786458,13.4810323 C5.47786458,13.8143226 5.4197426,14.14 5.30904665,14.4516129 L5.30904665,14.4516129 Z M2.36001661,5.53909677 C2.09622207,5.53909677 1.83705088,5.50632258 1.58514493,5.44412903 L1.58514493,2.06451613 C1.58514493,1.87225806 1.91551555,1.5483871 2.11352657,1.5483871 L5.3507888,1.5483871 C5.44946407,1.84864516 5.50124547,2.16180645 5.50124547,2.48103226 C5.50124547,4.16722581 4.09218373,5.53909677 2.36001661,5.53909677 L2.36001661,5.53909677 Z M17.3624887,9.79793548 C17.3624887,11.1428387 16.3911911,12.0015484 14.9460673,12.1744516 L14.9460673,13.3087742 C14.9460673,13.7362581 14.591127,14.0829677 14.1534949,14.0829677 C13.7158628,14.0829677 13.3609224,13.7362581 13.3609224,13.3087742 L13.3609224,12.1101935 C12.4748264,11.9393548 11.6447388,11.5437419 10.920856,10.9169032 L11.8004793,9.90180645 C12.5967505,10.5708387 13.4049102,10.9516129 14.4270645,10.9516129 C15.3302008,10.9516129 15.9007209,10.535871 15.9007209,9.93651613 L15.9007209,9.91354839 C15.9007209,9.33677419 15.5677083,9.02554839 14.0229846,8.67948387 C12.2519814,8.26412903 11.2537364,7.75664516 11.2537364,6.26890323 L11.2537364,6.24593548 C11.2537364,5.07729032 12.1027136,4.21548387 13.3609224,3.97470968 L13.3609224,2.69135484 C13.3609224,2.26387097 13.7158628,1.91716129 14.1534949,1.91716129 C14.591127,1.91716129 14.9460673,2.26387097 14.9460673,2.69135484 L14.9460673,3.96890323 C15.7731167,4.09896774 16.476921,4.42387097 17.1132246,4.91948387 L16.3288421,5.99212903 C15.5798611,5.44980645 14.8308801,5.16141935 14.0702748,5.16141935 C13.2146928,5.16141935 12.7157684,5.58812903 12.7157684,6.11870968 L12.7157684,6.14193548 C12.7157684,6.76464516 13.095939,7.04141935 14.7003699,7.41045161 C16.4590882,7.82567742 17.3623566,8.43716129 17.3623566,9.77483871 L17.3623566,9.79793548 L17.3624887,9.79793548 L17.3624887,9.79793548 Z M26.4148551,13.9722581 C26.4148551,14.1645161 26.0887115,14.4516129 25.8907005,14.4516129 L22.6085258,14.4516129 C22.4978299,14.14 22.4397079,13.8143226 22.4397079,13.4811613 C22.4397079,11.8131613 23.8621113,10.4562581 25.610394,10.4562581 C25.8843599,10.4562581 26.1538345,10.4900645 26.4148551,10.5550968 L26.4148551,13.9722581 L26.4148551,13.9722581 Z M26.4148551,5.42232258 C26.1371905,5.49883871 25.8501472,5.53909677 25.557688,5.53909677 C23.8256529,5.53909677 22.4165912,4.16722581 22.4165912,2.48103226 C22.4165912,2.16154839 22.4685047,1.8483871 22.5670479,1.5483871 L26.0227959,1.5483871 C26.220939,1.5483871 26.4148551,1.83535484 26.4148551,2.0276129 L26.4148551,5.42232258 L26.4148551,5.42232258 Z" id="path-1"></path>
    </defs>
    <g id="Symbols" stroke="none" stroke-width="1" fill="none" fill-rule="evenodd">
        <g id="icon/Service/cash">
            <g id="Icon" transform="translate(10.000000, 16.000000)">
                <mask id="mask-2" fill="white">
                    <use xlink:href="#path-1"></use>
                </mask>
                <use id="Mask" fill="#384048" xlink:href="#path-1"></use>
                <g id="Color/Grayscale/Night-Sky" mask="url(#mask-2)" fill="#111111">
                    <g transform="translate(-10.000000, -16.000000)" id="Swatch">
                        <rect x="0" y="0" width="48" height="48"></rect>
                    </g>
                </g>
            </g>
        </g>
    </g>
</svg>