<svg xmlns="http://www.w3.org/2000/svg" xmlns:xlink="http://www.w3.org/1999/xlink" width="32" height="32" viewBox="0 0 32 32">
  <defs>
    <path id="blog-fill-a" d="M12,0 C5.37253846,0 0,5.37253846 0,12 C0,18.6274615 5.37253846,24 12,24 C18.6274615,24 24,18.6274615 24,12 C24,5.37253846 18.6274615,0 12,0 L12,0 Z M9.44734615,17.9541923 C7.71715385,17.9541923 6.30946154,16.5466154 6.30946154,14.8164231 L6.30946154,9.31615385 C6.30946154,8.93388462 6.6195,8.62384615 7.00176923,8.62384615 C7.38403846,8.62384615 7.69407692,8.93388462 7.69407692,9.31615385 L7.69407692,14.8163077 C7.69407692,15.783 8.48053846,16.5694615 9.44734615,16.5694615 C10.4140385,16.5694615 11.2005,15.783 11.2005,14.8163077 C11.2005,13.8496154 10.4140385,13.0632692 9.44734615,13.0632692 C9.06507692,13.0632692 8.75503846,12.7532308 8.75503846,12.3709615 C8.75503846,11.9886923 9.06507692,11.6786538 9.44734615,11.6786538 C11.1775385,11.6786538 12.5851154,13.0862308 12.5851154,14.8163077 C12.5851154,16.5465 11.1775385,17.9541923 9.44734615,17.9541923 L9.44734615,17.9541923 Z M14.2216154,13.9736538 C13.8393462,13.9736538 13.5293077,13.6636154 13.5293077,13.2813462 C13.5293077,11.877 12.3868846,10.7343462 10.9824231,10.7343462 C10.6001538,10.7343462 10.2901154,10.4243077 10.2901154,10.0420385 C10.2901154,9.65976923 10.6001538,9.34973077 10.9824231,9.34973077 C13.1502692,9.34973077 14.9139231,11.1135 14.9139231,13.2813462 C14.9139231,13.6637308 14.6038846,13.9736538 14.2216154,13.9736538 L14.2216154,13.9736538 Z M17.2288846,14.3493462 C16.8466154,14.3493462 16.5365769,14.0393077 16.5365769,13.6570385 C16.5365769,10.3872692 13.8762692,7.72696154 10.6065,7.72696154 C10.2242308,7.72696154 9.91419231,7.41692308 9.91419231,7.03465385 C9.91419231,6.65238462 10.2242308,6.34234615 10.6065,6.34234615 C14.6398846,6.34234615 17.9211923,9.62365385 17.9211923,13.6570385 C17.9211923,14.0394231 17.6112692,14.3493462 17.2288846,14.3493462 L17.2288846,14.3493462 Z"/>
  </defs>
  <g fill="none" fill-rule="evenodd" transform="translate(4 4)">
    <use fill="#384048" xlink:href="#blog-fill-a"/>
  </g>
</svg>
