<svg xmlns="http://www.w3.org/2000/svg" xmlns:xlink="http://www.w3.org/1999/xlink" width="32" height="32" viewBox="0 0 32 32">
  <defs>
    <path id="twitter-line-a" d="M12,0 C18.6274615,0 24,5.37253846 24,12 C24,18.6274615 18.6274615,24 12,24 C5.37253846,24 0,18.6274615 0,12 C0,5.37253846 5.37253846,0 12,0 Z M12,22.6153846 C17.8533462,22.6153846 22.6153846,17.8533462 22.6153846,12 C22.6153846,6.14665385 17.8533462,1.38461538 12,1.38461538 C6.14665385,1.38461538 1.38461538,6.14665385 1.38461538,12 C1.38461538,17.8533462 6.14665385,22.6153846 12,22.6153846 Z M17.8261154,8.06892857 C18.4386923,7.99577473 19.0226538,7.83285165 19.5661154,7.59192857 C19.1598462,8.19942857 18.6463846,8.73308242 18.0543462,9.16012088 C18.0602308,9.29004396 18.0631154,9.42065934 18.0631154,9.55208242 C18.0631154,13.5552363 15.0160385,18.1714286 9.44388462,18.1714286 C7.73307692,18.1714286 6.14065385,17.6697363 4.8,16.8102363 C5.03711538,16.8381593 5.27815385,16.8523516 5.52276923,16.8523516 C6.94211538,16.8523516 8.24826923,16.3683132 9.28511538,15.5557747 C7.95946154,15.5313132 6.84069231,14.6554286 6.45519231,13.451967 C6.64015385,13.4875055 6.82996154,13.5063132 7.02519231,13.5063132 C7.30142308,13.5063132 7.569,13.4693901 7.82330769,13.4001593 C6.43742308,13.1218516 5.39307692,11.8973901 5.39307692,10.4295824 C5.39307692,10.4168901 5.39307692,10.4041978 5.39330769,10.3915055 C5.80176923,10.618467 6.26884615,10.7547363 6.76546154,10.7704286 C5.95257692,10.2271978 5.41776923,9.29996703 5.41776923,8.24892857 C5.41776923,7.69381319 5.56707692,7.17331319 5.82796154,6.72596703 C7.32207692,8.55873626 9.55430769,9.76485165 12.0721154,9.89108242 C12.0201923,9.66942857 11.9936538,9.43831319 11.9936538,9.20073626 C11.9936538,7.52777473 13.35,6.17142857 15.0230769,6.17142857 C15.8944615,6.17142857 16.6817308,6.53927473 17.2344231,7.12808242 C17.9244231,6.99215934 18.5727692,6.74015934 19.158,6.39296703 C18.9319615,7.10039011 18.4515,7.69404396 17.8261154,8.06892857 Z"/>
  </defs>
  <g fill="none" fill-rule="evenodd" transform="translate(4 4)">
    <use fill="#384048" xlink:href="#twitter-line-a"/>
  </g>
</svg>
