<svg xmlns="http://www.w3.org/2000/svg" xmlns:xlink="http://www.w3.org/1999/xlink" width="32" height="32" viewBox="0 0 32 32" aria-labaria-lelledby="title-014">
  <defs>
    <path id="account-a" d="M11.9997115,0 C5.38305248,0 0,5.38305248 0,11.9997115 C0,18.6167167 5.38305248,24 11.9997115,24 C18.6166014,24 24,18.6167167 24,11.9997115 C23.9998846,5.38305248 18.6166014,0 11.9997115,0 L11.9997115,0 Z M11.9997115,1.38464867 C17.8531984,1.38464867 22.6153513,6.14657083 22.6153513,11.9997115 C22.6153513,14.4076156 21.8090243,16.6304382 20.4527609,18.4135196 C19.0983437,15.8340345 15.9735378,13.9490661 14.8001635,13.3954374 L14.5633885,13.2827039 C14.5193106,13.2612419 14.4913868,13.2408183 14.4765018,13.2275487 C14.4866559,13.1940864 14.520349,13.1141229 14.6304286,12.989043 L14.742239,12.86304 C15.4814106,12.0334046 16.7187096,10.644602 16.7669415,8.21881295 C16.8175966,5.67429025 14.97486,2.85814563 12.1507536,2.7211808 L12.1477536,2.72106541 L11.9473257,2.72164235 L11.9420178,2.72175773 C9.13221952,2.85849179 7.29917546,5.67452102 7.34994591,8.21881295 C7.39806245,10.6412558 8.63455372,12.0312123 9.37441765,12.8628092 L9.48680497,12.9896199 C9.59757686,13.1148153 9.63138537,13.1945479 9.64153946,13.2278949 C9.62665449,13.2410491 9.59861535,13.2614726 9.55384504,13.2829347 L9.37280223,13.369706 C8.17323493,13.9416813 4.95911921,15.8419962 3.55612395,18.4252891 C2.19455275,16.6402462 1.38464867,14.4129234 1.38464867,11.9997115 C1.38464867,6.14645544 6.14645544,1.38464867 11.9997115,1.38464867 L11.9997115,1.38464867 Z"/>
  </defs>
  <title id="title-014" lang="en">customer account/profile</title>
  <g fill="none" fill-rule="evenodd" transform="translate(4 4)">
    <use fill="#384048" xlink:href="#account-a"/>
  </g>
</svg>
