<svg id="icon_x2F_Service_x2F_account-Layer_1" xmlns="http://www.w3.org/2000/svg" viewBox="0 0 48 48" enable-background="new 0 0 48 48"><title>icon/Service/account</title><g id="icon_x2F_Service_x2F_account-Symbols"><g id="icon_x2F_Service_x2F_account"><g id="icon_x2F_Service_x2F_account-Icon" transform="translate(8 8)"><g id="icon_x2F_Service_x2F_account-Mask"><path id="icon_x2F_Service_x2F_account-path-1_1_" d="M16 0C7.2 0 0 7.2 0 16s7.2 16 16 16 16-7.2 16-16S24.8 0 16 0zm0 1.8c7.8 0 14.2 6.3 14.2 14.2 0 3.2-1.1 6.2-2.9 8.6-1.8-3.4-6-6-7.5-6.7l-.3-.2c-.1 0-.1-.1-.1-.1s.1-.2.2-.3l.1-.2c1-1.1 2.6-3 2.7-6.2.1-3.4-2.4-7.1-6.2-7.3h-.3c-3.7.2-6.2 4-6.1 7.4.1 3.2 1.7 5.1 2.7 6.2l.1.2c.1.2.2.3.2.3s-.1 0-.1.1l-.2.1c-1.6.8-5.9 3.3-7.8 6.7-1.8-2.4-2.9-5.3-2.9-8.6C1.8 8.2 8.2 1.8 16 1.8z" fill="#384048"/></g><defs><filter id="icon_x2F_Service_x2F_account-Adobe_OpacityMaskFilter" filterUnits="userSpaceOnUse" x="-8" y="-8" width="48" height="48"><feColorMatrix values="1 0 0 0 0 0 1 0 0 0 0 0 1 0 0 0 0 0 1 0"/></filter></defs><mask maskUnits="userSpaceOnUse" x="-8" y="-8" width="48" height="48" id="icon_x2F_Service_x2F_account-mask-2"><g filter="url(#icon_x2F_Service_x2F_account-Adobe_OpacityMaskFilter)"><path id="icon_x2F_Service_x2F_account-path-1" d="M16 0C7.2 0 0 7.2 0 16s7.2 16 16 16 16-7.2 16-16S24.8 0 16 0zm0 1.8c7.8 0 14.2 6.3 14.2 14.2 0 3.2-1.1 6.2-2.9 8.6-1.8-3.4-6-6-7.5-6.7l-.3-.2c-.1 0-.1-.1-.1-.1s.1-.2.2-.3l.1-.2c1-1.1 2.6-3 2.7-6.2.1-3.4-2.4-7.1-6.2-7.3h-.3c-3.7.2-6.2 4-6.1 7.4.1 3.2 1.7 5.1 2.7 6.2l.1.2c.1.2.2.3.2.3s-.1 0-.1.1l-.2.1c-1.6.8-5.9 3.3-7.8 6.7-1.8-2.4-2.9-5.3-2.9-8.6C1.8 8.2 8.2 1.8 16 1.8z" fill="#fff"/></g></mask><g id="icon_x2F_Service_x2F_account-Color_x2F_Grayscale_x2F_Night-Sky" mask="url(#icon_x2F_Service_x2F_account-mask-2)"><path fill="#111" d="M0 0h48v48H0z" transform="translate(-8 -8)" id="icon_x2F_Service_x2F_account-Swatch"/></g></g></g></g></svg>