<?xml version="1.0" encoding="utf-8"?>
<!-- Generator: Adobe Illustrator 21.0.2, SVG Export Plug-In . SVG Version: 6.00 Build 0)  -->
<svg version="1.1" id="icon_x2F_Service_x2F_coupon-fill-Layer_1" xmlns="http://www.w3.org/2000/svg" xmlns:xlink="http://www.w3.org/1999/xlink" x="0px" y="0px"
	 viewBox="0 0 48 48" style="enable-background:new 0 0 48 48;" xml:space="preserve">
<title>icon/Service/coupon-fill</title>
<desc>Created with Sketch.</desc>
<g id="icon_x2F_Service_x2F_coupon-fill-Symbols">
	<g id="icon_x2F_Service_x2F_coupon-fill">
		<g id="icon_x2F_Service_x2F_coupon-fill-Icon" transform="translate(13.000000, 12.000000)">
			<g id="icon_x2F_Service_x2F_coupon-fill-Mask">
				<path id="icon_x2F_Service_x2F_coupon-fill-path-1_1_" style="fill:#384048;" d="M8.1,0.9L8.1,0.9L8.1,0.9C8.1,0.4,7.7,0,7.2,0h0H0.9h0l0,0C0.4,0,0,0.4,0,0.9l0,0
					v22.2l0,0l0,0C0,23.6,0.4,24,0.9,24h0h20.1h0l0,0c0.5,0,0.9-0.4,0.9-0.9l0,0V0.9l0,0l0,0C22,0.4,21.6,0,21.1,0h0h-6.4h0l0,0
					c-0.5,0-0.9,0.4-0.9,0.9l0,0c0,1.5-1.3,2.7-2.8,2.7C9.4,3.6,8.1,2.4,8.1,0.9z M10.2,13.7l4.2-5.6h1.8l-4.9,6.4l-4.2,5.6H5.4
					L10.2,13.7z M14.5,18.9c-0.8,0-1.4-0.8-1.4-1.7v0c0-0.9,0.5-1.7,1.3-1.7c0.8,0,1.4,0.8,1.4,1.7v0C15.9,18.1,15.4,18.9,14.5,18.9
					z M7,14.1c-1.7,0-2.9-1.4-2.9-3v0c0-1.7,1.2-3.1,2.9-3.1S10,9.3,10,11v0C10,12.7,8.8,14.1,7,14.1z M7,9.3c0.8,0,1.4,0.8,1.4,1.7
					v0c0,0.9-0.5,1.7-1.3,1.7c-0.8,0-1.4-0.8-1.4-1.7v0C5.7,10,6.2,9.3,7,9.3z M14.5,20.2c-1.7,0-2.9-1.4-2.9-3v0
					c0-1.7,1.2-3.1,2.9-3.1c1.7,0,2.9,1.4,2.9,3v0C17.4,18.8,16.3,20.2,14.5,20.2z"/>
			</g>
			<defs>
				<filter id="icon_x2F_Service_x2F_coupon-fill-Adobe_OpacityMaskFilter" filterUnits="userSpaceOnUse" x="-13" y="-12" width="48" height="48">
					<feColorMatrix  type="matrix" values="1 0 0 0 0  0 1 0 0 0  0 0 1 0 0  0 0 0 1 0"/>
				</filter>
			</defs>
			<mask maskUnits="userSpaceOnUse" x="-13" y="-12" width="48" height="48" id="icon_x2F_Service_x2F_coupon-fill-mask-2">
				<g style="filter:url(#icon_x2F_Service_x2F_coupon-fill-Adobe_OpacityMaskFilter);">
					<path id="icon_x2F_Service_x2F_coupon-fill-path-1" style="fill:#FFFFFF;" d="M8.1,0.9L8.1,0.9L8.1,0.9C8.1,0.4,7.7,0,7.2,0h0H0.9h0l0,0C0.4,0,0,0.4,0,0.9l0,0
						v22.2l0,0l0,0C0,23.6,0.4,24,0.9,24h0h20.1h0l0,0c0.5,0,0.9-0.4,0.9-0.9l0,0V0.9l0,0l0,0C22,0.4,21.6,0,21.1,0h0h-6.4h0l0,0
						c-0.5,0-0.9,0.4-0.9,0.9l0,0c0,1.5-1.3,2.7-2.8,2.7C9.4,3.6,8.1,2.4,8.1,0.9z M10.2,13.7l4.2-5.6h1.8l-4.9,6.4l-4.2,5.6H5.4
						L10.2,13.7z M14.5,18.9c-0.8,0-1.4-0.8-1.4-1.7v0c0-0.9,0.5-1.7,1.3-1.7c0.8,0,1.4,0.8,1.4,1.7v0
						C15.9,18.1,15.4,18.9,14.5,18.9z M7,14.1c-1.7,0-2.9-1.4-2.9-3v0c0-1.7,1.2-3.1,2.9-3.1S10,9.3,10,11v0
						C10,12.7,8.8,14.1,7,14.1z M7,9.3c0.8,0,1.4,0.8,1.4,1.7v0c0,0.9-0.5,1.7-1.3,1.7c-0.8,0-1.4-0.8-1.4-1.7v0
						C5.7,10,6.2,9.3,7,9.3z M14.5,20.2c-1.7,0-2.9-1.4-2.9-3v0c0-1.7,1.2-3.1,2.9-3.1c1.7,0,2.9,1.4,2.9,3v0
						C17.4,18.8,16.3,20.2,14.5,20.2z"/>
				</g>
			</mask>
			<g id="icon_x2F_Service_x2F_coupon-fill-Color_x2F_Grayscale_x2F_Night-Sky" style="mask:url(#icon_x2F_Service_x2F_coupon-fill-mask-2);">
				<g id="icon_x2F_Service_x2F_coupon-fill-Swatch" transform="translate(-13.000000, -12.000000)">
					<rect style="fill:#111111;" width="48" height="48"/>
				</g>
			</g>
		</g>
	</g>
</g>
</svg>
