<svg id="icon_x2F_Service_x2F_coupon-fill-Layer_1" xmlns="http://www.w3.org/2000/svg" viewBox="0 0 48 48" enable-background="new 0 0 48 48"><title>icon/Service/coupon-fill</title><g id="icon_x2F_Service_x2F_coupon-fill-Symbols"><g id="icon_x2F_Service_x2F_coupon-fill"><g id="icon_x2F_Service_x2F_coupon-fill-Icon" transform="translate(13 12)"><g id="icon_x2F_Service_x2F_coupon-fill-Mask"><path id="icon_x2F_Service_x2F_coupon-fill-path-1_1_" d="M8.1.9c0-.5-.4-.9-.9-.9H.9C.4 0 0 .4 0 .9v22.2c0 .5.4.9.9.9H21c.5 0 .9-.4.9-.9V.9c.1-.5-.3-.9-.8-.9h-6.4c-.5 0-.9.4-.9.9 0 1.5-1.3 2.7-2.8 2.7-1.6 0-2.9-1.2-2.9-2.7zm2.1 12.8l4.2-5.6h1.8l-4.9 6.4-4.2 5.6H5.4l4.8-6.4zm4.3 5.2c-.8 0-1.4-.8-1.4-1.7 0-.9.5-1.7 1.3-1.7s1.4.8 1.4 1.7c.1.9-.4 1.7-1.3 1.7zM7 14.1c-1.7 0-2.9-1.4-2.9-3C4.1 9.4 5.3 8 7 8s3 1.3 3 3-1.2 3.1-3 3.1zm0-4.8c.8 0 1.4.8 1.4 1.7 0 .9-.5 1.7-1.3 1.7s-1.4-.8-1.4-1.7c0-1 .5-1.7 1.3-1.7zm7.5 10.9c-1.7 0-2.9-1.4-2.9-3 0-1.7 1.2-3.1 2.9-3.1s2.9 1.4 2.9 3c0 1.7-1.1 3.1-2.9 3.1z" fill="#384048"/></g><defs><filter id="icon_x2F_Service_x2F_coupon-fill-Adobe_OpacityMaskFilter" filterUnits="userSpaceOnUse" x="-13" y="-12" width="48" height="48"><feColorMatrix values="1 0 0 0 0 0 1 0 0 0 0 0 1 0 0 0 0 0 1 0"/></filter></defs><mask maskUnits="userSpaceOnUse" x="-13" y="-12" width="48" height="48" id="icon_x2F_Service_x2F_coupon-fill-mask-2"><g filter="url(#icon_x2F_Service_x2F_coupon-fill-Adobe_OpacityMaskFilter)"><path id="icon_x2F_Service_x2F_coupon-fill-path-1" d="M8.1.9c0-.5-.4-.9-.9-.9H.9C.4 0 0 .4 0 .9v22.2c0 .5.4.9.9.9H21c.5 0 .9-.4.9-.9V.9c.1-.5-.3-.9-.8-.9h-6.4c-.5 0-.9.4-.9.9 0 1.5-1.3 2.7-2.8 2.7-1.6 0-2.9-1.2-2.9-2.7zm2.1 12.8l4.2-5.6h1.8l-4.9 6.4-4.2 5.6H5.4l4.8-6.4zm4.3 5.2c-.8 0-1.4-.8-1.4-1.7 0-.9.5-1.7 1.3-1.7s1.4.8 1.4 1.7c.1.9-.4 1.7-1.3 1.7zM7 14.1c-1.7 0-2.9-1.4-2.9-3C4.1 9.4 5.3 8 7 8s3 1.3 3 3-1.2 3.1-3 3.1zm0-4.8c.8 0 1.4.8 1.4 1.7 0 .9-.5 1.7-1.3 1.7s-1.4-.8-1.4-1.7c0-1 .5-1.7 1.3-1.7zm7.5 10.9c-1.7 0-2.9-1.4-2.9-3 0-1.7 1.2-3.1 2.9-3.1s2.9 1.4 2.9 3c0 1.7-1.1 3.1-2.9 3.1z" fill="#fff"/></g></mask><g id="icon_x2F_Service_x2F_coupon-fill-Color_x2F_Grayscale_x2F_Night-Sky" mask="url(#icon_x2F_Service_x2F_coupon-fill-mask-2)"><path fill="#111" d="M0 0h48v48H0z" transform="translate(-13 -12)" id="icon_x2F_Service_x2F_coupon-fill-Swatch"/></g></g></g></g></svg>