<?xml version="1.0" encoding="UTF-8"?>
<svg width="48px" height="48px" viewBox="0 0 48 48" version="1.1" xmlns="http://www.w3.org/2000/svg" xmlns:xlink="http://www.w3.org/1999/xlink">
    <!-- Generator: Sketch 46.2 (44496) - http://www.bohemiancoding.com/sketch -->
    <title>icon/Service/gift-registry</title>
    <desc>Created with Sketch.</desc>
    <defs>
        <path d="M16.4639553,18.463096 C15.2399981,18.463096 14.2988945,16.1236461 13.9212589,13.8909192 C16.6986715,14.4882203 18.6083682,15.5258474 18.5849836,16.4346108 C18.556748,17.519629 17.7003511,18.3714236 16.5504035,18.4598619 C16.5211729,18.4619765 16.4924397,18.463096 16.4639553,18.463096 Z M16.5490353,7.41240427 C17.7004755,7.50096702 18.5568724,8.35276163 18.585108,9.43765541 C18.608617,10.3465431 16.6989203,11.3844191 13.9213833,11.9815957 C14.2986457,9.74911769 15.2398738,7.40929462 16.4639553,7.40929462 C16.4924397,7.40929462 16.5211729,7.41028971 16.5490353,7.41240427 Z M13.8018484,7.72025936 L13.8018484,0 L24.2741457,0 C25.1317865,0 26,0.85876022 26,1.61701664 L26,12.1899421 L17.9132998,12.1899421 C19.3759535,11.4214861 20.105228,10.4846115 20.0772412,9.3989714 C20.0284819,7.5338049 18.5928199,6.0725194 16.6619777,5.92400264 C16.5950581,5.91902721 16.5291336,5.91653949 16.4639553,5.91653949 C15.2747018,5.91653949 14.4161904,6.7012901 13.8018484,7.72025936 Z M8.19776629,12.1898177 L0.111190476,12.1898177 L0.111190476,1.72485921 C0.111190476,0.850177594 0.979777182,0 1.83704477,0 L12.3092177,0 L12.3092177,7.72038374 C11.6948757,6.7012901 10.8364887,5.91653949 9.64711075,5.91653949 C9.58180815,5.91653949 9.51600801,5.91902721 9.44759577,5.92412703 C7.51824615,6.0725194 6.08245976,7.5338049 6.03370049,9.39922017 C6.00571366,10.4846115 6.73498817,11.4213617 8.19776629,12.1898177 Z M17.9131754,13.6824485 L25.9998756,13.6824485 L25.9998756,24.147407 C25.9998756,25.0290542 25.125194,25.8568423 24.2740213,25.8722662 L13.8018484,25.8722662 L13.8018484,18.1520068 C14.4161904,19.1711005 15.2745774,19.9558511 16.463831,19.9558511 L16.4640797,19.9558511 C16.5293823,19.9558511 16.5951825,19.9533634 16.6634703,19.9482636 C18.5928199,19.7997468 20.0284819,18.3384613 20.0772412,16.4731704 C20.105228,15.3877791 19.3760779,14.4509045 17.9131754,13.6824485 Z M7.52583369,16.4347352 C7.50244914,15.5258474 9.41227018,14.4880959 12.1896828,13.8906705 C11.812296,16.1231485 10.871068,18.4629716 9.64711075,18.4629716 C9.61862638,18.4629716 9.58989323,18.4619765 9.56203079,18.4598619 C8.41046618,18.3712992 7.55419367,17.5195046 7.52583369,16.4347352 Z M9.64711075,7.40917023 C10.871068,7.40917023 11.8121716,9.74849576 12.1898072,11.981347 C9.41239456,11.3840459 7.50257353,10.3462944 7.52595807,9.4377798 C7.55431806,8.35276163 8.41059056,7.50084264 9.56066255,7.41240427 C9.58989323,7.41028971 9.61862638,7.40917023 9.64711075,7.40917023 Z M12.3092177,18.1520068 L12.3092177,25.8722662 L1.7292022,25.8722662 C0.943954044,25.8722662 0.111190476,24.993853 0.111190476,24.147407 L0.111190476,13.6824485 L8.19789068,13.6824485 C6.73498817,14.4507801 6.00571366,15.3876547 6.03370049,16.4734192 C6.08245976,18.3384613 7.51824615,19.7997468 9.44896401,19.9482636 C9.51588363,19.953239 9.58193254,19.9557267 9.64711075,19.9557267 C10.8364887,19.9557267 11.6948757,19.1709761 12.3092177,18.1520068 Z" id="path-1"></path>
    </defs>
    <g id="Symbols" stroke="none" stroke-width="1" fill="none" fill-rule="evenodd">
        <g id="icon/Service/gift-registry">
            <g id="Icon" transform="translate(11.000000, 11.000000)">
                <mask id="mask-2" fill="white">
                    <use xlink:href="#path-1"></use>
                </mask>
                <use id="Mask" fill="#384048" xlink:href="#path-1"></use>
                <g id="Color/Grayscale/Night-Sky" mask="url(#mask-2)" fill="#111111">
                    <g transform="translate(-11.000000, -11.000000)" id="Swatch">
                        <rect x="0" y="0" width="48" height="48"></rect>
                    </g>
                </g>
            </g>
        </g>
    </g>
</svg>