<svg id="icon_x2F_Service_x2F_gift-registry-Layer_1" xmlns="http://www.w3.org/2000/svg" viewBox="0 0 48 48" enable-background="new 0 0 48 48"><title>icon/Service/gift-registry</title><g id="icon_x2F_Service_x2F_gift-registry-Symbols"><g id="icon_x2F_Service_x2F_gift-registry"><g id="icon_x2F_Service_x2F_gift-registry-Icon" transform="translate(11 11)"><g id="icon_x2F_Service_x2F_gift-registry-Mask"><path id="icon_x2F_Service_x2F_gift-registry-path-1_1_" d="M16.5 18.5c-1.2 0-2.2-2.3-2.5-4.6 2.8.6 4.7 1.6 4.7 2.5-.1 1.1-1 2-2.2 2.1zm0-11.1c1.2.1 2 .9 2 2 0 .9-1.9 1.9-4.7 2.5.5-2.2 1.4-4.5 2.7-4.5zm-2.7.3V0h10.5c.8 0 1.7.9 1.7 1.6v10.6h-8.1c1.5-.8 2.2-1.7 2.2-2.8 0-1.9-1.5-3.3-3.4-3.5h-.2c-1.2 0-2.1.8-2.7 1.8zm-5.6 4.5H.1V1.7C.1.9 1 0 1.8 0h10.5v7.7c-.6-1-1.5-1.8-2.7-1.8h-.2C7.5 6.1 6.1 7.5 6 9.4c0 1.1.7 2 2.2 2.8zm9.7 1.5H26v10.5c0 .9-.9 1.7-1.7 1.7H13.8v-7.7c.6 1 1.5 1.8 2.7 1.8h.2c1.9-.1 3.4-1.6 3.4-3.5 0-1.1-.7-2-2.2-2.8zM7.5 16.4c0-.9 1.9-1.9 4.7-2.5-.4 2.2-1.3 4.6-2.5 4.6h-.1c-1.2-.1-2-1-2.1-2.1zm2.1-9c1.2 0 2.2 2.3 2.5 4.6-2.8-.6-4.7-1.6-4.7-2.5.2-1.1 1-2 2.2-2.1zm2.7 10.8v7.7H1.7c-.8 0-1.6-.9-1.6-1.7V13.7h8.1c-1.5.8-2.2 1.7-2.2 2.8 0 1.9 1.5 3.3 3.4 3.5h.2c1.2 0 2.1-.8 2.7-1.8z" fill="#384048"/></g><defs><filter id="icon_x2F_Service_x2F_gift-registry-Adobe_OpacityMaskFilter" filterUnits="userSpaceOnUse" x="-11" y="-11" width="48" height="48"><feColorMatrix values="1 0 0 0 0 0 1 0 0 0 0 0 1 0 0 0 0 0 1 0"/></filter></defs><mask maskUnits="userSpaceOnUse" x="-11" y="-11" width="48" height="48" id="icon_x2F_Service_x2F_gift-registry-mask-2"><g filter="url(#icon_x2F_Service_x2F_gift-registry-Adobe_OpacityMaskFilter)"><path id="icon_x2F_Service_x2F_gift-registry-path-1" d="M16.5 18.5c-1.2 0-2.2-2.3-2.5-4.6 2.8.6 4.7 1.6 4.7 2.5-.1 1.1-1 2-2.2 2.1zm0-11.1c1.2.1 2 .9 2 2 0 .9-1.9 1.9-4.7 2.5.5-2.2 1.4-4.5 2.7-4.5zm-2.7.3V0h10.5c.8 0 1.7.9 1.7 1.6v10.6h-8.1c1.5-.8 2.2-1.7 2.2-2.8 0-1.9-1.5-3.3-3.4-3.5h-.2c-1.2 0-2.1.8-2.7 1.8zm-5.6 4.5H.1V1.7C.1.9 1 0 1.8 0h10.5v7.7c-.6-1-1.5-1.8-2.7-1.8h-.2C7.5 6.1 6.1 7.5 6 9.4c0 1.1.7 2 2.2 2.8zm9.7 1.5H26v10.5c0 .9-.9 1.7-1.7 1.7H13.8v-7.7c.6 1 1.5 1.8 2.7 1.8h.2c1.9-.1 3.4-1.6 3.4-3.5 0-1.1-.7-2-2.2-2.8zM7.5 16.4c0-.9 1.9-1.9 4.7-2.5-.4 2.2-1.3 4.6-2.5 4.6h-.1c-1.2-.1-2-1-2.1-2.1zm2.1-9c1.2 0 2.2 2.3 2.5 4.6-2.8-.6-4.7-1.6-4.7-2.5.2-1.1 1-2 2.2-2.1zm2.7 10.8v7.7H1.7c-.8 0-1.6-.9-1.6-1.7V13.7h8.1c-1.5.8-2.2 1.7-2.2 2.8 0 1.9 1.5 3.3 3.4 3.5h.2c1.2 0 2.1-.8 2.7-1.8z" fill="#fff"/></g></mask><g id="icon_x2F_Service_x2F_gift-registry-Color_x2F_Grayscale_x2F_Night-Sky" mask="url(#icon_x2F_Service_x2F_gift-registry-mask-2)"><path fill="#111" d="M0 0h48v48H0z" transform="translate(-11 -11)" id="icon_x2F_Service_x2F_gift-registry-Swatch"/></g></g></g></g></svg>