<?xml version="1.0" encoding="utf-8"?>
<svg version="1.1" id="icon_x2F_Service_x2F_wallet-Layer_1"
	 xmlns="http://www.w3.org/2000/svg" xmlns:xlink="http://www.w3.org/1999/xlink" x="0px" y="0px" viewBox="0 0 48 48"
	 style="enable-background:new 0 0 48 48;" xml:space="preserve">
<path id="icon_x2F_Service_x2F_wallet-path-1_1_" style="fill:#111111;" d="M30,29.2h6v2.7c0,1.2-1,2.1-2.1,2.1H14.1
	C13,34,12,33,12,31.9V19.4c0-1.2,1-2.1,2.1-2.1h19.7c1.2,0,2.1,1,2.1,2.1v2.7h-6c-1,0-1.8,0.4-2.4,1.2c-0.5,0.7-0.8,1.5-0.8,2.4
	C26.8,27.4,27.9,29.2,30,29.2z M33.3,16.7H16.1L30.3,14h0.5c1.2,0,2.2,0.9,2.4,2L33.3,16.7C33.3,16.6,33.3,16.7,33.3,16.7z M30,23.3
	h6V28h-6c-1.4,0-2-1.2-2-2.3c0-0.6,0.2-1.3,0.5-1.7C28.9,23.5,29.4,23.3,30,23.3z M31.4,27c0.8,0,1.4-0.6,1.4-1.4
	c0-0.8-0.6-1.4-1.4-1.4c-0.8,0-1.4,0.7-1.4,1.4C30,26.4,30.6,27,31.4,27z"/>
</svg>
