<svg id="icon_x2F_Service_x2F_wallet-Layer_1" xmlns="http://www.w3.org/2000/svg" viewBox="0 0 48 48" enable-background="new 0 0 48 48"><title>icon/Service/wallet</title><g id="icon_x2F_Service_x2F_wallet-Symbols"><g id="icon_x2F_Service_x2F_wallet"><g id="icon_x2F_Service_x2F_wallet-Icon" transform="translate(12 14)"><g id="icon_x2F_Service_x2F_wallet-Mask"><path id="icon_x2F_Service_x2F_wallet-path-1_1_" d="M18 15.2h6v2.7c0 1.2-1 2.1-2.1 2.1H2.1C1 20 0 19 0 17.9V5.4c0-1.2 1-2.1 2.1-2.1h19.7c1.2 0 2.1 1 2.1 2.1v2.7h-6c-1 0-1.8.4-2.4 1.2-.5.7-.8 1.5-.8 2.4.1 1.7 1.2 3.5 3.3 3.5zm3.3-12.5H4.1L18.3 0h.5c1.2 0 2.2.9 2.4 2l.1.7c0-.1 0 0 0 0zM18 9.3h6V14h-6c-1.4 0-2-1.2-2-2.3 0-.6.2-1.3.5-1.7.4-.5.9-.7 1.5-.7zm1.4 3.7c.8 0 1.4-.6 1.4-1.4 0-.8-.6-1.4-1.4-1.4s-1.4.7-1.4 1.4c0 .8.6 1.4 1.4 1.4z" fill="#384048"/></g><defs><filter id="icon_x2F_Service_x2F_wallet-Adobe_OpacityMaskFilter" filterUnits="userSpaceOnUse" x="-12" y="-14" width="48" height="48"><feColorMatrix values="1 0 0 0 0 0 1 0 0 0 0 0 1 0 0 0 0 0 1 0"/></filter></defs><mask maskUnits="userSpaceOnUse" x="-12" y="-14" width="48" height="48" id="icon_x2F_Service_x2F_wallet-mask-2"><g filter="url(#icon_x2F_Service_x2F_wallet-Adobe_OpacityMaskFilter)"><path id="icon_x2F_Service_x2F_wallet-path-1" d="M18 15.2h6v2.7c0 1.2-1 2.1-2.1 2.1H2.1C1 20 0 19 0 17.9V5.4c0-1.2 1-2.1 2.1-2.1h19.7c1.2 0 2.1 1 2.1 2.1v2.7h-6c-1 0-1.8.4-2.4 1.2-.5.7-.8 1.5-.8 2.4.1 1.7 1.2 3.5 3.3 3.5zm3.3-12.5H4.1L18.3 0h.5c1.2 0 2.2.9 2.4 2l.1.7c0-.1 0 0 0 0zM18 9.3h6V14h-6c-1.4 0-2-1.2-2-2.3 0-.6.2-1.3.5-1.7.4-.5.9-.7 1.5-.7zm1.4 3.7c.8 0 1.4-.6 1.4-1.4 0-.8-.6-1.4-1.4-1.4s-1.4.7-1.4 1.4c0 .8.6 1.4 1.4 1.4z" fill="#fff"/></g></mask><g id="icon_x2F_Service_x2F_wallet-Color_x2F_Grayscale_x2F_Night-Sky" mask="url(#icon_x2F_Service_x2F_wallet-mask-2)"><path fill="#111" d="M0 0h48v48H0z" transform="translate(-12 -14)" id="icon_x2F_Service_x2F_wallet-Swatch"/></g></g></g></g></svg>