<?xml version="1.0" encoding="utf-8"?>
<svg version="1.1" id="action-chat-fill-Layer_1" xmlns="http://www.w3.org/2000/svg" xmlns:xlink="http://www.w3.org/1999/xlink"
	 x="0px" y="0px" viewBox="0 0 48 48" style="enable-background:new 0 0 48 48;" xml:space="preserve">
<path id="action-chat-fill-a_1_" style="fill:#111111;" d="M37.9,19.2c1,0,2.1,0.8,2.1,2.2v6.9c0,0.5-0.3,1.1-0.8,1.5
	c-0.5,0.5-1.2,0.8-1.9,0.8h-2v3.6c0,0.3-0.2,0.5-0.5,0.7c-0.3,0.1-0.6,0.1-0.9-0.1l-4.7-4.1H24c-1.5,0-2.7-1-2.7-2.4v-6.8
	c0-1.3,1.2-2.3,2.7-2.3H37.9z M20.5,21.5V26H20l-4.8,4c-0.2,0.2-0.6,0.2-0.9,0.1c-0.3-0.1-0.5-0.4-0.5-0.7V26
	c-0.1,0-0.1-0.1-0.2-0.1h-3.4C9,26,8,25,8,23.8v-8.6C8,14,9,13,10.3,13h17.9c1.3,0,2.3,1,2.3,2.2v3.3H24
	C22.1,18.5,20.5,19.8,20.5,21.5z"/>
</svg>
