<svg id="action-chat-line-Layer_1" xmlns="http://www.w3.org/2000/svg" viewBox="0 0 48 48" enable-background="new 0 0 48 48"><title>icon/Action/chat-line</title><g transform="translate(9 14)"><path id="action-chat-line-a_1_" d="M24.9 22c-.2 0-.4-.1-.5-.2L20 17.7h-5c-1.4 0-2.5-1-2.5-2.4V8.5c0-1.3 1.1-2.3 2.5-2.3h13c1 0 2 .8 2 2.2v6.9c0 .5-.3 1.1-.7 1.5-.5.5-1.1.8-1.8.8h-1.9v3.6c0 .3-.2.5-.5.7 0 .1-.1.1-.2.1zM15 7.7h13c.2 0 .5.2.5.7v6.9c0 .3-.4.9-1 1h-2.1c-.7 0-1.3.6-1.3 1.3v2l-3.2-3h-.1c-.3-.2-.6-.3-.9-.3h-5c-.6 0-1-.4-1-1V8.5c.1-.5.5-.8 1.1-.8zm-9.1 9.5c-.3-.1-.4-.4-.4-.7v-3.4s-.1-.1-.2-.1H2.1C1 13 0 12 0 10.8V2.2C0 1 1 0 2.1 0h16.8C20 0 21 1 21 2.2v4.1h-1.5V2.2c0-.4-.3-.7-.6-.7H2.1c-.3 0-.6.3-.6.7v8.6c0 .5.3.8.6.8h3.2c.8 0 1.7.6 1.7 1.4v1.8l3.5-3.1c.1-.1.3-.2.5-.2h1.5v1.4h-1.2l-4.5 4c-.3.3-.6.4-.9.3z" fill="#384048"/><defs><filter id="action-chat-line-Adobe_OpacityMaskFilter" filterUnits="userSpaceOnUse" x="-9" y="-14" width="48" height="48"><feColorMatrix values="1 0 0 0 0 0 1 0 0 0 0 0 1 0 0 0 0 0 1 0"/></filter></defs><mask maskUnits="userSpaceOnUse" x="-9" y="-14" width="48" height="48" id="action-chat-line-b"><g filter="url(#action-chat-line-Adobe_OpacityMaskFilter)"><path id="action-chat-line-a" d="M24.9 22c-.2 0-.4-.1-.5-.2L20 17.7h-5c-1.4 0-2.5-1-2.5-2.4V8.5c0-1.3 1.1-2.3 2.5-2.3h13c1 0 2 .8 2 2.2v6.9c0 .5-.3 1.1-.7 1.5-.5.5-1.1.8-1.8.8h-1.9v3.6c0 .3-.2.5-.5.7 0 .1-.1.1-.2.1zM15 7.7h13c.2 0 .5.2.5.7v6.9c0 .3-.4.9-1 1h-2.1c-.7 0-1.3.6-1.3 1.3v2l-3.2-3h-.1c-.3-.2-.6-.3-.9-.3h-5c-.6 0-1-.4-1-1V8.5c.1-.5.5-.8 1.1-.8zm-9.1 9.5c-.3-.1-.4-.4-.4-.7v-3.4s-.1-.1-.2-.1H2.1C1 13 0 12 0 10.8V2.2C0 1 1 0 2.1 0h16.8C20 0 21 1 21 2.2v4.1h-1.5V2.2c0-.4-.3-.7-.6-.7H2.1c-.3 0-.6.3-.6.7v8.6c0 .5.3.8.6.8h3.2c.8 0 1.7.6 1.7 1.4v1.8l3.5-3.1c.1-.1.3-.2.5-.2h1.5v1.4h-1.2l-4.5 4c-.3.3-.6.4-.9.3z" fill="#fff"/></g></mask><g mask="url(#action-chat-line-b)"><path d="M-9-14h48v48H-9v-48z" fill="#111"/></g></g></svg>