<?xml version="1.0" encoding="UTF-8"?>
<svg width="48px" height="48px" viewBox="0 0 48 48" version="1.1" xmlns="http://www.w3.org/2000/svg" xmlns:xlink="http://www.w3.org/1999/xlink">
    <!-- Generator: Sketch 46.2 (44496) - http://www.bohemiancoding.com/sketch -->
    <title>icon/Action/chat-fill</title>
    <desc>Created with Sketch.</desc>
    <defs>
        <path d="M29.8665422,6.2173913 C30.9152045,6.2173913 31.9998667,7.02242391 32,8.36956522 L32,15.3043478 C32,15.807837 31.7188012,16.3846196 31.2480031,16.847337 C30.7285386,17.3577609 30.0652081,17.6584674 29.3798776,17.6944565 C29.3642776,17.6952935 29.3486777,17.6956522 29.3332111,17.6956522 L27.3344194,17.6956522 L27.3332194,21.2826087 C27.3332194,21.5702826 27.1416202,21.8300978 26.8464215,21.9427283 C26.7454886,21.9813478 26.6389557,22 26.5333561,22 C26.3304236,22 26.1305578,21.9306522 25.9784251,21.7993696 L21.2375115,17.7066522 C21.2311115,17.702587 21.2252449,17.6988804 21.2196449,17.6956522 L15.9999333,17.6956522 C14.479673,17.6956522 13.3332778,16.6676304 13.3332778,15.3043478 L13.3332778,8.48913043 C13.3332778,7.23644565 14.5295395,6.2173913 15.9999333,6.2173913 L29.8665422,6.2173913 Z M12.5332811,8.48913043 L12.5331478,8.48913043 L12.5331478,13.0321304 C12.3432819,13.03225 12.1768826,13.0323696 12.0456831,13.0324891 L7.2085033,17.0276413 C7.05797059,17.1521087 6.86343807,17.2173913 6.66637222,17.2173913 C6.55797268,17.2173913 6.4486398,17.197663 6.34530689,17.1570109 C6.05450811,17.042587 5.86664222,16.7848043 5.86664222,16.5 L5.86664222,13.096337 C5.82357574,13.0646522 5.74210941,13.0309348 5.69010962,13.0309348 L2.24279066,13.0309348 C1.02706239,13.0309348 0,11.9914348 0,10.7608696 L0,2.15217391 C0,0.96548913 1.01679576,0 2.26665722,0 L20.1332494,0 C21.3831109,0 22.3999067,0.96548913 22.3999067,2.15217391 L22.3999067,5.5 L15.9999333,5.5 C14.0884746,5.5 12.5332811,6.84092391 12.5332811,8.48913043 Z" id="path-1"></path>
    </defs>
    <g id="Symbols" stroke="none" stroke-width="1" fill="none" fill-rule="evenodd">
        <g id="icon/Action/chat-fill">
            <g id="Icon" transform="translate(8.000000, 13.000000)">
                <mask id="mask-2" fill="white">
                    <use xlink:href="#path-1"></use>
                </mask>
                <use id="Mask" fill="#384048" xlink:href="#path-1"></use>
                <g id="Color/Grayscale/Night-Sky" mask="url(#mask-2)" fill="#111111">
                    <g transform="translate(-8.000000, -13.000000)" id="Swatch">
                        <rect x="0" y="0" width="48" height="48"></rect>
                    </g>
                </g>
            </g>
        </g>
    </g>
</svg>