<?xml version="1.0" encoding="utf-8"?>
<!-- Generator: Adobe Illustrator 21.0.2, SVG Export Plug-In . SVG Version: 6.00 Build 0)  -->
<svg version="1.1" id="action-chat-line-Layer_1" xmlns="http://www.w3.org/2000/svg" xmlns:xlink="http://www.w3.org/1999/xlink" x="0px" y="0px"
	 viewBox="0 0 48 48" style="enable-background:new 0 0 48 48;" xml:space="preserve">
<title>icon/Action/chat-line</title>
<g transform="translate(9 14)">
	<g>
		<path id="action-chat-line-a_1_" style="fill:#384048;" d="M24.9,22c-0.2,0-0.4-0.1-0.5-0.2l-4.4-4.1c0,0,0,0,0,0H15c-1.4,0-2.5-1-2.5-2.4V8.5
			c0-1.3,1.1-2.3,2.5-2.3h13c1,0,2,0.8,2,2.2v6.9c0,0.5-0.3,1.1-0.7,1.5c-0.5,0.5-1.1,0.8-1.8,0.8c0,0,0,0,0,0h-1.9l0,3.6
			c0,0.3-0.2,0.5-0.5,0.7C25.1,22,25,22,24.9,22L24.9,22z M15,7.7h13c0.2,0,0.5,0.2,0.5,0.7v6.9c0,0.3-0.4,0.9-1,1h-2.1
			c-0.7,0-1.3,0.6-1.3,1.3v2l-3.2-3c0,0,0,0-0.1,0c-0.3-0.2-0.6-0.3-0.9-0.3h-5c-0.6,0-1-0.4-1-1V8.5C14,8,14.4,7.7,15,7.7L15,7.7z
			 M5.9,17.2c-0.3-0.1-0.4-0.4-0.4-0.7v-3.4c0,0-0.1-0.1-0.2-0.1H2.1C1,13,0,12,0,10.8V2.2C0,1,1,0,2.1,0h16.8C20,0,21,1,21,2.2v4.1
			h-1.5V2.2c0-0.4-0.3-0.7-0.6-0.7H2.1c-0.3,0-0.6,0.3-0.6,0.7v8.6c0,0.5,0.3,0.8,0.6,0.8h3.2C6.1,11.6,7,12.2,7,13v1.8l3.5-3.1
			c0.1-0.1,0.3-0.2,0.5-0.2c0.4,0,1.5,0,1.5,0l0,1.4l-1.2,0l-4.5,4C6.5,17.2,6.2,17.3,5.9,17.2L5.9,17.2z"/>
	</g>
	<defs>
		<filter id="action-chat-line-Adobe_OpacityMaskFilter" filterUnits="userSpaceOnUse" x="-9" y="-14" width="48" height="48">
			<feColorMatrix  type="matrix" values="1 0 0 0 0  0 1 0 0 0  0 0 1 0 0  0 0 0 1 0"/>
		</filter>
	</defs>
	<mask maskUnits="userSpaceOnUse" x="-9" y="-14" width="48" height="48" id="action-chat-line-b">
		<g style="filter:url(#action-chat-line-Adobe_OpacityMaskFilter);">
			<path id="action-chat-line-a" style="fill:#FFFFFF;" d="M24.9,22c-0.2,0-0.4-0.1-0.5-0.2l-4.4-4.1c0,0,0,0,0,0H15c-1.4,0-2.5-1-2.5-2.4V8.5
				c0-1.3,1.1-2.3,2.5-2.3h13c1,0,2,0.8,2,2.2v6.9c0,0.5-0.3,1.1-0.7,1.5c-0.5,0.5-1.1,0.8-1.8,0.8c0,0,0,0,0,0h-1.9l0,3.6
				c0,0.3-0.2,0.5-0.5,0.7C25.1,22,25,22,24.9,22L24.9,22z M15,7.7h13c0.2,0,0.5,0.2,0.5,0.7v6.9c0,0.3-0.4,0.9-1,1h-2.1
				c-0.7,0-1.3,0.6-1.3,1.3v2l-3.2-3c0,0,0,0-0.1,0c-0.3-0.2-0.6-0.3-0.9-0.3h-5c-0.6,0-1-0.4-1-1V8.5C14,8,14.4,7.7,15,7.7L15,7.7z
				 M5.9,17.2c-0.3-0.1-0.4-0.4-0.4-0.7v-3.4c0,0-0.1-0.1-0.2-0.1H2.1C1,13,0,12,0,10.8V2.2C0,1,1,0,2.1,0h16.8C20,0,21,1,21,2.2
				v4.1h-1.5V2.2c0-0.4-0.3-0.7-0.6-0.7H2.1c-0.3,0-0.6,0.3-0.6,0.7v8.6c0,0.5,0.3,0.8,0.6,0.8h3.2C6.1,11.6,7,12.2,7,13v1.8
				l3.5-3.1c0.1-0.1,0.3-0.2,0.5-0.2c0.4,0,1.5,0,1.5,0l0,1.4l-1.2,0l-4.5,4C6.5,17.2,6.2,17.3,5.9,17.2L5.9,17.2z"/>
		</g>
	</mask>
	<g style="mask:url(#action-chat-line-b);">
		<path style="fill:#111111;" d="M-9-14h48v48H-9V-14z"/>
	</g>
</g>
</svg>
