<svg id="action-eye-crossed-out-Layer_1" xmlns="http://www.w3.org/2000/svg" viewBox="0 0 48 48" enable-background="new 0 0 48 48"><title>icon/Action/eye-crossed-out</title><g transform="translate(11 12)"><path id="action-eye-crossed-out-a_1_" d="M23 .3c.3-.2.5-.3.8-.3h.1c.3 0 .5.1.7.3.2.2.4.5.4.8 0 .3-.1.6-.4.8l-4.3 4.4c.5.3 1 .7 1.5 1.1.5.4.9.8 1.3 1.1l1.1 1.1c.4.4.6.6.8.9l.6.6.3.3c.2.2.2.4 0 .7-.2.2-.5.5-.8.9-.3.4-.9 1-1.8 1.8s-1.8 1.6-2.8 2.3c-.9.6-2.1 1.2-3.5 1.8-1.4.5-2.7.8-4 .8-1.4 0-2.9-.3-4.6-1l-5 5.2c-.1 0-.4.1-.7.1-.3 0-.6-.1-.8-.3-.2-.2-.3-.6-.3-.9 0-.3.1-.6.3-.7L23 .3zm-7.4 14.2c-.7.8-1.6 1.2-2.7 1.2-.5 0-1-.1-1.4-.3l-.8.8c.7.4 1.4.6 2.2.6.9 0 1.7-.2 2.5-.7.7-.5 1.3-1.1 1.8-1.9.4-.8.7-1.6.7-2.5 0-.8-.2-1.6-.6-2.3l-.8.8c.2.5.3 1 .3 1.5 0 1.1-.4 2-1.2 2.8zM10.9 4.1c.7-.1 1.4-.2 2.1-.2 1.3 0 2.7.3 4.2.8l-2.3 2.4c-.7-.3-1.3-.4-1.9-.4-1.4 0-2.5.5-3.4 1.5-.9 1-1.4 2.2-1.4 3.6 0 .6.1 1.3.4 1.9L5.5 17c-1-.6-1.9-1.3-2.7-2.1-.9-.8-1.5-1.4-1.8-1.8-.3-.3-.5-.6-.8-.9-.2-.2-.2-.4 0-.7l.2-.5c.2-.2.3-.4.5-.6l.8-.8c.3-.3.7-.7 1.1-1 .3-.4.8-.7 1.2-1.1 1-.8 2-1.5 3.1-2 .7-.4 1.3-.6 1.9-.9.6-.2 1.3-.4 1.9-.5zm-.6 4.8c.8-.7 1.7-1.1 2.7-1.1.4 0 .7.1 1 .2l-4.6 4.8c-.1-.3-.2-.7-.2-1.1 0-1.1.4-2 1.1-2.8z" fill="#384048"/><defs><filter id="action-eye-crossed-out-Adobe_OpacityMaskFilter" filterUnits="userSpaceOnUse" x="-11" y="-12" width="48" height="48"><feColorMatrix values="1 0 0 0 0 0 1 0 0 0 0 0 1 0 0 0 0 0 1 0"/></filter></defs><mask maskUnits="userSpaceOnUse" x="-11" y="-12" width="48" height="48" id="action-eye-crossed-out-b"><g filter="url(#action-eye-crossed-out-Adobe_OpacityMaskFilter)"><path id="action-eye-crossed-out-a" d="M23 .3c.3-.2.5-.3.8-.3h.1c.3 0 .5.1.7.3.2.2.4.5.4.8 0 .3-.1.6-.4.8l-4.3 4.4c.5.3 1 .7 1.5 1.1.5.4.9.8 1.3 1.1l1.1 1.1c.4.4.6.6.8.9l.6.6.3.3c.2.2.2.4 0 .7-.2.2-.5.5-.8.9-.3.4-.9 1-1.8 1.8s-1.8 1.6-2.8 2.3c-.9.6-2.1 1.2-3.5 1.8-1.4.5-2.7.8-4 .8-1.4 0-2.9-.3-4.6-1l-5 5.2c-.1 0-.4.1-.7.1-.3 0-.6-.1-.8-.3-.2-.2-.3-.6-.3-.9 0-.3.1-.6.3-.7L23 .3zm-7.4 14.2c-.7.8-1.6 1.2-2.7 1.2-.5 0-1-.1-1.4-.3l-.8.8c.7.4 1.4.6 2.2.6.9 0 1.7-.2 2.5-.7.7-.5 1.3-1.1 1.8-1.9.4-.8.7-1.6.7-2.5 0-.8-.2-1.6-.6-2.3l-.8.8c.2.5.3 1 .3 1.5 0 1.1-.4 2-1.2 2.8zM10.9 4.1c.7-.1 1.4-.2 2.1-.2 1.3 0 2.7.3 4.2.8l-2.3 2.4c-.7-.3-1.3-.4-1.9-.4-1.4 0-2.5.5-3.4 1.5-.9 1-1.4 2.2-1.4 3.6 0 .6.1 1.3.4 1.9L5.5 17c-1-.6-1.9-1.3-2.7-2.1-.9-.8-1.5-1.4-1.8-1.8-.3-.3-.5-.6-.8-.9-.2-.2-.2-.4 0-.7l.2-.5c.2-.2.3-.4.5-.6l.8-.8c.3-.3.7-.7 1.1-1 .3-.4.8-.7 1.2-1.1 1-.8 2-1.5 3.1-2 .7-.4 1.3-.6 1.9-.9.6-.2 1.3-.4 1.9-.5zm-.6 4.8c.8-.7 1.7-1.1 2.7-1.1.4 0 .7.1 1 .2l-4.6 4.8c-.1-.3-.2-.7-.2-1.1 0-1.1.4-2 1.1-2.8z" fill="#fff"/></g></mask><g mask="url(#action-eye-crossed-out-b)"><path d="M-11-12h48v48h-48v-48z" fill="#111"/></g></g></svg>