<?xml version="1.0" encoding="utf-8"?>
<!-- Generator: Adobe Illustrator 21.0.2, SVG Export Plug-In . SVG Version: 6.00 Build 0)  -->
<svg version="1.1" id="action-eye-crossed-out-Layer_1" xmlns="http://www.w3.org/2000/svg" xmlns:xlink="http://www.w3.org/1999/xlink" x="0px" y="0px"
	 viewBox="0 0 48 48" style="enable-background:new 0 0 48 48;" xml:space="preserve">
<title>icon/Action/eye-crossed-out</title>
<g transform="translate(11 12)">
	<g>
		<path id="action-eye-crossed-out-a_1_" style="fill:#384048;" d="M23,0.3C23.3,0.1,23.5,0,23.8,0l0.1,0c0.3,0,0.5,0.1,0.7,0.3c0.2,0.2,0.4,0.5,0.4,0.8
			c0,0.3-0.1,0.6-0.4,0.8l-4.3,4.4c0.5,0.3,1,0.7,1.5,1.1c0.5,0.4,0.9,0.8,1.3,1.1c0.4,0.4,0.7,0.7,1.1,1.1c0.4,0.4,0.6,0.6,0.8,0.9
			c0.2,0.2,0.4,0.4,0.6,0.6l0.3,0.3c0.2,0.2,0.2,0.4,0,0.7c-0.2,0.2-0.5,0.5-0.8,0.9c-0.3,0.4-0.9,1-1.8,1.8
			c-0.9,0.8-1.8,1.6-2.8,2.3c-0.9,0.6-2.1,1.2-3.5,1.8c-1.4,0.5-2.7,0.8-4,0.8c-1.4,0-2.9-0.3-4.6-1l-5,5.2C3.3,23.9,3,24,2.7,24
			c-0.3,0-0.6-0.1-0.8-0.3c-0.2-0.2-0.3-0.6-0.3-0.9c0-0.3,0.1-0.6,0.3-0.7L23,0.3z M15.6,14.5c-0.7,0.8-1.6,1.2-2.7,1.2
			c-0.5,0-1-0.1-1.4-0.3l-0.8,0.8c0.7,0.4,1.4,0.6,2.2,0.6c0.9,0,1.7-0.2,2.5-0.7c0.7-0.5,1.3-1.1,1.8-1.9c0.4-0.8,0.7-1.6,0.7-2.5
			c0-0.8-0.2-1.6-0.6-2.3l-0.8,0.8c0.2,0.5,0.3,1,0.3,1.5C16.8,12.8,16.4,13.7,15.6,14.5L15.6,14.5z M10.9,4.1
			c0.7-0.1,1.4-0.2,2.1-0.2c1.3,0,2.7,0.3,4.2,0.8l-2.3,2.4c-0.7-0.3-1.3-0.4-1.9-0.4c-1.4,0-2.5,0.5-3.4,1.5
			c-0.9,1-1.4,2.2-1.4,3.6c0,0.6,0.1,1.3,0.4,1.9l-3.1,3.3c-1-0.6-1.9-1.3-2.7-2.1c-0.9-0.8-1.5-1.4-1.8-1.8
			c-0.3-0.3-0.5-0.6-0.8-0.9c-0.2-0.2-0.2-0.4,0-0.7L0.4,11c0.2-0.2,0.3-0.4,0.5-0.6c0.2-0.2,0.5-0.5,0.8-0.8c0.3-0.3,0.7-0.7,1.1-1
			C3.1,8.2,3.6,7.9,4,7.5c1-0.8,2-1.5,3.1-2C7.8,5.1,8.4,4.9,9,4.6C9.6,4.4,10.3,4.2,10.9,4.1L10.9,4.1z M10.3,8.9
			C11.1,8.2,12,7.8,13,7.8c0.4,0,0.7,0.1,1,0.2l-4.6,4.8c-0.1-0.3-0.2-0.7-0.2-1.1C9.2,10.6,9.6,9.7,10.3,8.9z"/>
	</g>
	<defs>
		<filter id="action-eye-crossed-out-Adobe_OpacityMaskFilter" filterUnits="userSpaceOnUse" x="-11" y="-12" width="48" height="48">
			<feColorMatrix  type="matrix" values="1 0 0 0 0  0 1 0 0 0  0 0 1 0 0  0 0 0 1 0"/>
		</filter>
	</defs>
	<mask maskUnits="userSpaceOnUse" x="-11" y="-12" width="48" height="48" id="action-eye-crossed-out-b">
		<g style="filter:url(#action-eye-crossed-out-Adobe_OpacityMaskFilter);">
			<path id="action-eye-crossed-out-a" style="fill:#FFFFFF;" d="M23,0.3C23.3,0.1,23.5,0,23.8,0l0.1,0c0.3,0,0.5,0.1,0.7,0.3c0.2,0.2,0.4,0.5,0.4,0.8
				c0,0.3-0.1,0.6-0.4,0.8l-4.3,4.4c0.5,0.3,1,0.7,1.5,1.1c0.5,0.4,0.9,0.8,1.3,1.1c0.4,0.4,0.7,0.7,1.1,1.1
				c0.4,0.4,0.6,0.6,0.8,0.9c0.2,0.2,0.4,0.4,0.6,0.6l0.3,0.3c0.2,0.2,0.2,0.4,0,0.7c-0.2,0.2-0.5,0.5-0.8,0.9
				c-0.3,0.4-0.9,1-1.8,1.8c-0.9,0.8-1.8,1.6-2.8,2.3c-0.9,0.6-2.1,1.2-3.5,1.8c-1.4,0.5-2.7,0.8-4,0.8c-1.4,0-2.9-0.3-4.6-1l-5,5.2
				C3.3,23.9,3,24,2.7,24c-0.3,0-0.6-0.1-0.8-0.3c-0.2-0.2-0.3-0.6-0.3-0.9c0-0.3,0.1-0.6,0.3-0.7L23,0.3z M15.6,14.5
				c-0.7,0.8-1.6,1.2-2.7,1.2c-0.5,0-1-0.1-1.4-0.3l-0.8,0.8c0.7,0.4,1.4,0.6,2.2,0.6c0.9,0,1.7-0.2,2.5-0.7
				c0.7-0.5,1.3-1.1,1.8-1.9c0.4-0.8,0.7-1.6,0.7-2.5c0-0.8-0.2-1.6-0.6-2.3l-0.8,0.8c0.2,0.5,0.3,1,0.3,1.5
				C16.8,12.8,16.4,13.7,15.6,14.5L15.6,14.5z M10.9,4.1c0.7-0.1,1.4-0.2,2.1-0.2c1.3,0,2.7,0.3,4.2,0.8l-2.3,2.4
				c-0.7-0.3-1.3-0.4-1.9-0.4c-1.4,0-2.5,0.5-3.4,1.5c-0.9,1-1.4,2.2-1.4,3.6c0,0.6,0.1,1.3,0.4,1.9l-3.1,3.3
				c-1-0.6-1.9-1.3-2.7-2.1c-0.9-0.8-1.5-1.4-1.8-1.8c-0.3-0.3-0.5-0.6-0.8-0.9c-0.2-0.2-0.2-0.4,0-0.7L0.4,11
				c0.2-0.2,0.3-0.4,0.5-0.6c0.2-0.2,0.5-0.5,0.8-0.8c0.3-0.3,0.7-0.7,1.1-1C3.1,8.2,3.6,7.9,4,7.5c1-0.8,2-1.5,3.1-2
				C7.8,5.1,8.4,4.9,9,4.6C9.6,4.4,10.3,4.2,10.9,4.1L10.9,4.1z M10.3,8.9C11.1,8.2,12,7.8,13,7.8c0.4,0,0.7,0.1,1,0.2l-4.6,4.8
				c-0.1-0.3-0.2-0.7-0.2-1.1C9.2,10.6,9.6,9.7,10.3,8.9z"/>
		</g>
	</mask>
	<g style="mask:url(#action-eye-crossed-out-b);">
		<path style="fill:#111111;" d="M-11-12h48v48h-48V-12z"/>
	</g>
</g>
</svg>
