<svg id="action-eye-Layer_1" xmlns="http://www.w3.org/2000/svg" viewBox="0 0 48 48" enable-background="new 0 0 48 48"><title>icon/Action/eye</title><g transform="translate(11 17)"><path id="action-eye-a_1_" d="M25.8 6.7c.2.2.2.4 0 .6-.2.3-.4.5-.6.7-.2.2-.6.6-1.3 1.2-.6.6-1.3 1.2-2.1 1.6-.7.5-1.6 1-2.5 1.5-.9.5-2 .9-3.1 1.2-1 .3-2.1.5-3.2.5-1.3 0-2.7-.2-4-.7s-2.5-1-3.4-1.5c-1-.6-1.9-1.3-2.8-2C1.8 9 1.2 8.5 1 8.2c-.4-.3-.6-.6-.9-.9-.1-.2-.1-.4 0-.6.3-.3.5-.6.8-.9.3-.3.9-.8 1.8-1.6.9-.7 1.8-1.4 2.8-2 1-.5 2.1-1 3.5-1.5s2.7-.7 4-.7c1.3 0 2.7.2 4 .7 1.4.5 2.5 1 3.5 1.6 1 .6 1.9 1.2 2.8 1.9.9.7 1.5 1.3 1.9 1.7.3.4.5.7.6.8M13 11.5c1.4 0 2.5-.4 3.4-1.3.9-.9 1.4-1.9 1.4-3.2s-.5-2.3-1.4-3.2c-.9-.9-2.1-1.3-3.4-1.3-1.4 0-2.5.4-3.4 1.3-1 .9-1.5 1.9-1.5 3.2s.5 2.3 1.4 3.2 2.1 1.3 3.5 1.3M16.8 7c0 1-.4 1.8-1.1 2.5-.7.7-1.6 1-2.7 1-1 0-1.9-.3-2.7-1C9.6 8.8 9.2 8 9.2 7s.4-1.8 1.1-2.5c.7-.7 1.6-1 2.7-1 1 0 1.9.3 2.7 1 .7.7 1.1 1.5 1.1 2.5" fill="#384048"/><defs><filter id="action-eye-Adobe_OpacityMaskFilter" filterUnits="userSpaceOnUse" x="-11" y="-17" width="48" height="48"><feColorMatrix values="1 0 0 0 0 0 1 0 0 0 0 0 1 0 0 0 0 0 1 0"/></filter></defs><mask maskUnits="userSpaceOnUse" x="-11" y="-17" width="48" height="48" id="action-eye-b"><g filter="url(#action-eye-Adobe_OpacityMaskFilter)"><path id="action-eye-a" d="M25.8 6.7c.2.2.2.4 0 .6-.2.3-.4.5-.6.7-.2.2-.6.6-1.3 1.2-.6.6-1.3 1.2-2.1 1.6-.7.5-1.6 1-2.5 1.5-.9.5-2 .9-3.1 1.2-1 .3-2.1.5-3.2.5-1.3 0-2.7-.2-4-.7s-2.5-1-3.4-1.5c-1-.6-1.9-1.3-2.8-2C1.8 9 1.2 8.5 1 8.2c-.4-.3-.6-.6-.9-.9-.1-.2-.1-.4 0-.6.3-.3.5-.6.8-.9.3-.3.9-.8 1.8-1.6.9-.7 1.8-1.4 2.8-2 1-.5 2.1-1 3.5-1.5s2.7-.7 4-.7c1.3 0 2.7.2 4 .7 1.4.5 2.5 1 3.5 1.6 1 .6 1.9 1.2 2.8 1.9.9.7 1.5 1.3 1.9 1.7.3.4.5.7.6.8M13 11.5c1.4 0 2.5-.4 3.4-1.3.9-.9 1.4-1.9 1.4-3.2s-.5-2.3-1.4-3.2c-.9-.9-2.1-1.3-3.4-1.3-1.4 0-2.5.4-3.4 1.3-1 .9-1.5 1.9-1.5 3.2s.5 2.3 1.4 3.2 2.1 1.3 3.5 1.3M16.8 7c0 1-.4 1.8-1.1 2.5-.7.7-1.6 1-2.7 1-1 0-1.9-.3-2.7-1C9.6 8.8 9.2 8 9.2 7s.4-1.8 1.1-2.5c.7-.7 1.6-1 2.7-1 1 0 1.9.3 2.7 1 .7.7 1.1 1.5 1.1 2.5" fill="#fff"/></g></mask><g mask="url(#action-eye-b)"><path d="M-11-17h48v48h-48v-48z" fill="#111"/></g></g></svg>