<?xml version="1.0" encoding="utf-8"?>
<!-- Generator: Adobe Illustrator 21.0.2, SVG Export Plug-In . SVG Version: 6.00 Build 0)  -->
<svg version="1.1" id="action-eye-Layer_1" xmlns="http://www.w3.org/2000/svg" xmlns:xlink="http://www.w3.org/1999/xlink" x="0px" y="0px"
	 viewBox="0 0 48 48" style="enable-background:new 0 0 48 48;" xml:space="preserve">
<title>icon/Action/eye</title>
<g transform="translate(11 17)">
	<g>
		<path id="action-eye-a_1_" style="fill:#384048;" d="M25.8,6.7c0.2,0.2,0.2,0.4,0,0.6c-0.2,0.3-0.4,0.5-0.6,0.7c-0.2,0.2-0.6,0.6-1.3,1.2
			c-0.6,0.6-1.3,1.2-2.1,1.6c-0.7,0.5-1.6,1-2.5,1.5c-0.9,0.5-2,0.9-3.1,1.2C15.2,13.8,14.1,14,13,14c-1.3,0-2.7-0.2-4-0.7
			s-2.5-1-3.4-1.5c-1-0.6-1.9-1.3-2.8-2c-1-0.8-1.6-1.3-1.8-1.6C0.6,7.9,0.4,7.6,0.1,7.3C0,7.1,0,6.9,0.1,6.7
			c0.3-0.3,0.5-0.6,0.8-0.9c0.3-0.3,0.9-0.8,1.8-1.6c0.9-0.7,1.8-1.4,2.8-2C6.5,1.7,7.6,1.2,9,0.7S11.7,0,13,0c1.3,0,2.7,0.2,4,0.7
			c1.4,0.5,2.5,1,3.5,1.6c1,0.6,1.9,1.2,2.8,1.9c0.9,0.7,1.5,1.3,1.9,1.7C25.5,6.3,25.7,6.6,25.8,6.7 M13,11.5
			c1.4,0,2.5-0.4,3.4-1.3c0.9-0.9,1.4-1.9,1.4-3.2s-0.5-2.3-1.4-3.2c-0.9-0.9-2.1-1.3-3.4-1.3c-1.4,0-2.5,0.4-3.4,1.3
			C8.6,4.7,8.1,5.7,8.1,7s0.5,2.3,1.4,3.2S11.6,11.5,13,11.5 M16.8,7c0,1-0.4,1.8-1.1,2.5c-0.7,0.7-1.6,1-2.7,1c-1,0-1.9-0.3-2.7-1
			C9.6,8.8,9.2,8,9.2,7s0.4-1.8,1.1-2.5c0.7-0.7,1.6-1,2.7-1c1,0,1.9,0.3,2.7,1C16.4,5.2,16.8,6,16.8,7"/>
	</g>
	<defs>
		<filter id="action-eye-Adobe_OpacityMaskFilter" filterUnits="userSpaceOnUse" x="-11" y="-17" width="48" height="48">
			<feColorMatrix  type="matrix" values="1 0 0 0 0  0 1 0 0 0  0 0 1 0 0  0 0 0 1 0"/>
		</filter>
	</defs>
	<mask maskUnits="userSpaceOnUse" x="-11" y="-17" width="48" height="48" id="action-eye-b">
		<g style="filter:url(#action-eye-Adobe_OpacityMaskFilter);">
			<path id="action-eye-a" style="fill:#FFFFFF;" d="M25.8,6.7c0.2,0.2,0.2,0.4,0,0.6c-0.2,0.3-0.4,0.5-0.6,0.7c-0.2,0.2-0.6,0.6-1.3,1.2
				c-0.6,0.6-1.3,1.2-2.1,1.6c-0.7,0.5-1.6,1-2.5,1.5c-0.9,0.5-2,0.9-3.1,1.2C15.2,13.8,14.1,14,13,14c-1.3,0-2.7-0.2-4-0.7
				s-2.5-1-3.4-1.5c-1-0.6-1.9-1.3-2.8-2c-1-0.8-1.6-1.3-1.8-1.6C0.6,7.9,0.4,7.6,0.1,7.3C0,7.1,0,6.9,0.1,6.7
				c0.3-0.3,0.5-0.6,0.8-0.9c0.3-0.3,0.9-0.8,1.8-1.6c0.9-0.7,1.8-1.4,2.8-2C6.5,1.7,7.6,1.2,9,0.7S11.7,0,13,0c1.3,0,2.7,0.2,4,0.7
				c1.4,0.5,2.5,1,3.5,1.6c1,0.6,1.9,1.2,2.8,1.9c0.9,0.7,1.5,1.3,1.9,1.7C25.5,6.3,25.7,6.6,25.8,6.7 M13,11.5
				c1.4,0,2.5-0.4,3.4-1.3c0.9-0.9,1.4-1.9,1.4-3.2s-0.5-2.3-1.4-3.2c-0.9-0.9-2.1-1.3-3.4-1.3c-1.4,0-2.5,0.4-3.4,1.3
				C8.6,4.7,8.1,5.7,8.1,7s0.5,2.3,1.4,3.2S11.6,11.5,13,11.5 M16.8,7c0,1-0.4,1.8-1.1,2.5c-0.7,0.7-1.6,1-2.7,1c-1,0-1.9-0.3-2.7-1
				C9.6,8.8,9.2,8,9.2,7s0.4-1.8,1.1-2.5c0.7-0.7,1.6-1,2.7-1c1,0,1.9,0.3,2.7,1C16.4,5.2,16.8,6,16.8,7"/>
		</g>
	</mask>
	<g style="mask:url(#action-eye-b);">
		<path style="fill:#111111;" d="M-11-17h48v48h-48V-17z"/>
	</g>
</g>
</svg>
