<?xml version="1.0" encoding="utf-8"?>
<svg version="1.1" id="action-eye-Layer_1" xmlns="http://www.w3.org/2000/svg" xmlns:xlink="http://www.w3.org/1999/xlink" x="0px"
	 y="0px" viewBox="0 0 48 48" style="enable-background:new 0 0 48 48;" xml:space="preserve">
<path id="action-eye-a_1_" style="fill:#111111;" d="M36.8,23.7c0.2,0.2,0.2,0.4,0,0.6c-0.2,0.3-0.4,0.5-0.6,0.7
	c-0.2,0.2-0.6,0.6-1.3,1.2c-0.6,0.6-1.3,1.2-2.1,1.6c-0.7,0.5-1.6,1-2.5,1.5s-2,0.9-3.1,1.2c-1,0.3-2.1,0.5-3.2,0.5
	c-1.3,0-2.7-0.2-4-0.7c-1.3-0.5-2.5-1-3.4-1.5c-1-0.6-1.9-1.3-2.8-2c-1-0.8-1.6-1.3-1.8-1.6c-0.4-0.3-0.6-0.6-0.9-0.9
	c-0.1-0.2-0.1-0.4,0-0.6c0.3-0.3,0.5-0.6,0.8-0.9c0.3-0.3,0.9-0.8,1.8-1.6c0.9-0.7,1.8-1.4,2.8-2c1-0.5,2.1-1,3.5-1.5s2.7-0.7,4-0.7
	s2.7,0.2,4,0.7c1.4,0.5,2.5,1,3.5,1.6c1,0.6,1.9,1.2,2.8,1.9c0.9,0.7,1.5,1.3,1.9,1.7C36.5,23.3,36.7,23.6,36.8,23.7 M24,28.5
	c1.4,0,2.5-0.4,3.4-1.3c0.9-0.9,1.4-1.9,1.4-3.2s-0.5-2.3-1.4-3.2c-0.9-0.9-2.1-1.3-3.4-1.3c-1.4,0-2.5,0.4-3.4,1.3
	c-1,0.9-1.5,1.9-1.5,3.2s0.5,2.3,1.4,3.2C21.4,28.1,22.6,28.5,24,28.5 M27.8,24c0,1-0.4,1.8-1.1,2.5c-0.7,0.7-1.6,1-2.7,1
	c-1,0-1.9-0.3-2.7-1c-0.7-0.7-1.1-1.5-1.1-2.5s0.4-1.8,1.1-2.5s1.6-1,2.7-1c1,0,1.9,0.3,2.7,1C27.4,22.2,27.8,23,27.8,24"/>
</svg>
