<svg xmlns="http://www.w3.org/2000/svg" xmlns:xlink="http://www.w3.org/1999/xlink" width="32" height="32" viewBox="0 0 32 32">
  <defs>
    <path id="grid-line-a" d="M1.09090909,9.82320265 C1.09018844,9.81780162 9.82320265,9.81818182 9.82320265,9.81818182 C9.81780162,9.81890246 9.81818182,1.08588826 9.81818182,1.08588826 C9.81890246,1.09128929 1.08588826,1.09090909 1.08588826,1.09090909 C1.09128929,1.09018844 1.09090909,9.82320265 1.09090909,9.82320265 Z M0,1.08588826 C0,0.486168732 0.497088432,0 1.08588826,0 L9.82320265,0 C10.4229222,0 10.9090909,0.497088432 10.9090909,1.08588826 L10.9090909,9.82320265 C10.9090909,10.4229222 10.4120025,10.9090909 9.82320265,10.9090909 L1.08588826,10.9090909 C0.486168732,10.9090909 0,10.4120025 0,9.82320265 L0,1.08588826 Z M1.09090909,22.9141117 C1.09018844,22.9087107 9.82320265,22.9090909 9.82320265,22.9090909 C9.81780162,22.9098116 9.81818182,14.1767973 9.81818182,14.1767973 C9.81890246,14.1821984 1.08588826,14.1818182 1.08588826,14.1818182 C1.09128929,14.1810975 1.09090909,22.9141117 1.09090909,22.9141117 Z M0,14.1767973 C0,13.5770778 0.497088432,13.0909091 1.08588826,13.0909091 L9.82320265,13.0909091 C10.4229222,13.0909091 10.9090909,13.5879975 10.9090909,14.1767973 L10.9090909,22.9141117 C10.9090909,23.5138313 10.4120025,24 9.82320265,24 L1.08588826,24 C0.486168732,24 0,23.5029116 0,22.9141117 L0,14.1767973 Z M14.1818182,9.82320265 C14.1810975,9.81780162 22.9141117,9.81818182 22.9141117,9.81818182 C22.9087107,9.81890246 22.9090909,1.08588826 22.9090909,1.08588826 C22.9098116,1.09128929 14.1767973,1.09090909 14.1767973,1.09090909 C14.1821984,1.09018844 14.1818182,9.82320265 14.1818182,9.82320265 Z M13.0909091,1.08588826 C13.0909091,0.486168732 13.5879975,0 14.1767973,0 L22.9141117,0 C23.5138313,0 24,0.497088432 24,1.08588826 L24,9.82320265 C24,10.4229222 23.5029116,10.9090909 22.9141117,10.9090909 L14.1767973,10.9090909 C13.5770778,10.9090909 13.0909091,10.4120025 13.0909091,9.82320265 L13.0909091,1.08588826 Z M14.1818182,22.9141117 C14.1810975,22.9087107 22.9141117,22.9090909 22.9141117,22.9090909 C22.9087107,22.9098116 22.9090909,14.1767973 22.9090909,14.1767973 C22.9098116,14.1821984 14.1767973,14.1818182 14.1767973,14.1818182 C14.1821984,14.1810975 14.1818182,22.9141117 14.1818182,22.9141117 Z M13.0909091,14.1767973 C13.0909091,13.5770778 13.5879975,13.0909091 14.1767973,13.0909091 L22.9141117,13.0909091 C23.5138313,13.0909091 24,13.5879975 24,14.1767973 L24,22.9141117 C24,23.5138313 23.5029116,24 22.9141117,24 L14.1767973,24 C13.5770778,24 13.0909091,23.5029116 13.0909091,22.9141117 L13.0909091,14.1767973 Z"/>
  </defs>
  <g fill="none" fill-rule="evenodd" transform="translate(4 4)">
    <use fill="#384048" fill-rule="nonzero" xlink:href="#grid-line-a"/>
  </g>
</svg>
