<?xml version="1.0" encoding="utf-8"?>
<!-- Generator: Adobe Illustrator 21.0.2, SVG Export Plug-In . SVG Version: 6.00 Build 0)  -->
<svg version="1.1" id="action-grid-fill-Layer_1" xmlns="http://www.w3.org/2000/svg" xmlns:xlink="http://www.w3.org/1999/xlink" x="0px" y="0px"
	 viewBox="0 0 48 48" style="enable-background:new 0 0 48 48;" xml:space="preserve">
<title>icon/Action/grid-fill</title>
<g transform="translate(12 12)">
	<g>
		<path id="action-grid-fill-a_1_" style="fill:#384048;" d="M0,1c0-0.6,0.4-1,1-1c0,0,0,0,0,0h8.9c0.6,0,1,0.4,1,1c0,0,0,0,0,0v8.9c0,0.6-0.4,1-1,1
			c0,0,0,0,0,0H1c-0.6,0-1-0.4-1-1c0,0,0,0,0,0V1z M0,14.1c0-0.6,0.4-1,1-1c0,0,0,0,0,0h8.9c0.6,0,1,0.4,1,1c0,0,0,0,0,0V23
			c0,0.6-0.4,1-1,1c0,0,0,0,0,0H1c-0.6,0-1-0.4-1-1c0,0,0,0,0,0V14.1L0,14.1z M13.1,1c0-0.6,0.4-1,1-1c0,0,0,0,0,0H23
			c0.6,0,1,0.4,1,1c0,0,0,0,0,0v8.9c0,0.6-0.4,1-1,1c0,0,0,0,0,0h-8.9c-0.6,0-1-0.4-1-1c0,0,0,0,0,0L13.1,1L13.1,1z M13.1,14.1
			c0-0.6,0.4-1,1-1c0,0,0,0,0,0H23c0.6,0,1,0.4,1,1c0,0,0,0,0,0V23c0,0.6-0.4,1-1,1c0,0,0,0,0,0h-8.9c-0.6,0-1-0.4-1-1c0,0,0,0,0,0
			L13.1,14.1L13.1,14.1z"/>
	</g>
	<defs>
		<filter id="action-grid-fill-Adobe_OpacityMaskFilter" filterUnits="userSpaceOnUse" x="-12" y="-12" width="48" height="48">
			<feColorMatrix  type="matrix" values="1 0 0 0 0  0 1 0 0 0  0 0 1 0 0  0 0 0 1 0"/>
		</filter>
	</defs>
	<mask maskUnits="userSpaceOnUse" x="-12" y="-12" width="48" height="48" id="action-grid-fill-b">
		<g style="filter:url(#action-grid-fill-Adobe_OpacityMaskFilter);">
			<path id="action-grid-fill-a" style="fill:#FFFFFF;" d="M0,1c0-0.6,0.4-1,1-1c0,0,0,0,0,0h8.9c0.6,0,1,0.4,1,1c0,0,0,0,0,0v8.9c0,0.6-0.4,1-1,1
				c0,0,0,0,0,0H1c-0.6,0-1-0.4-1-1c0,0,0,0,0,0V1z M0,14.1c0-0.6,0.4-1,1-1c0,0,0,0,0,0h8.9c0.6,0,1,0.4,1,1c0,0,0,0,0,0V23
				c0,0.6-0.4,1-1,1c0,0,0,0,0,0H1c-0.6,0-1-0.4-1-1c0,0,0,0,0,0V14.1L0,14.1z M13.1,1c0-0.6,0.4-1,1-1c0,0,0,0,0,0H23
				c0.6,0,1,0.4,1,1c0,0,0,0,0,0v8.9c0,0.6-0.4,1-1,1c0,0,0,0,0,0h-8.9c-0.6,0-1-0.4-1-1c0,0,0,0,0,0L13.1,1L13.1,1z M13.1,14.1
				c0-0.6,0.4-1,1-1c0,0,0,0,0,0H23c0.6,0,1,0.4,1,1c0,0,0,0,0,0V23c0,0.6-0.4,1-1,1c0,0,0,0,0,0h-8.9c-0.6,0-1-0.4-1-1c0,0,0,0,0,0
				L13.1,14.1L13.1,14.1z"/>
		</g>
	</mask>
	<g style="mask:url(#action-grid-fill-b);">
		<path style="fill:#111111;" d="M-12-12h48v48h-48V-12z"/>
	</g>
</g>
</svg>
