<svg id="action-grid-line-Layer_1" xmlns="http://www.w3.org/2000/svg" viewBox="0 0 48 48" enable-background="new 0 0 48 48"><title>icon/Action/grid-line</title><g transform="translate(12 12)"><path id="action-grid-line-a_1_" d="M1.1 9.8h8.7V1.1H1.1v8.7zM0 1.1C0 .5.5 0 1.1 0h8.7c.6 0 1.1.5 1.1 1.1v8.7c0 .6-.5 1.1-1.1 1.1H1.1c-.6 0-1.1-.5-1.1-1.1V1.1zm1.1 21.8h8.7v-8.7H1.1v8.7zM0 14.2c0-.6.5-1.1 1.1-1.1h8.7c.6 0 1.1.5 1.1 1.1v8.7c0 .6-.5 1.1-1.1 1.1H1.1C.5 24 0 23.5 0 22.9v-8.7zm14.2-4.4h8.7V1.1h-8.7v8.7zm-1.1-8.7c0-.6.5-1.1 1.1-1.1h8.7c.6 0 1.1.5 1.1 1.1v8.7c0 .6-.5 1.1-1.1 1.1h-8.7c-.6 0-1.1-.5-1.1-1.1V1.1zm1.1 21.8h8.7v-8.7h-8.7v8.7zm-1.1-8.7c0-.6.5-1.1 1.1-1.1h8.7c.6 0 1.1.5 1.1 1.1v8.7c0 .6-.5 1.1-1.1 1.1h-8.7c-.6 0-1.1-.5-1.1-1.1v-8.7z" fill="#384048"/><defs><filter id="action-grid-line-Adobe_OpacityMaskFilter" filterUnits="userSpaceOnUse" x="-12" y="-12" width="48" height="48"><feColorMatrix values="1 0 0 0 0 0 1 0 0 0 0 0 1 0 0 0 0 0 1 0"/></filter></defs><mask maskUnits="userSpaceOnUse" x="-12" y="-12" width="48" height="48" id="action-grid-line-b"><g filter="url(#action-grid-line-Adobe_OpacityMaskFilter)"><path id="action-grid-line-a" d="M1.1 9.8h8.7V1.1H1.1v8.7zM0 1.1C0 .5.5 0 1.1 0h8.7c.6 0 1.1.5 1.1 1.1v8.7c0 .6-.5 1.1-1.1 1.1H1.1c-.6 0-1.1-.5-1.1-1.1V1.1zm1.1 21.8h8.7v-8.7H1.1v8.7zM0 14.2c0-.6.5-1.1 1.1-1.1h8.7c.6 0 1.1.5 1.1 1.1v8.7c0 .6-.5 1.1-1.1 1.1H1.1C.5 24 0 23.5 0 22.9v-8.7zm14.2-4.4h8.7V1.1h-8.7v8.7zm-1.1-8.7c0-.6.5-1.1 1.1-1.1h8.7c.6 0 1.1.5 1.1 1.1v8.7c0 .6-.5 1.1-1.1 1.1h-8.7c-.6 0-1.1-.5-1.1-1.1V1.1zm1.1 21.8h8.7v-8.7h-8.7v8.7zm-1.1-8.7c0-.6.5-1.1 1.1-1.1h8.7c.6 0 1.1.5 1.1 1.1v8.7c0 .6-.5 1.1-1.1 1.1h-8.7c-.6 0-1.1-.5-1.1-1.1v-8.7z" fill="#fff"/></g></mask><g mask="url(#action-grid-line-b)"><path d="M-12-12h48v48h-48v-48z" fill="#111"/></g></g></svg>