<svg id="action-grid-fill-Layer_1" xmlns="http://www.w3.org/2000/svg" viewBox="0 0 48 48" enable-background="new 0 0 48 48"><title>icon/Action/grid-fill</title><g transform="translate(12 12)"><path id="action-grid-fill-a_1_" d="M0 1c0-.6.4-1 1-1h8.9c.6 0 1 .4 1 1v8.9c0 .6-.4 1-1 1H1c-.6 0-1-.4-1-1V1zm0 13.1c0-.6.4-1 1-1h8.9c.6 0 1 .4 1 1V23c0 .6-.4 1-1 1H1c-.6 0-1-.4-1-1v-8.9zM13.1 1c0-.6.4-1 1-1H23c.6 0 1 .4 1 1v8.9c0 .6-.4 1-1 1h-8.9c-.6 0-1-.4-1-1V1zm0 13.1c0-.6.4-1 1-1H23c.6 0 1 .4 1 1V23c0 .6-.4 1-1 1h-8.9c-.6 0-1-.4-1-1v-8.9z" fill="#384048"/><defs><filter id="action-grid-fill-Adobe_OpacityMaskFilter" filterUnits="userSpaceOnUse" x="-12" y="-12" width="48" height="48"><feColorMatrix values="1 0 0 0 0 0 1 0 0 0 0 0 1 0 0 0 0 0 1 0"/></filter></defs><mask maskUnits="userSpaceOnUse" x="-12" y="-12" width="48" height="48" id="action-grid-fill-b"><g filter="url(#action-grid-fill-Adobe_OpacityMaskFilter)"><path id="action-grid-fill-a" d="M0 1c0-.6.4-1 1-1h8.9c.6 0 1 .4 1 1v8.9c0 .6-.4 1-1 1H1c-.6 0-1-.4-1-1V1zm0 13.1c0-.6.4-1 1-1h8.9c.6 0 1 .4 1 1V23c0 .6-.4 1-1 1H1c-.6 0-1-.4-1-1v-8.9zM13.1 1c0-.6.4-1 1-1H23c.6 0 1 .4 1 1v8.9c0 .6-.4 1-1 1h-8.9c-.6 0-1-.4-1-1V1zm0 13.1c0-.6.4-1 1-1H23c.6 0 1 .4 1 1V23c0 .6-.4 1-1 1h-8.9c-.6 0-1-.4-1-1v-8.9z" fill="#fff"/></g></mask><g mask="url(#action-grid-fill-b)"><path d="M-12-12h48v48h-48v-48z" fill="#111"/></g></g></svg>