<?xml version="1.0" encoding="UTF-8"?>
<svg width="48px" height="48px" viewBox="0 0 48 48" version="1.1" xmlns="http://www.w3.org/2000/svg" xmlns:xlink="http://www.w3.org/1999/xlink">
    <!-- Generator: Sketch 46.2 (44496) - http://www.bohemiancoding.com/sketch -->
    <title>icon/Action/heart-line</title>
    <desc>Created with Sketch.</desc>
    <defs>
        <path d="M18.6518757,1.38461538 C20.0012744,1.38461538 21.4916191,2.00757692 22.4489928,2.97173077 C23.7822627,4.31446154 24.5302034,6.06911538 24.5549983,7.91261538 C24.5799136,9.76061538 23.8837294,11.5389231 22.5942719,12.9215769 L13.6725454,22.1397692 L13.6629163,22.1498077 L13.6534075,22.1599615 C13.3972734,22.4352692 13.1293435,22.5804231 13.0143961,22.6106538 C12.95614,22.5841154 12.7991856,22.4892692 12.4923782,22.1603077 L12.4835917,22.1509615 L12.4746848,22.1417308 L3.5547637,12.9235385 C2.19043993,11.4615 1.42155593,9.63576923 1.44502687,7.91284615 C1.46861818,6.16857692 2.26951896,4.4145 3.70064463,2.973 C4.70146969,1.9635 6.03088795,1.38461538 7.3480291,1.38461538 C9.92802732,1.38461538 11.7636958,4.07711538 11.7791023,4.09996154 L12.9616767,5.89303846 L14.1979334,4.13353846 C14.2171916,4.10596154 16.1978984,1.38461538 18.6518757,1.38461538 M18.6518757,0 C15.3606478,0 12.9999524,3.36 12.9999524,3.36 C12.9999524,3.36 10.783814,0 7.3480291,0 C5.62237319,0 3.90706856,0.754846154 2.65372023,2.01888462 C1.12160932,3.56192308 0.0311132223,5.64011538 0.000661178952,7.89473077 C-0.0299112282,10.146 1.00268988,12.2695385 2.48713672,13.8561923 L11.415724,23.0832692 C11.8639588,23.5637308 12.3800788,24 12.9999524,24 C13.619826,24 14.2826695,23.5637308 14.7313858,23.0814231 L23.6617785,13.8542308 C25.1458643,12.2676923 26.0295753,10.1456538 25.9992437,7.89473077 C25.968912,5.63988462 25.0273059,3.56007692 23.4950746,2.01703846 C22.2416059,0.754615385 20.3771706,0 18.6518757,0" id="path-1"></path>
    </defs>
    <g id="Symbols" stroke="none" stroke-width="1" fill="none" fill-rule="evenodd">
        <g id="icon/Action/heart-line">
            <g id="Icon" transform="translate(11.000000, 12.000000)">
                <mask id="mask-2" fill="white">
                    <use xlink:href="#path-1"></use>
                </mask>
                <use id="Mask" fill="#384048" xlink:href="#path-1"></use>
                <g id="Color/Grayscale/Night-Sky" mask="url(#mask-2)" fill="#111111">
                    <g transform="translate(-11.000000, -12.000000)" id="Swatch">
                        <rect x="0" y="0" width="48" height="48"></rect>
                    </g>
                </g>
            </g>
        </g>
    </g>
</svg>