<svg id="action-heart-line-Layer_1" xmlns="http://www.w3.org/2000/svg" viewBox="0 0 48 48" enable-background="new 0 0 48 48"><title>icon/Action/heart-line</title><g transform="translate(11 12)"><path id="action-heart-line-a_1_" d="M18.7 1.4c1.3 0 2.8.6 3.7 1.6 1.3 1.3 2.1 3.1 2.1 4.9 0 1.8-.7 3.6-2 5l-8.9 9.2c-.3.3-.5.4-.6.5-.1 0-.2-.1-.5-.5l-8.9-9.2c-1.4-1.5-2.1-3.3-2.1-5 0-1.7.8-3.5 2.3-4.9 1-1 2.3-1.6 3.6-1.6 2.6 0 4.4 2.7 4.4 2.7L13 5.9l1.2-1.8s2-2.7 4.5-2.7m0-1.4C15.4 0 13 3.4 13 3.4S10.8 0 7.3 0C5.6 0 3.9.8 2.7 2 1.1 3.6 0 5.6 0 7.9c0 2.3 1 4.4 2.5 6l8.9 9.2c.4.5 1 .9 1.6.9s1.3-.4 1.7-.9l8.9-9.2c1.5-1.6 2.4-3.7 2.3-6 0-2.3-1-4.3-2.5-5.9-1.2-1.2-3-2-4.7-2" fill="#384048"/><defs><filter id="action-heart-line-Adobe_OpacityMaskFilter" filterUnits="userSpaceOnUse" x="-11" y="-12" width="48" height="48"><feColorMatrix values="1 0 0 0 0 0 1 0 0 0 0 0 1 0 0 0 0 0 1 0"/></filter></defs><mask maskUnits="userSpaceOnUse" x="-11" y="-12" width="48" height="48" id="action-heart-line-b"><g filter="url(#action-heart-line-Adobe_OpacityMaskFilter)"><path id="action-heart-line-a" d="M18.7 1.4c1.3 0 2.8.6 3.7 1.6 1.3 1.3 2.1 3.1 2.1 4.9 0 1.8-.7 3.6-2 5l-8.9 9.2c-.3.3-.5.4-.6.5-.1 0-.2-.1-.5-.5l-8.9-9.2c-1.4-1.5-2.1-3.3-2.1-5 0-1.7.8-3.5 2.3-4.9 1-1 2.3-1.6 3.6-1.6 2.6 0 4.4 2.7 4.4 2.7L13 5.9l1.2-1.8s2-2.7 4.5-2.7m0-1.4C15.4 0 13 3.4 13 3.4S10.8 0 7.3 0C5.6 0 3.9.8 2.7 2 1.1 3.6 0 5.6 0 7.9c0 2.3 1 4.4 2.5 6l8.9 9.2c.4.5 1 .9 1.6.9s1.3-.4 1.7-.9l8.9-9.2c1.5-1.6 2.4-3.7 2.3-6 0-2.3-1-4.3-2.5-5.9-1.2-1.2-3-2-4.7-2" fill="#fff"/></g></mask><g mask="url(#action-heart-line-b)"><path d="M-11-12h48v48h-48v-48z" fill="#111"/></g></g></svg>