<svg id="action-list-fill-Layer_1" xmlns="http://www.w3.org/2000/svg" viewBox="0 0 48 48" enable-background="new 0 0 48 48"><title>icon/Action/list-fill</title><g transform="translate(12 12)"><path id="action-list-fill-a_1_" d="M0 1c0-.5.4-1 1-1h4.6c.6 0 1 .4 1 1v4.6c0 .6-.4 1-1 1H1c-.5 0-1-.4-1-1V1zm0 8.7c0-.5.4-1 1-1h4.6c.6 0 1 .4 1 1v4.6c0 .5-.4 1-1 1H1c-.5 0-1-.4-1-1V9.7zM8.7 1c0-.5.4-1 1-1H23c.6 0 1 .4 1 1v4.6c0 .6-.4 1-1 1H9.7c-.6 0-1-.4-1-1V1zm0 8.7c0-.5.4-1 1-1H23c.6 0 1 .4 1 1v4.6c0 .5-.4 1-1 1H9.7c-.6 0-1-.4-1-1V9.7zM0 18.5c0-.5.4-1 1-1h4.6c.6 0 1 .5 1 1V23c0 .5-.4 1-1 1H1c-.5 0-1-.4-1-1v-4.5zm8.7 0c0-.5.4-1 1-1H23c.6 0 1 .5 1 1V23c0 .5-.4 1-1 1H9.7c-.6 0-1-.5-1-1v-4.5z" fill="#384048"/><defs><filter id="action-list-fill-Adobe_OpacityMaskFilter" filterUnits="userSpaceOnUse" x="-12" y="-12" width="48" height="48"><feColorMatrix values="1 0 0 0 0 0 1 0 0 0 0 0 1 0 0 0 0 0 1 0"/></filter></defs><mask maskUnits="userSpaceOnUse" x="-12" y="-12" width="48" height="48" id="action-list-fill-b"><g filter="url(#action-list-fill-Adobe_OpacityMaskFilter)"><path id="action-list-fill-a" d="M0 1c0-.5.4-1 1-1h4.6c.6 0 1 .4 1 1v4.6c0 .6-.4 1-1 1H1c-.5 0-1-.4-1-1V1zm0 8.7c0-.5.4-1 1-1h4.6c.6 0 1 .4 1 1v4.6c0 .5-.4 1-1 1H1c-.5 0-1-.4-1-1V9.7zM8.7 1c0-.5.4-1 1-1H23c.6 0 1 .4 1 1v4.6c0 .6-.4 1-1 1H9.7c-.6 0-1-.4-1-1V1zm0 8.7c0-.5.4-1 1-1H23c.6 0 1 .4 1 1v4.6c0 .5-.4 1-1 1H9.7c-.6 0-1-.4-1-1V9.7zM0 18.5c0-.5.4-1 1-1h4.6c.6 0 1 .5 1 1V23c0 .5-.4 1-1 1H1c-.5 0-1-.4-1-1v-4.5zm8.7 0c0-.5.4-1 1-1H23c.6 0 1 .5 1 1V23c0 .5-.4 1-1 1H9.7c-.6 0-1-.5-1-1v-4.5z" fill="#fff"/></g></mask><g mask="url(#action-list-fill-b)"><path d="M-12-12h48v48h-48v-48z" fill="#111"/></g></g></svg>