<svg id="action-list-line-Layer_1" xmlns="http://www.w3.org/2000/svg" viewBox="0 0 48 48" enable-background="new 0 0 48 48"><title>icon/Action/list-line</title><g transform="translate(12 12)"><path id="action-list-line-a_1_" d="M1.1 5.5h4.4V1.1H1.1v4.4zM0 1.1C0 .5.5 0 1.1 0h4.4c.6 0 1.1.5 1.1 1.1v4.4c0 .6-.5 1.1-1.1 1.1H1.1C.5 6.5 0 6.1 0 5.5V1.1zm1.1 8.7v4.4h4.4V9.8H1.1zM0 9.8c0-.6.5-1.1 1.1-1.1h4.4c.6 0 1.1.5 1.1 1.1v4.4c0 .6-.5 1.1-1.1 1.1H1.1c-.6 0-1.1-.5-1.1-1.1V9.8zm22.9-4.3zm-13.1 0h13.1V1.1H9.8v4.4zM8.7 1.1C8.7.5 9.2 0 9.8 0h13.1c.6 0 1.1.5 1.1 1.1v4.4c0 .6-.5 1.1-1.1 1.1H9.8c-.6 0-1.1-.5-1.1-1.1V1.1zm14.2 13.1zm-13.1 0h13.1V9.8H9.8v4.4zM8.7 9.8c0-.6.5-1.1 1.1-1.1h13.1c.6 0 1.1.5 1.1 1.1v4.4c0 .6-.5 1.1-1.1 1.1H9.8c-.6 0-1.1-.5-1.1-1.1V9.8zM1.1 22.9h4.4v-4.4H1.1v4.4zM0 18.5c0-.6.5-1.1 1.1-1.1h4.4c.6 0 1.1.5 1.1 1.1v4.4c0 .6-.5 1.1-1.1 1.1H1.1C.5 24 0 23.5 0 22.9v-4.4zm22.9 4.4zM9.8 18.5zm0 4.4h13.1v-4.4H9.8v4.4zm-1.1-4.4c0-.6.5-1.1 1.1-1.1h13.1c.6 0 1.1.5 1.1 1.1v4.4c0 .6-.5 1.1-1.1 1.1H9.8c-.6 0-1.1-.5-1.1-1.1v-4.4z" fill="#384048"/><defs><filter id="action-list-line-Adobe_OpacityMaskFilter" filterUnits="userSpaceOnUse" x="-12" y="-12" width="48" height="48"><feColorMatrix values="1 0 0 0 0 0 1 0 0 0 0 0 1 0 0 0 0 0 1 0"/></filter></defs><mask maskUnits="userSpaceOnUse" x="-12" y="-12" width="48" height="48" id="action-list-line-b"><g filter="url(#action-list-line-Adobe_OpacityMaskFilter)"><path id="action-list-line-a" d="M1.1 5.5h4.4V1.1H1.1v4.4zM0 1.1C0 .5.5 0 1.1 0h4.4c.6 0 1.1.5 1.1 1.1v4.4c0 .6-.5 1.1-1.1 1.1H1.1C.5 6.5 0 6.1 0 5.5V1.1zm1.1 8.7v4.4h4.4V9.8H1.1zM0 9.8c0-.6.5-1.1 1.1-1.1h4.4c.6 0 1.1.5 1.1 1.1v4.4c0 .6-.5 1.1-1.1 1.1H1.1c-.6 0-1.1-.5-1.1-1.1V9.8zm22.9-4.3zm-13.1 0h13.1V1.1H9.8v4.4zM8.7 1.1C8.7.5 9.2 0 9.8 0h13.1c.6 0 1.1.5 1.1 1.1v4.4c0 .6-.5 1.1-1.1 1.1H9.8c-.6 0-1.1-.5-1.1-1.1V1.1zm14.2 13.1zm-13.1 0h13.1V9.8H9.8v4.4zM8.7 9.8c0-.6.5-1.1 1.1-1.1h13.1c.6 0 1.1.5 1.1 1.1v4.4c0 .6-.5 1.1-1.1 1.1H9.8c-.6 0-1.1-.5-1.1-1.1V9.8zM1.1 22.9h4.4v-4.4H1.1v4.4zM0 18.5c0-.6.5-1.1 1.1-1.1h4.4c.6 0 1.1.5 1.1 1.1v4.4c0 .6-.5 1.1-1.1 1.1H1.1C.5 24 0 23.5 0 22.9v-4.4zm22.9 4.4zM9.8 18.5zm0 4.4h13.1v-4.4H9.8v4.4zm-1.1-4.4c0-.6.5-1.1 1.1-1.1h13.1c.6 0 1.1.5 1.1 1.1v4.4c0 .6-.5 1.1-1.1 1.1H9.8c-.6 0-1.1-.5-1.1-1.1v-4.4z" fill="#fff"/></g></mask><g mask="url(#action-list-line-b)"><path d="M-12-12h48v48h-48v-48z" fill="#111"/></g></g></svg>