<?xml version="1.0" encoding="utf-8"?>
<!-- Generator: Adobe Illustrator 21.0.2, SVG Export Plug-In . SVG Version: 6.00 Build 0)  -->
<svg version="1.1" id="action-list-line-Layer_1" xmlns="http://www.w3.org/2000/svg" xmlns:xlink="http://www.w3.org/1999/xlink" x="0px" y="0px"
	 viewBox="0 0 48 48" style="enable-background:new 0 0 48 48;" xml:space="preserve">
<title>icon/Action/list-line</title>
<g transform="translate(12 12)">
	<g>
		<path id="action-list-line-a_1_" style="fill:#384048;" d="M1.1,5.5h4.4V1.1H1.1V5.5L1.1,5.5z M0,1.1C0,0.5,0.5,0,1.1,0h4.4c0.6,0,1.1,0.5,1.1,1.1
			v4.4c0,0.6-0.5,1.1-1.1,1.1H1.1C0.5,6.5,0,6.1,0,5.5V1.1z M1.1,9.8v4.4h4.4V9.8L1.1,9.8L1.1,9.8z M0,9.8c0-0.6,0.5-1.1,1.1-1.1
			h4.4c0.6,0,1.1,0.5,1.1,1.1v4.4c0,0.6-0.5,1.1-1.1,1.1H1.1c-0.6,0-1.1-0.5-1.1-1.1L0,9.8L0,9.8z M22.9,5.5L22.9,5.5L22.9,5.5z
			 M9.8,5.5c0,0,13.1,0,13.1,0c0,0,0-4.4,0-4.4c0,0-13.1,0-13.1,0C9.8,1.1,9.8,5.5,9.8,5.5z M8.7,1.1C8.7,0.5,9.2,0,9.8,0h13.1
			C23.5,0,24,0.5,24,1.1v4.4c0,0.6-0.5,1.1-1.1,1.1H9.8c-0.6,0-1.1-0.5-1.1-1.1L8.7,1.1L8.7,1.1z M22.9,14.2L22.9,14.2L22.9,14.2
			L22.9,14.2z M9.8,14.2c0,0,13.1,0,13.1,0c0,0,0-4.4,0-4.4c0,0-13.1,0-13.1,0C9.8,9.8,9.8,14.2,9.8,14.2L9.8,14.2z M8.7,9.8
			c0-0.6,0.5-1.1,1.1-1.1h13.1c0.6,0,1.1,0.5,1.1,1.1v4.4c0,0.6-0.5,1.1-1.1,1.1H9.8c-0.6,0-1.1-0.5-1.1-1.1L8.7,9.8L8.7,9.8z
			 M1.1,22.9h4.4v-4.4H1.1L1.1,22.9L1.1,22.9z M0,18.5c0-0.6,0.5-1.1,1.1-1.1h4.4c0.6,0,1.1,0.5,1.1,1.1v4.4c0,0.6-0.5,1.1-1.1,1.1
			H1.1C0.5,24,0,23.5,0,22.9V18.5z M22.9,22.9L22.9,22.9L22.9,22.9z M9.8,18.5L9.8,18.5z M9.8,22.9c0,0,13.1,0,13.1,0
			c0,0,0-4.4,0-4.4c0,0-13.1,0-13.1,0C9.8,18.5,9.8,22.9,9.8,22.9z M8.7,18.5c0-0.6,0.5-1.1,1.1-1.1h13.1c0.6,0,1.1,0.5,1.1,1.1v4.4
			c0,0.6-0.5,1.1-1.1,1.1H9.8c-0.6,0-1.1-0.5-1.1-1.1C8.7,22.9,8.7,18.5,8.7,18.5z"/>
	</g>
	<defs>
		<filter id="action-list-line-Adobe_OpacityMaskFilter" filterUnits="userSpaceOnUse" x="-12" y="-12" width="48" height="48">
			<feColorMatrix  type="matrix" values="1 0 0 0 0  0 1 0 0 0  0 0 1 0 0  0 0 0 1 0"/>
		</filter>
	</defs>
	<mask maskUnits="userSpaceOnUse" x="-12" y="-12" width="48" height="48" id="action-list-line-b">
		<g style="filter:url(#action-list-line-Adobe_OpacityMaskFilter);">
			<path id="action-list-line-a" style="fill:#FFFFFF;" d="M1.1,5.5h4.4V1.1H1.1V5.5L1.1,5.5z M0,1.1C0,0.5,0.5,0,1.1,0h4.4c0.6,0,1.1,0.5,1.1,1.1
				v4.4c0,0.6-0.5,1.1-1.1,1.1H1.1C0.5,6.5,0,6.1,0,5.5V1.1z M1.1,9.8v4.4h4.4V9.8L1.1,9.8L1.1,9.8z M0,9.8c0-0.6,0.5-1.1,1.1-1.1
				h4.4c0.6,0,1.1,0.5,1.1,1.1v4.4c0,0.6-0.5,1.1-1.1,1.1H1.1c-0.6,0-1.1-0.5-1.1-1.1L0,9.8L0,9.8z M22.9,5.5L22.9,5.5L22.9,5.5z
				 M9.8,5.5c0,0,13.1,0,13.1,0c0,0,0-4.4,0-4.4c0,0-13.1,0-13.1,0C9.8,1.1,9.8,5.5,9.8,5.5z M8.7,1.1C8.7,0.5,9.2,0,9.8,0h13.1
				C23.5,0,24,0.5,24,1.1v4.4c0,0.6-0.5,1.1-1.1,1.1H9.8c-0.6,0-1.1-0.5-1.1-1.1L8.7,1.1L8.7,1.1z M22.9,14.2L22.9,14.2L22.9,14.2
				L22.9,14.2z M9.8,14.2c0,0,13.1,0,13.1,0c0,0,0-4.4,0-4.4c0,0-13.1,0-13.1,0C9.8,9.8,9.8,14.2,9.8,14.2L9.8,14.2z M8.7,9.8
				c0-0.6,0.5-1.1,1.1-1.1h13.1c0.6,0,1.1,0.5,1.1,1.1v4.4c0,0.6-0.5,1.1-1.1,1.1H9.8c-0.6,0-1.1-0.5-1.1-1.1L8.7,9.8L8.7,9.8z
				 M1.1,22.9h4.4v-4.4H1.1L1.1,22.9L1.1,22.9z M0,18.5c0-0.6,0.5-1.1,1.1-1.1h4.4c0.6,0,1.1,0.5,1.1,1.1v4.4c0,0.6-0.5,1.1-1.1,1.1
				H1.1C0.5,24,0,23.5,0,22.9V18.5z M22.9,22.9L22.9,22.9L22.9,22.9z M9.8,18.5L9.8,18.5z M9.8,22.9c0,0,13.1,0,13.1,0
				c0,0,0-4.4,0-4.4c0,0-13.1,0-13.1,0C9.8,18.5,9.8,22.9,9.8,22.9z M8.7,18.5c0-0.6,0.5-1.1,1.1-1.1h13.1c0.6,0,1.1,0.5,1.1,1.1
				v4.4c0,0.6-0.5,1.1-1.1,1.1H9.8c-0.6,0-1.1-0.5-1.1-1.1C8.7,22.9,8.7,18.5,8.7,18.5z"/>
		</g>
	</mask>
	<g style="mask:url(#action-list-line-b);">
		<path style="fill:#111111;" d="M-12-12h48v48h-48V-12z"/>
	</g>
</g>
</svg>
