<?xml version="1.0" encoding="utf-8"?>
<!-- Generator: Adobe Illustrator 21.0.2, SVG Export Plug-In . SVG Version: 6.00 Build 0)  -->
<svg version="1.1" id="action-list-fill-Layer_1" xmlns="http://www.w3.org/2000/svg" xmlns:xlink="http://www.w3.org/1999/xlink" x="0px" y="0px"
	 viewBox="0 0 48 48" style="enable-background:new 0 0 48 48;" xml:space="preserve">
<title>icon/Action/list-fill</title>
<g transform="translate(12 12)">
	<g>
		<path id="action-list-fill-a_1_" style="fill:#384048;" d="M0,1c0-0.5,0.4-1,1-1h4.6c0.6,0,1,0.4,1,1v4.6c0,0.6-0.4,1-1,1H1c-0.5,0-1-0.4-1-1V1z
			 M0,9.7c0-0.5,0.4-1,1-1h4.6c0.6,0,1,0.4,1,1v4.6c0,0.5-0.4,1-1,1H1c-0.5,0-1-0.4-1-1V9.7L0,9.7z M8.7,1c0-0.5,0.4-1,1-1H23
			c0.6,0,1,0.4,1,1v4.6c0,0.6-0.4,1-1,1H9.7c-0.6,0-1-0.4-1-1V1z M8.7,9.7c0-0.5,0.4-1,1-1H23c0.6,0,1,0.4,1,1v4.6c0,0.5-0.4,1-1,1
			H9.7c-0.6,0-1-0.4-1-1V9.7L8.7,9.7z M0,18.5c0-0.5,0.4-1,1-1h4.6c0.6,0,1,0.5,1,1V23c0,0.5-0.4,1-1,1H1c-0.5,0-1-0.4-1-1V18.5
			L0,18.5z M8.7,18.5c0-0.5,0.4-1,1-1H23c0.6,0,1,0.5,1,1V23c0,0.5-0.4,1-1,1H9.7c-0.6,0-1-0.5-1-1V18.5z"/>
	</g>
	<defs>
		<filter id="action-list-fill-Adobe_OpacityMaskFilter" filterUnits="userSpaceOnUse" x="-12" y="-12" width="48" height="48">
			<feColorMatrix  type="matrix" values="1 0 0 0 0  0 1 0 0 0  0 0 1 0 0  0 0 0 1 0"/>
		</filter>
	</defs>
	<mask maskUnits="userSpaceOnUse" x="-12" y="-12" width="48" height="48" id="action-list-fill-b">
		<g style="filter:url(#action-list-fill-Adobe_OpacityMaskFilter);">
			<path id="action-list-fill-a" style="fill:#FFFFFF;" d="M0,1c0-0.5,0.4-1,1-1h4.6c0.6,0,1,0.4,1,1v4.6c0,0.6-0.4,1-1,1H1c-0.5,0-1-0.4-1-1V1z
				 M0,9.7c0-0.5,0.4-1,1-1h4.6c0.6,0,1,0.4,1,1v4.6c0,0.5-0.4,1-1,1H1c-0.5,0-1-0.4-1-1V9.7L0,9.7z M8.7,1c0-0.5,0.4-1,1-1H23
				c0.6,0,1,0.4,1,1v4.6c0,0.6-0.4,1-1,1H9.7c-0.6,0-1-0.4-1-1V1z M8.7,9.7c0-0.5,0.4-1,1-1H23c0.6,0,1,0.4,1,1v4.6c0,0.5-0.4,1-1,1
				H9.7c-0.6,0-1-0.4-1-1V9.7L8.7,9.7z M0,18.5c0-0.5,0.4-1,1-1h4.6c0.6,0,1,0.5,1,1V23c0,0.5-0.4,1-1,1H1c-0.5,0-1-0.4-1-1V18.5
				L0,18.5z M8.7,18.5c0-0.5,0.4-1,1-1H23c0.6,0,1,0.5,1,1V23c0,0.5-0.4,1-1,1H9.7c-0.6,0-1-0.5-1-1V18.5z"/>
		</g>
	</mask>
	<g style="mask:url(#action-list-fill-b);">
		<path style="fill:#111111;" d="M-12-12h48v48h-48V-12z"/>
	</g>
</g>
</svg>
