<?xml version="1.0" encoding="UTF-8"?>
<svg width="48px" height="48px" viewBox="0 0 48 48" version="1.1" xmlns="http://www.w3.org/2000/svg" xmlns:xlink="http://www.w3.org/1999/xlink">
    <!-- Generator: Sketch 46.2 (44496) - http://www.bohemiancoding.com/sketch -->
    <title>icon/Action/list-fill</title>
    <desc>Created with Sketch.</desc>
    <defs>
        <path d="M-3.55271368e-15,0.994113662 C-3.55271368e-15,0.445079847 0.449895599,0 0.994113662,0 L5.55134088,0 C6.1003747,0 6.54545455,0.449895599 6.54545455,0.994113662 L6.54545455,5.55134088 C6.54545455,6.1003747 6.09555895,6.54545455 5.55134088,6.54545455 L0.994113662,6.54545455 C0.445079847,6.54545455 -3.55271368e-15,6.09555895 -3.55271368e-15,5.55134088 L-3.55271368e-15,0.994113662 Z M-3.55271368e-15,9.72138639 C-3.55271368e-15,9.17235257 0.449895599,8.72727273 0.994113662,8.72727273 L5.55134088,8.72727273 C6.1003747,8.72727273 6.54545455,9.17716833 6.54545455,9.72138639 L6.54545455,14.2786136 C6.54545455,14.8276474 6.09555895,15.2727273 5.55134088,15.2727273 L0.994113662,15.2727273 C0.445079847,15.2727273 -3.55271368e-15,14.8228317 -3.55271368e-15,14.2786136 L-3.55271368e-15,9.72138639 Z M8.72727273,0.994113662 C8.72727273,0.445079847 9.16788483,0 9.72935902,0 L22.9979137,0 C23.5513507,0 24,0.449895599 24,0.994113662 L24,5.55134088 C24,6.1003747 23.5593879,6.54545455 22.9979137,6.54545455 L9.72935902,6.54545455 C9.17592204,6.54545455 8.72727273,6.09555895 8.72727273,5.55134088 L8.72727273,0.994113662 Z M8.72727273,9.72138639 C8.72727273,9.17235257 9.16788483,8.72727273 9.72935902,8.72727273 L22.9979137,8.72727273 C23.5513507,8.72727273 24,9.17716833 24,9.72138639 L24,14.2786136 C24,14.8276474 23.5593879,15.2727273 22.9979137,15.2727273 L9.72935902,15.2727273 C9.17592204,15.2727273 8.72727273,14.8228317 8.72727273,14.2786136 L8.72727273,9.72138639 Z M-3.55271368e-15,18.4486591 C-3.55271368e-15,17.8996253 0.449895599,17.4545455 0.994113662,17.4545455 L5.55134088,17.4545455 C6.1003747,17.4545455 6.54545455,17.9044411 6.54545455,18.4486591 L6.54545455,23.0058863 C6.54545455,23.5549202 6.09555895,24 5.55134088,24 L0.994113662,24 C0.445079847,24 -3.55271368e-15,23.5501044 -3.55271368e-15,23.0058863 L-3.55271368e-15,18.4486591 Z M8.72727273,18.4486591 C8.72727273,17.8996253 9.16788483,17.4545455 9.72935902,17.4545455 L22.9979137,17.4545455 C23.5513507,17.4545455 24,17.9044411 24,18.4486591 L24,23.0058863 C24,23.5549202 23.5593879,24 22.9979137,24 L9.72935902,24 C9.17592204,24 8.72727273,23.5501044 8.72727273,23.0058863 L8.72727273,18.4486591 Z" id="path-1"></path>
    </defs>
    <g id="Symbols" stroke="none" stroke-width="1" fill="none" fill-rule="evenodd">
        <g id="icon/Action/list-fill">
            <g id="Icon" transform="translate(12.000000, 12.000000)">
                <mask id="mask-2" fill="white">
                    <use xlink:href="#path-1"></use>
                </mask>
                <use id="Mask" fill="#384048" xlink:href="#path-1"></use>
                <g id="Color/Grayscale/Night-Sky" mask="url(#mask-2)" fill="#111111">
                    <g transform="translate(-12.000000, -12.000000)" id="Swatch">
                        <rect x="0" y="0" width="48" height="48"></rect>
                    </g>
                </g>
            </g>
        </g>
    </g>
</svg>