<?xml version="1.0" encoding="utf-8"?>
<svg version="1.1" id="action-list-fill-Layer_1" xmlns="http://www.w3.org/2000/svg" xmlns:xlink="http://www.w3.org/1999/xlink"
	 x="0px" y="0px" viewBox="0 0 48 48" style="enable-background:new 0 0 48 48;" xml:space="preserve">
<path id="action-list-fill-a_1_" style="fill:#111111;" d="M12,13c0-0.5,0.4-1,1-1h4.6c0.6,0,1,0.4,1,1v4.6c0,0.6-0.4,1-1,1H13
	c-0.5,0-1-0.4-1-1V13z M12,21.7c0-0.5,0.4-1,1-1h4.6c0.6,0,1,0.4,1,1v4.6c0,0.5-0.4,1-1,1H13c-0.5,0-1-0.4-1-1V21.7z M20.7,13
	c0-0.5,0.4-1,1-1H35c0.6,0,1,0.4,1,1v4.6c0,0.6-0.4,1-1,1H21.7c-0.6,0-1-0.4-1-1V13z M20.7,21.7c0-0.5,0.4-1,1-1H35c0.6,0,1,0.4,1,1
	v4.6c0,0.5-0.4,1-1,1H21.7c-0.6,0-1-0.4-1-1V21.7z M12,30.5c0-0.5,0.4-1,1-1h4.6c0.6,0,1,0.5,1,1V35c0,0.5-0.4,1-1,1H13
	c-0.5,0-1-0.4-1-1V30.5z M20.7,30.5c0-0.5,0.4-1,1-1H35c0.6,0,1,0.5,1,1V35c0,0.5-0.4,1-1,1H21.7c-0.6,0-1-0.5-1-1V30.5z"/>
</svg>
