<?xml version="1.0" encoding="utf-8"?>
<svg version="1.1" id="action-mail-Layer_1" xmlns="http://www.w3.org/2000/svg" xmlns:xlink="http://www.w3.org/1999/xlink"
	 x="0px" y="0px" viewBox="0 0 48 48" style="enable-background:new 0 0 48 48;" xml:space="preserve">
<path id="action-mail-a_1_" style="fill:#111111;" d="M23.2,23.3l-9.9-8l-1.5-1.1c0.2-0.1,0.4-0.2,0.5-0.2h23.1c0.1,0,0.4,0,0.7,0.1
	l-1.6,1.2l-9.8,8c-0.1,0.1-0.5,0.2-0.8,0.2S23.4,23.5,23.2,23.3z M37,15.2v16.5c0,1.4-0.9,2.3-2.2,2.3H13.2c-1.3,0-2.2-0.9-2.2-2.3
	V15.3l1.5,1.2l9.9,8c0.5,0.4,1.1,0.5,1.5,0.5s1.1-0.2,1.5-0.5l9.8-8L37,15.2z"/>
</svg>
