<?xml version="1.0" encoding="UTF-8"?>
<svg width="48px" height="48px" viewBox="0 0 48 48" version="1.1" xmlns="http://www.w3.org/2000/svg" xmlns:xlink="http://www.w3.org/1999/xlink">
    <!-- Generator: Sketch 46.2 (44496) - http://www.bohemiancoding.com/sketch -->
    <title>icon/Action/mail</title>
    <desc>Created with Sketch.</desc>
    <defs>
        <path d="M12.2430544,9.31818182 L2.29462652,1.36363636 L0.813392114,0.158863637 C0.979812011,0.0726136366 1.18105141,2.06437847e-10 1.32141075,2.06437847e-10 L24.4623191,2.06437847e-10 C24.5947846,2.06437847e-10 24.8971303,-0.000113636157 25.1624938,0.118977273 L23.5972384,1.36363636 L13.7569456,9.31818182 C13.6231825,9.42204545 13.2347613,9.54545455 13,9.54545455 C12.7653469,9.54545455 12.4201797,9.45102273 12.2430544,9.31818182 Z M25.9633422,1.19227273 C25.9650724,1.20079545 25.9676676,1.20897727 25.9693978,1.2175 C25.9888621,1.25159091 26,1.29102273 26,1.33227273 L26,1.53409091 L25.9762103,17.7272727 C25.9762103,19.0909091 25.1111296,20 23.8135086,20 L2.18649143,20 C0.888870404,20 0.0237897188,19.0909091 0.0237897188,17.7272727 L1.77635684e-15,1.46681818 L1.77635684e-15,1.26511364 C1.77635684e-15,1.25170455 0.00324405257,1.23909091 0.00551488937,1.22625 L1.50026618,2.44215909 L1.50448345,2.44556818 L1.50880885,2.44897727 L11.4572367,10.4035227 L11.4730245,10.4161364 L11.4891366,10.4281818 C11.962552,10.7831818 12.598927,10.9090909 13,10.9090909 C13.4322159,10.9090909 14.1146565,10.7360227 14.5279488,10.4148864 L14.5381135,10.4070455 L14.5480619,10.3990909 L24.3841374,2.44795455 L25.9633422,1.19227273 Z" id="path-1"></path>
    </defs>
    <g id="Symbols" stroke="none" stroke-width="1" fill="none" fill-rule="evenodd">
        <g id="icon/Action/mail">
            <g id="Icon" transform="translate(11.000000, 14.000000)">
                <mask id="mask-2" fill="white">
                    <use xlink:href="#path-1"></use>
                </mask>
                <use id="Mask" fill="#384048" xlink:href="#path-1"></use>
                <g id="Color/Grayscale/Night-Sky" mask="url(#mask-2)" fill="#111111">
                    <g transform="translate(-11.000000, -14.000000)" id="Swatch">
                        <rect x="0" y="0" width="48" height="48"></rect>
                    </g>
                </g>
            </g>
        </g>
    </g>
</svg>