<svg id="action-print-Layer_1" xmlns="http://www.w3.org/2000/svg" viewBox="0 0 48 48" enable-background="new 0 0 48 48"><title>icon/Action/print</title><g transform="translate(11 13)"><path id="action-print-a_1_" d="M23.2 2.5c1.7 0 2.8 1.1 2.8 2.8v8c0 1.6-1.2 2.8-2.8 2.8h-.9l.3 3.8c0 1.3-.9 2.1-2.2 2.1h-15c-1.3 0-2.2-.8-2.2-2.1l.3-3.8h-.7C1.1 16.1 0 15 0 13.3V5.2c0-1.5 1.2-2.6 2.8-2.6 0-.1 20.4-.1 20.4-.1zm-2.7 18.2c.6 0 .9-.3.9-.8L20.4 9v-.1c0-.6-.3-.8-.9-.8h-13c-.3-.1-.9 0-.9.7v.1l-1 11c0 .5.3.8.9.8h15zM7.2 1.3c-.4 0-.7-.3-.7-.7 0-.3.3-.6.7-.6h11.7c.4 0 .6.3.6.6 0 .4-.3.6-.6.6H7.2zm1.2 11.8c-.4 0-.6-.3-.7-.6 0-.4.3-.6.7-.6h9.1c.4 0 .6.3.6.6 0 .4-.3.6-.6.6H8.4zm9.6 3.4c.4 0 .6.3.6.6 0 .4-.3.6-.6.6H8c-.4 0-.6-.3-.6-.6 0-.4.3-.6.7-.6H18z" fill="#384048"/><defs><filter id="action-print-Adobe_OpacityMaskFilter" filterUnits="userSpaceOnUse" x="-11" y="-13" width="48" height="48"><feColorMatrix values="1 0 0 0 0 0 1 0 0 0 0 0 1 0 0 0 0 0 1 0"/></filter></defs><mask maskUnits="userSpaceOnUse" x="-11" y="-13" width="48" height="48" id="action-print-b"><g filter="url(#action-print-Adobe_OpacityMaskFilter)"><path id="action-print-a" d="M23.2 2.5c1.7 0 2.8 1.1 2.8 2.8v8c0 1.6-1.2 2.8-2.8 2.8h-.9l.3 3.8c0 1.3-.9 2.1-2.2 2.1h-15c-1.3 0-2.2-.8-2.2-2.1l.3-3.8h-.7C1.1 16.1 0 15 0 13.3V5.2c0-1.5 1.2-2.6 2.8-2.6 0-.1 20.4-.1 20.4-.1zm-2.7 18.2c.6 0 .9-.3.9-.8L20.4 9v-.1c0-.6-.3-.8-.9-.8h-13c-.3-.1-.9 0-.9.7v.1l-1 11c0 .5.3.8.9.8h15zM7.2 1.3c-.4 0-.7-.3-.7-.7 0-.3.3-.6.7-.6h11.7c.4 0 .6.3.6.6 0 .4-.3.6-.6.6H7.2zm1.2 11.8c-.4 0-.6-.3-.7-.6 0-.4.3-.6.7-.6h9.1c.4 0 .6.3.6.6 0 .4-.3.6-.6.6H8.4zm9.6 3.4c.4 0 .6.3.6.6 0 .4-.3.6-.6.6H8c-.4 0-.6-.3-.6-.6 0-.4.3-.6.7-.6H18z" fill="#fff"/></g></mask><g mask="url(#action-print-b)"><path d="M-11-13h48v48h-48v-48z" fill="#111"/></g></g></svg>