<?xml version="1.0" encoding="utf-8"?>
<!-- Generator: Adobe Illustrator 21.0.2, SVG Export Plug-In . SVG Version: 6.00 Build 0)  -->
<svg version="1.1" id="action-search-Layer_1" xmlns="http://www.w3.org/2000/svg" xmlns:xlink="http://www.w3.org/1999/xlink" x="0px" y="0px"
	 viewBox="0 0 48 48" style="enable-background:new 0 0 48 48;" xml:space="preserve">
<title>icon/Action/search</title>
<g transform="translate(12 12)">
	<g>
		<path id="action-search-a_1_" style="fill:#384048;" d="M23.6,20.9c-0.7-0.6-5.9-5.7-7.1-6.9c1-1.5,1.6-3.3,1.6-5.1c0-5-4-9-9-9C4,0,0,4,0,9
			c0,5,4,9,9,9c1.7,0,3.4-0.5,4.8-1.4c1.1,1.1,6.4,6.3,7.1,7c0.3,0.3,0.7,0.4,1.1,0.4c0.5,0,1-0.2,1.4-0.7
			C24.1,22.6,24.2,21.5,23.6,20.9z M2.2,9c0-3.7,3.1-6.8,6.8-6.8c3.8,0,6.8,3.1,6.8,6.8c0,3.7-3.1,6.8-6.8,6.8
			C5.2,15.8,2.2,12.7,2.2,9z"/>
	</g>
	<defs>
		<filter id="action-search-Adobe_OpacityMaskFilter" filterUnits="userSpaceOnUse" x="-12" y="-12" width="48" height="48">
			<feColorMatrix  type="matrix" values="1 0 0 0 0  0 1 0 0 0  0 0 1 0 0  0 0 0 1 0"/>
		</filter>
	</defs>
	<mask maskUnits="userSpaceOnUse" x="-12" y="-12" width="48" height="48" id="action-search-b">
		<g style="filter:url(#action-search-Adobe_OpacityMaskFilter);">
			<path id="action-search-a" style="fill:#FFFFFF;" d="M23.6,20.9c-0.7-0.6-5.9-5.7-7.1-6.9c1-1.5,1.6-3.3,1.6-5.1c0-5-4-9-9-9C4,0,0,4,0,9
				c0,5,4,9,9,9c1.7,0,3.4-0.5,4.8-1.4c1.1,1.1,6.4,6.3,7.1,7c0.3,0.3,0.7,0.4,1.1,0.4c0.5,0,1-0.2,1.4-0.7
				C24.1,22.6,24.2,21.5,23.6,20.9z M2.2,9c0-3.7,3.1-6.8,6.8-6.8c3.8,0,6.8,3.1,6.8,6.8c0,3.7-3.1,6.8-6.8,6.8
				C5.2,15.8,2.2,12.7,2.2,9z"/>
		</g>
	</mask>
	<g style="mask:url(#action-search-b);">
		<path style="fill:#111111;" d="M-12-12h48v48h-48V-12z"/>
	</g>
</g>
</svg>
