<?xml version="1.0" encoding="utf-8"?>
<!-- Generator: Adobe Illustrator 21.0.2, SVG Export Plug-In . SVG Version: 6.00 Build 0)  -->
<svg version="1.1" id="action-settings-Layer_1" xmlns="http://www.w3.org/2000/svg" xmlns:xlink="http://www.w3.org/1999/xlink" x="0px" y="0px"
	 viewBox="0 0 48 48" style="enable-background:new 0 0 48 48;" xml:space="preserve">
<title>icon/Action/settings</title>
<g transform="translate(12 12)">
	<g>
		<path id="action-settings-a_1_" style="fill:#384048;" d="M23.7,10.7c-0.1-0.9-0.6-1.4-1.5-1.5c-0.2,0-0.5,0-0.8,0c-0.2,0-0.4,0-0.6,0
			c-0.2,0-0.2-0.1-0.3-0.2c0-0.1-0.1-0.2-0.1-0.3c-0.1-0.3-0.2-0.6-0.4-0.9c-0.1-0.1-0.1-0.2,0.1-0.4c0.1-0.1,0.3-0.3,0.4-0.4
			c0.2-0.2,0.4-0.4,0.6-0.6c0.5-0.6,0.5-1.4-0.1-2c-0.6-0.6-1.2-1.2-1.8-1.8c-0.3-0.3-0.6-0.4-1-0.4c-0.3,0-0.7,0.1-0.9,0.4
			c-0.1,0.1-0.3,0.3-0.5,0.4c-0.2,0.2-0.5,0.4-0.7,0.5c-0.1,0.1-0.1,0.1-0.2,0.1c0,0-0.1,0-0.1,0c-0.4-0.1-0.8-0.3-1.3-0.5
			c-0.1,0-0.1,0-0.1-0.2c0-0.1,0-0.3,0-0.4c0-0.3,0-0.7,0-1C14.5,0.6,13.9,0,13.1,0c-0.8,0-1.7,0-2.5,0C9.8,0,9.2,0.6,9.2,1.5
			c0,0.4,0,1-0.1,1.4C9.1,3,9,3.1,8.9,3.1L8.6,3.3C8.3,3.4,8,3.5,7.7,3.6c0,0-0.1,0-0.1,0c0,0-0.1,0-0.2-0.1c-0.3-0.3-0.7-0.7-1-0.9
			C6.1,2.4,5.8,2.3,5.5,2.2c-0.4,0-0.7,0.2-1,0.4C3.9,3.3,3.3,3.9,2.7,4.5c-0.6,0.6-0.6,1.3-0.1,2C2.8,6.6,3,6.8,3.1,7
			c0.1,0.1,0.3,0.3,0.4,0.4c0.1,0.2,0.1,0.2,0.1,0.3c-0.1,0.3-0.3,0.7-0.4,1L3.1,9C3,9.1,3,9.2,2.8,9.2c-0.1,0-0.2,0-0.4,0
			c-0.3,0-0.7,0-1,0C0.6,9.3,0,9.8,0,10.7c0,0.8,0,1.6,0,2.4c0,0.9,0.6,1.5,1.5,1.5c0.2,0,0.3,0,0.5,0c0.3,0,0.6,0,0.8,0
			c0.2,0,0.2,0.1,0.2,0.2l0.1,0.3c0.1,0.3,0.3,0.6,0.4,0.9c0.1,0.1,0.1,0.2-0.1,0.4l-0.2,0.2c-0.2,0.3-0.5,0.6-0.7,0.8
			c-0.5,0.6-0.5,1.4,0.1,1.9c0.6,0.6,1.2,1.2,1.8,1.8c0.3,0.3,0.6,0.4,1,0.4c0.3,0,0.7-0.1,0.9-0.4c0.4-0.3,0.8-0.8,1-0.9
			c0.1-0.1,0.1-0.1,0.2-0.1c0,0,0.1,0,0.1,0c0.5,0.2,0.9,0.4,1.3,0.6c0,0,0.1,0,0.1,0.2c0,0.2,0,0.4,0,0.7c0,0.3,0,0.6,0,0.8
			c0,0.8,0.6,1.4,1.4,1.4c0.9,0,1.7,0,2.6,0c0.8,0,1.3-0.6,1.4-1.4c0-0.4,0.1-1,0.1-1.4c0-0.2,0-0.2,0.2-0.3l0.4-0.2
			c0.3-0.1,0.5-0.2,0.8-0.3c0,0,0.1,0,0.1,0c0,0,0.1,0,0.2,0.1c0.3,0.3,0.6,0.6,0.9,0.8c0.3,0.3,0.7,0.5,1.1,0.5
			c0.4,0,0.7-0.1,0.9-0.4c0.6-0.6,1.2-1.2,1.8-1.8c0.6-0.6,0.5-1.4-0.1-2.1c-0.1-0.2-0.3-0.3-0.4-0.5l-0.4-0.4
			c-0.1-0.1-0.1-0.2-0.1-0.3c0.2-0.4,0.3-0.8,0.5-1.2c0.1-0.1,0.1-0.2,0.3-0.2l0.3,0c0.3,0,0.8,0,1.1,0c0.8-0.1,1.4-0.6,1.4-1.4
			c0-0.3,0-0.6,0.1-0.9l0-0.4l0,0C23.8,12,23.7,10.7,23.7,10.7z M11.9,16.5c-2.5,0-4.6-2.1-4.6-4.6s2-4.6,4.6-4.6s4.6,2.1,4.6,4.6
			S14.4,16.5,11.9,16.5z"/>
	</g>
	<defs>
		<filter id="action-settings-Adobe_OpacityMaskFilter" filterUnits="userSpaceOnUse" x="-12" y="-12" width="48" height="48">
			<feColorMatrix  type="matrix" values="1 0 0 0 0  0 1 0 0 0  0 0 1 0 0  0 0 0 1 0"/>
		</filter>
	</defs>
	<mask maskUnits="userSpaceOnUse" x="-12" y="-12" width="48" height="48" id="action-settings-b">
		<g style="filter:url(#action-settings-Adobe_OpacityMaskFilter);">
			<path id="action-settings-a" style="fill:#FFFFFF;" d="M23.7,10.7c-0.1-0.9-0.6-1.4-1.5-1.5c-0.2,0-0.5,0-0.8,0c-0.2,0-0.4,0-0.6,0
				c-0.2,0-0.2-0.1-0.3-0.2c0-0.1-0.1-0.2-0.1-0.3c-0.1-0.3-0.2-0.6-0.4-0.9c-0.1-0.1-0.1-0.2,0.1-0.4c0.1-0.1,0.3-0.3,0.4-0.4
				c0.2-0.2,0.4-0.4,0.6-0.6c0.5-0.6,0.5-1.4-0.1-2c-0.6-0.6-1.2-1.2-1.8-1.8c-0.3-0.3-0.6-0.4-1-0.4c-0.3,0-0.7,0.1-0.9,0.4
				c-0.1,0.1-0.3,0.3-0.5,0.4c-0.2,0.2-0.5,0.4-0.7,0.5c-0.1,0.1-0.1,0.1-0.2,0.1c0,0-0.1,0-0.1,0c-0.4-0.1-0.8-0.3-1.3-0.5
				c-0.1,0-0.1,0-0.1-0.2c0-0.1,0-0.3,0-0.4c0-0.3,0-0.7,0-1C14.5,0.6,13.9,0,13.1,0c-0.8,0-1.7,0-2.5,0C9.8,0,9.2,0.6,9.2,1.5
				c0,0.4,0,1-0.1,1.4C9.1,3,9,3.1,8.9,3.1L8.6,3.3C8.3,3.4,8,3.5,7.7,3.6c0,0-0.1,0-0.1,0c0,0-0.1,0-0.2-0.1
				c-0.3-0.3-0.7-0.7-1-0.9C6.1,2.4,5.8,2.3,5.5,2.2c-0.4,0-0.7,0.2-1,0.4C3.9,3.3,3.3,3.9,2.7,4.5c-0.6,0.6-0.6,1.3-0.1,2
				C2.8,6.6,3,6.8,3.1,7c0.1,0.1,0.3,0.3,0.4,0.4c0.1,0.2,0.1,0.2,0.1,0.3c-0.1,0.3-0.3,0.7-0.4,1L3.1,9C3,9.1,3,9.2,2.8,9.2
				c-0.1,0-0.2,0-0.4,0c-0.3,0-0.7,0-1,0C0.6,9.3,0,9.8,0,10.7c0,0.8,0,1.6,0,2.4c0,0.9,0.6,1.5,1.5,1.5c0.2,0,0.3,0,0.5,0
				c0.3,0,0.6,0,0.8,0c0.2,0,0.2,0.1,0.2,0.2l0.1,0.3c0.1,0.3,0.3,0.6,0.4,0.9c0.1,0.1,0.1,0.2-0.1,0.4l-0.2,0.2
				c-0.2,0.3-0.5,0.6-0.7,0.8c-0.5,0.6-0.5,1.4,0.1,1.9c0.6,0.6,1.2,1.2,1.8,1.8c0.3,0.3,0.6,0.4,1,0.4c0.3,0,0.7-0.1,0.9-0.4
				c0.4-0.3,0.8-0.8,1-0.9c0.1-0.1,0.1-0.1,0.2-0.1c0,0,0.1,0,0.1,0c0.5,0.2,0.9,0.4,1.3,0.6c0,0,0.1,0,0.1,0.2c0,0.2,0,0.4,0,0.7
				c0,0.3,0,0.6,0,0.8c0,0.8,0.6,1.4,1.4,1.4c0.9,0,1.7,0,2.6,0c0.8,0,1.3-0.6,1.4-1.4c0-0.4,0.1-1,0.1-1.4c0-0.2,0-0.2,0.2-0.3
				l0.4-0.2c0.3-0.1,0.5-0.2,0.8-0.3c0,0,0.1,0,0.1,0c0,0,0.1,0,0.2,0.1c0.3,0.3,0.6,0.6,0.9,0.8c0.3,0.3,0.7,0.5,1.1,0.5
				c0.4,0,0.7-0.1,0.9-0.4c0.6-0.6,1.2-1.2,1.8-1.8c0.6-0.6,0.5-1.4-0.1-2.1c-0.1-0.2-0.3-0.3-0.4-0.5l-0.4-0.4
				c-0.1-0.1-0.1-0.2-0.1-0.3c0.2-0.4,0.3-0.8,0.5-1.2c0.1-0.1,0.1-0.2,0.3-0.2l0.3,0c0.3,0,0.8,0,1.1,0c0.8-0.1,1.4-0.6,1.4-1.4
				c0-0.3,0-0.6,0.1-0.9l0-0.4l0,0C23.8,12,23.7,10.7,23.7,10.7z M11.9,16.5c-2.5,0-4.6-2.1-4.6-4.6s2-4.6,4.6-4.6s4.6,2.1,4.6,4.6
				S14.4,16.5,11.9,16.5z"/>
		</g>
	</mask>
	<g style="mask:url(#action-settings-b);">
		<path style="fill:#111111;" d="M-12-12h48v48h-48V-12z"/>
	</g>
</g>
</svg>
