<?xml version="1.0" encoding="utf-8"?>
<svg version="1.1" id="action-settings-Layer_1" xmlns="http://www.w3.org/2000/svg" xmlns:xlink="http://www.w3.org/1999/xlink"
	 x="0px" y="0px" viewBox="0 0 48 48" style="enable-background:new 0 0 48 48;" xml:space="preserve">
<path id="action-settings-a_1_" style="fill:#111111;" d="M35.7,22.7c-0.1-0.9-0.6-1.4-1.5-1.5h-1.4c-0.2,0-0.2-0.1-0.3-0.2
	c0-0.1-0.1-0.2-0.1-0.3c-0.1-0.3-0.2-0.6-0.4-0.9c-0.1-0.1-0.1-0.2,0.1-0.4l0.4-0.4l0.6-0.6c0.5-0.6,0.5-1.4-0.1-2l-1.8-1.8
	c-0.3-0.3-0.6-0.4-1-0.4c-0.3,0-0.7,0.1-0.9,0.4c-0.1,0.1-0.3,0.3-0.5,0.4c-0.2,0.2-0.5,0.4-0.7,0.5c-0.1,0.1-0.1,0.1-0.2,0.1h-0.1
	c-0.4-0.1-0.8-0.3-1.3-0.5c-0.1,0-0.1,0-0.1-0.2v-0.4v-1c0.1-0.9-0.5-1.5-1.3-1.5h-2.5c-0.8,0-1.4,0.6-1.4,1.5c0,0.4,0,1-0.1,1.4
	c0,0.1-0.1,0.2-0.2,0.2l-0.3,0.2l-0.9,0.3h-0.1c0,0-0.1,0-0.2-0.1c-0.3-0.3-0.7-0.7-1-0.9c-0.3-0.2-0.6-0.3-0.9-0.4
	c-0.4,0-0.7,0.2-1,0.4c-0.6,0.7-1.2,1.3-1.8,1.9c-0.6,0.6-0.6,1.3-0.1,2c0.2,0.1,0.4,0.3,0.5,0.5l0.4,0.4c0.1,0.2,0.1,0.2,0.1,0.3
	c-0.1,0.3-0.3,0.7-0.4,1L15.1,21c-0.1,0.1-0.1,0.2-0.3,0.2h-1.4c-0.8,0.1-1.4,0.6-1.4,1.5v2.4c0,0.9,0.6,1.5,1.5,1.5h1.3
	c0.2,0,0.2,0.1,0.2,0.2l0.1,0.3c0.1,0.3,0.3,0.6,0.4,0.9c0.1,0.1,0.1,0.2-0.1,0.4l-0.2,0.2c-0.2,0.3-0.5,0.6-0.7,0.8
	C14,30,14,30.8,14.6,31.3l1.8,1.8c0.3,0.3,0.6,0.4,1,0.4c0.3,0,0.7-0.1,0.9-0.4c0.4-0.3,0.8-0.8,1-0.9c0.1-0.1,0.1-0.1,0.2-0.1h0.1
	c0.5,0.2,0.9,0.4,1.3,0.6c0,0,0.1,0,0.1,0.2v1.5c0,0.8,0.6,1.4,1.4,1.4H25c0.8,0,1.3-0.6,1.4-1.4c0-0.4,0.1-1,0.1-1.4
	c0-0.2,0-0.2,0.2-0.3l0.4-0.2c0.3-0.1,0.5-0.2,0.8-0.3H28c0,0,0.1,0,0.2,0.1c0.3,0.3,0.6,0.6,0.9,0.8c0.3,0.3,0.7,0.5,1.1,0.5
	s0.7-0.1,0.9-0.4l1.8-1.8c0.6-0.6,0.5-1.4-0.1-2.1c-0.1-0.2-0.3-0.3-0.4-0.5L32,28.4c-0.1-0.1-0.1-0.2-0.1-0.3
	c0.2-0.4,0.3-0.8,0.5-1.2c0.1-0.1,0.1-0.2,0.3-0.2h1.4c0.8-0.1,1.4-0.6,1.4-1.4c0-0.3,0-0.6,0.1-0.9V24C35.8,24,35.7,22.7,35.7,22.7
	z M23.9,28.5c-2.5,0-4.6-2.1-4.6-4.6s2-4.6,4.6-4.6s4.6,2.1,4.6,4.6S26.4,28.5,23.9,28.5z"/>
</svg>
