<svg id="action-target-Layer_1" xmlns="http://www.w3.org/2000/svg" viewBox="0 0 48 48" enable-background="new 0 0 48 48"><title>icon/Action/target</title><g transform="translate(11 11)"><path id="action-target-a_1_" d="M14.2 2.5c4.4.7 7.9 4.1 8.5 8.5h-1.6c-.7-3.5-3.4-6.3-6.9-6.9V2.5zm-3.2 0c-4.4.7-7.8 4.1-8.5 8.5h1.6c.6-3.5 3.4-6.3 6.9-6.9V2.5zm3.2 20.2c4.4-.7 7.9-4.1 8.5-8.5h-1.6c-.7 3.5-3.4 6.3-6.9 6.9v1.6zm-3.2 0c-4.4-.7-7.9-4.1-8.5-8.5h1.6c.7 3.5 3.4 6.3 6.9 6.9v1.6zM11.8.8c0-.4.4-.8.8-.8s.8.4.8.8v6.3c0 .4-.4.8-.8.8s-.8-.4-.8-.8V.8zm0 18.1c0-.4.4-.8.8-.8s.8.4.8.8v6.3c0 .4-.4.8-.8.8s-.8-.4-.8-.8v-6.3zm7.1-5.5c-.4 0-.8-.4-.8-.8s.4-.8.8-.8h6.3c.4 0 .8.4.8.8s-.4.8-.8.8h-6.3zm-18.1 0c-.4 0-.8-.4-.8-.8s.4-.8.8-.8h6.3c.4 0 .8.4.8.8s-.4.8-.8.8H.8z" fill="#384048"/><defs><filter id="action-target-Adobe_OpacityMaskFilter" filterUnits="userSpaceOnUse" x="-13" y="-13" width="52" height="52"><feColorMatrix values="1 0 0 0 0 0 1 0 0 0 0 0 1 0 0 0 0 0 1 0"/></filter></defs><mask maskUnits="userSpaceOnUse" x="-13" y="-13" width="52" height="52" id="action-target-b"><g filter="url(#action-target-Adobe_OpacityMaskFilter)"><path id="action-target-a" d="M14.2 2.5c4.4.7 7.9 4.1 8.5 8.5h-1.6c-.7-3.5-3.4-6.3-6.9-6.9V2.5zm-3.2 0c-4.4.7-7.8 4.1-8.5 8.5h1.6c.6-3.5 3.4-6.3 6.9-6.9V2.5zm3.2 20.2c4.4-.7 7.9-4.1 8.5-8.5h-1.6c-.7 3.5-3.4 6.3-6.9 6.9v1.6zm-3.2 0c-4.4-.7-7.9-4.1-8.5-8.5h1.6c.7 3.5 3.4 6.3 6.9 6.9v1.6zM11.8.8c0-.4.4-.8.8-.8s.8.4.8.8v6.3c0 .4-.4.8-.8.8s-.8-.4-.8-.8V.8zm0 18.1c0-.4.4-.8.8-.8s.8.4.8.8v6.3c0 .4-.4.8-.8.8s-.8-.4-.8-.8v-6.3zm7.1-5.5c-.4 0-.8-.4-.8-.8s.4-.8.8-.8h6.3c.4 0 .8.4.8.8s-.4.8-.8.8h-6.3zm-18.1 0c-.4 0-.8-.4-.8-.8s.4-.8.8-.8h6.3c.4 0 .8.4.8.8s-.4.8-.8.8H.8z" fill="#fff"/></g></mask><g mask="url(#action-target-b)"><path d="M-13-13h52v52h-52v-52z" fill="#111"/></g></g></svg>