<?xml version="1.0" encoding="UTF-8"?>
<svg width="48px" height="48px" viewBox="0 0 48 48" version="1.1" xmlns="http://www.w3.org/2000/svg" xmlns:xlink="http://www.w3.org/1999/xlink">
    <!-- Generator: Sketch 46.2 (44496) - http://www.bohemiancoding.com/sketch -->
    <title>icon/Action/target</title>
    <desc>Created with Sketch.</desc>
    <defs>
        <path d="M14.1818182,2.48410016 C18.5767954,3.16273441 22.0493868,6.63532577 22.728021,11.030303 L21.1298248,11.030303 C20.4826745,7.50715838 17.7049628,4.7294467 14.1818182,4.08229642 L14.1818182,2.48410016 Z M11.030303,2.48410016 C6.63532577,3.16273441 3.16273441,6.63532577 2.48410016,11.030303 L4.08229642,11.030303 C4.7294467,7.50715838 7.50715838,4.7294467 11.030303,4.08229642 L11.030303,2.48410016 Z M14.1818182,22.728021 C18.5767954,22.0493868 22.0493868,18.5767954 22.728021,14.1818182 L21.1298248,14.1818182 C20.4826745,17.7049628 17.7049628,20.4826745 14.1818182,21.1298248 L14.1818182,22.728021 Z M11.030303,22.728021 C6.63532577,22.0493868 3.16273441,18.5767954 2.48410016,14.1818182 L4.08229642,14.1818182 C4.7294467,17.7049628 7.50715838,20.4826745 11.030303,21.1298248 L11.030303,22.728021 Z M11.8181818,0.787878788 C11.8181818,0.352745349 12.1709272,2.13162821e-14 12.6060606,2.13162821e-14 C13.041194,2.13162821e-14 13.3939394,0.352745349 13.3939394,0.787878788 L13.3939394,7.09090909 C13.3939394,7.52604253 13.041194,7.87878788 12.6060606,7.87878788 C12.1709272,7.87878788 11.8181818,7.52604253 11.8181818,7.09090909 L11.8181818,0.787878788 Z M11.8181818,18.9090909 C11.8181818,18.4739575 12.1709272,18.1212121 12.6060606,18.1212121 C13.041194,18.1212121 13.3939394,18.4739575 13.3939394,18.9090909 L13.3939394,25.2121212 C13.3939394,25.6472547 13.041194,26 12.6060606,26 C12.1709272,26 11.8181818,25.6472547 11.8181818,25.2121212 L11.8181818,18.9090909 Z M18.9090909,13.3939394 C18.4739575,13.3939394 18.1212121,13.041194 18.1212121,12.6060606 C18.1212121,12.1709272 18.4739575,11.8181818 18.9090909,11.8181818 L25.2121212,11.8181818 C25.6472547,11.8181818 26,12.1709272 26,12.6060606 C26,13.041194 25.6472547,13.3939394 25.2121212,13.3939394 L18.9090909,13.3939394 Z M0.787878788,13.3939394 C0.352745349,13.3939394 0,13.041194 0,12.6060606 C0,12.1709272 0.352745349,11.8181818 0.787878788,11.8181818 L7.09090909,11.8181818 C7.52604253,11.8181818 7.87878788,12.1709272 7.87878788,12.6060606 C7.87878788,13.041194 7.52604253,13.3939394 7.09090909,13.3939394 L0.787878788,13.3939394 Z" id="path-1"></path>
    </defs>
    <g id="Symbols" stroke="none" stroke-width="1" fill="none" fill-rule="evenodd">
        <g id="icon/Action/target">
            <g id="Icon" transform="translate(11.000000, 11.000000)">
                <mask id="mask-2" fill="white">
                    <use xlink:href="#path-1"></use>
                </mask>
                <use id="Mask" fill="#384048" fill-rule="nonzero" xlink:href="#path-1"></use>
                <g id="Color/Grayscale/Night-Sky" mask="url(#mask-2)" fill="#111111">
                    <g transform="translate(-13.000000, -13.000000)" id="Swatch">
                        <rect x="0" y="0" width="52" height="52"></rect>
                    </g>
                </g>
            </g>
        </g>
    </g>
</svg>