<?xml version="1.0" encoding="utf-8"?>
<!-- Generator: Adobe Illustrator 21.0.2, SVG Export Plug-In . SVG Version: 6.00 Build 0)  -->
<svg version="1.1" id="action-thumbsdown-fill-Layer_1" xmlns="http://www.w3.org/2000/svg" xmlns:xlink="http://www.w3.org/1999/xlink" x="0px" y="0px"
	 viewBox="0 0 48 48" style="enable-background:new 0 0 48 48;" xml:space="preserve">
<title>icon/Action/thumbsdown-fill</title>
<g transform="translate(12 12)">
	<g>
		<path id="action-thumbsdown-fill-a_1_" style="fill:#384048;" d="M22.8,15.2h-4.3c-0.7,0-1.2-0.5-1.2-1.2V1.2c0-0.7,0.5-1.2,1.2-1.2h4.3
			C23.5,0,24,0.5,24,1.2V14C24,14.6,23.5,15.2,22.8,15.2z M9.7,24H9.2c-1.9,0-3.4-1.5-3.4-3.4V20c0-0.4,0-0.7,0.1-0.9l0.3-2.9
			l-3.7-0.9c-1.8-0.5-2.8-2.4-2.3-4.2l1.8-8.4c0.4-1.5,1.7-2.5,3.3-2.5l6-0.2h0c0.9,0,1.9,0.4,2.5,1.1l0.6,0.7
			c0.1,0,0.3,0.1,0.9,0.1c0.4,0,0.7,0.3,0.7,0.7v11.1c0,0.3-0.2,0.6-0.5,0.7c-0.8,0.3-1.5,0.8-1.9,1.5L12.1,19c0,0,0,0.1,0,0.1l0,0
			c-0.2,0.4-0.3,0.8-0.3,1.5c0,0,0,0.1,0,0.1l0,1.3C11.7,23.1,10.8,24,9.7,24z"/>
	</g>
	<defs>
		<filter id="action-thumbsdown-fill-Adobe_OpacityMaskFilter" filterUnits="userSpaceOnUse" x="-12" y="-12" width="48" height="48">
			<feColorMatrix  type="matrix" values="1 0 0 0 0  0 1 0 0 0  0 0 1 0 0  0 0 0 1 0"/>
		</filter>
	</defs>
	<mask maskUnits="userSpaceOnUse" x="-12" y="-12" width="48" height="48" id="action-thumbsdown-fill-b">
		<g style="filter:url(#action-thumbsdown-fill-Adobe_OpacityMaskFilter);">
			<path id="action-thumbsdown-fill-a" style="fill:#FFFFFF;" d="M22.8,15.2h-4.3c-0.7,0-1.2-0.5-1.2-1.2V1.2c0-0.7,0.5-1.2,1.2-1.2h4.3
				C23.5,0,24,0.5,24,1.2V14C24,14.6,23.5,15.2,22.8,15.2z M9.7,24H9.2c-1.9,0-3.4-1.5-3.4-3.4V20c0-0.4,0-0.7,0.1-0.9l0.3-2.9
				l-3.7-0.9c-1.8-0.5-2.8-2.4-2.3-4.2l1.8-8.4c0.4-1.5,1.7-2.5,3.3-2.5l6-0.2h0c0.9,0,1.9,0.4,2.5,1.1l0.6,0.7
				c0.1,0,0.3,0.1,0.9,0.1c0.4,0,0.7,0.3,0.7,0.7v11.1c0,0.3-0.2,0.6-0.5,0.7c-0.8,0.3-1.5,0.8-1.9,1.5L12.1,19c0,0,0,0.1,0,0.1l0,0
				c-0.2,0.4-0.3,0.8-0.3,1.5c0,0,0,0.1,0,0.1l0,1.3C11.7,23.1,10.8,24,9.7,24z"/>
		</g>
	</mask>
	<g style="mask:url(#action-thumbsdown-fill-b);">
		<path style="fill:#111111;" d="M-12-12h48v48h-48V-12z"/>
	</g>
</g>
</svg>
