<?xml version="1.0" encoding="utf-8"?>
<svg version="1.1" id="action-thumbsdown-fill-Layer_1"
	 xmlns="http://www.w3.org/2000/svg" xmlns:xlink="http://www.w3.org/1999/xlink" x="0px" y="0px" viewBox="0 0 48 48"
	 style="enable-background:new 0 0 48 48;" xml:space="preserve">
<path id="action-thumbsdown-fill-a_1_" style="fill:#111111;" d="M34.8,27.2h-4.3c-0.7,0-1.2-0.5-1.2-1.2V13.2
	c0-0.7,0.5-1.2,1.2-1.2h4.3c0.7,0,1.2,0.5,1.2,1.2V26C36,26.6,35.5,27.2,34.8,27.2z M21.7,36h-0.5c-1.9,0-3.4-1.5-3.4-3.4V32
	c0-0.4,0-0.7,0.1-0.9l0.3-2.9l-3.7-0.9c-1.8-0.5-2.8-2.4-2.3-4.2l1.8-8.4c0.4-1.5,1.7-2.5,3.3-2.5l6-0.2c0.9,0,1.9,0.4,2.5,1.1
	l0.6,0.7c0.1,0,0.3,0.1,0.9,0.1c0.4,0,0.7,0.3,0.7,0.7v11.1c0,0.3-0.2,0.6-0.5,0.7c-0.8,0.3-1.5,0.8-1.9,1.5L24.1,31v0.1
	c-0.2,0.4-0.3,0.8-0.3,1.5V34C23.7,35.1,22.8,36,21.7,36z"/>
</svg>
