<?xml version="1.0" encoding="utf-8"?>
<svg version="1.1" id="action-thumbsup-fill-Layer_1"
	 xmlns="http://www.w3.org/2000/svg" xmlns:xlink="http://www.w3.org/1999/xlink" x="0px" y="0px" viewBox="0 0 48 48"
	 style="enable-background:new 0 0 48 48;" xml:space="preserve">
<path style="fill:#111111;" d="M36,21.6v12.8c0,0.7-0.5,1.2-1.2,1.2h-4.3c-0.7,0-1.2-0.5-1.2-1.2V21.6c0-0.7,0.5-1.2,1.2-1.2h4.3
	C35.5,20.4,36,20.9,36,21.6z M23.7,14v1.4c0,0.7,0.1,1.1,0.3,1.5V17l1.4,3.2c0.5,0.7,1.1,1.2,1.9,1.5c0.3,0.1,0.5,0.4,0.5,0.7v11.1
	c0,0.4-0.3,0.7-0.7,0.7c-0.6,0-0.8,0.1-0.9,0.1L25.6,35c-0.7,0.7-1.6,1.1-2.5,1.1l-6-0.2c-1.5,0-2.9-1-3.3-2.5L12,25
	c-0.5-1.8,0.5-3.6,2.3-4.1L18,20l-0.1-3c-0.1-0.3-0.1-0.6-0.1-1v-0.6c0-1.9,1.5-3.4,3.4-3.4h0.5C22.8,12,23.7,12.9,23.7,14z"/>
</svg>
