<svg id="action-thumbsup-line-Layer_1" xmlns="http://www.w3.org/2000/svg" viewBox="0 0 48 48" enable-background="new 0 0 48 48"><title>icon/Action/thumbsup-line</title><g transform="translate(12 12)"><path d="M22.8 8.4h-5.7c-.7 0-1.2.5-1.2 1.2v.2c-1-.2-1.8-.8-2.4-1.6L12.1 5v-.1c-.2-.4-.3-.8-.3-1.5V2c0-1.1-.9-2-2-2h-.6C7.3 0 5.8 1.5 5.8 3.4V4c0 .4 0 .7.1.9l.3 2.9-3.7 1C.7 9.3-.3 11.2.2 12.9L2 21.3c.4 1.5 1.7 2.5 3.3 2.5l6 .2c.9 0 1.9-.4 2.5-1.1l.6-.7c.2-.1.7-.1 1.6-.1v.2c0 .7.5 1.2 1.2 1.2h5.7c.7 0 1.2-.5 1.2-1.2V9.6c-.1-.7-.6-1.2-1.3-1.2zm-9.4 12.8l-.7.8c-.4.4-.9.7-1.5.7l-6-.2c-.9 0-1.7-.6-1.9-1.5l-1.8-8.4c-.3-1.1.3-2.1 1.3-2.5L7.1 9c.3 0 .5-.3.5-.7l-.4-3.5v-.1c0-.2-.1-.4-.1-.7v-.6c0-1.1.9-2 2-2h.5c.4 0 .6.3.7.6v1.3c0 1 .2 1.6.5 2.2l1.4 3.3s0 .1.1.1c.8 1.3 2.1 2.1 3.6 2.3v9.5c-1.4 0-2.1.1-2.5.5zm3.9-11.5h5.3v12.4h-5.3V9.7z" fill="#384048"/><defs><filter id="action-thumbsup-line-Adobe_OpacityMaskFilter" filterUnits="userSpaceOnUse" x="-10.6" y="-11.5" width="46" height="46"><feColorMatrix values="1 0 0 0 0 0 1 0 0 0 0 0 1 0 0 0 0 0 1 0"/></filter></defs><mask maskUnits="userSpaceOnUse" x="-10.6" y="-11.5" width="46" height="46" id="action-thumbsup-line-b"><path d="M22.8 8.4h-5.7c-.7 0-1.2.5-1.2 1.2v.2c-1-.2-1.8-.8-2.4-1.6L12.1 5v-.1c-.2-.4-.3-.8-.3-1.5V2c0-1.1-.9-2-2-2h-.6C7.3 0 5.8 1.5 5.8 3.4V4c0 .4 0 .7.1.9l.3 2.9-3.7 1C.7 9.3-.3 11.2.2 12.9L2 21.3c.4 1.5 1.7 2.5 3.3 2.5l6 .2c.9 0 1.9-.4 2.5-1.1l.6-.7c.2-.1.7-.1 1.6-.1v.2c0 .7.5 1.2 1.2 1.2h5.7c.7 0 1.2-.5 1.2-1.2V9.6c-.1-.7-.6-1.2-1.3-1.2zm-9.4 12.8l-.7.8c-.4.4-.9.7-1.5.7l-6-.2c-.9 0-1.7-.6-1.9-1.5l-1.8-8.4c-.3-1.1.3-2.1 1.3-2.5L7.1 9c.3 0 .5-.3.5-.7l-.4-3.5v-.1c0-.2-.1-.4-.1-.7v-.6c0-1.1.9-2 2-2h.5c.4 0 .6.3.7.6v1.3c0 1 .2 1.6.5 2.2l1.4 3.3s0 .1.1.1c.8 1.3 2.1 2.1 3.6 2.3v9.5c-1.4 0-2.1.1-2.5.5zm3.9-11.5h5.3v12.4h-5.3V9.7z" fill="#fff" filter="url(#action-thumbsup-line-Adobe_OpacityMaskFilter)"/></mask><g mask="url(#action-thumbsup-line-b)"><path d="M-10.6-11.5h46v46h-46v-46z" fill="#111"/></g></g></svg>