<svg id="action-thumbsdown-fill-Layer_1" xmlns="http://www.w3.org/2000/svg" viewBox="0 0 48 48" enable-background="new 0 0 48 48"><title>icon/Action/thumbsdown-fill</title><g transform="translate(12 12)"><path id="action-thumbsdown-fill-a_1_" d="M22.8 15.2h-4.3c-.7 0-1.2-.5-1.2-1.2V1.2c0-.7.5-1.2 1.2-1.2h4.3c.7 0 1.2.5 1.2 1.2V14c0 .6-.5 1.2-1.2 1.2zM9.7 24h-.5c-1.9 0-3.4-1.5-3.4-3.4V20c0-.4 0-.7.1-.9l.3-2.9-3.7-.9C.7 14.8-.3 12.9.2 11.1L2 2.7C2.4 1.2 3.7.2 5.3.2l6-.2c.9 0 1.9.4 2.5 1.1l.6.7c.1 0 .3.1.9.1.4 0 .7.3.7.7v11.1c0 .3-.2.6-.5.7-.8.3-1.5.8-1.9 1.5L12.1 19v.1c-.2.4-.3.8-.3 1.5V22c-.1 1.1-1 2-2.1 2z" fill="#384048"/><defs><filter id="action-thumbsdown-fill-Adobe_OpacityMaskFilter" filterUnits="userSpaceOnUse" x="-12" y="-12" width="48" height="48"><feColorMatrix values="1 0 0 0 0 0 1 0 0 0 0 0 1 0 0 0 0 0 1 0"/></filter></defs><mask maskUnits="userSpaceOnUse" x="-12" y="-12" width="48" height="48" id="action-thumbsdown-fill-b"><g filter="url(#action-thumbsdown-fill-Adobe_OpacityMaskFilter)"><path id="action-thumbsdown-fill-a" d="M22.8 15.2h-4.3c-.7 0-1.2-.5-1.2-1.2V1.2c0-.7.5-1.2 1.2-1.2h4.3c.7 0 1.2.5 1.2 1.2V14c0 .6-.5 1.2-1.2 1.2zM9.7 24h-.5c-1.9 0-3.4-1.5-3.4-3.4V20c0-.4 0-.7.1-.9l.3-2.9-3.7-.9C.7 14.8-.3 12.9.2 11.1L2 2.7C2.4 1.2 3.7.2 5.3.2l6-.2c.9 0 1.9.4 2.5 1.1l.6.7c.1 0 .3.1.9.1.4 0 .7.3.7.7v11.1c0 .3-.2.6-.5.7-.8.3-1.5.8-1.9 1.5L12.1 19v.1c-.2.4-.3.8-.3 1.5V22c-.1 1.1-1 2-2.1 2z" fill="#fff"/></g></mask><g mask="url(#action-thumbsdown-fill-b)"><path d="M-12-12h48v48h-48v-48z" fill="#111"/></g></g></svg>