<?xml version="1.0" encoding="utf-8"?>
<svg version="1.1" id="action-thumbsup-line-Layer_1"
	 xmlns="http://www.w3.org/2000/svg" xmlns:xlink="http://www.w3.org/1999/xlink" x="0px" y="0px" viewBox="0 0 48 48"
	 style="enable-background:new 0 0 48 48;" xml:space="preserve">
<path style="fill:#111111;" d="M34.8,20.4h-5.7c-0.7,0-1.2,0.5-1.2,1.2v0.2c-1-0.2-1.8-0.8-2.4-1.6L24.1,17v-0.1
	c-0.2-0.4-0.3-0.8-0.3-1.5V14c0-1.1-0.9-2-2-2h-0.6c-1.9,0-3.4,1.5-3.4,3.4V16c0,0.4,0,0.7,0.1,0.9l0.3,2.9l-3.7,1
	c-1.8,0.5-2.8,2.4-2.3,4.1l1.8,8.4c0.4,1.5,1.7,2.5,3.3,2.5l6,0.2c0.9,0,1.9-0.4,2.5-1.1l0.6-0.7c0.2-0.1,0.7-0.1,1.6-0.1v0.2
	c0,0.7,0.5,1.2,1.2,1.2h5.7c0.7,0,1.2-0.5,1.2-1.2V21.6C36,20.9,35.5,20.4,34.8,20.4z M25.4,33.2L24.7,34c-0.4,0.4-0.9,0.7-1.5,0.7
	l-6-0.2c-0.9,0-1.7-0.6-1.9-1.5l-1.8-8.4c-0.3-1.1,0.3-2.1,1.3-2.5l4.3-1.1c0.3,0,0.5-0.3,0.5-0.7l-0.4-3.5v-0.1
	c0-0.2-0.1-0.4-0.1-0.7v-0.6c0-1.1,0.9-2,2-2h0.5c0.4,0,0.6,0.3,0.7,0.6v1.3c0,1,0.2,1.6,0.5,2.2l1.4,3.3c0,0,0,0.1,0.1,0.1
	c0.8,1.3,2.1,2.1,3.6,2.3v9.5C26.5,32.7,25.8,32.8,25.4,33.2z M29.3,21.7h5.3v12.4h-5.3C29.3,34.1,29.3,21.7,29.3,21.7z"/>
</svg>
