<?xml version="1.0" encoding="utf-8"?>
<!-- Generator: Adobe Illustrator 21.0.2, SVG Export Plug-In . SVG Version: 6.00 Build 0)  -->
<svg version="1.1" id="Layer_1" xmlns="http://www.w3.org/2000/svg" xmlns:xlink="http://www.w3.org/1999/xlink" x="0px" y="0px"
	 viewBox="0 0 48 48" style="enable-background:new 0 0 48 48;" xml:space="preserve">
<title>icon/Action/thumbsup-line</title>
<desc>Created with Sketch.</desc>
<g id="Symbols">
	<g id="icon_x2F_Action_x2F_thumbsup-line">
		<g id="Icon" transform="translate(12.000000, 12.000000)">
			<g id="Mask">
				<path id="path-1_1_" style="fill:#384048;" d="M22.8,8.4h-5.7c-0.7,0-1.2,0.5-1.2,1.2v0.2c-1-0.2-1.8-0.8-2.4-1.6l-1.4-3.2
					c0,0,0,0,0-0.1c0,0,0,0,0,0c-0.2-0.4-0.3-0.8-0.3-1.5c0,0,0,0,0,0c0,0,0,0,0-0.1l0-1.3c0-1.1-0.9-2-2-2H9.2
					C7.3,0,5.8,1.5,5.8,3.4V4c0,0.4,0,0.7,0.1,0.9l0.3,2.9L2.5,8.8c0,0,0,0,0,0c-1.8,0.5-2.8,2.4-2.3,4.1l1.8,8.4c0,0,0,0,0,0
					c0.4,1.5,1.7,2.5,3.3,2.5l6,0.2c0,0,0,0,0,0c0.9,0,1.9-0.4,2.5-1.1l0.6-0.7c0.2-0.1,0.7-0.1,1.6-0.1v0.2c0,0.7,0.5,1.2,1.2,1.2
					h5.7c0.7,0,1.2-0.5,1.2-1.2V9.6C24,8.9,23.5,8.4,22.8,8.4L22.8,8.4z M13.4,21.2l-0.7,0.8c-0.4,0.4-0.9,0.7-1.5,0.7l-6-0.2
					c0,0,0,0,0,0c-0.9,0-1.7-0.6-1.9-1.5l-1.8-8.4c0,0,0,0,0,0c-0.3-1.1,0.3-2.1,1.3-2.5l4.3-1.1C7.4,9,7.6,8.7,7.6,8.3L7.2,4.8
					c0,0,0,0,0-0.1c0-0.2-0.1-0.4-0.1-0.7V3.4c0-1.1,0.9-2,2-2h0.5c0.4,0,0.6,0.3,0.7,0.6l0,1.3c0,0,0,0,0,0c0,1,0.2,1.6,0.5,2.2
					l1.4,3.3c0,0,0,0.1,0.1,0.1c0.8,1.3,2.1,2.1,3.6,2.3v9.5C14.5,20.7,13.8,20.8,13.4,21.2L13.4,21.2z M17.3,9.7h5.3v12.4h-5.3V9.7
					z"/>
			</g>
			<defs>
				<filter id="Adobe_OpacityMaskFilter" filterUnits="userSpaceOnUse" x="-10.6" y="-11.5" width="46" height="46">
					<feColorMatrix  type="matrix" values="1 0 0 0 0  0 1 0 0 0  0 0 1 0 0  0 0 0 1 0"/>
				</filter>
			</defs>
			<mask maskUnits="userSpaceOnUse" x="-10.6" y="-11.5" width="46" height="46" id="qmask-2">
				<g style="filter:url(#Adobe_OpacityMaskFilter);">
					<path id="path-1" style="fill:#FFFFFF;" d="M22.8,8.4h-5.7c-0.7,0-1.2,0.5-1.2,1.2v0.2c-1-0.2-1.8-0.8-2.4-1.6l-1.4-3.2
						c0,0,0,0,0-0.1c0,0,0,0,0,0c-0.2-0.4-0.3-0.8-0.3-1.5c0,0,0,0,0,0c0,0,0,0,0-0.1l0-1.3c0-1.1-0.9-2-2-2H9.2
						C7.3,0,5.8,1.5,5.8,3.4V4c0,0.4,0,0.7,0.1,0.9l0.3,2.9L2.5,8.8c0,0,0,0,0,0c-1.8,0.5-2.8,2.4-2.3,4.1l1.8,8.4c0,0,0,0,0,0
						c0.4,1.5,1.7,2.5,3.3,2.5l6,0.2c0,0,0,0,0,0c0.9,0,1.9-0.4,2.5-1.1l0.6-0.7c0.2-0.1,0.7-0.1,1.6-0.1v0.2c0,0.7,0.5,1.2,1.2,1.2
						h5.7c0.7,0,1.2-0.5,1.2-1.2V9.6C24,8.9,23.5,8.4,22.8,8.4L22.8,8.4z M13.4,21.2l-0.7,0.8c-0.4,0.4-0.9,0.7-1.5,0.7l-6-0.2
						c0,0,0,0,0,0c-0.9,0-1.7-0.6-1.9-1.5l-1.8-8.4c0,0,0,0,0,0c-0.3-1.1,0.3-2.1,1.3-2.5l4.3-1.1C7.4,9,7.6,8.7,7.6,8.3L7.2,4.8
						c0,0,0,0,0-0.1c0-0.2-0.1-0.4-0.1-0.7V3.4c0-1.1,0.9-2,2-2h0.5c0.4,0,0.6,0.3,0.7,0.6l0,1.3c0,0,0,0,0,0c0,1,0.2,1.6,0.5,2.2
						l1.4,3.3c0,0,0,0.1,0.1,0.1c0.8,1.3,2.1,2.1,3.6,2.3v9.5C14.5,20.7,13.8,20.8,13.4,21.2L13.4,21.2z M17.3,9.7h5.3v12.4h-5.3
						V9.7z"/>
				</g>
			</mask>
			<g id="Color_x2F_Grayscale_x2F_Night-Sky" style="mask:url(#qmask-2);">
				<g id="Swatch" transform="translate(-10.560000, -11.520000)">
					<rect x="0" y="0" style="fill:#111111;" width="46" height="46"/>
				</g>
			</g>
		</g>
	</g>
</g>
</svg>
