<?xml version="1.0" encoding="utf-8"?>
<svg version="1.1" id="action-thumbsdown-line-Layer_1"
	 xmlns="http://www.w3.org/2000/svg" xmlns:xlink="http://www.w3.org/1999/xlink" x="0px" y="0px" viewBox="0 0 48 48"
	 style="enable-background:new 0 0 48 48;" xml:space="preserve">
<path id="action-thumbsdown-line-a_1_" style="fill:#111111;" d="M34.8,12.5h-5.7c-0.7,0-1.2,0.5-1.2,1.2v0.2c-0.8,0-1.3,0-1.6-0.1
	l-0.6-0.7c-0.6-0.7-1.6-1.1-2.5-1.1l-6,0.2c-1.5,0-2.9,1-3.3,2.5l-1.8,8.4c-0.5,1.8,0.6,3.6,2.3,4.1l3.7,0.9L17.9,31
	c-0.1,0.3-0.1,0.6-0.1,0.9v0.6c0,1.9,1.5,3.4,3.4,3.4h0.5c1.1,0,2-0.9,2-2v-1.4c0-0.7,0.1-1.1,0.3-1.5v-0.1l1.4-3.2
	c0.5-0.8,1.4-1.4,2.4-1.6v0.2c0,0.7,0.5,1.2,1.2,1.2h5.7c0.7,0,1.2-0.5,1.2-1.2V13.7C36,13,35.4,12.5,34.8,12.5z M24.3,27.1
	c0,0,0,0.1-0.1,0.1l-1.4,3.3c-0.3,0.6-0.5,1.2-0.5,2.2V34c0,0.3-0.3,0.6-0.6,0.6h-0.5c-1.1,0-2-0.9-2-1.9V32c0-0.3,0-0.5,0.1-0.8
	l0.4-3.5c0-0.3-0.2-0.7-0.5-0.7l-4.3-1.1c-1.1-0.3-1.7-1.4-1.3-2.5l1.6-8.4c0.2-0.9,1-1.5,1.9-1.5l6-0.2c0.6,0,1.1,0.2,1.5,0.7
	l0.7,0.8c0.4,0.4,1.2,0.5,2.5,0.5v9.5C26.4,25,25.1,25.8,24.3,27.1z M29.3,13.9h5.3v12.4h-5.3C29.3,26.3,29.3,13.9,29.3,13.9z"/>
</svg>
