<svg xmlns="http://www.w3.org/2000/svg" width="26" height="26" viewBox="0 0 26 26">
    <g fill="none" fill-rule="evenodd" transform="translate(-11 -11)">
        <path d="M0 0h48v48H0z"/>
        <circle cx="24" cy="24" r="12" stroke="#384048"/>
        <path fill="#384048" d="M22.48 26.654v-.595c0-.681.125-1.248.372-1.7.248-.452.682-.92 1.301-1.403.737-.582 1.213-1.035 1.427-1.357.213-.322.32-.706.32-1.152 0-.52-.173-.92-.52-1.198-.347-.28-.846-.419-1.496-.419-.589 0-1.134.084-1.635.251-.502.168-.992.369-1.469.604L20 18.05A8.18 8.18 0 0 1 24.042 17c1.214 0 2.177.297 2.89.892.712.595 1.068 1.415 1.068 2.462 0 .465-.068.878-.204 1.24a3.56 3.56 0 0 1-.618 1.037c-.276.328-.751.755-1.427 1.282-.576.452-.961.827-1.156 1.124-.195.297-.293.697-.293 1.199v.418h-1.821zm-.38 2.964c0-.935.455-1.403 1.366-1.403.446 0 .786.122 1.022.367.235.245.353.59.353 1.036 0 .44-.12.788-.358 1.045-.238.257-.577.386-1.017.386-.44 0-.778-.126-1.013-.377-.235-.25-.353-.602-.353-1.054z"/>
    </g>
</svg>
