<?xml version="1.0" encoding="utf-8"?>
<svg version="1.1" id="Layer_1" xmlns="http://www.w3.org/2000/svg" xmlns:xlink="http://www.w3.org/1999/xlink" x="0px" y="0px"
	 viewBox="0 0 26 26" style="enable-background:new 0 0 26 26;" xml:space="preserve">
<g transform="translate(-11 -11)">
	<path style="fill:none;" d="M0,0h48v48H0V0z"/>
	<circle style="fill:none;stroke:#111111;" cx="24" cy="24" r="12"/>
	<path style="fill:#111111;" d="M22.5,26.7v-0.6c0-0.7,0.1-1.2,0.4-1.7c0.2-0.5,0.7-0.9,1.3-1.4c0.7-0.6,1.2-1,1.4-1.4
		c0.2-0.3,0.3-0.7,0.3-1.2c0-0.5-0.2-0.9-0.5-1.2c-0.3-0.3-0.8-0.4-1.5-0.4c-0.6,0-1.1,0.1-1.6,0.3c-0.5,0.2-1,0.4-1.5,0.6L20,18
		c1.2-0.7,2.6-1.1,4-1c1.2,0,2.2,0.3,2.9,0.9c0.7,0.6,1.1,1.4,1.1,2.5c0,0.5-0.1,0.9-0.2,1.2c-0.1,0.4-0.4,0.7-0.6,1
		c-0.3,0.3-0.8,0.8-1.4,1.3c-0.6,0.5-1,0.8-1.2,1.1s-0.3,0.7-0.3,1.2v0.4H22.5L22.5,26.7z M22.1,29.6c0-0.9,0.5-1.4,1.4-1.4
		c0.4,0,0.8,0.1,1,0.4c0.2,0.2,0.4,0.6,0.4,1c0,0.4-0.1,0.8-0.4,1c-0.2,0.3-0.6,0.4-1,0.4s-0.8-0.1-1-0.4
		C22.2,30.4,22.1,30.1,22.1,29.6z"/>
</g>
</svg>
