<?xml version="1.0" encoding="UTF-8"?>
<svg width="48px" height="48px" viewBox="0 0 48 48" version="1.1" xmlns="http://www.w3.org/2000/svg" xmlns:xlink="http://www.w3.org/1999/xlink">
    <!-- Generator: Sketch 46.2 (44496) - http://www.bohemiancoding.com/sketch -->
    <title>icon/Action/trash-can</title>
    <desc>Created with Sketch.</desc>
    <defs>
        <path d="M18.0322581,21.2677249 C18.0322581,21.7354497 17.6688172,22.0931217 17.1935484,22.0931217 C16.7182796,22.0931217 16.3548387,21.7354497 16.3548387,21.2677249 L16.3548387,8.06137566 C16.3548387,7.59365079 16.7182796,7.23597884 17.1935484,7.23597884 C17.6688172,7.23597884 18.0322581,7.59365079 18.0322581,8.06137566 L18.0322581,21.2677249 Z M16.1870968,3.52169312 L9.84086022,3.52169312 L9.84086022,1.92592593 C9.84086022,1.76084656 9.95268817,1.65079365 10.1204301,1.65079365 L15.9075269,1.65079365 C16.0752688,1.65079365 16.1870968,1.76084656 16.1870968,1.92592593 L16.1870968,3.52169312 Z M13.8387097,21.2677249 C13.8387097,21.7354497 13.4752688,22.0931217 13,22.0931217 C12.5247312,22.0931217 12.1612903,21.7354497 12.1612903,21.2677249 L12.1612903,8.06137566 C12.1612903,7.59365079 12.5247312,7.23597884 13,7.23597884 C13.4752688,7.23597884 13.8387097,7.59365079 13.8387097,8.06137566 L13.8387097,21.2677249 Z M9.64516129,21.2677249 C9.64516129,21.7354497 9.28172043,22.0931217 8.80645161,22.0931217 C8.3311828,22.0931217 7.96774194,21.7354497 7.96774194,21.2677249 L7.96774194,8.06137566 C7.96774194,7.59365079 8.3311828,7.23597884 8.80645161,7.23597884 C9.28172043,7.23597884 9.64516129,7.59365079 9.64516129,8.06137566 L9.64516129,21.2677249 Z M25.1612903,3.52169312 L17.8365591,3.52169312 L17.8365591,1.92592593 C17.8365591,0.852910053 16.9698925,5.32907052e-15 15.8795699,5.32907052e-15 L10.1204301,5.32907052e-15 C9.03010753,5.32907052e-15 8.16344086,0.852910053 8.16344086,1.92592593 L8.16344086,3.52169312 L0.838709677,3.52169312 C0.36344086,3.52169312 0,3.87936508 0,4.34708995 C0,4.81481481 0.391397849,5.17248677 0.838709677,5.17248677 L3.24301075,5.17248677 L3.88602151,23.6063492 C3.94193548,24.9544974 5.03225806,26 6.40215054,26 L19.5978495,26 C20.9677419,26 22.0580645,24.9544974 22.1139785,23.6063492 L22.7569892,5.17248677 L25.1612903,5.17248677 C25.6365591,5.17248677 26,4.81481481 26,4.34708995 C26,3.87936508 25.6365591,3.52169312 25.1612903,3.52169312 L25.1612903,3.52169312 Z" id="path-1"></path>
    </defs>
    <g id="Symbols" stroke="none" stroke-width="1" fill="none" fill-rule="evenodd">
        <g id="icon/Action/trash-can">
            <g id="Icon" transform="translate(11.000000, 11.000000)">
                <mask id="mask-2" fill="white">
                    <use xlink:href="#path-1"></use>
                </mask>
                <use id="Mask" fill="#333333" xlink:href="#path-1"></use>
                <g id="Color/Grayscale/Night-Sky" mask="url(#mask-2)" fill="#111111">
                    <g transform="translate(-11.000000, -11.000000)" id="Swatch">
                        <rect x="0" y="0" width="48" height="48"></rect>
                    </g>
                </g>
            </g>
        </g>
    </g>
</svg>