<?xml version="1.0" encoding="utf-8"?>
<svg version="1.1" id="action-upload-Layer_1" xmlns="http://www.w3.org/2000/svg" xmlns:xlink="http://www.w3.org/1999/xlink"
	 x="0px" y="0px" viewBox="0 0 48 48" style="enable-background:new 0 0 48 48;" xml:space="preserve">
<path id="action-upload-a_1_" d="M35.4,28.1c0.3,0,0.6,0.3,0.6,0.6v2.4c0,2.1-1.6,3.8-3.7,3.8H15.7c-2,0-3.7-1.7-3.7-3.8v-2.4
	c0-0.4,0.3-0.6,0.6-0.6c0.3,0,0.6,0.3,0.6,0.6v2.4c0,1.4,1.1,2.5,2.4,2.5h16.7c1.3,0,2.4-1.1,2.4-2.5v-2.4
	C34.8,28.4,35.1,28.1,35.4,28.1z M31.7,30.6c0.3,0,0.6,0.3,0.6,0.6s-0.3,0.6-0.6,0.6H16.3c-0.3,0-0.6-0.3-0.6-0.6
	c0-0.4,0.3-0.6,0.6-0.6C16.3,30.6,31.7,30.6,31.7,30.6z M30.1,18.2c0.3,0.2,0.3,0.6,0,0.9c-0.2,0.3-0.6,0.3-0.8,0.1l-4.7-4.4v12.4
	c0,0.3-0.3,0.6-0.6,0.6c-0.3,0-0.6-0.3-0.6-0.6V14.7l-4.7,4.4c-0.2,0.2-0.6,0.2-0.8,0c-0.2-0.3-0.2-0.7,0-0.9l5.1-4.8
	c0.6-0.5,1.5-0.5,2,0C25,13.4,30.1,18.2,30.1,18.2z"/>
</svg>
