<svg id="action-zoom-in-fill-Layer_1" xmlns="http://www.w3.org/2000/svg" viewBox="0 0 48 48" enable-background="new 0 0 48 48"><title>icon/Action/zoom-in-fill</title><g transform="translate(12 12)"><path id="action-zoom-in-fill-a_1_" d="M23.6 20.9c.6.6.6 1.6-.1 2.4-.5.5-1 .7-1.5.7-.4 0-.8-.1-1.1-.4-.7-.7-6-5.9-7.1-7-1.4.9-3.1 1.4-4.8 1.4-5 0-9-4-9-9s4-9 9-9 9 4 9 9c0 1.8-.5 3.6-1.6 5.1 1.3 1.1 6.5 6.2 7.2 6.8zM12.5 8.3H9.7V5.5c0-.4-.3-.7-.7-.7s-.7.3-.7.7v2.8H5.5c-.4 0-.7.3-.7.7 0 .4.3.7.7.7h2.9v2.8c0 .4.3.7.7.7s.7-.3.7-.7V9.7h2.8c.4 0 .7-.3.7-.7s-.4-.7-.8-.7z" fill="#384048"/><defs><filter id="action-zoom-in-fill-Adobe_OpacityMaskFilter" filterUnits="userSpaceOnUse" x="-12" y="-12" width="48" height="48"><feColorMatrix values="1 0 0 0 0 0 1 0 0 0 0 0 1 0 0 0 0 0 1 0"/></filter></defs><mask maskUnits="userSpaceOnUse" x="-12" y="-12" width="48" height="48" id="action-zoom-in-fill-b"><g filter="url(#action-zoom-in-fill-Adobe_OpacityMaskFilter)"><path id="action-zoom-in-fill-a" d="M23.6 20.9c.6.6.6 1.6-.1 2.4-.5.5-1 .7-1.5.7-.4 0-.8-.1-1.1-.4-.7-.7-6-5.9-7.1-7-1.4.9-3.1 1.4-4.8 1.4-5 0-9-4-9-9s4-9 9-9 9 4 9 9c0 1.8-.5 3.6-1.6 5.1 1.3 1.1 6.5 6.2 7.2 6.8zM12.5 8.3H9.7V5.5c0-.4-.3-.7-.7-.7s-.7.3-.7.7v2.8H5.5c-.4 0-.7.3-.7.7 0 .4.3.7.7.7h2.9v2.8c0 .4.3.7.7.7s.7-.3.7-.7V9.7h2.8c.4 0 .7-.3.7-.7s-.4-.7-.8-.7z" fill="#fff"/></g></mask><g mask="url(#action-zoom-in-fill-b)"><path d="M-12-12h48v48h-48v-48z" fill="#111"/></g></g></svg>