<?xml version="1.0" encoding="utf-8"?>
<svg version="1.1" id="action-zoom-out-line-Layer_1"
	 xmlns="http://www.w3.org/2000/svg" xmlns:xlink="http://www.w3.org/1999/xlink" x="0px" y="0px" viewBox="0 0 48 48"
	 style="enable-background:new 0 0 48 48;" xml:space="preserve">
<path id="action-zoom-out-line-a_1_" style="fill:#111111;" d="M35.6,32.9c0.6,0.6,0.6,1.6-0.1,2.4C35,35.8,34.5,36,34,36
	c-0.4,0-0.8-0.1-1.1-0.4c-0.7-0.7-6-5.9-7.1-7C24.4,29.5,22.7,30,21,30c-5,0-9-4-9-9s4-9,9-9s9,4,9,9c0,1.8-0.5,3.6-1.6,5.1
	C29.7,27.2,34.9,32.3,35.6,32.9z M13.4,21c0,4.2,3.4,7.6,7.6,7.6s7.6-3.4,7.6-7.6s-3.4-7.6-7.6-7.6S13.4,16.8,13.4,21z M34.2,34.5
	c0.3-0.2,0.4-0.5,0.4-0.6c-0.7-0.6-5.6-5.5-7-6.8c-0.2,0.2-0.4,0.4-0.7,0.6c1.4,1.3,6.2,6.2,6.9,6.8C33.9,34.6,34,34.7,34.2,34.5z
	 M24.5,20.3c0.4,0,0.7,0.3,0.7,0.7s-0.3,0.7-0.7,0.7h-7c-0.3,0-0.7-0.3-0.7-0.7s0.3-0.7,0.7-0.7H24.5z"/>
</svg>
