<?xml version="1.0" encoding="utf-8"?>
<!-- Generator: Adobe Illustrator 21.0.2, SVG Export Plug-In . SVG Version: 6.00 Build 0)  -->
<svg version="1.1" id="Design_System_Menu" xmlns="http://www.w3.org/2000/svg" xmlns:xlink="http://www.w3.org/1999/xlink" x="0px"
	 y="0px" viewBox="0 0 31 27" style="enable-background:new 0 0 31 27;" xml:space="preserve">
<path id="Design_System_Menu_Path" style="fill:#FFFFFF;" d="M29.3,0.9c0.6,0,1.1,0.5,1.1,1.1c0,0.6-0.5,1.1-1.1,1.1H1.8
	C1.1,3.2,0.6,2.7,0.6,2c0-0.6,0.5-1.1,1.1-1.1H29.3z M29.3,12.4c0.6,0,1.1,0.5,1.1,1.1s-0.5,1.1-1.1,1.1H1.8c-0.6,0-1.1-0.5-1.1-1.1
	s0.5-1.1,1.1-1.1H29.3z M29.3,23.8c0.6,0,1.1,0.5,1.1,1.1c0,0.6-0.5,1.1-1.1,1.1H1.8c-0.6,0-1.1-0.5-1.1-1.1c0-0.6,0.5-1.1,1.1-1.1
	H29.3z"/>
</svg>
