<?xml version="1.0" encoding="utf-8"?>
<svg version="1.1" id="icon-svg-design-system-search" xmlns="http://www.w3.org/2000/svg" xmlns:xlink="http://www.w3.org/1999/xlink" x="0px" y="0px"
	 viewBox="0 0 28 28" style="enable-background:new 0 0 28 28;" xml:space="preserve">
<path id="icon-svg-design-system-search-path" style="fill:#FFFFFF;" d="M27,24c-0.8-0.7-6.6-6.4-8-7.7c1.1-1.6,1.8-3.6,1.8-5.7c0-5.6-4.5-10.1-10.1-10.1
	C5,0.5,0.5,5,0.5,10.6S5,20.7,10.6,20.7c2,0,3.8-0.6,5.4-1.5c1.3,1.2,7.2,7.1,8,7.8c0.4,0.3,0.8,0.5,1.3,0.5c0.6,0,1.1-0.3,1.6-0.7
	C27.6,25.8,27.7,24.6,27,24L27,24z M3,10.6C3,6.4,6.4,3,10.6,3s7.7,3.4,7.7,7.6s-3.4,7.6-7.7,7.6S3,14.8,3,10.6L3,10.6z"/>
</svg>
