<svg xmlns="http://www.w3.org/2000/svg" width="32" height="32" viewBox="0 0 32 32">
  <g fill="none" fill-rule="evenodd" transform="translate(4 9)">
    <rect width="23" height="13.67" x=".5" y=".5" stroke="#D8D8D8" rx="2"/>
    <g fill="#1A1919" transform="translate(3 4)">
      <path d="M3.38330831.979386295C3.58537419.726803937 3.72238753.387580792 3.68626321.0410176479 3.39064831.0556976482 3.02983693.236031377 2.82100673.488901579 2.63347692.705359623 2.46753535 1.05868708 2.51071182 1.39071415 2.84259496 1.41949846 3.17419026 1.2249165 3.38330831.979386295M3.68237733 1.45562278C3.20052791 1.42683846 2.7907832 1.72907376 2.5606526 1.72907376 2.33037809 1.72907376 1.97791416 1.47001493 1.59666592 1.47706709 1.10056826 1.48426317.640307072 1.76476631.388444322 2.21092318-.129385493 3.10352477.25186275 4.42745931.755444329 5.15426324.99996708 5.51392325 1.29471846 5.9098515 1.68301886 5.89574718 2.04987494 5.88135502 2.19379652 5.65813267 2.63966555 5.65813267 3.08539065 5.65813267 3.21492007 5.89574718 3.60336439 5.8885511 4.00605695 5.88135502 4.2579197 5.52874717 4.50244245 5.1686554 4.78294559 4.75876677 4.897795 4.36298244 4.905135 4.34125029 4.897795 4.33391029 4.12839028 4.03887106 4.12133812 3.1537534 4.11399812 2.41255731 4.72537696 2.06009338 4.75416128 2.0382173 4.40889342 1.52758356 3.86947537 1.47001493 3.68237733 1.45562278M7.30157309 3.30328791L8.26296919 3.30328791C8.99250764 3.30328791 9.40772137 2.91052594 9.40772137 2.22963299 9.40772137 1.54888395 8.99250764 1.15972002 8.26671115 1.15972002L7.30157309 1.15972002 7.30157309 3.30328791zM8.48748684.452633343C9.53494804.452633343 10.2644865 1.17468787 10.2644865 2.22589103 10.2644865 3.28083615 9.5199802 4.00663263 8.46129312 4.00663263L7.30157309 4.00663263 7.30157309 5.85098757 6.4636617 5.85098757 6.4636617.452633343 8.48748684.452633343zM13.016123 4.38457068L13.016123 4.08147185 12.0846626 4.14134322C11.560932 4.17502087 11.2879128 4.36945891 11.2879128 4.70997735 11.2879128 5.03912599 11.5721579 5.25241776 12.0173073 5.25241776 12.5859414 5.25241776 13.016123 4.88944755 13.016123 4.38457068zM10.4723092 4.73242912C10.4723092 4.04031028 10.9997818 3.64380635 11.9724038 3.58393498L13.016123 3.52032164 13.016123 3.22110869C13.016123 2.78329927 12.728136 2.5439577 12.2156312 2.5439577 11.7927897 2.5439577 11.4860928 2.76084751 11.4224795 3.09388203L10.6667473 3.09388203C10.689343 2.39427927 11.3476402 1.88551651 12.238083 1.88551651 13.1957371 1.88551651 13.8205007 2.38679534 13.8205007 3.16497928L13.8205007 5.85098757 13.0460587 5.85098757 13.0460587 5.20377227 13.0273489 5.20377227C12.8067171 5.62646992 12.3202622 5.89200522 11.7927897 5.89200522 11.0147496 5.89200522 10.4723092 5.42828992 10.4723092 4.73242912zM14.5324807 7.2949527L14.5324807 6.64788131C14.5848681 6.65522131 14.7119509 6.66270524 14.7793062 6.66270524 15.1496164 6.66270524 15.3591662 6.5056868 15.4863929 6.10155503L15.5612321 5.86221346 14.1433168 1.934162 15.0186478 1.934162 16.0063815 5.12144913 16.0250913 5.12144913 17.0126811 1.934162 17.8657043 1.934162 16.3954015 6.06053738C16.058769 7.00696564 15.673347 7.31754839 14.8578874 7.31754839 14.794274 7.31754839 14.5884662 7.31006447 14.5324807 7.2949527"/>
    </g>
  </g>
</svg>
