<?xml version="1.0" encoding="utf-8"?>
<!-- Generator: Adobe Illustrator 21.0.2, SVG Export Plug-In . SVG Version: 6.00 Build 0)  -->
<svg version="1.1" id="payment-card-discover-Layer_1" xmlns="http://www.w3.org/2000/svg" xmlns:xlink="http://www.w3.org/1999/xlink" x="0px" y="0px"
	 viewBox="0 0 48 48" style="enable-background:new 0 0 48 48;" xml:space="preserve">
<title>card/discover</title>
<desc>Created with Sketch.</desc>
<g id="payment-card-discover-Symbols">
	<g id="payment-card-discover-card_x2F_discover">
		<g id="payment-card-discover-Icon" transform="translate(6.000000, 12.000000)">
			<g id="payment-card-discover-Card">
				<g>
					<path id="payment-card-discover-path-2_2_" d="M2,0h32c1.1,0,2,0.9,2,2v18c0,1.1-0.9,2-2,2H2c-1.1,0-2-0.9-2-2V2C0,0.9,0.9,0,2,0z"/>
				</g>
				<g>
					<path id="payment-card-discover-path-2_1_" style="fill:none;" d="M2,0h32c1.1,0,2,0.9,2,2v18c0,1.1-0.9,2-2,2H2c-1.1,0-2-0.9-2-2V2C0,0.9,0.9,0,2,0z
						"/>
				</g>
			</g>
			<path id="payment-card-discover-Shape" style="fill:#FFFFFF;" d="M25.3,8.6H23V4.1h2.3v0.8h-1.5v1h1.4v0.8h-1.4v1.2h1.5V8.6L25.3,8.6z M26.7,8.6h-0.8
				V4.1h1.2c0.9,0,1.5,0.5,1.5,1.3c0,0.7-0.3,1.1-0.9,1.3L29,8.6h-1l-1.1-1.8h-0.1v1.8H26.7z M26.7,6.2h0.2c0.5,0,0.8-0.2,0.8-0.7
				c0-0.4-0.3-0.7-0.8-0.7h-0.2V6.2L26.7,6.2L26.7,6.2z M20.9,8.7l1.8-4.6h-0.9l-1.1,3l-1.1-3h-0.9l1.8,4.6H20.9L20.9,8.7z
				 M28.9,4.6L28.9,4.6l-0.1-0.4h0.1c0.1,0,0.1,0,0.1,0.1s0,0.1-0.1,0.1L29,4.6l0,0l-0.1-0.2V4.6L28.9,4.6L28.9,4.6z M28.9,4.4
				L28.9,4.4C28.9,4.4,28.9,4.3,28.9,4.4C29,4.3,29,4.3,28.9,4.4L28.9,4.4L28.9,4.4L28.9,4.4z M6.8,8.6h0.8V4.1H6.8V8.6L6.8,8.6z
				 M6.4,6.4c0,0.7-0.3,1.3-0.8,1.7C5.3,8.4,4.8,8.6,4.2,8.6H3V4.1h1.2C5.5,4.1,6.4,5,6.4,6.4L6.4,6.4z M5.6,6.4
				c0-0.4-0.2-0.8-0.4-1.1C4.9,5,4.6,4.9,4,4.9H3.8v3H4c0.5,0,0.9-0.1,1.1-0.4C5.4,7.2,5.6,6.8,5.6,6.4L5.6,6.4z M16.7,8.7
				c1,0,1.8-0.7,2.1-1.7V6.9V6.8c0-0.2,0-0.3,0-0.5c0-1.3-1-2.4-2.2-2.4c-0.9,0-1.7,0.6-2,1.4c-0.1,0.3-0.2,0.6-0.2,0.9
				C14.5,7.7,15.5,8.7,16.7,8.7L16.7,8.7z M13.2,8.7c0.3,0,0.6-0.1,1-0.3v-1c-0.3,0.3-0.6,0.5-1,0.5c-0.8,0-1.4-0.6-1.4-1.5
				s0.6-1.5,1.4-1.5c0.4,0,0.7,0.1,1,0.5v-1c-0.4-0.2-0.6-0.3-1-0.3C12,4,11,5.1,11,6.4S12,8.7,13.2,8.7L13.2,8.7z M28.6,4.4
				c0-0.2,0.1-0.3,0.3-0.3c0.2,0,0.3,0.2,0.3,0.3c0,0.2-0.1,0.3-0.3,0.3C28.7,4.7,28.6,4.6,28.6,4.4L28.6,4.4z M28.7,4.4
				c0,0.2,0.1,0.3,0.3,0.3c0.1,0,0.3-0.1,0.3-0.3c0-0.2-0.1-0.3-0.3-0.3C28.8,4.1,28.7,4.2,28.7,4.4L28.7,4.4z M33,19v-8.5
				c0,0-7.8,5.9-22.1,8.5H33L33,19z M9.6,5.8C9.1,5.6,9,5.5,9,5.3C9,5,9.2,4.8,9.6,4.8c0.2,0,0.4,0.1,0.7,0.4l0.4-0.6
				c-0.3-0.3-0.8-0.5-1.2-0.5c-0.7,0-1.3,0.5-1.3,1.3c0,0.6,0.3,0.9,1,1.2c0.3,0.1,0.5,0.2,0.6,0.3C10,7,10,7.2,10,7.4
				C10,7.8,9.7,8,9.4,8C9,8,8.7,7.8,8.5,7.4L7.9,7.8c0.4,0.6,0.8,0.9,1.4,0.9c0.8,0,1.4-0.6,1.4-1.5C10.8,6.5,10.5,6.2,9.6,5.8
				L9.6,5.8z"/>
		</g>
	</g>
</g>
</svg>
