<svg id="payment-card-visa-Layer_1" xmlns="http://www.w3.org/2000/svg" viewBox="0 0 48 48"><title>card/visa</title><g id="payment-card-visa-Symbols"><g id="payment-card-visa-card_x2F_visa"><g id="payment-card-visa-Icon" transform="translate(6 13)"><g id="payment-card-visa-Card"><path id="payment-card-visa-path-2_2_" d="M2 0h32c1.1 0 2 .9 2 2v18c0 1.1-.9 2-2 2H2c-1.1 0-2-.9-2-2V2C0 .9.9 0 2 0z"/><path id="payment-card-visa-path-2_1_" d="M2 0h32c1.1 0 2 .9 2 2v18c0 1.1-.9 2-2 2H2c-1.1 0-2-.9-2-2V2C0 .9.9 0 2 0z" fill="none"/></g><path id="payment-card-visa-Visa-Logo" d="M29.3 7.1h-1.6c-.5 0-.9.1-1.1.6l-3.1 7h2.2s.4-.9.4-1.2h2.7c.1.3.3 1.2.3 1.2h2l-1.8-7.6zm-2.6 5c.2-.4.8-2.1.8-2.1s.2-.4.3-.7l.1.7s.4 1.8.5 2.2l-1.7-.1zm-3.1.2c0 1.6-1.5 2.6-3.7 2.6-.9 0-1.9-.2-2.4-.4l.3-1.7.3.1c.7.3 1.1.4 2 .4.6 0 1.3-.2 1.3-.7 0-.3-.3-.6-1.1-1s-1.9-1-1.9-2.1C18.4 8 19.9 7 22 7c.8 0 1.5.2 1.9.3L23.6 9l-.2-.1c-.4-.2-.9-.3-1.6-.3-.8 0-1.2.3-1.2.7s.4.6 1.2 1c1.2.5 1.8 1.1 1.8 2zM5 7.2V7h3.3c.4 0 .8.2.9.6l.7 3.4C9.2 9.3 7.5 7.8 5 7.2zm9.6-.1l-3.3 7.7H9.1l-2-6.4c1.4.9 2.5 2.2 2.9 3.2l.2.8 2.1-5.2 2.3-.1zm.8 0h2.1l-1.3 7.7h-2.1l1.3-7.7z" fill="#fff"/></g></g></g></svg>