<svg xmlns="http://www.w3.org/2000/svg" id="payment-card-discover-Layer_1" viewBox="0 0 48 48" aria-labaria-lelledby="title-14">
    <title>
        discover
    </title>
    <g id="payment-card-discover-Symbols">
        <g id="payment-card-discover-card_x2F_discover">
            <g id="payment-card-discover-Icon" transform="translate(6 12)">
                <g id="payment-card-discover-Card">
                    <path id="payment-card-discover-path-2_2_" d="M2 0h32c1.1 0 2 .9 2 2v18c0 1.1-.9 2-2 2H2c-1.1 0-2-.9-2-2V2C0 .9.9 0 2 0z"/>
                    <path id="payment-card-discover-path-2_1_" fill="none" d="M2 0h32c1.1 0 2 .9 2 2v18c0 1.1-.9 2-2 2H2c-1.1 0-2-.9-2-2V2C0 .9.9 0 2 0z"/>
                </g>
                <path id="payment-card-discover-Shape" fill="#fff" d="M25.3 8.6H23V4.1h2.3v.8h-1.5v1h1.4v.8h-1.4v1.2h1.5v.7zm1.4 0h-.8V4.1h1.2c.9 0 1.5.5 1.5 1.3 0 .7-.3 1.1-.9 1.3L29 8.6h-1l-1.1-1.8h-.1v1.8h-.1zm0-2.4h.2c.5 0 .8-.2.8-.7 0-.4-.3-.7-.8-.7h-.2v1.4zm-5.8 2.5l1.8-4.6h-.9l-1.1 3-1.1-3h-.9l1.8 4.6h.4zm8-4.1l-.1-.4h.1c.1 0 .1 0 .1.1s0 .1-.1.1l.1.2-.1-.2v.2zm0-.2s0-.1 0 0c.1-.1.1-.1 0 0zM6.8 8.6h.8V4.1h-.8v4.5zm-.4-2.2c0 .7-.3 1.3-.8 1.7-.3.3-.8.5-1.4.5H3V4.1h1.2c1.3 0 2.2.9 2.2 2.3zm-.8 0c0-.4-.2-.8-.4-1.1-.3-.3-.6-.4-1.2-.4h-.2v3H4c.5 0 .9-.1 1.1-.4.3-.3.5-.7.5-1.1zm11.1 2.3c1 0 1.8-.7 2.1-1.7v-.2-.5c0-1.3-1-2.4-2.2-2.4-.9 0-1.7.6-2 1.4-.1.3-.2.6-.2.9.1 1.5 1.1 2.5 2.3 2.5zm-3.5 0c.3 0 .6-.1 1-.3v-1c-.3.3-.6.5-1 .5-.8 0-1.4-.6-1.4-1.5s.6-1.5 1.4-1.5c.4 0 .7.1 1 .5v-1c-.4-.2-.6-.3-1-.3C12 4 11 5.1 11 6.4s1 2.3 2.2 2.3zm15.4-4.3c0-.2.1-.3.3-.3.2 0 .3.2.3.3 0 .2-.1.3-.3.3-.2 0-.3-.1-.3-.3zm.1 0c0 .2.1.3.3.3.1 0 .3-.1.3-.3 0-.2-.1-.3-.3-.3-.2 0-.3.1-.3.3zM33 19v-8.5s-7.8 5.9-22.1 8.5H33zM9.6 5.8c-.5-.2-.6-.3-.6-.5 0-.3.2-.5.6-.5.2 0 .4.1.7.4l.4-.6c-.3-.3-.8-.5-1.2-.5-.7 0-1.3.5-1.3 1.3 0 .6.3.9 1 1.2.3.1.5.2.6.3.2.1.2.3.2.5 0 .4-.3.6-.6.6-.4 0-.7-.2-.9-.6l-.6.4c.4.6.8.9 1.4.9.8 0 1.4-.6 1.4-1.5.1-.7-.2-1-1.1-1.4z"/>
            </g>
        </g>
    </g>
</svg>
