<?xml version="1.0" encoding="utf-8"?>
<!-- Generator: Adobe Illustrator 20.0.0, SVG Export Plug-In . SVG Version: 6.00 Build 0)  -->
<svg version="1.1" id="Layer_1" xmlns="http://www.w3.org/2000/svg" xmlns:xlink="http://www.w3.org/1999/xlink" x="0px" y="0px"
	 viewBox="0 0 48 48" style="enable-background:new 0 0 48 48;" xml:space="preserve">
<style type="text/css">
	.st0{filter:url(#filter-3);}
	.st1{fill:url(#path-2_2_);}
	.st2{fill:#FFFFFF;}
</style>
<filter  filterUnits="objectBoundingBox" height="131.8%" id="filter-3" width="119.4%" x="-9.7%" y="-11.4%">
	<feOffset  dx="0" dy="1" in="SourceAlpha" result="shadowOffsetOuter1"></feOffset>
	<feGaussianBlur  in="shadowOffsetOuter1" result="shadowBlurOuter1" stdDeviation="1"></feGaussianBlur>
	
		<feColorMatrix  in="shadowBlurOuter1" type="matrix" values="0 0 0 0 0.325490196   0 0 0 0 0.376470588   0 0 0 0 0.419607843  0 0 0 1 0">
		</feColorMatrix>
</filter>
<title>card/american-express</title>
<desc>Created with Sketch.</desc>
<g id="Symbols">
	<g id="card_x2F_american-express">
		<g id="Icon" transform="translate(6.000000, 13.000000)">
			<g id="Card">
				<g class="st0">
					<path d="M2,0h32c1.1,0,2,0.9,2,2v18c0,1.1-0.9,2-2,2H2c-1.1,0-2-0.9-2-2V2C0,0.9,0.9,0,2,0z"/>
				</g>
				<g>
					
						<linearGradient id="path-2_2_" gradientUnits="userSpaceOnUse" x1="-156.4944" y1="185.0546" x2="-155.9944" y2="184.0546" gradientTransform="matrix(36 0 0 -22 5641 4069)">
						<stop  offset="0" style="stop-color:#62B1DE"/>
						<stop  offset="1" style="stop-color:#3379BA"/>
					</linearGradient>
					<path id="path-2_1_" class="st1" d="M2,0h32c1.1,0,2,0.9,2,2v18c0,1.1-0.9,2-2,2H2c-1.1,0-2-0.9-2-2V2C0,0.9,0.9,0,2,0z"/>
				</g>
			</g>
			<path id="Shape" class="st2" d="M14,13.8l1.5-1.6v3.3L14,13.8L14,13.8z M9.3,12.6v0.7h2.1v0.8H9.3V15h2.4l1.1-1.2l-1.1-1.2
				L9.3,12.6L9.3,12.6L9.3,12.6z M35.4,13.2c0.3,0.3,0.5,0.8,0.5,1.3c0,1.2-0.8,2-2.2,2h-1.9c-0.3,0-0.5-0.2-0.6-0.4
				c-0.4,0.3-0.8,0.4-1.4,0.4h-1.9c-0.1,0-0.2,0-0.3-0.1c-0.1,0-0.2,0.1-0.3,0.1h-3.2c-0.1,0-0.2,0-0.3-0.1c-0.1,0-0.2,0.1-0.3,0.1
				h-1c-0.4,0-0.7-0.3-0.7-0.7v-0.6c0-0.1,0-0.1,0-0.2c0,0-0.1,0-0.2,0h-0.4v0.8c0,0.4-0.3,0.7-0.7,0.7h-1c-0.4,0-0.7-0.3-0.7-0.7
				v-1c-0.3,0.2-0.8,0.3-1.5,0.3h-0.5v0.7c0,0.4-0.3,0.7-0.7,0.7h-1.9c-0.2,0-0.4-0.1-0.5-0.2l-0.7-0.8l-0.7,0.8
				c-0.1,0.1-0.3,0.2-0.5,0.2H8.3c-0.4,0-0.7-0.3-0.7-0.7v-4.1c0-0.4,0.3-0.7,0.7-0.7h3.9c0.2,0,0.4,0.1,0.5,0.2l0.7,0.8l0.7-0.8
				c0.1-0.1,0.3-0.2,0.5-0.2h3.1c0.7,0,1.1,0.2,1.5,0.4c0.1-0.2,0.3-0.4,0.6-0.4H22c0.5,0,1,0,1.5,0.3c0,0,0.1,0.1,0.1,0.1
				c0.1-0.2,0.3-0.4,0.6-0.4h3.2c0.2,0,0.5,0.1,0.6,0.4c0.3-0.2,0.7-0.4,1.3-0.4h1.9c0.3,0,0.5,0.2,0.6,0.5c0.3-0.3,0.8-0.5,1.4-0.5
				h1.9c0.4,0,0.7,0.3,0.7,0.7v0.9C35.7,12.9,35.6,13.1,35.4,13.2C35.4,13.2,35.4,13.2,35.4,13.2L35.4,13.2z M19.3,13.1
				c0-1.1-0.9-1.3-1.6-1.3h-3.1l-1.2,1.3l-1.2-1.3H8.3v4.1h3.8l1.2-1.4l1.2,1.4h1.9v-1.4h1.2C18.5,14.5,19.3,14.2,19.3,13.1
				L19.3,13.1z M22.9,14c0.3-0.1,0.7-0.4,0.7-1.1c0-0.5-0.2-0.7-0.5-0.9c-0.3-0.2-0.7-0.2-1.2-0.2h-2.2v4.1h1v-1.5h1
				c0.4,0,0.6,0,0.7,0.2c0.2,0.2,0.2,0.6,0.2,0.8v0.5h1V15c0-0.4,0-0.5-0.2-0.7C23.3,14.2,23.2,14,22.9,14L22.9,14z M27.4,11.8h-3.2
				v4.1h3.2V15l-2.3,0v-0.8h2.2v-0.8h-2.2v-0.7h2.3V11.8L27.4,11.8z M31.3,14.6c0-0.4-0.1-0.7-0.3-0.9c-0.2-0.2-0.6-0.3-1.1-0.3
				l-0.5,0c-0.2,0-0.3,0-0.4,0c-0.1,0-0.2-0.2-0.2-0.3c0-0.1,0-0.2,0.1-0.3c0.1-0.1,0.2-0.1,0.4-0.1h1.8v-0.9h-1.9
				c-1,0-1.4,0.6-1.4,1.2c0,1.3,1.1,1.2,2,1.3c0.2,0,0.3,0,0.3,0.1c0.1,0.1,0.1,0.2,0.1,0.3c0,0.1,0,0.2-0.1,0.3
				C30.1,14.9,30,15,29.8,15h-1.9v0.9h1.9C30.8,15.9,31.3,15.4,31.3,14.6L31.3,14.6z M35.3,14.6c0-0.4-0.1-0.7-0.3-0.9
				c-0.2-0.2-0.6-0.3-1.1-0.3l-0.5,0c-0.2,0-0.3,0-0.4,0c-0.1,0-0.2-0.2-0.2-0.3c0-0.1,0-0.2,0.1-0.3c0.1-0.1,0.2-0.1,0.4-0.1h1.8
				v-0.9h-1.9c-1,0-1.4,0.6-1.4,1.2c0,1.3,1.1,1.2,2,1.3c0.2,0,0.3,0,0.3,0.1c0.1,0.1,0.1,0.2,0.1,0.3c0,0.1,0,0.2-0.1,0.3
				c-0.1,0.1-0.2,0.1-0.4,0.1h-1.9v0.9h1.9C34.7,15.9,35.3,15.4,35.3,14.6L35.3,14.6z M17.7,12.6h-1.3v1h1.2c0.4,0,0.6-0.2,0.6-0.5
				C18.3,12.8,18,12.6,17.7,12.6L17.7,12.6z M18.2,6.4c0.1-0.1,0.2-0.2,0.2-0.4c0-0.2-0.1-0.3-0.2-0.4c-0.1-0.1-0.3-0.1-0.5-0.1
				h-1.2v0.9h1.2C18,6.5,18.1,6.5,18.2,6.4L18.2,6.4z M22.4,12.7c-0.1-0.1-0.3-0.1-0.5-0.1h-1.2v0.9h1.2c0.2,0,0.3,0,0.5-0.1
				c0.1-0.1,0.2-0.2,0.2-0.4C22.6,12.9,22.5,12.8,22.4,12.7L22.4,12.7z M25.9,5.4l-0.7,1.6h1.3L25.9,5.4L25.9,5.4z M2.4,7.1h1.3
				L3.1,5.4L2.4,7.1L2.4,7.1z M7.8,9.5c-0.3,0-0.5-0.2-0.6-0.4L7.1,8.8v0c0,0.4-0.3,0.7-0.7,0.7h-2c-0.3,0-0.5-0.2-0.6-0.4L3.6,8.6
				H2.5L2.3,9.1C2.2,9.3,2,9.5,1.7,9.5h-1c-0.2,0-0.4-0.1-0.6-0.3C0,9,0,8.8,0.1,8.6l1.7-4.1c0.1-0.2,0.3-0.4,0.6-0.4h1.4
				c0.3,0,0.5,0.2,0.6,0.4l0.4,0.9V4.7c0-0.4,0.3-0.7,0.7-0.7H7c0.3,0,0.5,0.2,0.6,0.4l0.6,1.4l0.6-1.4c0.1-0.2,0.3-0.4,0.6-0.4H11
				c0.1,0,0.3,0.1,0.4,0.1c0.1-0.1,0.2-0.1,0.4-0.1H15c0.1,0,0.2,0,0.3,0.1c0.1-0.1,0.2-0.1,0.3-0.1h2.2c0.6,0,1,0,1.5,0.3
				c0,0,0.1,0.1,0.1,0.1c0.1-0.2,0.3-0.4,0.6-0.4h1c0.3,0,0.6,0.3,0.6,0.6c0.4-0.4,1-0.6,1.8-0.6h0.9c0.1,0,0.3,0,0.4,0.1
				c0.1-0.1,0.3-0.1,0.4-0.1h1.4c0.3,0,0.5,0.2,0.6,0.4l0.4,0.8V4.7c0-0.4,0.3-0.7,0.7-0.7h1.5c0.2,0,0.4,0.1,0.6,0.3l0.5,0.8V4.7
				c0-0.4,0.3-0.7,0.7-0.7h1c0.4,0,0.7,0.3,0.7,0.7v4.1c0,0.4-0.3,0.7-0.7,0.7h-1.4c-0.2,0-0.4-0.1-0.6-0.3l-0.6-1v0.6
				c0,0.4-0.3,0.7-0.7,0.7h-2c-0.3,0-0.5-0.2-0.6-0.4l-0.2-0.5h-1.1l-0.2,0.5c-0.1,0.3-0.3,0.4-0.6,0.4h-1.1c-0.4,0-1.2-0.1-1.7-0.5
				c-0.1,0.3-0.3,0.5-0.6,0.5h-1c-0.1,0-0.2,0-0.3-0.1c-0.1,0-0.2,0.1-0.3,0.1h-1c-0.4,0-0.7-0.3-0.7-0.7l0-0.5l0-0.1
				c0-0.1,0-0.1,0-0.2c0,0-0.1,0-0.2,0h-0.4v0.8c0,0.4-0.3,0.7-0.7,0.7h-1c-0.1,0-0.2,0-0.3-0.1c-0.1,0.1-0.2,0.1-0.3,0.1h-3.2
				c-0.1,0-0.3-0.1-0.4-0.1c-0.1,0.1-0.2,0.1-0.4,0.1h-1c-0.4,0-0.7-0.3-0.7-0.7v0L9.3,9.1C9.2,9.3,8.9,9.5,8.7,9.5L7.8,9.5L7.8,9.5
				L7.8,9.5z M21.5,6.8c0,0.7,0.2,1.2,0.5,1.6c0.3,0.3,0.9,0.5,1.4,0.5h1.1l0.4-0.9h2l0.4,0.9h2V5.7l1.8,3.1h1.4V4.7h-1v2.8
				l-1.7-2.8h-1.5v3.9l-1.6-3.9h-1.4l-1.4,3.2h-0.4c-0.3,0-0.5,0-0.7-0.2c-0.2-0.2-0.3-0.5-0.3-1c0-0.4,0.1-0.8,0.3-0.9
				c0.2-0.2,0.4-0.2,0.7-0.2h0.9V4.7h-0.9c-0.7,0-1.2,0.2-1.5,0.5C21.6,5.6,21.5,6.2,21.5,6.8L21.5,6.8z M23.5,6.3
				c-0.2,0-0.2,0-0.3,0.1c0,0-0.1,0.2-0.1,0.4c0,0.3,0,0.4,0.1,0.5c0,0,0.1,0,0.2,0l0.4-1L23.5,6.3L23.5,6.3L23.5,6.3z M20.1,8.8h1
				V4.7h-1V8.8L20.1,8.8z M15.6,8.8h1V7.3h1c0.3,0,0.6,0,0.7,0.2c0.2,0.2,0.2,0.6,0.2,0.8l0,0.5h1V8c0-0.4,0-0.5-0.2-0.7
				C19.2,7.1,19,7,18.8,6.9c0.2-0.1,0.7-0.4,0.7-1.1c0-0.5-0.2-0.7-0.5-0.9c-0.3-0.2-0.7-0.2-1.2-0.2h-2.2L15.6,8.8L15.6,8.8z
				 M11.8,8.8H15V8h-2.3V7.2h2.2V6.3h-2.2V5.6H15V4.7h-3.2V8.8L11.8,8.8z M7.8,8.8h0.8l1.4-3.2l0,3.2h1V4.7H9.4L8.3,7.5L7,4.7H5.5
				v3.9L3.8,4.7H2.4L0.7,8.8h1l0.4-0.9h2l0.4,0.9h2V5.6L7.8,8.8L7.8,8.8z"/>
		</g>
	</g>
</g>
</svg>
