<?xml version="1.0" encoding="UTF-8"?>
<svg width="48px" height="48px" viewBox="0 0 48 48" version="1.1" xmlns="http://www.w3.org/2000/svg" xmlns:xlink="http://www.w3.org/1999/xlink">
    <!-- Generator: Sketch 46.2 (44496) - http://www.bohemiancoding.com/sketch -->
    <title>card/jcpcard</title>
    <desc>Created with Sketch.</desc>
    <defs>
        <linearGradient x1="0%" y1="0%" x2="50%" y2="100%" id="linearGradient-1">
            <stop stop-color="#666666" offset="0%"></stop>
            <stop stop-color="#000000" offset="100%"></stop>
        </linearGradient>
        <rect id="path-2" x="6" y="13" width="36" height="22" rx="2"></rect>
        <filter x="-9.7%" y="-11.4%" width="119.4%" height="131.8%" filterUnits="objectBoundingBox" id="filter-3">
            <feOffset dx="0" dy="1" in="SourceAlpha" result="shadowOffsetOuter1"></feOffset>
            <feGaussianBlur stdDeviation="1" in="shadowOffsetOuter1" result="shadowBlurOuter1"></feGaussianBlur>
            <feColorMatrix values="0 0 0 0 0.325490196   0 0 0 0 0.376470588   0 0 0 0 0.419607843  0 0 0 1 0" type="matrix" in="shadowBlurOuter1"></feColorMatrix>
        </filter>
        <path d="M2.89300373,3.7386037 C2.89300373,4.17146007 2.83001338,4.50773323 2.7040308,4.74743326 C2.47039038,5.18494401 2.02602212,5.4036961 1.37091269,5.4036961 C0.992964949,5.4036961 0.669996266,5.29955614 0.401996955,5.0912731 C0.133997645,4.88299006 -8.8817842e-15,4.51239144 -8.8817842e-15,3.97946612 L-8.8817842e-15,3.61293634 L0.642507954,3.61293634 L0.642507954,3.97946612 C0.642507954,4.2587283 0.703780382,4.46875357 0.826327075,4.60954825 C0.948873768,4.75034294 1.13956272,4.82073922 1.39839967,4.82073922 C1.76260386,4.82073922 2.00082189,4.69390955 2.11306092,4.44024641 C2.18177869,4.28432502 2.21613706,3.98994056 2.21613706,3.55708419 L2.21613706,0.13963039 L2.89300373,0.13963039 L2.89300373,3.7386037 Z M7.19677627,0.513141684 C7.5495275,0.85523785 7.74537021,1.24387188 7.78431028,1.67905544 L7.11775123,1.67905544 C7.04216168,1.3485952 6.89155749,1.08679084 6.66593414,0.893634497 C6.44031079,0.700478158 6.12364114,0.603901437 5.71591569,0.603901437 C5.21885714,0.603901437 4.81743685,0.781346617 4.51164276,1.1362423 C4.20584868,1.49113798 4.05295393,2.03510927 4.05295393,2.76817248 C4.05295393,3.36858616 4.19096005,3.85554228 4.46697643,4.22905544 C4.74299282,4.6025686 5.15472062,4.78932238 5.70217221,4.78932238 C6.20610253,4.78932238 6.589771,4.59267822 6.85318913,4.19938398 C6.99291527,3.99226454 7.09713566,3.719988 7.16585343,3.3825462 L7.83241248,3.3825462 C7.77285708,3.92245308 7.57586909,4.37508373 7.2414426,4.74045175 C6.84058893,5.18028967 6.30001723,5.40020534 5.61971129,5.40020534 C5.03331964,5.40020534 4.54084966,5.21985122 4.14228658,4.85913758 C3.61774093,4.38206469 3.35547203,3.64552175 3.35547203,2.64948665 C3.35547203,1.89315159 3.55246002,1.27296614 3.94644191,0.788911704 C4.3724921,0.262967938 4.96002024,0 5.70904395,0 C6.34811923,0 6.84402504,0.171045517 7.19677627,0.513141684 L7.19677627,0.513141684 Z M8.3773417,0.13963039 L10.6484527,0.13963039 C11.0974088,0.13963039 11.459317,0.268205422 11.7341881,0.525359343 C12.0090592,0.782513264 12.1464926,1.14380329 12.1464926,1.60924025 C12.1464926,2.00951603 12.0239478,2.35800673 11.7788544,2.65472279 C11.533761,2.95143886 11.1569642,3.09979466 10.6484527,3.09979466 L9.06108011,3.09979466 L9.06108011,5.26755647 L8.3773417,5.26755647 L8.3773417,0.13963039 Z M11.0435779,0.84476386 C10.8923988,0.772621131 10.6851033,0.736550308 10.4216852,0.736550308 L9.06108011,0.736550308 L9.06108011,2.51334702 L10.4216852,2.51334702 C10.7286246,2.51334702 10.9777228,2.44702325 11.1689872,2.31437372 C11.3602517,2.18172418 11.4558825,1.94784562 11.4558825,1.61273101 C11.4558825,1.23572707 11.318449,0.979740579 11.0435779,0.84476386 L11.0435779,0.84476386 Z M14.8628926,1.63193018 C15.107986,1.75643457 15.2946665,1.9175897 15.4229396,2.11540041 C15.5466316,2.30390238 15.6290917,2.52381805 15.6703224,2.775154 C15.7069718,2.94736568 15.7252963,3.22196937 15.7252963,3.59897331 L13.0281372,3.59897331 C13.0395902,3.97830443 13.1277767,4.28257928 13.2926993,4.51180698 C13.457622,4.74103468 13.7130192,4.85564682 14.0588987,4.85564682 C14.3818722,4.85564682 14.63956,4.74743435 14.8319697,4.53100616 C14.9419182,4.40533818 15.0197972,4.25989131 15.065609,4.09466119 L15.6737582,4.09466119 C15.6577241,4.23196509 15.6044686,4.3849752 15.5139902,4.5536961 C15.4235118,4.722417 15.3221546,4.86030063 15.2099156,4.96735113 C15.022087,5.15352591 14.7895954,5.27919201 14.5124337,5.34435318 C14.3635452,5.38158814 14.1951892,5.40020534 14.0073606,5.40020534 C13.5492421,5.40020534 13.1609925,5.23090518 12.8426002,4.89229979 C12.5242079,4.55369441 12.3650141,4.07953761 12.3650141,3.4698152 C12.3650141,2.86940152 12.5253531,2.38186361 12.8460361,2.00718686 C13.166719,1.6325101 13.5858911,1.44517454 14.103565,1.44517454 C14.3646925,1.44517454 14.6177992,1.5074258 14.8628926,1.63193018 L14.8628926,1.63193018 Z M15.0896601,3.09979466 C15.0644636,2.82751404 15.0060544,2.60992552 14.9144307,2.44702259 C14.7449268,2.14448856 14.4620429,1.99322382 14.0657704,1.99322382 C13.781737,1.99322382 13.5435189,2.09736378 13.3511092,2.30564682 C13.1586994,2.51392986 13.0567696,2.77864316 13.0453166,3.09979466 L15.0896601,3.09979466 Z M16.1327907,1.52895277 L16.7203247,1.52895277 L16.7203247,2.05954825 C16.8944097,1.84079288 17.0787996,1.68371026 17.2735,1.58829569 C17.4682003,1.49288111 17.6846581,1.44517454 17.9228797,1.44517454 C18.4451347,1.44517454 18.7978807,1.63018295 18.9811281,2.00020534 C19.0819141,2.20267042 19.1323064,2.49240058 19.1323064,2.86940452 L19.1323064,5.26755647 L18.5035419,5.26755647 L18.5035419,2.91129363 C18.5035419,2.68322952 18.4703289,2.49938468 18.4039017,2.35975359 C18.2939532,2.12703511 18.0946747,2.01067762 17.80606,2.01067762 C17.6594621,2.01067762 17.5392078,2.02580409 17.4452935,2.05605749 C17.2757897,2.10725556 17.1269034,2.20965016 16.9986303,2.36324435 C16.8955536,2.48658515 16.8285548,2.6139966 16.7976318,2.74548255 C16.7667088,2.87696849 16.7512475,3.06488584 16.7512475,3.30924025 L16.7512475,5.26755647 L16.1327907,5.26755647 L16.1327907,1.52895277 Z M19.694415,1.52895277 L20.281949,1.52895277 L20.281949,2.05954825 C20.456034,1.84079288 20.6404239,1.68371026 20.8351243,1.58829569 C21.0298246,1.49288111 21.2462824,1.44517454 21.484504,1.44517454 C22.0067591,1.44517454 22.359505,1.63018295 22.5427524,2.00020534 C22.6435384,2.20267042 22.6939307,2.49240058 22.6939307,2.86940452 L22.6939307,5.26755647 L22.0651663,5.26755647 L22.0651663,2.91129363 C22.0651663,2.68322952 22.0319532,2.49938468 21.965526,2.35975359 C21.8555776,2.12703511 21.656299,2.01067762 21.3676844,2.01067762 C21.2210864,2.01067762 21.1008322,2.02580409 21.0069179,2.05605749 C20.837414,2.10725556 20.6885278,2.20965016 20.5602546,2.36324435 C20.4571779,2.48658515 20.3901791,2.6139966 20.3592561,2.74548255 C20.3283331,2.87696849 20.3128718,3.06488584 20.3128718,3.30924025 L20.3128718,5.26755647 L19.694415,5.26755647 L19.694415,1.52895277 Z M25.5477655,1.63193018 C25.7928589,1.75643457 25.9795394,1.9175897 26.1078126,2.11540041 C26.2315046,2.30390238 26.3139646,2.52381805 26.3551953,2.775154 C26.3918448,2.94736568 26.4101693,3.22196937 26.4101693,3.59897331 L23.7130102,3.59897331 C23.7244632,3.97830443 23.8126496,4.28257928 23.9775723,4.51180698 C24.1424949,4.74103468 24.3978922,4.85564682 24.7437716,4.85564682 C25.0667451,4.85564682 25.3244329,4.74743435 25.5168427,4.53100616 C25.6267911,4.40533818 25.7046701,4.25989131 25.7504819,4.09466119 L26.3586312,4.09466119 C26.342597,4.23196509 26.2893416,4.3849752 26.1988632,4.5536961 C26.1083848,4.722417 26.0070276,4.86030063 25.8947885,4.96735113 C25.70696,5.15352591 25.4744683,5.27919201 25.1973066,5.34435318 C25.0484181,5.38158814 24.8800621,5.40020534 24.6922335,5.40020534 C24.2341151,5.40020534 23.8458655,5.23090518 23.5274731,4.89229979 C23.2090808,4.55369441 23.049887,4.07953761 23.049887,3.4698152 C23.049887,2.86940152 23.2102261,2.38186361 23.530909,2.00718686 C23.8515919,1.6325101 24.2707641,1.44517454 24.7884379,1.44517454 C25.0495655,1.44517454 25.3026721,1.5074258 25.5477655,1.63193018 L25.5477655,1.63193018 Z M25.774533,3.09979466 C25.7493365,2.82751404 25.6909273,2.60992552 25.5993036,2.44702259 C25.4297998,2.14448856 25.1469158,1.99322382 24.7506434,1.99322382 C24.4666099,1.99322382 24.2283919,2.09736378 24.0359821,2.30564682 C23.8435723,2.51392986 23.7416425,2.77864316 23.7301896,3.09979466 L25.774533,3.09979466 Z M29.1162616,1.52895277 L29.8,1.52895277 C29.7129575,1.76865281 29.5194053,2.31553303 29.2193377,3.16960986 C28.9948597,3.81191286 28.8070339,4.33552159 28.6558548,4.74045175 C28.2985224,5.69459752 28.046561,6.27638499 27.8999631,6.48583162 C27.7533652,6.69527825 27.5014038,6.8 27.1440714,6.8 C27.0570289,6.8 26.9900301,6.79650928 26.9430729,6.78952772 C26.8961158,6.78254617 26.8382792,6.76974684 26.7695614,6.75112936 L26.7695614,6.17864476 C26.8772193,6.20889817 26.9550982,6.22751537 27.0032007,6.23449692 C27.0513031,6.24147847 27.0936784,6.2449692 27.1303279,6.2449692 C27.2448575,6.2449692 27.3290355,6.22577021 27.3828645,6.18737166 C27.4366934,6.14897311 27.4819319,6.10184833 27.5185814,6.04599589 C27.5300343,6.02737841 27.5712644,5.93196527 27.6422728,5.75975359 C27.7132811,5.58754192 27.7648187,5.45954867 27.796887,5.37577002 L26.4362819,1.52895277 L27.1371997,1.52895277 L28.1232947,4.57289528 L29.1162616,1.52895277 Z" id="path-4"></path>
    </defs>
    <g id="Symbols" stroke="none" stroke-width="1" fill="none" fill-rule="evenodd">
        <g id="card/jcpcard">
            <g id="Card">
                <use fill="black" fill-opacity="1" filter="url(#filter-3)" xlink:href="#path-2"></use>
                <use fill="url(#linearGradient-1)" fill-rule="evenodd" xlink:href="#path-2"></use>
            </g>
            <g id="Logo" transform="translate(9.000000, 20.200000)">
                <mask id="mask-5" fill="white">
                    <use xlink:href="#path-4"></use>
                </mask>
                <use id="Mask" fill="#FFFFFF" xlink:href="#path-4"></use>
            </g>
        </g>
    </g>
</svg>