<svg id="payment-card-jcvv-Layer_1" xmlns="http://www.w3.org/2000/svg" viewBox="0 0 48 48"><circle id="payment-card-jcvv-path-4" cx="35" cy="24" r="8" fill="#fff"/><title>card/CVV</title><g id="payment-card-jcvv-Symbols"><g id="payment-card-jcvv-card_x2F_CVV"><g id="payment-card-jcvv-Icon" transform="translate(6 13)"><g id="payment-card-jcvv-Card"><path id="payment-card-jcvv-path-2_3_" d="M2 0h32c1.1 0 2 .9 2 2v18c0 1.1-.9 2-2 2H2c-1.1 0-2-.9-2-2V2C0 .9.9 0 2 0z"/><path id="payment-card-jcvv-path-2_1_" d="M2 0h32c1.1 0 2 .9 2 2v18c0 1.1-.9 2-2 2H2c-1.1 0-2-.9-2-2V2C0 .9.9 0 2 0z" fill="none"/></g><path id="payment-card-jcvv-Mag-Strip" fill="#9ba5ae" d="M0 3h36v5H0z"/><path id="payment-card-jcvv-Mag-Strip_1_" fill="#fff" d="M5 13h19v4H5z"/><g id="payment-card-jcvv-CVV" transform="translate(21 3)"><g id="payment-card-jcvv-Mask"><circle id="payment-card-jcvv-path-4_3_" cx="8" cy="8" r="8"/><circle id="payment-card-jcvv-path-4_2_" cx="8" cy="8" r="8" fill="#e3e6ea"/><circle id="payment-card-jcvv-path-4_1_" cx="8" cy="8" r="8"/><circle id="payment-card-jcvv-path-4_4_" cx="8" cy="8" r="8" fill="none" stroke="#fff" stroke-width="2"/></g><path id="payment-card-jcvv-Combined-Shape" d="M8 9c-.6 0-1-.4-1-1s.4-1 1-1 1 .4 1 1-.4 1-1 1zm3 0c-.6 0-1-.4-1-1s.4-1 1-1 1 .4 1 1-.4 1-1 1zM5 9c-.6 0-1-.4-1-1s.4-1 1-1 1 .4 1 1-.4 1-1 1z" fill="#1c2024"/></g></g></g></g></svg>