<?xml version="1.0" encoding="utf-8"?>
<!-- Generator: Adobe Illustrator 21.0.2, SVG Export Plug-In . SVG Version: 6.00 Build 0)  -->
<svg version="1.1" id="payment-card-visa-Layer_1" xmlns="http://www.w3.org/2000/svg" xmlns:xlink="http://www.w3.org/1999/xlink" x="0px" y="0px"
	 viewBox="0 0 48 48" style="enable-background:new 0 0 48 48;" xml:space="preserve">
<title>card/visa</title>
<desc>Created with Sketch.</desc>
<g id="payment-card-visa-Symbols">
	<g id="payment-card-visa-card_x2F_visa">
		<g id="payment-card-visa-Icon" transform="translate(6.000000, 13.000000)">
			<g id="payment-card-visa-Card">
				<g>
					<path id="payment-card-visa-path-2_2_" d="M2,0h32c1.1,0,2,0.9,2,2v18c0,1.1-0.9,2-2,2H2c-1.1,0-2-0.9-2-2V2C0,0.9,0.9,0,2,0z"/>
				</g>
				<g>
					<path id="payment-card-visa-path-2_1_" style="fill:none;" d="M2,0h32c1.1,0,2,0.9,2,2v18c0,1.1-0.9,2-2,2H2c-1.1,0-2-0.9-2-2V2C0,0.9,0.9,0,2,0z
						"/>
				</g>
			</g>
			<path id="payment-card-visa-Visa-Logo" style="fill:#FFFFFF;" d="M29.3,7.1h-1.6c-0.5,0-0.9,0.1-1.1,0.6l-3.1,7h2.2c0,0,0.4-0.9,0.4-1.2
				c0.2,0,2.4,0,2.7,0c0.1,0.3,0.3,1.2,0.3,1.2h2L29.3,7.1L29.3,7.1z M26.7,12.1c0.2-0.4,0.8-2.1,0.8-2.1s0.2-0.4,0.3-0.7l0.1,0.7
				c0,0,0.4,1.8,0.5,2.2L26.7,12.1L26.7,12.1z M23.6,12.3c0,1.6-1.5,2.6-3.7,2.6c-0.9,0-1.9-0.2-2.4-0.4l0.3-1.7l0.3,0.1
				c0.7,0.3,1.1,0.4,2,0.4c0.6,0,1.3-0.2,1.3-0.7c0-0.3-0.3-0.6-1.1-1c-0.8-0.4-1.9-1-1.9-2.1C18.4,8,19.9,7,22,7
				c0.8,0,1.5,0.2,1.9,0.3L23.6,9l-0.2-0.1c-0.4-0.2-0.9-0.3-1.6-0.3c-0.8,0-1.2,0.3-1.2,0.7s0.4,0.6,1.2,1
				C23,10.8,23.6,11.4,23.6,12.3L23.6,12.3z M5,7.2V7h3.3c0.4,0,0.8,0.2,0.9,0.6L9.9,11C9.2,9.3,7.5,7.8,5,7.2L5,7.2z M14.6,7.1
				l-3.3,7.7H9.1l-2-6.4c1.4,0.9,2.5,2.2,2.9,3.2l0.2,0.8l2.1-5.2L14.6,7.1L14.6,7.1L14.6,7.1z M15.4,7.1h2.1l-1.3,7.7h-2.1
				L15.4,7.1L15.4,7.1z"/>
		</g>
	</g>
</g>
</svg>
