<svg id="payment-card-jcp-Layer_1" xmlns="http://www.w3.org/2000/svg" viewBox="0 0 48 48" enable-background="new 0 0 48 48"><filter filterUnits="objectBoundingBox" height="131.8%" id="payment-card-jcp-filter-3" width="119.4%" x="-9.7%" y="-11.4%"><feOffset dy="1" in="SourceAlpha" result="shadowOffsetOuter1"/><feGaussianBlur in="shadowOffsetOuter1" result="shadowBlurOuter1" stdDeviation="1"/><feColorMatrix in="shadowBlurOuter1" values="0 0 0 0 0.325490196 0 0 0 0 0.376470588 0 0 0 0 0.419607843 0 0 0 1 0"/></filter><path id="payment-card-jcp-path-4" d="M11.9 23.9c0 .4-.1.8-.2 1-.2.4-.7.7-1.3.7-.4 0-.7-.1-1-.3-.3-.2-.4-.6-.4-1.1v-.4h.6v.4c0 .3.1.5.2.6.1.2.3.2.6.2.4 0 .6-.1.7-.4.1-.2.1-.5.1-.9v-3.4h.7v3.6zm4.3-3.2c.4.3.5.7.6 1.2h-.7c-.1-.3-.2-.6-.5-.8-.2-.2-.5-.3-1-.3s-.9.2-1.2.5c-.3.4-.5.9-.5 1.6 0 .6.1 1.1.4 1.5s.7.6 1.2.6.9-.2 1.2-.6c.1-.2.2-.5.3-.8h.7c-.1.5-.3 1-.6 1.4-.4.4-.9.7-1.6.7-.6 0-1.1-.2-1.5-.5-.5-.5-.8-1.2-.8-2.2 0-.8.2-1.4.6-1.9.4-.5 1-.8 1.8-.8.7-.1 1.2.1 1.6.4zm1.2-.4h2.3c.4 0 .8.1 1.1.4.3.3.4.6.4 1.1 0 .4-.1.7-.4 1-.2.3-.6.4-1.1.4h-1.6v2.2h-.7v-5.1zm2.6.7c-.2-.1-.4-.1-.6-.1H18v1.8h1.4c.3 0 .6-.1.7-.2.2-.1.3-.4.3-.7.1-.4-.1-.6-.4-.8zm3.9.8c.2.1.4.3.6.5.1.2.2.4.2.7 0 .2.1.4.1.8H22c0 .4.1.7.3.9.2.2.4.3.8.3.3 0 .6-.1.8-.3.1-.1.2-.3.2-.4h.6c0 .1-.1.3-.2.5s-.2.3-.3.4c-.2.2-.4.3-.7.4-.1 0-.3.1-.5.1-.5 0-.8-.2-1.2-.5s-.5-.8-.5-1.4c0-.6.2-1.1.5-1.5.3-.4.7-.6 1.3-.6.3-.1.5 0 .8.1zm.2 1.5c0-.3-.1-.5-.2-.7-.2-.3-.5-.5-.8-.5-.3 0-.5.1-.7.3s-.3.6-.4.9h2.1zm1-1.6h.6v.5c.2-.2.4-.4.6-.5.2-.1.4-.1.6-.1.5 0 .9.2 1.1.6.1.2.2.5.2.9v2.4h-.6v-2.4c0-.2 0-.4-.1-.6-.1-.2-.3-.3-.6-.3h-.4c-.2.1-.3.2-.4.3-.1.1-.2.3-.2.4v2.6h-.6v-3.8zm3.6 0h.6v.5c.2-.2.4-.4.6-.5.2-.1.4-.1.6-.1.5 0 .9.2 1.1.6.1.2.2.5.2.9v2.4h-.6v-2.4c0-.2 0-.4-.1-.6-.1-.2-.3-.3-.6-.3h-.4c-.2.1-.3.2-.4.3-.1.1-.2.3-.2.4v2.6h-.6v-3.8zm5.8.1c.2.1.4.3.6.5.1.2.2.4.2.7 0 .2.1.4.1.8h-2.7c0 .4.1.7.3.9.2.2.4.3.8.3.3 0 .6-.1.8-.3.1-.1.2-.3.2-.4h.6c0 .1-.1.3-.2.5s-.2.3-.3.4c-.2.2-.4.3-.7.4-.1 0-.3.1-.5.1-.5 0-.8-.2-1.2-.5s-.5-.9-.5-1.5.2-1.1.5-1.5c.3-.4.7-.6 1.3-.6.2 0 .5.1.7.2zm.3 1.5c0-.3-.1-.5-.2-.7-.2-.3-.5-.5-.8-.5-.3 0-.5.1-.7.3-.2.2-.3.5-.3.8h2zm3.3-1.6h.7c-.1.2-.3.8-.6 1.6-.2.6-.4 1.2-.6 1.6-.4 1-.6 1.5-.8 1.7-.1.2-.4.3-.8.3h-.2-.2v-.6c.1 0 .2 0 .2.1h.1c.1 0 .2 0 .3-.1.1 0 .1-.1.1-.1s.1-.1.1-.3c.1-.2.1-.3.2-.4l-1.4-3.8h.7l1 3 1.2-3z" fill="#fff"/><title>card/jcpcard</title><g id="payment-card-jcp-Symbols"><g id="payment-card-jcp-card_x2F_jcpcard"><g id="payment-card-jcp-Card"><g filter="url(#payment-card-jcp-filter-3)"><path id="payment-card-jcp-path-2_2_" d="M8 13h32c1.1 0 2 .9 2 2v18c0 1.1-.9 2-2 2H8c-1.1 0-2-.9-2-2V15c0-1.1.9-2 2-2z"/></g><linearGradient id="payment-card-jcp-path-2_2_" gradientUnits="userSpaceOnUse" x1="-48.411" y1="97.827" x2="-47.911" y2="96.827" gradientTransform="matrix(36 0 0 -22 1756 2163)"><stop offset="0" stop-color="#666"/><stop offset="1"/></linearGradient><path id="payment-card-jcp-path-2_1_" d="M8 13h32c1.1 0 2 .9 2 2v18c0 1.1-.9 2-2 2H8c-1.1 0-2-.9-2-2V15c0-1.1.9-2 2-2z" fill="url(#payment-card-jcp-path-2_2_)"/></g><g id="payment-card-jcp-Logo" transform="translate(9 20.2)"><g id="payment-card-jcp-Mask"><path id="payment-card-jcp-path-4_1_" d="M2.9 3.7c0 .4-.1.8-.2 1-.2.5-.7.7-1.3.7-.4 0-.7-.1-1-.3C.1 4.9 0 4.5 0 4v-.4h.6V4c0 .3.1.5.2.6s.3.2.6.2c.4 0 .6-.1.7-.4.1-.1.1-.4.1-.8V.1h.7v3.6zM7.2.5c.4.3.5.7.6 1.2h-.7c-.1-.4-.2-.6-.4-.8-.2-.2-.5-.3-1-.3s-.9.2-1.2.5c-.3.4-.4.9-.4 1.7 0 .6.1 1.1.4 1.5.3.4.7.6 1.2.6s.9-.2 1.2-.6l.3-.9h.7c-.1.5-.3 1-.6 1.4-.5.4-1 .6-1.7.6-.6 0-1.1-.2-1.5-.5-.5-.5-.7-1.3-.7-2.3 0-.8.2-1.4.6-1.9A2.456 2.456 0 0 1 7.2.5zM8.4.1h2.3c.4 0 .8.1 1.1.4s.4.6.4 1.1c0 .4-.1.7-.4 1s-.6.4-1.1.4H9.1v2.2h-.7V.1zm2.6.7c-.2-.1-.4-.1-.6-.1H9.1v1.8h1.4c.3 0 .6-.1.7-.2.2-.1.3-.4.3-.7 0-.4-.2-.6-.5-.8zm3.9.8c.2.1.4.3.6.5.1.2.2.4.2.7 0 .2.1.4.1.8H13c0 .4.1.7.3.9.2.2.4.3.8.3.3 0 .6-.1.8-.3.1-.1.2-.3.2-.4h.6c0 .1-.1.3-.2.5s-.2.3-.3.4c-.2.2-.4.3-.7.4-.1 0-.3.1-.5.1-.5 0-.8-.2-1.2-.5-.3-.3-.5-.8-.5-1.4 0-.6.2-1.1.5-1.5.3-.4.7-.6 1.3-.6.3-.1.5 0 .8.1zm.2 1.5c0-.3-.1-.5-.2-.7-.2-.3-.4-.4-.8-.4-.3 0-.5.1-.7.3-.2.2-.3.5-.3.8h2zm1-1.6h.6V2c.2-.2.4-.4.6-.5.2-.1.4-.1.6-.1.5 0 .9.2 1.1.6.1.2.2.5.2.9v2.4h-.6V2.9c0-.2 0-.4-.1-.6-.2-.2-.4-.3-.7-.3h-.4c-.2.1-.3.2-.4.3-.1.1-.2.3-.2.4v2.6h-.6V1.5zm3.6 0h.6V2c.2-.2.4-.4.6-.5.2-.1.4-.1.6-.1.5 0 .9.2 1.1.6.1.2.2.5.2.9v2.4h-.6V2.9c0-.2 0-.4-.1-.6-.2-.2-.4-.3-.7-.3H21c-.2.1-.3.2-.4.3-.1.1-.2.3-.2.4v2.6h-.6V1.5zm5.8.1c.2.1.4.3.6.5.1.2.2.4.2.7 0 .2.1.4.1.8h-2.7c0 .4.1.7.3.9s.4.3.8.3c.3 0 .6-.1.8-.3.1-.1.2-.3.2-.4h.6c0 .1-.1.3-.2.5-.1.1-.2.3-.3.4-.2.2-.4.3-.7.4-.1 0-.3.1-.5.1-.5 0-.8-.2-1.2-.5s-.5-.9-.5-1.5.2-1.1.5-1.5.7-.6 1.3-.6c.2 0 .5.1.7.2zm.3 1.5c0-.3-.1-.5-.2-.7-.2-.3-.5-.4-.8-.4-.3 0-.5.1-.7.3-.2.2-.3.5-.3.8h2zm3.3-1.6h.7c-.1.2-.3.8-.6 1.6-.2.6-.4 1.2-.6 1.6-.4 1-.6 1.5-.8 1.7-.1.2-.4.3-.8.3h-.2-.2v-.5c.1 0 .2 0 .2.1h.1c.1 0 .2 0 .3-.1.1 0 .1-.1.1-.1s.1-.1.1-.3.1-.3.2-.4l-1.4-3.8h.7l1 3 1.2-3.1z" fill="#fff"/></g></g></g></g></svg>