<svg xmlns="http://www.w3.org/2000/svg" xmlns:xlink="http://www.w3.org/1999/xlink" width="32" height="32" viewBox="0 0 32 32" aria-labaria-lelledby="title-12">
  <defs>
    <linearGradient id="jcpenney-gold-a" x1="4.258%" x2="41.417%" y1="5.578%" y2="95.005%">
      <stop offset="0%" stop-color="#E6A617"/>
      <stop offset="100%" stop-color="#AE7D10"/>
    </linearGradient>
    <path id="jcpenney-gold-b" d="M3.92956205,7.29405987 C3.92956205,7.58269637 3.88755895,7.80692943 3.80355147,7.96676577 C3.64775579,8.25850589 3.35144295,8.40437376 2.91460407,8.40437376 C2.66258164,8.40437376 2.44722025,8.33493134 2.26851344,8.19604442 C2.08980662,8.05715751 2.00045456,7.8100356 2.00045456,7.45467131 L2.00045456,7.21026259 L2.42889054,7.21026259 L2.42889054,7.45467131 C2.42889054,7.64088841 2.46974811,7.78093708 2.55146448,7.87482154 C2.63318084,7.96870599 2.7603357,8.01564751 2.93293288,8.01564751 C3.17579086,8.01564751 3.33463898,7.93107518 3.409482,7.76192799 C3.45530426,7.65795677 3.47821505,7.46165586 3.47821505,7.17301936 L3.47821505,4.89419902 L3.92956205,4.89419902 L3.92956205,7.29405987 Z M6.79939585,5.14326314 C7.03461678,5.37137909 7.16520827,5.63052733 7.19117421,5.92071564 L6.74670051,5.92071564 C6.69629603,5.70035874 6.59587041,5.52578283 6.44542066,5.39698267 C6.29497091,5.26818251 6.08380983,5.20378339 5.81193108,5.20378339 C5.4804834,5.20378339 5.21280905,5.32210707 5.00889999,5.55875796 C4.80499094,5.79540886 4.70303794,6.15813881 4.70303794,6.64695869 C4.70303794,7.04732545 4.79506293,7.37203664 4.97911567,7.62110201 C5.16316842,7.87016738 5.43771601,7.99469819 5.80276668,7.99469819 C6.13879658,7.99469819 6.3946337,7.86357229 6.57028569,7.60131654 C6.66345762,7.46320553 6.73295368,7.28164658 6.77877594,7.05663425 L7.22324963,7.05663425 C7.18353701,7.41665398 7.05218183,7.71847633 6.82918017,7.96211036 C6.56188365,8.25540229 6.20142061,8.40204606 5.74778024,8.40204606 C5.35676362,8.40204606 5.02837569,8.28178265 4.76260658,8.04125224 C4.41282999,7.72313136 4.23794433,7.23199113 4.23794433,6.56781682 C4.23794433,6.06347884 4.3692995,5.64992791 4.63201379,5.32715161 C4.9161118,4.97644274 5.30788625,4.80109093 5.80734888,4.80109093 C6.2334959,4.80109093 6.56417491,4.9151472 6.79939585,5.14326314 L6.79939585,5.14326314 Z M7.58661834,4.89419902 L9.10103646,4.89419902 C9.40040856,4.89419902 9.64173551,4.97993519 9.82502455,5.1514101 C10.0083136,5.32288501 10.0999567,5.56379977 10.0999567,5.87416159 C10.0999567,6.14107277 10.0182416,6.3734527 9.85480887,6.57130837 C9.69137614,6.76916404 9.44012119,6.86809038 9.10103646,6.86809038 L8.04254755,6.86809038 L8.04254755,8.31359338 L7.58661834,8.31359338 L7.58661834,4.89419902 Z M9.36451314,5.36439484 C9.26370417,5.31628875 9.12547576,5.29223607 8.94982376,5.29223607 L8.04254755,5.29223607 L8.04254755,6.47703643 L8.94982376,6.47703643 C9.15449652,6.47703643 9.32059972,6.43281054 9.44813835,6.34435742 C9.57567697,6.25590429 9.63944532,6.09994981 9.63944532,5.8764893 C9.63944532,5.62509621 9.54780218,5.45439977 9.36451314,5.36439484 L9.36451314,5.36439484 Z M11.9113016,5.88929166 C12.0747343,5.97231345 12.1992163,6.07977462 12.2847512,6.2116784 C12.3672312,6.33737494 12.4222171,6.4840187 12.4497105,6.65161409 C12.474149,6.76644797 12.4863681,6.9495587 12.4863681,7.20095178 L10.6878534,7.20095178 C10.6954904,7.45389667 10.7542948,7.65679268 10.8642682,7.80964588 C10.9742416,7.96249908 11.1445451,8.03892453 11.3751839,8.03892453 C11.5905485,8.03892453 11.7623794,7.96676649 11.8906817,7.82244824 C11.9639973,7.73865055 12.0159284,7.64166393 12.0464766,7.53148548 L12.4520016,7.53148548 C12.4413097,7.62304222 12.405798,7.72507214 12.3454654,7.8375783 C12.2851327,7.95008447 12.2175459,8.04202778 12.1427029,8.113411 C12.0174554,8.23755573 11.8624257,8.32135217 11.6776093,8.36480282 C11.5783277,8.38963177 11.4660648,8.40204606 11.3408173,8.40204606 C11.0353356,8.40204606 10.7764437,8.28915364 10.5641339,8.06336541 C10.3518241,7.83757717 10.2456708,7.5214008 10.2456708,7.11482681 C10.2456708,6.71446005 10.3525878,6.38936091 10.566425,6.13951963 C10.7802622,5.88967836 11.0597738,5.7647596 11.4049682,5.7647596 C11.5790928,5.7647596 11.7478689,5.80626987 11.9113016,5.88929166 L11.9113016,5.88929166 Z M12.0625143,6.86809038 C12.0457128,6.68652871 12.0067645,6.54143674 11.9456681,6.4328101 C11.8326399,6.23107491 11.6440078,6.13020882 11.3797661,6.13020882 C11.1903674,6.13020882 11.0315193,6.19965124 10.9032169,6.33853816 C10.7749146,6.47742508 10.7069459,6.65394072 10.6993089,6.86809038 L12.0625143,6.86809038 Z M12.7580928,5.82062445 L13.1498711,5.82062445 L13.1498711,6.17443516 C13.2659542,6.0285651 13.3889087,5.92381956 13.5187385,5.86019538 C13.6485682,5.79657121 13.7929062,5.7647596 13.9517567,5.7647596 C14.3000058,5.7647596 14.5352232,5.88812657 14.6574159,6.13486423 C14.7246219,6.26987162 14.7582244,6.46306897 14.7582244,6.71446205 L14.7582244,8.31359338 L14.3389528,8.31359338 L14.3389528,6.74239447 C14.3389528,6.59031718 14.3168057,6.46772609 14.2725109,6.37461754 C14.1991953,6.21943663 14.0663127,6.14184733 13.8738592,6.14184733 C13.776105,6.14184733 13.6959173,6.15193394 13.6332935,6.17210746 C13.5202653,6.20624726 13.4209852,6.27452584 13.3354503,6.37694525 C13.266717,6.45919113 13.2220409,6.54415141 13.2014209,6.63182862 C13.1808009,6.71950584 13.170491,6.84481255 13.170491,7.00775251 L13.170491,8.31359338 L12.7580928,8.31359338 L12.7580928,5.82062445 Z M15.1330486,5.82062445 L15.524827,5.82062445 L15.524827,6.17443516 C15.64091,6.0285651 15.7638646,5.92381956 15.8936943,5.86019538 C16.0235241,5.79657121 16.167862,5.7647596 16.3267125,5.7647596 C16.6749617,5.7647596 16.9101791,5.88812657 17.0323718,6.13486423 C17.0995778,6.26987162 17.1331803,6.46306897 17.1331803,6.71446205 L17.1331803,8.31359338 L16.7139087,8.31359338 L16.7139087,6.74239447 C16.7139087,6.59031718 16.6917616,6.46772609 16.6474667,6.37461754 C16.5741511,6.21943663 16.4412686,6.14184733 16.2488151,6.14184733 C16.1510609,6.14184733 16.0708732,6.15193394 16.0082494,6.17210746 C15.8952212,6.20624726 15.7959411,6.27452584 15.7104062,6.37694525 C15.6416728,6.45919113 15.5969968,6.54415141 15.5763768,6.63182862 C15.5557567,6.71950584 15.5454469,6.84481255 15.5454469,7.00775251 L15.5454469,8.31359338 L15.1330486,8.31359338 L15.1330486,5.82062445 Z M19.0361692,5.88929166 C19.1996019,5.97231345 19.3240839,6.07977462 19.4096188,6.2116784 C19.4920988,6.33737494 19.5470847,6.4840187 19.5745781,6.65161409 C19.5990166,6.76644797 19.6112357,6.9495587 19.6112357,7.20095178 L17.812721,7.20095178 C17.820358,7.45389667 17.8791624,7.65679268 17.9891358,7.80964588 C18.0991092,7.96249908 18.2694127,8.03892453 18.5000514,8.03892453 C18.7154161,8.03892453 18.887247,7.96676649 19.0155493,7.82244824 C19.0888649,7.73865055 19.140796,7.64166393 19.1713442,7.53148548 L19.5768692,7.53148548 C19.5661773,7.62304222 19.5306656,7.72507214 19.4703329,7.8375783 C19.4100003,7.95008447 19.3424135,8.04202778 19.2675705,8.113411 C19.142323,8.23755573 18.9872933,8.32135217 18.8024768,8.36480282 C18.7031953,8.38963177 18.5909324,8.40204606 18.4656849,8.40204606 C18.1602032,8.40204606 17.9013113,8.28915364 17.6890015,8.06336541 C17.4766917,7.83757717 17.3705384,7.5214008 17.3705384,7.11482681 C17.3705384,6.71446005 17.4774554,6.38936091 17.6912926,6.13951963 C17.9051298,5.88967836 18.1846414,5.7647596 18.5298358,5.7647596 C18.7039604,5.7647596 18.8727365,5.80626987 19.0361692,5.88929166 L19.0361692,5.88929166 Z M19.1873819,6.86809038 C19.1705804,6.68652871 19.1316321,6.54143674 19.0705357,6.4328101 C18.9575075,6.23107491 18.7688753,6.13020882 18.5046336,6.13020882 C18.315235,6.13020882 18.1563869,6.19965124 18.0280845,6.33853816 C17.8997822,6.47742508 17.8318135,6.65394072 17.8241765,6.86809038 L19.1873819,6.86809038 Z M21.4157073,5.82062445 L21.8716365,5.82062445 C21.8135949,5.98046079 21.6845309,6.34513047 21.4844403,6.91464443 C21.3347543,7.34294375 21.2095086,7.69209557 21.1086997,7.96211036 C20.8704239,8.59835212 20.7024115,8.98629858 20.6046573,9.12596141 C20.5069032,9.26562423 20.3388907,9.33545459 20.100615,9.33545459 C20.0425735,9.33545459 19.9978974,9.33312692 19.9665855,9.32847149 C19.9352737,9.32381606 19.8967072,9.31528124 19.8508849,9.30286676 L19.8508849,8.92112362 C19.9226731,8.94129714 19.9746042,8.95371143 20.0066798,8.95836686 C20.0387554,8.96302228 20.067012,8.96534996 20.0914506,8.96534996 C20.167821,8.96534996 20.2239524,8.95254773 20.2598465,8.92694288 C20.2957406,8.90133803 20.3259065,8.86991436 20.3503451,8.83267094 C20.3579821,8.82025647 20.385475,8.75663325 20.4328247,8.64179937 C20.4801744,8.5269655 20.5145406,8.44161727 20.5359243,8.38575214 L19.6286481,5.82062445 L20.0960328,5.82062445 L20.7535789,7.85038066 L21.4157073,5.82062445 Z"/>
  </defs>
  <title id="title-12" lang="en">gold mastercard</title>
  <g fill="none" fill-rule="evenodd" transform="translate(4 9)">
    <rect width="24.005" height="14.67" fill="url(#jcpenney-gold-a)" rx="2"/>
    <use fill="#FFF" xlink:href="#jcpenney-gold-b"/>
  </g>
</svg>
