<?xml version="1.0" encoding="UTF-8"?>
<svg width="31px" height="27px" viewBox="0 0 31 27" version="1.1" xmlns="http://www.w3.org/2000/svg" xmlns:xlink="http://www.w3.org/1999/xlink">
    <!-- Generator: Sketch 46.1 (44463) - http://www.bohemiancoding.com/sketch -->
    <title>icon/ALL/menu</title>
    <desc>Created with Sketch.</desc>
    <defs>
        <path d="M41.25,14.8958333 C41.8828263,14.8958333 42.3958333,15.4088404 42.3958333,16.0416667 C42.3958333,16.6744929 41.8828263,17.1875 41.25,17.1875 L13.75,17.1875 C13.1171737,17.1875 12.6041667,16.6744929 12.6041667,16.0416667 C12.6041667,15.4088404 13.1171737,14.8958333 13.75,14.8958333 L41.25,14.8958333 Z M41.25,26.3541667 C41.8828263,26.3541667 42.3958333,26.8671737 42.3958333,27.5 C42.3958333,28.1328263 41.8828263,28.6458333 41.25,28.6458333 L13.75,28.6458333 C13.1171737,28.6458333 12.6041667,28.1328263 12.6041667,27.5 C12.6041667,26.8671737 13.1171737,26.3541667 13.75,26.3541667 L41.25,26.3541667 Z M41.25,37.8125 C41.8828263,37.8125 42.3958333,38.3255071 42.3958333,38.9583333 C42.3958333,39.5911596 41.8828263,40.1041667 41.25,40.1041667 L13.75,40.1041667 C13.1171737,40.1041667 12.6041667,39.5911596 12.6041667,38.9583333 C12.6041667,38.3255071 13.1171737,37.8125 13.75,37.8125 L41.25,37.8125 Z" id="path-1"></path>
    </defs>
    <g id="Page-1" stroke="none" stroke-width="1" fill="none" fill-rule="evenodd">
        <g id="LIncoln-Main-Nav-Search---SMALL" transform="translate(-15.000000, -16.000000)">
            <g id="icon/ALL/menu" transform="translate(3.000000, 2.000000)">
                <mask id="mask-2" fill="white">
                    <use xlink:href="#path-1"></use>
                </mask>
                <use id="Mask" fill="#384048" fill-rule="nonzero" xlink:href="#path-1"></use>
                <g id="Color/White" mask="url(#mask-2)" fill-rule="evenodd" fill="#FFFFFF">
                    <rect id="Swatch" x="0" y="0" width="55" height="55"></rect>
                </g>
            </g>
        </g>
    </g>
</svg>