<?xml version="1.0" encoding="UTF-8"?>
<svg width="28px" height="28px" viewBox="0 0 28 28" version="1.1" xmlns="http://www.w3.org/2000/svg" xmlns:xlink="http://www.w3.org/1999/xlink">
    <!-- Generator: Sketch 46.1 (44463) - http://www.bohemiancoding.com/sketch -->
    <title>icon/ALL/search</title>
    <desc>Created with Sketch.</desc>
    <defs>
        <path d="M39.9906346,36.9600287 C39.2300913,36.2591914 33.3749856,30.5891914 31.9903269,29.2478469 C33.0984952,27.6319809 33.7474038,25.6793254 33.7474038,23.5752632 C33.747274,18.0108086 29.2147788,13.5 23.6237019,13.5 C18.0324952,13.5 13.5,18.0108086 13.5,23.5752632 C13.5,29.1397177 18.0324952,33.6505263 23.6237019,33.6505263 C25.6057356,33.6505263 27.4532885,33.0814593 29.0146154,32.1017081 C30.2736202,33.3446124 36.1823365,39.173512 36.9880529,39.9087129 C37.3537212,40.2421435 37.7936394,40.4059522 38.2425144,40.4059522 C38.8004279,40.405823 39.3718413,40.1527464 39.8300625,39.6578325 C40.6405817,38.7823349 40.7096394,37.6224976 39.9906346,36.9600287 L39.9906346,36.9600287 Z M15.9650481,23.5752632 C15.9650481,19.3724739 19.400707,15.9532536 23.6237019,15.9532536 C27.8466969,15.9532536 31.2823558,19.3724739 31.2823558,23.5752632 C31.2823558,27.7780524 27.8466969,31.1972727 23.6237019,31.1972727 C19.400707,31.1972727 15.9650481,27.7780524 15.9650481,23.5752632 L15.9650481,23.5752632 Z" id="path-1"></path>
    </defs>
    <g id="Page-1" stroke="none" stroke-width="1" fill="none" fill-rule="evenodd">
        <g id="LIncoln-Main-Nav-Search---SMALL" transform="translate(-276.000000, -16.000000)">
            <g id="icon/ALL/search" transform="translate(263.000000, 3.000000)">
                <mask id="mask-2" fill="white">
                    <use xlink:href="#path-1"></use>
                </mask>
                <use id="Mask" fill="#384048" fill-rule="evenodd" xlink:href="#path-1"></use>
                <g id="Color/White" mask="url(#mask-2)" fill-rule="evenodd" fill="#FFFFFF">
                    <rect id="Swatch" x="0" y="0" width="54" height="54"></rect>
                </g>
            </g>
        </g>
    </g>
</svg>