<?xml version="1.0" encoding="utf-8"?>
<svg version="1.1" id="icon_x2F_Alert_x2F_error-Layer_1"
	 xmlns="http://www.w3.org/2000/svg" xmlns:xlink="http://www.w3.org/1999/xlink" x="0px" y="0px" viewBox="0 0 48 48"
	 style="enable-background:new 0 0 48 48;" xml:space="preserve">
<path id="icon_x2F_Alert_x2F_error-path-1_1_" style="fill:#9D2028;" d="M35.3,18.3l-5.7-5.6c-0.4-0.4-1-0.7-1.6-0.7h-8.1
	c-0.5,0-1.1,0.2-1.5,0.7l-5.5,5.4c-0.6,0.6-0.9,1.3-0.9,2.1V28c0,0.6,0.2,1.2,0.7,1.7l5.6,5.6c0.5,0.4,1.1,0.7,1.8,0.7h7.8
	c0.7,0,1.3-0.3,1.8-0.8l5.4-5.4c0.6-0.6,0.9-1.3,0.9-2.2V20C36,19.3,35.7,18.7,35.3,18.3z M23.4,18c0-0.4,0.3-0.7,0.7-0.7
	c0.4,0,0.7,0.3,0.7,0.7v9.2c0,0.4-0.3,0.7-0.7,0.7c-0.4,0-0.7-0.3-0.7-0.7V18z M24,30.8c-0.5,0-0.9-0.4-0.9-0.9S23.5,29,24,29
	s0.9,0.4,0.9,0.9S24.5,30.8,24,30.8z"/>
</svg>
