<svg id="icon_x2F_Alert_x2F_error-2-Layer_1" xmlns="http://www.w3.org/2000/svg" viewBox="0 0 48 48" enable-background="new 0 0 48 48"><title>icon/Alert/error-2</title><g id="icon_x2F_Alert_x2F_error-2-Symbols"><g id="icon_x2F_Alert_x2F_error-2"><g id="icon_x2F_Alert_x2F_error-2-Icon" transform="translate(12 12)"><g id="icon_x2F_Alert_x2F_error-2-Mask"><path id="icon_x2F_Alert_x2F_error-2-path-1_1_" d="M12 2.4c-5.3 0-9.6 4.3-9.6 9.6 0 2.2.8 4.3 2 5.9L17.9 4.4c-1.6-1.2-3.7-2-5.9-2zM12 24C5.4 24 0 18.6 0 12S5.4 0 12 0s12 5.4 12 12-5.4 12-12 12zm7.6-17.9L6.1 19.6c1.6 1.3 3.7 2 5.9 2 5.3 0 9.6-4.3 9.6-9.6 0-2.2-.8-4.3-2-5.9z" fill="#384048"/></g><defs><filter id="icon_x2F_Alert_x2F_error-2-Adobe_OpacityMaskFilter" filterUnits="userSpaceOnUse" x="-12" y="-12" width="48" height="48"><feColorMatrix values="1 0 0 0 0 0 1 0 0 0 0 0 1 0 0 0 0 0 1 0"/></filter></defs><mask maskUnits="userSpaceOnUse" x="-12" y="-12" width="48" height="48" id="icon_x2F_Alert_x2F_error-2-mask-2"><g filter="url(#icon_x2F_Alert_x2F_error-2-Adobe_OpacityMaskFilter)"><path id="icon_x2F_Alert_x2F_error-2-path-1" d="M12 2.4c-5.3 0-9.6 4.3-9.6 9.6 0 2.2.8 4.3 2 5.9L17.9 4.4c-1.6-1.2-3.7-2-5.9-2zM12 24C5.4 24 0 18.6 0 12S5.4 0 12 0s12 5.4 12 12-5.4 12-12 12zm7.6-17.9L6.1 19.6c1.6 1.3 3.7 2 5.9 2 5.3 0 9.6-4.3 9.6-9.6 0-2.2-.8-4.3-2-5.9z" fill="#fff"/></g></mask><g id="icon_x2F_Alert_x2F_error-2-Color_x2F_Messaging_x2F_Error" mask="url(#icon_x2F_Alert_x2F_error-2-mask-2)"><path fill="#9d2028" d="M0 0h48v48H0z" transform="translate(-12 -12)" id="icon_x2F_Alert_x2F_error-2-Swatch"/></g></g></g></g></svg>