<?xml version="1.0" encoding="utf-8"?>
<!-- Generator: Adobe Illustrator 21.0.2, SVG Export Plug-In . SVG Version: 6.00 Build 0)  -->
<svg version="1.1" id="icon_x2F_Alert_x2F_error-Layer_1" xmlns="http://www.w3.org/2000/svg" xmlns:xlink="http://www.w3.org/1999/xlink" x="0px" y="0px"
	 viewBox="0 0 48 48" style="enable-background:new 0 0 48 48;" xml:space="preserve">
<title>icon/Alert/error</title>
<desc>Created with Sketch.</desc>
<g id="icon_x2F_Alert_x2F_error-Symbols">
	<g id="icon_x2F_Alert_x2F_error">
		<g id="icon_x2F_Alert_x2F_error-Icon" transform="translate(12.000000, 12.000000)">
			<g id="icon_x2F_Alert_x2F_error-Mask">
				<path id="icon_x2F_Alert_x2F_error-path-1_1_" style="fill:#384048;" d="M23.3,6.3l-5.7-5.6C17.2,0.3,16.6,0,16,0L7.9,0C7.4,0,6.8,0.2,6.4,0.7L0.9,6.1
					C0.3,6.7,0,7.4,0,8.2v7.8c0,0.6,0.2,1.2,0.7,1.7l5.6,5.6C6.8,23.7,7.4,24,8.1,24h7.8c0.7,0,1.3-0.3,1.8-0.8l5.4-5.4
					c0.6-0.6,0.9-1.3,0.9-2.2V8C24,7.3,23.7,6.7,23.3,6.3L23.3,6.3z M11.4,6c0-0.4,0.3-0.7,0.7-0.7c0.4,0,0.7,0.3,0.7,0.7v9.2
					c0,0.4-0.3,0.7-0.7,0.7c-0.4,0-0.7-0.3-0.7-0.7V6L11.4,6z M12,18.8c-0.5,0-0.9-0.4-0.9-0.9c0-0.5,0.4-0.9,0.9-0.9
					c0.5,0,0.9,0.4,0.9,0.9C12.9,18.4,12.5,18.8,12,18.8L12,18.8z"/>
			</g>
			<defs>
				<filter id="icon_x2F_Alert_x2F_error-Adobe_OpacityMaskFilter" filterUnits="userSpaceOnUse" x="-12" y="-12" width="48" height="48">
					<feColorMatrix  type="matrix" values="1 0 0 0 0  0 1 0 0 0  0 0 1 0 0  0 0 0 1 0"/>
				</filter>
			</defs>
			<mask maskUnits="userSpaceOnUse" x="-12" y="-12" width="48" height="48" id="icon_x2F_Alert_x2F_error-mask-2">
				<g style="filter:url(#icon_x2F_Alert_x2F_error-Adobe_OpacityMaskFilter);">
					<path id="icon_x2F_Alert_x2F_error-path-1" style="fill:#FFFFFF;" d="M23.3,6.3l-5.7-5.6C17.2,0.3,16.6,0,16,0L7.9,0C7.4,0,6.8,0.2,6.4,0.7L0.9,6.1
						C0.3,6.7,0,7.4,0,8.2v7.8c0,0.6,0.2,1.2,0.7,1.7l5.6,5.6C6.8,23.7,7.4,24,8.1,24h7.8c0.7,0,1.3-0.3,1.8-0.8l5.4-5.4
						c0.6-0.6,0.9-1.3,0.9-2.2V8C24,7.3,23.7,6.7,23.3,6.3L23.3,6.3z M11.4,6c0-0.4,0.3-0.7,0.7-0.7c0.4,0,0.7,0.3,0.7,0.7v9.2
						c0,0.4-0.3,0.7-0.7,0.7c-0.4,0-0.7-0.3-0.7-0.7V6L11.4,6z M12,18.8c-0.5,0-0.9-0.4-0.9-0.9c0-0.5,0.4-0.9,0.9-0.9
						c0.5,0,0.9,0.4,0.9,0.9C12.9,18.4,12.5,18.8,12,18.8L12,18.8z"/>
				</g>
			</mask>
			<g id="icon_x2F_Alert_x2F_error-Color_x2F_Messaging_x2F_Error" style="mask:url(#icon_x2F_Alert_x2F_error-mask-2);">
				<g id="icon_x2F_Alert_x2F_error-Swatch" transform="translate(-12.000000, -12.000000)">
					<rect style="fill:#9D2028;" width="48" height="48"/>
				</g>
			</g>
		</g>
	</g>
</g>
</svg>
