<svg id="icon_x2F_Alert_x2F_information-Layer_1" xmlns="http://www.w3.org/2000/svg" viewBox="0 0 48 48" enable-background="new 0 0 48 48"><title>icon/Alert/information</title><g id="icon_x2F_Alert_x2F_information-Symbols"><g id="icon_x2F_Alert_x2F_information"><g id="icon_x2F_Alert_x2F_information-Icon" transform="translate(12 12)"><g id="icon_x2F_Alert_x2F_information-Mask"><path id="icon_x2F_Alert_x2F_information-path-1_1_" d="M12 0C5.4 0 0 5.4 0 12s5.4 12 12 12 12-5.4 12-12S18.6 0 12 0zm.7 17.6c0 .4-.3.7-.7.7s-.7-.3-.7-.7V8.2c0-.4.3-.7.7-.7s.7.3.7.7v9.4zm-.7-11c-.5 0-.9-.4-.9-.9s.4-.9.9-.9.9.4.9.9-.4.9-.9.9z" fill="#384048"/></g><defs><filter id="icon_x2F_Alert_x2F_information-Adobe_OpacityMaskFilter" filterUnits="userSpaceOnUse" x="-12" y="-12" width="48" height="48"><feColorMatrix values="1 0 0 0 0 0 1 0 0 0 0 0 1 0 0 0 0 0 1 0"/></filter></defs><mask maskUnits="userSpaceOnUse" x="-12" y="-12" width="48" height="48" id="icon_x2F_Alert_x2F_information-mask-2"><g filter="url(#icon_x2F_Alert_x2F_information-Adobe_OpacityMaskFilter)"><path id="icon_x2F_Alert_x2F_information-path-1" d="M12 0C5.4 0 0 5.4 0 12s5.4 12 12 12 12-5.4 12-12S18.6 0 12 0zm.7 17.6c0 .4-.3.7-.7.7s-.7-.3-.7-.7V8.2c0-.4.3-.7.7-.7s.7.3.7.7v9.4zm-.7-11c-.5 0-.9-.4-.9-.9s.4-.9.9-.9.9.4.9.9-.4.9-.9.9z" fill="#fff"/></g></mask><g id="icon_x2F_Alert_x2F_information-Color_x2F_Messaging_x2F_Neutral" mask="url(#icon_x2F_Alert_x2F_information-mask-2)"><path fill="#056b9e" d="M0 0h48v48H0z" transform="translate(-12 -12)" id="icon_x2F_Alert_x2F_information-Swatch"/></g></g></g></g></svg>