<svg id="icon_x2F_Alert_x2F_success-Layer_1" xmlns="http://www.w3.org/2000/svg" viewBox="0 0 48 48" enable-background="new 0 0 48 48"><title>icon/Alert/success</title><g id="icon_x2F_Alert_x2F_success-Symbols"><g id="icon_x2F_Alert_x2F_success"><g id="icon_x2F_Alert_x2F_success-Group-2" transform="translate(12 12)"><g id="icon_x2F_Alert_x2F_success-Mask"><path id="icon_x2F_Alert_x2F_success-path-1_1_" d="M12 0C5.4 0 0 5.4 0 12s5.4 12 12 12 12-5.4 12-12S18.6 0 12 0zm6.6 7.4c.4.4.4 1 0 1.4l-8.7 8.7c-.2.2-.5.3-.7.3-.3 0-.5-.1-.7-.3l-2.9-2.9c-.4-.4-.4-1 0-1.4.4-.4 1-.4 1.4 0l2.2 2.2 8-8c.4-.4 1-.4 1.4 0z" fill="#384048"/></g><defs><filter id="icon_x2F_Alert_x2F_success-Adobe_OpacityMaskFilter" filterUnits="userSpaceOnUse" x="-12" y="-12" width="48" height="48"><feColorMatrix values="1 0 0 0 0 0 1 0 0 0 0 0 1 0 0 0 0 0 1 0"/></filter></defs><mask maskUnits="userSpaceOnUse" x="-12" y="-12" width="48" height="48" id="icon_x2F_Alert_x2F_success-mask-2"><g filter="url(#icon_x2F_Alert_x2F_success-Adobe_OpacityMaskFilter)"><path id="icon_x2F_Alert_x2F_success-path-1" d="M12 0C5.4 0 0 5.4 0 12s5.4 12 12 12 12-5.4 12-12S18.6 0 12 0zm6.6 7.4c.4.4.4 1 0 1.4l-8.7 8.7c-.2.2-.5.3-.7.3-.3 0-.5-.1-.7-.3l-2.9-2.9c-.4-.4-.4-1 0-1.4.4-.4 1-.4 1.4 0l2.2 2.2 8-8c.4-.4 1-.4 1.4 0z" fill="#fff"/></g></mask><g id="icon_x2F_Alert_x2F_success-Color_x2F_Messaging_x2F_Success" mask="url(#icon_x2F_Alert_x2F_success-mask-2)"><path fill="#2a7952" d="M0 0h48v48H0z" transform="translate(-12 -12)" id="icon_x2F_Alert_x2F_success-Swatch"/></g></g></g></g></svg>