<?xml version="1.0" encoding="utf-8"?>
<!-- Generator: Adobe Illustrator 21.0.2, SVG Export Plug-In . SVG Version: 6.00 Build 0)  -->
<svg version="1.1" id="icon_x2F_Alert_x2F_success-check-Layer_1" xmlns="http://www.w3.org/2000/svg" xmlns:xlink="http://www.w3.org/1999/xlink" x="0px" y="0px"
	 viewBox="0 0 48 48" style="enable-background:new 0 0 48 48;" xml:space="preserve">
<title>icon/Alert/success-check</title>
<desc>Created with Sketch.</desc>
<g id="icon_x2F_Alert_x2F_success-check-Symbols">
	<g id="icon_x2F_Alert_x2F_success-check">
		<g id="icon_x2F_Alert_x2F_success-check-Icon" transform="translate(11.000000, 13.000000)">
			<g id="icon_x2F_Alert_x2F_success-check-Mask">
				<path id="icon_x2F_Alert_x2F_success-check-path-1_1_" style="fill:#384048;" d="M5.5,11.2c-1.5-1.1-3.7-0.8-4.9,0.7s-0.8,3.5,0.7,4.6l6.9,4.9
					c1.5,1.1,3.7,0.8,4.9-0.7L25.3,5.2c1.1-1.4,0.8-3.5-0.7-4.6c-1.5-1.1-3.7-0.8-4.8,0.7L9.7,14.2L5.5,11.2z"/>
			</g>
			<defs>
				<filter id="icon_x2F_Alert_x2F_success-check-Adobe_OpacityMaskFilter" filterUnits="userSpaceOnUse" x="-11" y="-13" width="48" height="48">
					<feColorMatrix  type="matrix" values="1 0 0 0 0  0 1 0 0 0  0 0 1 0 0  0 0 0 1 0"/>
				</filter>
			</defs>
			<mask maskUnits="userSpaceOnUse" x="-11" y="-13" width="48" height="48" id="icon_x2F_Alert_x2F_success-check-mask-2">
				<g style="filter:url(#icon_x2F_Alert_x2F_success-check-Adobe_OpacityMaskFilter);">
					<path id="icon_x2F_Alert_x2F_success-check-path-1" style="fill:#FFFFFF;" d="M5.5,11.2c-1.5-1.1-3.7-0.8-4.9,0.7s-0.8,3.5,0.7,4.6l6.9,4.9
						c1.5,1.1,3.7,0.8,4.9-0.7L25.3,5.2c1.1-1.4,0.8-3.5-0.7-4.6c-1.5-1.1-3.7-0.8-4.8,0.7L9.7,14.2L5.5,11.2z"/>
				</g>
			</mask>
			<g id="icon_x2F_Alert_x2F_success-check-Color_x2F_Messaging_x2F_Success" style="mask:url(#icon_x2F_Alert_x2F_success-check-mask-2);">
				<g id="icon_x2F_Alert_x2F_success-check-Swatch" transform="translate(-11.000000, -13.000000)">
					<rect style="fill:#2A7952;" width="48" height="48"/>
				</g>
			</g>
		</g>
	</g>
</g>
</svg>
