<?xml version="1.0" encoding="utf-8"?>
<svg version="1.1" id="icon_x2F_Alert_x2F_success-Layer_1"
	 xmlns="http://www.w3.org/2000/svg" xmlns:xlink="http://www.w3.org/1999/xlink" x="0px" y="0px" viewBox="0 0 48 48"
	 style="enable-background:new 0 0 48 48;" xml:space="preserve">
<path id="icon_x2F_Alert_x2F_success-path-1_1_" style="fill:#2A7952;" d="M24,12c-6.6,0-12,5.4-12,12s5.4,12,12,12s12-5.4,12-12
	S30.6,12,24,12z M30.6,19.4c0.4,0.4,0.4,1,0,1.4l-8.7,8.7c-0.2,0.2-0.5,0.3-0.7,0.3c-0.3,0-0.5-0.1-0.7-0.3l-2.9-2.9
	c-0.4-0.4-0.4-1,0-1.4s1-0.4,1.4,0l2.2,2.2l8-8C29.6,19,30.2,19,30.6,19.4z"/>
</svg>
