<svg id="icon_x2F_Alert_x2F_success-check-Layer_1" xmlns="http://www.w3.org/2000/svg" viewBox="0 0 48 48" enable-background="new 0 0 48 48"><title>icon/Alert/success-check</title><g id="icon_x2F_Alert_x2F_success-check-Symbols"><g id="icon_x2F_Alert_x2F_success-check"><g id="icon_x2F_Alert_x2F_success-check-Icon" transform="translate(11 13)"><g id="icon_x2F_Alert_x2F_success-check-Mask"><path id="icon_x2F_Alert_x2F_success-check-path-1_1_" d="M5.5 11.2c-1.5-1.1-3.7-.8-4.9.7s-.8 3.5.7 4.6l6.9 4.9c1.5 1.1 3.7.8 4.9-.7L25.3 5.2c1.1-1.4.8-3.5-.7-4.6-1.5-1.1-3.7-.8-4.8.7L9.7 14.2l-4.2-3z" fill="#384048"/></g><defs><filter id="icon_x2F_Alert_x2F_success-check-Adobe_OpacityMaskFilter" filterUnits="userSpaceOnUse" x="-11" y="-13" width="48" height="48"><feColorMatrix values="1 0 0 0 0 0 1 0 0 0 0 0 1 0 0 0 0 0 1 0"/></filter></defs><mask maskUnits="userSpaceOnUse" x="-11" y="-13" width="48" height="48" id="icon_x2F_Alert_x2F_success-check-mask-2"><g filter="url(#icon_x2F_Alert_x2F_success-check-Adobe_OpacityMaskFilter)"><path id="icon_x2F_Alert_x2F_success-check-path-1" d="M5.5 11.2c-1.5-1.1-3.7-.8-4.9.7s-.8 3.5.7 4.6l6.9 4.9c1.5 1.1 3.7.8 4.9-.7L25.3 5.2c1.1-1.4.8-3.5-.7-4.6-1.5-1.1-3.7-.8-4.8.7L9.7 14.2l-4.2-3z" fill="#fff"/></g></mask><g id="icon_x2F_Alert_x2F_success-check-Color_x2F_Messaging_x2F_Success" mask="url(#icon_x2F_Alert_x2F_success-check-mask-2)"><path fill="#2a7952" d="M0 0h48v48H0z" transform="translate(-11 -13)" id="icon_x2F_Alert_x2F_success-check-Swatch"/></g></g></g></g></svg>