<svg id="icon_x2F_Alert_x2F_warning-Layer_1" xmlns="http://www.w3.org/2000/svg" viewBox="0 0 48 48" enable-background="new 0 0 48 48"><title>icon/Alert/warning</title><g id="icon_x2F_Alert_x2F_warning-Symbols"><g id="icon_x2F_Alert_x2F_warning"><g id="icon_x2F_Alert_x2F_warning-Icon" transform="translate(11 12)"><g id="icon_x2F_Alert_x2F_warning-Mask"><path id="icon_x2F_Alert_x2F_warning-path-1_1_" d="M25.7 21.1L14.6 1c-.3-.6-1-1-1.7-1s-1.2.4-1.6 1L.3 21.1c-.3.6-.5 1.4-.1 1.9.3.6 1 .9 1.7.9h21.8c.8 0 1.7-.4 2.1-1 .3-.5.2-1.2-.1-1.8zM12.4 6.9c0-.4.3-.7.7-.7s.7.3.7.7v9.8c0 .4-.3.7-.7.7s-.7-.3-.7-.7V6.9zm.6 13.7c-.5 0-1-.4-1-1 0-.5.4-1 1-1s1 .4 1 1c0 .5-.5 1-1 1z" fill="#384048"/></g><defs><filter id="icon_x2F_Alert_x2F_warning-Adobe_OpacityMaskFilter" filterUnits="userSpaceOnUse" x="-11" y="-12" width="48" height="48"><feColorMatrix values="1 0 0 0 0 0 1 0 0 0 0 0 1 0 0 0 0 0 1 0"/></filter></defs><mask maskUnits="userSpaceOnUse" x="-11" y="-12" width="48" height="48" id="icon_x2F_Alert_x2F_warning-mask-2"><g filter="url(#icon_x2F_Alert_x2F_warning-Adobe_OpacityMaskFilter)"><path id="icon_x2F_Alert_x2F_warning-path-1" d="M25.7 21.1L14.6 1c-.3-.6-1-1-1.7-1s-1.2.4-1.6 1L.3 21.1c-.3.6-.5 1.4-.1 1.9.3.6 1 .9 1.7.9h21.8c.8 0 1.7-.4 2.1-1 .3-.5.2-1.2-.1-1.8zM12.4 6.9c0-.4.3-.7.7-.7s.7.3.7.7v9.8c0 .4-.3.7-.7.7s-.7-.3-.7-.7V6.9zm.6 13.7c-.5 0-1-.4-1-1 0-.5.4-1 1-1s1 .4 1 1c0 .5-.5 1-1 1z" fill="#fff"/></g></mask><g id="icon_x2F_Alert_x2F_warning-Color_x2F_Messaging_x2F_Warning" mask="url(#icon_x2F_Alert_x2F_warning-mask-2)"><path fill="#615d14" d="M0 0h48v48H0z" transform="translate(-11 -12)" id="icon_x2F_Alert_x2F_warning-Swatch"/></g></g></g></g></svg>