<svg xmlns="http://www.w3.org/2000/svg" xmlns:xlink="http://www.w3.org/1999/xlink" width="32" height="32" viewBox="0 0 32 32">
  <defs>
    <path id="warning-a" d="M27.7029001,24.3665597 L17.5131695,5.88542708 C17.1940592,5.3392453 16.5950397,5 15.9506188,5 C15.308998,5 14.8103818,5.3385085 14.4878714,5.88374296 L4.29354067,24.3508763 C3.97253026,24.8967423 3.87732717,25.5909163 4.19853759,26.1368875 C4.52114805,26.6831746 5.15286854,27 5.79438936,27 L25.9055418,27 C26.6878671,27 27.4834929,26.6651755 27.8066034,26.1169938 C28.1250138,25.5722857 28.0220104,24.9123204 27.7029001,24.3665597 L27.7029001,24.3665597 Z M14.2857143,11.4166667 L17.7142857,11.4166667 L17.7142857,18.75 L14.2857143,18.75 L14.2857143,11.4166667 Z M14.2857143,23.3333333 C14.2857143,22.3207692 15.0531868,21.5 16,21.5 C16.9468132,21.5 17.7142857,22.3207692 17.7142857,23.3333333 C17.7142857,24.3458974 16.9468132,25.1666667 16,25.1666667 C15.0531868,25.1666667 14.2857143,24.3458974 14.2857143,23.3333333 Z"/>
  </defs>
  <g fill="none" fill-rule="evenodd">
    <use fill="#384048" xlink:href="#warning-a"/>
  </g>
</svg>
